<?xml version="1.0" encoding="utf-8"?>
<!-- Generator: Adobe Illustrator 19.1.0, SVG Export Plug-In . SVG Version: 6.00 Build 0)  -->
<svg version="1.1" id="レイヤー_1" xmlns="http://www.w3.org/2000/svg" xmlns:xlink="http://www.w3.org/1999/xlink" x="0px"
	 y="0px" viewBox="-491 332.9 160 137" style="enable-background:new -491 332.9 160 137;" xml:space="preserve">
<style type="text/css">
	.st0{fill:#FFFFFF;}
	.st1{fill:#0D3819;}
	.st2{fill:#A9CC08;}
	.st3{fill:#1F67B1;}
	.st4{fill:#4C9ED8;}
	.st5{fill:#DADBDA;}
	.st6{fill:#9A9A9A;}
	.st7{fill:#F7B300;}
	.st8{fill:url(#XMLID_2_);}
	.st9{fill:url(#XMLID_3_);}
	.st10{fill:url(#XMLID_4_);}
	.st11{fill:url(#XMLID_5_);}
	.st12{fill:url(#XMLID_6_);}
	.st13{fill:url(#XMLID_7_);}
	.st14{fill:url(#XMLID_8_);}
	.st15{fill:url(#XMLID_9_);}
	.st16{fill:url(#XMLID_10_);}
	.st17{fill:url(#XMLID_11_);}
</style>
<g id="XMLID_3944_">
	<rect id="XMLID_3910_" x="-451.2" y="386.3" class="st0" width="100.9" height="61.4"/>
	<path id="XMLID_3907_" class="st1" d="M-351.3,384.9h-99.2c-1.3,0-2.4,1.1-2.4,2.4v64.2c0,1.3,1.1,2.4,2.4,2.4h99.2
		c1.3,0,2.4-1.1,2.4-2.4v-64.2C-348.9,385.9-350,384.9-351.3,384.9z M-353.6,445.2h-94.7v-55.8h94.7V445.2z"/>
	<rect id="XMLID_3906_" x="-412.1" y="453.4" class="st1" width="19.8" height="9"/>
	<rect id="XMLID_3905_" x="-422.9" y="462.2" class="st1" width="40.9" height="4.2"/>
	<rect id="XMLID_3904_" x="-437.5" y="411.2" class="st2" width="8" height="6.4"/>
	<rect id="XMLID_3903_" x="-437.5" y="417.3" class="st3" width="8" height="13.4"/>
	<rect id="XMLID_3902_" x="-437.5" y="430.9" class="st4" width="8" height="8.5"/>
	<rect id="XMLID_3901_" x="-426.4" y="403.7" class="st2" width="8" height="25.7"/>
	<rect id="XMLID_3900_" x="-426.4" y="428.6" class="st3" width="8" height="7"/>
	<rect id="XMLID_3899_" x="-426.4" y="434.9" class="st4" width="8" height="4.2"/>
	<rect id="XMLID_3898_" x="-414.8" y="413.7" class="st2" width="8" height="6.4"/>
	<rect id="XMLID_3897_" x="-414.8" y="417.1" class="st3" width="8" height="7"/>
	<rect id="XMLID_3896_" x="-414.8" y="421.9" class="st4" width="8" height="17.2"/>
	<rect id="XMLID_3895_" x="-441.2" y="439.4" class="st5" width="73.7" height="0.3"/>
	<g id="XMLID_3884_">
		<path id="XMLID_3894_" class="st6" d="M-435.4,408.8c0.1,0,0.2,0.1,0.3,0.1c0.3,0,0.3-0.2,0.3-0.3c0-0.2-0.2-0.3-0.4-0.3h-0.1
			v-0.1h0.1c0.1,0,0.3-0.1,0.3-0.3c0-0.1-0.1-0.2-0.3-0.2c-0.1,0-0.2,0.1-0.3,0.1l-0.1-0.1c0.1-0.1,0.2-0.1,0.4-0.1
			c0.3,0,0.4,0.2,0.4,0.4c0,0.2-0.1,0.3-0.3,0.3v0c0.2,0,0.3,0.2,0.3,0.4c0,0.2-0.2,0.4-0.5,0.4c-0.2,0-0.3-0.1-0.4-0.1
			L-435.4,408.8z"/>
		<path id="XMLID_3891_" class="st6" d="M-433.3,408.3c0,0.5-0.2,0.8-0.5,0.8c-0.3,0-0.5-0.3-0.5-0.8c0-0.5,0.2-0.8,0.5-0.8
			C-433.5,407.5-433.3,407.8-433.3,408.3z M-434.1,408.3c0,0.4,0.1,0.6,0.3,0.6c0.2,0,0.3-0.2,0.3-0.6c0-0.4-0.1-0.6-0.3-0.6
			C-434,407.7-434.1,407.9-434.1,408.3z"/>
		<path id="XMLID_3885_" class="st6" d="M-432.5,408c0,0.3-0.2,0.5-0.4,0.5c-0.2,0-0.3-0.1-0.3-0.4c0-0.3,0.2-0.5,0.4-0.5
			C-432.6,407.5-432.5,407.7-432.5,408z M-433,408c0,0.2,0.1,0.3,0.2,0.3c0.1,0,0.2-0.1,0.2-0.3c0-0.2-0.1-0.3-0.2-0.3
			C-432.9,407.6-433,407.8-433,408z M-432.8,409.1l0.9-1.5h0.1l-0.9,1.5H-432.8z M-431.5,408.6c0,0.3-0.2,0.5-0.4,0.5
			c-0.2,0-0.3-0.1-0.3-0.4c0-0.3,0.2-0.5,0.4-0.5C-431.6,408.1-431.5,408.3-431.5,408.6z M-432,408.6c0,0.2,0.1,0.3,0.2,0.3
			c0.1,0,0.2-0.1,0.2-0.3c0-0.2-0.1-0.3-0.2-0.3C-432,408.2-432,408.4-432,408.6z"/>
	</g>
	<rect id="XMLID_3883_" x="-403" y="417.7" class="st2" width="8" height="4.9"/>
	<rect id="XMLID_3882_" x="-403" y="422.5" class="st3" width="8" height="10.3"/>
	<rect id="XMLID_3881_" x="-403" y="432.9" class="st4" width="8" height="6.5"/>
	<rect id="XMLID_3880_" x="-391.9" y="412" class="st2" width="8" height="19.8"/>
	<rect id="XMLID_3879_" x="-391.9" y="431.1" class="st3" width="8" height="5.4"/>
	<rect id="XMLID_3878_" x="-391.9" y="436" class="st4" width="8" height="3.3"/>
	<rect id="XMLID_3877_" x="-368" y="419.7" class="st2" width="8" height="4.9"/>
	<rect id="XMLID_3876_" x="-368" y="422.3" class="st3" width="8" height="5.4"/>
	<rect id="XMLID_3875_" x="-368" y="426" class="st4" width="8" height="13.3"/>
	<g id="XMLID_3864_">
		<path id="XMLID_3874_" class="st6" d="M-423.9,401.6c0.1,0,0.2,0.1,0.3,0.1c0.3,0,0.3-0.2,0.3-0.3c0-0.2-0.2-0.3-0.4-0.3h-0.1
			v-0.2h0.1c0.1,0,0.3-0.1,0.3-0.3c0-0.1-0.1-0.2-0.3-0.2c-0.1,0-0.2,0.1-0.3,0.1l-0.1-0.1c0.1-0.1,0.2-0.1,0.4-0.1
			c0.3,0,0.4,0.2,0.4,0.4c0,0.2-0.1,0.3-0.3,0.3v0c0.2,0,0.3,0.2,0.3,0.4c0,0.2-0.2,0.4-0.5,0.4c-0.2,0-0.3-0.1-0.4-0.1
			L-423.9,401.6z"/>
		<path id="XMLID_3871_" class="st6" d="M-421.8,401.1c0,0.5-0.2,0.8-0.5,0.8c-0.3,0-0.5-0.3-0.5-0.8c0-0.5,0.2-0.8,0.5-0.8
			C-422,400.3-421.8,400.6-421.8,401.1z M-422.6,401.1c0,0.4,0.1,0.6,0.3,0.6c0.2,0,0.3-0.2,0.3-0.6c0-0.4-0.1-0.6-0.3-0.6
			C-422.5,400.5-422.6,400.7-422.6,401.1z"/>
		<path id="XMLID_3865_" class="st6" d="M-421,400.8c0,0.3-0.2,0.5-0.4,0.5c-0.2,0-0.3-0.1-0.3-0.4c0-0.3,0.2-0.5,0.4-0.5
			C-421.1,400.3-421,400.5-421,400.8z M-421.5,400.8c0,0.2,0.1,0.3,0.2,0.3c0.1,0,0.2-0.1,0.2-0.3c0-0.2-0.1-0.3-0.2-0.3
			C-421.4,400.4-421.5,400.6-421.5,400.8z M-421.3,401.8l0.9-1.5h0.1l-0.9,1.5H-421.3z M-420,401.4c0,0.3-0.2,0.5-0.4,0.5
			c-0.2,0-0.3-0.1-0.3-0.4c0-0.3,0.2-0.5,0.4-0.5C-420.1,400.9-420,401.1-420,401.4z M-420.5,401.4c0,0.2,0.1,0.3,0.2,0.3
			c0.1,0,0.2-0.1,0.2-0.3c0-0.2-0.1-0.3-0.2-0.3C-420.5,401-420.5,401.2-420.5,401.4z"/>
	</g>
	<g id="XMLID_3853_">
		<path id="XMLID_3863_" class="st6" d="M-412.8,411.4c0.1,0,0.2,0.1,0.3,0.1c0.3,0,0.3-0.2,0.3-0.3c0-0.2-0.2-0.3-0.4-0.3h-0.1
			v-0.2h0.1c0.1,0,0.3-0.1,0.3-0.3c0-0.1-0.1-0.2-0.3-0.2c-0.1,0-0.2,0.1-0.3,0.1l-0.1-0.1c0.1-0.1,0.2-0.1,0.4-0.1
			c0.3,0,0.4,0.2,0.4,0.4c0,0.2-0.1,0.3-0.3,0.4v0c0.2,0,0.3,0.2,0.3,0.4c0,0.2-0.2,0.4-0.5,0.4c-0.2,0-0.3-0.1-0.4-0.1
			L-412.8,411.4z"/>
		<path id="XMLID_3860_" class="st6" d="M-410.7,410.9c0,0.5-0.2,0.8-0.5,0.8c-0.3,0-0.5-0.3-0.5-0.8c0-0.5,0.2-0.8,0.5-0.8
			C-410.9,410.2-410.7,410.4-410.7,410.9z M-411.5,410.9c0,0.4,0.1,0.6,0.3,0.6c0.2,0,0.3-0.2,0.3-0.6c0-0.4-0.1-0.6-0.3-0.6
			C-411.4,410.3-411.5,410.5-411.5,410.9z"/>
		<path id="XMLID_3854_" class="st6" d="M-409.8,410.6c0,0.3-0.2,0.5-0.4,0.5c-0.2,0-0.3-0.1-0.3-0.4c0-0.3,0.2-0.5,0.4-0.5
			C-410,410.2-409.8,410.3-409.8,410.6z M-410.4,410.6c0,0.2,0.1,0.3,0.2,0.3c0.1,0,0.2-0.1,0.2-0.3c0-0.2-0.1-0.3-0.2-0.3
			C-410.3,410.3-410.4,410.4-410.4,410.6z M-410.2,411.7l0.9-1.5h0.1l-0.9,1.5H-410.2z M-408.9,411.2c0,0.3-0.2,0.5-0.4,0.5
			c-0.2,0-0.3-0.1-0.3-0.4c0-0.3,0.2-0.5,0.4-0.5C-409,410.8-408.9,410.9-408.9,411.2z M-409.4,411.2c0,0.2,0.1,0.3,0.2,0.3
			c0.1,0,0.2-0.1,0.2-0.3c0-0.2-0.1-0.3-0.2-0.3C-409.3,410.9-409.4,411-409.4,411.2z"/>
	</g>
	<g id="XMLID_3842_">
		<path id="XMLID_3852_" class="st6" d="M-400.8,415.3c0.1,0,0.2,0.1,0.3,0.1c0.3,0,0.3-0.2,0.3-0.3c0-0.2-0.2-0.3-0.4-0.3h-0.1
			v-0.2h0.1c0.1,0,0.3-0.1,0.3-0.3c0-0.1-0.1-0.2-0.3-0.2c-0.1,0-0.2,0.1-0.3,0.1l-0.1-0.1c0.1-0.1,0.2-0.1,0.4-0.1
			c0.3,0,0.4,0.2,0.4,0.4c0,0.2-0.1,0.3-0.3,0.3v0c0.2,0,0.3,0.2,0.3,0.4c0,0.2-0.2,0.4-0.5,0.4c-0.2,0-0.3-0.1-0.4-0.1
			L-400.8,415.3z"/>
		<path id="XMLID_3849_" class="st6" d="M-398.7,414.8c0,0.5-0.2,0.8-0.5,0.8c-0.3,0-0.5-0.3-0.5-0.8c0-0.5,0.2-0.8,0.5-0.8
			C-398.9,414.1-398.7,414.3-398.7,414.8z M-399.5,414.8c0,0.4,0.1,0.6,0.3,0.6c0.2,0,0.3-0.2,0.3-0.6c0-0.4-0.1-0.6-0.3-0.6
			C-399.4,414.2-399.5,414.4-399.5,414.8z"/>
		<path id="XMLID_3843_" class="st6" d="M-397.9,414.5c0,0.3-0.2,0.5-0.4,0.5c-0.2,0-0.3-0.1-0.3-0.4c0-0.3,0.2-0.5,0.4-0.5
			C-398,414.1-397.9,414.2-397.9,414.5z M-398.4,414.5c0,0.2,0.1,0.3,0.2,0.3c0.1,0,0.2-0.1,0.2-0.3c0-0.2-0.1-0.3-0.2-0.3
			C-398.4,414.2-398.4,414.3-398.4,414.5z M-398.2,415.6l0.9-1.5h0.1l-0.9,1.5H-398.2z M-396.9,415.1c0,0.3-0.2,0.5-0.4,0.5
			c-0.2,0-0.3-0.1-0.3-0.4c0-0.3,0.2-0.5,0.4-0.5C-397,414.7-396.9,414.8-396.9,415.1z M-397.5,415.1c0,0.2,0.1,0.3,0.2,0.3
			c0.1,0,0.2-0.1,0.2-0.3c0-0.2-0.1-0.3-0.2-0.3C-397.4,414.8-397.5,414.9-397.5,415.1z"/>
	</g>
	<g id="XMLID_3831_">
		<path id="XMLID_3841_" class="st6" d="M-390.1,409.6c0.1,0,0.2,0.1,0.3,0.1c0.3,0,0.3-0.2,0.3-0.3c0-0.2-0.2-0.3-0.4-0.3h-0.1V409
			h0.1c0.1,0,0.3-0.1,0.3-0.3c0-0.1-0.1-0.2-0.3-0.2c-0.1,0-0.2,0.1-0.3,0.1l-0.1-0.1c0.1-0.1,0.2-0.1,0.4-0.1
			c0.3,0,0.4,0.2,0.4,0.4c0,0.2-0.1,0.3-0.3,0.3v0c0.2,0,0.3,0.2,0.3,0.4c0,0.2-0.2,0.4-0.5,0.4c-0.2,0-0.3-0.1-0.4-0.1
			L-390.1,409.6z"/>
		<path id="XMLID_3838_" class="st6" d="M-387.9,409.1c0,0.5-0.2,0.8-0.5,0.8c-0.3,0-0.5-0.3-0.5-0.8c0-0.5,0.2-0.8,0.5-0.8
			C-388.1,408.3-387.9,408.6-387.9,409.1z M-388.7,409.1c0,0.4,0.1,0.6,0.3,0.6c0.2,0,0.3-0.2,0.3-0.6c0-0.4-0.1-0.6-0.3-0.6
			C-388.6,408.5-388.7,408.7-388.7,409.1z"/>
		<path id="XMLID_3832_" class="st6" d="M-387.1,408.8c0,0.3-0.2,0.5-0.4,0.5c-0.2,0-0.3-0.1-0.3-0.4c0-0.3,0.2-0.5,0.4-0.5
			C-387.2,408.3-387.1,408.5-387.1,408.8z M-387.6,408.8c0,0.2,0.1,0.3,0.2,0.3c0.1,0,0.2-0.1,0.2-0.3c0-0.2-0.1-0.3-0.2-0.3
			C-387.6,408.4-387.6,408.6-387.6,408.8z M-387.5,409.9l0.9-1.5h0.1l-0.9,1.5H-387.5z M-386.1,409.4c0,0.3-0.2,0.5-0.4,0.5
			c-0.2,0-0.3-0.1-0.3-0.4c0-0.3,0.2-0.5,0.4-0.5C-386.3,408.9-386.1,409.1-386.1,409.4z M-386.7,409.4c0,0.2,0.1,0.3,0.2,0.3
			c0.1,0,0.2-0.1,0.2-0.3c0-0.2-0.1-0.3-0.2-0.3C-386.6,409.1-386.7,409.2-386.7,409.4z"/>
	</g>
	<g id="XMLID_3820_">
		<path id="XMLID_3830_" class="st6" d="M-365.9,417.5c0.1,0,0.2,0.1,0.3,0.1c0.3,0,0.3-0.2,0.3-0.3c0-0.2-0.2-0.3-0.4-0.3h-0.1
			v-0.2h0.1c0.1,0,0.3-0.1,0.3-0.3c0-0.1-0.1-0.2-0.3-0.2c-0.1,0-0.2,0.1-0.3,0.1l-0.1-0.1c0.1-0.1,0.2-0.1,0.4-0.1
			c0.3,0,0.4,0.2,0.4,0.4c0,0.2-0.1,0.3-0.3,0.4v0c0.2,0,0.3,0.2,0.3,0.4c0,0.2-0.2,0.4-0.5,0.4c-0.2,0-0.3-0.1-0.4-0.1
			L-365.9,417.5z"/>
		<path id="XMLID_3827_" class="st6" d="M-363.8,417c0,0.5-0.2,0.8-0.5,0.8c-0.3,0-0.5-0.3-0.5-0.8c0-0.5,0.2-0.8,0.5-0.8
			C-364,416.2-363.8,416.5-363.8,417z M-364.6,417c0,0.4,0.1,0.6,0.3,0.6c0.2,0,0.3-0.2,0.3-0.6c0-0.4-0.1-0.6-0.3-0.6
			C-364.5,416.4-364.6,416.6-364.6,417z"/>
		<path id="XMLID_3821_" class="st6" d="M-363,416.7c0,0.3-0.2,0.5-0.4,0.5c-0.2,0-0.3-0.1-0.3-0.4c0-0.3,0.2-0.5,0.4-0.5
			C-363.1,416.2-363,416.4-363,416.7z M-363.5,416.7c0,0.2,0.1,0.3,0.2,0.3c0.1,0,0.2-0.1,0.2-0.3c0-0.2-0.1-0.3-0.2-0.3
			C-363.4,416.4-363.5,416.5-363.5,416.7z M-363.3,417.8l0.9-1.5h0.1l-0.9,1.5H-363.3z M-362,417.3c0,0.3-0.2,0.5-0.4,0.5
			c-0.2,0-0.3-0.1-0.3-0.4c0-0.3,0.2-0.5,0.4-0.5C-362.1,416.9-362,417-362,417.3z M-362.5,417.3c0,0.2,0.1,0.3,0.2,0.3
			c0.1,0,0.2-0.1,0.2-0.3c0-0.2-0.1-0.3-0.2-0.3C-362.5,417-362.5,417.1-362.5,417.3z"/>
	</g>
	<rect id="XMLID_3819_" x="-379.6" y="419.5" class="st2" width="8" height="4.9"/>
	<rect id="XMLID_3818_" x="-379.6" y="422.1" class="st3" width="8" height="5.4"/>
	<rect id="XMLID_3817_" x="-379.6" y="425.8" class="st4" width="8" height="13.3"/>
	<g id="XMLID_3806_">
		<path id="XMLID_3816_" class="st6" d="M-377.5,417.3c0.1,0,0.2,0.1,0.3,0.1c0.3,0,0.3-0.2,0.3-0.3c0-0.2-0.2-0.3-0.4-0.3h-0.1
			v-0.2h0.1c0.1,0,0.3-0.1,0.3-0.3c0-0.1-0.1-0.2-0.3-0.2c-0.1,0-0.2,0.1-0.3,0.1l-0.1-0.1c0.1-0.1,0.2-0.1,0.4-0.1
			c0.3,0,0.4,0.2,0.4,0.4c0,0.2-0.1,0.3-0.3,0.3v0c0.2,0,0.3,0.2,0.3,0.4c0,0.2-0.2,0.4-0.5,0.4c-0.2,0-0.3-0.1-0.4-0.1
			L-377.5,417.3z"/>
		<path id="XMLID_3813_" class="st6" d="M-375.4,416.8c0,0.5-0.2,0.8-0.5,0.8c-0.3,0-0.5-0.3-0.5-0.8c0-0.5,0.2-0.8,0.5-0.8
			C-375.6,416-375.4,416.3-375.4,416.8z M-376.2,416.8c0,0.4,0.1,0.6,0.3,0.6c0.2,0,0.3-0.2,0.3-0.6c0-0.4-0.1-0.6-0.3-0.6
			C-376.1,416.2-376.2,416.4-376.2,416.8z"/>
		<path id="XMLID_3807_" class="st6" d="M-374.5,416.5c0,0.3-0.2,0.5-0.4,0.5c-0.2,0-0.3-0.1-0.3-0.4c0-0.3,0.2-0.5,0.4-0.5
			C-374.7,416-374.5,416.2-374.5,416.5z M-375.1,416.5c0,0.2,0.1,0.3,0.2,0.3c0.1,0,0.2-0.1,0.2-0.3c0-0.2-0.1-0.3-0.2-0.3
			C-375,416.1-375.1,416.3-375.1,416.5z M-374.9,417.6l0.9-1.5h0.1l-0.9,1.5H-374.9z M-373.6,417.1c0,0.3-0.2,0.5-0.4,0.5
			c-0.2,0-0.3-0.1-0.3-0.4c0-0.3,0.2-0.5,0.4-0.5C-373.7,416.6-373.6,416.8-373.6,417.1z M-374.1,417.1c0,0.2,0.1,0.3,0.2,0.3
			c0.1,0,0.2-0.1,0.2-0.3c0-0.2-0.1-0.3-0.2-0.3C-374,416.8-374.1,416.9-374.1,417.1z"/>
	</g>
	<path id="XMLID_3805_" class="st3" d="M-335.6,377.3c-0.4-4.1-3.7-7.7-8.4-8.9c-3.5-0.8-7,0-9.5,1.9c-0.7-0.4-1.5-0.8-2.4-1
		c-4.1-1-8.2,1.4-9.1,5.2c-0.3,1.1-0.2,2.2,0,3.2c-0.4,0.3-0.7,0.7-1,1c-2.9,0.3-5.3,2.3-6,5.3c-0.9,3.7,1.4,7.4,5.2,8.3
		c0.5,0.1,1,0.2,1.4,0.2c1.6,1.6,3.7,2.9,6.1,3.5c2.4,0.6,4.9,0.4,7-0.3c-0.4,2.4-1.8,4.6-3.9,6.1c0.4-0.1,0.9-0.2,1.3-0.3
		c3.5-1.2,6.1-3.9,7-7.1c0.6,0.4,1.3,0.7,2.1,0.9c3.5,0.8,6.9-1.2,7.7-4.5c0.1-0.2,0.1-0.4,0.1-0.7c2.3-0.9,4.1-2.9,4.7-5.4
		C-332.8,381.9-333.7,379.1-335.6,377.3z"/>
	<path id="XMLID_3804_" class="st7" d="M-390.3,388.4c0,3-2.8,5.5-6.2,5.5h-2.5l-0.5,6.6l-8.7-6.6h-7.2c-3.4,0-6.2-2.5-6.2-5.5
		v-12.1c0-3,2.8-5.5,6.2-5.5h18.9c3.4,0,6.2,2.5,6.2,5.5V388.4L-390.3,388.4z"/>
	<path id="XMLID_3803_" class="st4" d="M-438.7,351.4c0,2.1,1.9,3.9,4.3,3.9h1.7l0.3,4.6l6-4.6h5c2.4,0,4.3-1.7,4.3-3.9v-8.5
		c0-2.1-1.9-3.9-4.3-3.9h-13c-2.4,0-4.3,1.7-4.3,3.9V351.4L-438.7,351.4z"/>
	<g id="XMLID_3792_">
		<path id="XMLID_3796_" class="st0" d="M-399.9,384.6c0-0.2-0.2-0.4-0.4-0.4h-11.9c-0.2,0-0.4,0.2-0.4,0.4l-1.4,4.2
			c0,0.2,0.2,0.4,0.4,0.4h14.7c0.2,0,0.4-0.2,0.4-0.4L-399.9,384.6z M-411.2,385h9.8c0.2,0,0.3,0.1,0.3,0.2s-0.1,0.2-0.3,0.2h-9.8
			c-0.2,0-0.3-0.1-0.3-0.2S-411.4,385-411.2,385z M-411.4,385.5h10.2c0.2,0,0.3,0.1,0.3,0.2c0,0.1-0.1,0.2-0.3,0.2h-10.2
			c-0.2,0-0.3-0.1-0.3-0.2C-411.7,385.6-411.6,385.5-411.4,385.5z M-411.6,386.1h10.6c0.2,0,0.3,0.1,0.3,0.2s-0.1,0.2-0.3,0.2h-10.6
			c-0.2,0-0.3-0.1-0.3-0.2S-411.8,386.1-411.6,386.1z M-407.4,388.3l0.4-1h1.9l0.4,1H-407.4z M-400.8,387.1h-11
			c-0.2,0-0.3-0.1-0.3-0.2c0-0.1,0.1-0.2,0.3-0.2h11c0.2,0,0.3,0.1,0.3,0.2C-400.5,387-400.6,387.1-400.8,387.1z"/>
		<path id="XMLID_3793_" class="st0" d="M-400.4,376h-11.7c-0.2,0-0.4,0.2-0.4,0.4v7.1c0,0.2,0.2,0.4,0.4,0.4h11.7
			c0.2,0,0.4-0.2,0.4-0.4v-7.1C-400,376.1-400.2,376-400.4,376z M-400.7,383h-11v-6.3h11V383L-400.7,383z"/>
	</g>
	<linearGradient id="XMLID_2_" gradientUnits="userSpaceOnUse" x1="-487.3708" y1="376.7448" x2="-428.0134" y2="376.7448">
		<stop  offset="0" style="stop-color:#3094B4"/>
		<stop  offset="1" style="stop-color:#0080AA"/>
	</linearGradient>
	<path id="XMLID_3791_" class="st8" d="M-437.5,363c-1-0.2-2-0.2-3-0.2c-1.4-5-6.1-9.2-12.1-10.2c-6.7-1.2-13.1,1.8-15.8,6.9
		c-1.1-0.6-2.2-1-3.5-1.2c-5.9-1-11.4,2.5-12.4,8c-0.5,3,0.4,6,2.4,8.2c-2.7,1.3-4.8,3.8-5.3,7c-0.9,5.3,2.6,10.3,7.9,11.2
		c2.3,0.4,4.5,0,6.4-1.1c2.2,1.8,5,3.1,8.1,3.7c3.5,0.6,7,0.2,10-1.1c-1.5,3.2-4.5,5.7-8.1,6.8c0.6,0.1,1.2,0.1,1.9,0.1
		c5.9,0,11-3.2,13.3-7.9c0.5,0.2,1,0.3,1.6,0.4c4.9,0.9,9.6-2.2,10.4-6.9c0.1-0.8,0.2-1.6,0.1-2.4c3.8-1.2,6.8-4.4,7.5-8.5
		C-427.1,369.9-431.3,364.1-437.5,363z"/>
	<path id="XMLID_3790_" class="st0" d="M-465.9,373.4c-0.2-0.5-0.3-1-0.3-1.5c-0.3-3.5,2.2-6.7,5.6-7.1c2.8-0.3,5.3,1.4,6.4,3.9
		c0.7-0.6,1.6-1,2.6-1c2.5-0.1,4.5,1.9,4.6,4.4c0,0.4,0,0.8-0.1,1.1c2,0.2,3.6,2,3.7,4.3c0.1,2.4-1.7,4.5-4,4.6
		c-0.3,0-0.5,0-0.8-0.1l-16.3,0.6c-0.3,0.1-0.6,0.1-0.8,0.1c-2.5,0.1-4.6-1.9-4.7-4.5C-470.2,375.7-468.4,373.6-465.9,373.4z"/>
	<g id="XMLID_3773_">
		<path id="XMLID_3789_" class="st0" d="M-427.4,349.6v2.2c0.6-0.2,1.1-0.9,1.5-1.8C-426.4,349.7-426.9,349.6-427.4,349.6z"/>
		<path id="XMLID_3788_" class="st0" d="M-425.5,347.4h-1.9v1.7c0.6,0,1.1,0.2,1.6,0.4C-425.6,348.8-425.5,348.1-425.5,347.4z"/>
		<path id="XMLID_3787_" class="st0" d="M-427.4,345.3v1.6h1.9c0-0.7-0.1-1.4-0.3-2C-426.3,345.2-426.8,345.3-427.4,345.3z"/>
		<path id="XMLID_3786_" class="st0" d="M-427.8,351.8v-2.2c-0.6,0-1.1,0.1-1.6,0.3C-429,350.9-428.5,351.6-427.8,351.8z"/>
		<path id="XMLID_3785_" class="st0" d="M-429.8,347h2v-1.6c-0.6,0-1.2-0.1-1.7-0.3C-429.7,345.6-429.8,346.2-429.8,347z"/>
		<path id="XMLID_3784_" class="st0" d="M-427.4,342.8v2c0.5,0,1-0.1,1.4-0.3C-426.3,343.6-426.8,343-427.4,342.8z"/>
		<path id="XMLID_3783_" class="st0" d="M-427.8,344.8v-2c-0.6,0.1-1.2,0.8-1.5,1.7C-428.9,344.7-428.4,344.8-427.8,344.8z"/>
		<path id="XMLID_3782_" class="st0" d="M-429.6,349.4c0.5-0.2,1.1-0.3,1.8-0.4v-1.6h-2C-429.8,348.1-429.7,348.8-429.6,349.4z"/>
		<path id="XMLID_3781_" class="st0" d="M-430,349.6c-0.2-0.7-0.3-1.4-0.3-2.2h-2c0,1.2,0.5,2.2,1.2,3
			C-430.8,350.1-430.5,349.8-430,349.6z"/>
		<path id="XMLID_3780_" class="st0" d="M-426.6,342.6c0.5,0.3,0.8,0.9,1.1,1.7c0.3-0.2,0.6-0.4,0.9-0.7
			C-425.1,343.1-425.8,342.8-426.6,342.6z"/>
		<path id="XMLID_3779_" class="st0" d="M-425,347.4c0,0.8-0.1,1.6-0.3,2.3c0.4,0.2,0.8,0.5,1.2,0.9c0.8-0.8,1.3-1.9,1.3-3.1
			L-425,347.4L-425,347.4z"/>
		<path id="XMLID_3778_" class="st0" d="M-429.8,344.3c0.3-0.7,0.7-1.3,1.1-1.6c-0.7,0.2-1.4,0.5-2,1
			C-430.4,343.9-430.2,344.1-429.8,344.3z"/>
		<path id="XMLID_3777_" class="st0" d="M-425.3,344.7c0.2,0.7,0.3,1.4,0.3,2.2h2.2c-0.1-1.2-0.6-2.2-1.4-3
			C-424.5,344.2-424.9,344.5-425.3,344.7z"/>
		<path id="XMLID_3776_" class="st0" d="M-430.3,347c0-0.8,0.1-1.5,0.3-2.2c-0.4-0.2-0.8-0.5-1.1-0.8c-0.7,0.8-1.2,1.8-1.3,2.9
			H-430.3L-430.3,347z"/>
		<path id="XMLID_3775_" class="st0" d="M-425.4,350.1c-0.3,0.8-0.7,1.4-1.1,1.8c0.8-0.2,1.5-0.5,2.1-1
			C-424.8,350.6-425.1,350.4-425.4,350.1z"/>
		<path id="XMLID_3774_" class="st0" d="M-429.9,350.1c-0.3,0.2-0.6,0.4-0.9,0.7c0.6,0.5,1.2,0.9,2,1.1
			C-429.3,351.5-429.6,350.9-429.9,350.1z"/>
	</g>
	<g id="XMLID_3769_">
		<path id="XMLID_3772_" class="st2" d="M-419.9,366.7c0.4,0,0.7,0.3,0.7,0.7c0,0.4-0.3,0.7-0.7,0.7c-0.4,0-0.7-0.3-0.7-0.7
			C-420.7,367-420.3,366.7-419.9,366.7z"/>
		<path id="XMLID_3771_" class="st2" d="M-418.3,368.1h1.3c0-2.1-1.6-3.7-3.6-3.7v1.4C-419.3,365.7-418.3,366.8-418.3,368.1z"/>
		<path id="XMLID_3770_" class="st2" d="M-420.4,363.3c2.5,0,4.5,2.1,4.5,4.6c0,0,0,0.1,0,0.1h1.4c0-3.5-2.7-6.3-6.1-6.3v1.6
			C-420.5,363.3-420.4,363.3-420.4,363.3z"/>
	</g>
	<linearGradient id="XMLID_3_" gradientUnits="userSpaceOnUse" x1="-382.624" y1="371.8634" x2="-373.9199" y2="371.8634">
		<stop  offset="0" style="stop-color:#3094B4"/>
		<stop  offset="1" style="stop-color:#0080AA"/>
	</linearGradient>
	<path id="XMLID_3768_" class="st9" d="M-381.8,373.9c0.6-0.6,2.3-0.8,2.5-1.2c0-0.1,0.2-0.3,0.2-0.5c0-0.1,0-0.2,0-0.3
		c-1.1,0-1.8,0.1-1.8,0.1s0.9-0.3,1.3-2.3c0-0.3,0-0.6,0.1-1.1c0.1-0.9,0.8-1.2,1.2-1.3c0.3-0.1,0.6-0.1,0.8,0
		c0.3,0,0.5,0.1,0.8,0.3c0.6,0.3,0.6,0.9,0.6,1.3c0,0.2,0,0.4,0,0.7c0.1,1.8,1.1,2.8,1.1,2.8s-0.7-0.1-1.8-0.2c0,0.2,0,0.3,0,0.4
		c0.1,0.4,1.2,0.8,1.9,1.5c1,0.6,1.1,2.3,1.1,2.3l-8.7-0.3C-382.6,376-382.4,374.6-381.8,373.9z"/>
	<linearGradient id="XMLID_4_" gradientUnits="userSpaceOnUse" x1="-406.5938" y1="355.4059" x2="-397.1367" y2="355.4059">
		<stop  offset="0" style="stop-color:#14A2B9"/>
		<stop  offset="0.9939" style="stop-color:#089EB6"/>
	</linearGradient>
	<circle id="XMLID_3767_" class="st10" cx="-401.9" cy="355.4" r="4.7"/>
	<linearGradient id="XMLID_5_" gradientUnits="userSpaceOnUse" x1="-394.6162" y1="355.4059" x2="-385.1602" y2="355.4059">
		<stop  offset="0" style="stop-color:#14A2B9"/>
		<stop  offset="0.9939" style="stop-color:#089EB6"/>
	</linearGradient>
	<circle id="XMLID_3766_" class="st11" cx="-389.9" cy="355.4" r="4.7"/>
	<linearGradient id="XMLID_6_" gradientUnits="userSpaceOnUse" x1="-382.4531" y1="355.4059" x2="-372.9971" y2="355.4059">
		<stop  offset="0" style="stop-color:#14A2B9"/>
		<stop  offset="0.9939" style="stop-color:#089EB6"/>
	</linearGradient>
	<circle id="XMLID_3765_" class="st12" cx="-377.7" cy="355.4" r="4.7"/>
	<linearGradient id="XMLID_7_" gradientUnits="userSpaceOnUse" x1="-370.6338" y1="355.4059" x2="-361.1768" y2="355.4059">
		<stop  offset="0" style="stop-color:#14A2B9"/>
		<stop  offset="0.9939" style="stop-color:#089EB6"/>
	</linearGradient>
	<circle id="XMLID_3764_" class="st13" cx="-365.9" cy="355.4" r="4.7"/>
	<path id="XMLID_3763_" class="st0" d="M-381,351.9c-0.8,0.9-1.4,2.2-1.4,3.6h4.7L-381,351.9z"/>
	<path id="XMLID_3762_" class="st0" d="M-401.6,350.6v9.4c2.5-0.1,4.5-2.2,4.5-4.7S-399.1,350.7-401.6,350.6z"/>
	<linearGradient id="XMLID_8_" gradientUnits="userSpaceOnUse" x1="-404.7539" y1="357.92" x2="-401.5869" y2="357.92">
		<stop  offset="0" style="stop-color:#14A2B9"/>
		<stop  offset="0.9939" style="stop-color:#089EB6"/>
	</linearGradient>
	<path id="XMLID_3761_" class="st14" d="M-404.8,358.8c0.8,0.8,1.9,1.3,3.2,1.4v-4.6L-404.8,358.8z"/>
	<linearGradient id="XMLID_9_" gradientUnits="userSpaceOnUse" x1="-389.7598" y1="355.3698" x2="-385.2168" y2="355.3698">
		<stop  offset="0" style="stop-color:#14A2B9"/>
		<stop  offset="0.9939" style="stop-color:#089EB6"/>
	</linearGradient>
	<path id="XMLID_3760_" class="st15" d="M-389.8,350.6v9.4c2.5-0.1,4.5-2.2,4.5-4.7S-387.2,350.7-389.8,350.6z"/>
	<path id="XMLID_3759_" class="st0" d="M-394.5,355.5c0.1,2.5,2.2,4.5,4.8,4.6v-4.6H-394.5z"/>
	<linearGradient id="XMLID_10_" gradientUnits="userSpaceOnUse" x1="-377.625" y1="355.3698" x2="-373.085" y2="355.3698">
		<stop  offset="0" style="stop-color:#14A2B9"/>
		<stop  offset="0.9939" style="stop-color:#089EB6"/>
	</linearGradient>
	<path id="XMLID_3758_" class="st16" d="M-377.6,350.6v9.4c2.5-0.1,4.5-2.2,4.5-4.7C-373.1,352.8-375.1,350.7-377.6,350.6z"/>
	<linearGradient id="XMLID_11_" gradientUnits="userSpaceOnUse" x1="-382.4541" y1="357.8233" x2="-377.6543" y2="357.8233">
		<stop  offset="0" style="stop-color:#14A2B9"/>
		<stop  offset="0.9939" style="stop-color:#089EB6"/>
	</linearGradient>
	<path id="XMLID_3757_" class="st17" d="M-382.5,355.5c0.1,2.5,2.2,4.5,4.8,4.6v-4.6H-382.5z"/>
	<g id="XMLID_3741_">
		<path id="XMLID_3751_" class="st0" d="M-403.8,348.3v-0.2l0.2-0.2c0.5-0.5,0.7-0.7,0.7-1c0-0.2-0.1-0.4-0.4-0.4
			c-0.2,0-0.3,0.1-0.4,0.2l-0.1-0.2c0.1-0.1,0.3-0.2,0.6-0.2c0.4,0,0.6,0.3,0.6,0.6c0,0.4-0.3,0.7-0.7,1.1l-0.2,0.1v0h0.9v0.2
			H-403.8L-403.8,348.3z"/>
		<path id="XMLID_3748_" class="st0" d="M-400.9,347.2c0,0.7-0.2,1-0.7,1c-0.4,0-0.7-0.4-0.7-1c0-0.7,0.3-1,0.7-1
			C-401.1,346.2-400.9,346.6-400.9,347.2z M-402,347.3c0,0.5,0.2,0.8,0.4,0.8c0.3,0,0.4-0.3,0.4-0.8c0-0.5-0.1-0.8-0.4-0.8
			C-401.8,346.4-402,346.7-402,347.3z"/>
		<path id="XMLID_3742_" class="st0" d="M-399.7,346.8c0,0.4-0.2,0.6-0.5,0.6c-0.2,0-0.5-0.2-0.5-0.6c0-0.4,0.2-0.6,0.5-0.6
			C-399.9,346.2-399.7,346.5-399.7,346.8z M-400.5,346.8c0,0.3,0.1,0.4,0.3,0.4c0.2,0,0.3-0.2,0.3-0.5c0-0.2-0.1-0.4-0.3-0.4
			C-400.4,346.4-400.5,346.6-400.5,346.8z M-400.2,348.3l1.2-2h0.2l-1.2,2H-400.2z M-398.5,347.7c0,0.4-0.2,0.6-0.5,0.6
			c-0.2,0-0.5-0.2-0.5-0.6c0-0.4,0.2-0.6,0.5-0.6C-398.6,347.1-398.5,347.3-398.5,347.7z M-399.2,347.7c0,0.3,0.1,0.4,0.3,0.4
			c0.2,0,0.3-0.2,0.3-0.5c0-0.2-0.1-0.4-0.3-0.4C-399.1,347.2-399.2,347.4-399.2,347.7z"/>
	</g>
	<g id="XMLID_3730_">
		<path id="XMLID_3740_" class="st0" d="M-392.4,348.3v-0.2l0.2-0.2c0.5-0.5,0.7-0.7,0.7-1c0-0.2-0.1-0.4-0.4-0.4
			c-0.2,0-0.3,0.1-0.4,0.2l-0.1-0.2c0.1-0.1,0.3-0.2,0.6-0.2c0.4,0,0.6,0.3,0.6,0.6c0,0.4-0.3,0.7-0.7,1.1l-0.2,0.1v0h0.9v0.2
			H-392.4L-392.4,348.3z"/>
		<path id="XMLID_3737_" class="st0" d="M-389.6,347.3c0,0.7-0.2,1-0.7,1c-0.4,0-0.6-0.4-0.7-1c0-0.7,0.3-1,0.7-1
			C-389.8,346.3-389.6,346.7-389.6,347.3z M-390.6,347.3c0,0.5,0.2,0.8,0.4,0.8c0.3,0,0.4-0.3,0.4-0.8c0-0.5-0.1-0.8-0.4-0.8
			C-390.5,346.5-390.6,346.8-390.6,347.3z"/>
		<path id="XMLID_3731_" class="st0" d="M-388.4,346.9c0,0.4-0.2,0.6-0.5,0.6c-0.2,0-0.5-0.2-0.5-0.6c0-0.4,0.2-0.6,0.5-0.6
			C-388.6,346.3-388.4,346.5-388.4,346.9z M-389.1,346.9c0,0.3,0.1,0.4,0.3,0.4c0.2,0,0.3-0.2,0.3-0.5c0-0.2-0.1-0.4-0.3-0.4
			C-389.1,346.5-389.1,346.7-389.1,346.9z M-388.9,348.3l1.2-2h0.2l-1.2,2H-388.9z M-387.1,347.7c0,0.4-0.2,0.6-0.5,0.6
			c-0.2,0-0.5-0.2-0.5-0.6c0-0.4,0.2-0.6,0.5-0.6C-387.3,347.1-387.1,347.3-387.1,347.7z M-387.9,347.7c0,0.3,0.1,0.4,0.3,0.4
			c0.2,0,0.3-0.2,0.3-0.5c0-0.2-0.1-0.4-0.3-0.4C-387.8,347.3-387.9,347.5-387.9,347.7z"/>
	</g>
	<g id="XMLID_3719_">
		<path id="XMLID_3729_" class="st0" d="M-380.1,348.2v-0.2l0.2-0.2c0.5-0.5,0.7-0.7,0.7-1c0-0.2-0.1-0.4-0.4-0.4
			c-0.2,0-0.3,0.1-0.4,0.2l-0.1-0.2c0.1-0.1,0.3-0.2,0.6-0.2c0.4,0,0.6,0.3,0.6,0.6c0,0.4-0.3,0.7-0.7,1.1l-0.2,0.1v0h0.9v0.2
			H-380.1z"/>
		<path id="XMLID_3726_" class="st0" d="M-377.3,347.2c0,0.7-0.2,1-0.7,1c-0.4,0-0.6-0.4-0.7-1c0-0.7,0.3-1,0.7-1
			C-377.5,346.2-377.3,346.6-377.3,347.2z M-378.3,347.3c0,0.5,0.2,0.8,0.4,0.8c0.3,0,0.4-0.3,0.4-0.8c0-0.5-0.1-0.8-0.4-0.8
			C-378.2,346.4-378.3,346.7-378.3,347.3z"/>
		<path id="XMLID_3720_" class="st0" d="M-376.1,346.8c0,0.4-0.2,0.6-0.5,0.6c-0.2,0-0.5-0.2-0.5-0.6c0-0.4,0.2-0.6,0.5-0.6
			C-376.3,346.2-376.1,346.4-376.1,346.8z M-376.9,346.8c0,0.3,0.1,0.4,0.3,0.4c0.2,0,0.3-0.2,0.3-0.5c0-0.2-0.1-0.4-0.3-0.4
			C-376.8,346.4-376.9,346.6-376.9,346.8z M-376.6,348.3l1.2-2h0.2l-1.2,2H-376.6z M-374.8,347.6c0,0.4-0.2,0.6-0.5,0.6
			c-0.2,0-0.5-0.2-0.5-0.6c0-0.4,0.2-0.6,0.5-0.6C-375,347-374.8,347.3-374.8,347.6z M-375.6,347.6c0,0.3,0.1,0.4,0.3,0.4
			c0.2,0,0.3-0.2,0.3-0.5c0-0.2-0.1-0.4-0.3-0.4C-375.5,347.2-375.6,347.4-375.6,347.6z"/>
	</g>
	<g id="XMLID_3708_">
		<path id="XMLID_3718_" class="st0" d="M-367.6,348.5v-0.2l0.2-0.2c0.5-0.5,0.7-0.7,0.7-1c0-0.2-0.1-0.4-0.4-0.4
			c-0.2,0-0.3,0.1-0.4,0.2l-0.1-0.2c0.1-0.1,0.3-0.2,0.6-0.2c0.4,0,0.6,0.3,0.6,0.6c0,0.4-0.3,0.7-0.7,1.1l-0.2,0.1v0h0.9v0.2
			H-367.6L-367.6,348.5z"/>
		<path id="XMLID_3715_" class="st0" d="M-364.7,347.4c0,0.7-0.3,1-0.7,1c-0.4,0-0.6-0.4-0.7-1c0-0.7,0.3-1,0.7-1
			C-364.9,346.4-364.7,346.8-364.7,347.4z M-365.8,347.5c0,0.5,0.2,0.8,0.4,0.8c0.3,0,0.4-0.3,0.4-0.8c0-0.5-0.1-0.8-0.4-0.8
			C-365.6,346.7-365.8,346.9-365.8,347.5z"/>
		<path id="XMLID_3709_" class="st0" d="M-363.5,347c0,0.4-0.2,0.6-0.5,0.6c-0.2,0-0.5-0.2-0.5-0.6c0-0.4,0.2-0.6,0.5-0.6
			C-363.7,346.4-363.5,346.7-363.5,347z M-364.3,347.1c0,0.3,0.1,0.4,0.3,0.4c0.2,0,0.3-0.2,0.3-0.5c0-0.2-0.1-0.4-0.3-0.4
			C-364.2,346.6-364.3,346.8-364.3,347.1z M-364,348.5l1.2-2h0.2l-1.2,2H-364z M-362.3,347.9c0,0.4-0.2,0.6-0.5,0.6
			c-0.2,0-0.5-0.2-0.5-0.6c0-0.4,0.2-0.6,0.5-0.6C-362.4,347.3-362.3,347.5-362.3,347.9z M-363,347.9c0,0.3,0.1,0.4,0.3,0.4
			c0.2,0,0.3-0.2,0.3-0.5c0-0.2-0.1-0.4-0.3-0.4C-362.9,347.4-363,347.6-363,347.9z"/>
	</g>
	<path id="XMLID_3693_" class="st0" d="M-350.5,374.4l-0.4-0.9c-0.2-0.5-0.8-0.7-1.3-0.5c-0.5,0.2-0.7,0.8-0.5,1.2l0.2,0.4l-4.3,1.8
		c-1.2,0.5-1.6,1.9-1,3.3l3.9,8.9c0.6,1.3,2,2,3.2,1.6l4.8-2c1.2-0.5,1.6-1.9,1.1-3.3l-3.9-8.9
		C-349.2,375.2-349.8,374.7-350.5,374.4z M-356.8,379.6c-0.4-0.8-0.1-1.7,0.6-2l4.6-1.9c0.7-0.3,1.6,0.1,1.9,1l1.1,2.6
		c0.4,0.8,0.1,1.7-0.6,2l-4.6,1.9c-0.7,0.3-1.6-0.1-1.9-1L-356.8,379.6z M-353.9,386.3c0-0.1,0-0.2,0.1-0.3l1.1-0.5
		c0.1,0,0.2,0,0.3,0.1l0.3,0.6c0,0.1,0,0.2-0.1,0.3l-1.1,0.5c-0.1,0-0.2,0-0.3-0.1L-353.9,386.3z M-351.5,387.9c0,0.1,0,0.2-0.1,0.3
		l-1.1,0.5c-0.1,0-0.2,0-0.3-0.1l-0.3-0.6c0-0.1,0-0.2,0.1-0.3l1.1-0.5c0.1,0,0.2,0,0.3,0.1L-351.5,387.9z M-352.8,384.7
		c0,0.1,0,0.2-0.1,0.3l-1.1,0.5c-0.1,0-0.2,0-0.3-0.1l-0.3-0.6c0-0.1,0-0.2,0.1-0.3l1.1-0.5c0.1,0,0.2,0,0.3,0.1L-352.8,384.7z
		 M-352,385.5c0-0.1,0-0.2,0.1-0.3l1.1-0.5c0.1,0,0.2,0,0.3,0.1l0.3,0.6c0,0.1,0,0.2-0.1,0.3l-1.1,0.5c-0.1,0-0.2,0-0.3-0.1
		L-352,385.5z M-349.6,387.1c0,0.1,0,0.2-0.1,0.3l-1.1,0.5c-0.1,0-0.2,0-0.3-0.1l-0.3-0.6c0-0.1,0-0.2,0.1-0.3l1.1-0.5
		c0.1,0,0.2,0,0.3,0.1L-349.6,387.1z M-350.9,383.9c0,0.1,0,0.2-0.1,0.3l-1.1,0.5c-0.1,0-0.2,0-0.3-0.1l-0.3-0.6
		c0-0.1,0-0.2,0.1-0.3l1.1-0.5c0.1,0,0.2,0,0.3,0.1L-350.9,383.9z M-350.1,384.7c0-0.1,0-0.2,0.1-0.3l1.1-0.5c0.1,0,0.2,0,0.3,0.1
		l0.3,0.6c0,0.1,0,0.2-0.1,0.3l-1.1,0.5c-0.1,0-0.2,0-0.3-0.1L-350.1,384.7z M-347.7,386.3c0,0.1,0,0.2-0.1,0.3l-1.1,0.5
		c-0.1,0-0.2,0-0.3-0.1l-0.3-0.6c0-0.1,0-0.2,0.1-0.3l1.1-0.5c0.1,0,0.2,0,0.3,0.1L-347.7,386.3z M-349,383.2c0,0.1,0,0.2-0.1,0.3
		l-1.1,0.5c-0.1,0-0.2,0-0.3-0.1l-0.3-0.6c0-0.1,0-0.2,0.1-0.3l1.1-0.5c0.1,0,0.2,0,0.3,0.1L-349,383.2z M-348.2,383.9
		c0-0.1,0-0.2,0.1-0.3l1.1-0.5c0.1,0,0.2,0,0.3,0.1l0.3,0.6c0,0.1,0,0.2-0.1,0.3l-1.1,0.5c-0.1,0-0.2,0-0.3-0.1L-348.2,383.9z
		 M-345.8,385.5c0,0.1,0,0.2-0.1,0.3l-1.1,0.5c-0.1,0-0.2,0-0.3-0.1l-0.3-0.6c0-0.1,0-0.2,0.1-0.3l1.1-0.5c0.1,0,0.2,0,0.3,0.1
		L-345.8,385.5z M-347.1,382.3c0,0.1,0,0.2-0.1,0.3l-1.1,0.5c-0.1,0-0.2,0-0.3-0.1l-0.3-0.6c0-0.1,0-0.2,0.1-0.3l1.1-0.5
		c0.1,0,0.2,0,0.3,0.1L-347.1,382.3z"/>
</g>
</svg>
