<?xml version="1.0" encoding="utf-8"?>
<!-- Generator: Adobe Illustrator 19.1.0, SVG Export Plug-In . SVG Version: 6.00 Build 0)  -->
<svg version="1.1" id="レイヤー_1" xmlns="http://www.w3.org/2000/svg" xmlns:xlink="http://www.w3.org/1999/xlink" x="0px"
	 y="0px" viewBox="370 -23.9 684 147.9" style="enable-background:new 370 -23.9 684 147.9;" xml:space="preserve">
<style type="text/css">
	.st0{fill:#0085C9;}
	.st1{fill:#4589BE;}
	.st2{fill:#DA3C33;}
	.st3{fill:#F0CE1F;}
	.st4{fill:#58B159;}
	.st5{fill:#D8D8DA;}
	.st6{fill:#1B8AB8;}
	.st7{fill:#D6332C;}
	.st8{fill:#E9E8E8;}
</style>
<g id="Web_Browser_Icons_Pack_xA0_画像_1_">
</g>
<g id="Color_1_">
	<g id="IE_3_">
		<g id="IE">
			<g>
				<path class="st0" d="M520.2,53.4c0-11.4-2.8-22.1-7.8-31.5c10.2-22.9,6.1-36.1-2.4-42c-7.6-5.4-26.3-6.2-53.6,6.4
					c-1.1-0.1-2.3-0.2-3.4-0.2c-31.5,0-58,21.7-65.2,51c12.1-14.4,25-24.3,34.3-27.9c-16,14.4-27.9,29.6-36.3,44.1l0,0
					c-16.9,29.2-19.3,55.1-11.8,63.7c8.8,10.1,28.1,9.4,49.5-3.3c8.9,4.4,18.9,6.8,29.5,6.8c29.1,0,53.8-18.4,63.2-44.3h-35.5l0,0
					c-5.3,9-15.1,15-26.4,15c-16.9,0-30.5-13.4-30.5-30h96C520.1,58.7,520.2,56,520.2,53.4z M384.3,114.3c-5.7-6.2-3.7-23,5.1-39.3
					c5.3,15.6,16.1,28.6,30.2,36.6C405.1,119.2,391,121.7,384.3,114.3z M424,43.9c0-15.5,13.2-28.1,29.4-28.1
					c16.2,0,29.4,12.6,29.4,28.1H424z M477.3-9.3c18.4-8.6,29.7-6.3,34.4-1.4c6.4,6.8,3.4,18.6-1.1,29.3
					C502.9,5.9,491.2-4,477.3-9.3z"/>
			</g>
		</g>
	</g>
	<g id="Chrome_2_">
		<g id="Chrome_01">
			<g>
				<path class="st1" d="M633.1,23.5c-13.8,0-25,11.2-25,25s11.2,25,25,25c13.8,0,25-11.2,25-25S646.9,23.5,633.1,23.5z"/>
			</g>
		</g>
		<g id="Chrome_02">
			<g>
				<path class="st2" d="M633.1-18.7c-23.1,0-43.4,11.6-55.5,29.4l27.2,47.1c-1-2.9-1.5-6-1.5-9.3c0-16.4,13.4-29.8,29.8-29.8
					c0.6,0,1.1,0,1.7,0h58.6C682.4-3.5,659.5-18.7,633.1-18.7z"/>
			</g>
		</g>
		<g id="Chrome_03">
			<g>
				<path class="st3" d="M693.4,18.7h-58.6c15.7,0.9,28.2,13.9,28.2,29.8c0,7.6-2.9,14.5-7.5,19.8l-27.3,47.2c1.7,0.1,3.3,0.2,5,0.2
					c37.1,0,67.2-30.1,67.2-67.2C700.3,37.8,697.8,27.7,693.4,18.7z"/>
			</g>
		</g>
		<g id="Chrome_04">
			<g>
				<path class="st4" d="M633.1,78.3c-13.2,0-24.4-8.6-28.3-20.5l-27.2-47.1c-7.4,10.8-11.7,23.8-11.7,37.9
					c0,35.4,27.4,64.5,62.2,67l27.3-47.2C649.9,74.4,642,78.3,633.1,78.3z"/>
			</g>
		</g>
	</g>
	<g id="Safari_2_">
		<g id="Safari_01">
			<g>
				<circle class="st5" cx="810.3" cy="48.5" r="67.2"/>
			</g>
		</g>
		<g id="Safari_02">
			<g>
				<circle class="st6" cx="810.3" cy="48.5" r="60.6"/>
			</g>
		</g>
		<g id="Safari_03">
			<g>
				<polygon class="st7" points="803.3,41.5 817.3,55.5 851,7.8 				"/>
			</g>
		</g>
		<g id="Safari_04">
			<g>
				<polygon class="st8" points="803.3,41.5 769.6,89.2 817.3,55.5 				"/>
			</g>
		</g>
	</g>
	<g id="Opera_3_">
		<g id="Opera_4_">
			<g>
				<path class="st7" d="M986.1-18.7c-39.6,0-63,30.1-63,67.2s23.4,67.2,63,67.2s63-30.1,63-67.2S1025.7-18.7,986.1-18.7z
					 M986.1,99.8c-17.6,0-22.8-20.2-22.8-51.3s5.2-51.3,22.8-51.3s22.8,20.2,22.8,51.3C1008.9,79.6,1003.7,99.8,986.1,99.8z"/>
			</g>
		</g>
	</g>
</g>
<g id="Outline_1_">
</g>
</svg>
