<svg id="レイヤー_1" xmlns="http://www.w3.org/2000/svg" viewBox="0 0 100 67"><style>.st0{fill:#cbced0}.st1{fill:#e6e7e8}.st2{fill:#b73e26}.st3{fill:#6acbe6}.st4{fill:#d9dbdc}.st5{fill:#96989a}.st6{fill:#e39c29}.st7{fill:#fff}.st8{fill:#1d1f1f}.st9{fill:#c7892b}.st10{fill:#ffdd73}</style><path class="st0" d="M100 61c0 3.3-2.8 6-6.2 6H30.6c-3.4 0-6.1-2.7-6.1-6V26c0-3.3 2.8-6 6.1-6h63.2c3.4 0 6.2 2.7 6.2 6v35z"/><path class="st1" d="M100 59.2c0 3.3-2.7 6-6 6H32.5c-3.3 0-6-2.7-6-6v-35c0-3.3 2.7-6 6-6H94c3.3 0 6 2.7 6 6v35z"/><circle class="st2" cx="90.7" cy="54.3" r="5.2"/><path class="st3" d="M84.3 54.3c0-1.3.4-2.4 1.2-3.3-1-1.2-2.4-1.9-4-1.9-2.9 0-5.2 2.3-5.2 5.2 0 2.9 2.3 5.2 5.2 5.2 1.6 0 3.1-.7 4-1.9-.7-.9-1.2-2.1-1.2-3.3z"/><path class="st4" d="M31.5 24.4h61.4v2.7H31.5z"/><path class="st5" d="M75.4 42.6c0 3.4-2.7 6.2-6 6.2H7.9c-3.3 0-6-2.8-6-6.2V6.2c0-3.4 2.7-6.2 6-6.2h61.5c3.3 0 6 2.8 6 6.2v36.4z"/><path class="st6" d="M73.5 40.9c0 3.3-2.7 6-6 6H6c-3.3 0-6-2.7-6-6V6c0-3.3 2.7-6 6-6h61.5c3.3 0 6 2.7 6 6v34.9z"/><path class="st7" d="M14.6 18.5h45.7v7.8H14.6z"/><path class="st8" d="M0 5.3h73.5v9.3H0z"/><path class="st9" d="M35.1 32.2h33.5v1.5H35.1zm0 1.9h26.1v1.5H35.1zm0 2h32v1.5h-32zm0 1.9h33.3v1.5H35.1zm0 2h32v1.5h-32z"/><path class="st8" d="M42.8 22.6h15.3v1.5H42.8z"/><path class="st10" d="M17.7 39.4c0 1.3-1 2.3-2.3 2.3H7.1c-1.3 0-2.3-1-2.3-2.3v-6.2c0-1.3 1-2.3 2.3-2.3h8.3c1.3 0 2.3 1 2.3 2.3v6.2z"/></svg>