<svg xmlns="http://www.w3.org/2000/svg" viewBox="0 0 71.8 65.4"><style>.st0{fill:#3b9044}.st1{fill:#7bde45}</style><g id="objects"><path class="st0" d="M32.1 65.4c-8.6 0-16.6-3.3-22.7-9.4C3.3 49.9 0 41.9 0 33.3s3.3-16.6 9.4-22.7c6.1-6.1 14.1-9.4 22.7-9.4s16.6 3.3 22.7 9.4c6.1 6.1 9.4 14.1 9.4 22.7S60.9 49.9 54.8 56c-6 6.1-14.1 9.4-22.7 9.4zm0-56C18.9 9.4 8.2 20.1 8.2 33.3s10.7 23.9 23.9 23.9S56 46.5 56 33.3 45.3 9.4 32.1 9.4z"/><path class="st1" d="M70 10.8l-7.2-7.3L32 33.9 19.9 22l-7.3 7.2 19.3 19.1.4-.4.1.1z"/></g></svg>