<?xml version="1.0" encoding="utf-8"?>
<!-- Generator: Adobe Illustrator 19.1.0, SVG Export Plug-In . SVG Version: 6.00 Build 0)  -->
<svg version="1.1" id="レイヤー_1" xmlns="http://www.w3.org/2000/svg" xmlns:xlink="http://www.w3.org/1999/xlink" x="0px"
	 y="0px" viewBox="-395 307 408 188" style="enable-background:new -395 307 408 188;" xml:space="preserve">
<style type="text/css">
	.st0{fill:#60605F;}
	.st1{opacity:0.5;fill:url(#XMLID_2_);}
	.st2{fill:#ED8028;}
	.st3{opacity:0.5;fill:url(#XMLID_3_);}
	.st4{fill:#304163;}
	.st5{opacity:0.5;fill:url(#XMLID_4_);}
	.st6{opacity:0.5;fill:url(#XMLID_5_);}
	.st7{fill:#D1E2E7;}
	.st8{fill:#FFFFFF;}
	.st9{fill:#6E7D91;}
	.st10{fill-rule:evenodd;clip-rule:evenodd;fill:#FFFFFF;}
	.st11{fill-rule:evenodd;clip-rule:evenodd;fill:#304163;}
	.st12{fill:#5EA6C5;}
	.st13{fill:#004A72;}
	.st14{opacity:0.5;fill:url(#XMLID_6_);}
	.st15{opacity:0.5;fill:url(#XMLID_7_);}
	.st16{opacity:0.82;fill-rule:evenodd;clip-rule:evenodd;fill:#FFFFFF;enable-background:new    ;}
	.st17{fill-rule:evenodd;clip-rule:evenodd;fill:#CCCBC9;}
	.st18{fill:#71BCCE;}
	.st19{fill:#CCCCCB;}
	.st20{fill:#BE0E35;}
	.st21{fill:#FAD700;}
	.st22{fill:#90BD1F;}
</style>
<g id="XMLID_23588_">
	<path id="XMLID_27676_" class="st0" d="M-291.6,453.9L-291.6,453.9c-1.1-0.2-3-1.1-3-3.4V450c0-0.7-0.2-1.2-0.5-1.6
		c-0.5-0.5-1.2-0.5-1.2-0.5h-8v-0.9h7.9c0,0,1.1,0,1.8,0.7c0.5,0.4,0.7,1,0.8,1.8h0v0.9c0,2.1,1.9,2.5,2.2,2.6h4.7
		c0.2,0,1.8-0.2,1.8-2.4v-7.5c0-3.2,2.7-3.2,2.7-3.2h6.2v0.9h-6.2c-0.2,0-1.9,0.1-1.9,2.4v7.5c0,3.1-2.7,3.3-2.7,3.3L-291.6,453.9z"
		/>
	<path id="XMLID_27675_" class="st0" d="M-320.4,409.6h-1.1v-21.8c0-0.7,0-1.3,0.1-2c0.2-2.6,0.3-4.7-2.4-5.7
		c-2.3-0.9-4.2-0.6-4.7-0.5l-0.1,0h-17c-3.9,0-4.2,0.2-5.5,1.6c-1.3,1.3-1.1,3.6-0.9,5.8c0,0.5,0.1,1.1,0.1,1.6
		c0,0.6,0.1,1.4,0.1,2.1c0,0.4,0,0.8,0,1.2l0,0.2c0,2.9,0.1,5.2-1.3,6.6c-0.9,0.9-2.4,1.3-4.5,1.3c-1.5,0-2,0-2.5,0
		c-0.8,0.1-1.5,0.1-4.8,0c-1.8-0.1-3.2-0.7-4.1-1.8c-1.7-1.9-1.5-4.6-1.4-4.9l0-16c0-1.3-0.4-2.4-1.3-3.1c-2-1.7-5.8-1.1-5.8-1.1
		l-0.3,0l-0.2-1l0.3,0c0,0,4.2-0.8,6.7,1.3c1.1,0.9,1.6,2.2,1.6,3.9l0,16.1c0,0-0.2,2.5,1.2,4.1c0.8,0.9,1.9,1.4,3.4,1.4
		c3.3,0.1,4,0.1,4.7,0c0.6,0,1.1-0.1,2.6,0c1.9,0,3.1-0.3,3.8-1c1.1-1.1,1-3.2,1-5.8c0-0.4,0-0.9,0-1.4c0-0.7,0-1.4-0.1-2
		c0-0.5-0.1-1-0.1-1.5c-0.2-2.4-0.4-5,1.2-6.7c1.6-1.7,2.2-1.9,6.3-1.9l17,0c2.1-0.4,3.9,0.1,5.1,0.6c3.3,1.3,3.2,4,3.1,6.9
		c0,0.6,0,1.2,0,1.8V409.6z"/>
	<path id="XMLID_27674_" class="st0" d="M-179.3,471.1L-179.3,471.1c-1.2-0.2-3.2-1.1-3.2-3.6v-11.1c0-0.7-0.2-1.2-0.5-1.6
		c-0.5-0.5-1.1-0.5-1.1-0.5H-196v-1.1h11.9c0,0,1.1,0,1.9,0.8c0.6,0.6,0.9,1.4,0.9,2.4v11.1c0,2,1.8,2.4,2.1,2.5h2.4
		c0.1,0,1.7-0.2,1.7-2.3v-74.2c0-2.7,1.9-3.4,2.9-3.4h5v1.1h-5c-0.2,0-1.7,0.1-1.7,2.3v74.2c0,2.7-1.8,3.4-2.8,3.5L-179.3,471.1z"/>
	
		<linearGradient id="XMLID_2_" gradientUnits="userSpaceOnUse" x1="237.9228" y1="438.6117" x2="257.0569" y2="423.1685" gradientTransform="matrix(-1.3979 0 0 1 135.4102 0)">
		<stop  offset="0.2643" style="stop-color:#F8CA00;stop-opacity:0"/>
		<stop  offset="0.8324" style="stop-color:#E15D08;stop-opacity:0.8324"/>
		<stop  offset="1" style="stop-color:#AC3616"/>
	</linearGradient>
	<polygon id="XMLID_27673_" class="st1" points="-223.7,443.2 -201.2,442.1 -199.4,421.6 -208.4,412.3 -237.2,434.9 	"/>
	<path id="XMLID_27669_" class="st2" d="M-233.2,423.2c-0.1-0.5-0.2-1.1-0.2-1.7c0-3.7,3-6.7,6.7-6.7c1.5,0,2.9,0.5,4,1.3
		c1.4-3.8,5.2-6.3,9.4-6.1c5.2,0.3,9.2,4.8,8.8,10.1c0,0.8-0.2,1.5-0.4,2.2c3.7,0.1,6.6,3.2,6.6,6.8c0,3.8-3.1,6.9-6.9,6.9
		c-0.4,0-0.9,0-1.3-0.1h-11.7c0.1,2.1,1.7,3.9,3.8,4.5c-0.3,0-0.5,0-0.8,0c-3.1,0-5.6-2-6-4.5h-10c-0.4,0.1-0.8,0.1-1.2,0.1
		c-3.5,0-6.3-2.9-6.3-6.5C-238.6,426.4-236.2,423.7-233.2,423.2z"/>
	<g id="XMLID_27666_">
		<path id="XMLID_27668_" class="st2" d="M-19.6,337.8h-4.4c-3.4,0-6.1-2.7-6.1-6.1l0,0c0-3.4,2.7-6.1,6.1-6.1h4.4
			c3.4,0,6.1,2.7,6.1,6.1l0,0C-13.5,335.1-16.3,337.8-19.6,337.8z"/>
		<path id="XMLID_27667_" class="st2" d="M-22.7,329l3.7,2.2c0.4,0.2,0.4,0.8,0,1l-3.7,2.2c-0.4,0.2-0.9-0.1-0.9-0.5v-4.3
			C-23.6,329.1-23.1,328.8-22.7,329z"/>
	</g>
	<g id="XMLID_27660_">
		<path id="XMLID_27665_" class="st2" d="M-145.3,464.5l4.3-4c-0.9-0.6-1.7-1.5-2.3-2.5l-4.3,4c-0.7,0.6-0.7,1.7-0.1,2.4
			C-147.1,465.2-146,465.2-145.3,464.5z"/>
		<path id="XMLID_27662_" class="st2" d="M-136.8,460.8c3.7,0.1,6.9-2.8,7-6.6c0.1-3.7-2.8-6.9-6.6-7c-3.7-0.1-6.9,2.8-7,6.6
			C-143.4,457.5-140.5,460.7-136.8,460.8z M-141.6,453.8c0.1-2.8,2.4-5,5.3-4.9c2.8,0.1,5,2.4,4.9,5.3c-0.1,2.8-2.4,5-5.3,4.9
			C-139.5,459-141.7,456.6-141.6,453.8z"/>
		<path id="XMLID_27661_" class="st2" d="M-136.4,450l0,1.1c1.6,0.1,2.8,1.4,2.7,2.9l1.1,0C-132.5,452-134.2,450.1-136.4,450z"/>
	</g>
	
		<linearGradient id="XMLID_3_" gradientUnits="userSpaceOnUse" x1="331.2128" y1="375.9803" x2="370.2672" y2="344.4595" gradientTransform="matrix(-1.3979 0 0 1 135.4102 0)">
		<stop  offset="0.2643" style="stop-color:#F8CA00;stop-opacity:0"/>
		<stop  offset="0.8324" style="stop-color:#E15D08;stop-opacity:0.8324"/>
		<stop  offset="1" style="stop-color:#AC3616"/>
	</linearGradient>
	<polygon id="XMLID_27659_" class="st3" points="-365.8,390.4 -339.9,386.8 -339.9,337.3 -357.3,322.4 -385.9,371.4 	"/>
	<path id="XMLID_27658_" class="st4" d="M-201.5,469.1c0-0.1-0.2-0.3-0.1-0.5c0-0.6,0.4-1.3,0.4-1.3s0.2-0.1,0.3-0.3
		c0.1-0.2,0.1-0.6,0.1-0.6s-0.1-0.1-0.1-0.2c0-0.3,0.2-0.8,0.2-1.5c-0.1-1-1-1.4-1.4-1.5c-0.4-0.1-1.1-0.2-1.8,0.1
		c-0.7,0.3-0.9,1-0.9,1.4c0,0.4,0.1,1.5,0.1,1.5s-0.2,0-0.2,0.4c0,0.4,0.4,0.6,0.4,0.6s0.5,1.2,0.4,1.6c-0.1,0.4-1.4,0.9-2.2,1.5
		c-1.1,0.6-1.4,2.5-1.4,2.5l9.7,0.2c0,0-0.1-1.7-0.8-2.4C-199.4,469.9-201.3,469.6-201.5,469.1z"/>
	<path id="XMLID_27652_" class="st2" d="M-122,377.4c0.3,3.2-2,5.8-5,6.1c-3.3,0.3-6.1-2.4-6.1-5.6c0.1-3.3,2.8-5.9,6.5-5.3
		C-124.1,372.9-122.3,374.9-122,377.4z M-124.6,376.7c-0.1-0.1-0.2,0-0.4-0.1c0.2-0.1,0.1-0.5,0.2-0.7c0.4,0.2,0.3-0.3,0.7-0.3
		c0.3,0.2,0,0.5,0.2,0.9c0.3-0.1,0.2-0.4,0.5-0.4c-0.2-0.4-0.5-0.7-0.7-1.1c-0.2,0.2,0,0.6-0.4,0.7c-0.1-0.4-0.2-0.4-0.5-0.4
		c0.2-0.2,0.5-0.3,0.5-0.6c-0.2-0.1-0.3-0.4-0.6-0.4c-0.2,0.2-0.3,0.4-0.5,0.6c0.2,0.4,0,0.7-0.3,0.9c-0.4-0.7-1.8-0.8-1.4-1.9
		c-0.1-0.1-0.3-0.2-0.4-0.3c0.1-0.2,0.4,0.1,0.5-0.1c-1.4-0.4-4,0.7-3.6,1.7c0.5-0.5,1.6,0.7,1.9,0.2c-0.1,0.1-0.2,0.1-0.4,0.1
		c0.4-0.8,1.6-0.4,1.8,0.3c-0.1,0.2-0.1,0.4-0.3,0.5c-0.4-0.2-0.1-0.6-0.5-0.8c-0.1,0.2,0.2,0.5-0.1,0.8c0.2,0,0.2,0.1,0.2,0.2
		c0.6-0.1,0.7,0,1.1,0.2c0-0.2,0.2-0.4,0.2-0.6c0.3,0,0.3,0.3,0.4,0.6c-0.2,0-0.2-0.1-0.2-0.2c-0.1,0.4-0.3,0.2-0.2,0.8
		c0.1,0,0.3,0,0.4,0c0,0.2,0.2,0.5-0.1,0.5c0.4,0.5,1,1.5,0.2,1.9c-1.7-0.5-1,1.5-1.6,2.3c-1.4-0.3-0.8-1.9-1.8-2.6
		c0-0.2,0.3,0,0.5-0.1c-0.3-0.2-0.7-0.3-0.9-0.5c0-0.1,0.1-0.2,0.2-0.2c-0.6-0.2-1,0.4-1.1,0.9c-0.4-0.2-0.3-0.8-0.8-0.8
		c-0.1,3,4.2,5.1,6.8,3.1c-0.6-0.4-1-0.9-1.2-1.7c0.2-0.2,0.5-0.3,0.8-0.3c0.1-0.5,0.7-0.6,1.3-0.7c0.9,0.7,0.1,1.2-0.1,2.1
		c0.7-0.5,1-1.3,1.3-2.2c-0.2-0.2-0.4,0.1-0.5,0.2c-0.3-0.3,0.4-0.5,0.2-0.8c0.3,0,0.2,0.4,0.5,0.2c0-0.2,0-0.4,0-0.6
		c-0.4,0-0.8-0.1-0.8,0.3c-0.2-0.1,0-0.3,0-0.5c-0.4-0.2-0.4-0.8-0.9-0.8C-124.7,376.9-124.7,376.7-124.6,376.7z M-128.9,377
		c-0.2,0,0,0.3-0.2,0.3c0.1,0.2,0.5,0,0.7,0.1c0-0.1-0.1-0.2-0.1-0.3C-128.7,377.1-128.8,377.3-128.9,377z M-127.5,377.1
		c-0.2,0.1-0.4,0.3-0.5,0.5c-0.1,0-0.1-0.2-0.2-0.2c0,0.4-0.4,0.2-0.6,0.3c0,0.1,0.1,0.2,0.2,0.3c0.3,0,0.6-0.2,0.9,0
		c0.1-0.1,0.4-0.1,0.4-0.4c0.3,0,0.6,0,0.8,0.1c-0.2-0.1-0.3-0.3-0.5-0.5c-0.3,0-0.4,0.1-0.5,0.2
		C-127.8,377.3-127.4,377.3-127.5,377.1z M-128.7,378.4c-0.3-0.2-0.3,0.5-0.5,0.6C-129,379.2-129,378.5-128.7,378.4z"/>
	<path id="XMLID_27651_" class="st2" d="M-91.8,444.7c0.1-0.4,0.2-0.9,0.2-1.3c0.2-3.1-2-5.7-4.9-5.9c-2.3-0.2-4.4,1.3-5.2,3.6
		c-0.6-0.5-1.4-0.8-2.2-0.8c-2,0-3.7,1.8-3.7,3.9c0,0.3,0,0.7,0.1,1c-1.7,0.3-3,1.9-3,3.8c0,2.1,1.6,3.8,3.5,3.8
		c0.2,0,0.4,0,0.7-0.1h13.6c0.2,0,0.5,0.1,0.7,0.1c2.1,0,3.8-1.8,3.8-4C-88.2,446.6-89.8,444.8-91.8,444.7z"/>
	
		<linearGradient id="XMLID_4_" gradientUnits="userSpaceOnUse" x1="302.1724" y1="480.2569" x2="342.68" y2="447.5632" gradientTransform="matrix(-1.3979 0 0 1 135.4102 0)">
		<stop  offset="0.2643" style="stop-color:#F8CA00;stop-opacity:0"/>
		<stop  offset="0.8324" style="stop-color:#E15D08;stop-opacity:0.8324"/>
		<stop  offset="1" style="stop-color:#AC3616"/>
	</linearGradient>
	<polygon id="XMLID_27650_" class="st5" points="-350.6,485.1 -290.2,483.1 -290.2,441 -305.1,428.3 -367.8,469 	"/>
	
		<linearGradient id="XMLID_5_" gradientUnits="userSpaceOnUse" x1="190.5814" y1="472.6941" x2="229.9242" y2="440.9405" gradientTransform="matrix(-1.3979 0 0 1 135.4102 0)">
		<stop  offset="0.2643" style="stop-color:#F8CA00;stop-opacity:0"/>
		<stop  offset="0.8324" style="stop-color:#E15D08;stop-opacity:0.8324"/>
		<stop  offset="1" style="stop-color:#AC3616"/>
	</linearGradient>
	<polygon id="XMLID_27649_" class="st6" points="-169.9,486.8 -142.9,483.3 -142.9,433.7 -161,418.8 -190.8,467.9 	"/>
	<path id="XMLID_27646_" class="st4" d="M-285.7,429.1c0.3-2.6-1.5-4.9-4.1-5.2c-2.6-0.3-5,1.6-5.3,4.3c-0.1,0.9,0.1,1.8,0.4,2.6
		l-3.3,2.6c0,0,0,0,0,0.1c-0.1,0.1-0.2,0.2-0.2,0.4c-0.2,0.5,0.1,1.1,0.6,1.3c0.4,0.1,0.8,0,1.1-0.3l3.1-2.5c0.7,0.6,1.5,0.9,2.5,1
		C-288.4,433.6-286.1,431.7-285.7,429.1z M-290.8,431.9c-1.8-0.2-3-1.8-2.8-3.6c0.2-1.8,1.8-3.1,3.6-2.9c1.8,0.2,3,1.8,2.8,3.6
		C-287.5,430.8-289.1,432.1-290.8,431.9z"/>
	<rect id="XMLID_27639_" x="-384.6" y="324.9" class="st7" width="27.7" height="47.8"/>
	<g id="XMLID_27630_">
		<path id="XMLID_27636_" class="st4" d="M-358.5,321.6h-24.4c-1.3,0-2.4,1.1-2.4,2.4v47.4c0,1.3,1.1,2.4,2.4,2.4h24.4
			c1.3,0,2.4-1.1,2.4-2.4v-47.4C-356.1,322.7-357.2,321.6-358.5,321.6z M-357.3,364.1h-26.8V329h26.8V364.1z"/>
		<path id="XMLID_27631_" class="st8" d="M-358.5,321.6c1.3,0,2.4,1.1,2.4,2.4v47.4c0,1.3-1.1,2.4-2.4,2.4h-24.4
			c-1.3,0-2.4-1.1-2.4-2.4v-47.4c0-1.3,1.1-2.4,2.4-2.4H-358.5 M-384.1,364.1h26.8V329h-26.8V364.1 M-358.5,321.1h-24.4
			c-1.7,0-3,1.3-3,3v47.4c0,1.7,1.4,3,3,3h24.4c1.7,0,3-1.3,3-3v-47.4C-355.5,322.4-356.9,321.1-358.5,321.1L-358.5,321.1z
			 M-383.6,329.5h25.7v34h-25.7V329.5L-383.6,329.5z"/>
	</g>
	<rect id="XMLID_27629_" x="-376.4" y="324.7" class="st8" width="11.2" height="1.5"/>
	<rect id="XMLID_27628_" x="-372.7" y="367.5" class="st9" width="4.6" height="3"/>
	<rect id="XMLID_27627_" x="-362.2" y="429.3" class="st7" width="55" height="35"/>
	<g id="XMLID_27618_">
		<path id="XMLID_27624_" class="st4" d="M-307.2,428.4h-54.1c-1,0-1.9,0.8-1.9,1.9v32.1c0,1,0.8,1.9,1.9,1.9h54.1
			c1,0,1.9-0.8,1.9-1.9v-32.1C-305.3,429.2-306.2,428.4-307.2,428.4z M-308.1,461.5h-52.3v-29.3h52.3V461.5z"/>
		<path id="XMLID_27619_" class="st8" d="M-307.2,464.6h-54.1c-1.2,0-2.2-1-2.2-2.2v-32.1c0-1.2,1-2.2,2.2-2.2h54.1
			c1.2,0,2.2,1,2.2,2.2v32.1C-305,463.6-306,464.6-307.2,464.6z M-361.4,428.7c-0.9,0-1.6,0.7-1.6,1.6v32.1c0,0.9,0.7,1.6,1.6,1.6
			h54.1c0.9,0,1.6-0.7,1.6-1.6v-32.1c0-0.9-0.7-1.6-1.6-1.6H-361.4z M-307.9,461.7h-52.8v-29.9h52.8V461.7z M-360.1,461.2h51.7
			v-28.7h-51.7V461.2z"/>
	</g>
	<rect id="XMLID_27617_" x="-81.7" y="425.8" class="st10" width="59.9" height="22.7"/>
	<path id="XMLID_27593_" class="st11" d="M-78.8,441.1h26.3v4.4h-26.3V441.1L-78.8,441.1z M-51.1,441.1h4.1v4.4h-4.1V441.1
		L-51.1,441.1z M-45.5,441.1h20.8v4.4h-20.8V441.1L-45.5,441.1z M-78.8,434.8h4.1v4.4h-4.1V434.8L-78.8,434.8z M-73.3,434.8h4.1v4.4
		h-4.1V434.8L-73.3,434.8z M-67.7,434.8h4.1v4.4h-4.1V434.8L-67.7,434.8z M-62.2,434.8h4.1v4.4h-4.1V434.8L-62.2,434.8z
		 M-56.6,434.8h4.1v4.4h-4.1V434.8L-56.6,434.8z M-51.1,434.8h4.1v4.4h-4.1V434.8L-51.1,434.8z M-45.5,434.8h4.1v4.4h-4.1V434.8
		L-45.5,434.8z M-40,434.8h4.1v4.4H-40V434.8L-40,434.8z M-34.4,434.8h4.1v4.4h-4.1V434.8L-34.4,434.8z M-28.9,434.8h4.1v4.4h-4.1
		V434.8L-28.9,434.8z M-78.8,428.7h4.1v4.4h-4.1V428.7L-78.8,428.7z M-73.3,428.7h4.1v4.4h-4.1V428.7L-73.3,428.7z M-67.7,428.7h4.1
		v4.4h-4.1V428.7L-67.7,428.7z M-62.2,428.7h4.1v4.4h-4.1V428.7L-62.2,428.7z M-56.6,428.7h4.1v4.4h-4.1V428.7L-56.6,428.7z
		 M-51.1,428.7h4.1v4.4h-4.1V428.7L-51.1,428.7z M-45.5,428.7h4.1v4.4h-4.1V428.7L-45.5,428.7z M-40,428.7h4.1v4.4H-40V428.7
		L-40,428.7z M-34.4,428.7h4.1v4.4h-4.1V428.7L-34.4,428.7z M-28.9,428.7h4.1v4.4h-4.1V428.7z"/>
	<g id="XMLID_27574_">
		<path id="XMLID_27592_" class="st12" d="M-162.2,473.3h-24.7c-2.1,0-3.8-1.7-3.8-3.8v-46.3c0-2.1,1.7-3.8,3.8-3.8h24.7
			c2.1,0,3.8,1.7,3.8,3.8v46.3C-158.4,471.6-160.1,473.3-162.2,473.3z"/>
		<g id="XMLID_27588_">
			<path id="XMLID_27591_" class="st8" d="M-162.7,430.1h-23.9c-1.2,0-2.2-1-2.2-2.2v-4.1c0-1.2,1-2.2,2.2-2.2h23.9
				c1.2,0,2.2,1,2.2,2.2v4.1C-160.5,429.1-161.5,430.1-162.7,430.1z"/>
			<rect id="XMLID_27590_" x="-186.8" y="423.7" class="st13" width="24.5" height="1.5"/>
			<rect id="XMLID_27589_" x="-166.9" y="426.2" class="st13" width="4.6" height="0.9"/>
		</g>
		<g id="XMLID_27584_">
			<path id="XMLID_27587_" class="st8" d="M-162.6,439.9h-23.9c-1.2,0-2.2-1-2.2-2.2v-4.1c0-1.2,1-2.2,2.2-2.2h23.9
				c1.2,0,2.2,1,2.2,2.2v4.1C-160.4,438.9-161.4,439.9-162.6,439.9z"/>
			<rect id="XMLID_27586_" x="-186.7" y="433.4" class="st13" width="24.5" height="1.5"/>
			<rect id="XMLID_27585_" x="-166.8" y="435.9" class="st13" width="4.6" height="0.9"/>
		</g>
		<g id="XMLID_27580_">
			<path id="XMLID_27583_" class="st8" d="M-162.7,449.4h-23.9c-1.2,0-2.2-1-2.2-2.2v-4.1c0-1.2,1-2.2,2.2-2.2h23.9
				c1.2,0,2.2,1,2.2,2.2v4.1C-160.5,448.4-161.5,449.4-162.7,449.4z"/>
			<rect id="XMLID_27582_" x="-186.8" y="442.9" class="st13" width="24.5" height="1.5"/>
			<rect id="XMLID_27581_" x="-166.9" y="445.5" class="st13" width="4.6" height="0.9"/>
		</g>
		<g id="XMLID_27576_">
			<path id="XMLID_27579_" class="st8" d="M-162.5,459.2h-23.9c-1.2,0-2.2-1-2.2-2.2v-4.1c0-1.2,1-2.2,2.2-2.2h23.9
				c1.2,0,2.2,1,2.2,2.2v4.1C-160.2,458.2-161.2,459.2-162.5,459.2z"/>
			<rect id="XMLID_27578_" x="-186.6" y="452.8" class="st13" width="24.5" height="1.5"/>
			<rect id="XMLID_27577_" x="-166.7" y="455.3" class="st13" width="4.6" height="0.9"/>
		</g>
		<path id="XMLID_27575_" class="st8" d="M-162.1,470h-1.3c-0.5,0-1-0.4-1-1l0,0c0-0.5,0.4-1,1-1h1.3c0.5,0,1,0.4,1,1l0,0
			C-161.2,469.6-161.6,470-162.1,470z"/>
	</g>
	
		<linearGradient id="XMLID_6_" gradientUnits="userSpaceOnUse" x1="80.5607" y1="426.2574" x2="141.8287" y2="376.8081" gradientTransform="matrix(-1.3979 0 0 1 135.4102 0)">
		<stop  offset="0.2643" style="stop-color:#F8CA00;stop-opacity:0"/>
		<stop  offset="0.8324" style="stop-color:#E15D08;stop-opacity:0.8324"/>
		<stop  offset="1" style="stop-color:#AC3616"/>
	</linearGradient>
	<polygon id="XMLID_27567_" class="st14" points="-73.3,433.1 18.4,430.1 18.4,367.3 -4.2,348.4 -99.3,409.1 	"/>
	
		<linearGradient id="XMLID_7_" gradientUnits="userSpaceOnUse" x1="246.982" y1="417.1999" x2="294.5031" y2="378.8456" gradientTransform="matrix(-1.3979 0 0 1 135.4102 0)">
		<stop  offset="0.2643" style="stop-color:#F8CA00;stop-opacity:0"/>
		<stop  offset="0.8324" style="stop-color:#E15D08;stop-opacity:0.8324"/>
		<stop  offset="1" style="stop-color:#AC3616"/>
	</linearGradient>
	<polygon id="XMLID_27566_" class="st15" points="-284.5,422.9 -213.6,420.6 -213.6,371 -231.1,356.1 -304.7,404 	"/>
	<path id="XMLID_27563_" class="st8" d="M-302.5,465h-64c-0.4,0-0.7,0.3-0.7,0.7v2.1c0,0.4,0.3,0.7,0.7,0.7h26.7
		c0.8-0.9,1.9-1.5,3.2-1.5h4.3c1.3,0,2.4,0.6,3.2,1.5h26.6c0.4,0,0.7-0.3,0.7-0.7v-2.1C-301.8,465.3-302.1,465-302.5,465z"/>
	<path id="XMLID_27562_" class="st0" d="M-373.1,374.6v3.3c0,1.5,1.3,2.8,2.8,2.8s2.8-1.3,2.8-2.8v-3.3H-373.1z"/>
	<path id="XMLID_27561_" class="st8" d="M-305.5,445.9h2c0.9,0,1.7,0.8,1.7,1.7s-0.8,1.7-1.7,1.7h-2V445.9z"/>
	<g id="XMLID_27552_">
		<path id="XMLID_27555_" class="st2" d="M-344,346.2c0.9,0.9,0.9,2.2,0.1,3c-0.8,0.8-2.2,0.8-3-0.1c-0.9-0.9-0.9-2.2-0.1-3
			C-346.2,345.4-344.9,345.4-344,346.2z"/>
		<path id="XMLID_27554_" class="st2" d="M-343.3,352.4l2.7,2.7c4.1-4.1,4-10.7-0.1-14.7l-2.7,2.7
			C-340.7,345.7-340.7,349.9-343.3,352.4z"/>
		<path id="XMLID_27553_" class="st2" d="M-338.3,338.7c5.1,5.1,5.2,13.4,0.2,18.4c-0.1,0.1-0.2,0.1-0.2,0.2l3,3
			c6.9-6.9,6.8-18.1-0.2-25l-3.1,3.1C-338.6,338.5-338.5,338.6-338.3,338.7z"/>
	</g>
	<path id="XMLID_27551_" class="st0" d="M-215.2,396.5L-215.2,396.5c-1.1-0.2-3-1.1-3-3.4v-10.7c0-0.7-0.2-1.2-0.6-1.6
		c-0.5-0.5-1.2-0.5-1.2-0.5H-232v-0.9h11.9c0,0,1.1,0,1.8,0.7c0.5,0.5,0.8,1.3,0.8,2.2v10.7c0,2.1,1.9,2.5,2.2,2.6h2.4
		c0.2,0,1.8-0.2,1.8-2.4v-25.7c0-3.2,2.7-3.2,2.7-3.2h25.5v0.9h-25.5c-0.2,0-1.9,0.1-1.9,2.4v25.7c0,3.1-2.7,3.2-2.7,3.2
		L-215.2,396.5z"/>
	<g id="XMLID_27546_">
		<path id="XMLID_27550_" class="st4" d="M-235.6,354.4c1.2,0,2.2,1,2.2,2.2v46.7c0,1.2-1,2.3-2.2,2.3l-66.7,0c-1.2,0-2.2-1-2.2-2.2
			v-46.7c0-1.2,1-2.2,2.2-2.2L-235.6,354.4L-235.6,354.4z"/>
		<path id="XMLID_27547_" class="st8" d="M-235.6,354.4c1.2,0,2.2,1,2.2,2.2v46.7c0,1.2-1,2.3-2.2,2.3l-66.7,0c-1.2,0-2.2-1-2.2-2.2
			v-46.7c0-1.2,1-2.2,2.2-2.2L-235.6,354.4 M-235.6,353.9l-66.7,0c-1.6,0-2.8,1.3-2.8,2.8v46.7c0,1.6,1.3,2.8,2.8,2.8l66.7,0
			c1.6,0,2.8-1.3,2.8-2.8v-46.7C-232.8,355.1-234,353.9-235.6,353.9L-235.6,353.9z"/>
	</g>
	<path id="XMLID_27545_" class="st9" d="M-239.5,379.9c0-2.4,0.6-4.4,1.2-4.4c0.7,0,1.2,2,1.2,4.4c0,2.4-0.6,4.4-1.2,4.4
		C-238.9,384.3-239.5,382.3-239.5,379.9z"/>
	<rect id="XMLID_27544_" x="-297.9" y="357.3" class="st7" width="56.1" height="45.4"/>
	<path id="XMLID_27543_" class="st0" d="M-232.8,377.6h3.3c1.5,0,2.8,1.3,2.8,2.8s-1.3,2.8-2.8,2.8h-3.3V377.6z"/>
	<path id="XMLID_27542_" class="st0" d="M-201.5,367.9h-3.3c-1.5,0-2.8-1.3-2.8-2.8s1.3-2.8,2.8-2.8h3.3V367.9z"/>
	<path id="XMLID_27456_" class="st0" d="M-105.1,378.6h-6.2c0,0-2.7,0-2.7-3.2v-13.7c0-2.3-1.8-2.4-1.9-2.4l-13.7,0
		c-0.3,0-2.2,0.5-2.2,2.6l0,0.9c-0.1,0.7-0.3,1.3-0.8,1.8c-0.8,0.8-1.8,0.7-1.9,0.7h-11.9v-0.9h11.9c0,0,0.7,0,1.3-0.5
		c0.4-0.4,0.5-0.9,0.5-1.6v-0.5c0-2.3,1.9-3.2,3-3.4l0.1,0h13.8c0,0,2.7,0.1,2.7,3.2v13.7c0,2.3,1.8,2.4,1.9,2.4h6.2V378.6z"/>
	<rect id="XMLID_27455_" x="-97.1" y="347.5" class="st7" width="91.2" height="55.5"/>
	<g id="XMLID_27446_">
		<path id="XMLID_27452_" class="st4" d="M-6.9,346.2h-89.6c-1.2,0-2.2,1-2.2,2.2v58c0,1.2,1,2.2,2.2,2.2h89.6c1.2,0,2.2-1,2.2-2.2
			v-58C-4.7,347.1-5.7,346.2-6.9,346.2z M-9,400.7h-85.6v-50.5H-9V400.7z"/>
		<path id="XMLID_27447_" class="st8" d="M-6.9,346.2c1.2,0,2.2,1,2.2,2.2v58c0,1.2-1,2.2-2.2,2.2h-89.6c-1.2,0-2.2-1-2.2-2.2v-58
			c0-1.2,1-2.2,2.2-2.2H-6.9 M-94.5,400.7H-9v-50.5h-85.6V400.7 M-6.9,345.6h-89.6c-1.5,0-2.8,1.2-2.8,2.8v58c0,1.5,1.2,2.8,2.8,2.8
			h89.6c1.5,0,2.8-1.2,2.8-2.8v-58C-4.2,346.8-5.4,345.6-6.9,345.6L-6.9,345.6z M-94,350.8h84.4v49.3H-94V350.8L-94,350.8z"/>
	</g>
	<rect id="XMLID_27445_" x="-56.9" y="404.6" class="st16" width="10" height="1.3"/>
	<polygon id="XMLID_27444_" class="st17" points="-60.6,408.3 -43.5,408.3 -35.5,416.1 -68.6,416.1 	"/>
	<path id="XMLID_27443_" class="st17" d="M-77,413.8h51.2c0.6,0,1.1,0.9,1.1,2.1v0c0,1.2-0.5,2.1-1.1,2.1H-77
		c-0.6,0-1.1-0.9-1.1-2.1v0C-78.2,414.7-77.6,413.8-77,413.8z"/>
	<path id="XMLID_27442_" class="st10" d="M-24.7,413.9c0,1.2-0.5,2.1-1.1,2.1H-77c-0.6,0-1.1-0.9-1.1-2.1H-24.7z"/>
	<path id="XMLID_27441_" class="st0" d="M-99.3,381.1h-3.3c-1.5,0-2.8-1.3-2.8-2.8s1.3-2.8,2.8-2.8h3.3V381.1z"/>
	<circle id="XMLID_27440_" class="st4" cx="-173.9" cy="366.2" r="29.2"/>
	<g id="XMLID_27423_">
		<path id="XMLID_27439_" class="st2" d="M-173.2,375.1v8.4c2.3-0.8,4.4-3.4,5.7-7C-169.2,375.7-171.2,375.2-173.2,375.1z"/>
		<path id="XMLID_27438_" class="st2" d="M-165.8,366.8h-7.4v6.4c2.2,0.1,4.3,0.7,6.3,1.5C-166.2,372.2-165.8,369.6-165.8,366.8z"/>
		<path id="XMLID_27437_" class="st2" d="M-173.2,358.8v6.3l7.3,0c-0.1-2.8-0.5-5.4-1.3-7.7C-169,358.2-171,358.7-173.2,358.8z"/>
		<path id="XMLID_27436_" class="st2" d="M-174.8,383.6l0-8.5c-2.2,0.1-4.2,0.5-6.1,1.3C-179.5,380.2-177.3,382.9-174.8,383.6z"/>
		<path id="XMLID_27435_" class="st2" d="M-182.5,365.1l7.7,0l0-6.3c-2.3,0-4.5-0.5-6.5-1.3C-182,359.8-182.4,362.3-182.5,365.1z"/>
		<path id="XMLID_27434_" class="st2" d="M-173.2,349.3v7.6c1.9-0.1,3.7-0.6,5.4-1.3C-169.1,352.3-171,350-173.2,349.3z"/>
		<path id="XMLID_27433_" class="st2" d="M-174.8,356.9v-7.7c-2.4,0.6-4.5,3-5.9,6.5C-178.9,356.4-176.9,356.8-174.8,356.9z"/>
		<path id="XMLID_27432_" class="st2" d="M-181.5,374.5c2.1-0.8,4.4-1.3,6.7-1.4l0-6.3h-7.8C-182.5,369.5-182.2,372.2-181.5,374.5z"
			/>
		<path id="XMLID_27431_" class="st2" d="M-183.3,375.3c-0.7-2.6-1.1-5.5-1.1-8.6l-7.7,0c0.1,4.5,1.8,8.5,4.6,11.7
			C-186.3,377.2-184.9,376.2-183.3,375.3z"/>
		<path id="XMLID_27430_" class="st2" d="M-170.2,348.3c1.7,1.3,3.2,3.5,4.3,6.4c1.3-0.7,2.5-1.6,3.5-2.6
			C-164.6,350.2-167.3,348.9-170.2,348.3z"/>
		<path id="XMLID_27429_" class="st2" d="M-163.9,366.7c0,3.1-0.4,6.1-1.2,8.7c1.6,0.9,3.1,2,4.4,3.4c3-3.2,4.9-7.4,5-12.1
			L-163.9,366.7L-163.9,366.7z"/>
		<path id="XMLID_27428_" class="st2" d="M-182.5,354.8c1.1-2.8,2.5-5,4.2-6.3c-2.8,0.7-5.4,2.1-7.6,3.9
			C-184.9,353.3-183.7,354.2-182.5,354.8z"/>
		<path id="XMLID_27427_" class="st2" d="M-165.3,356.6c0.8,2.5,1.2,5.4,1.3,8.5h8.2c-0.3-4.5-2.2-8.6-5.2-11.7
			C-162.2,354.6-163.7,355.7-165.3,356.6z"/>
		<path id="XMLID_27426_" class="st2" d="M-184.5,365.1c0.1-3,0.6-5.9,1.3-8.4c-1.5-0.8-2.9-1.8-4.2-2.9c-2.8,3-4.6,6.9-4.9,11.3
			H-184.5L-184.5,365.1z"/>
		<path id="XMLID_27425_" class="st2" d="M-165.7,377.4c-1,3-2.5,5.3-4.2,6.7c3-0.7,5.6-2,7.8-3.9
			C-163.1,379.1-164.3,378.2-165.7,377.4z"/>
		<path id="XMLID_27424_" class="st2" d="M-182.8,377.2c-1.3,0.7-2.4,1.6-3.5,2.6c2.1,1.9,4.7,3.4,7.6,4.1
			C-180.3,382.5-181.7,380.2-182.8,377.2z"/>
	</g>
	<path id="XMLID_27422_" class="st0" d="M-145,362.1h3.3c1.5,0,2.8,1.3,2.8,2.8s-1.3,2.8-2.8,2.8h-3.3V362.1z"/>
	<g id="XMLID_27418_">
		<path id="XMLID_27421_" class="st2" d="M-55.2,329.1c0.9-0.8,2.2-0.9,3-0.1c0.8,0.8,0.8,2.1-0.1,2.9c-0.9,0.8-2.2,0.9-3,0.1
			C-56.1,331.2-56.1,329.9-55.2,329.1z"/>
		<path id="XMLID_27420_" class="st2" d="M-49,328.3l2.7-2.6c-4.1-3.9-10.7-3.9-14.7,0.1l2.7,2.6C-55.8,325.8-51.6,325.8-49,328.3z"
			/>
		<path id="XMLID_27419_" class="st2" d="M-62.8,323.5c5.1-5,13.4-5.1,18.4-0.2c0.1,0.1,0.1,0.1,0.2,0.2l3-2.9
			c-6.9-6.7-18.1-6.6-25,0.2l3.1,3C-63,323.8-62.9,323.7-62.8,323.5z"/>
	</g>
	<rect id="XMLID_27417_" x="-383.1" y="329.9" class="st18" width="24.7" height="13.5"/>
	<rect id="XMLID_27416_" x="-383.1" y="344" class="st18" width="11.7" height="5.3"/>
	<rect id="XMLID_27415_" x="-370.4" y="344" class="st18" width="11.7" height="5.3"/>
	<rect id="XMLID_27414_" x="-383.1" y="349.9" class="st8" width="24.7" height="2.4"/>
	<rect id="XMLID_27413_" x="-383.2" y="353.4" class="st8" width="24.7" height="2.4"/>
	<rect id="XMLID_27412_" x="-383.2" y="356.8" class="st8" width="24.7" height="2.4"/>
	<path id="XMLID_27411_" class="st4" d="M-367.9,337.8c-0.5-0.1-1.3-0.3-1.6-0.8c0.3-0.4,0.5-0.8,0.6-1.4c0.2,0,0.4-0.3,0.4-0.7
		c0-0.3-0.1-0.6-0.3-0.7c0-0.1,0-0.3-0.1-0.4v-0.5h0c-0.1-0.5-0.9-0.9-1.9-0.9c-1,0-1.8,0.4-1.9,0.9h0v0.8c0,0.1,0,0.1,0,0.2
		c-0.1,0.1-0.2,0.4-0.2,0.7c0,0.4,0.1,0.6,0.3,0.7c0.1,0.6,0.3,1.1,0.6,1.5c-0.4,0.5-1.1,0.7-1.6,0.8c-0.8,0.2-1.2,0.7-1.2,1.7
		l0.2,1.2c0,0.5,0.3,0.8,0.8,0.9c0.5,0.1,1.5,0.3,3.1,0.3c0,0,0,0,0.1,0v0c0,0,0,0,0,0c0,0,0,0,0,0v0c0,0,0,0,0.1,0
		c1.6,0,2.6-0.2,3.1-0.3c0.5-0.1,0.8-0.4,0.8-0.9l0.2-1.2C-366.7,338.6-367.1,338-367.9,337.8z"/>
	<path id="XMLID_27408_" class="st8" d="M-368.9,334.5L-368.9,334.5l-0.3,0.2l-0.1-0.6c-0.1,0.1-0.2,0.1-0.4,0.2
		c-0.2,0-0.7-0.1-0.8-0.2c0,0,0.3,0.1,0.3,0.1c-0.5,0.1-1.6,0.1-1.9-0.4c0-0.1-0.1-0.1-0.1-0.1l-0.1,1.2l-0.3-0.2c0,0.1,0,0.1,0,0.2
		c0,0.3,0.1,0.6,0.3,0.6c0.1,0.7,0.4,1.3,0.7,1.6c-0.1,0.2-0.3,0.4-0.6,0.5c0.2,0.6,0.8,1,1.6,1c0.7,0,1.3-0.4,1.5-1
		c-0.3-0.1-0.5-0.3-0.7-0.5c0.3-0.4,0.6-0.9,0.7-1.6c0,0,0,0,0,0c0.1,0,0.3-0.3,0.3-0.6C-368.9,334.7-368.9,334.6-368.9,334.5z
		 M-370.9,337.6c-0.4,0-0.7-0.1-0.9-0.4c0.2,0.1,0.5,0.1,0.8,0.1c0.3,0,0.7-0.1,0.9-0.2C-370.2,337.4-370.5,337.6-370.9,337.6z"/>
	<path id="XMLID_27407_" class="st0" d="M-186.8,454.3h-80.5c-3.8,0-6.6-2-8.1-5.9c-1.1-2.8-1.1-5.6-1.1-5.7V440
		c0-4.2,0.8-7,2.5-8.6c2-1.9,4.8-1.8,7.6-1.7c1.2,0.1,2.4,0.1,3.4,0.1c2.7,0,4.7,0,5.8-1c0.7-0.7,1-1.9,1-3.8c0-1.5,0-2,0-2.5
		c0-0.2,0-0.5,0-0.8c-0.1-1.5-0.5-2.6-1.4-3.4c-1.6-1.4-4.1-1.2-4.1-1.2l-54.2,0c-1.7,0-3-0.6-3.9-1.6c-1.2-1.4-1.4-3.4-1.4-4.9
		c0-0.7-0.1-1.2-0.1-1.6c0-0.2,0-0.3,0-0.3l0.1-0.3l1,0.2l0,0.3c0,0-0.4,3.9,1.3,5.9c0.7,0.8,1.8,1.3,3.1,1.3h54.1
		c0.3,0,3-0.2,4.9,1.4c1.1,1,1.7,2.4,1.8,4.1c0,0.2,0,0.4,0,0.6c0.1,0.1,0.1,0.4,0.1,0.9c0,0.2,0,0.2-0.1,0.3c0,0.4,0,0.9,0,1.6
		c0,2.2-0.4,3.6-1.3,4.5c-1.4,1.4-3.7,1.4-6.6,1.3l-0.1,0c-0.4,0-0.8,0-1.3,0c-0.7,0-1.5,0-2.1-0.1c-2.7-0.1-5.2-0.2-6.8,1.4
		c-1.4,1.4-2.1,3.9-2.1,7.8v2.7c0,0,0,2.7,1.1,5.4c1.4,3.5,3.7,5.2,7.1,5.2h80.5V454.3z"/>
	<path id="XMLID_27406_" class="st0" d="M-177.2,394.7v3.3c0,1.5,1.3,2.8,2.8,2.8s2.8-1.3,2.8-2.8v-3.3H-177.2z"/>
	<rect id="XMLID_27405_" x="-296.8" y="358.4" class="st18" width="53.6" height="17.2"/>
	<rect id="XMLID_27404_" x="-296.8" y="376.8" class="st18" width="17.2" height="3.9"/>
	<rect id="XMLID_27403_" x="-278.5" y="376.8" class="st18" width="17.2" height="3.9"/>
	<rect id="XMLID_27402_" x="-260.2" y="376.8" class="st18" width="17.2" height="3.9"/>
	<rect id="XMLID_27388_" x="-93.7" y="350.8" class="st18" width="84.2" height="29.7"/>
	<path id="XMLID_27385_" class="st2" d="M-313.5,365.1c0.1-1.6-1.2-2.9-2.8-3c-0.1,0-0.2,0-0.4,0c-0.7-0.8-1.7-1.4-2.9-1.4
		c-1.8-0.1-3.4,1-3.8,2.5c-0.3-0.1-0.6-0.2-0.9-0.2c-1.5-0.1-2.8,1-2.9,2.5c0,1,0.5,1.9,1.4,2.4c-0.1,0.3-0.2,0.6-0.2,0.9
		c-0.1,1.3,1,2.5,2.3,2.6c0.6,0.8,1.4,1.4,2.4,1.4c1.4,0.1,2.7-1,3.2-2.5c0.4,0.4,1,0.7,1.6,0.7c1.3,0.1,2.4-0.9,2.4-2.1
		c0-0.6-0.2-1.2-0.6-1.6C-314,366.8-313.6,366-313.5,365.1z M-318.2,367.3C-318.2,367.3-318.2,367.3-318.2,367.3
		C-318.2,367.3-318.2,367.3-318.2,367.3C-318.2,367.3-318.2,367.3-318.2,367.3z"/>
	<circle id="XMLID_27384_" class="st0" cx="-276.3" cy="440.6" r="4.7"/>
	<rect id="XMLID_27383_" x="-93.7" y="381.6" class="st18" width="17.2" height="3.9"/>
	<rect id="XMLID_27382_" x="-75.4" y="381.6" class="st18" width="17.2" height="3.9"/>
	<rect id="XMLID_27381_" x="-57.1" y="381.6" class="st18" width="17.2" height="3.9"/>
	<rect id="XMLID_27380_" x="-37.8" y="370.5" class="st7" width="28.3" height="15"/>
	<rect id="XMLID_27379_" x="-93.7" y="387.3" class="st8" width="83.6" height="3.9"/>
	<rect id="XMLID_27378_" x="-93.7" y="392.3" class="st8" width="83.6" height="3.9"/>
	<rect id="XMLID_27377_" x="-360" y="432.5" class="st18" width="51.5" height="17.2"/>
	<rect id="XMLID_27376_" x="-359.5" y="450.9" class="st18" width="24.5" height="3.3"/>
	<rect id="XMLID_27375_" x="-333" y="450.9" class="st18" width="24.5" height="3.3"/>
	<rect id="XMLID_27374_" x="-360" y="455.2" class="st8" width="51.5" height="4.8"/>
	<g id="XMLID_27366_">
		<path id="XMLID_27370_" class="st4" d="M-383.7,413.9c0,0.4,0.2,1.5,0.5,1.8l0.8,1l3.9,4.4c0.3,0.4,1.8,0.9,2.4,0.9l3,0
			c0.3,0,0.5-0.1,0.8-0.2l1.4-0.6l1.4,0c1,0,1.8-0.7,1.8-1.5l0-6.2c0-0.3-0.1-0.7-0.3-0.9l-3.4-3l-1.7-3c-0.3-0.5-0.3-0.9-0.9-0.9
			l-0.7,0c-1,0-1.5,0.7-1.5,1.6l0.4,1.6c0,0.1,0.5,1.4,0.5,1.5l0.9,1.6l-7.6-0.1c-1,0-1.5,0.7-1.5,1.5L-383.7,413.9z M-369.6,413.5
			l0,3.1l-0.1-3.3L-369.6,413.5z"/>
		<path id="XMLID_27367_" class="st4" d="M-367,421.3c0,0.4,0.4,0.8,0.9,0.8l0.9,0l1.8,0l0.9,0l0-0.8l0.1-8.6l0-0.8l-0.9,0l-1.8,0
			l-0.9,0c-0.5,0-0.9,0.3-0.9,0.8L-367,421.3z M-365.9,419.7c0-0.6,0.5-1,1.1-1c0.6,0,1.1,0.5,1.1,1c0,0.6-0.5,1-1.1,1
			C-365.4,420.7-365.9,420.3-365.9,419.7z"/>
	</g>
	<rect id="XMLID_27365_" x="-296.9" y="382.8" class="st8" width="25.9" height="2.4"/>
	<rect id="XMLID_27364_" x="-269" y="382.8" class="st8" width="25.9" height="2.4"/>
	<rect id="XMLID_27363_" x="-296.8" y="386.6" class="st8" width="25.9" height="2.4"/>
	<rect id="XMLID_27362_" x="-269" y="386.6" class="st8" width="25.9" height="2.4"/>
	<rect id="XMLID_27361_" x="-296.8" y="390.4" class="st8" width="25.9" height="2.4"/>
	<rect id="XMLID_27360_" x="-269" y="390.4" class="st8" width="25.9" height="2.4"/>
	<rect id="XMLID_27359_" x="-35.8" y="372.1" class="st8" width="12" height="5.2"/>
	<rect id="XMLID_27358_" x="-22.9" y="372.1" class="st8" width="12" height="5.2"/>
	<g id="XMLID_27353_">
		<path id="XMLID_27355_" class="st2" d="M-273.5,470.4l1-2.1l-1.4-0.7c0.1-0.6,0.2-1.2,0.1-1.7l1.4-0.5l-0.8-2.2l-1.4,0.5
			c-0.3-0.5-0.7-0.9-1.2-1.3l0.7-1.4l-2.1-1l-0.7,1.4c-0.6-0.1-1.2-0.2-1.7-0.1l-0.5-1.4l-2.2,0.8l0.5,1.4c-0.5,0.3-0.9,0.7-1.3,1.2
			l-1.4-0.7l-1,2.1l1.4,0.7c-0.1,0.6-0.2,1.2-0.1,1.7l-1.4,0.5l0.8,2.2l1.4-0.5c0.3,0.5,0.7,0.9,1.2,1.3l-0.7,1.4l2.1,1l0.7-1.4
			c0.6,0.1,1.2,0.2,1.7,0.1l0.5,1.4l2.2-0.8l-0.5-1.4c0.5-0.3,0.9-0.7,1.3-1.2L-273.5,470.4z M-280.6,470c-1.9-0.9-2.7-3.2-1.8-5.1
			c0.9-1.9,3.2-2.7,5.1-1.8c1.9,0.9,2.7,3.2,1.8,5.1C-276.4,470.1-278.7,470.9-280.6,470z"/>
		<path id="XMLID_27354_" class="st2" d="M-278.1,466.9c-0.2,0.5-0.8,0.6-1.2,0.4c-0.5-0.2-0.6-0.8-0.4-1.2c0.2-0.5,0.8-0.6,1.2-0.4
			C-278.1,465.9-277.9,466.5-278.1,466.9z"/>
	</g>
	<g id="XMLID_27348_">
		<path id="XMLID_27350_" class="st2" d="M-287,475.2l1.1-1.3l-0.8-0.7c0.2-0.4,0.4-0.8,0.4-1.2l1.1-0.1l-0.1-1.7l-1.1,0.1
			c-0.1-0.4-0.3-0.8-0.5-1.2l0.7-0.8l-1.3-1.1l-0.7,0.8c-0.4-0.2-0.8-0.4-1.2-0.4l-0.1-1.1l-1.7,0.1l0.1,1.1
			c-0.4,0.1-0.8,0.3-1.2,0.5l-0.8-0.7l-1.1,1.3l0.8,0.7c-0.2,0.4-0.4,0.8-0.4,1.2l-1.1,0.1l0.1,1.7l1.1-0.1c0.1,0.4,0.3,0.8,0.5,1.2
			l-0.7,0.8l1.3,1.1l0.7-0.8c0.4,0.2,0.8,0.4,1.2,0.4l0.1,1.1l1.7-0.1l-0.1-1.1c0.4-0.1,0.8-0.3,1.2-0.5L-287,475.2z M-291.9,473.4
			c-1.1-1-1.2-2.8-0.2-4c1-1.1,2.8-1.2,4-0.2c1.1,1,1.2,2.8,0.2,4C-289,474.4-290.8,474.5-291.9,473.4z"/>
		<path id="XMLID_27349_" class="st2" d="M-288.5,472.8c-0.8,0.9-2.1,0.9-3,0.1c-0.9-0.8-0.9-2.1-0.1-3c0.8-0.9,2.1-0.9,3-0.1
			C-287.7,470.6-287.7,471.9-288.5,472.8z"/>
	</g>
	<path id="XMLID_27345_" class="st4" d="M-284.3,367.5c-0.2-0.1-0.5-0.1-0.8-0.2l-0.3-0.8l-0.1-1.4c0-0.1,0-0.1,0.1-0.2
		c0.2,0,0.3-0.4,0.3-0.9c0-0.4,0-0.8-0.2-0.9c0-0.1,0-0.2-0.1-0.4v-0.6h0c-0.1-0.9-1-1.6-2.3-1.6c-1.3,0-2,0.7-2.2,1.3
		c0-0.1,0-0.2,0,0c0,0.1,0,0.1,0,0.2c0,0,0,0.1,0,0.1c-0.1,0.5-0.1,0.8-0.1,1c-0.1,0.2-0.1,0.4-0.1,0.8c0,0.4,0,0.7,0.2,0.8l0.1,1.8
		l-0.3,0.8c-0.3,0.1-0.6,0.2-0.9,0.2c-1,0.2-1.5,0.9-1.4,2.1l0.2,1.5c0,0.6,0.3,1,0.9,1.1c0.6,0.2,1.9,0.4,3.8,0.4c0,0,0,0,0.1,0v0
		c0,0,0,0,0,0c0,0,0,0,0,0v0c0,0,0,0,0.1,0c1.9,0,3.2-0.2,3.8-0.4c0.6-0.2,0.9-0.5,0.9-1.1l0.2-1.5
		C-282.8,368.4-283.3,367.7-284.3,367.5z M-287.7,370.4c-0.1,0-0.2-0.1-0.2-0.2s0.1-0.2,0.2-0.2c0.1,0,0.2,0.1,0.2,0.2
		S-287.6,370.4-287.7,370.4z"/>
	<path id="XMLID_27344_" class="st8" d="M-285.5,363.4L-285.5,363.4l-0.4,0.8c0,0-0.4-1-1.2-1.7l0.2,0.5c0,0,0,0,0,0l0,0
		c0,0-0.1-0.2-0.6-0.6c-0.1-0.1-0.3-0.2-0.4-0.3c-0.2,0.1-0.5,0.3-0.8,0.6c-0.5,0.6-0.9,1.6-0.9,1.6l-0.3-0.7c0,0.1,0,0.2,0,0.4
		c0,0.4,0,0.8,0.2,0.8c0.1,0.8,0.5,1.5,0.9,2c-0.2,0.3-0.4,0.4-0.7,0.6c1.2,0.5,2,2,2,2s0.9-1.7,1.9-1.9c-0.3-0.1-0.6-0.3-0.8-0.6
		c0.4-0.5,0.7-1.2,0.9-2c0,0,0,0,0,0c0.2,0,0.2-0.4,0.2-0.8C-285.4,363.8-285.4,363.6-285.5,363.4z"/>
	<path id="XMLID_27343_" class="st4" d="M-27.7,361.7c0.7-0.2,1.9-0.4,2.4-1.1c-0.4-0.5-0.7-1.2-0.9-2.1c-0.3,0-0.5-0.5-0.5-1.1
		c0-0.5,0.2-0.9,0.4-1c0-0.2,0.1-0.4,0.1-0.6V355h0c0.1-0.8,1.3-1.4,2.8-1.4c1.5,0,2.7,0.6,2.8,1.4h0v1.1c0,0.1,0,0.1,0,0.2
		c0.2,0.2,0.4,0.5,0.4,1c0,0.5-0.2,0.9-0.4,1.1c-0.2,0.9-0.5,1.6-0.9,2.2c0.5,0.7,1.7,1,2.4,1.1c1.2,0.2,1.8,1.1,1.7,2.5l-0.2,1.8
		c0,0.8-0.4,1.2-1.1,1.4c-0.7,0.2-2.2,0.5-4.5,0.5c0,0-0.1,0-0.1,0v0c0,0,0,0,0,0c0,0,0,0,0,0v0c0,0-0.1,0-0.1,0
		c-2.3,0-3.8-0.3-4.5-0.5c-0.7-0.2-1.1-0.6-1.1-1.4l-0.2-1.8C-29.5,362.8-28.9,361.9-27.7,361.7z"/>
	<path id="XMLID_27340_" class="st8" d="M-26.3,357.3c0,0.5,0.2,1,0.4,1c0,0,0,0,0,0c0.2,1,0.5,1.8,1,2.4c-0.2,0.3-0.6,0.6-1,0.7
		c0.4,0.8,1.2,0.9,2.3,0.9c1.1,0,2-0.1,2.3-1c-0.3-0.2-0.7-0.4-0.9-0.7c0.5-0.6,0.9-1.4,1-2.4c0.2,0,0.4-0.4,0.4-0.9
		c0-0.1,0-0.2,0-0.3l-0.4,0.4l-0.2-1.8c-0.1,0-0.1,0.1-0.2,0.2c-0.4,0.8-1.1-0.5-1.8-0.6c0,0-0.5,1-0.6,1.1
		c-0.2,0.1-0.9,0.3-1.2,0.3c-0.2,0-0.4-0.1-0.6-0.2l-0.1,0.9l-0.5-0.2v-0.1C-26.3,356.9-26.3,357.1-26.3,357.3z M-24.6,360.8
		c0.4,0.1,0.8,0.2,1.3,0.2c0.5,0,0.9-0.1,1.2-0.2c-0.3,0.3-0.7,0.5-1.3,0.5C-23.9,361.3-24.4,361.1-24.6,360.8z"/>
	<path id="XMLID_27339_" class="st19" d="M-44.6,383.2c0,0.3-0.2,0.5-0.5,0.5h-40.1c-0.3,0-0.5-0.2-0.5-0.5v-26.9
		c0-0.3,0.2-0.5,0.5-0.5h40.1c0.3,0,0.5,0.2,0.5,0.5V383.2z"/>
	<path id="XMLID_27338_" class="st8" d="M-84.9,359.9v22.2c0,0.3,0.2,0.5,0.5,0.5H-46c0.3,0,0.5-0.2,0.5-0.5v-22.2H-84.9z"/>
	<circle id="XMLID_27337_" class="st20" cx="-83.5" cy="357.9" r="0.7"/>
	<circle id="XMLID_27336_" class="st21" cx="-81.3" cy="357.8" r="0.7"/>
	<circle id="XMLID_27335_" class="st22" cx="-79" cy="357.8" r="0.7"/>
	<rect id="XMLID_27334_" x="-53" y="357" class="st8" width="7.3" height="1.6"/>
	<rect id="XMLID_27333_" x="-72.5" y="357" class="st8" width="18.6" height="1.6"/>
	<rect id="XMLID_27332_" x="-81.2" y="363.6" class="st2" width="9.2" height="1.6"/>
	<rect id="XMLID_27331_" x="-69.6" y="363.6" class="st2" width="9.2" height="1.6"/>
	<rect id="XMLID_27330_" x="-57.8" y="363.4" class="st2" width="9.2" height="1.6"/>
	<g id="XMLID_27324_">
		<rect id="XMLID_27329_" x="-277.5" y="363.1" class="st4" width="28.4" height="0.6"/>
		<rect id="XMLID_27328_" x="-277.5" y="365.2" class="st4" width="28.4" height="0.6"/>
		<rect id="XMLID_27327_" x="-277.5" y="367" class="st4" width="21.3" height="0.6"/>
		<rect id="XMLID_27326_" x="-277.5" y="368.8" class="st4" width="28.4" height="0.6"/>
		<rect id="XMLID_27325_" x="-277.5" y="370.6" class="st4" width="16.8" height="0.6"/>
	</g>
	<g id="XMLID_27318_">
		<rect id="XMLID_27323_" x="-81" y="368.1" class="st4" width="28.4" height="0.6"/>
		<rect id="XMLID_27322_" x="-81" y="370.2" class="st4" width="28.4" height="0.6"/>
		<rect id="XMLID_27321_" x="-81" y="372" class="st4" width="21.3" height="0.6"/>
		<rect id="XMLID_27320_" x="-81" y="373.8" class="st4" width="28.4" height="0.6"/>
		<rect id="XMLID_27319_" x="-81" y="375.6" class="st4" width="16.8" height="0.6"/>
	</g>
	<g id="XMLID_27312_">
		<rect id="XMLID_27317_" x="-355.1" y="437" class="st4" width="28.4" height="0.6"/>
		<rect id="XMLID_27316_" x="-355.1" y="439.1" class="st4" width="28.4" height="0.6"/>
		<rect id="XMLID_27315_" x="-355.1" y="440.9" class="st4" width="21.3" height="0.6"/>
		<rect id="XMLID_27314_" x="-355.1" y="442.7" class="st4" width="28.4" height="0.6"/>
		<rect id="XMLID_27313_" x="-355.1" y="444.5" class="st4" width="16.8" height="0.6"/>
	</g>
	<g id="XMLID_27305_">
		<polygon id="XMLID_27310_" class="st8" points="-213.6,421.3 -222.4,421.3 -221.5,419.6 -214.4,419.6 		"/>
		<path id="XMLID_27307_" class="st8" d="M-211.1,421.3h-13.8c-0.4,0-0.7,0.3-0.7,0.7v8.7c0,0.4,0.3,0.7,0.7,0.7h13.8
			c0.4,0,0.7-0.3,0.7-0.7v-8.7C-210.4,421.6-210.7,421.3-211.1,421.3z M-218,430.4c-2.4,0-4.4-2-4.4-4.4s2-4.4,4.4-4.4
			c2.4,0,4.4,2,4.4,4.4S-215.5,430.4-218,430.4z"/>
		<path id="XMLID_27306_" class="st8" d="M-218,422.7c-0.2,0-0.4,0-0.6,0.1c0.7,0.2,1.2,0.8,1.2,1.6c0,0.9-0.7,1.6-1.6,1.6
			s-1.6-0.7-1.6-1.6c0-0.1,0-0.3,0-0.4c-0.4,0.6-0.7,1.3-0.7,2c0,1.8,1.5,3.3,3.3,3.3c1.8,0,3.3-1.5,3.3-3.3S-216.2,422.7-218,422.7
			z"/>
	</g>
	<polygon id="XMLID_27304_" class="st2" points="-117.2,338.2 -120.6,341.7 -124.1,338.2 	"/>
	<polygon id="XMLID_27303_" class="st2" points="-117.2,343.8 -120.6,347.3 -124.1,343.8 	"/>
	<polygon id="XMLID_27302_" class="st2" points="-117.2,349.5 -120.6,353 -124.1,349.5 	"/>
	<path id="XMLID_27301_" class="st2" d="M-199.1,403.5c0.3-0.4-1.8-1.1-1.8-1.1s0.8-1.4,1.8-2.5c1-1.1,2.5-2,2.5-2s0.4,2.1,1,1.8
		c0.6-0.3,3.3-1.8,3.3-1.8s-0.4-1.1-1.1-1.8c-0.8-0.7-1.7-0.9-1.7-0.9s-2.5,0.6-5.5,3.6c-2.9,3-2.9,5-2.9,5s-0.1,1,0.8,1.8
		c0.9,0.8,1.7,0.9,1.7,0.9S-199.4,404-199.1,403.5z"/>
	<g id="XMLID_27198_">
		<g id="XMLID_27294_">
			<path id="XMLID_27297_" class="st4" d="M-121.9,324.1c-0.6-0.6-0.6-1.5,0-2.1c0.6-0.6,1.5-0.5,2.1,0.1c0.6,0.6,0.6,1.5,0,2.1
				C-120.4,324.7-121.3,324.7-121.9,324.1z"/>
			<path id="XMLID_27296_" class="st4" d="M-122.4,319.7l-1.9-1.9c-2.8,2.8-2.8,7.5,0,10.3l1.9-1.9
				C-124.2,324.5-124.2,321.5-122.4,319.7z"/>
			<path id="XMLID_27295_" class="st4" d="M-125.9,329.3c-3.6-3.6-3.7-9.4-0.1-12.9c0.1-0.1,0.1-0.1,0.2-0.2l-2.1-2.1
				c-4.8,4.8-4.7,12.6,0.1,17.5l2.2-2.2C-125.7,329.5-125.8,329.4-125.9,329.3z"/>
		</g>
		<g id="XMLID_27285_">
			<path id="XMLID_27293_" class="st4" d="M-119.4,322.1c0.6,0.6,0.6,1.5,0,2.1c-0.6,0.6-1.5,0.5-2.1,0c-0.6-0.6-0.6-1.5,0-2.1
				C-121,321.5-120,321.5-119.4,322.1z"/>
			<path id="XMLID_27287_" class="st4" d="M-118.9,326.4l1.9,1.9c2.8-2.8,2.8-7.5,0-10.3l-1.9,1.9
				C-117.1,321.7-117.1,324.6-118.9,326.4z"/>
			<path id="XMLID_27286_" class="st4" d="M-115.5,316.8c3.6,3.6,3.7,9.4,0.1,12.9c-0.1,0.1-0.1,0.1-0.2,0.2l2.1,2.1
				c4.8-4.8,4.7-12.6-0.1-17.5l-2.2,2.2C-115.6,316.6-115.5,316.7-115.5,316.8z"/>
		</g>
	</g>
	<path id="XMLID_23589_" class="st2" d="M-332.1,393.5h-1v-2.5c0-1.4-1-2.5-2.2-2.5h-1.4c-1.2,0-2.2,1.1-2.2,2.5v2.5h-1
		c-0.2,0-0.3,0.1-0.3,0.3v6.4c0,0.1,0.1,0.3,0.3,0.3h7.8c0.2,0,0.3-0.1,0.3-0.3v-6.4C-331.8,393.6-331.9,393.5-332.1,393.5z
		 M-337.6,391.3c0-1.1,0.6-1.9,1.2-1.9h0.8c0.7,0,1.2,0.9,1.2,1.9v2.2h-3.3L-337.6,391.3L-337.6,391.3z"/>
</g>
</svg>
