<svg id="レイヤー_1" xmlns="http://www.w3.org/2000/svg" viewBox="-526.8 340.9 103 127.9"><style>.st0{fill:#2c5c8a}.st1{fill:#efefef}.st2{fill:#b0afb0}.st3{fill:#c9c9c9}.st4{fill:#ec7247}.st5{fill:#2cb7c3}.st6{fill:#162046}</style><path class="st0" d="M-431.1 467.4c0 .8-.6 1.4-1.4 1.4l-92.9-.5c-.8 0-1.4-.6-1.4-1.4l.6-118.9c0-.8.6-1.4 1.4-1.4l92.9.5c.8 0 1.4.6 1.4 1.4l-.6 118.9z"/><path class="st1" d="M-453.3 453.1l-61.4-.3.5-93.4 72.1.4-.4 83.5z"/><path transform="matrix(-1 -.00496 .00496 -1 -958.237 741.224)" class="st2" d="M-505.5 370.4h54.6v2.8h-54.6z"/><path transform="rotate(-179.744 -478.299 379) scale(1.00001)" class="st2" d="M-505.6 377.6h54.6v2.8h-54.6z"/><path transform="matrix(-1 -.00496 .00496 -1 -958.507 769.824)" class="st2" d="M-505.6 384.7h54.6v2.8h-54.6z"/><path transform="matrix(-1 -.00496 .00496 -1 -958.543 784.226)" class="st2" d="M-505.6 391.9h54.6v2.8h-54.6z"/><path transform="matrix(-1 -.00496 .00496 -1 -958.778 798.424)" class="st2" d="M-505.7 399h54.6v2.8h-54.6z"/><path transform="rotate(-179.744 -478.4 407.6) scale(1.00001)" class="st2" d="M-505.7 406.2h54.6v2.8h-54.6z"/><path transform="matrix(-1 -.00495 .00495 -1 -958.845 827.03)" class="st2" d="M-505.7 413.3h54.6v2.8h-54.6z"/><path transform="matrix(-1 -.00497 .00497 -1 -959.089 841.42)" class="st2" d="M-505.8 420.5h54.6v2.8h-54.6z"/><path transform="rotate(-179.744 -478.499 429) scale(1.00001)" class="st2" d="M-505.8 427.6h54.6v2.8h-54.6z"/><path transform="rotate(-179.744 -491.15 436.1) scale(1.00001)" class="st2" d="M-505.8 434.7h29.3v2.8h-29.3z"/><path class="st3" d="M-453.3 453.1l.1-9.9 10.7.1z"/><path class="st1" d="M-455.1 351.6c0 .8-.6 1.4-1.4 1.4l-43.6-.2c-.8 0-1.4-.6-1.4-1.4v-9.1c0-.8.6-1.4 1.4-1.4l43.6.1c.8 0 1.4.6 1.4 1.4v9.2z"/><path transform="rotate(-134.717 -455.091 399.69)" class="st4" d="M-456.6 363.3h3v72.8h-3z"/><path transform="rotate(-134.712 -453.042 401.872)" class="st5" d="M-454.5 365.4h3v72.8h-3z"/><path transform="rotate(-134.717 -450.767 404.007)" class="st4" d="M-452.3 367.6h3v72.8h-3z"/><path class="st1" d="M-475.5 430.8l-11.4 4.8 4.9-11.4z"/><path class="st6" d="M-485.4 432l-1.5 3.6 3.6-1.5z"/></svg>