<?xml version="1.0" encoding="utf-8"?>
<!-- Generator: Adobe Illustrator 19.1.0, SVG Export Plug-In . SVG Version: 6.00 Build 0)  -->
<svg version="1.1" id="レイヤー_1" xmlns="http://www.w3.org/2000/svg" xmlns:xlink="http://www.w3.org/1999/xlink" x="0px"
	 y="0px" viewBox="-571 375.9 56.4 51.1" style="enable-background:new -571 375.9 56.4 51.1;" xml:space="preserve">
<style type="text/css">
	.st0{fill:#162046;}
	.st1{fill:#F5CD54;}
	.st2{fill:#E96B57;}
	.st3{fill:#2CB7C3;}
</style>
<path class="st0" d="M-567.3,406c-0.2-0.5-4.1-12.5,2.3-21.4c4.2-5.8,11.6-8.7,22.2-8.7s18.1,2.9,22.2,8.7
	c6.4,8.8,2.5,20.9,2.3,21.4l-2.9-1l1.4,0.5l-1.4-0.5c0-0.1,3.6-11.1-1.9-18.6c-3.6-4.9-10.2-7.4-19.7-7.4s-16.2,2.5-19.7,7.4
	c-5.5,7.6-1.9,18.6-1.9,18.7L-567.3,406L-567.3,406z M-531.1,426c-0.9,0-1.8,0-2.6-0.1c-0.7,0-1.4-0.1-2-0.1v-1.5
	c0.6,0,1.3,0,2.1,0.1c3.6,0.1,8.1,0.3,10.6-2.2c1.4-1.4,2.1-3.4,2.1-6.1h1.5c0,3.2-0.9,5.6-2.6,7.2
	C-524.3,425.6-527.9,426-531.1,426L-531.1,426z"/>
<path class="st1" d="M-542.5,390.1C-542.5,390.1-542.6,390.1-542.5,390.1c-10.3,0-18.6,8.3-18.6,18.5c0,10.2,8.3,18.5,18.5,18.5h0.1
	c10.2,0,18.5-8.3,18.5-18.5C-524.1,398.3-532.3,390.2-542.5,390.1L-542.5,390.1z"/>
<g>
	<g>
		<path class="st2" d="M-536.9,422.8c-1.7-0.3-3.4-0.4-5.3-0.5v4.7C-540.2,426.9-538.4,425.3-536.9,422.8z"/>
		<path class="st2" d="M-542.2,415.5v6.3c1.9,0,3.8,0.2,5.6,0.5c0.9-1.8,1.7-3.9,2.2-6.4C-536.9,415.6-539.5,415.5-542.2,415.5z"/>
		<path class="st2" d="M-542.2,402.7v5.8h8.4c0-2.2-0.2-4.3-0.6-6.3C-536.9,402.6-539.5,402.7-542.2,402.7z"/>
		<path class="st2" d="M-542.2,409.1v5.8c2.7,0,5.3,0.2,7.8,0.4c0.4-1.9,0.6-4,0.6-6.2H-542.2z"/>
		<path class="st2" d="M-542.2,395.9v6.3c2.7,0,5.3-0.2,7.7-0.4c-0.5-2.4-1.2-4.6-2.2-6.4C-538.4,395.7-540.2,395.8-542.2,395.9z"/>
		<path class="st2" d="M-539.6,391c1.2,0.8,2.3,2.1,3.3,3.7c0.9-0.2,1.8-0.4,2.7-0.6C-535.4,392.6-537.5,391.5-539.6,391z"/>
		<path class="st2" d="M-537.6,391c1.7,0.7,3.2,1.6,4.5,2.9c0.3-0.1,0.6-0.2,1-0.3C-533.8,392.4-535.6,391.5-537.6,391z"/>
		<path class="st2" d="M-542.2,390.7v4.6c1.8,0,3.6-0.2,5.3-0.5C-538.4,392.3-540.2,390.8-542.2,390.7z"/>
		<path class="st2" d="M-533.9,416c-0.5,2.4-1.2,4.6-2.2,6.4c1,0.2,2,0.5,2.9,0.7c1.8-1.7,3.3-3.9,4.3-6.4
			C-530.5,416.4-532.2,416.2-533.9,416z"/>
		<path class="st2" d="M-545.3,426.7c-1.2-0.8-2.3-2.1-3.3-3.8c-0.9,0.2-1.8,0.4-2.7,0.7C-549.5,425.1-547.5,426.2-545.3,426.7z"/>
		<path class="st2" d="M-551,401.7c0.5-2.4,1.3-4.6,2.2-6.4c-1-0.2-2-0.4-2.9-0.7c-1.8,1.7-3.3,3.9-4.3,6.4
			C-554.4,401.2-552.8,401.5-551,401.7z"/>
		<path class="st2" d="M-542.8,402.1v-6.3c-1.9,0-3.8-0.2-5.5-0.5c-0.9,1.8-1.7,3.9-2.2,6.4C-548,402-545.4,402.1-542.8,402.1z"/>
		<path class="st2" d="M-545.3,391c-2.2,0.5-4.2,1.6-5.9,3.1c0.8,0.3,1.7,0.5,2.7,0.6C-547.6,393.1-546.5,391.8-545.3,391z"/>
		<path class="st2" d="M-548,394.8c1.6,0.3,3.4,0.4,5.3,0.5v-4.6C-544.7,390.8-546.6,392.3-548,394.8z"/>
		<path class="st2" d="M-542.8,427v-4.7c-1.8,0-3.6,0.2-5.3,0.5C-546.6,425.3-544.8,426.9-542.8,427z"/>
		<path class="st2" d="M-542.8,414.9v-5.8h-8.4c0,2.2,0.2,4.3,0.6,6.2C-548.1,415.1-545.5,414.9-542.8,414.9z"/>
		<path class="st2" d="M-542.8,408.5v-5.8c-2.7,0-5.3-0.2-7.8-0.4c-0.4,1.9-0.6,4.1-0.6,6.3H-542.8z"/>
		<path class="st2" d="M-542.8,421.8v-6.3c-2.7,0-5.3,0.2-7.7,0.4c0.5,2.4,1.2,4.6,2.2,6.4C-546.6,422-544.7,421.8-542.8,421.8z"/>
		<path class="st2" d="M-531.6,393.9c-0.3,0.1-0.7,0.3-1,0.4c1.8,1.8,3.2,4,4.2,6.5c0.8-0.2,1.6-0.3,2.3-0.5
			C-527.4,397.8-529.3,395.6-531.6,393.9z"/>
		<path class="st2" d="M-533.8,402.2c0.4,2,0.6,4.1,0.6,6.3h5.7c0-2.5-0.5-4.9-1.3-7.1C-530.4,401.8-532,402-533.8,402.2z"/>
		<path class="st2" d="M-552.3,394.3c-0.4-0.1-0.7-0.3-1-0.4c-2.3,1.7-4.2,3.9-5.5,6.4c0.7,0.2,1.5,0.4,2.3,0.5
			C-555.6,398.3-554.1,396.1-552.3,394.3z"/>
		<path class="st2" d="M-533.2,394.5c-0.9,0.3-1.9,0.5-2.9,0.7c0.9,1.8,1.7,4,2.2,6.4c1.7-0.2,3.4-0.5,4.9-0.8
			C-530,398.4-531.4,396.2-533.2,394.5z"/>
		<path class="st2" d="M-551.9,393.9c1.4-1.2,2.9-2.2,4.5-2.9c-2,0.5-3.8,1.4-5.5,2.5C-552.5,393.6-552.2,393.8-551.9,393.9z"/>
		<path class="st2" d="M-558,409.1h-2.9c0,2.8,0.7,5.4,1.8,7.7c0.8-0.2,1.5-0.4,2.4-0.5C-557.6,414.1-558,411.7-558,409.1z"/>
		<path class="st2" d="M-526.9,409.1c0,2.6-0.5,5-1.3,7.2c0.8,0.2,1.6,0.4,2.4,0.5c1.1-2.3,1.8-5,1.8-7.7H-526.9z"/>
		<path class="st2" d="M-526.9,408.5h2.9c0-2.8-0.7-5.4-1.8-7.8c-0.8,0.2-1.5,0.4-2.4,0.5C-527.4,403.5-526.9,406-526.9,408.5z"/>
		<path class="st2" d="M-532.6,423.3c0.4,0.1,0.7,0.3,1,0.4c2.3-1.7,4.2-3.9,5.5-6.4c-0.7-0.2-1.5-0.4-2.3-0.5
			C-529.4,419.4-530.8,421.6-532.6,423.3z"/>
		<path class="st2" d="M-558,408.5c0-2.6,0.5-5,1.3-7.2c-0.8-0.2-1.6-0.4-2.4-0.5c-1.1,2.4-1.8,5-1.8,7.8H-558z"/>
		<path class="st2" d="M-551.1,415.4c-0.4-2-0.6-4.1-0.6-6.3h-5.7c0,2.5,0.5,4.9,1.3,7.1C-554.6,415.9-552.9,415.6-551.1,415.4z"/>
		<path class="st2" d="M-553.4,423.7c0.3-0.1,0.7-0.3,1-0.4c-1.8-1.8-3.2-4-4.2-6.5c-0.8,0.2-1.6,0.3-2.3,0.5
			C-557.5,419.9-555.7,422.1-553.4,423.7z"/>
		<path class="st2" d="M-551.7,423.1c0.9-0.3,1.9-0.5,2.9-0.7c-0.9-1.8-1.7-4-2.2-6.4c-1.7,0.2-3.4,0.5-5,0.8
			C-555,419.2-553.5,421.4-551.7,423.1z"/>
		<path class="st2" d="M-551.7,408.5c0-2.2,0.2-4.3,0.6-6.3c-1.8-0.2-3.4-0.5-5-0.8c-0.8,2.2-1.3,4.6-1.3,7.1H-551.7z"/>
		<path class="st2" d="M-533.2,409.1c0,2.2-0.2,4.3-0.6,6.3c1.8,0.2,3.4,0.5,5,0.8c0.8-2.2,1.3-4.6,1.3-7.1H-533.2z"/>
		<path class="st2" d="M-533.1,423.8c-1.4,1.3-2.9,2.2-4.6,2.9c2-0.5,3.9-1.4,5.5-2.5C-532.4,424-532.7,423.9-533.1,423.8z"/>
		<path class="st2" d="M-551.9,423.8c-0.3,0.1-0.6,0.2-1,0.3c1.7,1.1,3.5,2,5.5,2.5C-549,426-550.5,425-551.9,423.8z"/>
		<path class="st2" d="M-539.6,426.7c2.2-0.5,4.2-1.6,5.9-3.1c-0.8-0.3-1.7-0.5-2.7-0.7C-537.3,424.6-538.4,425.9-539.6,426.7z"/>
	</g>
</g>
<path class="st3" d="M-560.7,417.2c0,0.4-0.3,0.8-0.7,0.8l-7.5,0.6c-0.4,0-0.8-0.3-0.8-0.7l-1.3-14.5c0-0.4,0.3-0.8,0.7-0.8l7.5-0.6
	c0.4,0,0.8,0.3,0.8,0.7L-560.7,417.2z M-524.9,417.2c0,0.4,0.3,0.8,0.7,0.8l7.5,0.6c0.4,0,0.8-0.3,0.8-0.7l1.3-14.5
	c0-0.4-0.3-0.8-0.7-0.8l-7.5-0.6c-0.4,0-0.8,0.3-0.8,0.7L-524.9,417.2z M-534.2,426.2c0,0.4-0.3,0.8-0.8,0.8h-3.6
	c-0.4,0-0.8-0.3-0.8-0.8v-2.3c0-0.4,0.3-0.8,0.8-0.8h3.6c0.4,0,0.8,0.3,0.8,0.8V426.2L-534.2,426.2z"/>
</svg>
