<?xml version="1.0" encoding="utf-8"?>
<!-- Generator: Adobe Illustrator 19.1.0, SVG Export Plug-In . SVG Version: 6.00 Build 0)  -->
<svg version="1.1" id="レイヤー_1" xmlns="http://www.w3.org/2000/svg" xmlns:xlink="http://www.w3.org/1999/xlink" x="0px"
	 y="0px" viewBox="-553.7 349.1 103 104.3" style="enable-background:new -553.7 349.1 103 104.3;" xml:space="preserve">
<style type="text/css">
	.st0{fill:#E2E3E4;}
	.st1{fill:#959595;}
	.st2{fill:#FF6800;}
	.st3{fill:#FFA466;}
	.st4{fill:#3C3C3B;}
	.st5{fill:#00B3FF;}
</style>
<g>
	<g>
		<path class="st0" d="M-502.2,387.5v4.4l0,0c8,0,14.4,6.5,14.4,14.4v12.8h4.4v-12.9C-483.4,395.9-491.8,387.5-502.2,387.5z"/>
	</g>
	<g>
		<path class="st1" d="M-502.2,391.9L-502.2,391.9v4c5.7,0,10.4,4.7,10.4,10.4v12.9h4v-12.8C-487.8,398.4-494.2,391.9-502.2,391.9z"
			/>
	</g>
	<g>
		<g>
			<rect x="-502.2" y="419.1" class="st2" width="22.4" height="34.3"/>
		</g>
		<g>
			<rect x="-524.6" y="419.1" class="st3" width="22.4" height="34.3"/>
		</g>
	</g>
	<g>
		<path class="st4" d="M-496.9,433.6c0-2.9-2.4-5.3-5.3-5.3c-2.9,0-5.3,2.4-5.3,5.3c0,2,1.1,3.7,2.7,4.6v4.3c0,1.5,1.2,2.6,2.6,2.6
			c1.5,0,2.6-1.2,2.6-2.6v-4.3C-497.9,437.3-496.9,435.6-496.9,433.6z"/>
	</g>
	<g>
		<path class="st5" d="M-470,372.1h-0.7l0,0c0-12.7-10.3-23-23-23c-7.7,0-14.6,3.8-18.8,9.7c-2.5-2.1-5.7-3.3-9.2-3.3
			c-7.8,0-14.2,6.4-14.2,14.2c0,0.8,0.1,1.7,0.2,2.5c-10.1,0.6-18.1,9-18.1,19.3c0,10.7,8.6,19.3,19.3,19.3h64.4
			c10.7,0,19.3-8.6,19.3-19.3C-450.7,380.7-459.3,372.1-470,372.1z"/>
	</g>
	<g>
		<path class="st0" d="M-502.2,391.9v-4.4c-10.4,0-18.8,8.4-18.8,18.8v12.9h4.4v-12.8C-516.6,398.4-510.1,391.9-502.2,391.9z"/>
	</g>
	<g>
		<path class="st1" d="M-516.6,406.3v12.8h4v-12.9c0-5.7,4.7-10.4,10.4-10.4v-4C-510.1,391.9-516.6,398.4-516.6,406.3z"/>
	</g>
</g>
</svg>
