<svg id="レイヤー_1" xmlns="http://www.w3.org/2000/svg" viewBox="-263 217 363 128"><style>.st0{fill:#fff}.st1{fill:none;stroke:#fff;stroke-width:2;stroke-miterlimit:10}</style><path class="st0" d="M-127 325.9l-24.4 5.5 7.6-15.5"/><path class="st0" d="M-111.6 258.1c-20.9 0-37.8 16.9-37.8 37.8s16.9 37.8 37.8 37.8 37.8-16.9 37.8-37.8c.1-20.9-16.9-37.8-37.8-37.8zm2.6 42.8v-7.7h21.6v26.3c-8.8.5-14.7.7-17.8.7-12 0-20.3-2.5-24.9-7.6-4.7-5.1-7-11-7-17.8 0-4.7 1.1-8.9 3.2-12.8 2.2-3.9 5.3-6.9 9.4-9 4.1-2.1 8.9-3.2 14.5-3.2 3.9 0 8 .6 12.2 1.7 4.2 1.1 8 2.7 11.5 4.8L-96.7 291c-4.4-2.1-8.4-3.1-12.1-3.1-2.5 0-4.4.6-5.9 1.9-1.5 1.3-2.2 3-2.2 5 .1 4.1 2.7 6.1 7.9 6.1zm76.2-30.9v14c-3.2-1.6-6.2-2.3-9-2.3-1.6 0-2.8.3-3.7.8-.9.5-1.3 1.2-1.3 2.1 0 2 1.9 3.1 5.7 3.1 3.2 0 6-.6 8.2-1.7v13.8c-3.2.9-6.6 1.4-10.2 1.4-6.4 0-11.3-1.5-14.8-4.6-3.5-3.1-5.2-7-5.2-11.7 0-4.7 1.7-8.7 5-11.9 3.3-3.2 7.8-4.8 13.4-4.8 3.9-.1 7.9.5 11.9 1.8zm22.1-9.8v12.7c2.5-2.9 5.7-4.4 9.7-4.4 3.6 0 6.5 1.1 8.6 3.2s3.1 5.1 3.1 8.8v20.1H-4.8v-18.4c0-2.7-1-4-3.1-4-.9 0-1.9.4-2.8 1.2v21.2h-16.4v-40.4h16.4zM17 281.9v-9.6c4.6-2.5 9.9-3.8 15.7-3.8 5.6 0 9.7 1.2 12.3 3.6 2.6 2.4 4 6 4 10.9v17.6H32.6v-2.4c-2.4 1.8-5.1 2.6-8 2.6-2.4 0-4.5-.8-6.1-2.4-1.6-1.6-2.4-3.6-2.4-6 0-2.7 1-5 3-6.7 2-1.7 4.6-2.6 7.9-2.6 1.9 0 3.8.2 5.6.7 0-1.5-.6-2.6-1.7-3.5-1.1-.8-2.7-1.2-4.8-1.2-2.9.2-6 1.1-9.1 2.8zm15.6 11.7v-4.4c-1-.3-1.9-.5-2.7-.5-1 0-1.8.3-2.4.8-.6.5-.9 1.2-.9 2 0 .9.3 1.6 1 2.2.6.6 1.5.9 2.4.9 1.1-.1 1.9-.4 2.6-1zm48.1-24.8v9h-6.8v6.8c0 2.3 1 3.5 3.1 3.5 1.5 0 2.8-.8 3.9-2.3v12.6c-2.6 1.7-5.7 2.5-9.4 2.5-3.9 0-7.3-1.2-9.9-3.5-2.7-2.3-4-5.6-4-9.7v-10h-6.7l23-18.1v9.1h6.8z"/><path class="st0" d="M-113.1 255.1s25.1.7 35.4 17.8c0-.1-4.3-23.2-35.4-17.8z"/><path class="st0" d="M-95.5 252.1s17 3.7 21 19c0 0 1.2-19.6-21-19zm-89.1 63.4l30.3 7-9.3-19.3m-35.1-76.9c-26 0-47 21-47 47s21 47 47 47 47-21 47-47-21-47-47-47zm25.7 32.8h-23.5v7.5h16.4v15.2h-16.4v7.5h23.5v15.2h-50.4v-60.7h50.4v15.3z"/><path class="st0" d="M-215.7 225.6s-34 10.9-32.3 45.5c.1 0-9.2-40.9 32.3-45.5z"/><circle class="st0" cx="-55.2" cy="261.6" r="4.9"/><circle class="st0" cx="-38" cy="261.6" r="4.9"/><path class="st0" d="M-59.9 311.6h7.2v2h-4.6v2.7h3.6v2h-3.6v2.9h4.6v2.1h-7.2v-11.7z"/><path class="st0" d="M-52.7 314.7h2.6l.9 2 1.1-2h2.1l-2.3 3.9 2.6 4.9h-2.6l-1.3-2.6-1.5 2.6H-53l2.6-4.5-2.3-4.3zm7.7 0h2.2v1.3c.5-.9 1.1-1.4 2-1.4.8 0 1.5.4 2 1.1.5.7.8 1.8.8 3.3 0 1.5-.3 2.7-.8 3.5-.5.8-1.2 1.2-2.2 1.2-.7 0-1.2-.3-1.7-.8v3.6H-45v-11.8zm2.4 5.1c0 .8.1 1.4.2 1.6.1.3.4.4.8.4s.6-.2.8-.5c.2-.3.3-1.1.3-2.4 0-1.1-.1-1.8-.2-2.2-.2-.4-.4-.6-.8-.6-.3 0-.6.1-.8.4-.2.2-.3.8-.3 1.7v1.6zm6-5.1h2.1v2.1c.4-1.5 1.1-2.2 2.1-2.2h.4v2.4h-.4c-1.2 0-1.8.9-1.8 2.7v3.8h-2.4v-8.8zm12.2 4.7H-29v.5c0 .8.1 1.3.3 1.6.2.3.5.4.8.4.7 0 1.2-.5 1.3-1.5l2.2.1c-.4 2-1.5 3-3.5 3-1.2 0-2.1-.4-2.7-1.2-.6-.8-.9-1.9-.9-3.2 0-1.5.3-2.7 1-3.5.7-.8 1.5-1.2 2.6-1.2 1 0 1.8.4 2.5 1.1.6.7 1 2 1 3.9zm-2.3-1.4v-.2c0-1.1-.4-1.7-1.1-1.7-.7 0-1.1.6-1.1 1.9h2.2zm9.5-1.2l-1.7.5c-.2-.8-.7-1.2-1.3-1.2-.5 0-.8.3-.8.8 0 .3.1.5.3.7.2.2.6.3 1.2.5.7.2 1.2.4 1.5.6.3.2.6.4.8.8.2.4.3.8.3 1.2 0 .8-.3 1.5-.9 2-.6.5-1.4.8-2.4.8-2 0-3.1-.9-3.3-2.6l1.9-.3c.2.9.6 1.3 1.4 1.3.6 0 1-.3 1-.8 0-.3-.1-.5-.3-.7-.2-.1-.6-.3-1.1-.5-1-.3-1.7-.7-2.1-1.2-.4-.5-.6-1-.6-1.6 0-.8.3-1.5.9-2 .6-.5 1.3-.8 2.2-.8 1.6.2 2.5.9 3 2.5zm7.2 0l-1.7.5c-.2-.8-.7-1.2-1.3-1.2-.5 0-.8.3-.8.8 0 .3.1.5.3.7.2.2.6.3 1.2.5.7.2 1.2.4 1.5.6.3.2.6.4.8.8.2.4.3.8.3 1.2 0 .8-.3 1.5-.9 2-.6.5-1.4.8-2.4.8-2 0-3.1-.9-3.3-2.6l1.9-.3c.2.9.6 1.3 1.4 1.3.6 0 1-.3 1-.8 0-.3-.1-.5-.3-.7-.2-.1-.6-.3-1.1-.5-1-.3-1.7-.7-2.1-1.2-.4-.5-.6-1-.6-1.6 0-.8.3-1.5.9-2 .6-.5 1.3-.8 2.2-.8 1.6.2 2.6.9 3 2.5zm3.9-2.9h-2.5v-2.4h2.5v2.4zm-2.4.8h2.4v8.7h-2.4v-8.7zm3.1 0H-3l1.2 5.2 1.2-5.2h2l-2.4 8.7h-1.9l-2.5-8.7zm14.2 4.7H4.2v.5c0 .8.1 1.3.3 1.6.2.3.5.4.8.4.7 0 1.2-.5 1.3-1.5l2.2.1c-.4 2-1.5 3-3.5 3-1.2 0-2.1-.4-2.7-1.2-.6-.8-.9-1.9-.9-3.2 0-1.5.3-2.7 1-3.5.7-.8 1.5-1.2 2.6-1.2 1 0 1.8.4 2.5 1.1.6.7 1 2 1 3.9zM6.5 318v-.2c0-1.1-.4-1.7-1.1-1.7-.7 0-1.1.6-1.1 1.9h2.2zm11.4-.9H22v6.3h-1.1l-.3-1.4c-.6 1-1.6 1.5-2.9 1.5-1.3 0-2.4-.5-3.2-1.6-.8-1.1-1.2-2.5-1.2-4.3 0-1.9.4-3.5 1.2-4.6.8-1.1 1.9-1.7 3.4-1.7 2.4 0 3.8 1.3 4.1 4l-2.3.4c-.2-1.5-.7-2.3-1.7-2.3-.6 0-1 .3-1.4.9-.3.6-.5 1.7-.5 3.2 0 1.4.2 2.4.5 3 .3.6.8.9 1.5.9 1.1 0 1.6-.8 1.6-2.3h-1.8v-2zm12.6 1.9c0 3-1.2 4.6-3.5 4.6-2.4 0-3.6-1.5-3.6-4.6 0-3 1.2-4.5 3.6-4.5 2.3 0 3.5 1.5 3.5 4.5zm-2.5 0c0-1.1-.1-1.9-.2-2.3-.2-.4-.4-.6-.8-.6s-.6.2-.8.6c-.2.4-.2 1.1-.2 2.3 0 1.1.1 1.8.2 2.2.1.4.4.6.8.6s.7-.2.8-.6c.1-.4.2-1.1.2-2.2zm10.6 0c0 3-1.2 4.6-3.5 4.6-2.4 0-3.6-1.5-3.6-4.6 0-3 1.2-4.5 3.6-4.5 2.4 0 3.5 1.5 3.5 4.5zm-2.5 0c0-1.1-.1-1.9-.2-2.3-.2-.4-.4-.6-.8-.6s-.6.2-.8.6c-.2.4-.2 1.1-.2 2.3 0 1.1.1 1.8.2 2.2.1.4.4.6.8.6s.7-.2.8-.6c.2-.4.2-1.1.2-2.2zm8.3-7.4h2.4v11.8h-2.3V322c-.4 1-1 1.6-2 1.6-.9 0-1.6-.4-2.1-1.2-.5-.8-.7-1.9-.7-3.2 0-1.5.3-2.7.8-3.4.5-.8 1.2-1.1 2.1-1.1.8 0 1.4.3 1.7.9v-4zm0 6.7c0-.9-.1-1.4-.3-1.7-.2-.3-.4-.4-.8-.4s-.7.2-.8.6c-.1.4-.2 1.2-.2 2.5 0 .9.1 1.6.2 2 .2.4.4.6.8.6.3 0 .6-.1.8-.4.2-.3.3-.8.3-1.6v-1.6zm14-.4l-2.3.1c0-.5-.1-.9-.3-1.2-.1-.3-.4-.4-.7-.4-.8 0-1.2.9-1.2 2.6 0 1 .1 1.7.3 2.1.2.4.5.6.9.6.6 0 .9-.5 1-1.6l2.3.1c-.2 2.3-1.3 3.4-3.4 3.4-1.1 0-2-.4-2.6-1.1-.6-.8-.9-1.9-.9-3.4s.3-2.6.9-3.4c.6-.8 1.5-1.2 2.6-1.2 2.1 0 3.2 1.1 3.4 3.4zm1.3-6.3h2.4v4c.4-.7 1.2-1.1 2.1-1.1.6 0 1.1.1 1.4.4.3.3.6.6.7 1.1.1.4.1 1 .1 1.8v5.6H64v-5.6c0-.6-.1-1-.2-1.1-.1-.2-.3-.3-.7-.3-.3 0-.6.1-.8.3-.2.2-.3.6-.3 1.2v5.5h-2.4v-11.8zm10.8 5.8l-2.3-.2c.1-.9.5-1.6 1.1-2 .6-.5 1.4-.7 2.4-.7.8 0 1.5.2 2 .5s.8.7.9 1.1c.1.4.2 1.1.2 1.9v3.5c0 1.1 0 1.7.1 1.9h-2.3c-.1-.2-.1-.7-.1-1.3-.5 1-1.3 1.5-2.4 1.5-.7 0-1.2-.2-1.7-.6-.4-.4-.6-1-.6-1.8 0-1 .3-1.7 1-2.3.6-.5 1.8-.9 3.5-1v-.3c0-.6-.1-1-.2-1.2-.1-.2-.3-.3-.7-.3-.5 0-.9.4-.9 1.3zm1.9 1.8c-.7.1-1.2.2-1.5.5-.3.2-.5.6-.5 1.2 0 .7.3 1.1.8 1.1.3 0 .6-.2.8-.5.2-.3.4-.9.4-1.8v-.5zM77 312l2.4-.1v2.8H81v1.9h-1.6v4.4c0 .2.1.3.3.4.1.1.4.2.7.2h.7v1.9c-.5.1-1 .2-1.5.2-.7 0-1.3-.1-1.7-.4-.4-.3-.6-.6-.8-1.1-.1-.4-.2-1.1-.2-2v-3.5h-1v-1.9h1V312z"/><path class="st1" d="M-68 307.5H88m-156 21H88"/></svg>