<?xml version="1.0" encoding="utf-8"?>
<!-- Generator: Adobe Illustrator 19.1.0, SVG Export Plug-In . SVG Version: 6.00 Build 0)  -->
<svg version="1.1" id="レイヤー_1" xmlns="http://www.w3.org/2000/svg" xmlns:xlink="http://www.w3.org/1999/xlink" x="0px"
	 y="0px" viewBox="-561 327 202.5 157" style="enable-background:new -561 327 202.5 157;" xml:space="preserve">
<style type="text/css">
	.st0{fill:url(#SVGID_1_);}
	.st1{fill:url(#SVGID_2_);}
	.st2{fill:url(#SVGID_3_);}
	.st3{fill:url(#SVGID_4_);}
	.st4{fill:url(#SVGID_5_);}
	.st5{fill:url(#SVGID_6_);}
	.st6{fill:url(#SVGID_7_);}
	.st7{fill:url(#SVGID_8_);}
	.st8{fill:url(#SVGID_9_);}
	.st9{fill:none;}
	.st10{fill-rule:evenodd;clip-rule:evenodd;fill:#E4ECF2;enable-background:new    ;}
	.st11{fill-rule:evenodd;clip-rule:evenodd;fill:#51ACB0;enable-background:new    ;}
	.st12{fill-rule:evenodd;clip-rule:evenodd;fill:#91B820;}
	.st13{fill-rule:evenodd;clip-rule:evenodd;fill:#0083A2;enable-background:new    ;}
	.st14{opacity:0.2;fill-rule:evenodd;clip-rule:evenodd;fill:#FFFFFF;enable-background:new    ;}
	.st15{fill-rule:evenodd;clip-rule:evenodd;fill:#B5BFC4;}
	.st16{opacity:0.5;fill-rule:evenodd;clip-rule:evenodd;fill:#B5BFC4;}
	.st17{fill:#4FA0C4;enable-background:new    ;}
	.st18{fill:#FFFFFF;}
	.st19{fill:#91B820;}
	.st20{fill:#032B5C;enable-background:new    ;}
	.st21{enable-background:new    ;}
	.st22{fill:#032B5C;}
</style>
<linearGradient id="SVGID_1_" gradientUnits="userSpaceOnUse" x1="-497.354" y1="328.9813" x2="-439.069" y2="328.9813" gradientTransform="matrix(1 0 0 -1 0 802)">
	<stop  offset="6.000000e-03" style="stop-color:#58595B"/>
	<stop  offset="0.276" style="stop-color:#737578"/>
	<stop  offset="0.509" style="stop-color:#86888C"/>
	<stop  offset="1" style="stop-color:#58595B"/>
</linearGradient>
<path class="st0" d="M-497,472v1.2c0,1.1,1.2,0.8,5.7,0.8h44.6c4.5,0,6.1,0,6.1-2h0.6H-497z"/>
<linearGradient id="SVGID_2_" gradientUnits="userSpaceOnUse" x1="-469.36" y1="350.5" x2="-469.36" y2="324.984" gradientTransform="matrix(1 0 0 -1 0 802)">
	<stop  offset="8.500000e-02" style="stop-color:#6C6F73"/>
	<stop  offset="0.127" style="stop-color:#96989C"/>
	<stop  offset="0.184" style="stop-color:#CBCBCE"/>
	<stop  offset="0.212" style="stop-color:#DFDFE1"/>
	<stop  offset="0.315" style="stop-color:#A6A8AB"/>
	<stop  offset="0.39" style="stop-color:#858688"/>
	<stop  offset="0.461" style="stop-color:#636363"/>
	<stop  offset="0.528" style="stop-color:#6E6F6F"/>
	<stop  offset="0.649" style="stop-color:#8B8E8F"/>
	<stop  offset="0.739" style="stop-color:#A5A9AB"/>
</linearGradient>
<path class="st1" d="M-446.4,466.2c-4-4.1-4.2-13.2-4.2-13.2h-37.5c0,0-0.2,9.1-4.2,13.2c-4,4.1-10.3,7.8,0.6,7.8h44.6
	C-436.1,474-442.4,470.3-446.4,466.2z"/>
<radialGradient id="SVGID_3_" cx="-441.605" cy="318.492" r="20.841" gradientTransform="matrix(1 0 0 -1 0 802)" gradientUnits="userSpaceOnUse">
	<stop  offset="0" style="stop-color:#FFFFFF"/>
	<stop  offset="1" style="stop-color:#FFFFFF;stop-opacity:0"/>
</radialGradient>
<path class="st2" d="M-465.7,474c2.2-5,9.4-8.8,18.2-9.6c0.4,0.7,0.9,1.2,1.4,1.8c4,4,10.1,7.9,0,7.9L-465.7,474L-465.7,474z"/>
<radialGradient id="SVGID_4_" cx="-898.653" cy="318.492" r="20.841" gradientTransform="matrix(-1 0 0 -1 -1395.074 802)" gradientUnits="userSpaceOnUse">
	<stop  offset="0" style="stop-color:#FFFFFF"/>
	<stop  offset="1" style="stop-color:#FFFFFF;stop-opacity:0"/>
</radialGradient>
<path class="st3" d="M-472.3,474c-2.2-5-9.4-8.8-18.2-9.6c-0.4,0.7-0.9,1.2-1.4,1.8c-4,4-10.1,7.9,0,7.9L-472.3,474L-472.3,474z"/>
<linearGradient id="SVGID_5_" gradientUnits="userSpaceOnUse" x1="-491.9" y1="327.6" x2="-446.7" y2="327.6" gradientTransform="matrix(1 0 0 -1 0 802)">
	<stop  offset="6.000000e-03" style="stop-color:#FFFFFF;stop-opacity:0"/>
	<stop  offset="0.509" style="stop-color:#FFFFFF"/>
	<stop  offset="1" style="stop-color:#FFFFFF;stop-opacity:0"/>
</linearGradient>
<path class="st4" d="M-491.9,474.4c3.8-0.1,7.5-0.1,11.3-0.1h28.3l5.6,0.1l-5.6,0.1h-28.3C-484.4,474.5-488.1,474.5-491.9,474.4z"/>
<linearGradient id="SVGID_6_" gradientUnits="userSpaceOnUse" x1="-564.226" y1="350.466" x2="-365.287" y2="363.506" gradientTransform="matrix(1 0 0 -1 0 802)">
	<stop  offset="0" style="stop-color:#78787C"/>
	<stop  offset="0.301" style="stop-color:#737478"/>
	<stop  offset="0.491" style="stop-color:#6C6F73"/>
	<stop  offset="1" style="stop-color:#6C6F73"/>
</linearGradient>
<path class="st5" d="M-561,448.3c0,3,2,4.7,5.1,4.7h172.3c3,0,5.6-1.7,5.6-4.7V438h-183V448.3z"/>
<radialGradient id="SVGID_7_" cx="-469.5" cy="419.5" r="75.672" gradientTransform="matrix(1 0 0 -1 0 802)" gradientUnits="userSpaceOnUse">
	<stop  offset="0" style="stop-color:#040000"/>
	<stop  offset="0.557" style="stop-color:#000000"/>
	<stop  offset="1" style="stop-color:#404040"/>
</radialGradient>
<path class="st6" d="M-383.6,327h-172.3c-3,0-5.1,3.2-5.1,6.2V438h183V333.2C-378,330.2-380.6,327-383.6,327z M-386,430h-168v-95
	h168V430z"/>
<linearGradient id="SVGID_8_" gradientUnits="userSpaceOnUse" x1="-564.186" y1="350.4709" x2="-365.29" y2="363.5079" gradientTransform="matrix(1 0 0 -1 0 802)">
	<stop  offset="0" style="stop-color:#87888D"/>
	<stop  offset="5.000000e-02" style="stop-color:#8E8F94"/>
	<stop  offset="0.314" style="stop-color:#AFB0B4"/>
	<stop  offset="0.566" style="stop-color:#C7C8CB"/>
	<stop  offset="0.801" style="stop-color:#D5D6D9"/>
	<stop  offset="1" style="stop-color:#DADBDE"/>
</linearGradient>
<path class="st7" d="M-561,447.7c0,3,2,5.3,5.1,5.3h172.3c3,0,5.6-2.3,5.6-5.3V438h-183V447.7z"/>
<radialGradient id="SVGID_9_" cx="-466.979" cy="417.4879" r="129.428" gradientTransform="matrix(1 0 0 -1.0105 0 805.9034)" gradientUnits="userSpaceOnUse">
	<stop  offset="0.229" style="stop-color:#E6E6E5"/>
	<stop  offset="0.423" style="stop-color:#DEDEDE"/>
	<stop  offset="0.559" style="stop-color:#C8C8C8"/>
	<stop  offset="0.657" style="stop-color:#C3C3C3"/>
	<stop  offset="0.817" style="stop-color:#808080"/>
	<stop  offset="0.825" style="stop-color:#777777"/>
	<stop  offset="0.864" style="stop-color:#4C4C4C"/>
	<stop  offset="0.902" style="stop-color:#2B2B2B"/>
	<stop  offset="0.938" style="stop-color:#131313"/>
	<stop  offset="0.972" style="stop-color:#050505"/>
	<stop  offset="1" style="stop-color:#000000"/>
</radialGradient>
<path class="st8" d="M-385.7,429.6c0,0.2-0.1,0.3-0.3,0.3h-167.7c-0.2,0-0.3-0.1-0.3-0.3v-94.7c0-0.2,0.1-0.3,0.3-0.3H-386
	c0.2,0,0.3,0.1,0.3,0.3V429.6z"/>
<g id="XMLID_12891_">
	<g id="XMLID_12499_">
		<path class="st9" d="M-470.1,420"/>
	</g>
	<g id="XMLID_12498_">
		<path class="st9" d="M-470.1,411.8"/>
	</g>
	<g id="XMLID_12497_">
		<path class="st9" d="M-456.5,406.7"/>
	</g>
	<g id="XMLID_12496_">
		<path class="st9" d="M-459.4,416"/>
	</g>
	<g id="XMLID_12495_">
		<path class="st9" d="M-461.7,411.3"/>
	</g>
	<g id="XMLID_12494_">
		<path class="st9" d="M-481.7,416"/>
	</g>
	<g id="XMLID_12493_">
		<path class="st9" d="M-479.3,411.3"/>
	</g>
</g>
<rect id="XMLID_12488_" x="-553.5" y="334" class="st10" width="168.3" height="96.7"/>
<rect id="XMLID_12402_" x="-544.6" y="351" class="st11" width="47.1" height="21.7"/>
<rect id="XMLID_12401_" x="-493.3" y="351" class="st12" width="47.1" height="21.7"/>
<rect id="XMLID_12400_" x="-441.6" y="351.5" class="st13" width="47.1" height="21.7"/>
<rect id="XMLID_12399_" x="-544.2" y="343.1" class="st11" width="47.1" height="2.9"/>
<rect id="XMLID_12398_" x="-492.9" y="343.1" class="st12" width="47.1" height="2.9"/>
<rect id="XMLID_12397_" x="-441.2" y="343.2" class="st13" width="47.1" height="2.9"/>
<polygon id="XMLID_12396_" class="st14" points="-553.7,429.6 -553.7,333.6 -385,333.6 "/>
<rect id="XMLID_12395_" x="-544.2" y="378.7" class="st15" width="38.8" height="3.8"/>
<rect id="XMLID_12394_" x="-544.2" y="385.2" class="st15" width="47.1" height="2.9"/>
<rect id="XMLID_12393_" x="-544.2" y="390" class="st15" width="47.1" height="2.9"/>
<rect id="XMLID_12392_" x="-544.2" y="394.8" class="st15" width="47.1" height="2.9"/>
<g id="XMLID_12610_">
	<rect id="XMLID_12391_" x="-492.7" y="378.7" class="st15" width="38.8" height="3.8"/>
	<rect id="XMLID_12390_" x="-492.7" y="385.2" class="st15" width="47.1" height="2.9"/>
	<rect id="XMLID_12389_" x="-492.7" y="390" class="st15" width="47.1" height="2.9"/>
	<rect id="XMLID_12388_" x="-492.7" y="394.8" class="st15" width="47.1" height="2.9"/>
</g>
<g id="XMLID_12605_">
	<rect id="XMLID_12387_" x="-441.1" y="378.7" class="st15" width="38.8" height="3.8"/>
	<rect id="XMLID_12386_" x="-441.1" y="385.2" class="st15" width="47.1" height="2.9"/>
	<rect id="XMLID_12385_" x="-441.1" y="390" class="st15" width="47.1" height="2.9"/>
	<rect id="XMLID_12384_" x="-441.1" y="394.8" class="st15" width="47.1" height="2.9"/>
</g>
<rect id="XMLID_12383_" x="-544.1" y="405.9" class="st12" width="46.6" height="3.4"/>
<rect id="XMLID_12382_" x="-544.1" y="411.8" class="st16" width="148.5" height="2.6"/>
<rect id="XMLID_12381_" x="-544.1" y="416.2" class="st16" width="148.5" height="2.6"/>
<rect id="XMLID_12380_" x="-544.1" y="420.4" class="st16" width="148.5" height="2.6"/>
<ellipse id="XMLID_12379_" class="st17" cx="-401.7" cy="378.7" rx="16.2" ry="16.6"/>
<path id="XMLID_12597_" class="st18" d="M-401.8,357.8c4.3,0,8.6,1.4,12.3,4.2c9,6.9,10.9,19.9,4.1,29.1c-4,5.4-10.1,8.3-16.4,8.3
	v-3.9c5,0,10-2.3,13.3-6.7l0,0c5.5-7.5,4-18-3.3-23.7c-3-2.3-6.5-3.4-10-3.4V357.8z M-418.2,366.1c4-5.4,10.1-8.3,16.4-8.3v3.9
	c-5,0-10,2.3-13.3,6.7c-5.5,7.5-4,18.1,3.3,23.7c3,2.3,6.5,3.4,10,3.4v3.9c-4.3,0-8.6-1.4-12.3-4.2
	C-423.1,388.2-424.9,375.2-418.2,366.1z"/>
<polygon id="XMLID_12376_" class="st18" points="-373,404 -369.7,399.6 -385.6,387.4 -388.9,391.9 "/>
<path id="XMLID_12375_" class="st18" d="M-366.3,411.2c2,1.5,4.7,1.1,6.2-0.9c1.5-2,1.1-4.8-0.9-6.3l-15-11.5
	c-2-1.5-4.7-1.1-6.2,0.9c-1.5,2-1.1,4.8,0.9,6.3L-366.3,411.2z"/>
<g id="XMLID_12592_">
	<polygon id="XMLID_12374_" class="st19" points="-373,404 -369.7,399.6 -379.8,391.8 -383.1,396.3 	"/>
	<path id="XMLID_12373_" class="st19" d="M-366.3,411.2c2,1.5,4.7,1.1,6.2-0.9c1.5-2,1.1-4.8-0.9-6.3l-15-11.5
		c-1.1-0.9-2.5-1.1-3.8-0.8l-3.3,4.5c0,1.3,0.6,2.6,1.8,3.5L-366.3,411.2z"/>
</g>
<polygon id="XMLID_12372_" class="st20" points="-482.2,371.2 -515.8,380.2 -510.6,387.9 -520.1,394.5 -516.6,399.7 -507.1,393 
	-501.9,400.7 "/>
<g id="XMLID_12588_" class="st21">
	<path id="XMLID_12371_" class="st22" d="M-484.3,361.8l0.6,1.2c3.4,0.2,6.6,2.1,8.3,5.4c1.7,3.3,1.4,7.1-0.4,10l0.6,1.2
		c2.3-3.3,2.8-7.8,0.9-11.7S-480.3,361.7-484.3,361.8z"/>
	<path id="XMLID_12370_" class="st22" d="M-480.8,356l0.8,1.6c4.6,0.2,8.9,2.8,11.2,7.3c2.2,4.4,1.8,9.5-0.6,13.5l0.8,1.6
		c3.2-4.5,3.8-10.5,1.2-15.7C-470.1,358.9-475.4,356-480.8,356z"/>
</g>
</svg>
