<?xml version="1.0" encoding="utf-8"?>
<!-- Generator: Adobe Illustrator 19.1.0, SVG Export Plug-In . SVG Version: 6.00 Build 0)  -->
<svg version="1.1" id="_x32_" xmlns="http://www.w3.org/2000/svg" xmlns:xlink="http://www.w3.org/1999/xlink" x="0px" y="0px"
	 viewBox="206 -206 100 100" style="enable-background:new 206 -206 100 100;" xml:space="preserve">
<style type="text/css">
	.st0{fill:#FEFEFE;}
</style>
<g>
	<path class="st0" d="M265.1-157.2c0,2.2-0.9,4.2-2.4,5.7c-1.5,1.5-3.5,2.3-5.7,2.3c-2.2,0-4.2-0.9-5.7-2.3
		c-1.5-1.5-2.4-3.4-2.4-5.7v-21.1h-6v21.1c0,3.8,1.6,7.3,4.1,9.9c1.9,1.9,4.3,3.2,6.9,3.8v15.8h6v-15.8c2.7-0.6,5.1-1.9,6.9-3.8
		c2.5-2.5,4.1-6,4.1-9.9v-21.1h-6V-157.2z"/>
	<path class="st0" d="M237.5-167.1c0.5-0.6,0.4-1.6-0.2-2.1c-0.6-0.5-1.6-0.4-2.1,0.2c-1.4,1.7-2.3,3.9-2.3,6.3c0,0.1,0,0.1,0,0.2
		c0,2.5,0.9,4.7,2.3,6.5c0.5,0.6,1.5,0.7,2.1,0.2c0.6-0.5,0.7-1.5,0.2-2.1c-1-1.3-1.7-2.9-1.7-4.6l0-0.1
		C235.9-164.3,236.5-165.9,237.5-167.1z"/>
	<path class="st0" d="M230.5-172.8c0.5-0.6,0.4-1.6-0.2-2.1c-0.6-0.5-1.6-0.4-2.1,0.2c-2.7,3.2-4.3,7.4-4.4,11.8c0,0.1,0,0.2,0,0.4
		c0,4.6,1.6,8.9,4.4,12.2c0.5,0.6,1.5,0.7,2.1,0.2c0.6-0.5,0.7-1.5,0.2-2.1c-2.3-2.8-3.7-6.4-3.7-10.3c0-0.1,0-0.2,0-0.3
		C226.8-166.6,228.2-170.1,230.5-172.8z"/>
	<path class="st0" d="M275.1-169.2c-0.6,0.5-0.7,1.5-0.2,2.1c1,1.3,1.7,2.9,1.7,4.6l0,0.1v0c0,1.7-0.7,3.3-1.7,4.5
		c-0.5,0.6-0.4,1.6,0.2,2.1c0.6,0.5,1.6,0.4,2.1-0.2c1.4-1.7,2.3-3.9,2.3-6.3v0v0c0-0.1,0-0.1,0-0.2c0-2.5-0.9-4.7-2.3-6.5
		C276.7-169.6,275.8-169.7,275.1-169.2z"/>
	<path class="st0" d="M284.3-174.7c-0.5-0.6-1.5-0.7-2.1-0.2c-0.6,0.5-0.7,1.5-0.2,2.1c2.3,2.8,3.7,6.4,3.7,10.3c0,0.1,0,0.2,0,0.3
		c-0.1,3.8-1.5,7.3-3.7,10c-0.5,0.6-0.4,1.6,0.2,2.1c0.6,0.5,1.6,0.4,2.1-0.2c2.7-3.2,4.3-7.4,4.4-11.8c0-0.1,0-0.2,0-0.4
		C288.7-167.1,287-171.4,284.3-174.7z"/>
</g>
<g>
	<path class="st0" d="M256-206c-27.6,0-50,22.3-50,49.6c0,9.9,2.9,19.3,8.4,27.5l-2.8,13.2c-0.6,2.9,0.4,6,2.8,7.9
		c1.5,1.2,3.4,1.9,5.2,1.9c1,0,2.1-0.2,3.1-0.6l12.1-4.9c6.6,3.1,13.9,4.7,21.2,4.7c27.6,0,50-22.3,50-49.6
		C306-183.7,283.6-206,256-206z M256-114.9c-7.6,0-14.7-2-20.8-5.5l-15.6,6.3l3.5-16.7c-5.6-7.1-8.9-16-8.9-25.6
		c0-22.9,18.7-41.5,41.8-41.5s41.8,18.6,41.8,41.5S279.1-114.9,256-114.9z"/>
</g>
</svg>
