<?xml version="1.0" encoding="utf-8"?>
<!-- Generator: Adobe Illustrator 19.1.0, SVG Export Plug-In . SVG Version: 6.00 Build 0)  -->
<svg version="1.1" id="_x32_" xmlns="http://www.w3.org/2000/svg" xmlns:xlink="http://www.w3.org/1999/xlink" x="0px" y="0px"
	 viewBox="206 -206 100 100.1" style="enable-background:new 206 -206 100 100.1;" xml:space="preserve">
<style type="text/css">
	.st0{fill:#FEFEFE;}
</style>
<g>
	<path class="st0" d="M256-206c-27.6,0-50,22.3-50,49.6c0,9.9,2.9,19.3,8.4,27.5l-2.8,13.2c-0.6,2.9,0.4,6,2.8,7.9
		c1.5,1.2,3.4,1.9,5.2,1.9c1,0,2.1-0.2,3.1-0.6l12.1-4.9c6.6,3.1,13.9,4.7,21.2,4.7c27.6,0,50-22.3,50-49.6
		C306-183.7,283.6-206,256-206z M256-114.9c-7.6,0-14.7-2-20.8-5.5l-15.6,6.3l3.5-16.7c-5.6-7.1-8.9-16-8.9-25.6
		c0-22.9,18.7-41.5,41.8-41.5s41.8,18.6,41.8,41.5S279.1-114.9,256-114.9z"/>
</g>
<g>
	<path class="st0" d="M260.2-169.4h-27.7c-1.5,0-2.7,1.2-2.7,2.7v21.5c0,1.5,1.2,2.7,2.7,2.7h27.7c1.5,0,2.7-1.2,2.7-2.7v-21.5
		C262.9-168.2,261.7-169.4,260.2-169.4z"/>
	<path class="st0" d="M283.5-164.7c-0.7-0.5-1.5-0.7-2.3-0.5l-13.2,3.2c-1.2,0.3-2.1,1.4-2.1,2.6v6.4c0,1.2,0.9,2.3,2.1,2.6
		l13.2,3.2c0.8,0.2,1.6,0,2.3-0.5c0.7-0.5,1-1.3,1-2.1v-12.8C284.5-163.4,284.1-164.2,283.5-164.7z"/>
</g>
</svg>
