<?xml version="1.0" encoding="utf-8"?>
<!-- Generator: Adobe Illustrator 19.1.0, SVG Export Plug-In . SVG Version: 6.00 Build 0)  -->
<svg version="1.1" id="_x32_" xmlns="http://www.w3.org/2000/svg" xmlns:xlink="http://www.w3.org/1999/xlink" x="0px" y="0px"
	 viewBox="206 -206 100 100" style="enable-background:new 206 -206 100 100;" xml:space="preserve">
<style type="text/css">
	.st0{fill:#FEFEFE;}
</style>
<g>
	<path class="st0" d="M273.4-152.5v-5c0-9.6-7.9-17.5-17.6-17.5s-17.6,7.8-17.6,17.5v5c0,9.6,7.9,17.5,17.6,17.5
		S273.4-142.9,273.4-152.5z"/>
	<path class="st0" d="M282.6-164.4c-3.1-11.9-13.9-20.6-26.8-20.7c-13,0-23.8,8.9-26.9,20.8c-1.5,0.6-2.6,2.1-2.6,3.9v10.6
		c0,2.3,1.9,4.2,4.3,4.2c2.4,0,4.3-1.9,4.3-4.2v-10.6c0-1.6-1-3-2.3-3.7c1.2-4,3.3-7.5,6.1-10.4c4.4-4.4,10.4-7.1,17.1-7.1
		c6.7,0,12.7,2.7,17.1,7.1c2.9,2.9,5.1,6.5,6.2,10.5c-1.2,0.7-2,2.1-2,3.6v10.6c0,1.7,1,3.1,2.4,3.8c-0.6,2.1-1.4,4.1-2.3,5.9
		c-0.9,1.7-2,3.2-3.2,4.4c-0.8-0.6-1.9-1-3-1c-2.8,0-5.1,2.2-5.1,5c0,2.8,2.3,5,5.1,5c2.8,0,5.1-2.2,5.1-5c0-0.6-0.1-1.2-0.3-1.7
		l0.3-0.2c2.8-2.8,5.1-7.1,6.4-12c1.9-0.4,3.3-2.1,3.3-4.1v-10.6C285.5-162.3,284.3-163.8,282.6-164.4z"/>
</g>
<g>
	<path class="st0" d="M256-206c-27.6,0-50,22.3-50,49.6c0,9.9,2.9,19.3,8.4,27.5l-2.8,13.2c-0.6,2.9,0.4,6,2.8,7.9
		c1.5,1.2,3.4,1.9,5.2,1.9c1,0,2.1-0.2,3.1-0.6l12.1-4.9c6.6,3.1,13.9,4.7,21.2,4.7c27.6,0,50-22.3,50-49.6
		C306-183.7,283.6-206,256-206z M256-114.9c-7.6,0-14.7-2-20.8-5.5l-15.6,6.3l3.5-16.7c-5.6-7.1-8.9-16-8.9-25.6
		c0-22.9,18.7-41.5,41.8-41.5s41.8,18.6,41.8,41.5S279.1-114.9,256-114.9z"/>
</g>
</svg>
