<?xml version="1.0" encoding="utf-8"?>
<!-- Generator: Adobe Illustrator 19.1.0, SVG Export Plug-In . SVG Version: 6.00 Build 0)  -->
<svg version="1.1" id="レイヤー_1" xmlns="http://www.w3.org/2000/svg" xmlns:xlink="http://www.w3.org/1999/xlink" x="0px"
	 y="0px" viewBox="-547 334.6 104.6 133.4" style="enable-background:new -547 334.6 104.6 133.4;" xml:space="preserve">
<style type="text/css">
	.st0{fill:#F6F6F6;}
	.st1{fill:#ED4E3A;}
	.st2{fill:#F89F26;}
	.st3{fill:#F2C28D;}
	.st4{fill:#FFD2A1;}
	.st5{fill:#575756;}
</style>
<g>
	<g>
		<path class="st0" d="M-534.5,434.2c-12,7.6-9.4,17-9.4,24.7v9.1h16.9l-3.7-35.5C-532,433-534.1,433.9-534.5,434.2z"/>
		<path class="st0" d="M-482.9,428.3c-1.2,5.3-5.9,9.3-11.5,9.3h-1.2c-5.7,0-10.4-4-11.5-9.3l0,0L-495,468L-482.9,428.3
			L-482.9,428.3z"/>
		<path class="st0" d="M-455.4,434.2c-0.4-0.3-2.5-1.2-3.8-1.7l-3.7,35.5h16.9v-9.1C-446,451.1-443.4,441.7-455.4,434.2z"/>
		<path class="st1" d="M-507.1,428.2c-0.2-0.8-0.3-1.6-0.3-2.5v-1.9l-22.4,8.1c0,0-0.4,0.2-1,0.4l3.7,35.5h32.1L-507.1,428.2
			L-507.1,428.2z"/>
		<path class="st2" d="M-514.5,403.6c-2.4-2.6-4.6-8-6.2-15c-0.2,0.1-0.3,0.1-0.5,0.1c-0.5,0.1-0.9,0-1.4-0.2
			c-2-0.7-3.7-3.5-4.3-7.1c-0.7-4.4,0.7-8.3,3.1-8.7c0.9-0.1,1.7,0.2,2.6,0.9c0.3-5.2,1.1-9.3,2.5-12.7
			c20.9-14.7,29.8,18.3,49.4,6.5c0.3,1.9,0.5,3.9,0.7,6.2c0.8-0.7,1.7-1,2.6-0.9c2.5,0.4,3.8,4.3,3.1,8.7c-0.6,3.6-2.4,6.4-4.3,7.1
			c-0.5,0.2-0.9,0.2-1.4,0.2c-0.2,0-0.3-0.1-0.5-0.1c-1.7,6.9-3.8,12.4-6.2,15c-3.1,3.3-5.2,5.8-7.2,7.7v12.5
			c3.2-0.1,7.2-0.7,11.7-2c20.1-4,16.5-20.5,12.1-50.4c-2-36.3-35.7-36.3-36.1-36.3c-0.4,0-34.1,0-36.1,36.3
			c-4.4,29.8-8,46.4,12.1,50.4c4.4,1.3,8.4,1.9,11.7,2v-12.5C-509.4,409.4-511.5,406.9-514.5,403.6z"/>
		<path class="st1" d="M-460.2,432l-22.4-8.1v1.9c0,0.9-0.1,1.7-0.3,2.5l0,0.1L-495,468h32.1l3.7-35.5
			C-459.8,432.2-460.2,432-460.2,432z"/>
		<path class="st3" d="M-507.1,428.2c1.1,5.3,5.9,9.3,11.5,9.3h1.2c5.6,0,10.4-4,11.5-9.3c0.2-0.8,0.3-1.7,0.3-2.5v-1.9v-0.1v-12.5
			c-3.3,3.1-6.2,4.5-12.2,5c0,0-0.1,0-0.1,0c0,0,0,0,0,0c0,0,0,0,0,0c0,0-0.1,0-0.1,0c-6-0.5-9-2-12.2-5v12.5v0.1v1.9
			C-507.3,426.6-507.2,427.5-507.1,428.2z"/>
		<path class="st4" d="M-475.4,403.6c2.4-2.6,4.6-8,6.2-15c0.2,0.1,0.3,0.1,0.5,0.1c0.5,0.1,0.9,0,1.4-0.2c2-0.7,3.7-3.5,4.3-7.1
			c0.7-4.4-0.7-8.3-3.1-8.7c-0.9-0.1-1.7,0.2-2.6,0.9c-0.1-2.2-0.3-4.3-0.7-6.2c-19.7,11.8-28.5-21.1-49.4-6.5
			c-1.5,3.3-2.2,7.5-2.5,12.7c-0.8-0.7-1.7-1-2.6-0.9c-2.5,0.4-3.8,4.3-3.1,8.7c0.6,3.6,2.4,6.4,4.3,7.1c0.5,0.2,0.9,0.2,1.4,0.2
			c0.2,0,0.3-0.1,0.5-0.1c1.7,6.9,3.8,12.4,6.2,15c3.1,3.3,5.2,5.8,7.2,7.7c3.3,3.1,6.2,4.5,12.2,5c0,0,0.1,0,0.1,0c0,0,0,0,0,0
			c0,0,0,0,0,0c0,0,0.1,0,0.1,0c6-0.5,9-2,12.2-5C-480.6,409.4-478.4,406.9-475.4,403.6z"/>
	</g>
	<g>
		<path class="st5" d="M-467.3,387.9l2,0.1c2.8,0.2,4-13.9,1.1-14.2l-2-0.1C-468.6,373.6-469.5,387.7-467.3,387.9z"/>
		
			<ellipse transform="matrix(-0.9919 -0.1273 0.1273 -0.9919 -971.584 699.6703)" class="st5" cx="-463.4" cy="380.9" rx="2.9" ry="4.1"/>
	</g>
	<g>
		<g>
			<path class="st5" d="M-522.9,387.9l-2,0.1c-2.8,0.2-4-13.9-1.1-14.2l2-0.1C-521.6,373.6-520.7,387.7-522.9,387.9z"/>
			
				<ellipse transform="matrix(0.9919 -0.1273 0.1273 0.9919 -52.7806 -63.9663)" class="st5" cx="-526.8" cy="380.9" rx="2.9" ry="4.1"/>
		</g>
		<path class="st5" d="M-501.1,405.8c-21.9,0-23.9-20.9-23.9-21.1l2.2-0.2c0.1,0.8,1.9,19.6,22.5,19.1l0,2.2
			C-500.5,405.7-500.8,405.8-501.1,405.8z"/>
		<path class="st5" d="M-487.3,404.7c0,1.8-1.4,3.2-3.2,3.2h-7.6c-1.8,0-3.2-1.4-3.2-3.2l0,0c0-1.8,1.4-3.2,3.2-3.2h7.6
			C-488.7,401.5-487.3,402.9-487.3,404.7L-487.3,404.7z"/>
	</g>
</g>
</svg>
