<?xml version="1.0" encoding="utf-8"?>
<!-- Generator: Adobe Illustrator 19.1.0, SVG Export Plug-In . SVG Version: 6.00 Build 0)  -->
<svg version="1.1" id="レイヤー_1" xmlns="http://www.w3.org/2000/svg" xmlns:xlink="http://www.w3.org/1999/xlink" x="0px"
	 y="0px" viewBox="-568 369.2 62.3 62.8" style="enable-background:new -568 369.2 62.3 62.8;" xml:space="preserve">
<style type="text/css">
	.st0{fill:#E35F06;}
	.st1{fill:#215376;}
	.st2{fill-rule:evenodd;clip-rule:evenodd;fill:#194A6E;}
	.st3{fill:#CCE3F6;}
	.st4{fill:#FFFFFF;}
	.st5{opacity:0.6;fill:#FFFFFF;}
	.st6{fill:#33608A;}
	.st7{fill:#194A6E;}
	.st8{fill:#F1F8FD;}
	.st9{fill-rule:evenodd;clip-rule:evenodd;fill:#E35F06;}
	.st10{fill-rule:evenodd;clip-rule:evenodd;fill:#F5A700;}
	.st11{opacity:0.4;}
	.st12{fill:#31668A;}
	.st13{fill-rule:evenodd;clip-rule:evenodd;fill:#F8C200;}
</style>
<g id="Layer_1">
	
		<image style="overflow:visible;opacity:0.29;enable-background:new    ;" width="575" height="571" xlink:href="748F9A84B97AD4BE.png"  transform="matrix(0.2334 0 0 0.2383 -603.593 335.08)">
	</image>
</g>
<path id="XMLID_13024_" class="st0" d="M-534.2,393.2l-2.1-4.6l-9.2,4l2.1,4.6c0.3,0.7,1.3,1,2.2,0.6l5.9-2.6
	C-534.3,394.8-533.8,393.9-534.2,393.2z"/>
<rect id="XMLID_13023_" x="-512.9" y="377.5" transform="matrix(-0.5828 -0.8126 0.8126 -0.5828 -1114.2732 183.3319)" class="st1" width="5.7" height="0.5"/>
<polyline id="XMLID_13022_" class="st2" points="-533,407.5 -533.6,428.5 -537.1,430.3 -545.4,415.6 "/>
<polyline id="XMLID_13021_" class="st2" points="-543.9,395.2 -564.8,393.1 -566.9,396.4 -553.4,406.5 "/>
<path id="XMLID_13020_" class="st3" d="M-510.4,384.7l-4-4.6l-4-4.6c0,0-6.9-0.8-18.5,9.4c-11.7,10.2-20.3,23.3-20.3,23.3l4.6,5.3
	l4.6,5.3c0,0,14.2-6.7,25.9-16.9C-510.6,391.7-510.4,384.7-510.4,384.7z"/>
<path id="XMLID_13019_" class="st4" d="M-528.7,392.6c1.7,1.9,4.6,2.2,6.5,0.5c1.9-1.6,2.1-4.6,0.4-6.5c-1.7-1.9-4.6-2.2-6.5-0.5
	C-530.2,387.7-530.4,390.6-528.7,392.6z"/>
<path id="XMLID_13018_" class="st5" d="M-514.5,380.1l-4-4.6c0,0-6.9-0.8-18.5,9.4c-11.7,10.2-20.3,23.3-20.3,23.3l4.6,5.3l0,0
	L-514.5,380.1z"/>
<path id="XMLID_13015_" class="st6" d="M-529.5,393.2c2.1,2.4,5.6,2.6,7.9,0.6c2.3-2,2.5-5.6,0.5-7.9s-5.6-2.6-7.9-0.6
	C-531.3,387.3-531.5,390.9-529.5,393.2z M-522.4,387.1c1.4,1.6,1.3,4.1-0.3,5.5c-1.6,1.4-4.1,1.2-5.5-0.4c-1.4-1.6-1.3-4.1,0.3-5.5
	C-526.3,385.2-523.8,385.4-522.4,387.1z"/>
<g id="XMLID_13010_">
	
		<ellipse id="XMLID_13014_" transform="matrix(-0.7542 0.6566 -0.6566 -0.7542 -677.7458 1050.9758)" class="st4" cx="-535.6" cy="398.6" rx="2.2" ry="2.2"/>
	<path id="XMLID_13011_" class="st4" d="M-537.6,400.4c1,1.1,2.7,1.3,3.8,0.3c1.1-1,1.2-2.7,0.2-3.8c-1-1.1-2.7-1.3-3.8-0.3
		C-538.5,397.5-538.6,399.3-537.6,400.4z M-534.2,397.4c0.7,0.8,0.6,2-0.2,2.6c-0.8,0.7-2,0.6-2.6-0.2c-0.7-0.8-0.6-2,0.2-2.6
		C-536,396.5-534.9,396.6-534.2,397.4z"/>
</g>
<g id="XMLID_13005_">
	
		<ellipse id="XMLID_13009_" transform="matrix(-0.7542 0.6567 -0.6567 -0.7542 -686.5625 1067.5239)" class="st4" cx="-543.1" cy="405.3" rx="2.2" ry="2.2"/>
	<path id="XMLID_13006_" class="st4" d="M-545.1,407c1,1.1,2.7,1.3,3.8,0.3c1.1-1,1.2-2.7,0.2-3.8c-1-1.1-2.7-1.3-3.8-0.3
		C-546,404.2-546.1,405.9-545.1,407z M-541.7,404c0.7,0.8,0.6,2-0.2,2.6c-0.8,0.7-2,0.6-2.6-0.2c-0.7-0.8-0.6-2,0.2-2.6
		C-543.6,403.2-542.4,403.3-541.7,404z"/>
</g>
<path id="XMLID_13004_" class="st0" d="M-547.6,420c-0.3,0.3-0.8,0.3-1.1-0.1l-10.1-11.5c-0.3-0.3-0.3-0.9,0.1-1.1l0,0
	c0.3-0.3,0.8-0.3,1.1,0.1l10.1,11.5C-547.2,419.1-547.3,419.7-547.6,420L-547.6,420z"/>
<polygon id="XMLID_13003_" class="st7" points="-519.9,375.4 -504.4,371.4 -510.5,386.2 "/>
<polygon id="XMLID_13002_" class="st8" points="-511.1,387.4 -521.2,375.8 -519.9,375.4 -510.5,386.2 "/>
<path id="XMLID_12998_" class="st9" d="M-556.7,410.3l6.8,8.3c0,0-3.5,5.3-10.3,7.6c0,0,0.4-1.3,0.8-3c0,0-2.3,1.6-6,1.7
	C-565.5,424.9-568.1,417.5-556.7,410.3z"/>
<path id="XMLID_12997_" class="st10" d="M-556,411.1l5.3,6.5c0,0-2.2,4.1-7.5,6c0,0,0.3-1.4,0.7-2.5c0,0-2.4,1.4-5.4,1.5
	C-562.9,422.6-565,416.8-556,411.1z"/>
<path id="XMLID_12980_" class="st6" d="M-538.2,401c1.3,1.5,3.6,1.7,5.1,0.4c1.5-1.3,1.6-3.6,0.3-5.1s-3.6-1.7-5.1-0.4
	C-539.4,397.2-539.5,399.5-538.2,401z M-533.7,397.1c0.9,1,0.8,2.6-0.2,3.5c-1,0.9-2.6,0.8-3.5-0.3c-0.9-1-0.8-2.6,0.2-3.5
	C-536.2,395.9-534.6,396-533.7,397.1z"/>
<path id="XMLID_12977_" class="st6" d="M-545.6,407.8c1.3,1.5,3.6,1.7,5.1,0.4c1.5-1.3,1.6-3.6,0.3-5.1c-1.3-1.5-3.6-1.7-5.1-0.4
	C-546.8,404-546.9,406.3-545.6,407.8z M-541.1,403.8c0.9,1,0.8,2.6-0.2,3.5c-1,0.9-2.6,0.8-3.5-0.3c-0.9-1-0.8-2.6,0.2-3.5
	C-543.5,402.7-542,402.8-541.1,403.8z"/>
<g id="XMLID_12972_" class="st11">
	<polygon id="XMLID_12976_" class="st12" points="-562.7,399.6 -564.2,398.5 -562.3,396.8 -560.6,397.8 	"/>
	<polygon id="XMLID_12975_" class="st12" points="-539.7,426 -538.8,427.7 -536.8,426 -537.6,424.2 	"/>
	<polygon id="XMLID_12974_" class="st12" points="-559.9,401.7 -561.3,400.6 -559.4,398.9 -557.8,399.9 	"/>
	<polygon id="XMLID_12973_" class="st12" points="-541.3,423 -540.4,424.7 -538.5,423 -539.2,421.2 	"/>
</g>
<path id="XMLID_12971_" class="st13" d="M-555.1,412.5l3,3.7c0,0-1,2.1-3.7,2.9c0,0,0.1-0.7,0.3-1.3c0,0-1.2,0.7-2.7,0.6
	C-558.2,418.3-559.5,415.2-555.1,412.5z"/>
</svg>
