<svg id="レイヤー_1" xmlns="http://www.w3.org/2000/svg" viewBox="0 0 80 84"><style>.st0{fill:#fff}.st1{fill:#e5e6e7}.st2{fill:#0c3652}.st3{fill:#0a2f3e}.st4{fill:#a6a8ab}.st5{fill:#fff}.st10,.st11,.st12,.st5{fill-rule:evenodd;clip-rule:evenodd}.st6{fill:#b2b2b2}.st6,.st7,.st8,.st9{fill-rule:evenodd;clip-rule:evenodd}.st7{fill:#d0d1d3}.st8{fill:#556471}.st9{fill:#cbcbcb}.st10{fill:#050204}.st11{fill:#bbbdbf}.st12{fill:#e6e6e5}.st13{fill:#f2b685}.st14{fill:#f3b920}.st15{fill:#2e485f}.st16{fill:#99509a}.st17{fill:#2c5c8a}.st18{fill:#b0afb0}.st19{fill:#e3e3e3}.st20{fill:#f29718}.st21{fill:#ed7416}.st22{fill:#343e48}.st23{fill:#f1c124}.st24{fill:#efefef}.st25{fill:#c9c9c9}.st26{fill:#ec7247}.st27{fill:#2cb7c3}.st28{fill:#162046}.st29{fill:#d5d5d5}.st30{fill:#801d1f}.st31{fill:#f5cd54}.st32{fill:#fffafb}.st33{fill:#262346}.st34{fill:#f0f5f4}.st35{fill:#2866b0}.st36{fill:#1b1b1d}.st37{opacity:.3;fill:#247364}.st38{fill:#e8c5bb}.st39{fill:#f1dad1}.st40{fill:#7f5324}.st41{fill:#8c6225}.st42{fill:#3a3835}.st43{fill:#bf9291}.st44{fill:#f3f3f4}.st45{fill:#f1dad1}.st45,.st46,.st47{fill-rule:evenodd;clip-rule:evenodd}.st46{fill:#e8c5bb}.st47{fill:#4d4d4d}.st48{fill:#ec766d}.st49{fill:#237e7e}.st50{fill:#18615f}.st51{fill:#e59e2f}.st52{fill:#f3b455}.st53{fill:#d68f28}.st54{fill:#eb6535}.st55{fill:#661215}.st56{fill:#76b5bf}.st57{fill:#0a314f}.st58{fill:#bce1e0}.st59{fill:#f39e3b}.st60{opacity:.19;fill:#661215}.st61{opacity:.48;fill:#bce1e0}.st62,.st63{fill:#e8473c}.st63{opacity:.27}.st64{fill:#e95f6a}.st65{fill:#e84637}.st66{fill:#b0dcdc}.st67{opacity:.2;fill:#76b5bf}.st68{opacity:.14;fill:#005a6e}.st69{fill:#f7c193}.st70{fill:#e79054}.st71{fill:#f4ae7e}.st72{fill:#c3dbdc}.st73{fill:#dff0f3}.st74{fill:#7d5e54}.st75{fill:#70321c}.st76{fill:#333331}.st77{fill:#3a2b23}.st78{fill:#978474}.st79{fill:#4b3e38}.st80{fill:#a13c24}.st81{fill:#191a1a}.st82{fill:#22b3aa}.st83{fill:#408fb8}.st84,.st85{opacity:.4}.st85{fill:#e95728}.st86{fill:#c04a1d}.st87{fill:#da5f21}.st88{fill:#ec732b}.st89{fill:#a26235}.st90{opacity:.5}.st91{fill:#ea5b19}.st92{fill:#eba61a}.st93,.st94{opacity:.5;fill:#006536}.st94{fill:#22b3aa}</style><path transform="rotate(143.461 44.404 48.212)" class="st32" d="M41.2 41.6h6.5v13.3h-6.5z"/><path class="st33" d="M9.4 40.6c7.8 10.5 22.6 12.7 33.1 4.9 10.5-7.8 12.7-22.6 4.9-33.1C39.6 2 24.8-.2 14.3 7.5 3.8 15.3 1.6 30.1 9.4 40.6zm5-3.7c-5.7-7.7-4.1-18.6 3.6-24.3 7.7-5.7 18.6-4.1 24.3 3.6 5.7 7.7 4.1 18.6-3.6 24.3-7.7 5.7-18.6 4.1-24.3-3.6z"/><path class="st17" d="M12.4 38.4c6.5 8.8 18.9 10.6 27.7 4.1 8.9-6.5 10.7-19 4.2-27.8-6.5-8.8-18.9-10.6-27.7-4.1s-10.7 19-4.2 27.8zm2-1.5c-5.7-7.7-4.1-18.6 3.6-24.3 7.7-5.7 18.6-4.1 24.3 3.6 5.7 7.7 4.1 18.6-3.6 24.3-7.7 5.7-18.6 4.1-24.3-3.6z"/><path class="st33" d="M62.1 79.9c.3.3.7.4 1.1.2l6.2-4.6c.3-.3.4-.7.2-1.1L49.9 47.9c-.3-.3-.7-.4-1.1-.2l-6.2 4.6c-.3.3-.4.7-.2 1.1l19.7 26.5z"/><path class="st17" d="M42.6 52.3l1.6-1.2 20.5 27.7-1.6 1.2c-.3.3-.8.2-1.1-.2L42.5 53.4c-.3-.3-.2-.8.1-1.1z"/></svg>