<?xml version="1.0" encoding="utf-8"?>
<!-- Generator: Adobe Illustrator 19.1.0, SVG Export Plug-In . SVG Version: 6.00 Build 0)  -->
<svg version="1.1" id="レイヤー_1" xmlns="http://www.w3.org/2000/svg" xmlns:xlink="http://www.w3.org/1999/xlink" x="0px"
	 y="0px" viewBox="-561.7 356.3 90.1 88" style="enable-background:new -561.7 356.3 90.1 88;" xml:space="preserve">
<style type="text/css">
	.st0{fill:#959595;}
	.st1{fill:#FFFFFF;}
	.st2{fill:#3C3C3B;}
	.st3{fill:#E2E3E4;}
	.st4{fill:#FFA466;}
	.st5{fill:#FF6800;}
	.st6{fill:#66D1FF;}
	.st7{fill:#00B3FF;}
</style>
<g>
	<g>
		<g>
			<g>
				<rect x="-556.6" y="379.6" class="st0" width="79.8" height="54"/>
			</g>
		</g>
	</g>
	<g>
		<g>
			<g>
				<path class="st1" d="M-515.7,431.6c0,0.5-0.4,0.9-0.9,0.9c-0.5,0-0.9-0.4-0.9-0.9c0-0.5,0.4-0.9,0.9-0.9
					C-516.1,430.7-515.7,431.1-515.7,431.6z"/>
			</g>
		</g>
	</g>
	<g>
		<g>
			<g>
				<path class="st2" d="M-557.5,440.8h17.9h63.8c2.3,0,4.2-1.9,4.2-4.2v-2.9h-68h-22.1v2.9C-561.7,438.9-559.8,440.8-557.5,440.8z"
					/>
			</g>
		</g>
	</g>
	<g>
		<g>
			<g>
				<g>
					<polygon class="st1" points="-481.2,383.6 -481.2,429.7 -552.1,383.6 					"/>
				</g>
			</g>
		</g>
		<g>
			<g>
				<g>
					<polygon class="st3" points="-481.2,429.7 -552.1,429.7 -552.1,383.6 					"/>
				</g>
			</g>
		</g>
	</g>
</g>
<g>
	<g>
		<g>
			<path class="st4" d="M-538.1,402.2c0,0-19.7-2-19.7-39.9l19.7-2.9l19.3,2.9C-518.7,400.6-538.1,402.2-538.1,402.2z"/>
		</g>
	</g>
	<g>
		<g>
			<path class="st5" d="M-538.1,402.2l0-42.9l19.3,2.9C-518.7,400.6-538.1,402.2-538.1,402.2z"/>
		</g>
	</g>
	<g>
		<g>
			<g>
				<polygon class="st4" points="-518.7,363.5 -538.1,360.5 -538.1,359.4 -518.7,362.3 				"/>
			</g>
		</g>
	</g>
	<g>
		<path class="st6" d="M-530.4,374.1l3.7,3.7c-0.8-5.6-5.6-10-11.4-10c-6.3,0-11.5,5.1-11.5,11.5c0,5.8,4.3,10.6,9.8,11.4l-6.1-6.1
			L-530.4,374.1z"/>
	</g>
	<g>
		<path class="st7" d="M-536.7,390.7c5.3-0.7,9.5-4.9,10-10.3c0-0.4,0.1-0.8,0.1-1.1c0-0.5,0-1-0.1-1.5l-3.7-3.7l-15.5,10.5l6.1,6.1
			c0.6,0.1,1.1,0.1,1.7,0.1C-537.6,390.8-537.1,390.8-536.7,390.7z"/>
	</g>
	<g>
		<g>
			<path class="st3" d="M-531.1,373.8h-7.1h-7.1c-0.5,0-0.9,0.4-0.9,0.9v9.2c0,0.5,0.4,0.9,0.9,0.9l7.1-7.1l7.1,7.1
				c0.5,0,0.9-0.4,0.9-0.9v-9.2C-530.1,374.2-530.6,373.8-531.1,373.8z"/>
		</g>
		<g>
			<polygon class="st0" points="-545.2,384.8 -531.1,384.8 -538.1,377.8 			"/>
		</g>
		<g>
			<polygon class="st1" points="-531.1,373.8 -545.2,373.8 -538.1,380.9 			"/>
		</g>
	</g>
</g>
</svg>
