<?xml version="1.0" encoding="utf-8"?>
<!-- Generator: Adobe Illustrator 19.1.0, SVG Export Plug-In . SVG Version: 6.00 Build 0)  -->
<svg version="1.1" id="レイヤー_1" xmlns="http://www.w3.org/2000/svg" xmlns:xlink="http://www.w3.org/1999/xlink" x="0px"
	 y="0px" viewBox="-535.3 320.8 162 162.2" style="enable-background:new -535.3 320.8 162 162.2;" xml:space="preserve">
<style type="text/css">
	.st0{fill:url(#XMLID_2_);}
	.st1{fill:url(#XMLID_3_);}
	.st2{fill:#20227C;}
	.st3{fill:url(#XMLID_4_);}
	.st4{fill:#B7D100;}
	.st5{fill:#F6C700;}
	.st6{fill:#E56303;}
	.st7{fill:url(#XMLID_5_);}
	.st8{fill:#BCD300;}
	.st9{fill:#FAD222;}
	.st10{fill:#EA9327;}
	.st11{fill:#62C3DA;}
	.st12{fill:#D5398D;}
	.st13{fill:#483A92;}
	.st14{fill:url(#XMLID_6_);}
	.st15{fill:url(#XMLID_7_);}
	.st16{fill:url(#XMLID_8_);}
	.st17{fill:#3D3F3F;enable-background:new    ;}
	.st18{fill:#1B91AB;}
	.st19{fill:url(#XMLID_9_);}
	.st20{fill:url(#XMLID_10_);}
	.st21{fill:url(#XMLID_11_);}
	.st22{fill:url(#XMLID_12_);}
	.st23{fill:url(#XMLID_13_);}
	.st24{fill:url(#XMLID_14_);}
	.st25{enable-background:new    ;}
	.st26{opacity:0.2;fill-rule:evenodd;clip-rule:evenodd;fill:#3D3F3F;}
	.st27{fill-rule:evenodd;clip-rule:evenodd;fill:#3D3F3F;enable-background:new    ;}
	.st28{fill-rule:evenodd;clip-rule:evenodd;fill:#FFFFFF;}
	.st29{opacity:0.15;}
	.st30{fill:#0B0506;}
	.st31{fill:#FFFFFF;}
	.st32{fill:#FFFFFF;enable-background:new    ;}
</style>
<g id="XMLID_12343_">
	<linearGradient id="XMLID_2_" gradientUnits="userSpaceOnUse" x1="-495.3339" y1="447.6251" x2="-478.8852" y2="447.6251">
		<stop  offset="0" style="stop-color:#DE2666"/>
		<stop  offset="1" style="stop-color:#D0134E"/>
	</linearGradient>
	<polygon id="XMLID_12342_" class="st0" points="-494.7,456.1 -495.3,455.5 -479.5,439.2 -478.9,439.8 	"/>
	<linearGradient id="XMLID_3_" gradientUnits="userSpaceOnUse" x1="-521.5312" y1="465.6721" x2="-488.5672" y2="465.6721">
		<stop  offset="0" style="stop-color:#DE2666"/>
		<stop  offset="1" style="stop-color:#D0134E"/>
	</linearGradient>
	<path id="XMLID_12339_" class="st1" d="M-505,482.2c-9.1,0-16.5-7.4-16.5-16.5c0-9.1,7.4-16.5,16.5-16.5c9.1,0,16.5,7.4,16.5,16.5
		C-488.6,474.8-496,482.2-505,482.2z M-505,451.7c-7.7,0-13.9,6.3-13.9,13.9c0,7.7,6.3,13.9,13.9,13.9c7.7,0,13.9-6.3,13.9-13.9
		C-491.1,458-497.4,451.7-505,451.7z"/>
	<g id="XMLID_12320_">
		<path id="XMLID_12336_" class="st2" d="M-423.7,415.1c0-4.3-0.9-8.4-2.5-12.1c-0.4,0.4-0.9,0.6-1.5,0.8c1.5,3.5,2.3,7.3,2.3,11.3
			c0,6.3-2,12.1-5.4,16.9c-0.8-0.5-1.7-0.8-2.7-0.8c-2.7,0-4.9,2.2-4.9,4.9c0,2.7,2.2,4.9,4.9,4.9c2.7,0,4.9-2.2,4.9-4.9
			c0-1.1-0.4-2.1-1-2.9C-425.8,428.1-423.7,421.8-423.7,415.1z M-433.5,439.3c-1.8,0-3.2-1.4-3.2-3.2c0-1.8,1.4-3.2,3.2-3.2
			s3.2,1.4,3.2,3.2C-430.2,437.9-431.7,439.3-433.5,439.3z"/>
		<linearGradient id="XMLID_4_" gradientUnits="userSpaceOnUse" x1="-442.5148" y1="395.9101" x2="-423.7924" y2="395.9101">
			<stop  offset="0" style="stop-color:#14A2B9"/>
			<stop  offset="0.9939" style="stop-color:#089EB6"/>
		</linearGradient>
		<path id="XMLID_12333_" class="st3" d="M-428.7,395c-0.7,0-1.5,0.2-2.1,0.5c-3-3.6-6.8-6.5-11.1-8.5c-0.1,0.6-0.3,1.1-0.6,1.6
			c4,1.8,7.5,4.5,10.3,7.8c-0.9,0.9-1.4,2.1-1.4,3.5c0,2.7,2.2,4.9,4.9,4.9c2.7,0,4.9-2.2,4.9-4.9C-423.8,397.2-426,395-428.7,395z
			 M-428.7,403.1c-1.8,0-3.2-1.4-3.2-3.2s1.4-3.2,3.2-3.2s3.2,1.4,3.2,3.2S-426.9,403.1-428.7,403.1z"/>
		<path id="XMLID_12330_" class="st4" d="M-446,381.6c-2,0-3.8,1.3-4.5,3c-1.3-0.2-2.6-0.3-3.9-0.3c-4.5,0-8.8,1-12.7,2.7
			c0.4,0.4,0.6,0.9,0.8,1.5c3.6-1.6,7.6-2.5,11.9-2.5c1.2,0,2.4,0.1,3.6,0.2c0,0.1,0,0.1,0,0.2c0,2.7,2.2,4.9,4.9,4.9
			c2.7,0,4.9-2.2,4.9-4.9S-443.2,381.6-446,381.6z M-446,389.7c-1.8,0-3.2-1.4-3.2-3.2s1.4-3.2,3.2-3.2c1.8,0,3.2,1.4,3.2,3.2
			S-444.2,389.7-446,389.7z"/>
		<path id="XMLID_12327_" class="st5" d="M-470.2,384.8c-2.7,0-4.9,2.2-4.9,4.9c0,0.8,0.2,1.5,0.5,2.2c-3.4,3-6.2,6.6-8,10.8
			c0.6,0.1,1.1,0.3,1.6,0.6c1.7-3.9,4.3-7.3,7.4-10.1c0.9,0.8,2.1,1.4,3.4,1.4c2.7,0,4.9-2.2,4.9-4.9
			C-465.3,387-467.5,384.8-470.2,384.8z M-470.2,392.9c-1.8,0-3.2-1.4-3.2-3.2s1.4-3.2,3.2-3.2s3.2,1.4,3.2,3.2
			S-468.4,392.9-470.2,392.9z"/>
		<path id="XMLID_12324_" class="st6" d="M-483.5,415.1c0-1.2,0.1-2.3,0.2-3.5c0,0,0,0,0,0c2.7,0,4.9-2.2,4.9-4.9
			c0-2.7-2.2-4.9-4.9-4.9c-2.7,0-4.9,2.2-4.9,4.9c0,2.1,1.3,3.9,3.2,4.6c-0.2,1.2-0.3,2.5-0.3,3.8c0,6.9,2.3,13.3,6.1,18.4
			c0.4-0.4,0.8-0.8,1.3-1.1C-481.4,427.6-483.5,421.6-483.5,415.1z M-486.4,406.7c0-1.8,1.4-3.2,3.2-3.2s3.2,1.4,3.2,3.2
			s-1.4,3.2-3.2,3.2S-486.4,408.5-486.4,406.7z"/>
		<linearGradient id="XMLID_5_" gradientUnits="userSpaceOnUse" x1="-480.8815" y1="438.5198" x2="-436.3191" y2="438.5198">
			<stop  offset="0" style="stop-color:#DE2666"/>
			<stop  offset="1" style="stop-color:#D0134E"/>
		</linearGradient>
		<path id="XMLID_12321_" class="st7" d="M-437.5,438.7c-4.8,3.4-10.6,5.5-17,5.5c-6.5,0-12.4-2.1-17.2-5.7c0.4-0.7,0.6-1.5,0.6-2.4
			c0-2.7-2.2-4.9-4.9-4.9c-2.7,0-4.9,2.2-4.9,4.9c0,2.7,2.2,4.9,4.9,4.9c1.2,0,2.3-0.5,3.2-1.2c5.1,3.8,11.5,6.1,18.3,6.1
			c6.8,0,13-2.2,18.1-5.9C-436.9,439.7-437.3,439.2-437.5,438.7z M-476,439.3c-1.8,0-3.2-1.4-3.2-3.2s1.4-3.2,3.2-3.2
			s3.2,1.4,3.2,3.2S-474.2,439.3-476,439.3z"/>
	</g>
	<path id="XMLID_12319_" class="st8" d="M-473.6,385c1-0.7,2.1-1.1,3.4-1.1c1.2,0,2.3,0.4,3.2,1c0,0,0,0,0,0l0.3,0.2l0.4-0.1
		c3.7-1.5,7.7-2.3,11.9-2.3c1.1,0,2.2,0.1,3.3,0.2l0.5,0.1l0.3-0.4l0,0c1.1-1.2,2.6-1.9,4.3-1.9c0.6,0,1.1,0.1,1.7,0.2l0.3-0.8
		c-0.6-0.2-1.3-0.3-1.9-0.3c-2,0-3.7,0.9-5,2.2c-1.1-0.1-2.3-0.2-3.4-0.2c-4.3,0-8.4,0.8-12.1,2.3c-1.1-0.7-2.3-1.1-3.7-1.1
		c-1.4,0-2.8,0.5-3.9,1.2L-473.6,385z"/>
	<path id="XMLID_12318_" class="st9" d="M-488.9,405.5c0.5-2.5,2.6-4.3,5.1-4.6l0.4,0l0.2-0.3c0,0,0,0,0,0c1.8-3.6,4.2-6.7,7.1-9.4
		l0.3-0.3l-0.1-0.4c0-0.3-0.1-0.5-0.1-0.8c0-1.9,1-3.7,2.4-4.7l-0.4-0.7c-1.7,1.2-2.8,3.2-2.8,5.4c0,0.3,0,0.6,0.1,0.9
		c-2.9,2.7-5.3,5.9-7.1,9.5c-2.9,0.3-5.2,2.4-5.8,5.2L-488.9,405.5z"/>
	<path id="XMLID_12317_" class="st10" d="M-481.8,436.1c0-0.9,0.2-1.8,0.6-2.6l0.2-0.3l-0.2-0.3c-3.4-5.1-5.4-11.3-5.4-17.9
		c0-1,0.1-1.9,0.1-2.9c0,0,0,0,0,0l0-0.4l-0.3-0.2c-1.4-1.1-2.3-2.7-2.3-4.6c0-0.4,0-0.8,0.1-1.1l-0.8-0.2c-0.1,0.4-0.1,0.9-0.1,1.4
		c0,2.1,1,4,2.6,5.3c-0.1,1-0.1,1.9-0.1,2.9c0,6.7,2,13,5.5,18.2c-0.4,0.9-0.7,1.9-0.7,2.9c0,2.1,1,4,2.5,5.2l0.6-0.6
		C-480.9,439.6-481.8,437.9-481.8,436.1z"/>
	<path id="XMLID_12316_" class="st11" d="M-428.7,393.2c-0.2,0-0.4,0-0.7,0c-2.8-3.2-6.2-5.9-10-7.8c-0.4-2.6-2.2-4.6-4.7-5.4
		l-0.3,0.8c2.1,0.6,3.7,2.4,4.1,4.6l0.1,0.5l0.4,0.2c3.7,1.9,7.1,4.5,9.8,7.7l0.3,0.3l0.5-0.1c0.2,0,0.3,0,0.5,0
		c2.2,0,4.1,1.2,5.1,3l0.7-0.4C-424,394.6-426.2,393.2-428.7,393.2z"/>
	<path id="XMLID_12315_" class="st12" d="M-473.2,442.1c5.3,3.7,11.8,5.9,18.8,5.9c6.9,0,13.2-2.1,18.5-5.7c0.7,0.3,1.5,0.4,2.4,0.4
		c1.8,0,3.5-0.7,4.7-1.9l-0.6-0.6c-1.1,1-2.5,1.7-4.1,1.7c-0.7,0-1.4-0.1-2-0.4l-0.4-0.2l-0.4,0.3c-5.2,3.5-11.4,5.6-18.1,5.6
		c-6.9,0-13.2-2.2-18.5-5.8l-0.3-0.2l-0.3,0.2c0,0,0,0,0,0c-0.8,0.4-1.6,0.6-2.5,0.6c-1.4,0-2.7-0.5-3.7-1.4l-0.6,0.6
		c1.2,1,2.7,1.6,4.3,1.6C-475,442.8-474,442.5-473.2,442.1z"/>
	<path id="XMLID_12314_" class="st13" d="M-426.8,436.1c0-0.8-0.2-1.6-0.4-2.3c3.7-5.4,5.9-11.9,5.9-18.9c0-3.9-0.7-7.7-2-11.2
		c0.8-1.1,1.2-2.4,1.2-3.8c0-1.2-0.3-2.3-0.9-3.3l-0.7,0.4c0.5,0.8,0.8,1.8,0.8,2.9c0,1.2-0.4,2.3-1,3.3l-0.3,0.4l0.1,0.4
		c1.3,3.4,1.9,7.1,1.9,11c0,6.9-2.2,13.2-5.8,18.5l-0.2,0.3l0.1,0.5c0.2,0.6,0.3,1.3,0.3,1.9c0,1.7-0.7,3.2-1.8,4.2l0.6,0.6
		C-427.6,439.7-426.8,438-426.8,436.1z"/>
	
		<rect id="XMLID_12313_" x="-439.5" y="346" transform="matrix(0.9555 0.295 -0.295 0.9555 88.0351 145.7854)" class="st4" width="0.8" height="37.3"/>
	
		<rect id="XMLID_12312_" x="-490.6" y="376.4" transform="matrix(0.548 0.8365 -0.8365 0.548 98.6459 571.0607)" class="st5" width="23.1" height="0.8"/>
	
		<rect id="XMLID_12311_" x="-506.3" y="403.7" transform="matrix(0.9838 0.1794 -0.1794 0.9838 64.4395 95.6529)" class="st6" width="19.2" height="0.8"/>
	<linearGradient id="XMLID_6_" gradientUnits="userSpaceOnUse" x1="-425.7126" y1="393.3863" x2="-412.3831" y2="393.3863">
		<stop  offset="0" style="stop-color:#14A2B9"/>
		<stop  offset="0.9939" style="stop-color:#089EB6"/>
	</linearGradient>
	<polygon id="XMLID_12310_" class="st14" points="-425.3,397.7 -425.7,397 -412.8,389 -412.4,389.8 	"/>
	
		<rect id="XMLID_12309_" x="-433.4" y="443.8" transform="matrix(0.6131 0.79 -0.79 0.6131 185.69 509.3424)" class="st2" width="12.5" height="0.8"/>
	<path id="XMLID_12306_" class="st5" d="M-494.4,371.6c-10.1,0-18.4-8.3-18.4-18.4c0-10.1,8.3-18.4,18.4-18.4
		c10.1,0,18.4,8.3,18.4,18.4C-476,363.3-484.3,371.6-494.4,371.6z M-494.4,337.1c-8.9,0-16.1,7.2-16.1,16.1s7.2,16.1,16.1,16.1
		s16.1-7.2,16.1-16.1S-485.5,337.1-494.4,337.1z"/>
	<path id="XMLID_12303_" class="st2" d="M-413.9,475.1c-8.5,0-15.4-6.9-15.4-15.4c0-8.5,6.9-15.4,15.4-15.4s15.4,6.9,15.4,15.4
		C-398.6,468.2-405.5,475.1-413.9,475.1z M-413.9,446.9c-7.1,0-12.8,5.8-12.8,12.8c0,7.1,5.8,12.8,12.8,12.8s12.8-5.8,12.8-12.8
		C-401.1,452.7-406.9,446.9-413.9,446.9z"/>
	<linearGradient id="XMLID_7_" gradientUnits="userSpaceOnUse" x1="-415.4766" y1="381.7749" x2="-382.513" y2="381.7749">
		<stop  offset="0" style="stop-color:#14A2B9"/>
		<stop  offset="0.9939" style="stop-color:#089EB6"/>
	</linearGradient>
	<path id="XMLID_12300_" class="st15" d="M-399,398.3c-9.1,0-16.5-7.4-16.5-16.5c0-9.1,7.4-16.5,16.5-16.5s16.5,7.4,16.5,16.5
		C-382.5,390.9-389.9,398.3-399,398.3z M-399,367.8c-7.7,0-13.9,6.3-13.9,13.9c0,7.7,6.3,13.9,13.9,13.9s13.9-6.3,13.9-13.9
		C-385.1,374.1-391.3,367.8-399,367.8z"/>
	<path id="XMLID_12297_" class="st6" d="M-516.9,412.8c-7,0-12.7-5.7-12.7-12.7s5.7-12.7,12.7-12.7c7,0,12.7,5.7,12.7,12.7
		S-509.8,412.8-516.9,412.8z M-516.9,389.9c-5.6,0-10.2,4.6-10.2,10.2s4.6,10.2,10.2,10.2c5.6,0,10.2-4.6,10.2-10.2
		S-511.2,389.9-516.9,389.9z"/>
	<path id="XMLID_12294_" class="st4" d="M-431.1,348.4c-7,0-12.7-5.7-12.7-12.7s5.7-12.7,12.7-12.7s12.7,5.7,12.7,12.7
		S-424.1,348.4-431.1,348.4z M-431.1,325.5c-5.6,0-10.2,4.6-10.2,10.2c0,5.6,4.6,10.2,10.2,10.2c5.6,0,10.2-4.6,10.2-10.2
		C-420.9,330-425.5,325.5-431.1,325.5z"/>
	<linearGradient id="XMLID_8_" gradientUnits="userSpaceOnUse" x1="-514.7744" y1="465.6721" x2="-495.324" y2="465.6721">
		<stop  offset="0" style="stop-color:#DE2666"/>
		<stop  offset="1" style="stop-color:#D0134E"/>
	</linearGradient>
	<path id="XMLID_12288_" class="st16" d="M-495.4,464.7c0.5,5.7-3.5,10.2-8.8,10.6c-5.8,0.5-10.7-4.1-10.6-9.8
		c0.1-5.8,4.9-10.3,11.4-9.3C-499.1,456.8-495.8,460.2-495.4,464.7z M-499.9,463.5c-0.1-0.2-0.4,0.1-0.7-0.1
		c0.3-0.3,0.2-0.9,0.4-1.2c0.6,0.4,0.6-0.5,1.2-0.5c0.4,0.3,0,0.8,0.3,1.6c0.4-0.1,0.4-0.7,0.9-0.7c-0.3-0.7-0.8-1.3-1.2-2
		c-0.4,0.3,0,1-0.7,1.2c-0.1-0.6-0.3-0.6-0.8-0.7c0.3-0.4,0.8-0.5,0.9-1.1c-0.4-0.2-0.5-0.7-1.1-0.7c-0.3,0.3-0.5,0.8-0.8,1.1
		c0.4,0.7,0.1,1.2-0.5,1.6c-0.7-1.2-3.1-1.3-2.5-3.3c-0.2-0.2-0.4-0.3-0.7-0.5c0.2-0.4,0.7,0.2,0.9-0.1c-2.5-0.7-7.1,1.3-6.4,2.9
		c0.9-0.9,2.7,1.2,3.3,0.3c-0.2,0.1-0.4,0.2-0.7,0.1c0.8-1.4,2.8-0.7,3.2,0.5c-0.1,0.3-0.3,0.7-0.5,0.9c-0.8-0.3-0.2-1.1-0.9-1.5
		c-0.1,0.3,0.3,0.9-0.1,1.3c0.3,0,0.4,0.1,0.4,0.4c1-0.1,1.2,0,1.9,0.4c0.1-0.4,0.3-0.7,0.4-1.1c0.5,0.1,0.5,0.6,0.7,1.1
		c-0.3,0-0.4-0.1-0.4-0.4c-0.2,0.7-0.5,0.4-0.4,1.3c0.2,0,0.4,0,0.7,0c0,0.4,0.4,0.8-0.3,0.8c0.8,0.8,1.8,2.5,0.4,3.3
		c-3-0.8-1.7,2.6-2.8,4c-2.5-0.5-1.5-3.3-3.2-4.5c0-0.3,0.6-0.1,0.8-0.1c-0.5-0.4-1.2-0.5-1.6-0.9c0-0.2,0.1-0.3,0.3-0.4
		c-1-0.4-1.7,0.7-1.9,1.6c-0.7-0.3-0.5-1.3-1.5-1.3c-0.1,5.2,7.4,9,12,5.5c-1-0.7-1.8-1.6-2.1-2.9c0.3-0.3,0.9-0.4,1.5-0.5
		c0.2-1,1.3-1,2.3-1.2c1.6,1.2,0.1,2.2-0.3,3.7c1.2-0.9,1.7-2.3,2.3-3.9c-0.3-0.4-0.8,0.2-0.9,0.4c-0.5-0.5,0.7-0.8,0.3-1.3
		c0.5-0.1,0.4,0.6,0.8,0.3c0-0.4,0-0.7,0-1.1c-0.6,0-1.4-0.1-1.3,0.5c-0.4-0.1,0-0.6,0-0.8c-0.7-0.3-0.6-1.4-1.6-1.5
		C-500,463.8-500.1,463.5-499.9,463.5z M-507.5,464c-0.3,0,0,0.6-0.4,0.5c0.1,0.3,0.8,0.1,1.2,0.1c0-0.2-0.2-0.3-0.1-0.5
		C-507.1,464.2-507.4,464.4-507.5,464z M-505.1,464.1c-0.4,0.2-0.7,0.5-0.9,0.9c-0.1-0.1-0.1-0.3-0.4-0.3c0,0.7-0.8,0.4-1.1,0.5
		c0.1,0.2,0.2,0.3,0.3,0.5c0.5,0,1.1-0.4,1.6,0c0.3-0.2,0.7-0.2,0.7-0.7c0.6-0.1,1,0.1,1.5,0.1c-0.3-0.2-0.5-0.6-0.8-0.9
		c-0.5-0.1-0.7,0.1-0.9,0.3C-505.6,464.5-504.9,464.5-505.1,464.1z M-507.2,466.4c-0.4-0.3-0.6,0.8-0.9,1.1
		C-507.6,467.8-507.6,466.6-507.2,466.4z"/>
	<path id="XMLID_12287_" class="st17" d="M-450.7,416.3c-0.1-0.4-0.4-0.9-0.4-1.5c0.1-1.8,0.9-4,0.9-4s0.5-0.3,0.9-1
		c0.3-0.7,0.2-1.7,0.2-1.7s-0.3-0.2-0.2-0.5c0.1-0.6,0.3-1.5,0.4-2.7c0-0.5,0-0.8,0-1.4c-0.2-2.9-2.5-3.2-3.6-3.5
		c-1.9-0.2-2.5,0-4.1,0.1c-1.6,0.1-2.8-0.6-2.8-0.6s-0.4,2.1-0.3,4.2c0.1,2.1,0.5,4,0.5,4s-0.5,0.1-0.4,1.2c0.1,1.1,1,1.7,1,1.7
		s1.5,3.6,1.1,4.8c-0.3,1.3-3.5,2.6-5.7,4.6c-2.9,1.7-3.4,7.5-3.4,7.5l25.5,0c0,0-0.4-4.9-2.2-7
		C-445.4,418.4-450.3,417.7-450.7,416.3z"/>
	<g id="search_25_">
		<path id="XMLID_12284_" class="st2" d="M-406.4,464.3l-3.9-3.8c0.5-1,0.8-2.2,0.8-3.5c-0.2-3.5-3-6.2-6.3-6.1
			c-3.3,0.1-5.8,3.1-5.6,6.6c0.2,3.5,3,6.2,6.3,6.1c1.2-0.1,2.3-0.5,3.2-1.2l3.9,3.8c0.1,0.1,0.3,0.1,0.4,0l1.2-1.5
			C-406.3,464.6-406.3,464.4-406.4,464.3z M-419.6,457.5c-0.1-2.4,1.6-4.4,3.8-4.5c2.2-0.1,4.2,1.8,4.3,4.2c0.1,2.4-1.6,4.4-3.8,4.5
			C-417.5,461.8-419.5,459.9-419.6,457.5z"/>
	</g>
	<path id="XMLID_12269_" class="st6" d="M-516.3,393.8l-0.3-0.7c-0.2-0.4-0.6-0.5-1-0.3c-0.4,0.2-0.6,0.6-0.4,1l0.1,0.3l-3.4,1.6
		c-0.9,0.4-1.3,1.6-0.8,2.7l3.1,7c0.5,1,1.6,1.5,2.5,1.1l3.8-1.7c0.9-0.4,1.3-1.6,0.8-2.7l-3.1-7
		C-515.3,394.4-515.8,394-516.3,393.8z M-521.4,398.2c-0.3-0.6-0.1-1.4,0.5-1.6l3.7-1.7c0.6-0.3,1.3,0,1.6,0.7l0.9,2
		c0.3,0.6,0.1,1.4-0.5,1.6l-3.7,1.7c-0.6,0.3-1.3,0-1.6-0.7L-521.4,398.2z M-519.1,403.4c0-0.1,0-0.2,0.1-0.2l0.9-0.4
		c0.1,0,0.2,0,0.2,0.1l0.2,0.5c0,0.1,0,0.2-0.1,0.2l-0.9,0.4c-0.1,0-0.2,0-0.2-0.1L-519.1,403.4z M-517.1,404.6c0,0.1,0,0.2-0.1,0.2
		l-0.9,0.4c-0.1,0-0.2,0-0.2-0.1l-0.2-0.5c0-0.1,0-0.2,0.1-0.2l0.9-0.4c0.1,0,0.2,0,0.2,0.1L-517.1,404.6z M-518.2,402.1
		c0,0.1,0,0.2-0.1,0.2l-0.9,0.4c-0.1,0-0.2,0-0.2-0.1l-0.2-0.5c0-0.1,0-0.2,0.1-0.2l0.9-0.4c0.1,0,0.2,0,0.2,0.1L-518.2,402.1z
		 M-517.5,402.7c0-0.1,0-0.2,0.1-0.2l0.9-0.4c0.1,0,0.2,0,0.2,0.1l0.2,0.5c0,0.1,0,0.2-0.1,0.2l-0.9,0.4c-0.1,0-0.2,0-0.2-0.1
		L-517.5,402.7z M-515.6,403.9c0,0.1,0,0.2-0.1,0.2l-0.9,0.4c-0.1,0-0.2,0-0.2-0.1l-0.2-0.5c0-0.1,0-0.2,0.1-0.2l0.9-0.4
		c0.1,0,0.2,0,0.2,0.1L-515.6,403.9z M-516.7,401.4c0,0.1,0,0.2-0.1,0.2l-0.9,0.4c-0.1,0-0.2,0-0.2-0.1l-0.2-0.5
		c0-0.1,0-0.2,0.1-0.2l0.9-0.4c0.1,0,0.2,0,0.2,0.1L-516.7,401.4z M-516,402c0-0.1,0-0.2,0.1-0.2l0.9-0.4c0.1,0,0.2,0,0.2,0.1
		l0.2,0.5c0,0.1,0,0.2-0.1,0.2l-0.9,0.4c-0.1,0-0.2,0-0.2-0.1L-516,402z M-514.1,403.2c0,0.1,0,0.2-0.1,0.2l-0.9,0.4
		c-0.1,0-0.2,0-0.2-0.1l-0.2-0.5c0-0.1,0-0.2,0.1-0.2l0.9-0.4c0.1,0,0.2,0,0.2,0.1L-514.1,403.2z M-515.2,400.7c0,0.1,0,0.2-0.1,0.2
		l-0.9,0.4c-0.1,0-0.2,0-0.2-0.1l-0.2-0.5c0-0.1,0-0.2,0.1-0.2l0.9-0.4c0.1,0,0.2,0,0.2,0.1L-515.2,400.7z M-514.5,401.3
		c0-0.1,0-0.2,0.1-0.2l0.9-0.4c0.1,0,0.2,0,0.2,0.1l0.2,0.5c0,0.1,0,0.2-0.1,0.2l-0.9,0.4c-0.1,0-0.2,0-0.2-0.1L-514.5,401.3z
		 M-512.5,402.5c0,0.1,0,0.2-0.1,0.2l-0.9,0.4c-0.1,0-0.2,0-0.2-0.1l-0.2-0.5c0-0.1,0-0.2,0.1-0.2l0.9-0.4c0.1,0,0.2,0,0.2,0.1
		L-512.5,402.5z M-513.6,400c0,0.1,0,0.2-0.1,0.2l-0.9,0.4c-0.1,0-0.2,0-0.2-0.1l-0.2-0.5c0-0.1,0-0.2,0.1-0.2l0.9-0.4
		c0.1,0,0.2,0,0.2,0.1L-513.6,400z"/>
	<g id="dd_17_">
		<path id="XMLID_12266_" class="st4" d="M-431,328.3c-2.4,0-4.4,2-4.4,4.4c0,0.6,0.3,1.5,0.3,1.5c0.1,0.2,0.2,0.4,0.2,0.6l3.8,8
			c0.1,0.2,0.2,0.2,0.3,0l3.8-8c0.1-0.2,0.2-0.4,0.2-0.6c0,0,0.3-0.9,0.3-1.5C-426.6,330.3-428.6,328.3-431,328.3z M-431,334.7
			c-1.1,0-1.9-0.9-1.9-1.9c0-1.1,0.9-1.9,1.9-1.9s1.9,0.9,1.9,1.9C-429.1,333.8-430,334.7-431,334.7z"/>
	</g>
	<g id="XMLID_12261_">
		<path id="XMLID_12263_" class="st18" d="M-406.5,400.1l-10.5,0.5c-0.7,0-1.3,0.7-1.2,1.4l0.4,8.2c0,0.7,0.6,1.3,1.4,1.2l10.5-0.5
			c0.7,0,1.3-0.7,1.2-1.4l-0.4-8.2C-405.1,400.7-405.7,400.1-406.5,400.1z M-406,409.6l-10.5,0.5l-0.4-8.2l10.5-0.5L-406,409.6z"/>
		<path id="XMLID_12262_" class="st18" d="M-411.6,408l4.5-0.2l-2.4-3.4l-0.6,1l-0.5,0.8l0,0l-0.6,1.1c-0.1,0.1-0.2,0.2-0.3,0.1
			c-0.1-0.1-0.2-0.2-0.1-0.3l0.7-1.3l-1.7-2.4l-2.7,4.9L-411.6,408L-411.6,408z"/>
	</g>
	<g id="XMLID_12258_">
		<polygon id="XMLID_12260_" class="st6" points="-495.2,426.4 -509,426.4 -509,417.2 -502.1,421.8 -495.2,417.2 		"/>
		<polygon id="XMLID_12259_" class="st6" points="-495.2,416 -509,416 -509,416 -502.1,420.5 		"/>
	</g>
	<g id="XMLID_12252_">
		<polygon id="XMLID_12257_" class="st2" points="-375.8,398.2 -380.1,397.9 -379.6,397.1 -376.1,397.4 		"/>
		<path id="XMLID_12254_" class="st2" d="M-374.5,398.3l-6.8-0.5c-0.2,0-0.3,0.1-0.4,0.3l-0.3,4.3c0,0.2,0.1,0.3,0.3,0.4l6.8,0.5
			c0.2,0,0.3-0.1,0.4-0.3l0.3-4.3C-374.2,398.5-374.3,398.4-374.5,398.3z M-378.3,402.6c-1.2-0.1-2.1-1.2-2-2.4
			c0.1-1.2,1.1-2.1,2.4-2c1.2,0.1,2.1,1.2,2,2.4S-377.1,402.7-378.3,402.6z"/>
		<path id="XMLID_12253_" class="st2" d="M-378,398.8c-0.1,0-0.2,0-0.3,0c0.3,0.1,0.6,0.5,0.6,0.8c0,0.5-0.4,0.8-0.9,0.8
			c-0.4,0-0.8-0.4-0.7-0.9c0-0.1,0-0.1,0-0.2c-0.2,0.3-0.4,0.6-0.4,1c-0.1,0.9,0.6,1.7,1.5,1.8c0.9,0.1,1.7-0.6,1.8-1.5
			C-376.4,399.6-377.1,398.8-378,398.8z"/>
	</g>
	<g id="XMLID_12244_">
		
			<rect id="XMLID_12251_" x="-451.3" y="337" transform="matrix(0.7147 -0.6995 0.6995 0.7147 -366.3107 -218.2357)" class="st4" width="1.3" height="5.7"/>
		<polygon id="XMLID_12250_" class="st4" points="-458.3,345.8 -456.8,347.3 -451.2,341.7 -452.7,340.2 		"/>
		<polygon id="XMLID_12249_" class="st4" points="-459.7,344.4 -458.9,345.1 -453.3,339.6 -454.1,338.8 		"/>
		<polygon id="XMLID_12248_" class="st4" points="-456.3,347.9 -455.5,348.7 -449.9,343.1 -450.7,342.3 		"/>
		<polygon id="XMLID_12247_" class="st4" points="-460.6,349.4 -461,349.3 -459.7,344.2 -459.2,344.6 		"/>
		<polygon id="XMLID_12246_" class="st4" points="-461,349.4 -460.9,348.9 -455.9,348.2 -455.5,348.7 		"/>
		<polygon id="XMLID_12245_" class="st4" points="-459,348.8 -460.6,349 -460.4,347.8 -460.1,347.6 		"/>
	</g>
	<linearGradient id="XMLID_9_" gradientUnits="userSpaceOnUse" x1="-432.1821" y1="372.4025" x2="-420.9406" y2="372.4025">
		<stop  offset="0" style="stop-color:#14A2B9"/>
		<stop  offset="0.9939" style="stop-color:#089EB6"/>
	</linearGradient>
	<path id="XMLID_12232_" class="st19" d="M-421.6,366.8h-9.8c-0.4,0-0.7,0.3-0.7,0.7v9.8c0,0.4,0.3,0.7,0.7,0.7h9.8
		c0.4,0,0.7-0.3,0.7-0.7v-9.8C-420.9,367.1-421.3,366.8-421.6,366.8z M-430.1,377.3h-1.4v-1.4h1.4V377.3z M-430.1,374.5h-1.4v-1.4
		h1.4V374.5z M-430.1,371.7h-1.4v-1.4h1.4V371.7z M-430.1,368.9h-1.4v-1.4h1.4V368.9z M-423.8,377.3h-5.6v-3.5h5.6V377.3z
		 M-423.8,373.1h-5.6v-5.6h5.6V373.1z M-421.6,377.3h-1.4v-1.4h1.4V377.3z M-421.6,374.5h-1.4v-1.4h1.4V374.5z M-421.6,371.7h-1.4
		v-1.4h1.4V371.7z M-421.6,368.9h-1.4v-1.4h1.4V368.9z"/>
	<path id="XMLID_12231_" class="st2" d="M-409.8,432.7c0-0.1,0-0.1,0-0.2l0-0.1v-0.1c0-0.1,0-0.1-0.1-0.1l0-0.2
		c0-0.2-0.2-0.3-0.3-0.2l-3.9,0.7c-0.1,0-0.2,0.2-0.1,0.3l0,0.1c0,0,0,0,0,0v3.2c-0.3-0.1-0.7-0.1-1.1,0.1c-0.6,0.3-0.9,1-0.6,1.5
		c0.3,0.5,1.1,0.7,1.7,0.4c0.5-0.3,0.8-0.8,0.7-1.3c0,0,0.1-0.1,0.1-0.1l0-3.2l2.8-0.5l0,2.6c-0.3-0.1-0.7-0.1-1.1,0.1
		c-0.6,0.3-0.9,1-0.6,1.5c0.3,0.5,1.1,0.7,1.7,0.4c0.5-0.3,0.8-0.8,0.7-1.3c0,0,0.1-0.1,0.1-0.1L-409.8,432.7L-409.8,432.7z"/>
	<g id="XMLID_12226_">
		<linearGradient id="XMLID_10_" gradientUnits="userSpaceOnUse" x1="-448.5765" y1="458.859" x2="-439.2241" y2="458.859">
			<stop  offset="0" style="stop-color:#DE2666"/>
			<stop  offset="1" style="stop-color:#D0134E"/>
		</linearGradient>
		<polygon id="XMLID_12230_" class="st20" points="-448.6,460.1 -439.7,456.4 -439.2,457.6 -448.1,461.3 		"/>
		<linearGradient id="XMLID_11_" gradientUnits="userSpaceOnUse" x1="-447.5303" y1="462.9168" x2="-436.8926" y2="462.9168">
			<stop  offset="0" style="stop-color:#DE2666"/>
			<stop  offset="1" style="stop-color:#D0134E"/>
		</linearGradient>
		<path id="XMLID_12227_" class="st21" d="M-438.2,463.8l1.3-0.6l-1.8-4.3l-1.3,0.6l0.9,2.1l0,0l0,0l1,0.5l-0.3,1.1l0,0
			L-438.2,463.8z M-445.7,466.9l7.5-3.1l-0.3-0.6l-1-0.5l0.3-1.1l-0.9-2.1l-7.5,3.1L-445.7,466.9z"/>
	</g>
	<g id="XMLID_12222_">
		<path id="XMLID_12225_" class="st6" d="M-533.4,383.9c0.5,0,0.9,0.4,0.9,0.8c0,0.4-0.4,0.8-0.9,0.8c-0.5,0-0.9-0.4-0.9-0.8
			C-534.2,384.3-533.8,383.9-533.4,383.9z"/>
		<path id="XMLID_12224_" class="st6" d="M-531.4,385.4h1.5c0-2.2-1.8-4.1-4.1-4.1v1.5C-532.6,382.9-531.4,384-531.4,385.4z"/>
		<path id="XMLID_12223_" class="st6" d="M-533.9,380.3c2.8,0,5.1,2.3,5.1,5c0,0,0,0.1,0,0.1h1.6c0-3.8-3.1-6.9-7-6.9v1.7
			C-534,380.3-533.9,380.3-533.9,380.3z"/>
	</g>
	<g id="XMLID_12216_">
		<path id="XMLID_12221_" class="st5" d="M-468.9,368.8c1,0.9,2.3,1.5,3.7,1.5c3,0,5.3-2.4,5.3-5.3h-5.3L-468.9,368.8z"/>
		<path id="XMLID_12218_" class="st5" d="M-464.2,359.5c1,0.2,1.9,0.6,2.6,1.3c0.7,0.7,1.2,1.6,1.4,2.6h-4V359.5 M-464.7,358.9v5
			h5.1C-459.8,361.2-462,359-464.7,358.9L-464.7,358.9z"/>
		<path id="XMLID_12217_" class="st5" d="M-465.9,364.1v-5c-2.8,0.2-5,2.5-5,5.3c0,1.3,0.5,2.5,1.3,3.5L-465.9,364.1z"/>
	</g>
	<path id="XMLID_12213_" class="st5" d="M-487.5,384h-0.9v-2.3c0-1.3-0.9-2.3-2-2.3h-1.3c-1.1,0-2,1-2,2.3v2.3h-0.9
		c-0.1,0-0.3,0.1-0.3,0.2v5.8c0,0.1,0.1,0.2,0.3,0.2l7,0c0.1,0,0.3-0.1,0.3-0.2l0-5.8C-487.3,384.1-487.4,384-487.5,384z
		 M-492.6,382c0-1,0.5-1.8,1.1-1.8h0.7c0.6,0,1.1,0.8,1.1,1.8v2h-3L-492.6,382L-492.6,382z"/>
	<g id="iphone_6_">
		<g id="body_6_">
			<path id="XMLID_12209_" class="st2" d="M-385.7,443.3l-3.7-1.9c-0.6-0.3-1.3,0-1.3,0l-3.8,8.1c-0.5,1.1-0.3,1.8,0.3,2.1l3.7,1.9
				c0.6,0.3,1.3,0,1.8-1.1l3.8-8.1C-384.9,444.3-385.1,443.6-385.7,443.3z M-392.2,452.3c-0.4-0.2-0.6-0.7-0.4-1.1
				c0.2-0.4,0.7-0.6,1.1-0.4c0.4,0.2,0.6,0.7,0.4,1.1C-391.3,452.4-391.8,452.5-392.2,452.3z M-393.4,449.4l3.2-6.9l4.1,2.1
				l-3.2,6.9L-393.4,449.4L-393.4,449.4z"/>
		</g>
	</g>
	<linearGradient id="XMLID_12_" gradientUnits="userSpaceOnUse" x1="-522.5329" y1="439.2981" x2="-509.1965" y2="439.2981">
		<stop  offset="0" style="stop-color:#DE2666"/>
		<stop  offset="1" style="stop-color:#D0134E"/>
	</linearGradient>
	<path id="XMLID_12208_" class="st22" d="M-510.8,442.4c1-0.4,1.6-1.3,1.6-2.2c0-1.4-1.4-2.6-3.2-2.6c-0.1,0-0.2,0-0.3,0
		c0,0,0,0,0,0c0-1.8-2.2-3.3-4.9-3.3c-2.7,0-4.9,1.5-4.9,3.3c0,1.2,1,2.3,2.5,2.9c0.3,0.1-0.6,2.6-0.6,2.6l3.1-2.1c0,0,0.4,0,0.6,0
		c0.5,0,1-0.1,1.5-0.3c0.2,1.1,1.3,2,2.7,2.1c0.1,0,0.4,0,0.4,0l2,1.6C-510.4,444.4-511,442.5-510.8,442.4z"/>
	<g id="XMLID_12205_">
		<linearGradient id="XMLID_13_" gradientUnits="userSpaceOnUse" x1="-454.0779" y1="479.6229" x2="-448.3816" y2="479.6229">
			<stop  offset="0" style="stop-color:#DE2666"/>
			<stop  offset="1" style="stop-color:#D0134E"/>
		</linearGradient>
		<path id="XMLID_12207_" class="st23" d="M-450.6,478.4v-2.2h-3.4c-0.1,0-0.1,0.1-0.1,0.1v6.7c0,0.1,0.1,0.1,0.1,0.1l5.5,0
			c0.1,0,0.1-0.1,0.1-0.1l0-4.6L-450.6,478.4L-450.6,478.4z"/>
		<linearGradient id="XMLID_14_" gradientUnits="userSpaceOnUse" x1="-450.1775" y1="476.9969" x2="-448.3905" y2="476.9969">
			<stop  offset="0" style="stop-color:#DE2666"/>
			<stop  offset="1" style="stop-color:#D0134E"/>
		</linearGradient>
		<polygon id="XMLID_12206_" class="st24" points="-448.4,477.9 -450.2,477.9 -450.2,476.1 		"/>
	</g>
	<g id="XMLID_12113_" class="st25">
		<path id="XMLID_12204_" class="st26" d="M-399.3,355.4l20.2,0l-4.4-7.8h0c0-0.1,0-0.1,0-0.2v-17.2c0-0.7-0.5-1.2-1.1-1.2h-26.7
			c-0.6,0-1.1,0.5-1.1,1.2v17.2c0,0.1,0,0.1,0,0.2l0-0.2l-4.5,8.1h0c0,0.4,0.4,0.8,1,0.8h35.9c0.5,0,1-0.4,1-0.8H-399.3z"/>
		<path id="XMLID_12203_" class="st27" d="M-383.2,346.7c0,0.7-0.5,1.2-1.1,1.2h-26.7c-0.6,0-1.1-0.5-1.1-1.2v-17.1
			c0-0.7,0.5-1.2,1.1-1.2h26.7c0.6,0,1.1,0.5,1.1,1.2V346.7z"/>
		<polygon id="XMLID_12202_" class="st27" points="-412.2,346.9 -416.7,354.7 -378.9,354.6 -383.2,346.9 		"/>
		<path id="XMLID_12201_" class="st27" d="M-378.8,354.7L-378.8,354.7c0,0.4-0.4,0.8-1,0.8h-36c-0.5,0-1-0.4-1-0.8l0,0"/>
		<rect id="XMLID_12200_" x="-410.6" y="330" class="st28" width="25.8" height="15.4"/>
		<g id="XMLID_12114_">
			<g class="st29">
				<polygon id="XMLID_1531_" class="st30" points="-410.3,350.1 -411.2,350.1 -410.8,349.2 -409.9,349.2 				"/>
				<polygon id="XMLID_1530_" class="st30" points="-409.6,351.4 -411.7,351.4 -411.3,350.4 -409.3,350.4 				"/>
				<polygon id="XMLID_1529_" class="st30" points="-410,352.7 -412.2,352.7 -411.8,351.7 -409.7,351.7 				"/>
				<polygon id="XMLID_1528_" class="st30" points="-409.3,350.1 -410.1,350.1 -409.8,349.2 -408.9,349.2 				"/>
				<polygon id="XMLID_1527_" class="st30" points="-408.2,350.1 -409.1,350.1 -408.7,349.2 -407.9,349.2 				"/>
				<polygon id="XMLID_1526_" class="st30" points="-407.1,350.1 -408,350.1 -407.7,349.2 -406.9,349.2 				"/>
				<polygon id="XMLID_1525_" class="st30" points="-406.1,350.1 -406.9,350.1 -406.7,349.2 -405.8,349.2 				"/>
				<polygon id="XMLID_1524_" class="st30" points="-405,350.1 -405.9,350.1 -405.7,349.2 -404.8,349.2 				"/>
				<polygon id="XMLID_1523_" class="st30" points="-403.9,350.1 -404.8,350.1 -404.6,349.2 -403.8,349.2 				"/>
				<polygon id="XMLID_1522_" class="st30" points="-402.9,350.1 -403.8,350.1 -403.6,349.2 -402.7,349.2 				"/>
				<polygon id="XMLID_1521_" class="st30" points="-401.8,350.1 -402.7,350.1 -402.6,349.2 -401.7,349.2 				"/>
				<polygon id="XMLID_1520_" class="st30" points="-400.7,350.1 -401.6,350.1 -401.5,349.2 -400.7,349.2 				"/>
				<polygon id="XMLID_1519_" class="st30" points="-399.7,350.1 -400.6,350.1 -400.5,349.2 -399.7,349.2 				"/>
				<polygon id="XMLID_1518_" class="st30" points="-398.6,350.1 -399.5,350.1 -399.5,349.2 -398.6,349.2 				"/>
				<polygon id="XMLID_1517_" class="st30" points="-397.6,350.1 -398.4,350.1 -398.5,349.2 -397.6,349.2 				"/>
				<polygon id="XMLID_1516_" class="st30" points="-396.5,350.1 -397.4,350.1 -397.4,349.2 -396.6,349.2 				"/>
				<polygon id="XMLID_1515_" class="st30" points="-395.4,350.1 -396.3,350.1 -396.4,349.2 -395.5,349.2 				"/>
				<polygon id="XMLID_1514_" class="st30" points="-394.4,350.1 -395.3,350.1 -395.4,349.2 -394.5,349.2 				"/>
				<polygon id="XMLID_1513_" class="st30" points="-393.3,350.1 -394.2,350.1 -394.3,349.2 -393.5,349.2 				"/>
				<polygon id="XMLID_1512_" class="st30" points="-392.2,350.1 -393.1,350.1 -393.3,349.2 -392.5,349.2 				"/>
				<polygon id="XMLID_1511_" class="st30" points="-391.2,350.1 -392.1,350.1 -392.3,349.2 -391.4,349.2 				"/>
				<polygon id="XMLID_1510_" class="st30" points="-390.1,350.1 -391,350.1 -391.3,349.2 -390.4,349.2 				"/>
				<polygon id="XMLID_1509_" class="st30" points="-389.1,350.1 -389.9,350.1 -390.2,349.2 -389.4,349.2 				"/>
				<polygon id="XMLID_1508_" class="st30" points="-388,350.1 -388.9,350.1 -389.2,349.2 -388.3,349.2 				"/>
				<polygon id="XMLID_1507_" class="st30" points="-386.9,350.1 -387.8,350.1 -388.2,349.2 -387.3,349.2 				"/>
				<polygon id="XMLID_1506_" class="st30" points="-385.9,350.1 -386.7,350.1 -387.1,349.2 -386.3,349.2 				"/>
				<polygon id="XMLID_1505_" class="st30" points="-384.8,350.1 -385.7,350.1 -386.1,349.2 -385.3,349.2 				"/>
				<polygon id="XMLID_1504_" class="st30" points="-411.8,353.9 -412.8,353.9 -412.4,353 -411.4,353 				"/>
				<polygon id="XMLID_1503_" class="st30" points="-410.6,353.9 -411.6,353.9 -411.2,353 -410.2,353 				"/>
				<polygon id="XMLID_1502_" class="st30" points="-409.4,353.9 -410.4,353.9 -410,353 -409.1,353 				"/>
				<polygon id="XMLID_1501_" class="st30" points="-408.2,353.9 -409.2,353.9 -408.9,353 -407.9,353 				"/>
				<polygon id="XMLID_1500_" class="st30" points="-407,353.9 -408,353.9 -407.7,353 -406.7,353 				"/>
				<polygon id="XMLID_1499_" class="st30" points="-405.8,353.9 -406.8,353.9 -406.5,353 -405.6,353 				"/>
				<polygon id="XMLID_1498_" class="st30" points="-390.2,353.9 -405.5,353.9 -405.3,353 -390.5,353 				"/>
				<polygon id="XMLID_1497_" class="st30" points="-389,353.9 -390,353.9 -390.2,353 -389.3,353 				"/>
				<polygon id="XMLID_1496_" class="st30" points="-387.8,353.9 -388.8,353.9 -389.1,353 -388.1,353 				"/>
				<polygon id="XMLID_1495_" class="st30" points="-386.6,353.9 -387.6,353.9 -387.9,353 -386.9,353 				"/>
				<polygon id="XMLID_1494_" class="st30" points="-385.4,353.9 -386.4,353.9 -386.7,353 -385.8,353 				"/>
				<polygon id="XMLID_1493_" class="st30" points="-384.2,353.9 -385.2,353.9 -385.6,353 -384.6,353 				"/>
				<polygon id="XMLID_1492_" class="st30" points="-383,353.9 -384,353.9 -384.4,353 -383.4,353 				"/>
				<polygon id="XMLID_1491_" class="st30" points="-408.6,351.4 -409.5,351.4 -409.2,350.4 -408.3,350.4 				"/>
				<polygon id="XMLID_1490_" class="st30" points="-407.5,351.4 -408.4,351.4 -408.1,350.4 -407.2,350.4 				"/>
				<polygon id="XMLID_1489_" class="st30" points="-406.4,351.4 -407.3,351.4 -407,350.4 -406.1,350.4 				"/>
				<polygon id="XMLID_1488_" class="st30" points="-405.2,351.4 -406.2,351.4 -405.9,350.4 -405.1,350.4 				"/>
				<polygon id="XMLID_1487_" class="st30" points="-404.1,351.4 -405.1,351.4 -404.9,350.4 -404,350.4 				"/>
				<polygon id="XMLID_1486_" class="st30" points="-403,351.4 -404,351.4 -403.8,350.4 -402.9,350.4 				"/>
				<polygon id="XMLID_1485_" class="st30" points="-401.9,351.4 -402.8,351.4 -402.7,350.4 -401.8,350.4 				"/>
				<polygon id="XMLID_1484_" class="st30" points="-400.8,351.4 -401.7,351.4 -401.7,350.4 -400.8,350.4 				"/>
				<polygon id="XMLID_1483_" class="st30" points="-399.7,351.4 -400.6,351.4 -400.6,350.4 -399.7,350.4 				"/>
				<polygon id="XMLID_1482_" class="st30" points="-398.6,351.4 -399.5,351.4 -399.5,350.4 -398.6,350.4 				"/>
				<polygon id="XMLID_1481_" class="st30" points="-397.5,351.4 -398.4,351.4 -398.4,350.4 -397.5,350.4 				"/>
				<polygon id="XMLID_1480_" class="st30" points="-396.4,351.4 -397.3,351.4 -397.4,350.4 -396.5,350.4 				"/>
				<polygon id="XMLID_1479_" class="st30" points="-395.3,351.4 -396.2,351.4 -396.3,350.4 -395.4,350.4 				"/>
				<polygon id="XMLID_1478_" class="st30" points="-394.2,351.4 -395.1,351.4 -395.2,350.4 -394.3,350.4 				"/>
				<polygon id="XMLID_1477_" class="st30" points="-393.1,351.4 -394,351.4 -394.1,350.4 -393.3,350.4 				"/>
				<polygon id="XMLID_1476_" class="st30" points="-392,351.4 -392.9,351.4 -393.1,350.4 -392.2,350.4 				"/>
				<polygon id="XMLID_1475_" class="st30" points="-390.9,351.4 -391.8,351.4 -392,350.4 -391.1,350.4 				"/>
				<polygon id="XMLID_1474_" class="st30" points="-389.7,351.4 -390.7,351.4 -390.9,350.4 -390,350.4 				"/>
				<polygon id="XMLID_1473_" class="st30" points="-388.6,351.4 -389.6,351.4 -389.9,350.4 -389,350.4 				"/>
				<polygon id="XMLID_1472_" class="st30" points="-387.5,351.4 -388.5,351.4 -388.8,350.4 -387.9,350.4 				"/>
				<polygon id="XMLID_1471_" class="st30" points="-386.4,351.4 -387.3,351.4 -387.7,350.4 -386.8,350.4 				"/>
				<polygon id="XMLID_1470_" class="st30" points="-385.3,351.4 -386.2,351.4 -386.6,350.4 -385.7,350.4 				"/>
				<polygon id="XMLID_1469_" class="st30" points="-383.6,352.6 -384.6,352.6 -385.6,350.4 -384.7,350.4 				"/>
				<polygon id="XMLID_1468_" class="st30" points="-409,352.7 -410,352.7 -409.6,351.7 -408.7,351.7 				"/>
				<polygon id="XMLID_1467_" class="st30" points="-407.8,352.7 -408.8,352.7 -408.5,351.7 -407.6,351.7 				"/>
				<polygon id="XMLID_1466_" class="st30" points="-406.7,352.7 -407.6,352.7 -407.4,351.7 -406.4,351.7 				"/>
				<polygon id="XMLID_1465_" class="st30" points="-405.5,352.7 -406.5,352.7 -406.3,351.7 -405.3,351.7 				"/>
				<polygon id="XMLID_1464_" class="st30" points="-404.4,352.7 -405.3,352.7 -405.1,351.7 -404.2,351.7 				"/>
				<polygon id="XMLID_1463_" class="st30" points="-403.2,352.7 -404.2,352.7 -404,351.7 -403.1,351.7 				"/>
				<polygon id="XMLID_1462_" class="st30" points="-402.1,352.7 -403,352.7 -402.9,351.7 -402,351.7 				"/>
				<polygon id="XMLID_1461_" class="st30" points="-400.9,352.7 -401.9,352.7 -401.8,351.7 -400.8,351.7 				"/>
				<polygon id="XMLID_1460_" class="st30" points="-399.7,352.7 -400.7,352.7 -400.7,351.7 -399.7,351.7 				"/>
				<polygon id="XMLID_1459_" class="st30" points="-398.6,352.7 -399.6,352.7 -399.5,351.7 -398.6,351.7 				"/>
				<polygon id="XMLID_1458_" class="st30" points="-397.4,352.7 -398.4,352.7 -398.4,351.7 -397.5,351.7 				"/>
				<polygon id="XMLID_1457_" class="st30" points="-396.3,352.7 -397.2,352.7 -397.3,351.7 -396.4,351.7 				"/>
				<polygon id="XMLID_1456_" class="st30" points="-395.1,352.7 -396.1,352.7 -396.2,351.7 -395.2,351.7 				"/>
				<polygon id="XMLID_1455_" class="st30" points="-394,352.7 -394.9,352.7 -395.1,351.7 -394.1,351.7 				"/>
				<polygon id="XMLID_1454_" class="st30" points="-392.8,352.7 -393.8,352.7 -393.9,351.7 -393,351.7 				"/>
				<polygon id="XMLID_1453_" class="st30" points="-391.7,352.7 -392.6,352.7 -392.8,351.7 -391.9,351.7 				"/>
				<polygon id="XMLID_1452_" class="st30" points="-390.5,352.7 -391.5,352.7 -391.7,351.7 -390.8,351.7 				"/>
				<polygon id="XMLID_1451_" class="st30" points="-389.3,352.7 -390.3,352.7 -390.6,351.7 -389.6,351.7 				"/>
				<polygon id="XMLID_1450_" class="st30" points="-388.2,352.7 -389.2,352.7 -389.4,351.7 -388.5,351.7 				"/>
				<polygon id="XMLID_1449_" class="st30" points="-387,352.7 -388,352.7 -388.3,351.7 -387.4,351.7 				"/>
				<polygon id="XMLID_1448_" class="st30" points="-385.9,352.7 -386.8,352.7 -387.2,351.7 -386.3,351.7 				"/>
				<polygon id="XMLID_1447_" class="st30" points="-384.7,352.7 -385.7,352.7 -386.1,351.7 -385.2,351.7 				"/>
			</g>
			<g>
				<g>
					<polygon id="XMLID_1276_" class="st31" points="-410.3,349.1 -411.2,349.1 -410.8,348.2 -409.9,348.2 					"/>
					<polygon id="XMLID_1275_" class="st31" points="-409.6,350.4 -411.7,350.4 -411.3,349.4 -409.3,349.4 					"/>
					<polygon id="XMLID_1274_" class="st31" points="-410,351.7 -412.2,351.7 -411.8,350.7 -409.7,350.7 					"/>
					<polygon id="XMLID_1273_" class="st31" points="-409.3,349.1 -410.1,349.1 -409.8,348.2 -408.9,348.2 					"/>
					<polygon id="XMLID_1272_" class="st31" points="-408.2,349.1 -409.1,349.1 -408.7,348.2 -407.9,348.2 					"/>
					<polygon id="XMLID_1271_" class="st31" points="-407.1,349.1 -408,349.1 -407.7,348.2 -406.9,348.2 					"/>
					<polygon id="XMLID_1270_" class="st31" points="-406.1,349.1 -406.9,349.1 -406.7,348.2 -405.8,348.2 					"/>
					<polygon id="XMLID_1269_" class="st31" points="-405,349.1 -405.9,349.1 -405.7,348.2 -404.8,348.2 					"/>
					<polygon id="XMLID_1268_" class="st31" points="-403.9,349.1 -404.8,349.1 -404.6,348.2 -403.8,348.2 					"/>
					<polygon id="XMLID_1267_" class="st31" points="-402.9,349.1 -403.8,349.1 -403.6,348.2 -402.7,348.2 					"/>
					<polygon id="XMLID_1266_" class="st31" points="-401.8,349.1 -402.7,349.1 -402.6,348.2 -401.7,348.2 					"/>
					<polygon id="XMLID_1265_" class="st31" points="-400.7,349.1 -401.6,349.1 -401.5,348.2 -400.7,348.2 					"/>
					<polygon id="XMLID_1264_" class="st31" points="-399.7,349.1 -400.6,349.1 -400.5,348.2 -399.7,348.2 					"/>
					<polygon id="XMLID_1263_" class="st31" points="-398.6,349.1 -399.5,349.1 -399.5,348.2 -398.6,348.2 					"/>
					<polygon id="XMLID_1262_" class="st31" points="-397.6,349.1 -398.4,349.1 -398.5,348.2 -397.6,348.2 					"/>
					<polygon id="XMLID_1261_" class="st31" points="-396.5,349.1 -397.4,349.1 -397.4,348.2 -396.6,348.2 					"/>
					<polygon id="XMLID_1260_" class="st31" points="-395.4,349.1 -396.3,349.1 -396.4,348.2 -395.5,348.2 					"/>
					<polygon id="XMLID_1259_" class="st31" points="-394.4,349.1 -395.3,349.1 -395.4,348.2 -394.5,348.2 					"/>
					<polygon id="XMLID_1258_" class="st31" points="-393.3,349.1 -394.2,349.1 -394.3,348.2 -393.5,348.2 					"/>
					<polygon id="XMLID_1257_" class="st31" points="-392.2,349.1 -393.1,349.1 -393.3,348.2 -392.5,348.2 					"/>
					<polygon id="XMLID_1256_" class="st31" points="-391.2,349.1 -392.1,349.1 -392.3,348.2 -391.4,348.2 					"/>
					<polygon id="XMLID_1255_" class="st31" points="-390.1,349.1 -391,349.1 -391.3,348.2 -390.4,348.2 					"/>
					<polygon id="XMLID_1254_" class="st31" points="-389.1,349.1 -389.9,349.1 -390.2,348.2 -389.4,348.2 					"/>
					<polygon id="XMLID_1253_" class="st31" points="-388,349.1 -388.9,349.1 -389.2,348.2 -388.3,348.2 					"/>
					<polygon id="XMLID_1252_" class="st31" points="-386.9,349.1 -387.8,349.1 -388.2,348.2 -387.3,348.2 					"/>
					<polygon id="XMLID_1251_" class="st31" points="-385.9,349.1 -386.7,349.1 -387.1,348.2 -386.3,348.2 					"/>
					<polygon id="XMLID_1250_" class="st31" points="-384.8,349.1 -385.7,349.1 -386.1,348.2 -385.3,348.2 					"/>
					<polygon id="XMLID_1249_" class="st31" points="-411.8,352.9 -412.8,352.9 -412.4,352 -411.4,352 					"/>
					<polygon id="XMLID_1248_" class="st31" points="-410.6,352.9 -411.6,352.9 -411.2,352 -410.2,352 					"/>
					<polygon id="XMLID_1247_" class="st31" points="-409.4,352.9 -410.4,352.9 -410,352 -409.1,352 					"/>
					<polygon id="XMLID_1246_" class="st31" points="-408.2,352.9 -409.2,352.9 -408.9,352 -407.9,352 					"/>
					<polygon id="XMLID_1245_" class="st31" points="-407,352.9 -408,352.9 -407.7,352 -406.7,352 					"/>
					<polygon id="XMLID_1244_" class="st31" points="-405.8,352.9 -406.8,352.9 -406.5,352 -405.6,352 					"/>
					<polygon id="XMLID_1243_" class="st31" points="-390.2,352.9 -405.5,352.9 -405.3,352 -390.5,352 					"/>
					<polygon id="XMLID_1242_" class="st31" points="-389,352.9 -390,352.9 -390.2,352 -389.3,352 					"/>
					<polygon id="XMLID_1241_" class="st31" points="-387.8,352.9 -388.8,352.9 -389.1,352 -388.1,352 					"/>
					<polygon id="XMLID_1240_" class="st31" points="-386.6,352.9 -387.6,352.9 -387.9,352 -386.9,352 					"/>
					<polygon id="XMLID_1239_" class="st31" points="-385.4,352.9 -386.4,352.9 -386.7,352 -385.8,352 					"/>
					<polygon id="XMLID_1238_" class="st31" points="-384.2,352.9 -385.2,352.9 -385.6,352 -384.6,352 					"/>
					<polygon id="XMLID_1237_" class="st31" points="-383,352.9 -384,352.9 -384.4,352 -383.4,352 					"/>
					<polygon id="XMLID_1236_" class="st31" points="-408.6,350.4 -409.5,350.4 -409.2,349.4 -408.3,349.4 					"/>
					<polygon id="XMLID_1235_" class="st31" points="-407.5,350.4 -408.4,350.4 -408.1,349.4 -407.2,349.4 					"/>
					<polygon id="XMLID_1234_" class="st31" points="-406.4,350.4 -407.3,350.4 -407,349.4 -406.1,349.4 					"/>
					<polygon id="XMLID_1233_" class="st31" points="-405.2,350.4 -406.2,350.4 -405.9,349.4 -405.1,349.4 					"/>
					<polygon id="XMLID_1232_" class="st31" points="-404.1,350.4 -405.1,350.4 -404.9,349.4 -404,349.4 					"/>
					<polygon id="XMLID_1231_" class="st31" points="-403,350.4 -404,350.4 -403.8,349.4 -402.9,349.4 					"/>
					<polygon id="XMLID_1230_" class="st31" points="-401.9,350.4 -402.8,350.4 -402.7,349.4 -401.8,349.4 					"/>
					<polygon id="XMLID_1229_" class="st31" points="-400.8,350.4 -401.7,350.4 -401.7,349.4 -400.8,349.4 					"/>
					<polygon id="XMLID_1228_" class="st31" points="-399.7,350.4 -400.6,350.4 -400.6,349.4 -399.7,349.4 					"/>
					<polygon id="XMLID_1227_" class="st31" points="-398.6,350.4 -399.5,350.4 -399.5,349.4 -398.6,349.4 					"/>
					<polygon id="XMLID_1226_" class="st31" points="-397.5,350.4 -398.4,350.4 -398.4,349.4 -397.5,349.4 					"/>
					<polygon id="XMLID_1225_" class="st31" points="-396.4,350.4 -397.3,350.4 -397.4,349.4 -396.5,349.4 					"/>
					<polygon id="XMLID_1224_" class="st31" points="-395.3,350.4 -396.2,350.4 -396.3,349.4 -395.4,349.4 					"/>
					<polygon id="XMLID_1223_" class="st31" points="-394.2,350.4 -395.1,350.4 -395.2,349.4 -394.3,349.4 					"/>
					<polygon id="XMLID_1222_" class="st31" points="-393.1,350.4 -394,350.4 -394.1,349.4 -393.3,349.4 					"/>
					<polygon id="XMLID_1221_" class="st31" points="-392,350.4 -392.9,350.4 -393.1,349.4 -392.2,349.4 					"/>
					<polygon id="XMLID_1220_" class="st31" points="-390.9,350.4 -391.8,350.4 -392,349.4 -391.1,349.4 					"/>
					<polygon id="XMLID_1219_" class="st31" points="-389.7,350.4 -390.7,350.4 -390.9,349.4 -390,349.4 					"/>
					<polygon id="XMLID_1218_" class="st31" points="-388.6,350.4 -389.6,350.4 -389.9,349.4 -389,349.4 					"/>
					<polygon id="XMLID_1217_" class="st31" points="-387.5,350.4 -388.5,350.4 -388.8,349.4 -387.9,349.4 					"/>
					<polygon id="XMLID_1216_" class="st31" points="-386.4,350.4 -387.3,350.4 -387.7,349.4 -386.8,349.4 					"/>
					<polygon id="XMLID_1215_" class="st31" points="-385.3,350.4 -386.2,350.4 -386.6,349.4 -385.7,349.4 					"/>
					<polygon id="XMLID_1214_" class="st31" points="-383.6,351.6 -384.6,351.6 -385.6,349.4 -384.7,349.4 					"/>
					<polygon id="XMLID_1213_" class="st31" points="-409,351.7 -410,351.7 -409.6,350.7 -408.7,350.7 					"/>
					<polygon id="XMLID_1212_" class="st31" points="-407.8,351.7 -408.8,351.7 -408.5,350.7 -407.6,350.7 					"/>
					<polygon id="XMLID_1211_" class="st31" points="-406.7,351.7 -407.6,351.7 -407.4,350.7 -406.4,350.7 					"/>
					<polygon id="XMLID_1210_" class="st31" points="-405.5,351.7 -406.5,351.7 -406.3,350.7 -405.3,350.7 					"/>
					<polygon id="XMLID_1209_" class="st31" points="-404.4,351.7 -405.3,351.7 -405.1,350.7 -404.2,350.7 					"/>
					<polygon id="XMLID_1208_" class="st31" points="-403.2,351.7 -404.2,351.7 -404,350.7 -403.1,350.7 					"/>
					<polygon id="XMLID_1207_" class="st31" points="-402.1,351.7 -403,351.7 -402.9,350.7 -402,350.7 					"/>
					<polygon id="XMLID_1206_" class="st31" points="-400.9,351.7 -401.9,351.7 -401.8,350.7 -400.8,350.7 					"/>
					<polygon id="XMLID_1205_" class="st31" points="-399.7,351.7 -400.7,351.7 -400.7,350.7 -399.7,350.7 					"/>
					<polygon id="XMLID_1204_" class="st31" points="-398.6,351.7 -399.6,351.7 -399.5,350.7 -398.6,350.7 					"/>
					<polygon id="XMLID_1203_" class="st31" points="-397.4,351.7 -398.4,351.7 -398.4,350.7 -397.5,350.7 					"/>
					<polygon id="XMLID_1202_" class="st31" points="-396.3,351.7 -397.2,351.7 -397.3,350.7 -396.4,350.7 					"/>
					<polygon id="XMLID_1201_" class="st31" points="-395.1,351.7 -396.1,351.7 -396.2,350.7 -395.2,350.7 					"/>
					<polygon id="XMLID_1200_" class="st31" points="-394,351.7 -394.9,351.7 -395.1,350.7 -394.1,350.7 					"/>
					<polygon id="XMLID_1199_" class="st31" points="-392.8,351.7 -393.8,351.7 -393.9,350.7 -393,350.7 					"/>
					<polygon id="XMLID_1198_" class="st31" points="-391.7,351.7 -392.6,351.7 -392.8,350.7 -391.9,350.7 					"/>
					<polygon id="XMLID_1197_" class="st31" points="-390.5,351.7 -391.5,351.7 -391.7,350.7 -390.8,350.7 					"/>
					<polygon id="XMLID_1196_" class="st31" points="-389.3,351.7 -390.3,351.7 -390.6,350.7 -389.6,350.7 					"/>
					<polygon id="XMLID_1195_" class="st31" points="-388.2,351.7 -389.2,351.7 -389.4,350.7 -388.5,350.7 					"/>
					<polygon id="XMLID_1194_" class="st31" points="-387,351.7 -388,351.7 -388.3,350.7 -387.4,350.7 					"/>
					<polygon id="XMLID_1193_" class="st31" points="-385.9,351.7 -386.8,351.7 -387.2,350.7 -386.3,350.7 					"/>
					<polygon id="XMLID_1192_" class="st31" points="-384.7,351.7 -385.7,351.7 -386.1,350.7 -385.2,350.7 					"/>
				</g>
			</g>
		</g>
	</g>
	<rect id="XMLID_12112_" x="-479.4" y="457.8" class="st31" width="16.7" height="22.8"/>
	<path id="XMLID_12109_" class="st17" d="M-462.5,457.2h-16.8c-0.6,0-1.1,0.5-1.1,1.1v22.3c0,0.6,0.5,1.1,1.1,1.1h16.8
		c0.6,0,1.1-0.5,1.1-1.1v-22.3C-461.4,457.7-461.9,457.2-462.5,457.2z M-463.5,479.6h-14.9v-20.4h14.9V479.6z"/>
	<path id="XMLID_12106_" class="st17" d="M-374.3,410.9h-28c-0.4,0-0.7,0.3-0.7,0.8v20.1c0,0.4,0.3,0.8,0.7,0.8h28
		c0.4,0,0.7-0.3,0.7-0.8v-20.1C-373.7,411.2-374,410.9-374.3,410.9z M-375,429.8h-26.7v-17.5h26.7V429.8z"/>
	<polygon id="XMLID_12105_" class="st27" points="-391.1,432.4 -385.8,432.4 -383.3,435.1 -393.6,435.1 	"/>
	<path id="XMLID_12104_" class="st27" d="M-396.2,434.3h16c0.2,0,0.4,0.3,0.4,0.7v0c0,0.4-0.2,0.7-0.4,0.7h-16
		c-0.2,0-0.4-0.3-0.4-0.7v0C-396.6,434.6-396.4,434.3-396.2,434.3z"/>
	<path id="XMLID_12103_" class="st27" d="M-379.9,434.3c0,0.4-0.2,0.7-0.4,0.7h-16c-0.2,0-0.4-0.3-0.4-0.7H-379.9z"/>
	<rect id="XMLID_12102_" x="-401.7" y="412.3" class="st31" width="26.7" height="17.5"/>
	<path id="XMLID_12101_" class="st17" d="M-522.6,363.1h5.8c1.1,0,2.1,0.8,2.1,1.8v13.3c0,1-0.9,1.8-2.1,1.8h-5.8
		c-1.1,0-2.1-0.8-2.1-1.8v-13.3C-524.6,363.9-523.7,363.1-522.6,363.1z"/>
	<path id="XMLID_12100_" class="st32" d="M-523.7,364.5h8.1c0,0,0,0,0,0V378c0,0,0,0,0,0h-8.1c0,0,0,0,0,0L-523.7,364.5
		C-523.7,364.5-523.7,364.5-523.7,364.5z"/>
	<path id="XMLID_10511_" class="st5" d="M-490.3,344h-8.3c-0.5,0-0.8,0.3-0.8,0.6v16.1c0,0.3,0.4,0.6,0.8,0.6h8.3
		c0.5,0,0.8-0.3,0.8-0.6v-16.1C-489.4,344.3-489.8,344-490.3,344z M-498.4,346c0-0.3,0.3-0.5,0.6-0.5h6.6c0.3,0,0.6,0.2,0.6,0.5v1.5
		c0,0.3-0.3,0.5-0.6,0.5h-6.6c-0.3,0-0.6-0.2-0.6-0.5V346z M-494.3,358.9c-0.7,0-1.3-0.4-1.3-1c0-0.5,0.6-1,1.3-1
		c0.7,0,1.3,0.4,1.3,1C-493,358.5-493.6,358.9-494.3,358.9z M-490.5,350.2c0,0.2-0.3,0.3-0.6,0.3h-6.6c-0.3,0-0.6-0.1-0.6-0.3v-1.1
		c0-0.2,0.3-0.3,0.6-0.3h6.6c0.3,0,0.6,0.1,0.6,0.3V350.2z"/>
	<path id="XMLID_10496_" class="st5" d="M-471.5,335.1h-0.7v-1.6c0-0.9-0.6-1.6-1.4-1.6h-0.9c-0.8,0-1.4,0.7-1.4,1.6v1.6h-0.6
		c-0.1,0-0.2,0.1-0.2,0.2v4.1c0,0.1,0.1,0.2,0.2,0.2h5c0.1,0,0.2-0.1,0.2-0.2v-4.1C-471.4,335.1-471.4,335.1-471.5,335.1z
		 M-475.1,333.6c0-0.7,0.4-1.3,0.8-1.3h0.5c0.4,0,0.8,0.6,0.8,1.3v1.4h-2.1L-475.1,333.6L-475.1,333.6z"/>
	<path id="XMLID_10491_" class="st18" d="M-404.7,380.7c-0.1-0.3-0.2-0.6-0.2-0.9c-0.1-2.2,1.5-4,3.6-4.2c1.7-0.1,3.3,0.9,3.9,2.5
		c0.5-0.3,1-0.5,1.7-0.5c1.5,0,2.8,1.2,2.8,2.8c0,0.2,0,0.5-0.1,0.7c1.3,0.2,2.2,1.3,2.2,2.7c0,1.5-1.2,2.7-2.6,2.7
		c-0.2,0-0.3,0-0.5,0H-404c-0.2,0-0.3,0-0.5,0c-1.6,0-2.8-1.3-2.8-2.8C-407.4,382-406.2,380.8-404.7,380.7z"/>
</g>
</svg>
