<?xml version="1.0" encoding="utf-8"?>
<!-- Generator: Adobe Illustrator 19.1.0, SVG Export Plug-In . SVG Version: 6.00 Build 0)  -->
<svg version="1.1" id="レイヤー_1" xmlns="http://www.w3.org/2000/svg" xmlns:xlink="http://www.w3.org/1999/xlink" x="0px"
	 y="0px" viewBox="-524 316 150 170" style="enable-background:new -524 316 150 170;" xml:space="preserve">
<style type="text/css">
	.st0{fill:#8FC321;}
	.st1{fill:#CD3B8E;}
	.st2{fill:#46499B;}
	.st3{fill:url(#XMLID_2_);}
	.st4{fill:#BDD400;}
	.st5{fill:#FCD200;}
	.st6{fill:#1CA1CF;}
	.st7{fill:#FFFFFF;}
	.st8{fill:#2EA3DD;}
	.st9{fill:#871E86;}
	.st10{fill:#B70F83;}
	.st11{fill:#234D92;}
	.st12{fill:#EE8000;}
	.st13{fill:#3A6DB4;}
</style>
<g id="XMLID_289_">
	<path id="XMLID_855_" class="st0" d="M-477.8,375.5c0-5.5,4.3-10,9.6-10c0.8,0,1.7,0.1,2.4,0.3c1.9-4.2,6.3-7.2,11.5-7.2
		c5.7,0,10.5,3.7,12,8.6c1-0.4,2-0.5,3.1-0.5c5,0,9,4,9,9c0,1.5-0.4,2.9-1,4.1c2.9,1.3,5,4.4,5,8.1c0,4.8-3.6,8.7-8.1,8.7
		c-1.4,0-2.7-0.4-3.9-1.1c-1.5,5-6,8.6-11.3,8.6c-0.5,0-1,0-1.5-0.1c3.3-1.1,5.9-3.8,6.9-7.2c-1.9,1-4.1,1.6-6.4,1.6
		c-4.5,0-8.6-2.2-11-5.6c-1.2,0.8-2.5,1.2-4,1.2c-4.2,0-7.5-3.5-7.5-7.8c0-0.8,0.1-1.5,0.3-2.2
		C-475.8,382.6-477.8,379.3-477.8,375.5z"/>
	<path id="XMLID_854_" class="st1" d="M-460.1,344c0.4-4.9,4.1-9.3,9.3-10.6c3.9-1,7.8,0,10.5,2.3c0.8-0.5,1.7-0.9,2.7-1.2
		c4.6-1.2,9.1,1.6,10.1,6.2c0.3,1.3,0.3,2.6,0,3.8c0.4,0.4,0.8,0.8,1.2,1.2c3.2,0.3,5.9,2.8,6.7,6.3c1,4.4-1.6,8.9-5.7,9.9
		c-0.5,0.1-1.1,0.2-1.6,0.2c-1.7,2-4.1,3.5-6.8,4.1c-2.7,0.7-5.4,0.5-7.7-0.4c0.4,2.9,2,5.5,4.3,7.3c-0.5-0.1-1-0.2-1.4-0.4
		c-3.9-1.4-6.7-4.7-7.7-8.5c-0.7,0.5-1.5,0.9-2.4,1.1c-3.8,1-7.6-1.4-8.5-5.4c-0.1-0.3-0.1-0.5-0.1-0.8c-2.5-1.1-4.5-3.4-5.2-6.5
		C-463.2,349.6-462.2,346.3-460.1,344z"/>
	<path id="XMLID_853_" class="st2" d="M-471.7,335.4c0.1,0,0.2,0,0.2,0c0.4-0.6,1.2-1.1,2.1-1.3c1.3-0.2,2.6,0.3,3.1,1.3
		c0.2-0.1,0.4-0.2,0.6-0.2c0.9-0.2,1.7,0.4,1.9,1.2c0,0.2,0,0.5-0.1,0.7c0.4,0.3,0.7,0.7,0.8,1.2c0.2,1-0.6,2.1-1.7,2.3
		c-0.1,0-0.1,0-0.2,0c-0.4,0.6-1.1,1.1-2,1.2c-1,0.2-2-0.2-2.6-0.8c-0.3,0.2-0.6,0.3-0.9,0.4c-1.1,0.2-2.1-0.4-2.3-1.4
		c-0.1-0.5,0.1-1,0.5-1.4c-0.5-0.2-0.9-0.7-1-1.2C-473.3,336.4-472.7,335.5-471.7,335.4z"/>
	
		<linearGradient id="XMLID_2_" gradientUnits="userSpaceOnUse" x1="-138.5804" y1="474.8278" x2="-109.0522" y2="474.8278" gradientTransform="matrix(1.0186 0 0 -1.0962 -356.4487 879.0063)">
		<stop  offset="0" style="stop-color:#00903B"/>
		<stop  offset="1" style="stop-color:#00893A"/>
	</linearGradient>
	<path id="XMLID_852_" class="st3" d="M-467.6,353.9c-0.3,1.9-1.3,3.5-2.7,4.3c1,1.4,1.5,3.2,1.2,5c-0.5,3.3-3.3,5.5-6.3,4.9
		c-0.4-0.1-0.8-0.2-1.2-0.4c0.6,2.4,2.2,4.4,4.3,5.2c-0.3,0-0.6,0.1-0.9,0.1c-2.8,0-5.2-1.9-6.4-4.5c-1.6,1.1-3.5,1.6-5.6,1.2
		c-2.4-0.5-4.4-2.2-5.5-4.3c-0.7,0.2-1.4,0.2-2.2,0c-3.2-0.7-5.3-4.2-4.7-7.9c0.4-2.5,1.9-4.4,3.8-5.2c0-0.5,0-1,0-1.5
		c0.4-2.9,2.8-4.8,5.3-4.2c0.6,0.1,1.2,0.4,1.7,0.8c1.8-2.4,4.7-3.6,7.7-3c1.9,0.4,3.6,1.5,4.8,3c0.8-0.4,1.7-0.5,2.6-0.3
		C-468.9,347.6-467.1,350.7-467.6,353.9z"/>
	<path id="XMLID_851_" class="st4" d="M-423.2,378.9c-0.1-3.6,3.1-6.7,7.2-6.9c0.2,0,0.4,0,0.6,0c1.7-2,4.5-3.4,7.7-3.5
		c4.2-0.2,7.9,1.8,9.4,4.8c0.4-0.1,0.8-0.1,1.2-0.1c3.9-0.2,7.1,2.3,7.2,5.6c0.1,2-1,3.8-2.7,4.9c0.6,0.8,1,1.8,1,2.9
		c0.1,3.2-2.6,5.9-6.1,6c-0.7,0-1.4,0-2-0.2c-1.5,2-3.7,3.4-6.3,3.5c-0.5,0-1,0-1.4-0.1c-2.6,2.4-5.9,3.9-9.5,3.9
		c-0.7,0-1.3-0.1-1.9-0.1c2.8-1.1,5.2-3.2,6.9-5.9c-0.7-0.6-1.2-1.3-1.6-2.2c-0.7,0.3-1.4,0.4-2.1,0.4c-3.2,0.1-6-2-6.1-4.9
		c0-1.3,0.4-2.5,1.3-3.4C-422.1,382.5-423.1,380.8-423.2,378.9z"/>
	<path id="XMLID_850_" class="st5" d="M-450.1,425.4c0,5.6,4.8,10.2,10.6,10.2h4.2l0.8,12.2l14.9-12.2h12.3
		c5.9,0,10.6-4.6,10.6-10.2V403c0-5.6-4.8-10.2-10.6-10.2h-32.3c-5.9,0-10.6,4.6-10.6,10.2V425.4L-450.1,425.4z"/>
	<path id="XMLID_849_" class="st6" d="M-458,430.1c0,4.6-3.9,8.4-8.8,8.4h-3.5l-0.7,10.1l-12.3-10.1h-10.2c-4.8,0-8.8-3.8-8.8-8.4
		v-18.5c0-4.6,3.9-8.4,8.8-8.4h26.6c4.8,0,8.8,3.8,8.8,8.4L-458,430.1L-458,430.1z"/>
	<path id="XMLID_848_" class="st7" d="M-482.3,422.6c0.1-0.3,0.3-0.7,0.3-1.1c0-1.4-0.6-3-0.6-3s-0.4-0.3-0.6-0.8
		c-0.2-0.5-0.1-1.3-0.1-1.3s0.2-0.1,0.2-0.4c0-0.4-0.2-1.1-0.3-2c0-0.4,0-0.6,0-1.1c0.2-2.2,1.9-2.4,2.6-2.7c1.4-0.2,1.9,0,3,0.1
		c1.2,0.1,2.1-0.4,2.1-0.4s0.3,1.6,0.2,3.2c-0.1,1.6-0.4,3.1-0.4,3.1s0.4,0.1,0.3,0.9c-0.1,0.8-0.7,1.3-0.7,1.3s-1.1,2.7-0.8,3.6
		c0.2,1,2.6,2,4.2,3.5c2.1,1.3,2.5,5.7,2.5,5.7l-18.7,0c0,0,0.3-3.7,1.6-5.3C-486.3,424.3-482.7,423.7-482.3,422.6z"/>
	<path id="XMLID_847_" class="st8" d="M-490.6,379.7c0,1.9-1.6,3.5-3.6,3.5h-1.4l-0.3,4.2l-5-4.2h-4.2c-2,0-3.6-1.6-3.6-3.5v-7.7
		c0-1.9,1.6-3.5,3.6-3.5h10.9c2,0,3.6,1.6,3.6,3.5V379.7L-490.6,379.7z"/>
	<path id="XMLID_846_" class="st9" d="M-400.1,365.8c0,1.9-1.6,3.5-3.6,3.5h-1.4l-0.3,4.2l-5-4.2h-4.2c-2,0-3.6-1.6-3.6-3.5V358
		c0-1.9,1.6-3.5,3.6-3.5h10.9c2,0,3.6,1.6,3.6,3.5V365.8L-400.1,365.8z"/>
	<path id="XMLID_845_" class="st10" d="M-410.8,343.7c0,1-0.8,1.8-1.8,1.8h-0.7l-0.1,2.1l-2.5-2.1h-2.1c-1,0-1.8-0.8-1.8-1.8v-3.9
		c0-1,0.8-1.8,1.8-1.8h5.4c1,0,1.8,0.8,1.8,1.8L-410.8,343.7L-410.8,343.7z"/>
	<path id="XMLID_844_" class="st11" d="M-500.4,397c0,1.3-1,2.3-2.3,2.3h-0.9l-0.2,2.8l-3.3-2.8h-2.7c-1.3,0-2.3-1-2.3-2.3v-5
		c0-1.3,1-2.3,2.3-2.3h7.1c1.3,0,2.3,1,2.3,2.3V397L-500.4,397z"/>
	<path id="XMLID_829_" class="st7" d="M-424.6,400.2l0.7-1.6c0.4-0.9,1.3-1.3,2.2-0.9c0.8,0.4,1.3,1.4,0.9,2.3l-0.3,0.7l7.3,3.2
		c2,0.9,2.8,3.6,1.8,6.1l-6.6,16.4c-1,2.5-3.4,3.8-5.4,2.9l-8.2-3.6c-2-0.9-2.8-3.6-1.8-6.1l6.6-16.4
		C-426.8,401.7-425.7,400.7-424.6,400.2z M-413.8,409.7c0.6-1.5,0.1-3.2-1.1-3.7l-7.8-3.5c-1.2-0.5-2.7,0.3-3.3,1.8l-1.9,4.8
		c-0.6,1.5-0.1,3.2,1.1,3.7l7.8,3.5c1.2,0.5,2.7-0.3,3.3-1.8L-413.8,409.7z M-418.7,422.1c0.1-0.2,0-0.4-0.1-0.5l-1.9-0.9
		c-0.2-0.1-0.4,0-0.5,0.2l-0.5,1.1c-0.1,0.2,0,0.4,0.2,0.5l1.9,0.8c0.2,0.1,0.4,0,0.5-0.2L-418.7,422.1z M-422.9,425
		c-0.1,0.2,0,0.4,0.2,0.5l1.9,0.8c0.2,0.1,0.4,0,0.5-0.2l0.5-1.1c0.1-0.2,0-0.4-0.2-0.5l-1.9-0.9c-0.2-0.1-0.4,0-0.5,0.2L-422.9,425
		z M-420.6,419.2c-0.1,0.2,0,0.4,0.2,0.5l1.9,0.8c0.2,0.1,0.4,0,0.5-0.2l0.5-1.1c0.1-0.2,0-0.4-0.2-0.5l-1.9-0.9
		c-0.2-0.1-0.4,0-0.5,0.2L-420.6,419.2z M-422,420.6c0.1-0.2,0-0.4-0.1-0.5l-1.9-0.8c-0.2-0.1-0.4,0-0.5,0.2l-0.5,1.1
		c-0.1,0.2,0,0.4,0.2,0.5l1.9,0.9c0.2,0.1,0.4,0,0.5-0.2L-422,420.6z M-426.2,423.5c-0.1,0.2,0,0.4,0.2,0.5l1.9,0.8
		c0.2,0.1,0.4,0,0.5-0.2l0.5-1.1c0.1-0.2,0-0.4-0.2-0.5l-1.9-0.8c-0.2-0.1-0.4,0-0.5,0.2L-426.2,423.5z M-423.8,417.7
		c-0.1,0.2,0,0.4,0.2,0.5l1.9,0.8c0.2,0.1,0.4,0,0.5-0.2l0.5-1.1c0.1-0.2,0-0.4-0.2-0.5l-1.9-0.9c-0.2-0.1-0.4,0-0.5,0.2
		L-423.8,417.7z M-425.2,419.2c0.1-0.2,0-0.4-0.2-0.5l-1.9-0.9c-0.2-0.1-0.4,0-0.5,0.2l-0.5,1.1c-0.1,0.2,0,0.4,0.2,0.5l1.9,0.8
		c0.2,0.1,0.4,0,0.5-0.2L-425.2,419.2z M-429.4,422.1c-0.1,0.2,0,0.4,0.2,0.5l1.9,0.8c0.2,0.1,0.4,0,0.5-0.2l0.5-1.1
		c0.1-0.2,0-0.4-0.2-0.5l-1.9-0.9c-0.2-0.1-0.4,0-0.5,0.2L-429.4,422.1z M-427.1,416.3c-0.1,0.2,0,0.4,0.1,0.5l1.9,0.8
		c0.2,0.1,0.4,0,0.5-0.2l0.5-1.1c0.1-0.2,0-0.4-0.1-0.5l-1.9-0.9c-0.2-0.1-0.4,0-0.5,0.2L-427.1,416.3z M-428.5,417.7
		c0.1-0.2,0-0.4-0.2-0.5l-1.9-0.9c-0.2-0.1-0.4,0-0.5,0.2l-0.5,1.1c-0.1,0.2,0,0.4,0.2,0.5l1.9,0.8c0.2,0.1,0.4,0,0.5-0.2
		L-428.5,417.7z M-432.7,420.6c-0.1,0.2,0,0.4,0.2,0.5l1.9,0.8c0.2,0.1,0.4,0,0.5-0.2l0.5-1.1c0.1-0.2,0-0.4-0.2-0.5l-1.9-0.8
		c-0.2-0.1-0.4,0-0.5,0.2L-432.7,420.6z M-430.3,414.8c-0.1,0.2,0,0.4,0.1,0.5l1.9,0.9c0.2,0.1,0.4,0,0.5-0.2l0.5-1.1
		c0.1-0.2,0-0.4-0.2-0.5l-1.9-0.9c-0.2-0.1-0.4,0-0.5,0.2L-430.3,414.8z"/>
	<path id="XMLID_828_" class="st12" d="M-474.1,430c1.2-0.2,2.3-0.3,3.5-0.2c1.7-6.3,7.1-11.6,14.2-12.9c7.9-1.5,15.4,2.3,18.5,8.8
		c1.2-0.7,2.6-1.3,4.1-1.6c6.8-1.3,13.3,3.2,14.5,10.1c0.6,3.8-0.5,7.6-2.9,10.4c3.2,1.7,5.6,4.9,6.2,8.9c1.1,6.7-3,13-9.2,14.2
		c-2.7,0.5-5.3,0-7.5-1.4c-2.6,2.3-5.8,4-9.4,4.7c-4.1,0.8-8.2,0.2-11.7-1.4c1.8,4.1,5.2,7.3,9.5,8.7c-0.7,0.1-1.5,0.1-2.2,0.1
		c-6.9,0-12.8-4.1-15.6-9.9c-0.6,0.2-1.2,0.4-1.9,0.5c-5.7,1.1-11.2-2.8-12.2-8.8c-0.2-1-0.2-2.1-0.1-3.1c-4.4-1.6-7.9-5.6-8.8-10.7
		C-486.3,438.7-481.4,431.4-474.1,430z"/>
	<path id="XMLID_825_" class="st13" d="M-490.5,386.2c-0.1-3.6,2.5-6.6,5.9-6.8c0.3,0,0.5,0,0.8,0c1.4-1.8,3.6-3.1,6.2-3.2
		c3.8-0.2,7.1,2.2,8,5.6c0.6-0.2,1.2-0.4,1.8-0.4c3.2-0.1,5.9,2.4,6,5.6c0.1,2.3-1.1,4.3-2.9,5.4c0.3,0.6,0.4,1.3,0.4,2.1
		c0.1,3-2,5.6-4.8,5.9c-1.2,1.9-3,3.1-5,3.2c-3,0.1-5.6-2.2-6.7-5.6c-0.8,0.9-2,1.5-3.3,1.6c-2.7,0.1-4.9-2-5-4.8
		c-0.1-1.4,0.4-2.6,1.2-3.6C-489.5,390.1-490.4,388.3-490.5,386.2z M-480.7,391.1C-480.7,391.2-480.8,391.2-480.7,391.1
		c-0.1,0.1-0.1,0.1,0,0.1C-480.7,391.2-480.7,391.2-480.7,391.1z"/>
	<g id="XMLID_819_">
		<polygon id="XMLID_824_" class="st7" points="-463.5,436 -435.5,436.1 -435.5,436.2 -449.5,445.8 		"/>
		<g id="XMLID_820_">
			<polygon id="XMLID_823_" class="st7" points="-462.9,455.6 -463.5,455.6 -463.5,437.9 -454.3,444.7 			"/>
			<polygon id="XMLID_822_" class="st7" points="-445.3,445 -435.6,438 -435.6,455.7 -435.8,455.7 			"/>
			<polygon id="XMLID_821_" class="st7" points="-437.5,455.7 -461.3,455.6 -453,445.6 -449.5,448.1 -446.4,445.8 			"/>
		</g>
	</g>
	<g id="search_6_">
		<g id="XMLID_815_">
			<path id="XMLID_816_" class="st7" d="M-459.5,386.4l4.5-4.7c-0.6-1.3-1-2.8-0.9-4.3c0.2-4.4,3.5-7.8,7.3-7.6
				c3.8,0.2,6.7,3.9,6.5,8.2c-0.2,4.4-3.5,7.8-7.3,7.6c-1.4-0.1-2.6-0.6-3.7-1.4l-4.5,4.7c-0.1,0.2-0.4,0.1-0.5,0l-1.5-1.9
				C-459.7,386.8-459.7,386.6-459.5,386.4z M-444.3,377.9c0.2-3-1.8-5.5-4.4-5.6c-2.6-0.1-4.8,2.2-5,5.2c-0.2,3,1.8,5.5,4.4,5.6
				C-446.7,383.2-444.4,380.9-444.3,377.9z"/>
		</g>
	</g>
	<path id="XMLID_809_" class="st7" d="M-441,342.5c-5.1-0.8-8.8,3-8.9,7.8c-0.1,4.8,3.7,8.7,8.2,8.2c4.1-0.4,7.2-4.1,6.8-8.9
		C-435.1,345.9-437.7,343-441,342.5z M-438.4,349c0.7,0,0.7,1,1.2,1.2c0,0.2-0.3,0.6,0,0.7c0-0.5,0.5-0.5,1-0.4c0,0.3,0,0.6,0,0.9
		c-0.3,0.3-0.3-0.3-0.6-0.2c0.3,0.4-0.6,0.7-0.2,1.1c0.1-0.2,0.5-0.7,0.7-0.3c-0.4,1.3-0.8,2.5-1.8,3.2c0.3-1.3,1.4-2.1,0.2-3.1
		c-0.8,0.1-1.6,0.2-1.8,1c-0.4,0.1-0.9,0.2-1.1,0.4c0.3,1.1,0.9,1.9,1.7,2.4c-3.5,3-9.4-0.2-9.3-4.6c0.7,0,0.6,0.9,1.1,1.1
		c0.1-0.7,0.6-1.7,1.4-1.3c-0.1,0-0.2,0.1-0.2,0.3c0.3,0.4,0.9,0.5,1.2,0.8c-0.2,0.1-0.6-0.1-0.6,0.1c1.3,1.1,0.5,3.4,2.5,3.8
		c0.8-1.1-0.2-4,2.2-3.3c1.1-0.7,0.3-2.1-0.3-2.8c0.5,0,0.2-0.3,0.2-0.7c-0.2,0-0.3,0-0.5,0c-0.1-0.8,0.2-0.6,0.3-1.1
		c0,0.2,0.1,0.4,0.3,0.3c-0.1-0.4-0.1-0.8-0.5-0.9c-0.1,0.3-0.2,0.6-0.3,0.9c-0.5-0.3-0.6-0.4-1.4-0.3c0-0.2-0.1-0.4-0.3-0.3
		c0.4-0.4,0-0.9,0.1-1.1c0.5,0.3,0.1,1,0.7,1.2c0.2-0.2,0.3-0.5,0.4-0.8c-0.3-1-1.9-1.6-2.5-0.4c0.2,0,0.4,0,0.5-0.1
		c-0.4,0.8-1.8-1-2.6-0.2c-0.6-1.4,3-3,4.9-2.4c-0.2,0.3-0.6-0.2-0.7,0.1c0.2,0.2,0.3,0.3,0.5,0.4c-0.4,1.7,1.4,1.8,2,2.8
		c0.5-0.3,0.7-0.8,0.4-1.3c0.2-0.3,0.4-0.6,0.6-0.9c0.4,0,0.5,0.4,0.8,0.6c-0.1,0.5-0.5,0.6-0.7,0.9c0.4,0,0.5,0,0.6,0.6
		c0.5-0.2,0.2-0.7,0.5-1c0.3,0.6,0.7,1,0.9,1.7c-0.4,0-0.4,0.5-0.7,0.6c-0.2-0.7,0.1-1.1-0.2-1.3c-0.5,0-0.4,0.8-0.9,0.4
		c-0.1,0.3-0.1,0.8-0.3,1c0.2,0.2,0.4,0,0.5,0.1C-438.4,348.6-438.4,348.8-438.4,349z M-443.6,349.1c0,0.2,0.1,0.2,0.1,0.4
		c-0.3-0.1-0.8,0.1-0.9-0.1c0.3,0,0.1-0.4,0.3-0.4C-444.1,349.4-443.9,349.2-443.6,349.1z M-442.4,349.6c0.2-0.1,0.3-0.3,0.7-0.2
		c0.2,0.3,0.4,0.6,0.6,0.8c-0.4-0.1-0.7-0.2-1.1-0.1c0,0.4-0.3,0.4-0.5,0.6c-0.4-0.3-0.9,0-1.2,0c-0.1-0.2-0.2-0.3-0.2-0.4
		c0.2-0.1,0.8,0.1,0.8-0.4c0.2,0,0.2,0.2,0.3,0.2c0.2-0.3,0.4-0.6,0.7-0.8C-442.2,349.4-442.7,349.5-442.4,349.6z M-444.7,351.9
		c0.3-0.2,0.4-1.1,0.7-0.9C-444.2,351.2-444.3,352.2-444.7,351.9z"/>
	<g id="XMLID_804_">
		<g id="XMLID_805_">
			<path id="XMLID_806_" class="st7" d="M-479.7,396.2c1.2,0.6,2.1,0.7,3.5,0.7c3.2,0,6-2.5,6-6.5c0-4.2-2.8-7.9-7.2-7.9
				c-3.4,0-5.8,2.5-5.8,6c0,3,1.6,4.9,3.6,4.9c0.9,0,1.6-0.5,1.6-1.6h0c0.6,1.1,1.5,1.6,2.5,1.6c1.2,0,2.1-1,2.1-2.7
				c0-2.5-1.7-4.8-4.5-4.8c-0.8,0-1.8,0.2-2.3,0.5l0.6,3.8c0.2,1.2,0.1,1.8-0.5,1.8c-0.8,0-1.9-1.1-1.9-3.5c0-2.7,1.6-4.8,4.6-4.8
				c2.9,0,5.5,2.5,5.5,6.4c0,3.4-2.1,5.4-4.9,5.4c-1,0-2-0.2-2.8-0.7L-479.7,396.2z M-478,387.7c0.2,0,0.3-0.1,0.6-0.1
				c1.3,0,2.3,1.3,2.3,2.9c0,0.8-0.3,1.3-1,1.3c-0.7,0-1.5-1-1.6-2.2L-478,387.7z"/>
		</g>
	</g>
	<path id="XMLID_801_" class="st7" d="M-410.8,380.2h1v-2.7c0-1.5,0.9-2.7,2.1-2.7h1.4c1.2,0,2.1,1.2,2.1,2.7v2.7h1
		c0.2,0,0.3,0.1,0.3,0.3v6.7c0,0.2-0.1,0.3-0.3,0.3h-7.6c-0.2,0-0.3-0.1-0.3-0.3v-6.7C-411,380.4-410.9,380.2-410.8,380.2z
		 M-405.4,377.9c0-1.1-0.5-2-1.2-2h-0.8c-0.7,0-1.2,0.9-1.2,2v2.3h3.2L-405.4,377.9L-405.4,377.9z"/>
	<path id="XMLID_800_" class="st7" d="M-477.8,356c0.1-0.3,0.1-0.5,0.1-0.8c0.1-1.9-1.2-3.5-2.9-3.6c-1.4-0.1-2.6,0.8-3.1,2.2
		c-0.4-0.3-0.8-0.5-1.3-0.5c-1.2,0-2.2,1.1-2.2,2.4c0,0.2,0,0.4,0.1,0.6c-1,0.2-1.8,1.1-1.8,2.3c0,1.3,0.9,2.3,2.1,2.3
		c0.1,0,0.3,0,0.4,0h8.1c0.1,0,0.3,0,0.4,0c1.3,0,2.3-1.1,2.3-2.4C-475.7,357.1-476.6,356-477.8,356z"/>
	<g id="XMLID_789_">
		<path id="XMLID_793_" class="st7" d="M-503.1,377c0-0.1,0.1-0.2,0.2-0.2h6.3c0.1,0,0.2,0.1,0.2,0.2l0.8,2.4c0,0.1-0.1,0.2-0.2,0.2
			h-7.9c-0.1,0-0.2-0.1-0.2-0.2L-503.1,377z M-497.1,377.2h-5.3c-0.1,0-0.2,0-0.2,0.1s0.1,0.1,0.2,0.1h5.3c0.1,0,0.2,0,0.2-0.1
			C-496.9,377.2-497,377.2-497.1,377.2z M-497,377.5h-5.5c-0.1,0-0.2,0-0.2,0.1c0,0.1,0.1,0.1,0.2,0.1h5.5c0.1,0,0.2,0,0.2-0.1
			C-496.8,377.5-496.9,377.5-497,377.5z M-496.9,377.8h-5.7c-0.1,0-0.2,0-0.2,0.1c0,0.1,0.1,0.1,0.2,0.1h5.7c0.1,0,0.2,0,0.2-0.1
			C-496.7,377.9-496.8,377.8-496.9,377.8z M-499.1,379.1l-0.2-0.6h-1l-0.2,0.6H-499.1z M-502.7,378.4h5.9c0.1,0,0.2,0,0.2-0.1
			c0-0.1-0.1-0.1-0.2-0.1h-5.9c-0.1,0-0.2,0-0.2,0.1C-502.8,378.3-502.7,378.4-502.7,378.4z"/>
		<path id="XMLID_790_" class="st7" d="M-502.9,372h6.3c0.1,0,0.2,0.1,0.2,0.2v4.1c0,0.1-0.1,0.2-0.2,0.2h-6.3
			c-0.1,0-0.2-0.1-0.2-0.2v-4.1C-503.1,372.1-503,372-502.9,372z M-502.7,376.1h5.9v-3.7h-5.9V376.1L-502.7,376.1z"/>
	</g>
	<g id="XMLID_783_">
		<path id="XMLID_785_" class="st7" d="M-407.6,358c-0.8-0.2-3-0.2-3.4,0.4c-0.4,0.5-0.2,2.6-0.2,3.6c0,0.9-0.2,2.7,0.1,3.4
			c0.3,0.7,1.3,0.6,1.8,0.6c0.9,0,2.1,0.1,2.4-0.6c0.3-0.7,0.1-2.4,0.1-3.4c0-0.7,0-1.2,0-1.8C-406.8,359.1-406.7,358.2-407.6,358z
			 M-407.5,358.9c0.3,0.2,0.3,3.4,0,3.7c-0.3,0.3-2.9,0.3-3.1,0c-0.3-0.3-0.1-1-0.1-1.8c0-0.5-0.2-1.4,0.1-1.8
			c0.2-0.2,2.3-0.3,2.9-0.1C-407.6,358.8-407.6,358.8-407.5,358.9z M-409.5,365.3c-1-0.4-0.6-2.3,0.7-2
			C-407.4,363.6-408.2,365.8-409.5,365.3z"/>
		<path id="XMLID_784_" class="st7" d="M-408.8,363.9c-0.9-0.4-0.8,1-0.3,1C-408.7,364.9-408.2,364.1-408.8,363.9z"/>
	</g>
	<g id="XMLID_735_">
		<g id="XMLID_736_">
			<path id="XMLID_739_" class="st7" d="M-509.8,392.1l1.3,0l0,0l0.4,1.4l4.1,0.1l0.1-0.2l0.6,0l-1.1,2.6l0,0v0l-3.7-0.1l-0.1,0
				l-0.8-3.3l-0.9,0L-509.8,392.1L-509.8,392.1z M-504.7,395.3l0.1-0.2l-0.2,0l0,0.2L-504.7,395.3z M-504.6,395l0-0.2l-0.3,0l0,0.2
				L-504.6,395L-504.6,395z M-507.1,394.6l0.3,0l0-0.2l-0.3,0L-507.1,394.6z M-507.2,394.4l-0.3,0l0,0.2l0.3,0L-507.2,394.4z
				 M-505.9,394.4l-0.3,0l0,0.2l0.3,0L-505.9,394.4z M-505.8,394.6l0.4,0l0-0.2l-0.4,0L-505.8,394.6z M-506.3,394.4l-0.4,0l0,0.2
				l0.4,0L-506.3,394.4z M-506.8,394.2l0-0.2l-0.3,0l0,0.2L-506.8,394.2z M-506.7,394.2l0.4,0l0-0.2l-0.4,0L-506.7,394.2z
				 M-506.2,394.2l0.3,0l0-0.2l-0.3,0L-506.2,394.2z M-505.8,394.2l0.4,0l0-0.2l-0.4,0L-505.8,394.2z M-505.4,394.3l0.4,0l0-0.2
				l-0.4,0L-505.4,394.3z M-505.4,394.4l0,0.2l0.4,0l0-0.2L-505.4,394.4z M-504.9,394.6l0.3,0l0-0.2l-0.3,0L-504.9,394.6z
				 M-505,394.8l-0.4,0l0,0.2l0.4,0L-505,394.8z M-505.5,394.8l-0.4,0l0,0.2l0.4,0L-505.5,394.8z M-505.9,394.8l-0.3,0l0,0.2l0.3,0
				L-505.9,394.8z M-506.3,394.8l-0.4,0l0,0.2l0.4,0L-506.3,394.8z M-506.8,394.8l-0.3,0l0,0.2l0.3,0L-506.8,394.8z M-507.2,394.8
				l-0.3,0l0,0.2l0.3,0L-507.2,394.8z M-507.7,394.8L-507.7,394.8l0,0.2h0L-507.7,394.8z M-507.7,394.6l0-0.2l-0.1,0l0,0.2
				L-507.7,394.6z M-507.9,394.2l0.2,0l0-0.2l-0.2,0L-507.9,394.2z M-507.6,394.2l0.3,0l0-0.2l-0.3,0L-507.6,394.2z M-507.2,393.9
				l0-0.2l-0.3,0l0,0.2L-507.2,393.9z M-507.1,393.9l0.3,0l0-0.2l-0.3,0L-507.1,393.9z M-506.7,393.9l0.3,0l0-0.2l-0.4,0
				L-506.7,393.9z M-506.2,393.9l0.3,0l0-0.2l-0.3,0L-506.2,393.9z M-505.8,393.9l0.4,0l0-0.2l-0.4,0L-505.8,393.9z M-505.3,393.9
				l0.4,0l0-0.2l-0.4,0L-505.3,393.9z M-504.9,393.9l0.3,0l0-0.2l-0.3,0L-504.9,393.9z M-504.9,394.1l0,0.2l0.3,0l0-0.2
				L-504.9,394.1z M-504.5,394.3l0.2,0l0.1-0.2l-0.3,0L-504.5,394.3z M-504.5,394.5l0,0.2h0.1l0.1-0.2L-504.5,394.5z M-505,395.2
				l-0.4,0l0,0.2l0.4,0L-505,395.2z M-505.5,395.2l-0.4,0l0,0.2l0.4,0L-505.5,395.2z M-505.9,395.2l-0.3,0l0,0.2l0.3,0L-505.9,395.2
				z M-506.4,395.2l-0.4,0l0,0.2l0.4,0L-506.4,395.2z M-506.8,395.1l-0.3,0l0,0.2l0.3,0L-506.8,395.1z M-507.3,395.1l-0.3,0l0,0.2
				l0.3,0L-507.3,395.1z M-507.9,393.9l0.3,0l0-0.2l-0.3,0L-507.9,393.9z M-504.5,393.7l0,0.2l0.4,0l0.1-0.2L-504.5,393.7z"/>
			
				<ellipse id="XMLID_738_" transform="matrix(-3.115366e-02 -0.9995 0.9995 -3.115366e-02 -919.8682 -98.3322)" class="st7" cx="-507.6" cy="396.7" rx="0.6" ry="0.6"/>
			<path id="XMLID_737_" class="st7" d="M-504.8,396.2c-0.3,0-0.6,0.3-0.6,0.6c0,0.3,0.3,0.6,0.6,0.6c0.3,0,0.6-0.3,0.6-0.6
				C-504.3,396.4-504.5,396.1-504.8,396.2z"/>
		</g>
	</g>
</g>
</svg>
