<?xml version="1.0" encoding="utf-8"?>
<!-- Generator: Adobe Illustrator 19.1.0, SVG Export Plug-In . SVG Version: 6.00 Build 0)  -->
<svg version="1.1" id="レイヤー_1" xmlns="http://www.w3.org/2000/svg" xmlns:xlink="http://www.w3.org/1999/xlink" x="0px"
	 y="0px" viewBox="-558 381.6 67 91" style="enable-background:new -558 381.6 67 91;" xml:space="preserve">
<style type="text/css">
	.st0{fill:#032B5C;}
	.st1{fill:#FFFFFF;}
	.st2{fill:#42A8DF;}
	.st3{fill:url(#XMLID_2_);}
	.st4{fill:#3C68AC;}
	.st5{fill:url(#XMLID_3_);}
	.st6{fill:url(#XMLID_4_);}
	.st7{fill:url(#XMLID_5_);}
</style>
<g id="XMLID_2044_">
	<path id="XMLID_2205_" class="st0" d="M-492.7,468.1c0,1.5-1.2,2.7-2.7,2.7H-554c-1.5,0-2.7-1.2-2.7-2.7v-80.3
		c0-1.5,1.2-2.7,2.7-2.7h58.6c1.5,0,2.7,1.2,2.7,2.7V468.1z"/>
	<path id="XMLID_2204_" class="st1" d="M-496.7,465.2c0,0.3-0.3,0.6-0.6,0.6H-552c-0.4,0-0.6-0.3-0.6-0.6v-75.1
		c0-0.3,0.3-0.6,0.6-0.6h54.6c0.3,0,0.6,0.3,0.6,0.6V465.2z"/>
	<path id="XMLID_2201_" class="st2" d="M-519.8,387.8c0.2-0.5,0.3-1,0.3-1.6c0-2.3-1.9-4.2-4.2-4.2c-2.3,0-4.2,1.9-4.2,4.2
		c0,0.6,0.1,1.1,0.3,1.6h-8.6v6.7h24.9v-6.7H-519.8z M-523.7,388.1c-1.1,0-2-0.9-2-2s0.9-2,2-2c1.1,0,2,0.9,2,2
		S-522.6,388.1-523.7,388.1z"/>
	
		<linearGradient id="XMLID_2_" gradientUnits="userSpaceOnUse" x1="-1000.2853" y1="516.3533" x2="-992.5167" y2="516.3533" gradientTransform="matrix(1 0 0 -1 454.395 924.0047)">
		<stop  offset="0.8773" style="stop-color:#8EBC20"/>
		<stop  offset="1" style="stop-color:#84B725"/>
	</linearGradient>
	<path id="XMLID_2200_" class="st3" d="M-538.1,405.9c-1.4,1.7-2.9,3.2-4.4,4.8c-1.2-1.1-2.3-2.3-3.4-3.6c0.4-0.5,0.8-1,1.3-1.5
		c0.8,0.6,1.4,1.5,2.1,2.2c1-1,2-2.1,3-3.2C-538.9,404.9-538.6,405.5-538.1,405.9z"/>
	<rect id="XMLID_2199_" x="-535.9" y="407.2" class="st4" width="31.3" height="1.5"/>
	
		<linearGradient id="XMLID_3_" gradientUnits="userSpaceOnUse" x1="-1000.451" y1="504.3496" x2="-992.6835" y2="504.3496" gradientTransform="matrix(1 0 0 -1 454.395 924.0047)">
		<stop  offset="0.8773" style="stop-color:#8EBC20"/>
		<stop  offset="1" style="stop-color:#84B725"/>
	</linearGradient>
	<path id="XMLID_2198_" class="st5" d="M-538.3,417.9c-1.4,1.7-2.9,3.2-4.4,4.8c-1.2-1.1-2.3-2.3-3.4-3.6c0.4-0.5,0.8-1,1.3-1.5
		c0.8,0.6,1.4,1.5,2.1,2.2c1-1,2-2.1,3-3.2C-539,416.9-538.7,417.5-538.3,417.9z"/>
	<rect id="XMLID_2197_" x="-536.1" y="419.2" class="st4" width="31.3" height="1.5"/>
	
		<linearGradient id="XMLID_4_" gradientUnits="userSpaceOnUse" x1="-1000.0286" y1="491.7466" x2="-992.2616" y2="491.7466" gradientTransform="matrix(1 0 0 -1 454.395 924.0047)">
		<stop  offset="0.8773" style="stop-color:#8EBC20"/>
		<stop  offset="1" style="stop-color:#84B725"/>
	</linearGradient>
	<path id="XMLID_2196_" class="st6" d="M-537.9,430.5c-1.4,1.7-2.9,3.2-4.4,4.8c-1.2-1.1-2.3-2.3-3.4-3.6c0.4-0.5,0.8-1,1.3-1.5
		c0.8,0.6,1.4,1.5,2.1,2.2c1-1,2-2.1,3-3.2C-538.6,429.5-538.3,430.1-537.9,430.5z"/>
	<rect id="XMLID_2195_" x="-535.6" y="431.8" class="st4" width="31.3" height="1.5"/>
	
		<linearGradient id="XMLID_5_" gradientUnits="userSpaceOnUse" x1="-1000.0026" y1="479.305" x2="-992.234" y2="479.305" gradientTransform="matrix(1 0 0 -1 454.395 924.0047)">
		<stop  offset="0.8773" style="stop-color:#8EBC20"/>
		<stop  offset="1" style="stop-color:#84B725"/>
	</linearGradient>
	<path id="XMLID_2194_" class="st7" d="M-537.8,443c-1.4,1.7-2.9,3.2-4.4,4.8c-1.2-1.1-2.3-2.3-3.4-3.6c0.4-0.5,0.8-1,1.3-1.5
		c0.8,0.6,1.4,1.5,2.1,2.2c1-1,2-2.1,3-3.2C-538.6,441.9-538.3,442.5-537.8,443z"/>
	<rect id="XMLID_2193_" x="-535.6" y="444.3" class="st4" width="31.3" height="1.5"/>
</g>
</svg>
