<?xml version="1.0" encoding="utf-8"?>
<!-- Generator: Adobe Illustrator 19.1.0, SVG Export Plug-In . SVG Version: 6.00 Build 0)  -->
<svg version="1.1" id="レイヤー_1" xmlns="http://www.w3.org/2000/svg" xmlns:xlink="http://www.w3.org/1999/xlink" x="0px"
	 y="0px" viewBox="-562.4 376.9 65.6 49.4" style="enable-background:new -562.4 376.9 65.6 49.4;" xml:space="preserve">
<style type="text/css">
	.st0{fill:#E22D50;}
	.st1{fill:#FFFFFF;}
</style>
<path id="XMLID_2547_" class="st0" d="M-553.7,398.2c-0.2-0.9-0.3-1.8-0.3-2.7c0-6,4.9-10.9,10.9-10.9c2.4,0,4.7,0.8,6.5,2.1
	c2.3-6.1,8.4-10.3,15.3-9.8c8.4,0.5,14.9,7.9,14.3,16.3c-0.1,1.3-0.3,2.5-0.7,3.6c6,0.2,10.8,5.1,10.8,11.1c0,6.1-5,11.1-11.2,11.1
	c-0.7,0-1.4-0.1-2.1-0.2h-19c0.1,3.4,2.7,6.3,6.2,7.3c-0.4,0-0.8,0.1-1.3,0.1c-5,0-9.1-3.2-9.8-7.4h-16.2c-0.6,0.1-1.3,0.2-1.9,0.2
	c-5.7,0-10.3-4.7-10.3-10.6C-562.4,403.3-558.6,398.9-553.7,398.2z"/>
<path id="XMLID_2543_" class="st1" d="M-544.8,406.9c0,0,0.2-2.3,1.1-3.3c0.9-1,3.3-1.3,3.5-1.9c0.1-0.2,0.2-0.4,0.2-0.7
	c0-0.8-0.4-1.8-0.4-1.8s-0.3-0.1-0.4-0.5c-0.2-0.3-0.1-0.8-0.1-0.8s0.1-0.1,0.1-0.2c-0.1-0.4-0.3-1.1-0.2-2c0.1-1.3,1.4-1.9,1.9-2
	c0.5-0.1,1.5-0.2,2.4,0.2c0.9,0.5,1.1,1.3,1.2,1.9c0,0.6-0.2,2-0.2,2s0.3,0.1,0.2,0.6c-0.1,0.5-0.5,0.8-0.5,0.8s-0.7,1.6-0.5,2.2
	c0.2,0.6,1.6,1.2,2.7,2c1-0.5,2.1-0.8,2.2-1.3c0.1-0.2,0.2-0.5,0.2-0.9c0-1.1-0.5-2.3-0.5-2.3s-0.3-0.2-0.5-0.6
	c-0.2-0.4-0.1-1-0.1-1s0.1-0.1,0.1-0.3c-0.1-0.5-0.3-1.4-0.2-2.6c0.1-1.7,1.5-2.4,2.1-2.6c0.6-0.2,1.6-0.3,2.7,0.3
	c1,0.6,1.3,1.7,1.3,2.4c0.1,0.7-0.3,2.5-0.3,2.5s0.3,0.1,0.2,0.7c-0.1,0.6-0.6,1-0.6,1s-0.8,2-0.6,2.8c0.1,0.5,0.9,0.9,1.7,1.5
	c1.1-0.6,2.8-0.9,3-1.5c0.1-0.2,0.2-0.4,0.2-0.7c0-0.8-0.4-1.8-0.4-1.8s-0.3-0.2-0.4-0.5c-0.2-0.3-0.1-0.8-0.1-0.8s0.1-0.1,0.1-0.3
	c-0.1-0.4-0.3-1.1-0.2-2c0.1-1.3,1.4-1.9,1.9-2c0.5-0.1,1.5-0.2,2.4,0.3c0.9,0.5,1.1,1.3,1.2,1.9c0,0.6-0.2,2-0.2,2s0.3,0.1,0.2,0.6
	c-0.1,0.5-0.5,0.8-0.5,0.8s-0.7,1.6-0.5,2.2c0.2,0.6,1.8,1.2,2.9,2.1c1.5,0.8,1.8,3.4,1.8,3.4h-7.9c0.3,0.9,0.4,1.7,0.4,1.7H-537
	c0,0,0.1-0.8,0.3-1.7H-544.8L-544.8,406.9L-544.8,406.9L-544.8,406.9z"/>
</svg>
