<svg id="レイヤー_1" xmlns="http://www.w3.org/2000/svg" viewBox="0 0 91 74.2"><style>.st0{opacity:.8;fill:#f7089c}.st1{opacity:.6}.st2{fill:#5a0bf4}.st3,.st4{opacity:.8;fill:#f4dd0b}.st4{fill:#0bf447}</style><path class="st0" d="M44 37.2L5.6 46c-2.3.5-3.7 2.8-3.2 5.1l3.5 15.3c.5 2.3 2.8 3.7 5.1 3.2l16-3.8 6.9 5.1s-.6-3.5-1.2-6.4l16.6-3.8c2.3-.5 3.7-2.8 3.2-5.1L49 40.3c-.5-2.2-2.7-3.6-5-3.1z"/><g class="st1"><path class="st2" d="M3 34.8c-.3-1.5.4-2.8 1.8-3.1 1.4-.3 2.5.6 2.9 2 .3 1.4-.3 2.7-1.8 3-1.4.4-2.6-.5-2.9-1.9zm3.2 14.3c-.4-1.5.4-2.8 1.8-3.1 1.4-.3 2.5.6 2.9 2 .3 1.4-.3 2.7-1.8 3-1.4.4-2.6-.5-2.9-1.9zm4.5-22.6c2-.8 4.4-1.6 7.1-2.2 4.9-1.1 8.7-.7 11.5 1 2.9 1.7 4.9 4.6 5.9 9 1 4.5.5 8.4-1.5 11.5-1.9 3.1-5.7 5.4-10.8 6.5-2.4.5-4.5.9-6.3 1.1l-5.9-26.9zM19.5 50c.9 0 2.2-.3 3.5-.6 7.3-1.6 10.3-6.7 8.7-14.1-1.4-6.5-5.8-9.8-13.1-8.2-1.8.4-3.1.9-3.9 1.3L19.5 50z"/></g><path class="st3" d="M62.4 16.7c0-2.8 1.1-5.3 2.8-7.1-2.1 1.9-3.4 4.7-3.4 7.8 0 5.8 4.7 10.6 10.6 10.6 3.1 0 5.9-1.3 7.8-3.4-1.9 1.7-4.4 2.8-7.1 2.8-6-.1-10.7-4.9-10.7-10.7zm21.8 25.9l-2.1.5-2.3-9.9c7.3-3.4 11.4-11.6 9.5-19.7-2.2-9.4-11.6-15.2-21-13-9.4 2.2-15.2 11.6-13 21 1.9 8.1 9.2 13.6 17.3 13.5l2.3 9.9-2.1.5 6.8 28.9L91 71.5l-6.8-28.9zm-8.8-12c-7.3 1.7-14.6-2.8-16.3-10.1C57.4 13.3 61.9 6 69.2 4.2 76.5 2.5 83.8 7 85.5 14.3c1.7 7.3-2.8 14.6-10.1 16.3z"/><path class="st4" d="M61.6 47.6L45.9 16.4 39.3 20 57 50.1l4.6-2.5zm.5 6.4c-2.3 1.3-3.1 3.9-1.9 6.2 1.2 2.2 3.8 3.1 6.2 1.8 2.5-1.3 3.1-3.9 1.9-6.2-1.2-2.3-3.7-3.1-6.2-1.8z"/></svg>