<?xml version="1.0" encoding="utf-8"?>
<!-- Generator: Adobe Illustrator 19.1.0, SVG Export Plug-In . SVG Version: 6.00 Build 0)  -->
<svg version="1.1" id="レイヤー_1" xmlns="http://www.w3.org/2000/svg" xmlns:xlink="http://www.w3.org/1999/xlink" x="0px"
	 y="0px" viewBox="-237 292.3 724.4 186.7" style="enable-background:new -237 292.3 724.4 186.7;" xml:space="preserve">
<style type="text/css">
	.st0{fill:#102F5B;}
	.st1{opacity:0.1;fill:#C7C9C9;}
	.st2{fill:#F2C28D;}
	.st3{fill:#EDEDED;}
	.st4{fill:#C6C6C6;}
	.st5{fill:#28324E;}
	.st6{fill:#485678;}
	.st7{fill:#FFD2A1;}
	.st8{opacity:0.5;fill:#7D4E24;}
	.st9{fill:#7D4E24;}
	.st10{fill:#575756;}
	.st11{fill:#F6F6F6;}
	.st12{fill:#4D4D4D;}
	.st13{fill:#B6312F;}
	.st14{fill:#CF4941;}
	.st15{fill:#616161;}
	.st16{fill:#FFFFFF;}
	.st17{fill:#DF4937;}
	.st18{fill:#0593A1;}
	.st19{fill:#ED4E3A;}
	.st20{opacity:0.4;fill:#FFFFFF;}
	.st21{opacity:0.8;fill:#F6F6F6;}
	.st22{fill:#DADADA;}
	.st23{fill:#F89F26;}
	.st24{opacity:0.4;fill-rule:evenodd;clip-rule:evenodd;fill:#1D1D1B;}
	.st25{fill:#FFE80A;}
	.st26{fill:#E96B57;}
	.st27{fill:#69E3FF;}
	.st28{opacity:0.4;fill:#1D1D1B;}
	.st29{fill:#9D9D9C;}
	.st30{fill:#FAC48E;}
	.st31{fill:#FFCF9F;}
	.st32{fill:#7CCC12;}
	.st33{fill:#B2B2B2;}
	.st34{fill:#FFED00;}
	.st35{fill:#C9A341;}
	.st36{opacity:0.1;fill:#1D1D1B;}
	.st37{opacity:0.5;fill:#FFFFFF;}
</style>
<path class="st0" d="M-1.9,341.1c0-0.1,0-0.3,0-0.4c0-0.2,0-0.4,0-0.7l2.9-1.7l-1.5-3.5l-3.2,0.9c-0.1-0.2-0.3-0.3-0.4-0.5
	c-0.1-0.1-0.2-0.2-0.3-0.3c-0.2-0.2-0.3-0.3-0.5-0.4l0.9-3.2l-3.5-1.5l-1.7,2.9c-0.2,0-0.4,0-0.7,0l0,0c-0.1,0-0.2,0-0.4,0
	c-0.2,0-0.4,0-0.7,0l-1.7-2.9l-3.5,1.5l0.9,3.2c-0.2,0.1-0.3,0.3-0.5,0.4c-0.1,0.1-0.2,0.2-0.3,0.3l0,0c-0.2,0.2-0.3,0.3-0.4,0.5
	l-3.2-0.9l-1.5,3.5l2.9,1.7c0,0.2,0,0.4,0,0.7c0,0.1,0,0.3,0,0.4c0,0.2,0,0.5,0,0.7l-2.9,1.7l1.5,3.5l3.2-0.9
	c0.1,0.2,0.3,0.3,0.4,0.5c0.1,0.1,0.2,0.2,0.3,0.3c0.2,0.2,0.3,0.3,0.5,0.4l-0.9,3.2l3.5,1.5l1.7-2.9c0.2,0,0.4,0,0.7,0
	c0.1,0,0.3,0,0.4,0c0.2,0,0.5,0,0.7,0l1.7,2.9l3.5-1.5l-0.9-3.2c0.2-0.1,0.3-0.3,0.5-0.4c0.1-0.1,0.2-0.2,0.3-0.3
	c0.2-0.2,0.3-0.3,0.4-0.5l3.2,0.9l1.5-3.5l-2.9-1.7C-2,341.5-1.9,341.3-1.9,341.1z M-10.2,343.9c-1.7,0-3.1-1.4-3.1-3.1
	c0-1.7,1.4-3.1,3.1-3.1c1.7,0,3.1,1.4,3.1,3.1C-7.2,342.5-8.5,343.9-10.2,343.9z"/>
<path class="st1" d="M329.1,411c0-0.1,0-0.3,0-0.4c0-0.2,0-0.4,0-0.7l2.9-1.7l-1.5-3.5l-3.2,0.9c-0.1-0.2-0.3-0.3-0.4-0.5
	c-0.1-0.1-0.2-0.2-0.3-0.3c-0.2-0.2-0.3-0.3-0.5-0.4l0.9-3.2l-3.5-1.5l-1.7,2.9c-0.2,0-0.4,0-0.7,0l0,0c-0.1,0-0.2,0-0.4,0
	c-0.2,0-0.4,0-0.7,0l-1.7-2.9l-3.5,1.5l0.9,3.2c-0.2,0.1-0.3,0.3-0.5,0.4c-0.1,0.1-0.2,0.2-0.3,0.3l0,0c-0.2,0.2-0.3,0.3-0.4,0.5
	l-3.2-0.9l-1.5,3.5l2.9,1.7c0,0.2,0,0.4,0,0.7c0,0.1,0,0.3,0,0.4c0,0.2,0,0.5,0,0.7l-2.9,1.7l1.5,3.5l3.2-0.9
	c0.1,0.2,0.3,0.3,0.4,0.5c0.1,0.1,0.2,0.2,0.3,0.3c0.2,0.2,0.3,0.3,0.5,0.4l-0.9,3.2l3.5,1.5l1.7-2.9c0.2,0,0.4,0,0.7,0
	c0.1,0,0.3,0,0.4,0c0.2,0,0.5,0,0.7,0l1.7,2.9l3.5-1.5l-0.9-3.2c0.2-0.1,0.3-0.3,0.5-0.4c0.1-0.1,0.2-0.2,0.3-0.3
	c0.2-0.2,0.3-0.3,0.4-0.5l3.2,0.9l1.5-3.5l-2.9-1.7C329.1,411.5,329.1,411.3,329.1,411z M320.8,413.9c-1.7,0-3.1-1.4-3.1-3.1
	c0-1.7,1.4-3.1,3.1-3.1c1.7,0,3.1,1.4,3.1,3.1C323.9,412.5,322.5,413.9,320.8,413.9z"/>
<path class="st0" d="M242.9,344.2c0-0.1,0-0.2,0-0.3c0-0.2,0-0.3,0-0.4l1.9-1.1l-1-2.3l-2.1,0.6c-0.1-0.1-0.2-0.2-0.3-0.3
	c-0.1-0.1-0.1-0.1-0.2-0.2c-0.1-0.1-0.2-0.2-0.3-0.3l0.6-2.1l-2.3-1l-1.1,1.9c-0.1,0-0.3,0-0.4,0l0,0c-0.1,0-0.2,0-0.2,0
	c-0.2,0-0.3,0-0.4,0l-1.1-1.9l-2.3,1l0.6,2.1c-0.1,0.1-0.2,0.2-0.3,0.3c-0.1,0.1-0.1,0.1-0.2,0.2l0,0c-0.1,0.1-0.2,0.2-0.3,0.3
	l-2.1-0.6l-1,2.3l1.9,1.1c0,0.1,0,0.3,0,0.4c0,0.1,0,0.2,0,0.3c0,0.2,0,0.3,0,0.4l-1.9,1.1l1,2.3l2.1-0.6c0.1,0.1,0.2,0.2,0.3,0.3
	c0.1,0.1,0.1,0.1,0.2,0.2c0.1,0.1,0.2,0.2,0.3,0.3l-0.6,2.1l2.3,1l1.1-1.9c0.1,0,0.3,0,0.5,0c0.1,0,0.2,0,0.3,0c0.2,0,0.3,0,0.4,0
	l1.1,1.9l2.3-1l-0.6-2.1c0.1-0.1,0.2-0.2,0.3-0.3c0.1-0.1,0.1-0.1,0.2-0.2c0.1-0.1,0.2-0.2,0.3-0.3l2.1,0.6l1-2.3l-1.9-1.1
	C242.9,344.5,242.9,344.4,242.9,344.2z M237.4,346.1c-1.1,0-2-0.9-2-2c0-1.1,0.9-2,2-2c1.1,0,2,0.9,2,2
	C239.4,345.2,238.5,346.1,237.4,346.1z"/>
<path class="st0" d="M271.1,373.5c0-0.1,0-0.1,0-0.2c0-0.1,0-0.2,0-0.3l1.3-0.8l-0.7-1.6l-1.5,0.4c-0.1-0.1-0.1-0.1-0.2-0.2
	c0,0-0.1-0.1-0.1-0.1c-0.1-0.1-0.2-0.1-0.2-0.2l0.4-1.5l-1.6-0.7l-0.8,1.3c-0.1,0-0.2,0-0.3,0l0,0c-0.1,0-0.1,0-0.2,0
	c-0.1,0-0.2,0-0.3,0l-0.8-1.3l-1.6,0.7l0.4,1.5c-0.1,0.1-0.1,0.1-0.2,0.2c0,0-0.1,0.1-0.1,0.1l0,0c-0.1,0.1-0.1,0.1-0.2,0.2
	l-1.5-0.4l-0.7,1.6l1.3,0.8c0,0.1,0,0.2,0,0.3c0,0.1,0,0.1,0,0.2c0,0.1,0,0.2,0,0.3l-1.3,0.8l0.7,1.6l1.5-0.4
	c0.1,0.1,0.1,0.1,0.2,0.2c0,0,0.1,0.1,0.1,0.1c0.1,0.1,0.1,0.1,0.2,0.2l-0.4,1.5l1.6,0.7l0.8-1.3c0.1,0,0.2,0,0.3,0
	c0.1,0,0.1,0,0.2,0c0.1,0,0.2,0,0.3,0l0.8,1.3l1.6-0.7l-0.4-1.5c0.1-0.1,0.1-0.1,0.2-0.2c0,0,0.1-0.1,0.1-0.1
	c0.1-0.1,0.1-0.2,0.2-0.2l1.5,0.4l0.7-1.6l-1.3-0.8C271.1,373.7,271.1,373.6,271.1,373.5z M267.4,374.8c-0.8,0-1.4-0.6-1.4-1.4
	s0.6-1.4,1.4-1.4s1.4,0.6,1.4,1.4S268.2,374.8,267.4,374.8z"/>
<g>
	<path class="st0" d="M196.7,331.9C196.6,331.9,196.6,331.9,196.7,331.9c-0.8-0.1-1.6,0.4-1.8,1.2c-0.9,3.1-1.5,4.1-2.4,5.5
		c0.1,0,1.4-1.3,2.9-1.3h1.2c0.4-1.2,0.8-2.4,1.1-3.6C197.9,332.7,197.4,332,196.7,331.9z"/>
	<path class="st0" d="M204.1,341.9L204.1,341.9c0-0.8-0.6-1.4-1.4-1.4h-0.2c0.8,0,1.4-0.6,1.4-1.4v0c0-0.8-0.6-1.4-1.4-1.4h-1.9H199
		h-1.7h-0.4h-0.2h-1c-1.4,0-2.7,0.7-3.4,1.9h-0.2h-4.4v7h4.6c0.7,1.1,2,1.9,3.4,1.9h1.6h0.6h1.1h0.8h2c0.7,0,1.2-0.5,1.2-1.2v0
		c0-0.7-0.5-1.2-1.2-1.2h0.9c0.8,0,1.4-0.6,1.4-1.4v0c0-0.8-0.6-1.4-1.4-1.4h0.1C203.5,343.3,204.1,342.7,204.1,341.9z"/>
</g>
<g>
	<path class="st0" d="M-90.9,393.3C-90.9,393.3-90.9,393.3-90.9,393.3c-0.8-0.1-1.6,0.4-1.8,1.2c-0.9,3.1-1.5,4.1-2.4,5.5
		c0.1,0,1.4-1.3,2.9-1.3h1.2c0.4-1.2,0.8-2.4,1.1-3.6C-89.7,394.2-90.1,393.4-90.9,393.3z"/>
	<path class="st0" d="M-83.5,403.3L-83.5,403.3c0-0.8-0.6-1.4-1.4-1.4H-85c0.8,0,1.4-0.6,1.4-1.4v0c0-0.8-0.6-1.4-1.4-1.4h-1.9h-1.6
		h-1.7h-0.4h-0.2h-1c-1.4,0-2.7,0.8-3.4,1.9h-0.2h-4.4v7h4.6c0.7,1.1,2,1.9,3.4,1.9h1.6h0.6h1.1h0.8h2c0.7,0,1.2-0.5,1.2-1.2v0
		c0-0.7-0.5-1.2-1.2-1.2h0.9c0.8,0,1.4-0.6,1.4-1.4v0c0-0.8-0.6-1.4-1.4-1.4h0.1C-84.1,404.7-83.5,404.1-83.5,403.3z"/>
</g>
<g>
	<path class="st2" d="M50.9,419.4V414c-2.6,3-4.7,3.7-9.5,3.7c0,0,0,0-0.1,0c0,0,0,0-0.1,0c-4.8,0-7-0.7-9.5-3.7v5.4l9.6,9.2
		L50.9,419.4z"/>
	<path class="st2" d="M31.8,419.4V414c2.6,3,4.7,3.7,9.5,3.7c0,0,0,0,0.1,0c0,0,0,0,0.1,0c4.8,0,7-0.7,9.5-3.7v5.4l-9.6,9.2
		L31.8,419.4z"/>
	<path class="st3" d="M38.8,435.1l-0.4-3.9l-3.4,2.9L25.4,424l-13.2,3.4C7.3,429,4,433.5,4,438.6v13.3h3h8.8h2.5h18.9L38.8,435.1z"
		/>
	<path class="st3" d="M43.9,435.1l0.4-3.9l3.4,2.9l9.6-10.1l13.2,3.4c4.9,1.6,8.1,6.1,8.1,11.2v13.3h-3h-8.8h-2.5H45.4L43.9,435.1z"
		/>
	<polygon class="st4" points="35,434.1 38.3,431.2 41.3,428.6 31.8,419.4 25.4,424 25.4,424 	"/>
	<polygon class="st4" points="47.7,434.1 44.4,431.2 41.3,428.6 50.9,419.4 57.3,424 57.3,424 	"/>
	<polygon class="st5" points="41.3,428.6 38.3,431.2 38.8,435.1 43.9,435.1 44.4,431.2 	"/>
	<polygon class="st6" points="38.8,435.1 37.3,451.9 45.4,451.9 43.9,435.1 	"/>
	<path class="st7" d="M41.3,417.7c-4.8,0-7-0.7-9.5-3.7c-1.1-1.3-2.3-3-3.9-5.4c-1.3-1.9-2.4-4.9-3.1-8.6c-0.1,0-0.2,0.1-0.3,0.1
		c-0.3,0.1-0.7,0-1-0.1c-1.4-0.5-2.7-2.6-3.1-5.2c-0.5-3.2,0.5-6,2.3-6.3c0.6-0.1,1.2,0.1,1.7,0.5c0.4,0.3,0.8,0.6,1.1,1.1v-8.6
		c0-1,0.2-1.9,0.6-2.7c5.6-4.5,10.4-2.3,15.5,0c5.1-2.3,9.9-4.5,15.5,0c0.4,0.8,0.6,1.7,0.6,2.7v8.6c0.3-0.5,0.7-0.9,1.1-1.1
		c0.5-0.4,1.1-0.6,1.7-0.5c1.8,0.3,2.8,3.1,2.3,6.3c-0.4,2.6-1.7,4.6-3.1,5.2c-0.3,0.1-0.7,0.2-1,0.1c-0.1,0-0.2-0.1-0.3-0.1
		c-0.8,3.7-1.8,6.6-3.1,8.6c-1.6,2.3-2.8,4-3.9,5.4c-2.6,3-4.7,3.7-9.5,3.7H41.3z"/>
	<path class="st8" d="M41.3,417.7C41.3,417.7,41.3,417.7,41.3,417.7c-4.9,0-7-0.7-9.6-3.7c-1.1-1.3-2.3-3-3.9-5.4
		c-1.3-1.9-2.4-4.9-3.1-8.6c0-0.5-0.5-11-0.5-11l1.1,0c0,0,0.8,8.4,1.6,11.1c0.7,2.1,4.4,5.8,7.1,4.1c3.1-1.8,5.9-2.1,7.3-2.2
		c0,0,0.1,0,0.1,0c0,0,0.1,0,0.1,0c1.3,0.1,4.2,0.3,7.3,2.2c2.7,1.6,6.4-2,7.1-4.1c0.8-2.7,1.6-11.1,1.6-11.1l1.1,0
		c0,0-0.4,10.5-0.5,11c-0.8,3.7-1.8,6.6-3.1,8.6c-1.6,2.3-2.8,4-3.9,5.4C48.4,417,46.3,417.7,41.3,417.7
		C41.4,417.7,41.4,417.7,41.3,417.7z"/>
	<path class="st7" d="M38.7,408.8c-1.2,0-2.2-0.8-2.2-1.9l0,0c0-1,1-1.9,2.2-1.9H44c1.2,0,2.2,0.8,2.2,1.9l0,0c0,1-1,1.9-2.2,1.9
		H38.7z"/>
	<path class="st9" d="M25.3,390.2v-8.6c0-1,0.2-1.9,0.6-2.7c10.9-8.8,18.7,7.7,31.4,1.6c0.1,0.4,0.1,0.8,0.1,1.2l-0.1,8.6
		c1.1-1.1,1.9-1.8,2.8-1.6l0.6-7.4c0.1-3.9-1.3-7.6-4-10.5c-3.8-4.1-7.7-5.4-15.4-5.4c-7.7,0-11.5,1.3-15.4,5.4
		c-2.7,2.8-4.1,6.6-4,10.5l0.6,7.4C23.5,388.5,24.5,389.1,25.3,390.2z"/>
	<path class="st10" d="M38.6,391.8v-2.9c0-0.1-0.1-0.2-0.2-0.2h-8.5c-0.3,0-0.5,0.2-0.5,0.5v2.6c0,2.2,1.8,3.9,3.9,3.9h1.4
		C36.9,395.7,38.6,394,38.6,391.8z M40.1,388.9v2.9c0,2.9-2.4,5.3-5.3,5.3h-1.4c-3,0-5.4-2.4-5.4-5.4v-2.6c0-1.1,0.9-2,2-2h8.5
		C39.3,387.2,40.1,388,40.1,388.9z"/>
	<path class="st10" d="M44.1,391.8v-2.9c0-0.1,0.1-0.2,0.2-0.2h8.5c0.3,0,0.5,0.2,0.5,0.5v2.6c0,2.2-1.8,3.9-3.9,3.9H48
		C45.8,395.7,44.1,394,44.1,391.8z M42.6,388.9v2.9c0,2.9,2.4,5.3,5.3,5.3h1.4c3,0,5.4-2.4,5.4-5.4v-2.6c0-1.1-0.9-2-2-2h-8.5
		C43.4,387.2,42.6,388,42.6,388.9z"/>
	<polygon class="st10" points="28.6,390.3 24.3,390.3 23.8,388.9 28.6,388.9 	"/>
	<polygon class="st10" points="54.1,390.3 58.4,390.3 58.9,388.9 54.1,388.9 	"/>
	<rect x="39.7" y="388.9" class="st10" width="3.3" height="1.4"/>
	<path class="st11" d="M31.3,389.4l-1.2,1.3v1.1c0,0.5,0.1,1,0.3,1.4l3.6-3.8H31.3z"/>
	<path class="st11" d="M45.9,389.4l-1.2,1.3v1.1c0,0.5,0.1,1,0.3,1.4l3.6-3.8H45.9z"/>
	<g>
		<g>
			<path class="st10" d="M22.3,399.2l-1.3,0.1c-1.9,0.2-2.7-9.2-0.7-9.4l1.3-0.1C23.1,389.7,23.7,399.1,22.3,399.2z"/>
			
				<ellipse transform="matrix(0.9919 -0.1273 0.1273 0.9919 -50.0612 5.715)" class="st10" cx="19.7" cy="394.5" rx="1.9" ry="2.7"/>
		</g>
		<g>
			<path class="st10" d="M60.2,399.2l1.3,0.1c1.9,0.2,2.7-9.2,0.7-9.4l-1.3-0.1C59.4,389.7,58.8,399.1,60.2,399.2z"/>
			
				<ellipse transform="matrix(-0.9919 -0.1273 0.1273 -0.9919 74.9168 793.8684)" class="st10" cx="62.8" cy="394.5" rx="1.9" ry="2.7"/>
		</g>
		<path class="st10" d="M36.7,411c-14.4,0-15.8-13.8-15.8-13.9l1.4-0.1c0,0.5,1.2,13,14.9,12.6l0,1.4C37,411,36.8,411,36.7,411z"/>
		<path class="st10" d="M45.8,410.2c0,1.2-0.9,2.1-2.1,2.1h-5.1c-1.2,0-2.1-0.9-2.1-2.1l0,0c0-1.2,0.9-2.1,2.1-2.1h5.1
			C44.8,408.1,45.8,409.1,45.8,410.2L45.8,410.2z"/>
	</g>
</g>
<g>
	<g>
		<path class="st2" d="M208,421.4v-5.6c-2.7,3.1-4.8,3.8-9.9,3.8c0,0,0,0-0.1,0c0,0,0,0,0,0c0,0,0,0,0,0c0,0,0,0-0.1,0
			c-5,0-7.2-0.8-9.9-3.8v5.6l10,9.5L208,421.4z"/>
		<path class="st12" d="M183.7,436.2l-5.3,0.5l-2.2-9.1h0l-8.5,2.2c-5,1.7-8.4,6.4-8.4,11.7v13.8h3.2h9.1h2.6h15l-9.7-15.9
			L183.7,436.2z"/>
		<path class="st12" d="M228.3,429.7l-8.5-2.2l0,0l-2.2,9.1l-5.3-0.5l4.4,3.1l-9.7,15.9h15h2.6h9.1h3.2v-13.8
			C236.7,436.1,233.3,431.4,228.3,429.7z"/>
		<polygon class="st3" points="191.4,436.7 189.2,434.4 194.1,451.1 195.3,437.7 194.9,433.6 		"/>
		<polygon class="st3" points="201.1,433.6 200.7,437.7 201.9,451.1 206.8,434.4 204.6,436.7 		"/>
		<polygon class="st4" points="189.2,434.4 191.4,436.7 194.9,433.6 198,431 188,421.4 185.8,423 		"/>
		<polygon class="st4" points="201.1,433.6 204.6,436.7 206.8,434.4 210.2,423 208,421.4 198,431 		"/>
		<polygon class="st13" points="198,431 194.9,433.6 195.3,437.7 200.7,437.7 201.1,433.6 		"/>
		<polygon class="st14" points="200.7,437.7 195.3,437.7 194.1,451.1 195.3,455.2 200.7,455.2 201.9,451.1 		"/>
		<path class="st7" d="M197.9,419.7C197.9,419.7,198,419.7,197.9,419.7C198,419.7,198,419.7,197.9,419.7c0.1,0,0.1,0,0.1,0
			c0,0,0,0,0.1,0c5,0,7.2-0.8,9.9-3.8c1.2-1.4,2.4-3.2,4.1-5.6c1.4-2,2.5-5.1,3.3-8.9c0.1,0,0.2,0.1,0.3,0.1c0.3,0.1,0.7,0,1-0.1
			c1.5-0.6,1.9-2.6,2.4-5.3c0.5-3.3,0.4-6.3-1.5-6.6c-1-0.2-2,0.5-2.9,1.7v-9c0-3.9-3.2-7.1-7.1-7.1h-19.2c-3.9,0-7.1,3.2-7.1,7.1v9
			c-0.8-1.2-1.9-1.8-2.9-1.7c-1.8,0.3-2.2,3.3-1.6,6.6c0.4,2.7,1,4.8,2.5,5.3c0.3,0.1,0.7,0.2,1,0.1c0.1,0,0.2-0.1,0.3-0.1
			c0.8,3.8,1.9,6.9,3.3,8.9c1.6,2.4,2.9,4.2,4.1,5.6C190.7,418.9,192.9,419.7,197.9,419.7z"/>
		<path class="st10" d="M181.3,391.2v-9c0-3.9,3.2-7.1,7.1-7.1h19.2c3.9,0,7.1,3.2,7.1,7.1v9c0.8-1.2,1.9-1.8,2.9-1.7l0.6-7.7
			c0.1-4-1.4-7.9-4.1-10.9c-4-4.2-8-5.6-16-5.6c0,0,0,0,0,0c0,0,0,0,0,0c-8,0-12,1.4-16,5.6c-2.8,2.9-4.3,6.8-4.1,10.9l0.6,7.7
			C179.5,389.3,180.5,390,181.3,391.2z"/>
		<polygon class="st15" points="212.3,436.2 217.5,436.7 219.8,427.5 219.8,427.5 210.2,423 210.2,423 206.8,434.4 201.9,451.1 
			200.7,455.2 202.2,455.2 205.3,455.2 206.9,455.2 216.6,439.3 		"/>
		<polygon class="st15" points="189.2,434.4 185.8,423 185.8,423 176.2,427.5 176.2,427.5 178.5,436.7 183.7,436.2 179.4,439.3 
			189.1,455.2 190.7,455.2 193.8,455.2 195.3,455.2 194.1,451.1 		"/>
	</g>
	<g>
		<path class="st10" d="M216.3,400.9l1.4,0.1c1.9,0.2,2.8-9.5,0.7-9.7l-1.4-0.1C215.5,391.1,214.8,400.8,216.3,400.9z"/>
		
			<ellipse transform="matrix(-0.9919 -0.1273 0.1273 -0.9919 385.7746 816.8093)" class="st10" cx="219" cy="396.1" rx="2" ry="2.8"/>
	</g>
	<g>
		<g>
			<path class="st10" d="M178.8,400.9l-1.4,0.1c-1.9,0.2-2.8-9.5-0.7-9.7l1.4-0.1C179.7,391.1,180.3,400.8,178.8,400.9z"/>
			
				<ellipse transform="matrix(0.9919 -0.1273 0.1273 0.9919 -48.9945 25.6519)" class="st10" cx="176.2" cy="396.1" rx="2" ry="2.8"/>
		</g>
		<path class="st10" d="M193.8,413.1c-15,0-16.4-14.3-16.4-14.5l1.5-0.1c0,0.5,1.3,13.4,15.4,13.1l0,1.5
			C194.1,413.1,194,413.1,193.8,413.1z"/>
		<path class="st10" d="M203.2,412.4c0,1.2-1,2.2-2.2,2.2h-5.2c-1.2,0-2.2-1-2.2-2.2l0,0c0-1.2,1-2.2,2.2-2.2h5.2
			C202.3,410.2,203.2,411.2,203.2,412.4L203.2,412.4z"/>
	</g>
</g>
<g>
	<path class="st3" d="M326.4,383.3c3-1.3,5.1-4.3,5.1-7.8c0-4.7-3.8-8.5-8.5-8.5c-0.1,0-0.1,0-0.2,0c-2.4-2.8-5.9-4.5-9.8-4.5
		c-3.9,0-7.5,1.8-9.8,4.5c-0.1,0-0.1,0-0.2,0c-4.7,0-8.5,3.8-8.5,8.5c0,4.7,3.8,8.5,8.5,8.5c0.1,0,0.1,0,0.2,0
		c2.4,2.8,5.9,4.5,9.8,4.5c2.7,0,5.2-0.8,7.3-2.2l10.6,8.1L326.4,383.3z"/>
	<path class="st16" d="M281.8,399.2c-3-1.3-5.1-4.3-5.1-7.8c0-4.7,3.8-8.5,8.5-8.5c0.1,0,0.1,0,0.2,0c2.4-2.8,5.9-4.5,9.8-4.5
		c3.9,0,7.5,1.8,9.8,4.5c0.1,0,0.1,0,0.2,0c4.7,0,8.5,3.8,8.5,8.5c0,4.7-3.8,8.5-8.5,8.5c-0.1,0-0.1,0-0.2,0
		c-2.4,2.8-5.9,4.5-9.8,4.5c-2.7,0-5.2-0.8-7.3-2.2l-10.6,8.1L281.8,399.2z"/>
	<g>
		<path class="st17" d="M305.2,379.3h2.2v2.2h-2.2V379.3z"/>
		<path class="st17" d="M309,379.3h2.2v2.2H309V379.3z"/>
		<path class="st17" d="M312.9,379.3h2.2v2.2h-2.2V379.3z"/>
		<path class="st17" d="M320.8,371.9c0,2.3-2.1,2.5-2.1,4.5v1.6h-2.2v-1.2c0-2.9,2.1-3.5,2.1-4.9c0-0.6-0.4-0.9-1-0.9
			c-0.5,0-1,0.5-1,1.3v0.5h-2.2v-0.8c0-1.6,1.3-2.7,3.1-2.7C319.5,369.2,320.8,370.3,320.8,371.9z M316.6,379.3h2.2v2.2h-2.2V379.3z
			"/>
	</g>
	<g>
		<path class="st18" d="M288.4,395.1h2.2v2.2h-2.2V395.1z"/>
		<path class="st18" d="M292.2,395.1h2.2v2.2h-2.2V395.1z"/>
		<path class="st18" d="M296,395.1h2.2v2.2H296V395.1z"/>
		<path class="st18" d="M302,385.2v8.6h-2.2v-8.6H302z M299.8,395.1h2.2v2.2h-2.2V395.1z"/>
	</g>
</g>
<g>
	<path class="st19" d="M-55.6,411.8c-1.1,0.1-2.3,0.2-3.5,0.2c-1,0-1.9,0-2.8-0.1l0.5-13.8h5.3L-55.6,411.8z"/>
	<path class="st13" d="M-56.4,398.9h-4.7c-0.7,0-1.3-0.6-1.3-1.3v-3.1h7.2v3.1C-55.1,398.4-55.7,398.9-56.4,398.9z"/>
	<circle class="st20" cx="-58.7" cy="381.7" r="10.6"/>
	<path class="st13" d="M-55.1,377.7c0,2.6-2.4,2.9-2.4,5.2v1.9H-60v-1.4c0-3.3,2.4-4.1,2.4-5.7c0-0.6-0.5-1.1-1.1-1.1
		c-0.6,0-1.1,0.6-1.1,1.5v0.6h-2.5v-0.9c0-1.9,1.5-3.2,3.6-3.2C-56.6,374.5-55.1,375.7-55.1,377.7z M-60,386.3h2.5v2.5H-60V386.3z"
		/>
	<path class="st19" d="M-58.7,395.5c-7.6,0-13.7-6.2-13.7-13.7s6.2-13.7,13.7-13.7s13.7,6.2,13.7,13.7S-51.2,395.5-58.7,395.5z
		 M-58.7,371.4c-5.7,0-10.3,4.6-10.3,10.3c0,5.7,4.6,10.3,10.3,10.3s10.3-4.6,10.3-10.3C-48.4,376.1-53.1,371.4-58.7,371.4z"/>
	<path class="st21" d="M-67.9,378.9c0.5-1.7,1.5-3.3,2.9-4.5l0.2-0.2c1-0.9,2.3-1.5,3.5-1.8l0.6,2.3c-1,0.3-1.8,0.7-2.6,1.3
		l-0.2,0.2c-1,0.9-1.8,2-2.1,3.3L-67.9,378.9z"/>
	<path class="st21" d="M-50.2,386.1c-0.1,0.1-0.1,0.2-0.2,0.3l-0.2,0.3c-1,1.7-2.5,3-4.2,3.8l-0.8-1.7c1.4-0.7,2.6-1.7,3.4-3
		l0.2-0.3c0-0.1,0.1-0.2,0.1-0.2L-50.2,386.1z"/>
	<path class="st16" d="M-46.8,367.7c1.3,0,2.3,1,2.3,2.3v2.2h1.7V370c0-2.2-1.8-4-4-4h-1.8v1.7H-46.8z"/>
	<path class="st16" d="M-44.5,393.5c0,1.3-1,2.3-2.3,2.3h-1.8v1.7h1.8c2.2,0,4-1.8,4-4v-0.9h-1.7V393.5z"/>
	<path class="st16" d="M-73,370c0-1.3,1-2.3,2.3-2.3h1.8v-1.7h-1.8c-2.2,0-4,1.8-4,4v2.2h1.7V370z"/>
	<path class="st16" d="M-70.7,395.8c-1.3,0-2.3-1-2.3-2.3v-0.9h-1.7v0.9c0,2.2,1.8,4,4,4h1.8v-1.7H-70.7z"/>
</g>
<g>
	<g>
		<polygon class="st13" points="397.7,455 357.1,455 357.1,449.9 377.6,447.2 397.7,449.9 		"/>
		<path class="st13" d="M400.7,439.8l-23.3,3.1l-23.3-3.1v-0.1c0-5.1,4.1-9.2,9.2-9.2h28.3C396.6,430.6,400.7,434.7,400.7,439.8
			L400.7,439.8z"/>
		<path class="st17" d="M365,443.2h-9.3c-0.6,0-1.2-0.5-1.3-1.1l-0.3-2.2H365V443.2z"/>
		<path class="st17" d="M389.8,443.2h9.3c0.6,0,1.2-0.5,1.3-1.1l0.3-2.2h-10.9V443.2z"/>
		<path class="st19" d="M397.7,449.9h-40.6l5.7-13.4c0.8-1.9,2.8-3.1,5-3.1H387c2.2,0,4.2,1.2,5,3.1L397.7,449.9z"/>
		<g>
			<path class="st12" d="M362.1,456.6h-2c-0.4,0-0.7-0.3-0.7-0.7V455h3.4v0.9C362.8,456.3,362.5,456.6,362.1,456.6z"/>
			<path class="st12" d="M394.6,456.6h-2c-0.4,0-0.7-0.3-0.7-0.7V455h3.4v0.9C395.3,456.3,395,456.6,394.6,456.6z"/>
		</g>
		<g>
			<path class="st12" d="M385.9,445h-2.4h-5.7l0-2.8h5.3h2.2h2.1v-0.5H383l-0.4-2.4h4v-0.4h-4l-0.3-2h3.7v-0.4h-3.7l-0.3-1.8
				l-0.2,0.9l-0.5-0.9l0.2,1.8h-3.7l0-1.8l-0.3,0.9l-0.4-0.9l0,1.8h-3.7l0.2-1.7l-0.5,0.9l-0.2-0.9l-0.3,1.8h-3.7v0.4h3.7l-0.3,2h-4
				v0.4h4l-0.4,2.4h-4.4v0.5h4.3l-0.4,2.8h-4.5h-0.2v0.9h21.8v-0.3V445H385.9z M376.9,445h-4.7l0.4-2.8h4.4L376.9,445z M377,441.7
				h-4.4l0.3-2.4h4.1L377,441.7z M377,438.9h-4l0.3-2h3.8L377,438.9z M377.8,436.8h3.8l0.3,2h-4L377.8,436.8z M377.8,439.3h4.1
				l0.3,2.4h-4.4L377.8,439.3z"/>
			<polygon class="st11" points="372.8,434.7 369.3,434.7 368.8,436.5 372.6,436.5 			"/>
			<polygon class="st11" points="377,436.5 377.1,434.7 373.5,434.7 373.5,434.7 373.3,436.5 			"/>
			<polygon class="st11" points="381.5,436.5 381.3,434.7 377.7,434.7 377.8,436.5 			"/>
			<polygon class="st11" points="386,436.5 385.5,434.7 382,434.7 382.2,436.5 			"/>
			<polygon class="st11" points="372.5,436.8 368.8,436.8 368.7,436.8 368.2,438.9 372.2,438.9 			"/>
			<polygon class="st11" points="373,438.9 377,438.9 377,436.8 373.2,436.8 			"/>
			<polygon class="st11" points="381.6,436.8 377.8,436.8 377.8,438.9 381.8,438.9 			"/>
			<polygon class="st11" points="382.6,438.9 386.6,438.9 386.1,436.8 386,436.8 382.3,436.8 			"/>
			<polygon class="st11" points="372.1,439.3 368.2,439.3 368,439.3 367.4,441.7 371.8,441.7 			"/>
			<polygon class="st11" points="372.6,441.7 377,441.7 377,439.3 372.9,439.3 			"/>
			<polygon class="st11" points="381.9,439.3 377.8,439.3 377.8,441.7 382.2,441.7 			"/>
			<polygon class="st11" points="383,441.7 387.4,441.7 386.8,439.3 386.6,439.3 382.7,439.3 			"/>
			<polygon class="st11" points="371.3,445 371.7,442.2 367.4,442.2 367.3,442.2 366.5,445 366.7,445 			"/>
			<polygon class="st11" points="372.2,445 376.9,445 377,442.2 372.6,442.2 			"/>
			<polygon class="st11" points="383.1,442.2 377.8,442.2 377.9,445 383.6,445 385.9,445 388.3,445 387.5,442.2 387.4,442.2 
				385.3,442.2 			"/>
		</g>
	</g>
	<g>
		<path class="st19" d="M345.8,442.9c0,16.6,13,30.2,29.3,31.1v-2.8c-14.8-0.9-26.5-13.3-26.5-28.3c0-13,8.7-24.1,20.9-27.4l0.3-1.3
			l-0.6-1.5C355.5,416.3,345.8,428.5,345.8,442.9z"/>
		<polygon class="st19" points="369.4,415.6 368.8,418.9 376.9,413.2 367.7,409.4 369.1,412.8 369.7,414.3 		"/>
		<path class="st16" d="M405.3,442.8c0,13-8.7,24.1-20.9,27.4l-0.3,1.3l0.6,1.5c13.6-3.5,23.3-15.7,23.3-30.2
			c0-16.6-13-30.2-29.3-31.1v2.8C393.5,415.5,405.3,427.8,405.3,442.8z"/>
		<polygon class="st16" points="384.4,470.2 385.1,466.9 376.9,472.6 386.2,476.3 384.8,473 384.2,471.5 		"/>
	</g>
</g>
<g>
	<g>
		<path class="st16" d="M-111.6,440.5c0-16.6-13-30.2-29.3-31.1v2.8c14.8,0.9,26.5,13.3,26.5,28.3c0,13-8.7,24.1-20.9,27.4l-0.3,1.3
			l0.6,1.5C-121.3,467.2-111.6,454.9-111.6,440.5z"/>
		<polygon class="st16" points="-135.2,467.9 -134.6,464.6 -142.8,470.3 -133.5,474 -134.9,470.7 -135.5,469.2 		"/>
		<path class="st19" d="M-171.1,440.6c0-13,8.7-24.1,20.9-27.4l0.3-1.3l-0.6-1.5c-13.6,3.5-23.3,15.7-23.3,30.2
			c0,16.6,13,30.2,29.3,31.1v-2.8C-159.4,467.9-171.1,455.6-171.1,440.6z"/>
		<polygon class="st19" points="-150.3,413.2 -150.9,416.5 -142.8,410.8 -152,407.1 -150.6,410.4 -150,411.9 		"/>
	</g>
	<g>
		<rect x="-163.5" y="427" class="st22" width="41.5" height="27.1"/>
		<path class="st3" d="M-142.8,437.9l-18.2,11.3c-1.6,1-2.5,2.7-2.5,4.5v0.5h41.5v-0.5c0-1.8-0.9-3.5-2.5-4.5L-142.8,437.9z"/>
		<path class="st16" d="M-142.8,442.2c-1.3,0-2.6-0.3-3.8-0.9l-13.6-6.8c-2.1-1-3.4-3.1-3.4-5.4V427h41.5v2.1c0,2.3-1.3,4.4-3.4,5.4
			l-13.6,6.8C-140.2,441.9-141.5,442.2-142.8,442.2z"/>
	</g>
</g>
<g>
	<path class="st0" d="M-21.5,425.3h-21.2c-0.8,0-1.5,0.7-1.5,1.5v27.5c0,0.8,0.7,1.5,1.5,1.5h21.2c0.8,0,1.5-0.7,1.5-1.5v-27.5
		C-20,426-20.7,425.3-21.5,425.3z M-27.2,452.5c0,1.1-0.9,2.1-2.1,2.1H-35c-1.1,0-2.1-0.9-2.1-2.1v0c0-1.1,0.9-2.1,2.1-2.1h5.7
		C-28.1,450.4-27.2,451.3-27.2,452.5L-27.2,452.5z M-22.6,449h-19v-10.3h19V449z M-22.6,436.8h-19v-3.4h19V436.8z M-22.6,431.4h-19
		V428h19V431.4z"/>
	<path class="st0" d="M-40.2,430.3h9.4c0.3,0,0.6-0.3,0.6-0.6c0-0.3-0.3-0.6-0.6-0.6h-9.4c-0.3,0-0.6,0.3-0.6,0.6
		C-40.7,430-40.5,430.3-40.2,430.3z"/>
	<path class="st0" d="M-40.2,435.7h11.9c0.3,0,0.6-0.3,0.6-0.6c0-0.3-0.3-0.6-0.6-0.6h-11.9c-0.3,0-0.6,0.3-0.6,0.6
		C-40.7,435.5-40.5,435.7-40.2,435.7z"/>
	<path class="st0" d="M-40.2,441h6.9c0.3,0,0.6-0.3,0.6-0.6c0-0.3-0.3-0.6-0.6-0.6h-6.9c-0.3,0-0.6,0.3-0.6,0.6
		C-40.7,440.7-40.5,441-40.2,441z"/>
	<path class="st0" d="M-40.2,443.3h6.9c0.3,0,0.6-0.3,0.6-0.6c0-0.3-0.3-0.6-0.6-0.6h-6.9c-0.3,0-0.6,0.3-0.6,0.6
		C-40.7,443-40.5,443.3-40.2,443.3z"/>
	<path class="st0" d="M-40.2,445.6h13c0.3,0,0.6-0.3,0.6-0.6s-0.3-0.6-0.6-0.6h-13c-0.3,0-0.6,0.3-0.6,0.6S-40.5,445.6-40.2,445.6z"
		/>
	<path class="st0" d="M-30.6,441h6.9c0.3,0,0.6-0.3,0.6-0.6c0-0.3-0.3-0.6-0.6-0.6h-6.9c-0.3,0-0.6,0.3-0.6,0.6
		C-31.2,440.7-30.9,441-30.6,441z"/>
	<polygon class="st0" points="-33.7,453 -32.9,453 -32.9,454.2 -31.5,454.2 -31.5,453 -30.7,453 -32.2,450.8 	"/>
</g>
<path class="st0" d="M44,332.6c-0.7-0.7-1.7-1.1-2.6-1.3c-1.9-0.5-5.1,6.1-3.5,7.3c0.5,0.4,1,0.6,1.5,0.8c-1.1,1.6-2.4,3.1-3.7,4.5
	c-1.4,1.3-2.9,2.6-4.5,3.7c-0.2-0.5-0.5-1.1-0.8-1.5c-1.2-1.6-7.8,1.6-7.3,3.5c0.2,0.9,0.6,2,1.3,2.6c1.4,1.4,3.6,1.5,5.2,0.5
	c0,0,0,0,0,0c3-1.6,6-3.9,8.5-6.3c2.4-2.5,4.7-5.6,6.3-8.5c0,0,0,0,0,0C45.5,336.2,45.4,334,44,332.6z M29.4,347.2
	c-0.5,0.5-1.3,1-2.1,1.4c-1.1,0.5-2.1,0.8-2.9,0.8c-0.3,0-0.6-0.1-0.6-0.2c-0.2-0.3,0.8-1.4,2.7-2.3c1.1-0.5,2.1-0.8,2.9-0.8
	c0.3,0,0.6,0.1,0.6,0.2C30.1,346.4,29.9,346.8,29.4,347.2z M38.2,338.2C38.2,338.2,38.2,338.2,38.2,338.2c-0.4-0.2-0.4-1.6,0.5-3.5
	c0.8-1.7,1.8-2.7,2.2-2.7c0,0,0.1,0,0.1,0c0.3,0.2,0.3,1.6-0.6,3.5C39.7,337.1,38.7,338.2,38.2,338.2z"/>
<g>
	<path class="st0" d="M268,407.9l3.4-1.2l-0.1-4.3l-3.5-1l-1.3-3.3l1.8-3.2l-2.8-3.2l-3.3,1.5l-3.1-1.7l-0.6-3.6l-4.2-0.6l-1.6,3.3
		l-3.5,0.7l-2.8-2.4l-3.6,2.3l0.9,3.5l-2.2,2.8l-3.7,0l-1.3,4.1l2.9,2.2l0.1,3.5l-2.8,2.3l1.6,4l3.6-0.2l2.4,2.7l-0.7,3.6l3.8,2
		l2.6-2.5l3.5,0.5l1.8,3.2l4.2-0.9l0.4-3.6l3-1.9l3.4,1.3l2.7-3.4l-2-3L268,407.9z M261.3,411.2l-5.6,3.5l-6.5-1l-4.4-4.9l-0.2-6.6
		l4.1-5.2l6.5-1.3l5.8,3.1l2.4,6.1L261.3,411.2z"/>
	<path class="st0" d="M255.4,412.9l-5.4-0.8l-3.6-4l-0.2-5.4l3.4-4.3l5.3-1.1l4.8,2.6l2,5L260,410L255.4,412.9z M251,410.3l4,0.6
		l3.4-2.1l1.3-3.8l-1.5-3.7l-3.5-1.9l-3.9,0.8l-2.5,3.1l0.1,4L251,410.3z"/>
</g>
<path class="st19" d="M-144.6,406.5C-144.6,406.5-144.6,406.5-144.6,406.5c-0.3,0-0.4-0.2-0.4-0.4c0-0.1,0.2-1.9,0.8-4.8
	c0-0.2,0.3-0.4,0.5-0.3c0.2,0,0.4,0.3,0.3,0.5c-0.6,2.9-0.8,4.7-0.8,4.8C-144.2,406.4-144.4,406.5-144.6,406.5z M-142.7,397
	c0,0-0.1,0-0.1,0c-0.2-0.1-0.3-0.3-0.3-0.5c0.4-1.5,0.9-3.1,1.4-4.6c0.1-0.2,0.3-0.3,0.5-0.3c0.2,0.1,0.3,0.3,0.3,0.5
	c-0.5,1.5-1,3.1-1.4,4.6C-142.3,396.9-142.5,397-142.7,397z M-139.6,387.9c-0.1,0-0.1,0-0.2,0c-0.2-0.1-0.3-0.3-0.2-0.5
	c0.6-1.5,1.3-3,2-4.4c0.1-0.2,0.3-0.3,0.5-0.2c0.2,0.1,0.3,0.3,0.2,0.5c-0.7,1.4-1.3,2.9-1.9,4.4
	C-139.2,387.8-139.4,387.9-139.6,387.9z M-135.4,379.2c-0.1,0-0.1,0-0.2-0.1c-0.2-0.1-0.3-0.4-0.2-0.5c0.8-1.4,1.6-2.8,2.5-4.2
	c0.1-0.2,0.4-0.2,0.6-0.1c0.2,0.1,0.2,0.4,0.1,0.6c-0.9,1.3-1.7,2.7-2.4,4.1C-135.1,379.1-135.3,379.2-135.4,379.2z M-130.2,371
	c-0.1,0-0.2,0-0.2-0.1c-0.2-0.1-0.2-0.4-0.1-0.6c1-1.3,2-2.6,3-3.8c0.1-0.2,0.4-0.2,0.6-0.1c0.2,0.1,0.2,0.4,0.1,0.6
	c-1,1.2-2,2.5-2.9,3.8C-130,371-130.1,371-130.2,371z M-124.1,363.6c-0.1,0-0.2,0-0.3-0.1c-0.2-0.2-0.2-0.4,0-0.6
	c1.1-1.2,2.3-2.3,3.4-3.4c0.2-0.2,0.4-0.1,0.6,0c0.2,0.2,0.1,0.4,0,0.6c-1.2,1.1-2.3,2.2-3.4,3.4
	C-123.9,363.5-124,363.6-124.1,363.6z M-117,357c-0.1,0-0.2-0.1-0.3-0.1c-0.1-0.2-0.1-0.4,0.1-0.6c1.2-1,2.5-2,3.9-2.9
	c0.2-0.1,0.4-0.1,0.6,0.1c0.1,0.2,0.1,0.4-0.1,0.6c-1.3,0.9-2.6,1.9-3.8,2.9C-116.8,357-116.9,357-117,357z M-109.2,351.4
	c-0.1,0-0.3-0.1-0.3-0.2c-0.1-0.2-0.1-0.4,0.1-0.6c1.4-0.8,2.8-1.7,4.2-2.4c0.2-0.1,0.4,0,0.5,0.2c0.1,0.2,0,0.4-0.2,0.5
	c-1.4,0.8-2.8,1.6-4.1,2.4C-109,351.4-109.1,351.4-109.2,351.4z M-100.7,346.8c-0.2,0-0.3-0.1-0.4-0.2c-0.1-0.2,0-0.4,0.2-0.5
	c1.4-0.7,2.9-1.3,4.4-1.9c0.2-0.1,0.4,0,0.5,0.2c0.1,0.2,0,0.4-0.2,0.5c-1.5,0.6-3,1.2-4.4,1.9
	C-100.6,346.8-100.6,346.8-100.7,346.8z M-91.8,343.2c-0.2,0-0.3-0.1-0.4-0.3c-0.1-0.2,0-0.4,0.3-0.5c1.5-0.5,3.1-1,4.6-1.4
	c0.2-0.1,0.4,0.1,0.5,0.3c0.1,0.2-0.1,0.4-0.3,0.5c-1.5,0.4-3.1,0.9-4.6,1.4C-91.7,343.2-91.7,343.2-91.8,343.2z M-82.5,340.6
	c-0.2,0-0.3-0.1-0.4-0.3c-0.1-0.2,0.1-0.4,0.3-0.5c1.6-0.4,3.1-0.7,4.7-1c0.2,0,0.4,0.1,0.5,0.3c0,0.2-0.1,0.4-0.3,0.5
	C-79.3,339.9-80.9,340.2-82.5,340.6C-82.4,340.6-82.5,340.6-82.5,340.6z M-73,338.8c-0.2,0-0.4-0.1-0.4-0.3c0-0.2,0.1-0.4,0.3-0.5
	c1.6-0.2,3.2-0.4,4.8-0.6c0.2,0,0.4,0.1,0.4,0.4c0,0.2-0.1,0.4-0.4,0.4C-69.8,338.4-71.4,338.6-73,338.8
	C-73,338.8-73,338.8-73,338.8z M-63.4,337.9c-0.2,0-0.4-0.2-0.4-0.4c0-0.2,0.2-0.4,0.4-0.4c1.6-0.1,3.2-0.2,4.8-0.2c0,0,0,0,0,0
	c0.2,0,0.4,0.2,0.4,0.4c0,0.2-0.2,0.4-0.4,0.4C-60.2,337.7-61.8,337.8-63.4,337.9C-63.4,337.9-63.4,337.9-63.4,337.9z M-48.9,337.6
	C-49,337.6-49,337.6-48.9,337.6c-1.6-0.1-3.2-0.1-4.8-0.1c-0.2,0-0.4-0.2-0.4-0.4c0-0.2,0.2-0.4,0.4-0.4h0c1.6,0,3.2,0,4.8,0.1
	c0.2,0,0.4,0.2,0.4,0.4C-48.6,337.5-48.7,337.6-48.9,337.6z"/>
<path class="st19" d="M75.3,342.2C75.3,342.2,75.3,342.2,75.3,342.2c1.6-0.9,3.2-1.8,4.8-2.5c0.2-0.1,0.5,0,0.6,0.2
	c0.1,0.2,0,0.5-0.2,0.6c-1.5,0.8-3.1,1.6-4.7,2.5c-0.2,0.1-0.5,0-0.6-0.2C75.1,342.6,75.1,342.4,75.3,342.2z M84.8,337.5
	c0,0,0.1-0.1,0.1-0.1c1.6-0.7,3.3-1.4,4.9-2c0.2-0.1,0.5,0,0.6,0.3c0.1,0.2,0,0.5-0.3,0.6c-1.6,0.6-3.3,1.3-4.9,2
	c-0.2,0.1-0.5,0-0.6-0.2C84.6,337.8,84.7,337.6,84.8,337.5z M94.7,333.9c0,0,0.1-0.1,0.2-0.1c1.7-0.5,3.4-1,5.1-1.4
	c0.2-0.1,0.5,0.1,0.5,0.3c0,0.2-0.1,0.5-0.3,0.5c-1.7,0.4-3.4,0.9-5.1,1.4c-0.2,0.1-0.5-0.1-0.5-0.3C94.5,334.2,94.6,334,94.7,333.9
	z M105,331.4c0.1-0.1,0.1-0.1,0.2-0.1c1.7-0.3,3.5-0.5,5.2-0.7c0.2,0,0.5,0.1,0.5,0.4c0,0.2-0.2,0.5-0.4,0.5
	c-1.7,0.2-3.5,0.4-5.2,0.7c-0.2,0-0.5-0.1-0.5-0.4C104.8,331.7,104.9,331.5,105,331.4z M115.4,330.4c0.1-0.1,0.2-0.1,0.3-0.1
	c1.7-0.1,3.5-0.1,5.3,0c0.2,0,0.4,0.2,0.4,0.4c0,0.2-0.2,0.4-0.5,0.4c-1.7-0.1-3.5,0-5.2,0c-0.2,0-0.4-0.2-0.4-0.4
	C115.3,330.6,115.3,330.4,115.4,330.4z M125.9,330.7c0.1-0.1,0.2-0.1,0.3-0.1c1.7,0.2,3.5,0.4,5.2,0.7c0.2,0,0.4,0.3,0.3,0.5
	c0,0.2-0.3,0.4-0.5,0.4c-1.7-0.3-3.4-0.5-5.2-0.7c-0.2,0-0.4-0.2-0.4-0.5C125.8,330.9,125.8,330.8,125.9,330.7z M136.2,332.5
	c0.1-0.1,0.3-0.1,0.4-0.1c1.7,0.4,3.4,0.9,5,1.4c0.2,0.1,0.3,0.3,0.3,0.5c-0.1,0.2-0.3,0.4-0.6,0.3c-1.6-0.5-3.3-1-5-1.4
	c-0.2-0.1-0.4-0.3-0.3-0.5C136.1,332.6,136.1,332.5,136.2,332.5z M146.1,335.6c0.1-0.1,0.3-0.1,0.5-0.1c1.6,0.6,3.2,1.4,4.8,2.1
	c0.2,0.1,0.3,0.4,0.2,0.6c-0.1,0.2-0.4,0.3-0.6,0.2c-1.5-0.7-3.1-1.4-4.7-2.1c-0.2-0.1-0.3-0.3-0.2-0.6
	C146,335.7,146.1,335.7,146.1,335.6z M155.5,340.1c0.1-0.1,0.3-0.1,0.5-0.1c2.8,1.7,4.3,2.8,4.4,2.9c0.2,0.1,0.2,0.4,0.1,0.6
	c-0.2,0.2-0.4,0.2-0.6,0.1c0,0-1.5-1.2-4.3-2.8c-0.2-0.1-0.3-0.4-0.1-0.6C155.4,340.2,155.5,340.2,155.5,340.1z"/>
<path class="st19" d="M378.3,406.8c-0.2,0-0.4-0.1-0.4-0.3c-0.2-1.6-0.5-3.2-0.8-4.7c0-0.2,0.1-0.4,0.3-0.5c0.2,0,0.4,0.1,0.5,0.3
	c0.3,1.6,0.6,3.2,0.8,4.8C378.8,406.6,378.6,406.8,378.3,406.8C378.4,406.8,378.3,406.8,378.3,406.8z M376.5,397.4
	c-0.2,0-0.3-0.1-0.4-0.3c-0.4-1.6-0.8-3.1-1.2-4.6c-0.1-0.2,0.1-0.4,0.3-0.5c0.2-0.1,0.4,0.1,0.5,0.3c0.4,1.5,0.9,3.1,1.2,4.7
	C376.9,397.1,376.8,397.3,376.5,397.4C376.5,397.4,376.5,397.4,376.5,397.4z M373.8,388.1c-0.2,0-0.3-0.1-0.4-0.3
	c-0.5-1.5-1.1-3-1.7-4.5c-0.1-0.2,0-0.4,0.2-0.5c0.2-0.1,0.4,0,0.5,0.2c0.6,1.5,1.2,3,1.7,4.5c0.1,0.2,0,0.4-0.2,0.5
	C373.9,388.1,373.8,388.1,373.8,388.1z M370.1,379.2c-0.1,0-0.3-0.1-0.4-0.2c-0.7-1.4-1.4-2.9-2.2-4.3c-0.1-0.2,0-0.4,0.2-0.5
	c0.2-0.1,0.4,0,0.5,0.2c0.8,1.4,1.5,2.8,2.2,4.3c0.1,0.2,0,0.4-0.2,0.5C370.2,379.2,370.2,379.2,370.1,379.2z M365.4,370.8
	c-0.1,0-0.3-0.1-0.3-0.2c-0.9-1.3-1.8-2.7-2.8-3.9c-0.1-0.2-0.1-0.4,0.1-0.6c0.2-0.1,0.4-0.1,0.6,0.1c1,1.3,1.9,2.6,2.8,4
	c0.1,0.2,0.1,0.4-0.1,0.6C365.5,370.8,365.5,370.8,365.4,370.8z M359.6,363.1c-0.1,0-0.2,0-0.3-0.1c-1-1.2-2.2-2.4-3.3-3.5
	c-0.2-0.2-0.2-0.4,0-0.6c0.2-0.2,0.4-0.2,0.6,0c1.1,1.1,2.3,2.3,3.3,3.5c0.1,0.2,0.1,0.4,0,0.6C359.8,363.1,359.7,363.1,359.6,363.1
	z M352.7,356.3c-0.1,0-0.2,0-0.3-0.1c-1.2-1-2.5-2-3.8-3c-0.2-0.1-0.2-0.4-0.1-0.6c0.1-0.2,0.4-0.2,0.6-0.1c1.3,0.9,2.6,2,3.8,3
	c0.2,0.1,0.2,0.4,0,0.6C352.9,356.3,352.8,356.3,352.7,356.3z M344.9,350.7c-0.1,0-0.1,0-0.2-0.1c-1.3-0.8-2.7-1.6-4.2-2.4
	c-0.2-0.1-0.3-0.3-0.2-0.5c0.1-0.2,0.3-0.3,0.5-0.2c1.4,0.8,2.9,1.6,4.2,2.4c0.2,0.1,0.2,0.4,0.1,0.6
	C345.2,350.6,345.1,350.7,344.9,350.7z M336.4,346.2c-0.1,0-0.1,0-0.2,0c-1.4-0.6-2.9-1.3-4.4-1.8c-0.2-0.1-0.3-0.3-0.2-0.5
	c0.1-0.2,0.3-0.3,0.5-0.2c1.5,0.6,3,1.2,4.5,1.8c0.2,0.1,0.3,0.3,0.2,0.5C336.7,346.1,336.6,346.2,336.4,346.2z M327.4,342.8
	c0,0-0.1,0-0.1,0c-1.5-0.5-3.1-0.9-4.6-1.3c-0.2-0.1-0.3-0.3-0.3-0.5c0.1-0.2,0.3-0.3,0.5-0.3c1.6,0.4,3.1,0.8,4.7,1.3
	c0.2,0.1,0.3,0.3,0.3,0.5C327.7,342.7,327.5,342.8,327.4,342.8z M318,340.5C318,340.5,317.9,340.5,318,340.5
	c-1.6-0.3-3.2-0.6-4.8-0.8c-0.2,0-0.4-0.2-0.3-0.5c0-0.2,0.2-0.4,0.5-0.3c1.6,0.2,3.2,0.5,4.8,0.8c0.2,0,0.4,0.3,0.3,0.5
	C318.3,340.4,318.2,340.5,318,340.5z M284.3,340c-0.2,0-0.4-0.1-0.4-0.3c0-0.2,0.1-0.4,0.3-0.5c0,0,1.8-0.3,4.8-0.6
	c0.2,0,0.4,0.1,0.4,0.4c0,0.2-0.1,0.4-0.4,0.4C286.2,339.7,284.4,340,284.3,340C284.4,340,284.3,340,284.3,340z M308.4,339.2
	C308.4,339.2,308.4,339.2,308.4,339.2c-1.6-0.1-3.2-0.2-4.8-0.3c-0.2,0-0.4-0.2-0.4-0.4c0-0.2,0.2-0.4,0.4-0.4
	c1.6,0.1,3.2,0.2,4.8,0.3c0.2,0,0.4,0.2,0.4,0.4C308.8,339.1,308.6,339.2,308.4,339.2z M293.9,339c-0.2,0-0.4-0.2-0.4-0.4
	c0-0.2,0.2-0.4,0.4-0.4c1.6-0.1,3.2-0.1,4.8-0.1h0c0.2,0,0.4,0.2,0.4,0.4c0,0.2-0.2,0.4-0.4,0.4C297.1,338.9,295.5,338.9,293.9,339
	C293.9,339,293.9,339,293.9,339z"/>
<g>
	<g>
		<path class="st11" d="M86.2,447.5c-10,6.3-7.9,14.2-7.9,20.6v7.6h14.1l-3.1-29.7C88.3,446.5,86.5,447.3,86.2,447.5z"/>
		<path class="st11" d="M129.4,442.6c-1,4.4-4.9,7.7-9.6,7.7h-1c-4.7,0-8.7-3.4-9.6-7.8l0,0l10.1,33.2L129.4,442.6L129.4,442.6z"/>
		<path class="st11" d="M152.3,447.5c-0.3-0.2-2.1-1-3.2-1.4l-3.1,29.7h14.1v-7.6C160.2,461.7,162.4,453.8,152.3,447.5z"/>
		<path class="st19" d="M109.1,442.6c-0.1-0.7-0.2-1.3-0.2-2.1v-1.6l-18.7,6.8c0,0-0.3,0.2-0.8,0.4l3.1,29.7h26.8L109.1,442.6
			L109.1,442.6z"/>
		<path class="st23" d="M102.9,421.9c-2-2.2-3.8-6.7-5.2-12.5c-0.1,0-0.3,0.1-0.4,0.1c-0.4,0.1-0.8,0-1.2-0.1c-1.6-0.6-3.1-3-3.6-6
			c-0.6-3.7,0.6-7,2.6-7.3c0.7-0.1,1.5,0.2,2.1,0.7c0.2-4.3,0.9-7.8,2.1-10.6c17.5-12.3,24.9,15.3,41.3,5.4c0.3,1.6,0.4,3.3,0.5,5.2
			c0.7-0.6,1.4-0.9,2.1-0.7c2.1,0.3,3.2,3.6,2.6,7.3c-0.5,3-2,5.4-3.6,6c-0.4,0.2-0.8,0.2-1.2,0.1c-0.1,0-0.3-0.1-0.4-0.1
			c-1.4,5.8-3.2,10.4-5.2,12.5c-2.6,2.8-4.3,4.9-6,6.5v10.5c2.7-0.1,6-0.6,9.7-1.7c16.8-3.3,13.8-17.2,10.1-42.1
			c-1.7-30.3-29.9-30.4-30.2-30.4c-0.3,0-28.5,0-30.2,30.4c-3.7,24.9-6.7,38.8,10.1,42.1c3.7,1.1,7,1.6,9.7,1.7v-10.5
			C107.2,426.8,105.4,424.7,102.9,421.9z"/>
		<path class="st19" d="M148.3,445.7l-18.7-6.8v1.6c0,0.7-0.1,1.4-0.2,2.1l0,0.1l-10.1,33.1h26.8l3.1-29.7
			C148.7,445.9,148.3,445.7,148.3,445.7z"/>
		<path class="st2" d="M109.1,442.6c0.9,4.5,4.9,7.8,9.6,7.8h1c4.7,0,8.7-3.3,9.6-7.7c0.2-0.7,0.2-1.4,0.2-2.1v-1.6v-0.1v-10.5
			c-2.7,2.6-5.2,3.8-10.2,4.2c0,0-0.1,0-0.1,0c0,0,0,0,0,0s0,0,0,0c0,0-0.1,0-0.1,0c-5-0.4-7.5-1.7-10.2-4.2v10.5v0.1v1.6
			C108.9,441.2,109,441.9,109.1,442.6z"/>
		<path class="st7" d="M135.6,421.9c2-2.2,3.8-6.7,5.2-12.5c0.1,0,0.3,0.1,0.4,0.1c0.4,0.1,0.8,0,1.2-0.1c1.6-0.6,3.1-3,3.6-6
			c0.6-3.7-0.6-7-2.6-7.3c-0.7-0.1-1.5,0.2-2.1,0.7c-0.1-1.9-0.3-3.6-0.5-5.2c-16.4,9.8-23.8-17.7-41.3-5.4
			c-1.2,2.8-1.9,6.3-2.1,10.6c-0.7-0.6-1.4-0.9-2.1-0.7c-2.1,0.3-3.2,3.6-2.6,7.3c0.5,3,2,5.4,3.6,6c0.4,0.2,0.8,0.2,1.2,0.1
			c0.1,0,0.3-0.1,0.4-0.1c1.4,5.8,3.2,10.4,5.2,12.5c2.6,2.8,4.3,4.9,6,6.5c2.7,2.6,5.2,3.8,10.2,4.2c0,0,0.1,0,0.1,0c0,0,0,0,0,0
			s0,0,0,0c0,0,0.1,0,0.1,0c5-0.4,7.5-1.7,10.2-4.2C131.3,426.8,133.1,424.7,135.6,421.9z"/>
	</g>
	<g>
		<path class="st10" d="M142.3,408.8l1.7,0.1c2.4,0.2,3.4-11.6,0.9-11.8l-1.7-0.1C141.3,396.8,140.5,408.7,142.3,408.8z"/>
		
			<ellipse transform="matrix(-0.9919 -0.1273 0.1273 -0.9919 238.7226 821.1848)" class="st10" cx="145.6" cy="403" rx="2.4" ry="3.5"/>
	</g>
	<g>
		<g>
			<path class="st10" d="M95.9,408.8l-1.7,0.1c-2.4,0.2-3.4-11.6-0.9-11.8L95,397C97,396.8,97.8,408.7,95.9,408.8z"/>
			
				<ellipse transform="matrix(0.9919 -0.1273 0.1273 0.9919 -50.5506 15.0767)" class="st10" cx="92.7" cy="403" rx="2.4" ry="3.5"/>
		</g>
		<path class="st10" d="M114.1,423.8c-18.3,0-20-17.4-20-17.6L96,406c0.1,0.7,1.6,16.4,18.8,15.9l0,1.8
			C114.6,423.7,114.4,423.8,114.1,423.8z"/>
		<path class="st10" d="M125.7,422.8c0,1.5-1.2,2.7-2.7,2.7h-6.4c-1.5,0-2.7-1.2-2.7-2.7l0,0c0-1.5,1.2-2.7,2.7-2.7h6.4
			C124.5,420.2,125.7,421.4,125.7,422.8L125.7,422.8z"/>
	</g>
</g>
<g>
	<path class="st24" d="M433.1,377.9c-0.8,0.9-1.5,2.2-1.5,3.6c0,1.1,0.2,1.3,0.2,1.3h5.5v-1.5h-3.5c0,0,0-0.1,0-0.3
		c0-0.5,0.1-1.4,1-2.3c0.9-0.9,1.3-1.4,1.3-1.4c1-1.2,1.5-1.5,1.5-3c0-1.5-1.2-2.4-2.8-2.4c-1.6,0-2.8,1-2.8,2.4v0.8h1.9v-0.4
		c0-0.8,0.4-1.2,0.9-1.2c0.5,0,0.9,0.4,0.9,0.8c0,0.5-0.1,0.8-0.6,1.3L433.1,377.9z"/>
	<path class="st24" d="M441,380.4v2.5h1.9v-2.5h1.3V379h-1.3v-6.8H441l-3.3,6.7l0,1.5H441z M441,375.2v3.7h-1.8L441,375.2z"/>
	<g>
		<path class="st24" d="M423.5,405l2.7-1.5c0.1,0,0.2,0,0.3,0c0.8,0.7,1.3,1.6,1.5,2.7c0,0.1-0.1,0.2-0.1,0.3l-2.6,1.5
			c-0.2,0.1-0.2,0.5,0,0.6c1.6,0.9,3.8,0.6,4.7-0.2c0.9-0.8,1.6-2.3,1.4-3.5c0-0.1,0-0.1,0-0.2c0-0.5,0.2-1,0.5-1.3l1.6-1.6l5.7-5.7
			l0.7,0.7l-0.3,0.3l0.5,0.5l0,0c-0.3,0.4-0.5,0.8-0.5,1.3l0,0l1.6,2.2l0,0l0,0l0.9,0.9v0l0.8,0.8l0,0l0.7,0.7l0.8,0.8v0l0.7,0.7v0
			l0.8,0.8l3.1,3.1c0.1,0.1,0.3,0.2,0.5,0.2c1.9-0.1,3.5-1.7,3.6-3.6c0-0.2-0.1-0.4-0.2-0.5l-0.6-0.6l-0.8-0.8l-0.7-0.7l-0.8-0.8
			l-0.7-0.7l-0.8-0.8l-0.7-0.7l-0.8-0.8l-0.7-0.7l-0.8-0.8l-0.4-0.4l-1.2-0.9l-1-0.7l0,0c-0.4,0.1-0.8,0.3-1.3,0.5l0,0l-0.5-0.5
			l-0.3,0.3l-0.7-0.7l6.7-6.7c0.4-0.4,0.9-0.6,1.5-0.5c2.4,0.2,4.2-1,4.7-3.4l0-0.1c0-0.2,0.1-0.4,0.1-0.5c0-0.2-0.1-0.3-0.1-0.3
			c-0.1-0.1-0.2,0-0.3,0l-2.7,1.5c-0.1,0-0.2,0-0.3,0c-0.8-0.7-1.3-1.6-1.5-2.7c0-0.1,0.1-0.2,0.1-0.3l2.6-1.5
			c0.2-0.1,0.2-0.5,0-0.6c-1.6-0.9-3.8-0.6-4.7,0.2c-0.9,0.8-1.6,2.3-1.5,3.5c0,0.1,0,0.1,0,0.2c0,0.5-0.2,1-0.5,1.3l-1.6,1.6
			l-5.3,5.3l-9.4-9.4c0,0,0,0,0,0l-0.8-1.5l-1.5-0.9l-0.8,0.8l0.9,1.5l1.5,0.8c0,0,0,0,0,0l9.4,9.4l-7,7c-0.4,0.4-0.9,0.6-1.5,0.5
			c-2.4-0.2-4.2,1-4.7,3.4l0,0.1c0,0.2-0.1,0.4-0.1,0.5c0,0.2,0.1,0.3,0.2,0.3C423.3,405.1,423.4,405.1,423.5,405z"/>
		<g>
			<g>
				<g>
					<path class="st22" d="M451.5,382.5c-0.1-0.1-0.2,0-0.3,0l-2.7,1.5c-0.1,0-0.2,0-0.3,0c-0.8-0.7-1.3-1.6-1.5-2.7
						c0-0.1,0.1-0.2,0.1-0.3l2.6-1.5c0.2-0.1,0.2-0.5,0-0.6c-1.6-0.9-3.8-0.6-4.7,0.2c-0.9,0.8-1.6,2.3-1.5,3.5c0,0.1,0,0.1,0,0.2
						c0,0.5-0.2,1-0.5,1.3l-1.6,1.6L428,399c-0.4,0.4-0.9,0.6-1.5,0.5c-2.4-0.2-4.2,1-4.7,3.4l0,0.1c0,0.2-0.1,0.4-0.1,0.5
						c0,0.2,0.1,0.3,0.2,0.3c0.1,0.1,0.2,0,0.3,0l2.7-1.5c0.1,0,0.2,0,0.3,0c0.8,0.7,1.3,1.6,1.5,2.7c0,0.1-0.1,0.2-0.1,0.3
						l-2.6,1.5c-0.2,0.1-0.2,0.5,0,0.6c1.6,0.9,3.8,0.6,4.7-0.2c0.9-0.8,1.6-2.3,1.4-3.5c0-0.1,0-0.1,0-0.2c0-0.5,0.2-1,0.5-1.3
						l1.6-1.6l13.1-13.1c0.4-0.4,0.9-0.6,1.5-0.5c2.4,0.2,4.2-1,4.7-3.4l0-0.1c0-0.2,0.1-0.4,0.1-0.5
						C451.6,382.7,451.6,382.5,451.5,382.5z"/>
					<path class="st3" d="M430.5,400.4c-0.3,0.3-0.9,0.3-1.2,0l0,0c-0.3-0.3-0.3-0.9,0-1.2l13.4-13.4c0.3-0.3,0.9-0.3,1.2,0l0,0
						c0.3,0.3,0.3,0.9,0,1.2L430.5,400.4z"/>
				</g>
				<g>
					<g>
						
							<rect x="431.5" y="378.2" transform="matrix(0.7071 -0.7072 0.7072 0.7071 -147.9716 419.2539)" class="st4" width="1.1" height="20"/>
						<path class="st19" d="M447.6,407.6l-7.8-7.8l-1.6-2.2c0.1-0.4,0.3-0.8,0.5-1.3l0,0c0.4-0.6,0.9-1.1,1.4-1.4l0,0
							c0.4-0.3,0.8-0.5,1.3-0.5l2.2,1.6l7.8,7.8c0.1,0.1,0.2,0.3,0.2,0.5c-0.1,1.9-1.7,3.5-3.6,3.6
							C447.9,407.8,447.7,407.7,447.6,407.6z"/>
						<polygon class="st13" points="441.4,394.3 438.1,397.5 439.7,399.8 443.6,395.9 						"/>
						<polygon class="st3" points="423.2,380.2 424.1,381.7 425.6,382.5 426.4,381.7 425.5,380.3 424,379.4 						"/>
						<path class="st22" d="M425.5,380.3c-0.1,0.8-0.6,1.4-1.4,1.4l1.5,0.8c0.5,0,0.8-0.3,0.8-0.8L425.5,380.3z"/>
						
							<rect x="438.1" y="395" transform="matrix(0.7071 -0.7071 0.7071 0.7071 -150.9197 426.3497)" class="st13" width="2" height="0.7"/>
					</g>
					<polygon class="st13" points="441.4,401.4 440.6,400.6 443.9,396.2 444.7,397 					"/>
					<polygon class="st13" points="442.9,402.9 442.1,402.1 445.5,397.8 446.3,398.6 					"/>
					<polygon class="st13" points="444.4,404.5 443.6,403.6 447,399.3 447.8,400.1 					"/>
					<polygon class="st13" points="445.9,406 445.1,405.2 448.5,400.8 449.3,401.6 					"/>
					<polygon class="st13" points="447.4,407.5 446.6,406.7 450,402.3 450.8,403.1 					"/>
				</g>
			</g>
			<g>
				<g>
					<path class="st19" d="M432.4,379.8c0,0.2,0,0.3,0,0.3h3.5v1.5h-5.5c0,0-0.2-0.2-0.2-1.3c0-1.4,0.7-2.8,1.5-3.6l1.9-2.2
						c0.4-0.5,0.6-0.8,0.6-1.3c0-0.5-0.4-0.8-0.9-0.8c-0.5,0-0.9,0.4-0.9,1.2v0.4h-1.9v-0.8c0-1.4,1.1-2.4,2.8-2.4
						c1.6,0,2.8,0.9,2.8,2.4c0,1.5-0.4,1.8-1.5,3c0,0-0.4,0.4-1.3,1.4C432.6,378.4,432.4,379.3,432.4,379.8z"/>
					<path class="st19" d="M442.9,379.1h-1.3v2.5h-1.9v-2.5h-3.3l0-1.5l3.3-6.7h1.9v6.8h1.3V379.1z M439.7,377.7V374l-1.8,3.7H439.7
						z"/>
				</g>
				<g>
					<path class="st25" d="M432.4,379.8c0,0.2,0,0.3,0,0.3h3.5v1.5h-5.5c0,0-0.2-0.2-0.2-1.3c0-1.4,0.7-2.8,1.5-3.6l1.9-2.2
						c0.4-0.5,0.6-0.8,0.6-1.3c0-0.5-0.4-0.8-0.9-0.8c-0.5,0-0.9,0.4-0.9,1.2v0.4h-1.9v-0.8c0-1.4,1.1-2.4,2.8-2.4
						c1.6,0,2.8,0.9,2.8,2.4c0,1.5-0.4,1.8-1.5,3c0,0-0.4,0.4-1.3,1.4C432.6,378.4,432.4,379.3,432.4,379.8z"/>
					<path class="st25" d="M442.9,379.1h-1.3v2.5h-1.9v-2.5h-3.3l0-1.5l3.3-6.7h1.9v6.8h1.3V379.1z M439.7,377.7V374l-1.8,3.7H439.7
						z"/>
				</g>
			</g>
		</g>
	</g>
</g>
<g>
	<g>
		<path class="st26" d="M415.8,331.5c0-10.2-8-18.6-18.1-19.2v1.7c9.1,0.6,16.4,8.2,16.4,17.5c0,8-5.4,14.9-12.9,16.9l-0.2,0.8
			l0.4,0.9C409.8,348,415.8,340.4,415.8,331.5z"/>
		<polygon class="st26" points="401.2,348.4 401.6,346.4 396.6,349.9 402.3,352.2 401.4,350.1 401.1,349.2 		"/>
		<path class="st16" d="M379,331.5c0-8,5.4-14.9,12.9-16.9l0.2-0.8l-0.4-0.9c-8.4,2.2-14.4,9.7-14.4,18.6c0,10.2,8,18.6,18.1,19.2
			V349C386.3,348.4,379,340.8,379,331.5z"/>
		<polygon class="st16" points="391.9,314.6 391.5,316.7 396.6,313.1 390.9,310.8 391.7,312.9 392.1,313.8 		"/>
	</g>
	<g>
		<path class="st27" d="M400.8,342.1c-1.3-0.2-2.6-0.3-4-0.4v3.5C398.3,345.2,399.7,344,400.8,342.1z"/>
		<path class="st27" d="M396.8,336.5v4.8c1.5,0,2.9,0.1,4.2,0.4c0.7-1.3,1.3-3,1.6-4.8C400.8,336.7,398.8,336.6,396.8,336.5z"/>
		<path class="st27" d="M396.8,326.9v4.4h6.4c0-1.7-0.2-3.3-0.4-4.7C400.8,326.8,398.8,326.9,396.8,326.9z"/>
		<path class="st27" d="M396.8,331.7v4.4c2.1,0,4,0.1,5.9,0.3c0.3-1.5,0.4-3.1,0.4-4.7H396.8z"/>
		<path class="st27" d="M396.8,321.7v4.8c2,0,4-0.1,5.8-0.3c-0.4-1.9-0.9-3.5-1.6-4.8C399.7,321.5,398.3,321.7,396.8,321.7z"/>
		<path class="st27" d="M398.7,318c0.9,0.6,1.8,1.6,2.5,2.8c0.7-0.1,1.4-0.3,2-0.5C401.9,319.2,400.4,318.4,398.7,318z"/>
		<path class="st27" d="M400.3,318c1.3,0.5,2.4,1.2,3.4,2.2c0.2-0.1,0.5-0.2,0.7-0.3C403.2,319.1,401.8,318.4,400.3,318z"/>
		<path class="st27" d="M396.8,317.7v3.5c1.4,0,2.7-0.1,4-0.3C399.7,319,398.3,317.8,396.8,317.7z"/>
		<path class="st27" d="M403.1,336.9c-0.4,1.9-0.9,3.5-1.6,4.9c0.8,0.2,1.5,0.3,2.2,0.6c1.4-1.3,2.5-3,3.2-4.9
			C405.6,337.3,404.4,337.1,403.1,336.9z"/>
		<path class="st27" d="M394.4,345c-0.9-0.6-1.8-1.6-2.5-2.9c-0.7,0.1-1.4,0.3-2,0.5C391.2,343.8,392.8,344.7,394.4,345z"/>
		<path class="st27" d="M390.1,326.1c0.4-1.9,0.9-3.5,1.7-4.9c-0.8-0.2-1.5-0.3-2.2-0.6c-1.4,1.3-2.5,3-3.2,4.9
			C387.5,325.7,388.8,325.9,390.1,326.1z"/>
		<path class="st27" d="M396.4,326.4v-4.8c-1.5,0-2.9-0.1-4.2-0.4c-0.7,1.3-1.3,3-1.6,4.8C392.4,326.3,394.3,326.4,396.4,326.4z"/>
		<path class="st27" d="M394.4,318c-1.6,0.4-3.2,1.2-4.5,2.3c0.6,0.2,1.3,0.4,2,0.5C392.7,319.6,393.5,318.6,394.4,318z"/>
		<path class="st27" d="M392.4,320.9c1.3,0.2,2.6,0.3,4,0.3v-3.5C394.9,317.8,393.5,319,392.4,320.9z"/>
		<path class="st27" d="M396.4,345.3v-3.5c-1.4,0-2.7,0.1-4,0.4C393.5,344,394.8,345.2,396.4,345.3z"/>
		<path class="st27" d="M396.4,336.1v-4.4H390c0,1.7,0.2,3.2,0.4,4.7C392.3,336.2,394.3,336.1,396.4,336.1z"/>
		<path class="st27" d="M396.4,331.3v-4.4c-2.1,0-4-0.1-5.9-0.3c-0.3,1.5-0.4,3.1-0.4,4.7H396.4z"/>
		<path class="st27" d="M396.4,341.3v-4.8c-2,0-4,0.1-5.9,0.3c0.4,1.9,0.9,3.5,1.6,4.8C393.5,341.5,394.9,341.3,396.4,341.3z"/>
		<path class="st27" d="M404.8,320.2c-0.3,0.1-0.5,0.2-0.8,0.3c1.4,1.3,2.5,3,3.2,4.9c0.6-0.1,1.2-0.3,1.7-0.4
			C408,323.1,406.6,321.5,404.8,320.2z"/>
		<path class="st27" d="M403.2,326.5c0.3,1.5,0.4,3.1,0.4,4.8h4.3c0-1.9-0.4-3.7-1-5.4C405.8,326.1,404.5,326.4,403.2,326.5z"/>
		<path class="st27" d="M389.1,320.5c-0.3-0.1-0.5-0.2-0.8-0.3c-1.7,1.3-3.2,2.9-4.2,4.8c0.6,0.1,1.1,0.3,1.7,0.4
			C386.7,323.5,387.8,321.8,389.1,320.5z"/>
		<path class="st27" d="M403.6,320.7c-0.7,0.2-1.4,0.4-2.2,0.6c0.7,1.4,1.3,3,1.7,4.9c1.3-0.1,2.6-0.3,3.7-0.6
			C406.1,323.6,404.9,321.9,403.6,320.7z"/>
		<path class="st27" d="M389.5,320.2c1-0.9,2.2-1.7,3.4-2.2c-1.5,0.4-2.9,1.1-4.2,1.9C389,320,389.2,320.1,389.5,320.2z"/>
		<path class="st27" d="M384.8,331.7h-2.2c0,2.1,0.5,4.1,1.4,5.9c0.6-0.1,1.2-0.3,1.8-0.4C385.1,335.5,384.8,333.7,384.8,331.7z"/>
		<path class="st27" d="M408.4,331.7c0,1.9-0.4,3.8-1,5.4c0.6,0.1,1.2,0.3,1.8,0.4c0.9-1.8,1.3-3.8,1.4-5.9H408.4z"/>
		<path class="st27" d="M408.4,331.3h2.2c0-2.1-0.5-4.1-1.4-5.9c-0.6,0.1-1.2,0.3-1.8,0.4C408,327.5,408.4,329.3,408.4,331.3z"/>
		<path class="st27" d="M404.1,342.5c0.3,0.1,0.5,0.2,0.8,0.3c1.7-1.3,3.2-2.9,4.2-4.8c-0.6-0.1-1.1-0.3-1.7-0.4
			C406.5,339.5,405.4,341.2,404.1,342.5z"/>
		<path class="st27" d="M384.8,331.3c0-1.9,0.4-3.8,1-5.5c-0.6-0.1-1.2-0.3-1.8-0.4c-0.9,1.8-1.4,3.8-1.4,5.9H384.8z"/>
		<path class="st27" d="M390,336.5c-0.3-1.5-0.4-3.1-0.4-4.8h-4.3c0,1.9,0.4,3.7,1,5.4C387.4,336.8,388.7,336.6,390,336.5z"/>
		<path class="st27" d="M388.3,342.8c0.3-0.1,0.5-0.2,0.8-0.3c-1.3-1.3-2.4-3-3.2-4.9c-0.6,0.1-1.2,0.3-1.7,0.4
			C385.2,339.9,386.6,341.5,388.3,342.8z"/>
		<path class="st27" d="M389.6,342.3c0.7-0.2,1.4-0.4,2.2-0.6c-0.7-1.4-1.3-3-1.6-4.9c-1.3,0.1-2.6,0.3-3.8,0.6
			C387.1,339.4,388.2,341,389.6,342.3z"/>
		<path class="st27" d="M389.6,331.3c0-1.7,0.2-3.3,0.4-4.8c-1.3-0.2-2.6-0.4-3.8-0.6c-0.6,1.6-1,3.5-1,5.4H389.6z"/>
		<path class="st27" d="M403.6,331.7c0,1.7-0.2,3.3-0.4,4.8c1.3,0.2,2.6,0.4,3.8,0.6c0.6-1.6,0.9-3.5,1-5.4H403.6z"/>
		<path class="st27" d="M403.7,342.8c-1,0.9-2.2,1.7-3.5,2.2c1.5-0.4,2.9-1.1,4.2-1.9C404.2,343,404,342.9,403.7,342.8z"/>
		<path class="st27" d="M389.4,342.8c-0.2,0.1-0.5,0.2-0.7,0.3c1.3,0.9,2.7,1.5,4.2,1.9C391.6,344.5,390.5,343.8,389.4,342.8z"/>
		<path class="st27" d="M398.7,345c1.7-0.4,3.2-1.2,4.5-2.4c-0.6-0.2-1.3-0.4-2-0.5C400.5,343.5,399.7,344.4,398.7,345z"/>
	</g>
</g>
<g>
	<path class="st28" d="M-177.2,357.3h6.7c0.2,0.5,0.4,1.1,0.5,1.6c0.1,0.4,0.2,0.7,0.3,1c0.1,0.1,0.1,0.3,0.2,0.4
		c0.3,0.4,0.6,0.8,1,1.1v6.2c0.7,0.1,1.4,0.1,2,0.1c0.6,0,1.2,0,1.8-0.1c1.3-0.1,2.5-0.3,3.7-0.6v-5.6c1-0.7,1.6-1.9,1.6-3.2v-0.9
		h3.6v-28.8h-21.5V357.3z"/>
	<g>
		<rect x="-178.5" y="327.2" class="st3" width="21.5" height="28.8"/>
		<rect x="-176" y="330.7" class="st16" width="2.7" height="2.5"/>
		<rect x="-176" y="336.5" class="st16" width="2.7" height="2.5"/>
		<rect x="-176" y="342.3" class="st16" width="2.7" height="2.5"/>
		<rect x="-176" y="348.2" class="st16" width="2.7" height="2.5"/>
		<rect x="-171.2" y="330.7" class="st29" width="11.7" height="0.8"/>
		<rect x="-171.2" y="332.4" class="st29" width="11.7" height="0.8"/>
		<rect x="-171.2" y="336.5" class="st29" width="11.7" height="0.8"/>
		<rect x="-171.2" y="338.2" class="st29" width="11.7" height="0.8"/>
		<rect x="-171.2" y="342.3" class="st29" width="11.7" height="0.8"/>
		<rect x="-171.2" y="344.1" class="st29" width="11.7" height="0.8"/>
		<g>
			<path class="st30" d="M-170,353L-170,353c-0.8,0-1.4-0.6-1.4-1.4v-11.1c0-0.8,0.6-1.4,1.4-1.4h0c0.8,0,1.4,0.6,1.4,1.4v11.1
				C-168.6,352.3-169.2,353-170,353z"/>
			<path class="st30" d="M-167.2,353L-167.2,353c-0.8,0-1.4-0.6-1.4-1.4v-5.1c0-0.8,0.6-1.4,1.4-1.4h0c0.8,0,1.4,0.6,1.4,1.4v5.1
				C-165.8,352.3-166.5,353-167.2,353z"/>
			<path class="st30" d="M-169.2,359.6C-169.2,359.6-169.2,359.6-169.2,359.6c-0.8,0.3-1.6-0.2-1.9-1.1c-0.9-3.2-2.2-6.2-3.7-9
				c-0.4-0.7-0.1-1.6,0.6-2c0,0,0,0,0,0c0.7-0.4,1.6-0.2,2,0.6c1.6,2.9,2.9,6,3.9,9.4C-167.9,358.3-168.4,359.3-169.2,359.6z"/>
			<path class="st30" d="M-164.4,353L-164.4,353c-0.8,0-1.4-0.6-1.4-1.4v-4.3c0-0.8,0.6-1.4,1.4-1.4h0c0.8,0,1.4,0.6,1.4,1.4v4.3
				C-163.1,352.3-163.7,353-164.4,353z"/>
			<path class="st30" d="M-161.8,353L-161.8,353c-0.7,0-1.2-0.5-1.2-1.2v-3.8c0-0.7,0.5-1.2,1.2-1.2h0c0.7,0,1.2,0.5,1.2,1.2v3.8
				C-160.6,352.4-161.2,353-161.8,353z"/>
			<path class="st31" d="M-164.6,361h-2.7c-2.2,0-4-1.8-4-4v-3.3h10.8v3.3C-160.6,359.2-162.4,361-164.6,361z"/>
			<path class="st31" d="M-162.2,357.6v8.2c-1.2,0.3-2.5,0.5-3.7,0.6c-0.6,0-1.2,0.1-1.8,0.1c-0.7,0-1.4,0-2-0.1v-8.7H-162.2z"/>
			<path class="st31" d="M-160.6,354.1v-2.5c0-0.7-0.5-1.2-1.2-1.2h0c-0.7,0-1.2,0.5-1.2,1.2v-0.4c0-0.8-0.6-1.4-1.4-1.4h0
				c-0.8,0-1.4,0.6-1.4,1.4v-0.4c0-0.8-0.6-1.4-1.4-1.4h0c-0.8,0-1.4,0.6-1.4,1.4c0-0.8-0.6-1.4-1.4-1.4h0c-0.8,0-1.4,0.6-1.4,1.4
				v3.3H-160.6z"/>
		</g>
		<path class="st32" d="M-174.6,332.8c-0.1,0-0.3-0.1-0.3-0.2l-1.2-2.4c-0.1-0.2,0-0.4,0.2-0.5c0.2-0.1,0.4,0,0.5,0.2l0.9,1.8
			l1.4-2.9c0.1-0.2,0.3-0.3,0.5-0.2c0.2,0.1,0.3,0.3,0.2,0.5l-1.7,3.5C-174.3,332.7-174.5,332.8-174.6,332.8z"/>
		<path class="st32" d="M-174.6,338.6c-0.1,0-0.3-0.1-0.3-0.2l-1.2-2.4c-0.1-0.2,0-0.4,0.2-0.5c0.2-0.1,0.4,0,0.5,0.2l0.9,1.8
			l1.4-2.9c0.1-0.2,0.3-0.3,0.5-0.2c0.2,0.1,0.3,0.3,0.2,0.5l-1.7,3.5C-174.3,338.6-174.5,338.6-174.6,338.6z"/>
		<path class="st32" d="M-174.6,344.5c-0.1,0-0.3-0.1-0.3-0.2l-1.2-2.4c-0.1-0.2,0-0.4,0.2-0.5c0.2-0.1,0.4,0,0.5,0.2l0.9,1.8
			l1.4-2.9c0.1-0.2,0.3-0.3,0.5-0.2c0.2,0.1,0.3,0.3,0.2,0.5l-1.7,3.5C-174.3,344.4-174.5,344.5-174.6,344.5z"/>
	</g>
</g>
<g>
	<g>
		<path class="st33" d="M-205,418.7c-0.8,0-1.7-0.2-1.7-0.6v-6.3h3.4v6.3C-203.3,418.5-204.2,418.7-205,418.7z"/>
		<path class="st3" d="M-205,418.2c-1.8,0-2-0.2-2.6-0.9l-0.5-0.8v-8.2h6.2v8.2l-0.5,0.8C-203.1,418-203.3,418.2-205,418.2z"/>
		<path class="st33" d="M-205,417.1c-1.9,0-3.8-0.3-3.8-1v-10.6h7.6v10.6C-201.2,416.8-203.1,417.1-205,417.1z"/>
		<path class="st3" d="M-205,416.6c-2,0-4-0.3-4-1v-10.8h8.1v10.8C-201,416.3-203,416.6-205,416.6z"/>
		<path class="st34" d="M-205,380.8c-6.2,0-11.2,5-11.2,11.2c0,3.6,1.7,6.7,4.3,8.8c1,0.8,1.6,2.1,1.6,3.4v3.5
			c0.1,3.3,3.2,3.3,5.2,3.3c2.1,0,5.1,0,5.2-3.3v-3.5c0-1.3,0.6-2.6,1.6-3.4c2.6-2,4.3-5.2,4.3-8.8
			C-193.8,385.8-198.8,380.8-205,380.8z"/>
		<path class="st35" d="M-203.6,399.9l2.8-7.2l-0.6-0.2l-2.8,7.1c-0.1,0-0.1,0-0.2,0h-1.5c-0.1,0-0.1,0-0.2,0l-2.8-7.1l-0.6,0.2
			l2.8,7.2c-0.2,0.2-0.3,0.5-0.3,0.8v8.4c0,0.4,0.3,0.7,0.6,0.8c0.4,0.1,0.8,0.1,1.1,0.1c0.4,0,0.8-0.1,1.1-0.1
			c0.4-0.1,0.6-0.4,0.6-0.8v-8.4C-203.2,400.3-203.4,400.1-203.6,399.9z"/>
		<path class="st16" d="M-202,393.5c-0.4,0-0.6-0.2-0.7-0.4c-0.1-0.1-0.2-0.2-0.3-0.2c-0.1,0-0.2,0-0.3,0.2
			c-0.1,0.2-0.3,0.4-0.7,0.4c-0.4,0-0.6-0.2-0.7-0.4c-0.1-0.1-0.2-0.2-0.3-0.2c-0.1,0-0.2,0-0.3,0.2c-0.1,0.2-0.3,0.4-0.7,0.4
			c-0.4,0-0.6-0.2-0.7-0.4c-0.1-0.1-0.2-0.2-0.3-0.2c-0.1,0-0.2,0-0.3,0.2c-0.1,0.2-0.3,0.4-0.7,0.4c-0.4,0-0.6-0.2-0.7-0.4
			c-0.1-0.1-0.2-0.2-0.3-0.2c-0.2,0-0.3-0.1-0.3-0.3c0-0.2,0.1-0.3,0.3-0.3c0.4,0,0.6,0.2,0.7,0.4c0.1,0.1,0.2,0.2,0.3,0.2
			c0.1,0,0.2,0,0.3-0.2c0.1-0.2,0.3-0.4,0.7-0.4c0.4,0,0.6,0.2,0.7,0.4c0.1,0.1,0.2,0.2,0.3,0.2c0.1,0,0.2,0,0.3-0.2
			c0.1-0.2,0.3-0.4,0.7-0.4c0.4,0,0.6,0.2,0.7,0.4c0.1,0.1,0.2,0.2,0.3,0.2c0.1,0,0.2,0,0.3-0.2c0.1-0.2,0.3-0.4,0.7-0.4
			c0.4,0,0.6,0.2,0.7,0.4c0.1,0.1,0.2,0.2,0.3,0.2c0.1,0,0.2,0,0.3-0.2c0.1-0.2,0.3-0.4,0.7-0.4c0.2,0,0.3,0.1,0.3,0.3
			c0,0.2-0.1,0.3-0.3,0.3c-0.1,0-0.2,0-0.3,0.2C-201.4,393.2-201.6,393.5-202,393.5z"/>
		<path class="st33" d="M-208,415.7c-0.3,0-0.7,0-1,0c-0.2,0-0.3-0.1-0.3-0.3c0-0.2,0.1-0.3,0.3-0.3c3,0.1,5.7-0.2,8-0.9
			c0.1,0,0.3,0,0.3,0.2c0,0.1,0,0.3-0.2,0.3C-203,415.3-205.4,415.7-208,415.7z"/>
		<path class="st33" d="M-204.2,416.4c-0.1,0-0.3-0.1-0.3-0.2c0-0.2,0.1-0.3,0.2-0.3c1.1-0.2,2.2-0.4,3.1-0.7c0.1,0,0.3,0,0.3,0.2
			c0,0.1,0,0.3-0.2,0.3C-201.9,416-203,416.2-204.2,416.4C-204.1,416.4-204.1,416.4-204.2,416.4z"/>
		<path class="st33" d="M-208,414.7c-0.3,0-0.7,0-1,0c-0.2,0-0.3-0.1-0.3-0.3c0-0.2,0.1-0.3,0.3-0.3c3,0.1,5.7-0.2,8-0.9
			c0.1,0,0.3,0,0.3,0.2c0,0.1,0,0.3-0.2,0.3C-203,414.4-205.4,414.7-208,414.7z"/>
		<path class="st33" d="M-208,413.8c-0.3,0-0.7,0-1,0c-0.2,0-0.3-0.1-0.3-0.3c0-0.2,0.1-0.3,0.3-0.3c3,0.1,5.7-0.2,8-0.9
			c0.1,0,0.3,0,0.3,0.2c0,0.1,0,0.3-0.2,0.3C-203,413.4-205.4,413.8-208,413.8z"/>
		<path class="st33" d="M-208,412.8c-0.3,0-0.7,0-1,0c-0.2,0-0.3-0.1-0.3-0.3c0-0.2,0.1-0.3,0.3-0.3c3,0.1,5.7-0.2,8-0.9
			c0.1,0,0.3,0,0.3,0.2c0,0.1,0,0.3-0.2,0.3C-203,412.5-205.4,412.8-208,412.8z"/>
		<path class="st33" d="M-208,411.8c-0.3,0-0.7,0-1,0c-0.2,0-0.3-0.1-0.3-0.3c0-0.2,0.1-0.3,0.3-0.3c1.1,0,2.2,0,3.3-0.1
			c0.2,0,0.3,0.1,0.3,0.3c0,0.2-0.1,0.3-0.3,0.3C-206.5,411.8-207.2,411.8-208,411.8z"/>
	</g>
	<path class="st36" d="M-205,400.5c-4.9,0-9.1-3.9-11.1-9.6c0,0.4-0.1,0.7-0.1,1.1c0,3.6,1.7,6.7,4.3,8.8c1,0.8,1.6,2.1,1.6,3.4v3.5
		c0,1.2,0.5,2,1.2,2.5v1.1c-0.1,0-0.3,0.1-0.3,0.3c0,0.2,0.1,0.3,0.3,0.3c0,0,0,0,0,0v0.4c-0.1,0-0.3,0.1-0.3,0.3
		c0,0.2,0.1,0.3,0.3,0.3c0,0,0,0,0,0v0.4c-0.1,0-0.3,0.1-0.3,0.3c0,0.2,0.1,0.3,0.3,0.3c0,0,0,0,0,0v0.4c-0.1,0-0.3,0.1-0.3,0.3
		c0,0.2,0.1,0.3,0.3,0.3c0,0,0,0,0,0v0.4c-0.1,0-0.3,0.1-0.3,0.3c0,0.2,0.1,0.3,0.3,0.3c0,0,0,0,0,0c0,0.1,0.1,0.2,0.3,0.3v0.1
		c0,0.3,0.3,0.5,0.8,0.6l0.4,0.5c0.3,0.4,0.5,0.6,0.9,0.7v0.1c0,0.4,0.8,0.6,1.7,0.6c0.8,0,1.7-0.2,1.7-0.6V418
		c0.4-0.1,0.6-0.4,0.9-0.7l0.4-0.5c0.5-0.2,0.8-0.4,0.8-0.6V416c0.1-0.1,0.2-0.2,0.3-0.3c0,0,0.1,0,0.1,0c0.1,0,0.2-0.2,0.2-0.3
		c0-0.1-0.1-0.2-0.3-0.2v-0.4c0,0,0.1,0,0.1,0c0.1,0,0.2-0.2,0.2-0.3c0-0.1-0.1-0.2-0.3-0.2v-0.4c0,0,0.1,0,0.1,0
		c0.1,0,0.2-0.2,0.2-0.3c0-0.1-0.1-0.2-0.3-0.2v-0.4c0,0,0.1,0,0.1,0c0.1,0,0.2-0.2,0.2-0.3c0-0.1-0.1-0.2-0.3-0.2v-0.4
		c0,0,0.1,0,0.1,0c0.1,0,0.2-0.2,0.2-0.3c0-0.1-0.1-0.2-0.3-0.2v-1.1c0.7-0.5,1.1-1.3,1.2-2.5v-3.5c0-1.3,0.6-2.6,1.6-3.4
		c2.6-2,4.3-5.2,4.3-8.8c0-0.4,0-0.7-0.1-1.1C-195.9,396.6-200.1,400.5-205,400.5z"/>
	<path class="st37" d="M-199.6,383.6c0,1.1-2.4,0.9-5.4,0.9c-3,0-5.4,0.2-5.4-0.9s2.4-2,5.4-2S-199.6,382.5-199.6,383.6z"/>
</g>
</svg>
