<?xml version="1.0" encoding="utf-8"?>
<!-- Generator: Adobe Illustrator 19.1.0, SVG Export Plug-In . SVG Version: 6.00 Build 0)  -->
<svg version="1.1" id="レイヤー_1" xmlns="http://www.w3.org/2000/svg" xmlns:xlink="http://www.w3.org/1999/xlink" x="0px"
	 y="0px" viewBox="0 0 23.7 37" style="enable-background:new 0 0 23.7 37;" xml:space="preserve">
<style type="text/css">
	.st0{fill:#F23A49;}
	.st1{fill:#FFFFFF;}
	.st2{fill:#FFC32D;}
</style>
<g>
	<g>
		<g>
			<rect class="st0" width="23.7" height="4.1"/>
		</g>
	</g>
	<g>
		<g>
			<rect y="32.9" class="st0" width="23.7" height="4.1"/>
		</g>
	</g>
	<g>
		<g>
			<path class="st1" d="M10.3,18.5C0.2,23,1.9,32.9,1.9,32.9h19.8c0,0,1.7-9.9-8.4-14.4C23.5,14,21.7,4.1,21.7,4.1H1.9
				C1.9,4.1,0.2,14,10.3,18.5z"/>
		</g>
	</g>
	<g>
		<g>
			<path class="st2" d="M21.1,32.9c0,0-7.3-3.8-9.3-10.7c-2,6.9-9.3,10.7-9.3,10.7H21.1z"/>
		</g>
	</g>
	<g>
		<g>
			<path class="st2" d="M3.6,12.7c1.2,2.2,3.3,4.3,6.7,5.9h3.1c3.4-1.5,5.5-3.7,6.7-5.9H3.6z"/>
		</g>
	</g>
</g>
</svg>
