<svg id="レイヤー_1" xmlns="http://www.w3.org/2000/svg" viewBox="-826 792.4 906 494"><style>.st0{fill:#FFFFFF;} .st1{fill:#231F20;} .st2{opacity:0.39;} .st3{fill:#C9C8C7;} .st4{opacity:0.35;fill:#002F4E;} .st5{fill:#2699D4;} .st6{fill:#3497C9;} .st7{fill:#0D3B52;} .st8{fill:#3EB4F0;} .st9{fill:#FFCFBF;} .st10{fill:#FABAA5;} .st11{fill:#FAA896;} .st12{fill:#1B2D40;} .st13{fill:#1B6E99;} .st14{fill:#3A4242;} .st15{fill:#444E4F;} .st16{fill:#FFC0B0;} .st17{fill:#F27650;} .st18{fill:#FFCABD;} .st19{fill:#F7AD99;} .st20{fill:#D16645;} .st21{opacity:0.29;fill:#005982;} .st22{fill:#072638;} .st23{opacity:0.15;fill:#FFFFFF;} .st24{fill:#082D42;} .st25{fill:#FFC6B3;} .st26{fill:#FF5B38;} .st27{fill:#FFCA27;} .st28{fill:#FFB917;} .st29{fill:#FAB49E;} .st30{fill:#DE3320;} .st31{fill:#052133;} .st32{fill:#F80071;} .st33{fill:#FFDFAB;} .st34{fill:#735931;} .st35{fill:#15B2D1;} .st36{fill:#DB0064;} .st37{opacity:0.15;fill:#003262;} .st38{fill:#ED5151;} .st39{fill:#BEE0EB;} .st40{fill:#EB4421;} .st41{fill:#F5D0A2;} .st42{fill:#6FDCF7;} .st43{fill:#FAC6B6;} .st44{fill:#FAC3B2;} .st45{fill:#4E2D00;} .st46{fill:#FAAF99;} .st47{fill:#54CBE8;} .st48{fill:#EDB774;} .st49{fill:#F5C891;} .st50{fill:#465B6B;} .st51{fill:#872D2B;} .st52{fill:#2A3436;} .st53{fill:#3A484A;} .st54{fill:#FF7E4D;} .st55{fill:#FFCFBD;} .st56{fill:#0D3C47;} .st57{fill:#FFC6B0;} .st58{fill:#3D2308;} .st59{fill:#E86431;} .st60{fill:#FF8C61;} .st61{fill:#F5B09F;} .st62{fill:#1B3133;} .st63{fill:#784811;} .st64{fill:#A16016;} .st65{fill:#915714;} .st66{fill:#BF6F15;} .st67{fill:#CF7817;} .st68{fill:#FF9C27;} .st69{fill:#FFE1B7;} .st70{fill:#B8701C;} .st71{opacity:0.28;fill:#0E1E26;} .st72{opacity:0.22;fill:#0E1E26;} .st73{fill:#749094;} .st74{fill:#D3EEF2;} .st75{fill:#A2E8F2;} .st76{opacity:0.1;fill:#AAE9FF;} .st77{fill:#C3D6D9;} .st78{fill:#2E393B;} .st79{opacity:0.31;fill:#2E393B;} .st80{fill:#203B3D;} .st81{fill:#006D89;} .st82{fill:#7C1000;} .st83{fill:#FAB6A8;} .st84{fill:#875717;} .st85{fill:#B88210;} .st86{fill:#C28A11;} .st87{fill:#FFBF36;} .st88{fill:#FFC8BA;} .st89{fill:#072B3B;} .st90{fill:#FFD0C4;} .st91{fill:#093D47;} .st92{fill:#F59D2A;} .st93{fill:#F74545;} .st94{fill:#FFE9E3;} .st95{opacity:0.45;fill:#DCEBED;} .st96{fill:#634709;} .st97{opacity:0.75;} .st98{opacity:0.47;} .st99{fill:#00C5F1;} .st100{fill:#9CE3FF;} .st101{fill:#D3CDCF;}</style><path class="st0" d="M143.4 897.2h2.1v8.2h-2.1z"/><path class="st1" d="M-35.4 867.4h13.6v7h-13.6zM-35.4 858.9h13.6v7h-13.6zM-35.4 850.4h13.6v7h-13.6zM-40.5 848.8h23.4c-3.9-4.5-7.9-9.1-11.8-13.6-3.9 4.5-7.7 9-11.6 13.6zM53.7 868.7h12.4v6.4H53.7zM53.7 861h12.4v6.4H53.7zM53.7 853.3h12.4v6.4H53.7zM49 851.8h21.4c-3.6-4.1-7.2-8.3-10.8-12.4-3.5 4.1-7 8.2-10.6 12.4zM28.8 835.2h14.3v7.3H28.8zM28.8 844.1h14.3v7.3H28.8zM28.8 853h14.3v7.3H28.8zM23.5 862H48c-4.1 4.8-8.3 9.5-12.4 14.3-4-4.8-8-9.5-12.1-14.3zM-10.3 864.4H.2v5.4h-10.5zM-10.3 857.8H.2v5.4h-10.5zM-14.2 856.6H3.9c-3-3.5-6.1-7-9.1-10.5l-9 10.5zM7.5 826.9h11.4v5.9H7.5zM7.5 834h11.4v5.9H7.5zM7.5 841.1h11.4v5.9H7.5zM23.2 848.3H3.5l9.9 11.4c3.3-3.7 6.5-7.5 9.8-11.4z"/><path class="st2 st3" d="M-231.4 1121.9l305.7 13.8-508.8-44.6 123.2 27.2 31.6 1.4 108.8 86.5 74.8 6.8-721.1 45.4c257.1-12 514.2-24 771.3-36.1 19.3-5.4 38.6-10.7 58-16.1H-146l-85.4-84.3z"/><path class="st2 st3" d="M-390.4 1127.3l-378.1-57.9-29.9 14.3 50.5 7.4-50.5 51.1 43 39.3-68.3 14.6v19l197.2-37.5-99.8 5.4-45.9-40.7 45.9-44z"/><path class="st4" d="M-47.2 1180.9c-3.8 2.1-7.7 4.2-11.5 6.2-7.7-.7-15.3-1.3-23-2-6.6-4.2-13.2-8.3-19.8-12.5 4.9-1.8 9.8-3.7 14.8-5.5 2.9 1.1 5.8 2.2 8.8 3.2 4.9.4 9.8.8 14.8 1.2 1.7-2.6 3.3-5.2 5-7.8 3.5 5.9 7.2 11.5 10.9 17.2zM-340.3 1171l15.5 6.5-43.9 2-32.1 6.8 5.5 8-50.3 2.7-36.5-8.3 45.6-15.2 33.1-10.9 31.8 9.4zM35.7 1267.2l15.9 5.6-30.5 5.9H-6v-11.5l-18.7 10.6-47.2-6.4-8.7-13.6 40.1-6.9-9-8.1 47.5-5.2 29.3 13.7z"/><path class="st5" d="M-91.5 1147.2v7.7l-7.3 11-8.2 4.3v3.4h22.1l6.4-9.6 7.6-3.5-4.9-11.9-5.5-6.5z"/><path class="st6" d="M-107.4 906.3c-1.1 5.7-2.2 11.3-3.4 17v29.6c-5.2 6.2-10.4 12.4-15.5 18.6.5 3.3 1 6.5 1.4 9.8 2 1.4 4 2.7 5.9 4.1l18-15.9c.1-3.9.1-7.8.2-11.6 1.4-10.2 2.7-20.5 4.1-30.7l-10.7-20.9z"/><path class="st7" d="M-122.5 1072.2l15.1 38.3 12.8 36.8 10.2 4 6.7-6.9-6.7-32.7c-3.2-9.6-6.3-19.1-9.5-28.7l-7.6-7.9-21-2.9zM-90.5 1000.5c1.3 13.7 2.7 27.4 4 41.1 1.6 11.2 3.1 22.4 4.7 33.6l8.1 12 11.4-2.6c1.2-3.5 2.4-7 3.5-10.5-.5-18.1-1.1-36.2-1.6-54.3l.9-13.3-3.4-4.5.6-9.5c-9.4 2.6-18.8 5.3-28.2 8z"/><path class="st7" d="M-104.8 983.5l-5.9 10.6c-3.9 26-7.8 52-11.7 78.1 2.8 3 5.7 6 8.5 9l14.1-1.2c1.1-1.8 2.3-3.7 3.4-5.5 3.9-20 7.8-40.1 11.6-60.1l4.2-15.3-24.2-15.6z"/><path class="st6" d="M-41.6 911.9l1 12.5 3.7 20.7 5.4 20.2-12.8-1.3-6.1-6.2-2.5-9.2 2.1-19.5z"/><path class="st8" d="M-94.8 901.2c-4.2 1.6-8.4 3.1-12.6 4.7-.3 14.2-.5 28.3-.8 42.5-1.9 17.5-3.9 35-5.8 52.5 4.3 2.9 8.5 5.9 12.8 8.8 1.5-3.1 3-6.1 4.5-9.2.5 3.5 1.1 6.9 1.6 10.4 7.3.2 14.6.4 22 .6l14.4-6.9 4.6-42.5 9.4-40.9 3.1-9.4-17.1-5.8-36.1-4.8z"/><path class="st6" d="M-76.8 913.8l2.6 4.6 4 12.3c4.9-4 9.7-8 14.6-12.1 3.4-.1 6.8-.3 10.2-.4.7-1.8 1.5-3.5 2.2-5.3-5.2-2.3-10.4-4.5-15.7-6.8l-17.9 7.7z"/><path class="st9" d="M-64.3 876.4l2.6-1 .8 5-3.1 4.4-2.6 1v-7.1z"/><path class="st8" d="M-67 892.1l5.4 5.1 2.9 8.9-11.1 21-2.9-9.5-4.1-3.8.5-13.7zM-85 892.8c-1.8.5-3.5 1-5.3 1.5l-4.5 6.9c.4 7.7.7 15.4 1.1 23l4-9.4c1.9-.4 3.8-.7 5.7-1.1-.1-4.2-.2-8.4-.3-12.5-.2-2.8-.4-5.6-.7-8.4z"/><path class="st6" d="M-85.5 893.3l-4.2 1.8c1.3 3 2.6 5.9 3.9 8.9l.3-10.7z"/><path class="st10" d="M-85.8 889v15l1.6 9.8h7.4l6.7-9.2 4.5-17.9-13.4-3.2z"/><path class="st11" d="M-85.5 893.3l8.7-1.3 10.9-3.6-9.8 14.7h-6.7l-3.1-4.5z"/><path class="st9" d="M-89.5 874.3v11.6l4 7.4 1.8 4h6.4l4.6-3.7 6.7-5.2 1.8-14.1-2.8-8.3-10-5.8-8.7-1.2c-2.8 3.2-3.7 6-4 8 .2-.1.1 1 .2 7.3z"/><path class="st12" d="M-89.6 876.6c-.3-2.7-.6-5.4-.8-8.2.1-2.4.2-4.7.3-7.1 1.2-2.6 2.5-5.3 3.7-7.9 1.6-.7 3.1-1.5 4.7-2.2 3.7.1 7.3.1 11 .2 2 1.2 4.1 2.5 6.1 3.7l1.5 3.6c.4 1.2.8 2.4 1.1 3.6-.1 3.5-.3 7-.4 10.5-.9 2.7-1.8 5.4-2.8 8.1l.6-4.4c-1.4-1.8-2.9-3.6-4.3-5.4-5.3-2.2-10.6-4.4-16-6.6 0-1-.1-1.9-.1-2.9-1 1.4-2 2.8-3 4.3-.6 3.7-1.1 7.2-1.6 10.7z"/><path class="st6" d="M-67.2 892.8l4.1 4.4-7 7.4z"/><path class="st9" d="M-89.5 874.3l-1.3-.8-1 1.9 2.1 6.7.9.5.8-6.1z"/><path class="st12" d="M-76 875.9l.3-1.4 4.6-.4 3.4 1.8-4.2-.9zM-83.2 874.1v1.3l-3.6-.7h-1.8l2.1-1.2z"/><path class="st6" d="M-47.6 934.1l-15.5 24.1-4.6 16 6.8-5.2 2.2 12.2-2.2 6.5 3.8 2.1 3-27.7z"/><path class="st8" d="M-75 971.4l26.5 6.9 9.8 2.3 8.4-2.7-1.2-12.6-2.9-7.1-11.1-3 1 3.5-3.1-.8-11.1-.4-14.4-5.1h-3.5l-1.2 10.3z"/><path class="st6" d="M-76.9 950.1l3.8 4.5v7.9l-1.9 8.9-3.7-2.4-1.4-6z"/><path class="st9" d="M-98.6 949.8c2.6-1.3 5.2-2.7 7.8-4l7.2 1.5 5.4 3.3c1.7 1.5 3.5 2.9 5.2 4.4v7.7l-5.3 2.7-3.6-1.6-2.2-1.9-6.3 1.1-.5-2.5-2.6-.8c-1-2.3-1.9-4.6-2.9-6.9-1.3.9-2.6 1.9-3.8 2.8l-1.1-1.9c.9-1.4 1.8-2.7 2.7-3.9z"/><path class="st6" d="M-84.2 913.8l-5.5 1.1-4 9.4 6.1-7.3 10.8-3.2z"/><path class="st7" d="M-80.6 1076.9l.7 13.2 3.1 18.7 5.7 43.3v10.5l8 1.9 7.1-2.7 2.1-23.9v-31.3l-2.1-19.5-4.2-5.9v-10.1z"/><path class="st5" d="M-69.2 1163.1c-.4-.1-5.5 11-5.5 11l-1.7 7.2H-52v-10.1l-5.8-11.5-6.5-2.9-4.9 6.3z"/><path class="st7" d="M-87.6 971.4l-12.4-12.8-38-2.2 14.8 12.9z"/><path class="st9" d="M-114 969.8v4.5l-1.8 6.3-2.8 1.6h-7.9l-4-8.5.7-7.2 5.1-5.7h3.7l.4 2-1.9 1.9-1 2.6 2.5-2 3.7 1.2 1.2 2.6z"/><path class="st12" d="M-76.3 1181.2h24.4v-3.6l-23.8.9zM-107 1173.6v-2.2h21.5l6-9 8.6-1.9-7.6 3.5-6.4 9.6zM-87.7 1029.1l-16.2 18.1v27.7s-7 6.1-6.1 6c.9-.1 8.4 0 8.4 0l4.8 8.9 12.4 22-9.5-28.7-3.4-3.5 2.4-10.7 7.2-39.8zM-59.5 1006.5l-10 25.9s4.7 36.5 5.5 38.1c.8 1.5 1.3 19.6 1.3 19.6l2.6-11.8 1.4-4.2-1.6-43.2.8-24.4z"/><path class="st13" d="M-64.1 1156.8l3.6 8.8 2 4.6s-.4 1.6-.6 1.6-11.8-.4-11.8-.4l-3 2.9.8 4.1 19.2-.7v-6.6l-3.3-6.6-2.3-.5-1.5-5.8-3.1-1.4zM-103.7 1171.4l1-2.4 8.4-3.2 6.6-10.2 1.1-5.2 2.2.9v5.5l2.1 4.1-1.3 1.5 2.4-1.5 1.7 1.5-2.1 3.2-5.1-2.4-6.6 4.8-5.3 2v1.4z"/><path class="st14" d="M-362.2 999.9l5.1 57.9v25.1c-.3 25.9-.7 51.8-1 77.6h-17.6c-1.4-25.9-2.9-51.8-4.3-77.6-2-21.2-4.1-42.4-6.1-63.6l10-15.2 13.9-4.2z"/><path class="st15" d="M-410.2 999.9l-3.5 28.8c-.4 8.7-.7 17.4-1.1 26.1-.3 8.7-.5 17.5-.8 26.2l-3 9.9-9.9 72.9c6.1.1 12.1.3 18.2.4 5.8-24.9 11.6-49.8 17.5-74.8l4.2-37.2c1.2-9.1 2.3-18.3 3.5-27.4l7.6-9.8 15.2-14.9h-47.9z"/><path class="st0" d="M-366.4 911.9l6.6 17.9 9 25.5 8.3 11.4-4.5 6.7-3.4 3.4h-6.9l-7.6-7.6s-4.9-25.3-4.9-26c0-.6 3.4-31.3 3.4-31.3z"/><path class="st0" d="M-400.4 902.4c-4.9 2.7-9.8 5.3-14.7 8-4 2.5-8 4.9-12 7.4 3.2 9.9 6.4 19.9 9.7 29.8l6.8 41.2.4 11.2h48l-1.3-48.9-.8-30.4-2.1-8.7-19.5-9.3c-4.9-.1-9.7-.2-14.5-.3z"/><path class="st16" d="M-402.8 886.8l.6 12.1v7.1l9.4 5.3 6.7-1.6 3-3.6 1.7-11.6-13.8-8.4z"/><path class="st17" d="M-402.8 883.2l-3.8-8.4v-5.2l2.6-8.9 8.4-6.1 10.3 2.2 5.9 3.4 2 2.4v5.5l-2.2 5.5-12.4 7.3z"/><path class="st18" d="M-401.2 883.4l1.4 10c3.3 2 6.5 4.1 9.8 6.1 1.4.7 2.8 1.3 4.3 2 2.2-.8 4.5-1.5 6.7-2.3l.3-3 2.6-8v-6.5l-1.1-2 1.1-2.6-1.8-5.4c-.7-2.2-1.4-4.4-2-6.5l-7.4-2.6h-8.8s-6.1 6.7-6 7.1c.1.4 0 10.8 0 10.8l.9 2.9z"/><path class="st18" d="M-400.3 880.8l-3.7-3.1-2.6 1.5v4.2l3.1 4.1 4.4 1.1z"/><path class="st17" d="M-380 865.2l-8.5-.9-6 4.6-4.6 5.1v-4.3l-1.7 4.3-3.1 2.1V867l5.8-6.7 6.9-1.7 7.4 2.7z"/><path class="st19" d="M-382.3 900.3l-3.4 1.2-4.5-2.1-9.6-6 7.8 9.7 2.8 4.7 2.9-2.7 4-4.8z"/><path class="st20" d="M-385.1 877.7c-.1-.4-.3-.8-.4-1.2l-4.2-.3-4 1.6.9.9 4.1-1.2 3.6.2zM-376.2 877.1l-3.3.3c.1-.4.2-.8.3-1.1.8-.3 1.7-.5 2.5-.8l.5 1.6z"/><path class="st0" d="M-392.8 911.3l-9.4-7.9-6.7 3.6 9.8 13.6zM-382.8 904.1l3.3 1.6 3.3 11.5-9.9-7.5 3-3.6zM-427.1 917.8l-3.2 16.5-7.6 31.8c-1 5.7-1.9 11.5-2.9 17.2 2.8 1.3 5.5 2.5 8.3 3.8l13-4-2.7-14.8 6.7-23.3v-13.4l-11.6-13.8z"/><path class="st0" d="M-436.1 979.1c.7-3.7 1.5-7.5 2.2-11.2 4.8-.7 9.6-1.5 14.3-2.2l24.8-10.3c-1 3.4-1.9 6.9-2.9 10.3 2.1 1.6 4.2 3.3 6.3 4.9-10.3 5.4-20.6 10.9-30.9 16.3-3.4.1-6.9.1-10.3.2-1.1-2.7-2.3-5.4-3.5-8z"/><path class="st21" d="M-392.8 911.3l-3.8 11.2-4.5-.4-4.2-6.2-3.6-8.9 9.8 13.6zM-386.1 909.7l8.6 9.4 2.9-.5-4.9-12.9 3.3 11.5zM-417 950.2l3.9-7.4-5.2-14.6-3.6-6.4 7.5 9.2 6.4 19.2-4.3-4.7zM-369.8 933.4h-6.4l1.6 7.2h-6.8l-3.7-7.2h-11.1l4.9 9.8 4.3 1.2 1.9 6.8 10.5 5.3 4.8-6.3v-7l2.2-.6z"/><path class="st17" d="M-401.1 884.1l1.3 9.2 6.2 5.4 7 3.7h3.5l4.4-1 2.2-2.7.3-10.5-2.6 6.7-.7-.6-3.4.4-1.6 1.6-3.2-.3-5.1-3.5-4.8-4.3z"/><path class="st22" d="M-411.5 1163.7l-3.7-3.2h-8.1l-4.2 2.9-1.7 9.4 1.7 8 7.1 2.3h7.6l7.3-3.4-3.2-5.8-2.8-4.4zM-375 1160.2l5.3-1.6 9.6 1.6 2.5 5.1 8.3 3.2h6.2l2.8 2.5-2.5 1h-28.8l-6.4-1z"/><path class="st7" d="M-389.8 972.7l15.7-35.6 55.3 3.9s-18.7 31.7-19.3 31.8c-.6.2-3.9 1.2-3.9 1.2l-47.8-1.3z"/><path class="st18" d="M-327.7 949.5l2.8 1.7 1.6 4.7-4.4 5.6-4.1 1.3-5.1-5.8z"/><path class="st23" d="M-318.8 941l-71 31.7 15.7-35.6z"/><path class="st18" d="M-394.6 955.3l9.5-1.5 8.9 5.3 3.5 6.5-5.1 5.5-13.5-.6-6.3-4.9z"/><path class="st24" d="M-772.3 836.9c-.1 0-.4.4-.7.9-1.4 2-4.4 6.5-4.4 6.5l2.6 8.7 7.7 3.7 12.2-3.7 9.8 2.1 5.5-7.1-4-10.2-17.3-7.9-11.4 7z"/><path class="st9" d="M-785.3 892.4c-2.8 5.1-6.1 10.4-9.9 15.9-2.2 3.1-4.3 6.1-6.5 8.9-2.7-1-5.5-2-8.2-2.9 5.4-8.8 10.7-17.6 16.1-26.4l1.1 4.6c2.4 0 4.9-.1 7.4-.1z"/><path class="st25" d="M-741.7 947.3c.6 2.2 3.5 44 3.5 44-1.5 8.7-3 17.3-4.4 26-.8 3.5-1.7 7-2.5 10.5-1.8 19.6-3.5 39.2-5.3 58.8l-6.5 2.5-3.8-3.2V1031.3l3.4-11.2 1.4-14.4-1.4-18 15.6-40.4z"/><path class="st9" d="M-777.7 990.7c2 11.6 4.1 23.2 6.1 34.8-.8 3.1-1.7 6.2-2.5 9.4.5 8.7 1 17.3 1.6 26l4 28.1 7.4 2.9 2.7-3.6c-.4-8.2-.6-14.9-.7-19.5-.2-10.2 0-20.9.4-42.2.1-3.9 0-7.7.4-12.6.4-6.1.8-12.3 1.2-18.4l-5.5-20.2s-12.7-1.8-12.1 0c.4 1.8-3 15.3-3 15.3z"/><path class="st26" d="M-780.8 948.4c-1 5.2-1.9 10.3-2.9 15.5 1.7 11.7 3.4 23.3 5 35l6.5 6.5c4.3 1.3 8.7 2.6 13 4 4.4-1 8.9-1.9 13.3-2.9 2.5-1.3 5-2.6 7.6-4 1.7-14.1 3.4-28.1 5-42.2-.5-4.9-1-9.9-1.4-14.8-1.4-2.9-2.9-5.8-4.3-8.7-11.5.1-23.1.2-34.6.4-2.4 3.7-4.8 7.5-7.2 11.2z"/><path class="st10" d="M-766.2 847.9l1.9 9.5v5.8l-7.9 5.5-4.6 1.9 6.5 5.3 10.1 6 4.6 5.5 5.8-6.2c1.8-2.4 3.6-4.7 5.4-7.1 1.2-1.1 2.5-2.2 3.7-3.4-1.2-.5-2.3-1-3.5-1.6-2.7-1.6-5.3-3.3-8-4.9-.1-2.6-.1-5.1-.2-7.7.4-2.9.8-5.7 1.2-8.6h-15z"/><path class="st27" d="M-755.6 885.8l-4.6-5-11.1-6.2-5.5-4-6.6 2.6-7.2 7.1-4.6 7.4 2.4 4.8 5.8 2.1c2.1-1.1 4.2-2.2 6.3-3.4 1.1 2.7 2.2 5.4 3.3 8 1 3.8 1.9 7.6 2.9 11.4.5 4.9.9 9.9 1.4 14.8l-1.5 12.3c-2.1 3.3-4.3 6.6-6.4 9.9 4.5 2.5 8.9 5 13.4 7.5 8-.5 16.1-1 24.1-1.5 3-2.7 5.9-5.4 8.9-8.2-1.4-3-2.7-5.9-4.1-8.9-1-5-2.1-10-3.1-15 .5-5 .9-10 1.4-15 1.4-3.4 2.7-6.8 4.1-10.2-.6-2.3-1.1-4.6-1.7-6.9 1.3 1.9 2.6 3.7 3.8 5.6 1.5-.4 3-.8 4.4-1.2 1.6-.9 3.3-1.8 4.9-2.8l-3.9-10.2c-1.2-2.1-2.3-4.3-3.5-6.4-2.9-1.3-5.8-2.6-8.8-3.8-1.4 1.1-2.7 2.2-4.1 3.2-1.6 2.1-3.2 4.3-4.8 6.4l-5.6 5.6z"/><path class="st11" d="M-752.2 859.6l-6.9 1.2-6.1-6.7 4.9 9.4 3.5 3.6 1.9-4c.9-1.1 1.8-2.3 2.7-3.5z"/><path class="st28" d="M-736.3 896.2l-5.8 3.7h-6.7l-12.1 1.2-10.7-1.2 9.5 8.9 11.9 10.5 9.8-12.9zM-729.6 893.5c-1.6.4-3.1.8-4.7 1.2-1.2-1.8-2.5-3.7-3.7-5.5l-.3-5.2c1.8 2.7 3.6 5.4 5.4 8.2 1.1.4 2.2.9 3.3 1.3zM-780.8 891.2l2.2-2.5 1.8-7.6-5.2 7.6-5 5.8zM-776.9 938.9c1.4-.8 2.8-1.5 4.2-2.3 1.4 1 2.8 1.9 4.2 2.9 1.3-.2 2.6-.3 3.8-.5l2.9 1.9h6.2l-3.8 3.4c-1.3.3-2.6.6-3.8 1-1.4.7-2.8 1.4-4.2 2.2-1.2 1.8-2.5 3.5-3.7 5.3-2.7-1.5-5.3-3-8-4.5.7-3.2 1.5-6.3 2.2-9.4z"/><path class="st29" d="M-739.8 1003.3l-6 3.1-10.4 2.3-.8 8 3.9 2.9 7.4-5.5zM-759.2 1009.3l-5.6 2.2-7.1-2.2-4.3-8 4 4z"/><path class="st30" d="M-749.8 1080.6c.1 2.6.2 5.1.3 7.7l3.8 7.2 3.7 2 .7 8.1-13.2-.8-2.8-4.8.6 6.2s-1.4 4.8-1.8 4.8c-.4 0-8.5.6-8.5.6l-4.3-6 .8-10.3c.4-4.2.7-8.4 1.1-12.6.9.7 1.9 1.4 2.8 2 1.8 0 3.6-.1 5.4-.1.9-.6 1.8-1.3 2.7-1.9 1 .3 1.9.6 2.9.8 1.3-.3 2.5-.6 3.8-.9.7-.6 1.3-1.3 2-2z"/><path class="st9" d="M-773.8 932.4c.2 1.5.4 3.1.6 4.6 2.1 2.2 4.2 4.5 6.4 6.8.3 1 .6 1.9.9 2.9-2.8.7-5.5 1.3-8.3 2-1.8-1.3-3.6-2.5-5.4-3.8-.9-1.1-1.8-2.2-2.7-3.4-1.1-2.9-2.1-5.9-3.2-8.8.5-1.2 1-2.3 1.5-3.5l4.9-.8 5.3 4z"/><path class="st9" d="M-779.2 928.3c-4.2-3.3-8.3-6.6-12.5-9.9l-8.7-8.4c-1.5-.9-3.1-1.9-4.6-2.8-1.6 2.4-3.3 4.7-4.9 7.1 1.7 2.3 3.3 4.6 5 6.9 2.8 1.3 5.6 2.7 8.4 4 3.8 2.5 7.7 5.1 11.5 7.6 1.1.1 2.2.2 3.4.3l2.4-4.8z"/><path class="st10" d="M-787 894.5l-5.8-2-1.7-3.5v7.2l2.6 3.2z"/><path class="st31" d="M-741.3 1105.6l-13.2-.9-2.8-4.8v-3.1l3.4 6.4 12.4-.2zM-757.3 1099.9l.6 6.3-1.8 4.8-8.5.6-4.3-6 .7-8.8.8 7.4 3.5 4.3 6.6-.3 2-2.6z"/><path class="st31" d="M-761.2 1082.3v18.4l-4.5.5-1.1-18.9zM-745.7 1095.5l-1.2.6-4.1-6.7-.7-9.9 1.8-.3.6 1.4.6 8.8z"/><path class="st9" d="M-724.8 890.9l5.5 13.7 2.2 6.8-3.8 3.1h-3.9l-4.8-10.4-3.5-9.6 3.5-1z"/><path class="st32" d="M-725.4 893c-8.3-1.4-16.6-2.9-24.9-4.3-1.9 16-3.8 32.1-5.8 48.1 7.6-.8 15.3-1.6 22.9-2.3 2.6-13.9 5.2-27.7 7.8-41.5z"/><path class="st33" d="M-724.3 893.7c-8.3-1.4-16.6-2.9-24.9-4.3-1.9 16-3.8 32.1-5.8 48.1 7.6-.8 15.3-1.6 22.9-2.3 2.6-13.9 5.2-27.7 7.8-41.5z"/><path class="st34" d="M-723 894.5c-8.3-1.4-16.6-2.9-24.9-4.3-1.9 16-3.8 32.1-5.8 48.1 7.6-.8 15.3-1.6 22.9-2.3 2.6-13.9 5.2-27.7 7.8-41.5z"/><path class="st35" d="M-721.3 895.8c-8.3-1.4-16.6-2.9-24.9-4.3-1.9 16-3.8 32.1-5.8 48.1 7.6-.8 15.3-1.6 22.9-2.3 2.6-13.9 5.2-27.7 7.8-41.5z"/><path class="st9" d="M-717.1 911.4l1.4 9.6-9.1 4-13.5 2-4.4 1.1-.9-6.9 7.3-1.5 8.5-3.4 3-1.8z"/><path class="st9" d="M-743.6 921.2c-.7-.6-1.3-1.2-2-1.7l-11.8.3-.8 1.5 2.6 1.3c-1.2.3-2.4.6-3.7 1 .1.7.2 1.3.4 2 1 .1 2.1.2 3.1.4-.6.5-1.1 1-1.7 1.6l1.9 2.3c.8 1 1.5 2 2.3 3 1 0 2 .1 3.1.1l4.9-1.6 3.9-3.4-2.2-6.8z"/><path class="st32" d="M-778.3 929l-3.3.4-4 3.2.9 2.4.5 1.3-.9.4-2.2-1.1-1.3-3.3-.2-2 3.7-3.6 2.6-1 2 .5 3.3 2.3.2 1.5z"/><path class="st36" d="M-777 930l-1.3-1-3.3.4-4 3.2 1.4 3.7-.9.4-1.2-1.9-.4-2.7 4-3.8 3.9-.4 1.6.6z"/><path class="st37" d="M-726.8 925.3l-8 1.2-3.5.5-3.1.7-3.9 3.4-4.9 1.6H-753.3l.2 1 1.7.9.2-.9h3.4l4.2-1.7 2.9-3.2 7.4-.4 6-.8z"/><path class="st10" d="M-724.8 914.5l2.7-1.8 2.5.7v-2.6l-2-3-1-5.1z"/><path class="st0" d="M-741 870.4l-4.1 3.2-5.2 6.8c-1.6 2-3.2 4-4.9 6-1.7-1.9-3.4-3.8-5-5.8l-11.1-6.2-5.5-4 .8-1.4 1.7-.4 1 1.6 9.1 5.6 5.4 3.2c1.3 1.1 2.5 2.2 3.8 3.2 1.2-1.3 2.5-2.5 3.7-3.8l4.7-6.7 3.5-2.4 1.7-.2.4 1.3zM-785.8 893.9l-3.3-.9-3-1.6-2-3.2-.7-1.2-.9.4-.3.4.8 2 3 3.8 4.5 1.6 1.2.3.7-.8zM-727.8 892.5l3.2-1.3.3-1.1-1.1-.7-4.6 2.8z"/><path class="st9" d="M-769.5 842l1.8 10.8 7.9 8.7h7.2c1.8-2.5 3.5-5 5.3-7.6.7-2.1 1.3-4.3 2-6.4v-14.2l-8.3-10.8-8.7-4.3-7.2 9V842z"/><path class="st24" d="M-762.1 823v7l8.4 9.1 8.5 1c-.2 1.9-.5 3.9-.7 5.8 2.5-1.9 5-3.9 7.5-5.8v-10.9l-5.5-9.9-12.3-5.4-6 4.9v4.2z"/><path class="st24" d="M-762.1 830l1.2 3.9-5.3 3.7-2.9 7.1c.2 1.2.4 2.5.6 3.7-1.9-2.3-3.7-4.6-5.6-6.9l-1.7-8.7 1.9-7.8 1.9-7.4 6.2-2.3 3.6 3.5V830z"/><path class="st10" d="M-766.2 837.6l5.3-3.7-1.2-3.9 8.4 9.1 8.5 1c0 1.9-.1 3.7-.1 5.6-.7-1.5-1.3-3-2-4.5l-7.3-1-5.8-7-.3 1.1-5.5 3.3z"/><path class="st38" d="M-769.8 843.9c.9 0 1.7-.1 2.6-.1l1.3-.8 4.9-.6 3.5.4.9.6c.6-.1 1.2-.3 1.8-.4.5.1 1.1.3 1.6.4l.6-.7 3.6-.4 3.6.7.1.5.7.2v1.3l-.8.5-.8 1.5-2.4 1.3h-2.7l-1.8-1.6c-.3-.8-.5-1.5-.8-2.3-.3-.1-.6-.2-.8-.3-.3.1-.7.2-1 .3l-1.1 2-2.1 1.9-3.2.3-4.1-1.8c-.3-.5-.6-1.1-.9-1.6-.9-.1-1.8-.1-2.7-.2v-1.1z"/><path class="st0" d="M-756.5 844.3c-.4-.3-.7-.7-1.1-1l-3.2-.4-4.7.5v2.9l3.5 1.8 3-.4 2-1.8c.1-.6.3-1.1.5-1.6zM-752 843.2l-.9 1.2.4 1.9 1.4 1.4h2.5l2.1-1.1.7-.9v-2.3l-3.1-.5z"/><path class="st39" d="M-745.8 845.7v-2.3l-3.1-.5-3.1.3 3.7.3 1.9.8zM-757.1 845.9l.6-1.6-1.2-1-3.2-.4-4.7.5 5.1.3 2.8.6z"/><path class="st9" d="M-769 845l-.8-1.1h-1.5l-.3 1.7 1.8 4.7 1.9 1v-3.4z"/><path class="st27" d="M-764.3 862.7l.5 6.8 3.9 5.8 4.3 3.2 2.7-.4 1.5-4.8-.8-9.1 1.9 9.1-2.2 5.2-3.6 1-4.8-4.2-3.4-5.3z"/><path class="st40" d="M-767.6 955l24.1-1.5 8.9-8.2-9 12.4H-766z"/><path class="st41" d="M-680.9 907.3l-5.9 6.9c-2.1 2.7-4.3 5.4-6.4 8-4.2 5.3-6.5 7.2-10.3 11.9-2.6 3.2-4.5 5.9-5.8 7.7-.8 3.3-1.6 6.7-2.4 10 4.6 1.3 9.1 2.6 13.7 4 1.7-3.1 3.5-6.1 5.2-9.2 5.2-3.9 10.3-7.8 15.5-11.8l-1.8-16.5-1.8-11z"/><path class="st42" d="M-631.3 1001.7l-10.2 2.4-2.6-2.4-3.3 2.4-11.8-2.4-5.8-48.3 2.6-42.4 4.4-11.7 20.2-.5 9.6 16.8s-.8 50.5 0 51.5c.9.9-3.1 34.6-3.1 34.6z"/><path class="st43" d="M-637.7 885.1l-.8 8.8v4.7l.8 3.4c-1.2 1.8-2.4 3.6-3.5 5.4-2 2.3-3.9 4.6-5.9 6.8-1.8-2-3.7-4-5.5-6-1.8-1.8-3.5-3.7-5.3-5.5.3-2.5.5-4.9.8-7.4l-.3-10.2h19.7z"/><path class="st11" d="M-638 888l-2.7 7.4-7.5 5-5.1-2.8-2.4-5.1-1.7-6.4v-2.8l16.7-1.1z"/><path class="st44" d="M-660.7 871.5l-1.4-1.7-1.8.9 1.2 4.5 1 3.4 1 .3 1-2.7z"/><path class="st44" d="M-659.7 863.6l-1.3 12.8.7 9.3 5.4 4.5 3.8 4.1 8-.6 3-3.7 5.9-6.8-.6-9.8-.9-10.1-8.2-5.1-11.8 1.5.6 2.7z"/><path class="st45" d="M-647.6 879.5c-1.7-.1-3.4-.1-5-.2l-2.1 5.7c-1-.2-1.9-.5-2.9-.7-.6-.7-1.1-1.5-1.7-2.2l-1.5-4.8v4.2c.1 1.4.3 2.8.4 4.2.8 1.4 1.7 2.8 2.5 4.2l2.4 3 3.6 2.5 4.4 1.4 4.7-1.8c1.8-1.5 3.5-3.1 5.3-4.6 1-2 2.1-4 3.1-6l-.1-4.2-.2-2.8-1.9 4.2-1.4 2.4-2.6.3c-.3-1.1-.6-2.3-.9-3.4-1.9-.3-4-.9-6.1-1.4z"/><path class="st44" d="M-652 881.6l2 1.1 2.8-.6 1.8 1 3.2-.5.7 3.5-.9 2.8-2.5 1.5-1-1.4-3 .1-1.2 2-3.2-2.2v-4.8zM-634.5 877.5l1-.4 1.1-4.3.3-3.5-1.5-.7-1.3 2.4s-.6 2.9-.6 3l1 3.5z"/><path class="st45" d="M-660.7 873.1l.6 3 .9-9.4.8-2.6 3.3-1.6 3.2.8 5.5 1.3 7.8 1.1 2-1.1 1-1.3c.1 2.6.2 5.3.3 7.9.1 1.7.2 3.5.3 5.2.3-2.4.7-4.7 1-7.1l-.3-7.9-1.8-6.4-4.6-3.9s-7.8-2.3-8-2.2c-.2.1-3.9.1-3.9.1l1.7.8-3.4-.1-5.2 2.1-2.8 5.1 1.4-.6-1.2 2.8s.1 1.9.3 3.8c.2 2.3.2 3 .3 3.9.1 1.4.3 3.6.8 6.3z"/><path class="st46" d="M-635.7 863.3l-1 1.3-2 1.1-7.8-1.1-8.6-2.2-3.3 1.6-.8 2.7 3-2.7 2.1-.4 8.1 2.5 1.7-.3 5.8.9 2.1-1.4zM-644.9 887.1l-1 1.9-3 .1-1.6-2 2.8.4z"/><path class="st41" d="M-637.7 898.8l15.7 5.3 10.1 2-1.4 15.6-2.4 29.4-.4 44.5-8.7 6.1-6.3 2.4-4.3-43.1-2.3-42.7zM-657.9 899.3c.8 12.4 1.5 24.9 2.3 37.3-.1 8.9-.3 17.9-.4 26.8-.8 13.5-1.7 27.1-2.5 40.6l-9.4-3.7-6.5-4.9c-.5-11.7-.9-23.5-1.4-35.2-1.4-11.4-2.8-22.9-4.1-34.3-.3-6.2-.7-12.4-1-18.7 2.8-.7 5.6-1.5 8.4-2.2 4.8-1.8 9.7-3.7 14.6-5.7z"/><path class="st47" d="M-647.2 914.2l5.7.6 3.8 4.2-4.7-2.5zM-647.2 914.2l-5.4 1.7-3.1 3.9 5.2-3.2zM-631.3 1001.7l-10.2 2.4-2.6-2.4-.8-34.7 2.5 33.4 1.9 1.3z"/><path class="st47" d="M-645.9 914.8l1 50.2-2.3-50.8z"/><path class="st41" d="M-638.5 895.4l.8-.6 6.9 5.5 1.1 1.2 3.7 18.6 1.2 7.1-9.1 2.6-3 2.6-1.9-31.9z"/><path class="st48" d="M-636.9 932.4l3-2.6 9.1-2.6-4.7-25.1 6.3 26.4-9 2.6z"/><path class="st41" d="M-657.5 895.4l-.8-.6-6.5 6.1-.9 1.3-2.1 18.8-.6 7.2 9.2 1.8 3.3 2.3-.8-31.9z"/><path class="st48" d="M-655.9 932.3l-3.3-2.3-9.2-1.8 2.6-25.4-4.2 26.8 9.2 1.9zM-657.5 895.4l.7 4.6.4 14.1-2.1-13.4.2-5.9zM-638.5 895.4l.8-.6.4 7.3-.2 18.2-1.3-19.8z"/><path class="st41" d="M-611.9 906.1l3.4 8.4c1.2 3.2 2.3 6.4 3.5 9.7 2 4.9 3.9 9.7 5.9 14.6 1.9 6 3.8 12 5.7 17.9l-8.1 3.9c-3.3-1.1-6.6-2.1-9.9-3.2-.9-3-1.8-6-2.8-9.1-1.6-2.7-3.3-5.4-4.9-8.1l1.8-24.3 5.4-9.8z"/><path class="st48" d="M-615.3 946.5l3.4-15.8-2.3-13.1-.2 17.6zM-677.4 947.4l.6-12.8.6-15.6-2.9 14.4z"/><path class="st49" d="M-611.9 906.1l-1.7 8.1 7.4 16.5 7.1 8.1-9.4-24.3zM-680.9 907.3l-.2 6.5-12.9 9.3 8.4-10.3z"/><path class="st4" d="M-175.2 1152.6c-7.7-2.5-15.3-5-23-7.5-19 1.7-38 3.3-57 5-3.7 6-7.3 12-11 18 1.7.5 3.3 1 5 1.5-2.5 1.3-5 2.7-7.5 4-18.2.2-36.3.3-54.5.5l-43.3 39.7h304.7l-44.3-47.9h-47c-7.4-4.4-14.8-8.9-22.1-13.3z"/><path class="st50" d="M-194.2 1145.1c-15.3 9.5-30.7 19-46 28.5-3.2-1.3-6.3-2.7-9.5-4 16.5-9.2 33-18.3 49.5-27.5l6 3z"/><path class="st51" d="M-254.3 1163.8c-.1 2.5-.2 5.1-.4 7.6-1.2 2.6-2.3 5.2-3.5 7.9-1 2.8-2.1 5.7-3.1 8.5 0 3.2.1 6.4.1 9.6 3 .5 5.9.9 8.9 1.4 2.5-1.9 5-3.8 7.5-5.6l2.1-10.2 3.9-8.1-.6-4.5.9-2.9-2.3-4.9-13.5 1.2z"/><path class="st50" d="M-253.2 1153.6l6.9-5 57.6 11.6-3.5 5.9z"/><path class="st52" d="M-231.9 1099.5l2.6 26h12.8l-1.4-26z"/><path class="st50" d="M-219.6 1125.5l3.1 33.6h-6.9l-2.5-33.6z"/><path class="st53" d="M-194.5 1086.1l-.3 16c-8.3.4-16.7.9-25 1.3-12.3-1.9-24.6-3.7-36.8-5.6l-7.4-4.2v-10.5l20.1-5 31.1 4c6.1 1.4 12.2 2.7 18.3 4z"/><path class="st53" d="M-254.2 1074.2l4.3 18.9h13.5l-6.9-26.7z"/><path class="st53" d="M-250.2 994.7l-28.5 6-7.1 19.4 11.1 42.7 16 15.7 25.4-8.9-1.3-43.3z"/><g><path class="st54" d="M-228.6 990l9-6.6 13.6.6 13.1-5.9 10.3-5.1 4.2-3.1 3.7.6c1.3 5.2 2.7 10.5 4 15.7-4.1 2.1-8.1 4.1-12.2 6.2-9.3 4.7-18.5 9.5-27.8 14.3-4.7-3-9.5-6-14.2-9.1-1.1-2.5-2.4-5-3.7-7.6z"/><path class="st55" d="M-173.4 986l-5.8-4.4-1.5-9 3.2-2.4 9.5-7.5c6.1-6 12.3-11.9 18.4-17.9l3.9 4.2 1.7 4.4-11.1 13.9-13.1 14.7-5.2 4z"/><path class="st55" d="M-150.3 947.9c-.4-1.9-.7-3.8-1.1-5.7.9-2.8 1.8-5.7 2.6-8.5.2-1.2.5-2.4.7-3.6.5.1 1 .2 1.4.3.3.8.6 1.5.9 2.3-.2 2.2-.5 4.4-.7 6.6 2.3-1 4.5-1.9 6.8-2.9 2.9-1.5 5.9-3 8.8-4.4 2-.6 4.1-1.2 6.1-1.7.3.4.7.8 1 1.3.5 0 1.1.1 1.6.1l.3 1.8c-.3.3-.6.7-.9 1 0 .7-.1 1.5-.1 2.2-2.2 1.7-4.5 3.4-6.7 5.1 2.2-.5 4.5-1.1 6.7-1.6l.3 1.5c-2.6 1.5-5.2 3-7.8 4.4-2.2 1.6-4.5 3.3-6.7 4.9-1.6.8-3.3 1.6-4.9 2.4-.9 0-1.8 0-2.7.1-1.8-1.9-3.7-3.8-5.6-5.6z"/><path class="st56" d="M-151 945.9l.7 2 6.3 5.6-1.1 3.1-2.6 1.9-7.1-6.4-.5-2z"/><path class="st54" d="M-243.5 991.8l-6.7-9.4-8.3-6.1-14.1-13.5c-4.5-5.3-9-10.5-13.5-15.8l.3 8.1-5.4 4.2c-1.9.2-3.9.5-5.8.7 3.9 4.4 7.9 8.8 11.8 13.2 3.8 4.3 7.5 8.6 11.3 12.9 2.6 4.9 5.2 9.9 7.8 14.8 4.1-2.3 8.1-4.6 12.2-6.9l10.4-2.2z"/><path class="st55" d="M-286.1 946.9l-9.2-9.9-14.7-17.7-5.1 3.8.4 7.1 17.7 29.7 5.8-.7 5.4-4.2z"/><path class="st55" d="M-310 919.3l-2-6.8-11.3-15.9-1.2 2.5 2.7 6.3 1.2 5.4-2.5 4.4-1.4 7.1 4.2 7.5 5.6.4 3.7 2.1 3.6-7.3z"/><path class="st54" d="M-222.3 981.1l6.4 6.5c3.4 1.9 6.8 3.9 10.1 5.8-.7 3.5-1.7 7.3-2.9 11.4-1.2 3.9-2.5 7.5-3.8 10.7.2 11 .4 22.1.7 33.1 1.4 5.3 2.8 10.7 4.1 16 .3 3.8.6 7.7.9 11.5-4.7 1.9-9.4 3.8-14.1 5.6-12.3-.6-24.5-1.2-36.8-1.8-.9-5.1-1.8-10.3-2.4-15.7l-3.6-34.5-2-19.7-3.6-16.1-.8-5.6 14.1-5 7.9-4 25.8 1.8z"/><path class="st57" d="M-224.6 969c-.4 2.4-.8 4.8-1.1 7.2 0 2.1 0 4.2-.1 6.3l-6.7 5.8-6.1-1.1-3.6-6.4-1.5-7.2 1.4-8.6 10.5-1 7.2 5z"/><path class="st55" d="M-219.5 953.3l-1.2 12.9-7.7 5.7-4.3 4.2-6.3-1.4-2-4.5-4.5-7.7 2-11.5.8-6.5 6-7.7 12.3 3.1 4.9 8z"/><path class="st55" d="M-220.3 955.4l2.7-1.2 1.7 2.3-2.6 4.7-2.7 2.9-1.1-1zM-243.2 953.5l-1.7-2.8-1.6 2.2v5.6l1.6 1.8z"/><path class="st58" d="M-243.8 952.6l-1.1-8.9 3.2-11.1.9 2.4 5.8-6.6s5.8-1 6.2-1c.3 0-.8 2.3-.8 2.3l10-1.2-.4 4.6 6.6 2.5 1.5 6.6-1 2.9-1.7-2.2 1.3 4.4-1.5 5.3-6 6.6-.3-12.4s-6.1-6.8-5.6-6.2c.4.7 1.1 2.6 1.1 2.6s-7.3-3.5-7.1-3.1c.2.3 3.2 2.5 3.2 2.5l-7.8.6 1.3.7-4.7 1.1-3.1 7.6z"/><path class="st59" d="M-232.5 988.4l7.9 11.2 2.3-4.8.8-8.4-2.3-5z"/><path class="st60" d="M-225.7 976.3l3.4 3.1v11.1l-2.3 6-7.9-8.1 6.7-5.8z"/><path class="st59" d="M-238.6 987.3l-8.5 12.3-4.7-7.5 1.1-9.3.7-2.4z"/><path class="st60" d="M-243.8 973.7c-2.1 1.8-4.2 3.5-6.3 5.3l.6 11.1 3 6.9c2.6-3.3 5.3-6.5 7.9-9.8l-3.6-6.4-1.6-7.1z"/><path class="st58" d="M-229.7 957.2l1.4-1.7 3.7.4 2.3 1.7zM-235.4 954.2v1.7l-6.7-2.9 2.6-.6z"/><path class="st61" d="M-224.6 969l-3.8 2.9-4.3 4.2-6.3-1.4 5.9 5.7 1.9 2.7 2.4-4.2z"/><path class="st56" d="M-310 919.3l5.5 5.8-1.5 3.1-2.8 5.5-3.3.8-3-.7.4-3.6 4.3-4.1z"/></g><path class="st62" d="M-261.9 1071.4l4.5 17.4c8.1.4 16.1.8 24.2 1.2 9.9-1.6 19.8-3.2 29.8-4.8.1-4.6.2-9.3.2-13.9h-58.7z"/><path class="st63" d="M-315.8 1057.5v123.4h4.2l4.6-123.4z"/><path class="st64" d="M-341.2 1077.8l3 131.3h8.3l-1.5-131.3z"/><path class="st65" d="M-189.2 1209.1l-7-28.8v-107.4l10.5 1.8s6.3 79.6 6.2 81.9c-.2 2.2-9.7 52.5-9.7 52.5z"/><path class="st64" d="M-94.6 1077.8v2.8l-.5 19.4-2.7 109.1h-91.4v-128.4z"/><path class="st4" d="M-189.2 1080.7l94.6 2.1v5.6l-93.3 1.7z"/><path class="st66" d="M-79.2 1078.5v4.3l-278.7-4.3v-4.4c45.4-2.8 90.8-5.6 136.2-8.5l142.5 12.9z"/><path class="st67" d="M-119.2 1054.6l40 23.8c-92.9-1.5-185.8-2.9-278.7-4.4 11.6-8.1 23.1-16.2 34.7-24.2l204 4.8z"/><path class="st0" d="M-101.6 1060.4l-29.6-.3 19.4 16.6c10.6-.2 21.2-.4 31.8-.7l-21.6-15.6z"/><g><path class="st68" d="M-98.4 1071.7l-2.9 2.9h-7.7c-.8-.8-1.6-1.5-2.3-2.3-.2-4.7-.3-9.4-.5-14l2.8-1.9h8l2.5 1.9c0 4.5 0 8.9.1 13.4z"/><path class="st69" d="M-98.6 1058.3l-3.9 1.5-7.1.7-2.3-2.2 2.8-1.9h8.1z"/><path class="st70" d="M-101.4 1056.8l1.7 1.3-2.8 1.3-6.7.7c-.5-.6-1.1-1.2-1.6-1.8l2.1-1.7 7.3.2z"/><path class="st71" d="M-110.8 1058.2l1.6 1.9 7.8-3.3-7.3-.3z"/><path class="st72" d="M-102.5 1059.8l1.2 14.8 2.9-2.9-.2-13.4z"/><path class="st68" d="M-99 1061.4l4.1.3-.5 8.1-3.6.5-.2-1.6 2.6-.3.4-5-3-.5z"/><path class="st0" d="M-108.5 1060.4l-.5 7.8-.6-7.7z"/></g><path class="st73" d="M-191.2 1056.2l9.7 8.6-95-1.3 2-9.3z"/><path class="st53" d="M-191.2 1055.1l9.7 8.6-95-1.3 2-9.3z"/><path class="st4" d="M-331.4 1078.9l-9.8-.2.2 7.4h9.6z"/><g><path class="st53" d="M-107.9 1047.2l-102.4 2.3 2.3-72.5 102 1.7z"/><path class="st74" d="M-142.5 1047.7l5.5 17.7-1.5 5.4-25.9 2.2-11.5-8.8-.3-3.2 12.2 9.2 1.5-4.5-4.3-17.8.9-26.3 25.2-.5z"/><path class="st75" d="M-176.2 1061l12.2 9.2 1.5-4.5-1.3-5.1zM-164 1047.8l4.4 17.7 22.6-.1-5.5-17.7z"/><path class="st0" d="M-140.7 1021.1l-22.6 1.9-2.6-1.4z"/><path class="st76" d="M-106 978.7l-104.3 70.8 2.3-72.5z"/><path class="st76" d="M-120.1 988.2l-2 52.5 8.4 1.1 1.9-57.9z"/><path class="st53" d="M-123.962 996.862l8.385-.505.144 2.396-8.385.505zM-123.667 1002.465l8.385-.505.144 2.396-8.384.505zM-123.266 1008.162l8.385-.505.144 2.396-8.385.505z"/></g><g><path class="st53" d="M-352.7 1045.8l102.4 3.9-1.2-72.5h-102z"/><path class="st74" d="M-318.2 1046.8l-5.8 17.7 1.5 5.4 25.8 2.5 11.7-8.5.3-3.2-12.3 8.9-1.4-4.4 4.5-17.8-.4-26.3-25.2-.9z"/><path class="st75" d="M-284.7 1060.7l-12.3 8.9-1.4-4.4 1.3-5.2zM-296.6 1047.3l-4.7 17.6-22.7-.4 5.8-17.7z"/><path class="st0" d="M-319.5 1020.2l22.6 2.2 2.6-1.3z"/><path class="st76" d="M-353.5 977.2l103.2 72.5-1.2-72.5zM-339.6 987l1.2 52.5-8.4.9-1-57.9z"/><path class="st53" d="M-336.028 997.987l-8.376-.64.183-2.393 8.375.64zM-336.494 1003.634l-8.375-.64.184-2.393 8.375.64zM-336.86 1009.287l-8.375-.64.183-2.394 8.376.64z"/></g><path class="st53" d="M-285.8 1111.5h-30l-13.7 25.6h38.8z"/><path class="st77" d="M-290.7 1137.1l2.5 66.5-36.8-2-4.5-64.5z"/><path class="st78" d="M-285.8 1111.5l4.6 62.2-7 29.9-2.5-66.5z"/><path class="st78" d="M-329.5 1137.1l4.5 64.5 36.8 2-.1-2.7-34.9-1.9-4.6-61.9z"/><path class="st79" d="M-293.3 1139l2.6 60.7-5.2-46.8-30-8.4-.9-6.5z"/><path class="st78" d="M-313.8 1149h-10.5l.6 1.3 9.9-.6zM-313.8 1151.7h-10.5l.6 1.4 9.9-.7zM-313.8 1154.5h-10.5l.6 1.3 9.9-.6zM-313.8 1157.2h-10.5l.6 1.4 9.9-.7zM-313.8 1160h-10.5l.6 1.3 9.9-.6z"/><path class="st65" d="M-103.4 1135.1l-2.8 68.5h-73.3v-92.1l3.5 88.2h66.5z"/><path class="st62" d="M-249.2 1090.1l-11.5-7.3-18 2.6v17.3l10.2 30.8 11.1 33.6 11.1 1.8c2.9-1.5 5.8-3 8.6-4.5-1.9-12.4-3.8-24.9-5.7-37.3-1.3-9.4-2.6-18.8-4-28.3l-1.8-8.7z"/><path class="st80" d="M-278.7 1085.4l15.2-5.7 4.7.4 13.5.6-1.9 18.1-11.6-11.6z"/><path class="st62" d="M-217.9 1086.5c7.2 4.1 14.5 8.2 21.8 12.3V1081l-18-.3c-1.3 1.9-2.6 3.8-3.8 5.8zM-248 1100l17.1-11.8-3.4-6.9-12 4.1z"/><path class="st0" d="M-252.3 1167.9v4.9l-4.9 13.4 6.4.9-3.9-1.8 4.6.2 2.3-7.3.7-6.4.9-2.9z"/><path class="st4" d="M-689.5 1080.1c7.7-2.5 15.3-5 23-7.5 19 1.7 38 3.3 57 5 3.7 6 7.3 12 11 18-1.7.5-3.3 1-5 1.5 2.5 1.3 5 2.7 7.5 4 18.2.2 36.3.3 54.5.5l43.3 39.7h-304.7l44.3-47.9h47c7.4-4.4 14.8-8.9 22.1-13.3z"/><path class="st50" d="M-670.5 1072.6c15.3 9.5 30.7 19 46 28.5 3.2-1.3 6.3-2.7 9.5-4-16.5-9.2-33-18.3-49.5-27.5l-6 3z"/><path class="st81" d="M-610.4 1091.3c.1 2.5.2 5.1.4 7.6 1.2 2.6 2.3 5.2 3.5 7.9 1 2.8 2.1 5.7 3.1 8.5 0 3.2-.1 6.4-.1 9.6-3 .5-5.9.9-8.9 1.4-2.5-1.9-5-3.8-7.5-5.6l-2.1-10.2-3.9-8.1.6-4.5-.9-2.9 2.3-4.9c4.6.4 9 .8 13.5 1.2z"/><path class="st50" d="M-611.5 1081.1l-6.9-5-57.6 11.6 3.5 5.9z"/><path class="st52" d="M-636.5 1026.6l-1.1 26.2-12.8.7-.2-26.1z"/><path class="st50" d="M-647.3 1053.3l-1.1 33.7 6.9-.4.5-33.6z"/><path class="st53" d="M-670.2 1013.6l.3 16c8.3.4 16.7.9 25 1.3 12.3-1.9 24.6-3.7 36.8-5.6l7.4-4.2v-10.5l-20.1-5-31.1 4c-6.1 1.4-12.2 2.7-18.3 4z"/><path class="st53" d="M-610.5 1001.7l-4.3 18.9h-13.5l6.9-26.7z"/><path class="st62" d="M-602.8 998.9l-4.5 17.4c-8.1.4-16.1.8-24.2 1.2-9.9-1.6-19.8-3.2-29.8-4.8-.1-4.6-.2-9.3-.2-13.9h58.7z"/><path class="st63" d="M-548.9 985v123.4h-4.2l-4.6-123.4z"/><path class="st64" d="M-523.5 1005.3l-3 131.3h-8.3l1.6-131.3z"/><path class="st65" d="M-675.5 1136.6l7-28.8v-107.4l-10.5 1.8s-6.3 79.6-6.2 81.9c.2 2.2 9.7 52.5 9.7 52.5z"/><path class="st64" d="M-770.1 1005.3l.1 2.8.4 19.4 2.7 109.1h91.4v-128.4z"/><path class="st4" d="M-675.5 1008.2l-94.6 2.1v5.6l93.3 1.7z"/><path class="st66" d="M-785.5 1006v4.3l278.7-4.3v-4.4c-45.4-2.8-90.8-5.6-136.2-8.5l-142.5 12.9z"/><path class="st67" d="M-745.5 982.1l-40 23.8c92.9-1.5 185.8-2.9 278.7-4.4-11.6-8.1-23.1-16.2-34.7-24.2l-204 4.8z"/><path class="st73" d="M-662.5 983.7l-9.7 8.6 95-1.3-2-9.3z"/><path class="st53" d="M-662.5 982.6l-9.7 8.6 95-1.3-2-9.3z"/><path class="st4" d="M-533.3 1006.4l9.8-.2-.2 7.4h-9.5z"/><path class="st53" d="M-578.9 1039h30l13.7 25.6H-574z"/><path class="st77" d="M-574 1064.6l-2.5 66.5 36.8-2 4.5-64.5z"/><path class="st78" d="M-578.9 1039l-4.6 62.2 7 29.9 2.5-66.5z"/><path class="st78" d="M-535.2 1064.6l-4.5 64.5-36.8 2 .1-2.7 34.9-1.9 4.6-61.9z"/><path class="st79" d="M-571.4 1066.5l-2.6 60.8 5.2-46.9 30-8.4.9-6.5z"/><path class="st78" d="M-550.9 1076.5h10.5l-.6 1.3-9.9-.6zM-550.9 1079.3h10.5l-.6 1.3-9.9-.7zM-550.9 1082h10.5l-.6 1.3-9.9-.6zM-550.9 1084.8h10.5l-.6 1.3-9.9-.7zM-550.9 1087.5h10.5l-.6 1.3-9.9-.6z"/><path class="st65" d="M-761.3 1062.6l2.8 68.5h73.3V1039l-3.5 88.3h-66.5z"/><path class="st62" d="M-615.5 1017.6l11.5-7.3 18 2.6v17.3l-10.2 30.8-11.1 33.6-11.1 1.8c-2.9-1.5-5.8-3-8.6-4.5 1.9-12.4 3.8-24.9 5.7-37.3 1.3-9.4 2.6-18.8 4-28.3l1.8-8.7z"/><path class="st80" d="M-586 1012.9l-15.2-5.7-4.7.4-13.4.6 1.8 18.1 11.6-11.6z"/><path class="st62" d="M-646.8 1014c-7.2 4.1-14.5 8.2-21.8 12.3v-17.8l18-.3c1.4 1.9 2.6 3.8 3.8 5.8zM-616.7 1027.5l-17.1-11.8 3.4-6.9 12.1 4.1z"/><path class="st0" d="M-612.4 1095.4v4.9l4.9 13.4-6.4.9 3.9-1.8-4.6.2-2.3-7.3-.7-6.4-.9-2.9z"/><path class="st41" d="M-692 948.4c.5-1.7.9-3.5 1.4-5.2-2.5-1.3-4.9-2.6-7.4-3.9l-4.2-2.7c-1.3.3-2.5.5-3.8.8-.9.8-1.9 1.6-2.8 2.4l-2.4 5.7c-.8 1.7-1.6 3.4-2.4 5-.5 6.3-.9 12.5-1.4 18.8l-1 17.9 5.7-1.2c3.1.3 6.1.5 9.2.8 1.1-9.2 2.2-18.3 3.3-27.5.9-1.9 1.8-3.8 2.8-5.7 0-1.1 0-2.2.1-3.3.9-.6 1.9-1.2 2.9-1.9zM-606.4 950.9l4.5-3 6 5.7c1.3 1 2.6 2.1 3.9 3.1.2 1.3.3 2.6.5 3.8-.5 1.1-.9 2.3-1.4 3.4-1.6 1.4-3.1 2.8-4.7 4.1-1.3 1.3-2.7 2.6-4 3.9-5.8 2.5-11.6 4.9-17.4 7.4l-16.6 6.7-.7-5.8c-1.2-2.8-2.5-5.6-3.7-8.4 8.3-4 16.6-8 25-11.9l4.5-4.5c1-.4 2.1-.7 3.1-1.1.4-1 .7-2.2 1-3.4z"/><path class="st49" d="M-607.3 954.4l.9-3.5 1.2-.3 3.3-2.7.9 6.9-5.5 5-7.6 2.5 4-5.3-.3-1.5z"/><g><path class="st53" d="M-505.1 973.1l-102.3 3.9 1.1-72.5h102.1z"/><path class="st74" d="M-539.6 974.1l5.8 17.7-1.5 5.4-25.8 2.5-11.7-8.5-.3-3.2 12.3 8.9 1.4-4.4-4.5-17.8.5-26.3 25.2-.9z"/><path class="st75" d="M-573.1 988l12.3 8.9 1.4-4.4-1.3-5.2zM-561.2 974.6l4.7 17.6 22.7-.4-5.8-17.7z"/><path class="st0" d="M-538.2 947.5l-22.7 2.2-2.5-1.3z"/><path class="st76" d="M-504.2 904.5L-607.4 977l1.1-72.5z"/><path class="st76" d="M-518.2 914.3l-1.1 52.5 8.3.9 1-57.9z"/><path class="st53" d="M-521.982 922.933l8.376-.64.182 2.393-8.375.64zM-521.48 928.628l8.375-.64.183 2.393-8.375.64zM-521.086 934.23l8.376-.64.183 2.394-8.376.64z"/></g><path class="st0" d="M-762 935.6c-6.9 1-13.8 2-20.8 3l17.1 20.7 1.5 6.1 23.8-3.1v-6.1l-12.8-13.8-8.8-6.8z"/><path class="st9" d="M-773.8 932.4c-.1.7-.2 1.4-.3 2-1.2.6-2.3 1.1-3.5 1.7.7 1.1 1.5 2.1 2.2 3.2.7.5 1.3 1.1 2 1.6-.2.7-.3 1.4-.5 2.1-1.4-.8-2.8-1.6-4.1-2.4-2.2-1.8-4.5-3.5-6.7-5.3l-.9-2.8 3.8-2.1h4.3c1.2.7 2.5 1.3 3.7 2z"/><path class="st82" d="M-691.8 987.3l6.6 9.6-41.6 2 4.6-9.6z"/><path class="st53" d="M-700.2 986c-.2-1.8-.4-3.5-.6-5.2-2-.4-4-.7-6-1.1-2.1.5-4.2 1-6.2 1.5l-3 6.1.3 1.8h6.7c2.9-1.1 5.9-2.1 8.8-3.1z"/><path class="st0" d="M-698 992.3l-2.9-4.2-3.9-1.2-6 1.6-4.4 3.8-.4 2.5 7.4.9 6.4-.3z"/><path class="st44" d="M-699.3 987.3l-3-6.7-3 .6v2.8l-2-1.3-2.2 1.3-.8 2.1-2-.5-1.8 1.3v1.2l-1.9-.8-1.1.8 1.1 4.2h2.2l.1-1.1 1.4 1.9 2.8-.8v-1.1l1.3 1.9 3-.8-.3-3h2.2l1.1 1.9 2.9-.6zM-639.6 972.5l-8.5-.7h-6.2l-3-1.2-3.8 5.3-1.2 4.7 1.6 1.8 2.2-4.9 2.4-1.1 1.8.1-.7 2.6.5 4.2 1.1 4.1 6.1 1.3 3-1.9 3.9-.4 4.7-2.4-.5-3.7z"/><path class="st83" d="M-651.5 975.2l-2.7 3.8.5 3.5 4.7 3.4h3.5l-2.1-1.6.4-1.7-2.6-3-.7-3.5z"/><path class="st11" d="M-650.1 978l-3.5 5.3 3.8-3.7zM-648.4 983.6l-2.6 2.6-.7.7 2.7-1z"/><path class="st45" d="M-644.9 871.9l1.5-1.6 4.8-.6.8 2.2zM-649.9 871.3l-1.5-1.6-4.8-.6-.8 2.2z"/><g><path class="st84" d="M26.3 1251c-.1.1 3.8 6.8 3.8 7.1.1.3 5.3 5.4 5.3 5.4l.5 6.4-7.9 2.9h-9.8l-8.3-4-2.5-8.9-2.7-3.7L6 1247l3.3-4.2c4.7 1.2 9.4 2.4 14.1 3.7.9 1.5 1.9 3 2.9 4.5zM-39.9 1251c.1.1-3.8 6.8-3.8 7.1-.1.3-5.3 5.4-5.3 5.4l-.5 6.4 7.9 2.9h9.8l8.3-4 2.5-8.9 2.7-3.7-1.2-9.1-3.3-4.2c-4.7 1.2-9.4 2.4-14.1 3.7-1.1 1.4-2 2.9-3 4.4z"/><path class="st85" d="M-38.2 1083.1l-2.4 9.5 2.4 5.3c-3.2 2-2.4 69.5-2.4 69.5l2.4 8.9 7.7 5.7 8.5-3.7 4.8-5.3 2.1-18.7 2.7-21.8 3.8-25.8-11.1-14.2-18.5-9.4z"/><path class="st86" d="M17.6 1086.4l1.1 11-1.1 3.7 1.1 5.7 5.7 59.8v12.2l-8.3 6.9-11.2-1.7-6.9-9.7-4-38.3-3-20.7-8.2-7.7-7.5-11-13.5-13.5z"/><path class="st87" d="M41 1049l-3.4-20.6-6.7-20.2-3.6-14.7-4.6 28.3c-1.5 16.1-3.1 32.3-4.6 48.4 5.3.9 10.5 1.9 15.8 2.8 1.6-3.9 3.3-7.8 4.9-11.7.8-4.1 1.5-8.2 2.2-12.3z"/><path class="st87" d="M24.8 1034.9l2.5-41.4-6.1-2.1-12.4-5.9-9.2-5.1-19.4 3.4-7.5 4.7-17.3 10.5 2.7 10.1 4.2 20.2c.5 8.3 1 16.6 1.5 25-.7 9.9-1.4 19.8-2 29.7 4.2 2.1 8.4 4.3 12.7 6.4 10.7 1.1 21.5 2.2 32.2 3.3 3.2-.4 6.4-.8 9.6-1.3.4-1.7.9-3.4 1.3-5.1 2.3-8.7 4.6-17.3 6.9-26l.3-26.4z"/><path class="st88" d="M-.5 970.1c.2 7.7.3 15.4.5 23.1-1.1 2.7-2.2 5.3-3.4 8-3 .1-6 .3-9 .4-2.1-2-4.2-4.1-6.3-6.1l-3.6-18.9c7.3-2.1 14.5-4.3 21.8-6.5z"/><path class="st89" d="M.3 960.7l-.7-10.5-3.7-11.9-3.9-3-3.3-.7 1.4.9-4.4-.9v-1.7l-4.7 2.4-.9-1.8-5.8 5.6.5-3.3-3.2 3.6-2.1 6.4.5 7.6 3.4 12.4s16.4 2.4 16.7 2.5S.3 960.7.3 960.7z"/><path class="st90" d="M-2.8 952.2l-5.9-7.5-5.7 4.9-8.5 2.6-3.9 4V969l2.1 7.8 6.4 5.9 3.5 2.8h7.7l4.3-5.4 4.3-5v-10l-2.3-8.9z"/><path class="st90" d="M0 961.3l1.7-3.1 3.2 1-.6 6.3-1.9 4-2.4 1.1-2-5.3zM-25.2 966.3l-4.1-3.6-1.7 2.9 1.3 4.8 2.9 2.7 3.4 1.7z"/><path class="st89" d="M-3.6 947.6c.1.3-5.9 7.9-5.9 7.9l-11.7 5.1-6.9-2.5s-1-5.9-.6-5.8c.4.1 16.9-11.4 17.1-11.3.2.1 6.7 2.3 6.8 2.5.2.3 1.2 4.1 1.2 4.1zM-1.2 962.3l-2.4-1.2-4.1 2.5-.7 2.8 1.3-1.3zM-17 964.4l1.4 2-8.2-1 1.1-1.7zM-7.1 975.5c.8 0 1.5-.1 2.3-.1.7.9 1.3 1.8 2 2.6l4.3-2.9-2.7 7.8-3.6 4.9-3.6 2v-1.5l-1.1 1.5-6.7-1.3-4.9-4.2-3.7-7.6 5.7 3.5 1.5-3.2c1-.1 2.1-.2 3.1-.3 1.3.1 2.5.1 3.8.2 1.2-.4 2.4-.9 3.6-1.4z"/><path class="st90" d="M-5.4 977c-1.2.4-2.3.8-3.5 1.2l-1.6-.4-1.1.8h-4.5c.3 1.2.7 2.4 1 3.6 1.3.5 2.5 1 3.8 1.5 1.1-.1 2.3-.2 3.4-.3.8-.7 1.6-1.4 2.4-2.2 0-1.3 0-2.7.1-4.2z"/><path class="st87" d="M-32.2 1043.3l-1.9-29.2-10.5-15.1-5.5 38.5-4.8 30.3c6.6 2.9 13.1 5.9 19.7 8.8 2.9-5.3 5.9-10.6 8.8-15.9-3.2-2.4-6.4-4.7-9.6-7.1 1.3-3.5 2.6-6.9 3.8-10.3z"/><path class="st91" d="M23.6 1031c-.2-.8-.4-1.6-.5-2.4-18.2 3.2-36.4 6.4-54.6 9.7.2.9.4 1.9.5 2.8 1.8 9.5 3.6 18.9 5.3 28.4 16.7-2.7 33.4-5.4 50-8.2l-.7-30.3z"/><path class="st90" d="M26.1 1050.8c-.6-1.2-1.2-2.5-1.8-3.7-1.3-.3-2.5-.7-3.8-1-2.2.6-4.3 1.2-6.5 1.9-.1.7-.1 1.3-.2 2l1.9.9 4.5-.6c1.1.2 2.1.4 3.2.6l-.1 1.6H20c-1.3.1-2.6.2-3.8.3-1 .4-2 .7-3.1 1.1.1.7.1 1.5.2 2.2l1.2 1.5c.1.8.2 1.7.3 2.5.5.4 1 .9 1.5 1.3.4.7.9 1.4 1.3 2.1 2.2.2 4.5.3 6.7.5.4-.5.9-1 1.3-1.5.2-1 .3-1.9.5-2.9v-8.8z"/><path class="st92" d="M20 1005.1l-1.3 21.6 2.4-13.1zM-34 1014.1l-2 30.8v10.4l3.8-27z"/><path class="st93" d="M.3 960.7l-1.3 2.5h-.6l-7.8 3.3c-.2.3-.5.7-.7 1l-3.3.3c-.3-.4-.6-.7-.9-1.1-3.3-.5-6.7-1.1-10-1.6l-.7.7-1.8-1.5v.8c.4.6.8 1.2 1.2 1.7.3 1.2.6 2.3 1 3.5 1.3.9 2.6 1.7 3.9 2.6 2.1-.1 4.2-.2 6.4-.2l1.5-3.3c.4-.2.7-.4 1.1-.6.6.1 1.1.3 1.7.4.5 1 1 1.9 1.5 2.9 1.9-.2 3.8-.3 5.7-.5 1.2-1.5 2.5-3 3.7-4.5l-.9-3.6c.1-.6.2-1.1.3-1.7v-1.1z"/><path class="st94" d="M-.6 964.1l-1.1-.4-7.4 3.3-.4 1.3 1.1 3 5.2-.3 3.5-4.2zM-14.8 967.3l1.1 1.4-1.1 3.2-5.9.5-3.4-2.5-.6-3.1.6-1z"/><path class="st88" d="M-8.5 972l-.4 3.1-.6-3.3z"/><path class="st0" d="M-6 1001.4l6-21.5 5.7 3.9-.6 22.7-11.1-5.1zM-21 984.3l8.6 17.4s-9.5 6-9.5 5.9-4.9-19.6-4.9-19.6l5.8-3.7z"/><path class="st92" d="M-6 1001.4l8.5 6.2 2.6-1.1zM-12.4 1001.7l-9.5 5.9 2.3-.4z"/><path class="st95" d="M23.6 1031l-54.6 10c2 8.9 4 17.9 6 26.8 16.2-12.2 32.4-24.5 48.6-36.8z"/><path class="st86" d="M24.4 1176.2l1.8 14.2 1.2 40.6c0 6.8-.1 13.6-.1 20.4-.9-.6-1.9-1.2-2.8-1.8-2.4-.3-4.7-.6-7.1-.8-3.1 1.2-6.2 2.3-9.3 3.5-1-2-1.9-4.1-2.9-6.1l-3.6-48.9-1.9-23.2 6.1-6.5 18.6 8.6z"/><path class="st85" d="M-40.6 1164.5v76.6c0 3.3.1 6.6.1 9.9 1.1-.9 2.2-1.9 3.3-2.8 3.6-.5 7.2-1 10.7-1.5 1.7 2 3.3 3.9 5 5.9 1.2-1.3 2.3-2.5 3.5-3.8.2-9.7.5-19.3.7-29l1-29.3-1-20.1-9.2-9.2-14.1 3.3z"/><path class="st90" d="M-30.7 1058.4l1.2-3.9c1.2-.5 2.4-1.1 3.6-1.6 2.2.3 4.5.6 6.7.9.2.6.3 1.3.5 1.9l-1.8 1.2H-25c-1 .4-2.1.7-3.1 1.1l.4 1.5 3.3-.5c1.3-.1 2.6-.2 3.8-.3 1.1.2 2.1.4 3.2.6.1.7.1 1.5.2 2.2-.3.6-.6 1.1-1 1.7 0 .8.1 1.7.1 2.5-.4.5-.8 1-1.3 1.5-.3.8-.6 1.5-1 2.3-2.2.5-4.4 1-6.5 1.5-.5-.4-1-.8-1.5-1.3-.3-.9-.6-1.9-.9-2.8-.4-2.7-.9-5.6-1.4-8.5z"/><path class="st90" d="M-30.7 1058.4l-2.8 3.6-1.4 5.9 3.4 4 4.6-.8-1.5-1.3z"/><path class="st92" d="M-32.2 1060.3l-3.8-1.9-9.9-1 7.7-1.5zM-47.7 1055l8.7-1.6-4.4-1.7zM27.4 1049.4l5.3 1.5 2.5 5-.7-7.8zM31.3 1047.2l-5.2.9 1.3-17.1.7 15.1zM21.1 1064v6.7l-4.8-3.4-31.6 3.4-7 3.8h-9.9l.7-2.6 11.2-2.3.9-2.3 36.3-4.8.7 1z"/><path class="st96" d="M35.9 1269.9l-.2-2.7-7.8 2.7h-9.3l-7.2-3.6-2.7-7.3-3.8-4.4-.2 1.6 2.7 3.7 2.5 8.9 8.3 4H28zM-18.4 1256.2l-.2-1.6-3.6 4.8-3.1 8-7.1 2.9h-8.8l-8.1-2.9-.2 2.5 7.9 2.9h9.8l8.2-4 2.5-8.9z"/><path class="st0" d="M24.5 1249.5l2.9 9.4h-9.2l-4.7-8.8 3.9-1.4zM-26.4 1246.6l-4.4 11.2-3.1 4.2-8.3-2 5.7-7.6.8-4.5z"/></g><g class="st97"><path class="st0" d="M-270.4 926.6c-15.1 0-27.4-12.3-27.4-27.4s12.3-27.4 27.4-27.4c15.1 0 27.4 12.3 27.4 27.4s-12.3 27.4-27.4 27.4zm0-51.9c-13.5 0-24.5 11-24.5 24.5s11 24.5 24.5 24.5 24.5-11 24.5-24.5-10.9-24.5-24.5-24.5z"/></g><g><path class="st0" d="M-238.5 900.8v.4c0 .2-.1.8-.2 1.3-.3 1.1-1.1 2.6-2.7 4-1.5 1.4-3.6 2.7-6.2 3.8-2.6 1.1-5.6 2-9 2.7-6.8 1.3-14.9 1.8-23.4.6-4.3-.6-8.6-1.6-12.8-3.4-2.1-.9-4.1-2-5.9-3.5-.9-.8-1.7-1.6-2.3-2.6-.6-1-1-2.2-1-3.4 0-.6.1-1.2.3-1.7.2-.6.4-1.1.7-1.6.6-1 1.4-1.9 2.3-2.6 1.8-1.5 3.8-2.6 5.9-3.5 4.2-1.8 8.5-2.7 12.8-3.3 8.5-1.1 16.6-.6 23.3.7 3.4.7 6.4 1.6 8.9 2.7 2.6 1.1 4.6 2.4 6.1 3.8s2.2 2.8 2.5 3.8c.1.5.2.9.2 1.2v.4l.5.2zm-.5 0v-.4c0-.3-.1-.7-.2-1.2-.3-1-1.1-2.5-2.5-3.8-1.5-1.4-3.5-2.7-6.1-3.7-2.6-1.1-5.6-2-8.9-2.7-6.7-1.3-14.8-1.7-23.2-.6-4.2.6-8.6 1.6-12.7 3.3-2 .9-4 2-5.7 3.4-1.7 1.4-3.1 3.4-3.1 5.7 0 1.1.4 2.2.9 3.1.6.9 1.3 1.8 2.2 2.5 1.7 1.5 3.7 2.5 5.7 3.4 4.1 1.7 8.4 2.7 12.7 3.3 8.4 1.1 16.5.6 23.1-.7 3.3-.7 6.3-1.6 8.8-2.7 2.5-1.1 4.6-2.4 6-3.7 1.4-1.3 2.1-2.7 2.4-3.6.1-.5.2-.8.2-1.1v-.4l.4-.1z"/></g><g><path class="st0" d="M-271.4 867.4h.4c.2 0 .8.1 1.3.2 1.1.3 2.6 1.1 4 2.7 1.4 1.5 2.7 3.6 3.8 6.2 1.1 2.6 2 5.6 2.7 9 1.3 6.8 1.8 14.9.6 23.4-.6 4.3-1.6 8.6-3.4 12.8-.9 2.1-2 4.1-3.5 5.9-.8.9-1.6 1.7-2.6 2.3-1 .6-2.2 1-3.4 1-.6 0-1.2-.1-1.7-.3-.6-.2-1.1-.4-1.6-.7-1-.6-1.9-1.4-2.6-2.3-1.5-1.8-2.6-3.8-3.5-5.9-1.8-4.2-2.7-8.5-3.3-12.8-1.1-8.5-.6-16.6.7-23.3.7-3.4 1.6-6.4 2.7-8.9 1.1-2.6 2.4-4.6 3.8-6.1s2.8-2.2 3.8-2.5c.5-.1.9-.2 1.2-.2h.4l.2-.5zm-.1.4h-.4c-.3 0-.7.1-1.2.2-1 .3-2.5 1.1-3.8 2.5-1.4 1.5-2.7 3.5-3.7 6.1-1.1 2.6-2 5.6-2.7 8.9-1.3 6.7-1.7 14.8-.6 23.2.6 4.2 1.6 8.6 3.3 12.7.9 2 2 4 3.4 5.7 1.4 1.7 3.4 3.1 5.7 3.1 1.1 0 2.2-.4 3.1-.9.9-.6 1.8-1.3 2.5-2.2 1.5-1.7 2.5-3.7 3.4-5.7 1.7-4.1 2.7-8.4 3.3-12.7 1.1-8.4.6-16.5-.7-23.1-.7-3.3-1.6-6.3-2.7-8.8-1.1-2.5-2.4-4.6-3.7-6-1.3-1.4-2.7-2.1-3.6-2.4-.5-.1-.8-.2-1.1-.2h-.4l-.1-.4z"/></g><g class="st98"><circle class="st0" cx="-270.6" cy="899.3" r="19.6"/></g><g class="st97"><path class="st0" d="M-226.7 852.8c-14.8 0-26.8-12-26.8-26.8s12-26.8 26.8-26.8 26.8 12 26.8 26.8-12.1 26.8-26.8 26.8zm0-50.8c-13.2 0-24 10.8-24 24s10.8 24 24 24 24-10.8 24-24-10.8-24-24-24z"/></g><g><path class="st0" d="M-195.6 827.6v.4c0 .2-.1.7-.2 1.3-.3 1.1-1.1 2.6-2.6 3.9-1.5 1.4-3.6 2.7-6.1 3.8-2.5 1.1-5.5 2-8.8 2.7-6.6 1.3-14.6 1.7-22.9.6-4.2-.6-8.4-1.6-12.5-3.3-2-.9-4-2-5.7-3.4-.9-.7-1.6-1.6-2.2-2.6-.6-1-1-2.1-1-3.3 0-1.1.4-2.3 1-3.3s1.4-1.8 2.2-2.6c1.7-1.5 3.7-2.5 5.7-3.4 4.1-1.7 8.4-2.7 12.5-3.2 8.3-1.1 16.2-.6 22.8.7 3.3.7 6.2 1.6 8.7 2.7 2.5 1.1 4.5 2.4 6 3.7 1.4 1.3 2.2 2.7 2.5 3.7.1.5.2.9.2 1.2v.4h.4zm-.4 0v-.4c0-.3-.1-.7-.2-1.2-.3-1-1-2.4-2.5-3.7-1.4-1.3-3.5-2.6-6-3.7s-5.4-2-8.7-2.6c-6.6-1.3-14.5-1.7-22.7-.6-4.1.6-8.4 1.6-12.4 3.3-2 .9-4 1.9-5.6 3.4-.8.7-1.6 1.5-2.1 2.5-.6.9-.9 2-.9 3.1 0 2.2 1.4 4.1 3.1 5.5 1.7 1.4 3.6 2.5 5.6 3.3 4 1.7 8.3 2.6 12.4 3.2 8.3 1.1 16.1.6 22.7-.7 3.3-.7 6.2-1.6 8.6-2.7 2.5-1.1 4.5-2.3 5.8-3.6 1.4-1.3 2.1-2.6 2.3-3.5.1-.5.2-.8.2-1.1v-.4l.4-.1z"/></g><g><path class="st0" d="M-227.8 794.8h.4c.2 0 .7.1 1.3.2 1.1.3 2.6 1.1 3.9 2.6 1.4 1.5 2.7 3.6 3.8 6.1 1.1 2.5 2 5.5 2.7 8.8 1.3 6.6 1.7 14.6.6 22.9-.6 4.2-1.6 8.4-3.3 12.5-.9 2-2 4-3.4 5.7-.7.9-1.6 1.6-2.6 2.2-1 .6-2.1 1-3.3 1-1.1 0-2.3-.4-3.3-1s-1.8-1.4-2.6-2.2c-1.5-1.7-2.5-3.7-3.4-5.7-1.7-4.1-2.7-8.4-3.2-12.5-1.1-8.3-.6-16.2.7-22.8.7-3.3 1.6-6.2 2.7-8.7 1.1-2.5 2.4-4.5 3.7-6 1.3-1.4 2.7-2.2 3.7-2.5.5-.1.9-.2 1.2-.2h.4v-.4zm0 .5h-.4c-.3 0-.7.1-1.2.2-1 .3-2.4 1-3.7 2.5-1.3 1.4-2.6 3.5-3.7 6s-2 5.4-2.6 8.7c-1.3 6.6-1.7 14.5-.6 22.7.6 4.1 1.6 8.4 3.3 12.4.9 2 1.9 4 3.4 5.6.7.8 1.5 1.6 2.5 2.1.9.6 2 .9 3.1.9 2.2 0 4.1-1.4 5.5-3.1 1.4-1.7 2.5-3.6 3.3-5.6 1.7-4 2.6-8.3 3.2-12.4 1.1-8.3.6-16.1-.7-22.7-.7-3.3-1.6-6.2-2.7-8.6-1.1-2.5-2.3-4.5-3.6-5.8-1.3-1.4-2.6-2.1-3.5-2.3-.5-.1-.8-.2-1.1-.2h-.4l-.1-.4z"/></g><g class="st98"><circle class="st0" cx="-226.9" cy="826.1" r="19.2"/></g><g><path class="st99" d="M-232.2 823.3c-1.2-3.6 1.4-7.4 5.1-7.6h.6c3.8.2 6.3 4 5.1 7.6l-1.8 5.6c-.2.6-.3 1.3-.5 1.9-.3 1.5-1.6 2.6-3.2 2.6s-2.9-1.1-3.2-2.6c-.1-.6-.3-1.3-.5-1.9l-1.6-5.6z"/><path class="st0" d="M-226.7 834c-1.8 0-3.4-1.3-3.8-3.1-.1-.6-.2-1.2-.4-1.8l-1.8-5.6c-.6-1.9-.3-4 .9-5.7 1.1-1.6 2.9-2.6 4.8-2.7h.7c1.9.1 3.7 1.1 4.8 2.7 1.2 1.7 1.5 3.8.9 5.7l-1.8 5.6c-.2.6-.3 1.3-.4 1.8-.5 1.8-2.1 3.1-3.9 3.1zm0-17.7h-.3c-1.6.1-3 .9-3.9 2.2-.9 1.4-1.2 3.1-.7 4.7l1.8 5.6c.2.7.4 1.4.5 2 .3 1.2 1.4 2.1 2.6 2.1 1.3 0 2.4-.9 2.6-2.1.1-.6.3-1.3.5-2l1.8-5.6c.5-1.6.3-3.3-.7-4.7-.9-1.3-2.3-2.1-3.9-2.2h-.3z"/><path class="st99" d="M-223.6 831.5h-6.3c-.7 0-1.2-.5-1.2-1.2s.5-1.2 1.2-1.2h6.3c.7 0 1.2.5 1.2 1.2 0 .6-.5 1.2-1.2 1.2z"/><path class="st0" d="M-223.6 832.1h-6.3c-1 0-1.8-.8-1.8-1.8s.8-1.8 1.8-1.8h6.3c1 0 1.8.8 1.8 1.8s-.8 1.8-1.8 1.8zm-6.3-2.4c-.3 0-.6.3-.6.6s.3.6.6.6h6.3c.3 0 .6-.3.6-.6s-.3-.6-.6-.6h-6.3z"/><path class="st99" d="M-223.6 833.9h-6.3c-.7 0-1.2-.5-1.2-1.2s.5-1.2 1.2-1.2h6.3c.7 0 1.2.5 1.2 1.2 0 .6-.5 1.2-1.2 1.2z"/><path class="st0" d="M-223.6 834.5h-6.3c-1 0-1.8-.8-1.8-1.8s.8-1.8 1.8-1.8h6.3c1 0 1.8.8 1.8 1.8s-.8 1.8-1.8 1.8zm-6.3-2.4c-.3 0-.6.3-.6.6s.3.6.6.6h6.3c.3 0 .6-.3.6-.6s-.3-.6-.6-.6h-6.3z"/><path class="st99" d="M-223.6 836.3h-6.3c-.7 0-1.2-.5-1.2-1.2s.5-1.2 1.2-1.2h6.3c.7 0 1.2.5 1.2 1.2 0 .6-.5 1.2-1.2 1.2z"/><path class="st0" d="M-223.6 836.9h-6.3c-1 0-1.8-.8-1.8-1.8s.8-1.8 1.8-1.8h6.3c1 0 1.8.8 1.8 1.8s-.8 1.8-1.8 1.8zm-6.3-2.4c-.3 0-.6.3-.6.6s.3.6.6.6h6.3c.3 0 .6-.3.6-.6s-.3-.6-.6-.6h-6.3z"/><g><path class="st0" d="M-225.5 837.6h-2.6c-.6 0-1.1-.5-1.1-1.1 0-.6.5-1.1 1.1-1.1h2.6c.6 0 1.1.5 1.1 1.1 0 .6-.5 1.1-1.1 1.1z"/></g><g><path class="st100" d="M-224.7 822.9l-1 6"/><path class="st0" d="M-225.267 822.74l1.182.207-1.05 6.01-1.18-.208z"/></g><g><path class="st100" d="M-227.4 828.7l-1.2-5.8"/><path class="st0" d="M-228.095 822.71l1.27 5.866-1.173.254-1.27-5.865z"/></g></g><g><circle class="st99" cx="-271.2" cy="899.7" r="10.1"/></g><g><path class="st0" d="M-284.5 900.7v-2.3c0-.8.6-1.4 1.4-1.4 1.2-5.6 6.2-9.8 12.1-9.8 6.8 0 12.2 5.6 12.2 12.4 0 6.8-5.6 12.2-12.4 12.2-5.9 0-10.7-4.2-11.9-9.7-.8.1-1.4-.6-1.4-1.4zm13.3 8.2c5.1 0 9.3-4.1 9.4-9.2 0-5.1-4.1-9.3-9.2-9.4-5.1 0-9.3 4.1-9.4 9.2-.1 5.2 4.1 9.3 9.2 9.4z"/><path class="st0" d="M-277.4 899.7c0 .3-.3.6-.6.6h-1.3c-.3 0-.6-.3-.6-.6s.3-.6.6-.6h1.3c.4 0 .6.3.6.6zM-264.3 899.2h1.3c.3 0 .6.3.6.6s-.3.6-.6.6h-1.3c-.3 0-.6-.3-.6-.6 0-.4.3-.6.6-.6zM-276.4 904.1c.2-.2.6-.2.8 0 .2.2.2.6 0 .8l-.9.9c-.2.2-.6.2-.8 0-.2-.2-.2-.6 0-.8l.9-.9zM-265.9 895.3c-.2.2-.6.2-.8 0-.2-.2-.2-.6 0-.8l.9-.9c.2-.2.6-.2.8 0 .2.2.2.6 0 .8l-.9.9zM-271.2 905.9c.3 0 .6.3.6.6v1.3c0 .3-.3.6-.6.6s-.6-.3-.6-.6v-1.3c.1-.3.3-.6.6-.6zM-271.1 893.5c-.3 0-.6-.3-.6-.6v-1.3c0-.3.3-.6.6-.6s.6.3.6.6v1.3c0 .3-.3.6-.6.6z"/><circle class="st0" cx="-271.2" cy="899.8" r=".9"/><path class="st0" d="M-271.7 898.2c-.3.1-.7 0-.9-.4l-1.6-3.8c-.1-.3 0-.7.4-.9.3-.1.7 0 .9.4l1.6 3.8c.1.3 0 .7-.4.9zM-273.4 900.9c.2-.2.6-.2.9 0l.2.2c.2.2.2.6 0 .9l-1.7 1.7c-.2.2-.6.2-.9 0l-.2-.2c-.2-.2-.2-.6 0-.9l1.7-1.7zM-276.3 895.3l-.9-.9c-.2-.2-.2-.6 0-.8.2-.2.6-.2.8 0l.9.9c.2.2.2.6 0 .8-.2.2-.6.2-.8 0zM-266 904.2l.9.9c.2.2.2.6 0 .8-.2.2-.6.2-.8 0l-.9-.9c-.2-.2-.2-.6 0-.8.3-.3.6-.3.8 0z"/></g><g><path class="st101" d="M-290.5 888.3c-18.2-11.2-29.1-29.2-25.3-41.7 1.8-6.1 7.5-11.8 15.4-15.5 14-6.5 32.5-6.1 49.5 1.1l-.5 1.2c-16.6-7.1-34.7-7.5-48.4-1.1-7.6 3.6-13 8.9-14.7 14.7-3.6 12 7 29.3 24.7 40.3l-.7 1z"/></g><g><path class="st0" d="M-141.3 888.5c-14.8 0-26.8-12-26.8-26.8s12-26.8 26.8-26.8 26.8 12 26.8 26.8-12 26.8-26.8 26.8zm0-50.8c-13.2 0-24 10.8-24 24s10.8 24 24 24 24-10.8 24-24c.1-13.2-10.7-24-24-24z"/><path class="st0" d="M-110.1 863.3v.4c0 .2-.1.7-.2 1.3-.3 1.1-1.1 2.6-2.6 3.9-1.5 1.4-3.6 2.7-6.1 3.8-2.5 1.1-5.5 2-8.8 2.7-6.6 1.3-14.6 1.7-22.9.6-4.2-.6-8.4-1.6-12.5-3.3-2-.9-4-2-5.7-3.4-.9-.7-1.6-1.6-2.2-2.6-.6-1-1-2.1-1-3.3 0-1.1.4-2.3 1-3.3s1.4-1.8 2.2-2.6c1.7-1.5 3.7-2.5 5.7-3.4 4.1-1.7 8.4-2.7 12.5-3.2 8.3-1.1 16.2-.6 22.8.7 3.3.7 6.2 1.6 8.7 2.7 2.5 1.1 4.5 2.4 6 3.7 1.4 1.3 2.2 2.7 2.5 3.7.1.5.2.9.2 1.2v.4h.4zm-.4 0v-.4c0-.3-.1-.7-.2-1.2-.3-1-1-2.4-2.5-3.7-1.4-1.3-3.5-2.6-6-3.7s-5.4-2-8.7-2.6c-6.6-1.3-14.5-1.7-22.7-.6-4.1.6-8.4 1.6-12.4 3.3-2 .9-4 1.9-5.6 3.4-.8.7-1.6 1.5-2.1 2.5-.6.9-.9 2-.9 3.1 0 2.2 1.4 4.1 3.1 5.5 1.7 1.4 3.6 2.5 5.6 3.3 4 1.7 8.3 2.6 12.4 3.2 8.3 1.1 16.1.6 22.7-.7 3.3-.7 6.2-1.6 8.6-2.7 2.5-1.1 4.5-2.3 5.8-3.6 1.4-1.3 2.1-2.6 2.3-3.5.1-.5.2-.8.2-1.1v-.4l.4-.1z"/><path class="st0" d="M-142.3 830.5h.4c.2 0 .7.1 1.3.2 1.1.3 2.6 1.1 3.9 2.6 1.4 1.5 2.7 3.6 3.8 6.1 1.1 2.5 2 5.5 2.7 8.8 1.3 6.6 1.7 14.6.6 22.9-.6 4.2-1.6 8.4-3.3 12.5-.9 2-2 4-3.4 5.7-.7.9-1.6 1.6-2.6 2.2-1 .6-2.1 1-3.3 1-1.1 0-2.3-.4-3.3-1s-1.8-1.4-2.6-2.2c-1.5-1.7-2.5-3.7-3.4-5.7-1.7-4.1-2.7-8.4-3.2-12.5-1.1-8.3-.6-16.2.7-22.8.7-3.3 1.6-6.2 2.7-8.7 1.1-2.5 2.4-4.5 3.7-6 1.3-1.4 2.7-2.2 3.7-2.5.5-.1.9-.2 1.2-.2h.4v-.4zm0 .5h-.4c-.3 0-.7.1-1.2.2-1 .3-2.4 1-3.7 2.5-1.3 1.4-2.6 3.5-3.7 6s-2 5.4-2.6 8.7c-1.3 6.6-1.7 14.5-.6 22.7.6 4.1 1.6 8.4 3.3 12.4.9 2 1.9 4 3.4 5.6.7.8 1.5 1.6 2.5 2.1.9.6 2 .9 3.1.9 2.2 0 4.1-1.4 5.5-3.1 1.4-1.7 2.5-3.6 3.3-5.6 1.7-4 2.6-8.3 3.2-12.4 1.1-8.3.6-16.1-.7-22.7-.7-3.3-1.6-6.2-2.7-8.6-1.1-2.5-2.3-4.5-3.6-5.8-1.3-1.4-2.6-2.1-3.5-2.3-.5-.1-.8-.2-1.1-.2h-.4l-.1-.4z"/><circle class="st98 st0" cx="-141.5" cy="861.8" r="19.2"/><path class="st0" d="M-146.4 867h-6.3c-.8 0-1.4-.5-1.4-1.2v-6.6c0-.7.6-1.2 1.4-1.2h6.3c.8 0 1.4.5 1.4 1.2s-.6 1.2-1.4 1.2h-4.3c-.3 0-.4.1-.4.2v3.7c0 .1.2.2.4.2h4.3c.8 0 1.4.5 1.4 1.2s-.6 1.3-1.4 1.3zm-6.4-8.1c-.3 0-.4.1-.4.2v6.6c0 .1.2.2.4.2h6.3c.3 0 .4-.1.4-.2s-.2-.2-.4-.2h-4.3c-.8 0-1.4-.5-1.4-1.2v-3.7c0-.7.6-1.2 1.4-1.2h4.3c.3 0 .4-.1.4-.2s-.2-.3-.4-.3h-6.3z"/><path class="st99" d="M-137.5 869.4h-9.4c-.7 0-1.3-.6-1.3-1.3v-10.7c0-.7.6-1.3 1.3-1.3h9.4c.7 0 1.3.6 1.3 1.3v10.7c0 .7-.6 1.3-1.3 1.3z"/><path class="st0" d="M-137.5 869.9h-9.4c-1 0-1.8-.8-1.8-1.8v-10.7c0-1 .8-1.8 1.8-1.8h9.4c1 0 1.8.8 1.8 1.8v10.7c0 1-.8 1.8-1.8 1.8zm-9.4-13.4c-.5 0-.9.4-.9.9v10.7c0 .5.4.9.9.9h9.4c.5 0 .9-.4.9-.9v-10.7c0-.5-.4-.9-.9-.9h-9.4z"/><path class="st0" d="M-137.6 862.1c-.3 0-.5-.2-.5-.5v-5.3c0-.3.2-.5.5-.5s.5.2.5.5v5.3c0 .2-.2.5-.5.5zM-139 854.5c-.3 0-.5-.2-.5-.5v-7.3c0-.3.2-.5.5-.5s.5.2.5.5v7.3c0 .3-.2.5-.5.5zM-141.5 853.1c-.3 0-.5-.2-.5-.5v-7.3c0-.3.2-.5.5-.5s.5.2.5.5v7.3c0 .2-.3.5-.5.5z"/><g><path class="st99" d="M-131.6 872.2H-153c-.4 0-.7-.3-.7-.7 0-.4.3-.7.7-.7h21.4c.4 0 .7.3.7.7.1.4-.3.7-.7.7z"/><path class="st0" d="M-131.6 872.7H-153c-.7 0-1.2-.5-1.2-1.2s.5-1.2 1.2-1.2h21.4c.7 0 1.2.5 1.2 1.2s-.5 1.2-1.2 1.2zm-21.3-1.5c-.1 0-.2.1-.2.2s.1.2.2.2h21.4c.1 0 .2-.1.2-.2s-.1-.2-.2-.2h-21.4z"/></g></g><g><path class="st101" d="M-194 925.6c-20.8 0-41.8-9.6-57.2-27.1l1-.9c20.4 23.2 50.8 32.3 77.3 23.1 24.1-8.3 35.7-28.6 39.6-37l1.2.6c-3.9 8.5-15.8 29.2-40.4 37.7-7 2.5-14.2 3.6-21.5 3.6z"/></g></svg>