<?xml version="1.0" encoding="utf-8"?>
<!-- Generator: Adobe Illustrator 19.1.0, SVG Export Plug-In . SVG Version: 6.00 Build 0)  -->
<svg version="1.1" id="レイヤー_1" xmlns="http://www.w3.org/2000/svg" xmlns:xlink="http://www.w3.org/1999/xlink" x="0px"
	 y="0px" viewBox="0 0 878.8 219.1" style="enable-background:new 0 0 878.8 219.1;" xml:space="preserve">
<style type="text/css">
	.st0{opacity:0.26;}
	.st1{fill:#231F20;}
</style>
<g class="st0">
	<g>
		<path class="st1" d="M473.4,87.4l-0.1-10l-7.9,0c-0.4-2.3-1-4.6-1.8-6.7l6.8-4l-5-8.6l-6.8,4c-1.5-1.8-3.1-3.4-4.9-4.9l3.9-6.8
			l-8.7-4.9l-3.9,6.9c-2.1-0.8-4.4-1.4-6.7-1.7l0-7.9l-10,0.1l0,7.9c-2.3,0.4-4.6,1-6.7,1.8l-4-6.8l-8.6,5l4,6.8
			c-1.8,1.5-3.4,3.1-4.9,4.9l-6.9-3.9l-4.9,8.7l6.9,3.9c-0.8,2.1-1.4,4.4-1.7,6.7l-7.9,0l0.1,10l7.9,0c0.4,2.3,1,4.6,1.8,6.7l-6.8,4
			l5,8.6l6.8-4c1.5,1.8,3.1,3.4,4.9,4.9l-3.9,6.8l8.7,4.9l3.9-6.9c2.1,0.8,4.4,1.4,6.7,1.7l0,7.9l10-0.1l0-7.9
			c2.3-0.4,4.6-1,6.7-1.8l4,6.8l8.6-5l-4-6.8c1.8-1.5,3.4-3.1,4.9-4.9l6.8,3.9l4.9-8.7l-6.9-3.9c0.8-2.1,1.4-4.4,1.7-6.7L473.4,87.4
			L473.4,87.4z M433.6,105.1c-12.4,0.1-22.5-9.9-22.6-22.3c-0.1-12.4,9.9-22.5,22.3-22.6c12.4-0.1,22.5,9.9,22.6,22.3
			C456,94.9,446,105,433.6,105.1z"/>
		<g>
			<path class="st1" d="M249,75.5c-0.5,0.7-1,1.5-1.5,2.3l-3.5-1.1l-0.7-0.2l-0.2,0.7l-1.6,5.1l-0.2,0.7l0.7,0.2l3.5,1.1
				c-0.1,0.9-0.2,1.8-0.1,2.7l-3.6,0.8l-0.7,0.1l0.1,0.7l1.1,5.2l0.1,0.7l0.7-0.1l3.6-0.8c0.3,0.8,0.8,1.6,1.2,2.4l-2.7,2.5
				l-0.5,0.5l0.5,0.5l3.6,3.9l0.5,0.5l0.5-0.5l2.7-2.5c0.7,0.5,1.5,1,2.3,1.4l-1.1,3.5l-0.2,0.7l0.7,0.2l5.1,1.6l0.7,0.2l0.2-0.7
				l1.1-3.5c0.9,0.1,1.8,0.1,2.7,0.1l0.8,3.6l0.1,0.7l0.7-0.1l5.2-1.1l0.7-0.1l-0.1-0.7l-0.8-3.6c0.8-0.3,1.6-0.8,2.4-1.2l2.5,2.7
				l0.5,0.5l0.5-0.5l3.9-3.6l0.5-0.5l-0.5-0.5l-2.5-2.7c0.5-0.7,1-1.5,1.4-2.3l3.5,1.1l0.7,0.2l0.2-0.7l1.6-5.1l0.2-0.7l-0.7-0.2
				l-3.5-1.1c0.1-0.9,0.1-1.8,0.1-2.7L285,85l0.7-0.1l-0.1-0.7l-1.1-5.2l-0.1-0.7l-0.7,0.1l-3.6,0.8c-0.3-0.8-0.8-1.6-1.2-2.4
				l2.7-2.5L282,74l-0.5-0.5l-3.6-3.9l-0.5-0.5l-0.5,0.5l-2.7,2.5c-0.7-0.5-1.5-1-2.3-1.5l1.1-3.5l0.2-0.7l-0.7-0.2l-5.1-1.6
				l-0.7-0.2l-0.2,0.7l-1.1,3.5c-0.9-0.1-1.8-0.1-2.7-0.1l-0.8-3.6l-0.1-0.7l-0.7,0.1l-5.2,1.1l-0.7,0.1l0.1,0.7l0.8,3.6
				c-0.8,0.3-1.6,0.8-2.4,1.2l-2.5-2.7l-0.5-0.5l-0.5,0.5l-3.9,3.6l-0.5,0.5l0.5,0.5L249,75.5z M258.6,81c2.9-2.7,7.5-2.5,10.2,0.5
				c2.7,2.9,2.5,7.5-0.5,10.2c-2.9,2.7-7.5,2.5-10.2-0.5C255.4,88.3,255.6,83.7,258.6,81z"/>
		</g>
		<g>
			<path class="st1" d="M7.8,11.4c-0.5,0.7-1,1.5-1.5,2.3l-3.5-1.1l-0.7-0.2L2,13l-1.6,5.1l-0.2,0.7L0.9,19l3.5,1.1
				c-0.1,0.9-0.2,1.8-0.1,2.7l-3.6,0.8L0,23.7l0.1,0.7l1.1,5.2l0.1,0.7l0.7-0.1l3.6-0.8c0.3,0.8,0.8,1.6,1.2,2.4l-2.7,2.5l-0.5,0.5
				l0.5,0.5L7.8,39l0.5,0.5l0.5-0.5l2.7-2.5c0.7,0.5,1.5,1,2.3,1.4l-1.1,3.5l-0.2,0.7l0.7,0.2l5.1,1.6l0.7,0.2l0.2-0.7l1.1-3.5
				c0.9,0.1,1.8,0.1,2.7,0.1l0.8,3.6l0.1,0.7l0.7-0.1l5.2-1.1l0.7-0.1l-0.1-0.7l-0.8-3.6c0.8-0.3,1.6-0.8,2.4-1.2l2.5,2.7l0.5,0.5
				l0.5-0.5l3.9-3.6l0.5-0.5l-0.5-0.5L36.6,33c0.5-0.7,1-1.5,1.4-2.3l3.5,1.1l0.7,0.2l0.2-0.7l1.6-5.1l0.2-0.7l-0.7-0.2l-3.5-1.1
				c0.1-0.9,0.1-1.8,0.1-2.7l3.6-0.8l0.7-0.1l-0.1-0.7l-1.1-5.2L43,14.2l-0.7,0.1l-3.6,0.8c-0.3-0.8-0.8-1.6-1.2-2.4l2.7-2.5
				l0.5-0.5l-0.5-0.5l-3.6-3.9l-0.5-0.5l-0.5,0.5L33,7.8c-0.7-0.5-1.5-1-2.3-1.5l1.1-3.5l0.2-0.7L31.4,2l-5.1-1.6l-0.7-0.2l-0.2,0.7
				l-1.1,3.5c-0.9-0.1-1.8-0.1-2.7-0.1l-0.8-3.6L20.8,0l-0.7,0.1l-5.2,1.1l-0.7,0.1l0.1,0.7l0.8,3.6c-0.8,0.3-1.6,0.8-2.4,1.2
				l-2.5-2.7L9.9,3.7L9.4,4.2L5.4,7.8L4.9,8.2l0.5,0.5L7.8,11.4z M17.4,16.9c2.9-2.7,7.5-2.5,10.2,0.5c2.7,2.9,2.5,7.5-0.5,10.2
				c-2.9,2.7-7.5,2.5-10.2-0.5C14.2,24.2,14.4,19.6,17.4,16.9z"/>
		</g>
		<path class="st1" d="M765.1,123.7l-0.1-13.1l-13.7,0.1c-0.8-4-2.4-7.7-4.6-11l9.7-9.9l-9.3-9.2l-9.6,9.7c-3.5-2.4-7.6-4.1-11.9-5
			l-0.1-13.7l-13.1,0.1l0.1,13.7c-4.2,0.9-8,2.5-11.4,4.8l-9.4-9.3l-9.2,9.3l9.4,9.3c-2.3,3.4-3.9,7.3-4.7,11.5l-13.7,0.1l0.1,13.1
			l13.7-0.1c0.9,4.3,2.7,8.3,5.1,11.8l-9.6,9.7l9.3,9.2l9.7-9.9c3.3,2.1,7.1,3.7,11.1,4.5l0.1,13.7l13.1-0.1l-0.1-13.7
			c4.2-0.9,8-2.5,11.4-4.8l10.1,10l9.2-9.3l-10.1-10c2.3-3.4,3.9-7.3,4.7-11.5L765.1,123.7z M719.4,137.1
			c-10.8,0-19.6-8.7-19.7-19.5c0-10.8,8.7-19.6,19.5-19.7c10.8,0,19.6,8.7,19.7,19.5C738.9,128.2,730.2,137,719.4,137.1z"/>
		<path class="st1" d="M802.7,199.8l3.4-9.9l-10.4-3.6c0.4-3.2,0.2-6.5-0.5-9.5l10-4.8l-4.6-9.4l-9.8,4.8c-2-2.7-4.6-5.1-7.6-6.9
			l3.6-10.4l-9.9-3.4l-3.6,10.4c-3.4-0.5-6.7-0.2-9.9,0.6l-4.6-9.6l-9.4,4.6l4.6,9.6c-2.6,2-4.9,4.5-6.6,7.4l-10.4-3.6l-3.4,9.9
			l10.4,3.6c-0.5,3.5-0.2,7,0.7,10.3l-9.8,4.8l4.6,9.4l10-4.8c2,2.5,4.4,4.7,7.2,6.3l-3.6,10.4l9.9,3.4l3.6-10.4
			c3.4,0.5,6.7,0.2,9.9-0.6l5,10.2l9.4-4.6l-5-10.2c2.6-2,4.9-4.5,6.6-7.4L802.7,199.8z M764.7,197.6c-8.2-2.9-12.5-11.8-9.7-20
			c2.9-8.2,11.8-12.5,20-9.7c8.2,2.9,12.5,11.8,9.7,20C781.8,196.1,772.8,200.5,764.7,197.6z"/>
		<g>
			<path class="st1" d="M370.3,104.3l1,0.1l0.1-1l0.6-11.7l0.1-1l-1-0.1l-8-0.4c-0.4-1.6-0.9-3.2-1.7-4.7l5.9-5.3l0.7-0.7l-0.7-0.7
				l-7.8-8.7l-0.7-0.8l-0.7,0.7l-6,5.3c-1.4-0.8-2.8-1.5-4.3-2l0.4-7.9l0.1-1l-1-0.1l-11.7-0.6l-1-0.1l-0.1,1l-0.4,7.9
				c-1.5,0.4-2.9,0.8-4.2,1.5l-5.2-5.8l-0.7-0.8l-0.7,0.7l-8.7,7.8l-0.7,0.7l0.7,0.7l5.1,5.7c-0.9,1.4-1.6,2.9-2.2,4.4l-7.7-0.4
				l-1-0.1l-0.1,1L308,99.6l-0.1,1l1,0.1l7.6,0.4c0.4,1.7,1,3.4,1.8,5l-5.7,5.1l-0.7,0.7l0.7,0.7l7.8,8.7l0.7,0.7l0.7-0.7l5.8-5.2
				c1.4,0.8,2.9,1.5,4.4,2l-0.4,7.8l-0.1,1l1,0.1l11.7,0.6l1,0.1l0.1-1l0.4-8c1.4-0.4,2.8-0.9,4.1-1.5l5.3,6l0.7,0.7l0.7-0.7
				l8.7-7.8l0.7-0.7l-0.7-0.7l-5.3-5.9c0.8-1.3,1.5-2.7,2-4.2L370.3,104.3L370.3,104.3z M354.1,96.3c-0.4,7.9-7.2,13.9-15,13.5
				c-7.9-0.4-13.9-7.2-13.5-15c0.4-7.8,7.2-13.9,15-13.5C348.5,81.8,354.5,88.5,354.1,96.3z"/>
		</g>
		<g>
			<path class="st1" d="M877.1,156.3l1,0.1l0.1-1l0.6-11.7l0.1-1l-1-0.1l-8-0.4c-0.4-1.6-0.9-3.2-1.7-4.7l5.9-5.3l0.7-0.7l-0.7-0.7
				l-7.8-8.7l-0.7-0.8l-0.7,0.7l-6,5.3c-1.4-0.8-2.8-1.5-4.3-2l0.4-7.9l0.1-1l-1-0.1l-11.7-0.6l-1-0.1l-0.1,1l-0.4,7.9
				c-1.5,0.4-2.9,0.8-4.2,1.5l-5.2-5.8l-0.7-0.8L830,120l-8.7,7.8l-0.7,0.7l0.7,0.7l5.1,5.7c-0.9,1.4-1.6,2.9-2.2,4.4l-7.7-0.4
				l-1-0.1l-0.1,1l-0.6,11.7l-0.1,1l1,0.1l7.6,0.4c0.4,1.7,1,3.4,1.8,5l-5.7,5.1l-0.7,0.7l0.7,0.7l7.8,8.7l0.7,0.7l0.7-0.7l5.8-5.2
				c1.4,0.8,2.9,1.5,4.4,2l-0.4,7.8l-0.1,1l1,0.1l11.7,0.6l1,0.1l0.1-1l0.4-8c1.4-0.4,2.8-0.9,4.1-1.5l5.3,6l0.7,0.7l0.7-0.7
				l8.7-7.8l0.7-0.7l-0.7-0.7l-5.3-5.9c0.8-1.3,1.5-2.7,2-4.2L877.1,156.3L877.1,156.3z M860.8,148.4c-0.4,7.9-7.2,13.9-15,13.5
				c-7.9-0.4-13.9-7.2-13.5-15c0.4-7.8,7.2-13.9,15-13.5C855.2,133.8,861.3,140.5,860.8,148.4z"/>
		</g>
		<g>
			<path class="st1" d="M654.8,133.1l-1.3-21.1l-16.7,1c-1.1-4.9-2.6-9.5-4.7-13.9l13.9-9.3l-11.7-17.6l-13.9,9.2
				c-3.3-3.6-7-6.9-11-9.7l7.4-15l-18.9-9.4l-7.4,15c-4.6-1.5-9.4-2.4-14.4-2.9l-1-16.7l-21.1,1.3l1,16.7c-4.9,1.1-9.5,2.6-13.9,4.7
				l-9.3-13.9l-17.6,11.7l9.2,13.9c-3.6,3.3-6.9,7-9.7,11l-15-7.4l-9.4,18.9l15,7.4c-1.5,4.6-2.4,9.4-2.9,14.4l-16.7,1l1.3,21.1
				l16.7-1c1.1,4.9,2.6,9.5,4.7,13.9l-13.9,9.3l11.7,17.6l13.9-9.2c3.3,3.6,7,6.9,11,9.7l-7.4,15l18.9,9.4l7.4-15
				c4.6,1.5,9.4,2.4,14.4,2.9l1,16.7l21.1-1.3l-1.1-16.7c4.9-1.1,9.5-2.6,13.9-4.7l9.3,13.9l17.6-11.7l-9.3-13.9
				c3.6-3.3,6.9-7,9.7-11l15,7.4l9.4-18.9l-15-7.4c1.5-4.6,2.4-9.4,2.9-14.4L654.8,133.1L654.8,133.1z M572.7,175.4
				c-26.2,1.6-48.8-18.3-50.5-44.5c-1.6-26.2,18.3-48.8,44.5-50.5c26.2-1.6,48.8,18.3,50.5,44.5
				C618.8,151.1,598.9,173.7,572.7,175.4z"/>
			<path class="st1" d="M571.2,152c-13.3,0.8-24.8-9.3-25.6-22.6c-0.8-13.3,9.3-24.8,22.6-25.6c13.3-0.8,24.8,9.3,25.6,22.6
				C594.7,139.7,584.5,151.2,571.2,152z"/>
		</g>
		<g>
			<path class="st1" d="M228.4,124.6l-0.7-10.6l-8.4,0.5c-0.5-2.4-1.3-4.8-2.3-7l7-4.6l-5.9-8.8l-7,4.6c-1.7-1.8-3.5-3.5-5.5-4.9
				l3.7-7.5l-9.5-4.7l-3.7,7.5c-2.3-0.7-4.7-1.2-7.2-1.4l-0.5-8.4l-10.6,0.7l0.5,8.4c-2.4,0.5-4.8,1.3-7,2.3l-4.6-7l-8.8,5.9l4.6,7
				c-1.8,1.7-3.5,3.5-4.9,5.5l-7.5-3.7l-4.7,9.5l7.5,3.7c-0.7,2.3-1.2,4.7-1.4,7.2l-8.4,0.5l0.7,10.6l8.4-0.5c0.5,2.4,1.3,4.8,2.3,7
				l-7,4.6l5.9,8.8l7-4.6c1.7,1.8,3.5,3.5,5.5,4.9l-3.7,7.5l9.5,4.7l3.7-7.5c2.3,0.7,4.7,1.2,7.2,1.4l0.5,8.4l10.6-0.7l-0.5-8.4
				c2.4-0.5,4.8-1.3,7-2.3l4.6,7l8.8-5.9l-4.6-7c1.8-1.7,3.5-3.5,4.9-5.5l7.5,3.7l4.7-9.5l-7.5-3.7c0.7-2.3,1.2-4.7,1.4-7.2
				L228.4,124.6L228.4,124.6z M187.2,145.8c-13.1,0.8-24.5-9.2-25.3-22.3c-0.8-13.2,9.2-24.5,22.3-25.3c13.1-0.8,24.5,9.2,25.3,22.3
				C210.3,133.6,200.3,144.9,187.2,145.8z"/>
			<path class="st1" d="M259.6,181.1c-6.7,0.4-12.4-4.7-12.8-11.3c-0.4-6.7,4.7-12.4,11.3-12.9c6.7-0.4,12.4,4.7,12.9,11.3
				C271.4,174.9,266.3,180.7,259.6,181.1z"/>
		</g>
		<path class="st1" d="M143.5,107.6V92H127c-1-4.8-2.8-9.3-5.4-13.2L133.3,67l-11.1-11l-11.5,11.5c-4.2-2.9-9-5-14.2-6V45.1H80.9
			v16.4c-5,1-9.6,3-13.7,5.7L56,56L44.9,67l11.2,11.2c-2.7,4.1-4.7,8.7-5.7,13.7H34.1v15.6h16.4c1.1,5.2,3.1,10,6,14.2l-11.5,11.5
			L56,144.4l11.7-11.7c4,2.6,8.4,4.4,13.2,5.4v16.4h15.6v-16.4c5-1,9.6-3,13.7-5.7l12,12l11.1-11.1l-12-12c2.7-4.1,4.7-8.7,5.7-13.7
			H143.5z M88.8,123.2c-12.9,0-23.4-10.5-23.4-23.4c0-12.9,10.5-23.4,23.4-23.4c12.9,0,23.4,10.5,23.4,23.4
			C112.2,112.7,101.7,123.2,88.8,123.2z"/>
		<g>
			<path class="st1" d="M834.2,40.3c-0.5,0.7-1,1.5-1.5,2.3l-3.5-1.1l-0.7-0.2l-0.2,0.7l-1.6,5.1l-0.2,0.7l0.7,0.2l3.5,1.1
				c-0.1,0.9-0.2,1.8-0.1,2.7l-3.6,0.8l-0.7,0.1l0.1,0.7l1.1,5.2l0.1,0.7l0.7-0.1l3.6-0.8c0.3,0.8,0.8,1.6,1.2,2.4l-2.7,2.5
				l-0.5,0.5l0.5,0.5l3.6,3.9l0.5,0.5l0.5-0.5l2.7-2.5c0.7,0.5,1.5,1,2.3,1.4l-1.1,3.5l-0.2,0.7l0.7,0.2l5.1,1.6l0.7,0.2l0.2-0.7
				l1.1-3.5c0.9,0.1,1.8,0.1,2.7,0.1l0.8,3.6l0.1,0.7l0.7-0.1l5.2-1.1l0.7-0.1l-0.1-0.7l-0.8-3.6c0.8-0.3,1.6-0.8,2.4-1.2l2.5,2.7
				l0.5,0.5l0.5-0.5l3.9-3.6l0.5-0.5l-0.5-0.5L863,62c0.5-0.7,1-1.5,1.4-2.3l3.5,1.1l0.7,0.2l0.2-0.7l1.6-5.1l0.2-0.7l-0.7-0.2
				l-3.5-1.1c0.1-0.9,0.1-1.8,0.1-2.7l3.6-0.8l0.7-0.1l-0.1-0.7l-1.1-5.2l-0.1-0.7l-0.7,0.1l-3.6,0.8c-0.3-0.8-0.8-1.6-1.2-2.4
				l2.7-2.5l0.5-0.5l-0.5-0.5l-3.6-3.9l-0.5-0.5l-0.5,0.5l-2.7,2.5c-0.7-0.5-1.5-1-2.3-1.5l1.1-3.5l0.2-0.7l-0.7-0.2l-5.1-1.6
				l-0.7-0.2l-0.2,0.7l-1.1,3.5c-0.9-0.1-1.8-0.1-2.7-0.1l-0.8-3.6l-0.1-0.7l-0.7,0.1l-5.2,1.1l-0.7,0.1l0.1,0.7l0.8,3.6
				c-0.8,0.3-1.6,0.8-2.4,1.2l-2.5-2.7l-0.5-0.5l-0.5,0.5l-3.9,3.6l-0.5,0.5l0.5,0.5L834.2,40.3z M843.7,45.8
				c2.9-2.7,7.5-2.5,10.2,0.5c2.7,2.9,2.5,7.5-0.5,10.2c-2.9,2.7-7.5,2.5-10.2-0.5C840.5,53.1,840.8,48.5,843.7,45.8z"/>
		</g>
	</g>
</g>
</svg>
