<svg id="レイヤー_1" xmlns="http://www.w3.org/2000/svg" viewBox="-407 320.7 384.7 161.3"><style>.st0{fill:#3BAED0;} .st1{fill:#FFFFFF;} .st2{fill:#002B3F;} .st3{fill:#00486C;} .st4{fill:#0089B0;} .st5{fill:#003753;} .st6{fill:#041924;} .st7{fill:#0294B7;} .st8{fill:#0083A2;} .st9{fill:#E4ECF2;} .st10{fill:none;} .st11{opacity:0.2;fill:#858481;enable-background:new ;} .st12{fill:#032B5C;} .st13{fill:#98B4C2;} .st14{opacity:0.15;} .st15{fill:#0B0506;} .st16{fill:#51ACB0;} .st17{fill:#91B820;} .st18{opacity:0.2;fill:#FFFFFF;enable-background:new ;} .st19{fill:#B5BFC4;} .st20{opacity:0.5;fill:#B5BFC4;enable-background:new ;} .st21{fill:#4FA0C4;} .st22{enable-background:new ;} .st23{fill:url(#XMLID_2_);} .st24{fill:url(#XMLID_3_);} .st25{fill:url(#XMLID_4_);} .st26{fill:url(#XMLID_5_);} .st27{fill:url(#XMLID_6_);} .st28{fill:url(#XMLID_7_);} .st29{fill:#C05A14;} .st30{fill:url(#XMLID_8_);} .st31{fill:url(#XMLID_9_);} .st32{fill:url(#XMLID_10_);} .st33{fill:url(#XMLID_11_);} .st34{fill:url(#XMLID_12_);} .st35{fill:url(#XMLID_13_);} .st36{fill:url(#XMLID_14_);} .st37{fill:url(#XMLID_15_);} .st38{fill:url(#XMLID_16_);} .st39{fill:url(#XMLID_17_);} .st40{fill:url(#XMLID_18_);} .st41{fill:url(#XMLID_19_);} .st42{fill:url(#XMLID_20_);} .st43{fill:url(#XMLID_21_);} .st44{fill:url(#XMLID_22_);} .st45{fill:url(#XMLID_23_);} .st46{fill:url(#XMLID_24_);} .st47{fill:url(#XMLID_25_);} .st48{fill:url(#XMLID_26_);} .st49{fill:url(#XMLID_27_);} .st50{fill:url(#XMLID_28_);} .st51{fill:url(#XMLID_29_);}</style><g id="XMLID_12536_"><g id="XMLID_12926_"><g id="XMLID_12965_"><path id="XMLID_12527_" class="st0" d="M-257.5 362.4c.1-1.5-.2-3-.9-4.4-2.1-4.2-7.2-5.8-11.4-3.6-4.2 2.1-5.8 7.2-3.6 11.4.7 1.5 1.8 2.5 3.1 3.3 5.5 3.2 6.4 5.5 6.4 5.5l3.7-1.9 3.7-1.9s-1.5-2-1-8.4z"/></g><g id="XMLID_12963_"><path id="XMLID_12526_" class="st1" d="M-268.8 365.5c.2-.1.3-.3.4-.4.2-.1.3-.3.4-.4h.8l-.2.1c.1-.3.1-.7.2-1v-.1h.1c.3 0 .5.1.8.2.3 0 .5.1.8.2l-.2.2.3-1 .3-.9v-.3l.3.2c.2.1.3.3.5.4l.6.3-.3.1.1-.4v-.3l.2.1.6.2-.2.1c0-.3.2-.6.3-1v-.1H-261.3c-.2 0-.6.1-.8.1-.2 0-.6.1-.8.1l.2-.1c0 .3-.1.7-.1 1v.1h-.1l-.6-.1.2-.2-.1.4v.3l-.3-.2-.5-.4c-.2-.1-.3-.3-.5-.4l.3-.1c-.1.3-.2.6-.3 1l-.3.9-.1.2-.2-.1c-.3 0-.5-.1-.8-.2s-.5-.1-.8-.2l.2-.2c-.1.3-.2.7-.4 1v.1h-.1c-.3 0-.5-.1-.8-.2l.1-.1c-.2.1-.3.2-.5.4 0 .5-.2.6-.4.7z"/></g><g id="XMLID_12961_"><path id="XMLID_12525_" class="st1" d="M-268.617 365.488l7.13 8.766-.233.19-7.13-8.767z"/></g><g id="XMLID_12959_"><circle id="XMLID_12524_" class="st1" cx="-268.8" cy="365.5" r=".6"/></g><g id="XMLID_12957_"><path id="XMLID_12523_" class="st2" d="M-261.426 361.738l.29-.08 3.056 10.877-.288.082z"/></g><g id="XMLID_12955_"><circle id="XMLID_12522_" class="st2" cx="-261.3" cy="361.6" r=".6"/></g><g id="XMLID_12945_"><g id="XMLID_12953_"><path id="XMLID_12521_" class="st3" d="M-260.2 372.7l-3.8 2 1 1.8 2.3 2.6 3-1.5 2.9-1.5-.8-3.4-.9-1.9z"/></g><g id="XMLID_12946_"><g id="XMLID_12951_"><path id="XMLID_12520_" class="st2" d="M-255.8 371.3c.1.2 0 .4-.1.5l-7.6 4c-.2.1-.4 0-.5-.1-.1-.2 0-.4.1-.5l7.6-4c.2-.2.4-.1.5.1z"/></g><g id="XMLID_12949_"><path id="XMLID_12519_" class="st2" d="M-255.1 372.5c.1.2 0 .4-.1.5l-7.6 4c-.2.1-.4 0-.5-.1-.1-.2 0-.4.1-.5l7.6-4c.2-.1.4 0 .5.1z"/></g><g id="XMLID_12947_"><path id="XMLID_12518_" class="st2" d="M-254.4 375.8c.1.2 0 .4-.1.3l-6.3 3.2c-.2.1-.4 0-.3-.1-.1-.2 0-.4.1-.3l6.3-3.2c.1 0 .3-.1.3.1z"/></g></g></g><g id="XMLID_12943_"><path id="XMLID_12517_" class="st4" d="M-257.5 362.4c.1-1.5-.2-3-.9-4.4-2.1-4.2-7.2-5.8-11.4-3.6l9.5 18.3 3.8-2c0 .1-1.5-1.9-1-8.3z"/></g><g id="XMLID_12941_"><path id="XMLID_12516_" class="st1" d="M-261.3 361.6H-263v.1c0 .3-.1.5-.2.8l-.4-.1-.2-.1v.4l-.3-.2c-.2-.1-.3-.3-.5-.4l-.3-.2v.3l-.3.9.3.5.1-.5c.1-.2.1-.4.2-.6.1.1.2.1.3.2l.5.4.3.2v-.6l.4.1h.1v-.1c0-.3.1-.6.1-.8.2 0 .4-.1.7-.1.4 0 .6-.1.9-.2z"/></g><g id="XMLID_12939_"><path id="XMLID_12515_" class="st1" d="M-261.426 361.738l.29-.08 3.056 10.877-.288.082z"/></g><g id="XMLID_12937_"><circle id="XMLID_12514_" class="st1" cx="-261.3" cy="361.6" r=".6"/></g><g id="XMLID_12927_"><g id="XMLID_12935_"><path id="XMLID_12513_" class="st5" d="M-260.3 372.8l2.5 4.8 3-1.5-.8-3.4-.9-1.9z"/></g><g id="XMLID_12928_"><g id="XMLID_12933_"><path id="XMLID_12512_" class="st6" d="M-256.3 371.1l-3.9 2 .3.6 3.9-2c.2-.1.3-.3.1-.5 0-.1-.2-.2-.4-.1z"/></g><g id="XMLID_12931_"><path id="XMLID_12511_" class="st6" d="M-255.6 372.4l-3.9 2 .3.6 3.9-2c.2-.1.3-.3.1-.5 0-.1-.2-.2-.4-.1z"/></g><g id="XMLID_12929_"><path id="XMLID_12510_" class="st6" d="M-254.8 375.6l-3.2 1.6.3.5 3.2-1.6c.2-.1.2-.3.1-.3 0-.2-.2-.1-.4-.2z"/></g></g></g></g><g id="XMLID_12913_"><path id="XMLID_12509_" class="st7" d="M-147.3 350.4c-17 0-30.9 13.8-30.9 30.8s13.8 30.8 30.9 30.8h.1v-61.6h-.1z"/><path id="XMLID_12508_" class="st8" d="M-116.5 381.2c0-17-13.8-30.8-30.7-30.8V412c17-.1 30.7-13.8 30.7-30.8z"/><path id="XMLID_12920_" class="st9" d="M-118.5 370h-1.6l-.8-.9-.2-1.4-.8.5-.4 1.7-1.2-1.3v-1.2l-1.2-1-.4-.4h-1.3l.4 1.2 1.6.9.3.3-.3.2v.9l-.8.3-.8-.1-.4-.6 1.1.1.3-.4-2.4-1.6-.2-.7-1 .9-1-.2-1.5 2-.3.8-1 .1h-1.4l-.9-.4-.3-1.7.3-.8 1.5-.3 1.6.3.2-.9-.7-.2.2-1.4 1.6-.3 1.1-1.6 1.2-.2 1 .2h.4l-.2-1.5-1.3.5-.4-1.1-.7-.1-.1-.8.6-.7 1.4-.6.4-.7c-5.4-4.8-12.5-7.7-20.3-7.7v5.6l.6.3v1.1l.9.2-.5.9h-1.1v4l.6.4v1.1l-.6.2v.8l.9.4v.7h-.4l-.5-.1v20.7l.8.3h2.7l.8 1.3 1.2.4-.2 1.1-1.3 1.7-.4 3.7-1.2.9-1.8-.1-.6 1 .4 1.9-.4.6v12.7c9.6 0 18.2-4.5 23.9-11.4h-1v-2.1l-1.2-1.6v-2.5l-.9-.9-.1-1 1.1-2.2-2.2-3.8.3-2.6-2-.2-.7-.7h-1.3l-.7.6h-2.3l-.1.2h-1.3l-2.9-3.4v-2.6h.7l.2-1h-.7l-.3-1.1 3.4-2.5v-1.7l1.7-.9.7.1h1.4l1.1-.6 3.5-.3v1.8l2.7.7.5.4h.5v-1l1.6-.2 1.5 1.1h2.5l.2-.2c-.4-.7-.7-1.5-1-2.3zm-14.6-8.8l.3-.4 1-.2.3 1.2.5.9.4.4.7.3-.6.7-1.2.1h-.9l.1-1.1.7-.2-.1-.5-.7-.4-.5-.3v-.5zm-1.7 1.9l.6-1 .8-.2.6.3-.1.7-1.3.9h-.7l.1-.7z"/><path id="XMLID_12504_" class="st1" d="M-148.7 401.3l-.6 1.1-1.8.9-1.2.2v.5l.8.2-.1.6-.8.7.5.6h.9l-.1.7-.2.7-.1.6 1.4 1.1-.2.6h-1.8l-1.8-1.6-1.4-2.5.2-2.4-1.1-1.4.4-2.4-.6-.2V394s-1.8-1.4-1.9-1.4c-.1 0-.9-.2-.9-.2l-.2-1-2.3-2.9.2-1.1.1-1.7 1.6-1.1-.2-1.9-2.4-.2-1.8-2.1-1.3-.4-.8-.2.1-.8-1.1-.2v.4l-2.7-.7-1.1-1.7.4-.8-1.7-2.5-.3-1.8h-.7l.2 1.8 1.2 1.8-.1.7-1-.2-1.2-2.1v-2.4l-1.3-.6v-1.8c-1.6 3.7-2.5 7.8-2.5 12.1 0 17 13.9 30.9 30.9 30.9h.1v-12.5l-1.7 1.9z"/><path id="XMLID_12915_" class="st1" d="M-148.5 365.4l-.1-.6.5-.3v-.5l-.5-.1-.1.5-.9.1h-.4l-.3-.5-.3-.1h-.7l-.3.3v.5l.6.2.6.1-.1.1-.5.6-.2-.3-.5-.1-1.4 1.3.2.1-2 1.1-1.9 2-.1.9-1.9 1.3-1.2.7.1 1.9-1.3-.6v-1.1h-3.6l-1.9 1-.8 1.5-.3 1.2.5 1.2 1.5.2 2.4-1.6.2.8-.7 1.4 1.8.3.2 2.8 2.5.4 1.6-1.8 1.9.4.7.9 1.8-.1.1-.5 1 .5 1.1 1.8h1.9l.7 1.3.1 1.5 1.4.5v-20.8l-1.4-.4zm-3 1.5l-.6.1v-.4l.3-.4.4.3-.1.4zm2.2-.8h-.4l-.1.4-.3.2h-.5v-.2h-.2v-.5h.9l.2-.5h.4l.4.1-.4.5z"/><path id="XMLID_12500_" class="st7" d="M-154.7 394.6h4.6v3.1h-4.6z"/></g><path id="XMLID_12492_" class="st11" d="M-207.7 469.6l77.9-.1-16.8-28.1h-.1V379c0-2.4-1.9-4.3-4.3-4.3h-103c-2.4 0-4.3 1.9-4.3 4.3v61.8c0 .2 0 .5.1.7v-.7l-17.4 28.9h.2c.1 1.5 1.7 2.8 3.7 2.8h138.5c2 0 3.7-1.3 3.7-2.9h-78.2z"/><path id="XMLID_12491_" class="st12" d="M-145.8 438.5c0 2.4-1.9 4.3-4.3 4.3h-103.1c-2.4 0-4.3-1.9-4.3-4.3v-61.2c0-2.4 1.9-4.3 4.3-4.3h103.1c2.4 0 4.3 1.9 4.3 4.3v61.2z"/><path id="XMLID_12490_" class="st13" d="M-257.6 439.2L-275 467l146.1-.2-16.8-27.8z"/><path id="XMLID_12489_" class="st12" d="M-128.8 466.9c0 1.6-1.7 2.8-3.7 2.8h-138.7c-2 0-3.7-1.3-3.7-2.8"/><path id="XMLID_12488_" class="st9" d="M-251.3 378.6h99.3v55.3h-99.3z"/><g id="XMLID_12626_"><g class="st14"><path id="XMLID_1531_" class="st15" d="M-250.3 448.1h-3.4l1.6-3.5h3.3z"/><path id="XMLID_1530_" class="st15" d="M-247.6 452.5h-8l1.5-3.5h7.8z"/><path id="XMLID_1529_" class="st15" d="M-249.2 457.3h-8.4l1.6-3.5h8.1z"/><path id="XMLID_1528_" class="st15" d="M-246.2 448.1h-3.4l1.4-3.5h3.3z"/><path id="XMLID_1527_" class="st15" d="M-242.1 448.1h-3.4l1.3-3.5h3.3z"/><path id="XMLID_1526_" class="st15" d="M-238 448.1h-3.4l1.2-3.5h3.3z"/><path id="XMLID_1525_" class="st15" d="M-233.8 448.1h-3.5l1-3.5h3.3z"/><path id="XMLID_1524_" class="st15" d="M-229.7 448.1h-3.5l.9-3.5h3.3z"/><path id="XMLID_1523_" class="st15" d="M-225.6 448.1h-3.5l.8-3.5h3.3z"/><path id="XMLID_1522_" class="st15" d="M-221.5 448.1h-3.5l.6-3.5h3.3z"/><path id="XMLID_1521_" class="st15" d="M-217.4 448.1h-3.5l.5-3.5h3.3z"/><path id="XMLID_1520_" class="st15" d="M-213.3 448.1h-3.5l.4-3.5h3.3z"/><path id="XMLID_1519_" class="st15" d="M-209.2 448.1h-3.5l.2-3.5h3.4z"/><path id="XMLID_1518_" class="st15" d="M-205.1 448.1h-3.5l.1-3.5h3.3z"/><path id="XMLID_1517_" class="st15" d="M-201 448.1h-3.5v-3.5h3.3z"/><path id="XMLID_1516_" class="st15" d="M-196.9 448.1h-3.5l-.2-3.5h3.4z"/><path id="XMLID_1515_" class="st15" d="M-192.8 448.1h-3.5l-.3-3.5h3.3z"/><path id="XMLID_1514_" class="st15" d="M-188.7 448.1h-3.4l-.5-3.5h3.3z"/><path id="XMLID_1513_" class="st15" d="M-184.6 448.1h-3.4l-.7-3.5h3.4z"/><path id="XMLID_1512_" class="st15" d="M-180.5 448.1h-3.4l-.8-3.5h3.3z"/><path id="XMLID_1511_" class="st15" d="M-176.4 448.1h-3.4l-.9-3.5h3.3z"/><path id="XMLID_1510_" class="st15" d="M-172.3 448.1h-3.4l-1.1-3.5h3.4z"/><path id="XMLID_1509_" class="st15" d="M-168.2 448.1h-3.4l-1.2-3.5h3.3z"/><path id="XMLID_1508_" class="st15" d="M-164.1 448.1h-3.4l-1.3-3.5h3.3z"/><path id="XMLID_1507_" class="st15" d="M-160 448.1h-3.4l-1.4-3.5h3.3z"/><path id="XMLID_1506_" class="st15" d="M-155.9 448.1h-3.4l-1.6-3.5h3.3z"/><path id="XMLID_1505_" class="st15" d="M-151.8 448.1h-3.4l-1.7-3.5h3.3z"/><path id="XMLID_1504_" class="st15" d="M-255.9 461.7h-3.9l1.6-3.4h3.7z"/><path id="XMLID_1503_" class="st15" d="M-251.3 461.7h-3.8l1.4-3.4h3.7z"/><path id="XMLID_1502_" class="st15" d="M-246.6 461.7h-3.9l1.3-3.4h3.7z"/><path id="XMLID_1501_" class="st15" d="M-242 461.7h-3.9l1.2-3.4h3.7z"/><path id="XMLID_1500_" class="st15" d="M-237.4 461.7h-3.8l1-3.4h3.7z"/><path id="XMLID_1499_" class="st15" d="M-232.7 461.7h-3.9l.9-3.4h3.7z"/><path id="XMLID_1498_" class="st15" d="M-172.7 461.7h-59.1l.8-3.4h57.3z"/><path id="XMLID_1497_" class="st15" d="M-167.9 461.7h-3.9l-1-3.4h3.8z"/><path id="XMLID_1496_" class="st15" d="M-163.3 461.7h-3.8l-1.2-3.4h3.8z"/><path id="XMLID_1495_" class="st15" d="M-158.7 461.7h-3.8l-1.3-3.4h3.8z"/><path id="XMLID_1494_" class="st15" d="M-154 461.7h-3.9l-1.4-3.4h3.8z"/><path id="XMLID_1493_" class="st15" d="M-149.4 461.7h-3.9l-1.5-3.4h3.7z"/><path id="XMLID_1492_" class="st15" d="M-144.8 461.7h-3.8l-1.7-3.4h3.7z"/><path id="XMLID_1491_" class="st15" d="M-243.5 452.5h-3.6l1.3-3.5h3.4z"/><path id="XMLID_1490_" class="st15" d="M-239.3 452.5h-3.5l1.1-3.5h3.5z"/><path id="XMLID_1489_" class="st15" d="M-235 452.5h-3.5l1-3.5h3.4z"/><path id="XMLID_1488_" class="st15" d="M-230.7 452.5h-3.6l.9-3.5h3.5z"/><path id="XMLID_1487_" class="st15" d="M-226.4 452.5h-3.6l.7-3.5h3.5z"/><path id="XMLID_1486_" class="st15" d="M-222.2 452.5h-3.5l.6-3.5h3.4z"/><path id="XMLID_1485_" class="st15" d="M-217.9 452.5h-3.6l.5-3.5h3.5z"/><path id="XMLID_1484_" class="st15" d="M-213.6 452.5h-3.6l.4-3.5h3.4z"/><path id="XMLID_1483_" class="st15" d="M-209.4 452.5h-3.5l.2-3.5h3.4z"/><path id="XMLID_1482_" class="st15" d="M-205.1 452.5h-3.5V449h3.5z"/><path id="XMLID_1481_" class="st15" d="M-200.8 452.5h-3.6V449h3.4z"/><path id="XMLID_1480_" class="st15" d="M-196.5 452.5h-3.6l-.2-3.5h3.4z"/><path id="XMLID_1479_" class="st15" d="M-192.3 452.5h-3.5l-.4-3.5h3.5z"/><path id="XMLID_1478_" class="st15" d="M-188 452.5h-3.6l-.4-3.5h3.4z"/><path id="XMLID_1477_" class="st15" d="M-183.7 452.5h-3.6l-.6-3.5h3.5z"/><path id="XMLID_1476_" class="st15" d="M-179.5 452.5h-3.5l-.8-3.5h3.5z"/><path id="XMLID_1475_" class="st15" d="M-175.2 452.5h-3.5l-.9-3.5h3.4z"/><path id="XMLID_1474_" class="st15" d="M-170.9 452.5h-3.6l-1-3.5h3.5z"/><path id="XMLID_1473_" class="st15" d="M-166.6 452.5h-3.6l-1.1-3.5h3.4z"/><path id="XMLID_1472_" class="st15" d="M-162.4 452.5h-3.5l-1.3-3.5h3.4z"/><path id="XMLID_1471_" class="st15" d="M-158.1 452.5h-3.6l-1.4-3.5h3.5z"/><path id="XMLID_1470_" class="st15" d="M-153.8 452.5h-3.6l-1.5-3.5h3.4z"/><path id="XMLID_1469_" class="st15" d="M-147.2 457h-3.7l-3.9-8h3.5z"/><path id="XMLID_1468_" class="st15" d="M-245.1 457.3h-3.8l1.3-3.5h3.6z"/><path id="XMLID_1467_" class="st15" d="M-240.7 457.3h-3.7l1.2-3.5h3.6z"/><path id="XMLID_1466_" class="st15" d="M-236.2 457.3h-3.7l1-3.5h3.6z"/><path id="XMLID_1465_" class="st15" d="M-231.8 457.3h-3.7l.9-3.5h3.6z"/><path id="XMLID_1464_" class="st15" d="M-227.3 457.3h-3.7l.7-3.5h3.6z"/><path id="XMLID_1463_" class="st15" d="M-222.8 457.3h-3.8l.6-3.5h3.6z"/><path id="XMLID_1462_" class="st15" d="M-218.4 457.3h-3.7l.5-3.5h3.6z"/><path id="XMLID_1461_" class="st15" d="M-213.9 457.3h-3.7l.3-3.5h3.6z"/><path id="XMLID_1460_" class="st15" d="M-209.5 457.3h-3.7l.2-3.5h3.6z"/><path id="XMLID_1459_" class="st15" d="M-205 457.3h-3.7v-3.5h3.6z"/><path id="XMLID_1458_" class="st15" d="M-200.6 457.3h-3.7v-3.5h3.6z"/><path id="XMLID_1457_" class="st15" d="M-196.1 457.3h-3.7l-.2-3.5h3.6z"/><path id="XMLID_1456_" class="st15" d="M-191.6 457.3h-3.8l-.3-3.5h3.6z"/><path id="XMLID_1455_" class="st15" d="M-187.2 457.3h-3.7l-.5-3.5h3.6z"/><path id="XMLID_1454_" class="st15" d="M-182.7 457.3h-3.7l-.7-3.5h3.7z"/><path id="XMLID_1453_" class="st15" d="M-178.3 457.3h-3.7l-.7-3.5h3.6z"/><path id="XMLID_1452_" class="st15" d="M-173.8 457.3h-3.7l-.9-3.5h3.6z"/><path id="XMLID_1451_" class="st15" d="M-169.4 457.3h-3.7l-1-3.5h3.6z"/><path id="XMLID_1450_" class="st15" d="M-164.9 457.3h-3.7l-1.2-3.5h3.6z"/><path id="XMLID_1449_" class="st15" d="M-160.4 457.3h-3.8l-1.2-3.5h3.6z"/><path id="XMLID_1448_" class="st15" d="M-156 457.3h-3.7l-1.4-3.5h3.6z"/><path id="XMLID_1447_" class="st15" d="M-151.5 457.3h-3.7l-1.6-3.5h3.6z"/></g><path id="XMLID_1276_" class="st1" d="M-250.3 447.1h-3.4l1.6-3.5h3.3z"/><path id="XMLID_1275_" class="st1" d="M-247.6 451.5h-8l1.5-3.5h7.8z"/><path id="XMLID_1274_" class="st1" d="M-249.2 456.3h-8.4l1.6-3.5h8.1z"/><path id="XMLID_1273_" class="st1" d="M-246.2 447.1h-3.4l1.4-3.5h3.3z"/><path id="XMLID_1272_" class="st1" d="M-242.1 447.1h-3.4l1.3-3.5h3.3z"/><path id="XMLID_1271_" class="st1" d="M-238 447.1h-3.4l1.2-3.5h3.3z"/><path id="XMLID_1270_" class="st1" d="M-233.8 447.1h-3.5l1-3.5h3.3z"/><path id="XMLID_1269_" class="st1" d="M-229.7 447.1h-3.5l.9-3.5h3.3z"/><path id="XMLID_1268_" class="st1" d="M-225.6 447.1h-3.5l.8-3.5h3.3z"/><path id="XMLID_1267_" class="st1" d="M-221.5 447.1h-3.5l.6-3.5h3.3z"/><path id="XMLID_1266_" class="st1" d="M-217.4 447.1h-3.5l.5-3.5h3.3z"/><path id="XMLID_1265_" class="st1" d="M-213.3 447.1h-3.5l.4-3.5h3.3z"/><path id="XMLID_1264_" class="st1" d="M-209.2 447.1h-3.5l.2-3.5h3.4z"/><path id="XMLID_1263_" class="st1" d="M-205.1 447.1h-3.5l.1-3.5h3.3z"/><path id="XMLID_1262_" class="st1" d="M-201 447.1h-3.5v-3.5h3.3z"/><path id="XMLID_1261_" class="st1" d="M-196.9 447.1h-3.5l-.2-3.5h3.4z"/><path id="XMLID_1260_" class="st1" d="M-192.8 447.1h-3.5l-.3-3.5h3.3z"/><path id="XMLID_1259_" class="st1" d="M-188.7 447.1h-3.4l-.5-3.5h3.3z"/><path id="XMLID_1258_" class="st1" d="M-184.6 447.1h-3.4l-.7-3.5h3.4z"/><path id="XMLID_1257_" class="st1" d="M-180.5 447.1h-3.4l-.8-3.5h3.3z"/><path id="XMLID_1256_" class="st1" d="M-176.4 447.1h-3.4l-.9-3.5h3.3z"/><path id="XMLID_1255_" class="st1" d="M-172.3 447.1h-3.4l-1.1-3.5h3.4z"/><path id="XMLID_1254_" class="st1" d="M-168.2 447.1h-3.4l-1.2-3.5h3.3z"/><path id="XMLID_1253_" class="st1" d="M-164.1 447.1h-3.4l-1.3-3.5h3.3z"/><path id="XMLID_1252_" class="st1" d="M-160 447.1h-3.4l-1.4-3.5h3.3z"/><path id="XMLID_1251_" class="st1" d="M-155.9 447.1h-3.4l-1.6-3.5h3.3z"/><path id="XMLID_1250_" class="st1" d="M-151.8 447.1h-3.4l-1.7-3.5h3.3z"/><path id="XMLID_1249_" class="st1" d="M-255.9 460.7h-3.9l1.6-3.4h3.7z"/><path id="XMLID_1248_" class="st1" d="M-251.3 460.7h-3.8l1.4-3.4h3.7z"/><path id="XMLID_1247_" class="st1" d="M-246.6 460.7h-3.9l1.3-3.4h3.7z"/><path id="XMLID_1246_" class="st1" d="M-242 460.7h-3.9l1.2-3.4h3.7z"/><path id="XMLID_1245_" class="st1" d="M-237.4 460.7h-3.8l1-3.4h3.7z"/><path id="XMLID_1244_" class="st1" d="M-232.7 460.7h-3.9l.9-3.4h3.7z"/><path id="XMLID_1243_" class="st1" d="M-172.7 460.7h-59.1l.8-3.4h57.3z"/><path id="XMLID_1242_" class="st1" d="M-167.9 460.7h-3.9l-1-3.4h3.8z"/><path id="XMLID_1241_" class="st1" d="M-163.3 460.7h-3.8l-1.2-3.4h3.8z"/><path id="XMLID_1240_" class="st1" d="M-158.7 460.7h-3.8l-1.3-3.4h3.8z"/><path id="XMLID_1239_" class="st1" d="M-154 460.7h-3.9l-1.4-3.4h3.8z"/><path id="XMLID_1238_" class="st1" d="M-149.4 460.7h-3.9l-1.5-3.4h3.7z"/><path id="XMLID_1237_" class="st1" d="M-144.8 460.7h-3.8l-1.7-3.4h3.7z"/><path id="XMLID_1236_" class="st1" d="M-243.5 451.5h-3.6l1.3-3.5h3.4z"/><path id="XMLID_1235_" class="st1" d="M-239.3 451.5h-3.5l1.1-3.5h3.5z"/><path id="XMLID_1234_" class="st1" d="M-235 451.5h-3.5l1-3.5h3.4z"/><path id="XMLID_1233_" class="st1" d="M-230.7 451.5h-3.6l.9-3.5h3.5z"/><path id="XMLID_1232_" class="st1" d="M-226.4 451.5h-3.6l.7-3.5h3.5z"/><path id="XMLID_1231_" class="st1" d="M-222.2 451.5h-3.5l.6-3.5h3.4z"/><path id="XMLID_1230_" class="st1" d="M-217.9 451.5h-3.6l.5-3.5h3.5z"/><path id="XMLID_1229_" class="st1" d="M-213.6 451.5h-3.6l.4-3.5h3.4z"/><path id="XMLID_1228_" class="st1" d="M-209.4 451.5h-3.5l.2-3.5h3.4z"/><path id="XMLID_1227_" class="st1" d="M-205.1 451.5h-3.5V448h3.5z"/><path id="XMLID_1226_" class="st1" d="M-200.8 451.5h-3.6V448h3.4z"/><path id="XMLID_1225_" class="st1" d="M-196.5 451.5h-3.6l-.2-3.5h3.4z"/><path id="XMLID_1224_" class="st1" d="M-192.3 451.5h-3.5l-.4-3.5h3.5z"/><path id="XMLID_1223_" class="st1" d="M-188 451.5h-3.6l-.4-3.5h3.4z"/><path id="XMLID_1222_" class="st1" d="M-183.7 451.5h-3.6l-.6-3.5h3.5z"/><path id="XMLID_1221_" class="st1" d="M-179.5 451.5h-3.5l-.8-3.5h3.5z"/><path id="XMLID_1220_" class="st1" d="M-175.2 451.5h-3.5l-.9-3.5h3.4z"/><path id="XMLID_1219_" class="st1" d="M-170.9 451.5h-3.6l-1-3.5h3.5z"/><path id="XMLID_1218_" class="st1" d="M-166.6 451.5h-3.6l-1.1-3.5h3.4z"/><path id="XMLID_1217_" class="st1" d="M-162.4 451.5h-3.5l-1.3-3.5h3.4z"/><path id="XMLID_1216_" class="st1" d="M-158.1 451.5h-3.6l-1.4-3.5h3.5z"/><path id="XMLID_1215_" class="st1" d="M-153.8 451.5h-3.6l-1.5-3.5h3.4z"/><path id="XMLID_1214_" class="st1" d="M-147.2 456h-3.7l-3.9-8h3.5z"/><path id="XMLID_1213_" class="st1" d="M-245.1 456.3h-3.8l1.3-3.5h3.6z"/><path id="XMLID_1212_" class="st1" d="M-240.7 456.3h-3.7l1.2-3.5h3.6z"/><path id="XMLID_1211_" class="st1" d="M-236.2 456.3h-3.7l1-3.5h3.6z"/><path id="XMLID_1210_" class="st1" d="M-231.8 456.3h-3.7l.9-3.5h3.6z"/><path id="XMLID_1209_" class="st1" d="M-227.3 456.3h-3.7l.7-3.5h3.6z"/><path id="XMLID_1208_" class="st1" d="M-222.8 456.3h-3.8l.6-3.5h3.6z"/><path id="XMLID_1207_" class="st1" d="M-218.4 456.3h-3.7l.5-3.5h3.6z"/><path id="XMLID_1206_" class="st1" d="M-213.9 456.3h-3.7l.3-3.5h3.6z"/><path id="XMLID_1205_" class="st1" d="M-209.5 456.3h-3.7l.2-3.5h3.6z"/><path id="XMLID_1204_" class="st1" d="M-205 456.3h-3.7v-3.5h3.6z"/><path id="XMLID_1203_" class="st1" d="M-200.6 456.3h-3.7v-3.5h3.6z"/><path id="XMLID_1202_" class="st1" d="M-196.1 456.3h-3.7l-.2-3.5h3.6z"/><path id="XMLID_1201_" class="st1" d="M-191.6 456.3h-3.8l-.3-3.5h3.6z"/><path id="XMLID_1200_" class="st1" d="M-187.2 456.3h-3.7l-.5-3.5h3.6z"/><path id="XMLID_1199_" class="st1" d="M-182.7 456.3h-3.7l-.7-3.5h3.7z"/><path id="XMLID_1198_" class="st1" d="M-178.3 456.3h-3.7l-.7-3.5h3.6z"/><path id="XMLID_1197_" class="st1" d="M-173.8 456.3h-3.7l-.9-3.5h3.6z"/><path id="XMLID_1196_" class="st1" d="M-169.4 456.3h-3.7l-1-3.5h3.6z"/><path id="XMLID_1195_" class="st1" d="M-164.9 456.3h-3.7l-1.2-3.5h3.6z"/><path id="XMLID_1194_" class="st1" d="M-160.4 456.3h-3.8l-1.2-3.5h3.6z"/><path id="XMLID_1193_" class="st1" d="M-156 456.3h-3.7l-1.4-3.5h3.6z"/><path id="XMLID_1192_" class="st1" d="M-151.5 456.3h-3.7l-1.6-3.5h3.6z"/></g><path id="XMLID_12402_" class="st16" d="M-246 387.7h28v12.7h-28z"/><path id="XMLID_12401_" class="st17" d="M-215.6 387.7h28v12.7h-28z"/><path id="XMLID_12400_" class="st8" d="M-184.9 388h28v12.7h-28z"/><path id="XMLID_12399_" class="st16" d="M-245.8 383h28v1.7h-28z"/><path id="XMLID_12398_" class="st17" d="M-215.3 383h28v1.7h-28z"/><path id="XMLID_12397_" class="st8" d="M-184.6 383.1h28v1.7h-28z"/><path id="XMLID_12396_" class="st18" d="M-251.5 433.6v-55.3h99.4z"/><path id="XMLID_12395_" class="st19" d="M-245.8 403.9h23.1v2.2h-23.1z"/><path id="XMLID_12394_" class="st19" d="M-245.8 407.6h28v1.7h-28z"/><path id="XMLID_12393_" class="st19" d="M-245.8 410.5h28v1.7h-28z"/><path id="XMLID_12392_" class="st19" d="M-245.8 413.3h28v1.7h-28z"/><g id="XMLID_12610_"><path id="XMLID_12391_" class="st19" d="M-215.2 403.9h23.1v2.2h-23.1z"/><path id="XMLID_12390_" class="st19" d="M-215.2 407.6h28v1.7h-28z"/><path id="XMLID_12389_" class="st19" d="M-215.2 410.5h28v1.7h-28z"/><path id="XMLID_12388_" class="st19" d="M-215.2 413.3h28v1.7h-28z"/></g><g id="XMLID_12605_"><path id="XMLID_12387_" class="st19" d="M-184.6 403.9h23.1v2.2h-23.1z"/><path id="XMLID_12386_" class="st19" d="M-184.6 407.6h28v1.7h-28z"/><path id="XMLID_12385_" class="st19" d="M-184.6 410.5h28v1.7h-28z"/><path id="XMLID_12384_" class="st19" d="M-184.6 413.3h28v1.7h-28z"/></g><path id="XMLID_12383_" class="st17" d="M-245.8 419.8h27.7v2h-27.7z"/><path id="XMLID_12382_" class="st20" d="M-245.8 423.2h88.2v1.5h-88.2z"/><path id="XMLID_12381_" class="st20" d="M-245.8 425.8h88.2v1.5h-88.2z"/><path id="XMLID_12380_" class="st20" d="M-245.8 428.3h88.2v1.5h-88.2z"/><ellipse id="XMLID_12379_" class="st21" cx="-161.2" cy="403.9" rx="9.6" ry="9.7"/><path id="XMLID_12597_" class="st1" d="M-161.2 391.6c2.5 0 5.1.8 7.3 2.4 5.4 4 6.4 11.6 2.4 17-2.4 3.2-6 4.8-9.7 4.8v-2.3c3 0 6-1.4 7.9-3.9 3.3-4.4 2.4-10.5-2-13.8-1.8-1.3-3.9-2-5.9-2v-2.2zm-9.7 4.9c2.4-3.2 6-4.8 9.7-4.8v2.3c-3 0-6 1.4-7.9 3.9-3.3 4.4-2.4 10.6 2 13.8 1.8 1.3 3.9 2 5.9 2v2.3c-2.5 0-5.1-.8-7.3-2.4-5.4-4.2-6.5-11.8-2.4-17.1z"/><path id="XMLID_12376_" class="st1" d="M-153.563 411.592l1.983-2.638 9.433 7.09-1.983 2.637z"/><path id="XMLID_12375_" class="st1" d="M-140.1 422.9c1.2.9 2.8.6 3.7-.5.9-1.2.6-2.8-.5-3.7l-8.9-6.7c-1.2-.9-2.8-.6-3.7.5-.9 1.2-.6 2.8.5 3.7l8.9 6.7z"/><g id="XMLID_12592_"><path id="XMLID_12374_" class="st17" d="M-150.02 414.183l1.983-2.64 5.996 4.507-1.984 2.638z"/><path id="XMLID_12373_" class="st17" d="M-140.1 422.9c1.2.9 2.8.6 3.7-.5.9-1.2.6-2.8-.5-3.7l-8.9-6.7c-.7-.5-1.5-.6-2.2-.4l-2 2.6c0 .8.4 1.5 1 2l8.9 6.7z"/></g><path id="XMLID_12372_" class="st12" d="M-209 399.5l-19.9 5.3 3.1 4.4-5.7 3.9 2.1 3 5.6-3.9 3.1 4.5z"/><g id="XMLID_12588_" class="st22"><path id="XMLID_12371_" class="st12" d="M-210.2 394l.4.7c2 .1 3.9 1.2 4.9 3.1s.8 4.1-.3 5.8l.4.7c1.4-1.9 1.7-4.6.5-6.8-1.2-2.3-3.5-3.6-5.9-3.5z"/><path id="XMLID_12370_" class="st12" d="M-208.1 390.6l.5.9c2.7.1 5.3 1.7 6.6 4.2 1.3 2.6 1.1 5.6-.4 7.9l.5.9c1.9-2.6 2.3-6.2.7-9.2s-4.7-4.7-7.9-4.7z"/></g></g><g id="XMLID_254_"><g id="XMLID_425_"><linearGradient id="XMLID_2_" gradientUnits="userSpaceOnUse" x1="-2737.467" y1="522.27" x2="-2704.877" y2="489.681" gradientTransform="matrix(1 0 0 -1 2412.854 958.836)"><stop offset="0" stop-color="#B50468"/><stop offset="1" stop-color="#511E7F"/></linearGradient><path id="XMLID_253_" class="st23" d="M-324.6 436.6h32.6v32.6h-32.6z"/><path id="XMLID_252_" class="st1" d="M-300.9 451.3c.1-.5.2-.8.3-1.3.2-3.1-2.2-5.8-5.2-6-2.5-.2-4.8 1.4-5.6 3.6-.7-.5-1.5-.7-2.4-.7-2.2 0-4 1.8-4 4 0 .4 0 .7.1 1-1.8.3-3.2 1.9-3.2 3.8 0 2.2 1.7 3.9 3.7 3.9.3 0 .5 0 .7-.1h14.7c.3 0 .5.1.7.1 2.2 0 4.1-1.9 4.1-4.1.1-2.4-1.6-4.2-3.9-4.2z"/></g><g id="XMLID_395_"><linearGradient id="XMLID_3_" gradientUnits="userSpaceOnUse" x1="-2779.282" y1="542.008" x2="-2744.95" y2="507.677" gradientTransform="matrix(1 0 0 -1 2412.854 958.836)"><stop offset="0" stop-color="#EBA000"/><stop offset="1" stop-color="#E1580A"/></linearGradient><path id="XMLID_251_" class="st24" d="M-366.4 416.8h34.3v34.3h-34.3z"/><linearGradient id="XMLID_4_" gradientUnits="userSpaceOnUse" x1="-2770.453" y1="520.259" x2="-2758.073" y2="520.259" gradientTransform="matrix(1 0 0 -1 2412.854 958.836)"><stop offset="0" stop-color="#B24716"/><stop offset="1" stop-color="#B84217"/></linearGradient><path id="XMLID_411_" class="st25" d="M-346.6 441.2c-.1.2-.2.3-.4.2l-1.6-.7c-.1-.1-.2-.3-.1-.4l.4-.9c.1-.2.3-.3.4-.2l1.6.7c.1.1.2.3.1.4l-.4.9zm-2.6.6c.1-.2.3-.3.4-.2l1.6.7c.1.1.2.3.1.4l-.4.8c-.1.2-.3.3-.4.2l-1.6-.7c-.1-.1-.2-.3-.1-.4l.4-.8zm1.9-4.7c.1-.2.3-.3.4-.2l1.6.7c.1.1.2.3.1.4l-.4.9c-.1.2-.3.3-.4.2l-1.6-.7c-.1-.1-.2-.3-.1-.4l.4-.9zm-1.9 2.9c-.1.2-.3.3-.4.2l-1.6-.7c-.1-.1-.2-.3-.1-.4l.4-.9c.1-.2.3-.3.4-.2l1.6.7c.1.1.2.3.1.4l-.4.9zm-2.7.6c.1-.2.2-.3.4-.2l1.6.7c.1.1.2.3.1.4l-.4.8c-.1.2-.3.3-.4.2l-1.6-.7c-.1-.1-.2-.3-.1-.4l.4-.8zm1.9-4.6c.1-.2.3-.3.4-.2l1.6.7c.1.1.2.3.1.4l-.4.9c-.1.2-.3.3-.4.2l-1.6-.7c-.1-.1-.2-.3-.1-.4l.4-.9zm-1.8 3c-.1.2-.3.3-.4.2l-1.6-.7c-.1-.1-.2-.3-.1-.4l.4-.9c.1-.2.3-.3.4-.2l1.6.7c.1.1.2.3.1.4l-.4.9zm-2.7.5c.1-.2.3-.3.4-.2l1.6.7c.1.1.2.3.1.4l-.4.9c-.1.2-.3.3-.4.2l-1.6-.7c-.1-.1-.2-.3-.1-.4l.4-.9zm1.9-4.6c.1-.2.3-.3.4-.2l1.6.7c.1.1.2.3.1.4l-.4.9c-.1.2-.3.3-.4.2l-1.6-.7c-.1-.1-.2-.3-.1-.4l.4-.9zm-1.9 2.9c-.1.2-.3.3-.4.2l-1.6-.7c-.1-.1-.2-.3-.1-.4l.4-.9c.1-.2.3-.3.4-.2l1.6.7c.1.1.2.3.1.4l-.4.9zm-2.7.4c.1-.2.2-.3.4-.2l1.6.7c.1.1.2.3.1.4l-.4.8c-.1.2-.3.3-.4.2l-1.6-.7c-.1-.1-.2-.2-.1-.4l.4-.8zm1.9-4.5c.1-.2.3-.3.4-.2l1.6.7c.1.1.2.3.1.4l-.4.9c-.1.2-.3.3-.4.2l-1.6-.7c-.1-.1-.2-.3-.1-.4l.4-.9z"/><path id="XMLID_396_" class="st1" d="M-352.8 425.3l-5.5 12.9c-.8 2-.2 4.1 1.4 4.8l6.6 2.9c1.6.7 3.6-.3 4.4-2.2l5.5-12.9c.8-2 .2-4.1-1.4-4.8l-6-2.6.2-.5c.3-.7 0-1.5-.7-1.8-.7-.3-1.5 0-1.8.7l-.6 1.3c-.8.4-1.6 1.1-2.1 2.2zm9.6 9c-.5 1.2-1.7 1.8-2.7 1.4l-6.4-2.7c-1-.5-1.4-1.8-.8-3l1.6-3.7c.5-1.2 1.7-1.9 2.7-1.4l6.4 2.7c1 .5 1.4 1.8.8 2.9l-1.6 3.8zm-2.9 6.9c-.1.2-.3.3-.4.2l-1.6-.7c-.1-.1-.2-.3-.1-.4l.4-.9c.1-.2.3-.3.4-.2l1.6.7c.1.1.2.3.1.4l-.4.9zm-2.7.6c.1-.2.2-.3.4-.2l1.6.7c.1.1.2.3.1.4l-.4.8c-.1.2-.3.3-.4.2l-1.6-.7c-.1-.1-.2-.3-.1-.4l.4-.8zm1.9-4.7c.1-.2.3-.3.4-.2l1.6.7c.1.1.2.3.1.4l-.4.9c-.1.2-.3.3-.4.2l-1.6-.7c-.1-.1-.2-.3-.1-.4l.4-.9zm-1.9 2.9c-.1.2-.3.3-.4.2l-1.6-.7c-.1-.1-.2-.3-.1-.4l.4-.9c.1-.2.3-.3.4-.2l1.6.7c.1.1.2.3.1.4l-.4.9zm-2.7.6c.1-.2.3-.3.4-.2l1.6.7c.1.1.2.3.1.4l-.4.8c-.1.2-.3.3-.4.2l-1.6-.7c-.1-.1-.2-.3-.1-.4l.4-.8zm1.9-4.6c.1-.2.3-.3.4-.2l1.6.7c.1.1.2.3.1.4l-.4.9c-.1.2-.3.3-.4.2l-1.6-.7c-.1-.1-.2-.3-.1-.4l.4-.9zm-1.9 3c-.1.2-.3.3-.4.2l-1.6-.7c-.1-.1-.2-.3-.1-.4l.4-.9c.1-.2.2-.3.4-.2l1.6.7c.1.1.2.3.1.4l-.4.9zm-2.6.5c.1-.2.3-.3.4-.2l1.6.7c.1.1.2.3.1.4l-.4.9c-.1.2-.3.3-.4.2l-1.6-.7c-.1-.1-.2-.3-.1-.4l.4-.9zm1.9-4.6c.1-.2.3-.3.4-.2l1.6.7c.1.1.2.3.1.4l-.4.9c-.1.2-.3.3-.4.2l-1.6-.7c-.1-.1-.2-.3-.1-.4l.4-.9zm-1.9 2.9c-.1.2-.3.3-.4.2l-1.6-.7c-.1-.1-.2-.3-.1-.4l.4-.9c.1-.2.3-.3.4-.2l1.6.7c.1.1.2.3.1.4l-.4.9zm-2.7.4c.1-.2.2-.3.4-.2l1.6.7c.1.1.2.3.1.4l-.4.8c-.1.2-.2.3-.4.2l-1.6-.7c-.1-.1-.2-.2-.1-.4l.4-.8zm2-4.5c.1-.2.3-.3.4-.2l1.6.7c.1.1.2.3.1.4l-.4.9c-.1.2-.3.3-.4.2l-1.6-.7c-.1-.1-.2-.3-.1-.4l.4-.9z"/></g><g id="XMLID_393_"><linearGradient id="XMLID_5_" gradientUnits="userSpaceOnUse" x1="-1898.758" y1="254.56" x2="-1871.399" y2="227.201" gradientTransform="matrix(-1 -.0125 .0126 -1.0212 -1972.164 623.34)"><stop offset=".018" stop-color="#93CDD3"/><stop offset="1" stop-color="#4399B3"/></linearGradient><path id="XMLID_224_" class="st26" d="M-98.6 414.1h28.9l-.2-26.5h-28.8z"/></g><g id="XMLID_390_"><linearGradient id="XMLID_6_" gradientUnits="userSpaceOnUse" x1="-2476.474" y1="578.959" x2="-2461.627" y2="564.113" gradientTransform="matrix(1 0 0 -1 2412.854 958.836)"><stop offset="0" stop-color="#92C01D"/><stop offset="1" stop-color="#00903B"/></linearGradient><path id="XMLID_223_" class="st27" d="M-63.6 379.9h14.9v14.9h-14.9z"/><path id="XMLID_222_" class="st1" d="M-53.7 384.6v-.5c0-.1 0-.1-.1-.2l-.1-.3c0-.2-.2-.3-.3-.3l-4.2.8c-.1 0-.2.2-.2.4V388.3c-.4-.1-.7-.1-1.2.1-.7.4-.9 1.2-.7 1.8.4.7 1.2.8 1.9.5.6-.3.8-.9.7-1.5 0 0 .1-.1.1-.2v-3.7l3-.6v3c-.4-.1-.7-.1-1.2.1-.7.4-.9 1.2-.7 1.8.4.7 1.2.8 1.9.5.6-.3.8-.9.7-1.5 0 0 .1-.1.1-.2l.3-3.8z"/></g><g id="XMLID_386_"><linearGradient id="XMLID_7_" gradientUnits="userSpaceOnUse" x1="-2382.871" y1="778.943" x2="-2367.904" y2="763.976" gradientTransform="matrix(1 0 0 -1 2003.533 1189.035)"><stop offset="0" stop-color="#F7D600"/><stop offset="1" stop-color="#EBA000"/></linearGradient><path id="XMLID_221_" class="st28" d="M-379.3 410.1h15v15h-15z"/><path id="XMLID_220_" class="st29" d="M-370.9 418.2c0-.1-.1-.3-.1-.5 0-.6.3-1.2.3-1.2s.2-.1.3-.3c.1-.2.1-.6.1-.6s-.1-.1-.1-.2c0-.2.1-.5.1-.8v-.5c-.1-.9-.7-1-1.1-1.1-.6-.1-.7 0-1.3 0-.5 0-.8-.2-.8-.2s-.1.7-.1 1.3.2 1.2.2 1.2-.2 0-.1.4c0 .4.3.6.3.6s.5 1.1.4 1.5-1.1.8-1.8 1.4c-.9.6-1 2.3-1 2.3h7.9s-.1-1.5-.7-2.2c-.8-.4-2.4-.7-2.5-1.1z"/><path id="XMLID_219_" class="st1" d="M-370.8 418.5c0-.1-.1-.3-.1-.5 0-.6.3-1.2.3-1.2s.2-.1.3-.3c.1-.2.1-.5.1-.5s-.1-.1-.1-.2c0-.2.1-.5.1-.8v-.5c-.1-.9-.7-1-1.1-1.1-.6-.1-.7 0-1.3 0-.5 0-.8-.2-.8-.2s-.1.7-.1 1.3.2 1.2.2 1.2-.2 0-.1.4c0 .4.3.6.3.6s.5 1.1.4 1.5c-.1.4-1.1.8-1.8 1.4-.9.6-1 2.3-1 2.3h7.9s-.1-1.5-.7-2.2c-.8-.5-2.3-.7-2.5-1.2z"/></g><g id="XMLID_381_"><linearGradient id="XMLID_8_" gradientUnits="userSpaceOnUse" x1="-2739.805" y1="562.869" x2="-2700.89" y2="523.954" gradientTransform="matrix(1 0 0 -1 2412.854 958.836)"><stop offset="0" stop-color="#D00349"/><stop offset="1" stop-color="#A40C5E"/></linearGradient><path id="XMLID_218_" class="st30" d="M-327.1 396.2h39.3v38.5h-39.3z"/><g id="XMLID_382_"><path id="XMLID_217_" class="st1" d="M-296.4 423h-21.3v-14.2l10.7 7.2 10.5-7.2z"/><path id="XMLID_216_" class="st1" d="M-296.5 406.9l-21.3.1 10.7 6.8z"/></g></g><linearGradient id="XMLID_9_" gradientUnits="userSpaceOnUse" x1="-2754.024" y1="608.894" x2="-2727.177" y2="582.046" gradientTransform="matrix(1 0 0 -1 2412.854 958.836)"><stop offset="0" stop-color="#F4B800"/><stop offset="1" stop-color="#EA7700"/></linearGradient><path id="XMLID_215_" class="st31" d="M-341.2 349.9h26.8v26.8h-26.8z"/><path id="XMLID_214_" class="st1" d="M-333.9 367.5c1.1 0 2.1.8 2.1 2 0 1-.9 2-2.1 2s-2.1-.8-2.1-2 1-2 2.1-2z"/><path id="XMLID_213_" class="st1" d="M-329.3 371.1h3.6c0-5.3-4.4-9.6-9.7-9.6v3.5c3.3-.1 6.1 2.7 6.1 6.1z"/><path id="XMLID_212_" class="st1" d="M-335.2 358.8c6.7 0 12.3 5.3 12.3 12v.3h3.9c0-9.1-7.4-16.4-16.6-16.4v4.1h.4z"/><g id="XMLID_372_"><linearGradient id="XMLID_10_" gradientUnits="userSpaceOnUse" x1="-2743.208" y1="578.888" x2="-2772.452" y2="548.405" gradientTransform="matrix(1 0 0 -1 2412.854 958.836)"><stop offset="0" stop-color="#F7D600"/><stop offset="1" stop-color="#EBA000"/></linearGradient><path id="XMLID_211_" class="st32" d="M-359.9 380.3h29.8v29.8h-29.8z"/><path id="XMLID_373_" class="st1" d="M-336.9 394.1c.5-3.5-2.1-6.6-5.6-7s-6.7 2.2-7.2 5.7c-.2 1.3.1 2.5.6 3.6l-4.4 3.6-.1.1c-.1.1-.3.3-.3.5-.3.7.1 1.4.8 1.7.6.2 1.1 0 1.5-.4l4.2-3.4c.9.7 2.1 1.2 3.4 1.4 3.5.3 6.7-2.3 7.1-5.8zm-6.9 3.7c-2.4-.3-4.1-2.3-3.8-4.8s2.5-4.1 4.9-3.9c2.4.3 4.1 2.3 3.8 4.8-.3 2.3-2.6 4.1-4.9 3.9z"/></g><g id="XMLID_365_"><linearGradient id="XMLID_11_" gradientUnits="userSpaceOnUse" x1="-2476.474" y1="564.179" x2="-2457.671" y2="545.376" gradientTransform="matrix(1 0 0 -1 2412.854 958.836)"><stop offset="0" stop-color="#C3D400"/><stop offset="1" stop-color="#7AA72B"/></linearGradient><path id="XMLID_208_" class="st33" d="M-63.6 394.7h18.8v18.8h-18.8z"/><path id="XMLID_367_" class="st1" d="M-60.3 399.3v7.8c0 .4.4.7.7.7h10.8c.4 0 .7-.4.7-.7v-7.8c0-.4-.4-.7-.7-.7h-10.9c-.4.1-.6.4-.6.7zm5.3 7.1c0-.3.2-.5.5-.5h.6c.3 0 .5.2.5.5v.6c0 .3-.2.5-.5.5h-.6c-.3 0-.5-.2-.5-.5v-.6zm-4.6-6.4c0-.3.2-.5.5-.5h9.7c.3 0 .5.2.5.5v5.4c0 .3-.2.5-.5.5h-9.7c-.3 0-.5-.2-.5-.5V400z"/><path id="XMLID_204_" class="st1" d="M-57.4 408.9c0 .4.3.7.7.7h5c.4 0 .7-.3.7-.7 0-.4-.3-.7-.7-.7h-5c-.5-.1-.7.3-.7.7z"/></g><g id="XMLID_360_"><linearGradient id="XMLID_12_" gradientUnits="userSpaceOnUse" x1="-2187.755" y1="304.804" x2="-2169.686" y2="286.735" gradientTransform="matrix(-1 -.007 .0072 -1.0213 -2264.124 664.692)"><stop offset=".129" stop-color="#A5CDED"/><stop offset="1" stop-color="#3BA1DB"/></linearGradient><path id="XMLID_203_" class="st34" d="M-74.3 387.2l-18.1-.2.2-18.4 18 .1z"/><path id="XMLID_361_" class="st1" d="M-76.5 375.4l-1.7-.6c-.5-1.1-1.6-1.8-2.8-1.7-1.1.2-1.9.9-2.2 2-.1.1-.2.3-.3.4h-.2c-2.2-.2-3.6-1.9-3.6-1.9s-.5 1.2 1.5 2.9c-1-.5-1.6-1.1-1.6-1.1s-.4 1 1.3 2.4c-.7-.2-1.2-.5-1.2-.5s0 1.1 2 2c-1.9 1.4-3.8 1.7-3.8 1.7s3.2 1.3 6.3.4c1.9-.6 2.9-1 3.7-2.4.2-.2 1-1.8 1.1-2.5l1.5-.2-1.4-.6 1.4-.3zm-3.1.2c-.3 0-.5-.2-.6-.4 0-.3.2-.5.4-.6.3 0 .5.2.6.4.1.3-.1.5-.4.6z"/></g><g id="XMLID_358_"><linearGradient id="XMLID_13_" gradientUnits="userSpaceOnUse" x1="-2740.928" y1="580.175" x2="-2725.267" y2="564.514" gradientTransform="matrix(1 0 0 -1 2412.854 958.836)"><stop offset="0" stop-color="#D00349"/><stop offset="1" stop-color="#A40C5E"/></linearGradient><path id="XMLID_200_" class="st35" d="M-328.1 378.7h15.6v15.6h-15.6z"/></g><path id="XMLID_355_" class="st1" d="M-316.8 384.7c0-1.7-1.4-3.1-3.1-3.1-1.7 0-3.1 1.4-3.1 3.1 0 2.6 3.1 7.6 3.1 7.6s3.1-5.1 3.1-7.6c0 .1 0 .1 0 0 0 .1 0 0 0 0zm-3.1 2c-.9 0-1.7-.7-1.7-1.7s.7-1.7 1.7-1.7 1.7.7 1.7 1.7-.9 1.7-1.7 1.7z"/><g id="XMLID_346_"><linearGradient id="XMLID_14_" gradientUnits="userSpaceOnUse" x1="-2505.31" y1="545.307" x2="-2481.88" y2="521.876" gradientTransform="matrix(1 0 0 -1 2412.854 958.836)"><stop offset="0" stop-color="#1365B0"/><stop offset="1" stop-color="#182A7A"/></linearGradient><path id="XMLID_197_" class="st36" d="M-92.4 413.6H-69V437h-23.4z"/><g id="XMLID_347_"><path id="XMLID_351_" class="st1" d="M-74 423.7c0-.6-.4-.9-.9-.9h-4.7l.6-1c0-.1.4-.8.4-.9l.3-1c0-.6-.4-.9-.9-.9h-.4c-.4 0-.4.2-.6.6l-1 1.9-2.2 1.9c-.2.2-.2.4-.2.6v3.9c0 .6.5.9 1.1.9h.8l.8.4c.2.1.3.1.5.1h1.9c.4 0 1.3-.3 1.5-.6l2.4-2.7.5-.7c.2-.2.3-.8.3-1.1v-.3h-.2zm-8.8 2v-2l.1-.1-.1 2.1z"/><path id="XMLID_348_" class="st1" d="M-85 422.8H-87.3v6.3H-85c.3 0 .6-.2.6-.5v-5.3c-.1-.3-.3-.5-.6-.5zm-.8 5.4c-.4 0-.7-.3-.7-.7 0-.4.3-.7.7-.7.4 0 .7.3.7.7 0 .5-.3.7-.7.7z"/></g></g><g id="XMLID_327_"><linearGradient id="XMLID_15_" gradientUnits="userSpaceOnUse" x1="-2518.569" y1="520.773" x2="-2492.189" y2="494.394" gradientTransform="matrix(1 0 0 -1 2412.854 958.836)"><stop offset="0" stop-color="#007796"/><stop offset="1" stop-color="#00395F"/></linearGradient><path id="XMLID_192_" class="st37" d="M-105.7 438.1h26.4v26.4h-26.4z"/><g id="XMLID_328_"><path id="XMLID_191_" class="st1" d="M-93.1 455v3.6c-1-.3-1.9-1.4-2.4-2.9.7-.4 1.6-.6 2.4-.7z"/><path id="XMLID_190_" class="st1" d="M-96.3 451.5h3.2v2.7c-.9.1-1.9.3-2.7.7-.3-1-.5-2.2-.5-3.4z"/><path id="XMLID_189_" class="st1" d="M-93.1 448.2v2.6h-3.1c0-1.2.2-2.2.6-3.3.7.4 1.6.6 2.5.7z"/><path id="XMLID_188_" class="st1" d="M-92.4 458.6V455c.9 0 1.8.2 2.6.6-.6 1.6-1.5 2.8-2.6 3z"/><path id="XMLID_187_" class="st1" d="M-89.1 450.8h-3.4v-2.6c.9 0 1.9-.2 2.8-.6.4.9.5 2.1.6 3.2z"/><path id="XMLID_186_" class="st1" d="M-93.1 444.1v3.2c-.8-.1-1.6-.3-2.3-.6.5-1.2 1.4-2.3 2.3-2.6z"/><path id="XMLID_185_" class="st1" d="M-92.4 447.3V444c1 .3 1.9 1.3 2.5 2.7-.8.4-1.6.6-2.5.6z"/><path id="XMLID_184_" class="st1" d="M-89.5 454.8c-.9-.4-1.9-.6-2.9-.6v-2.7h3.3c0 1.2-.2 2.3-.4 3.3z"/><path id="XMLID_183_" class="st1" d="M-88.8 455.1c.3-1.1.5-2.3.5-3.6h3.3c-.1 1.9-.7 3.6-2 5-.5-.6-1.1-1-1.8-1.4z"/><path id="XMLID_182_" class="st1" d="M-94.4 443.8c-.7.6-1.4 1.5-1.9 2.7-.6-.3-1-.7-1.5-1.1 1.1-.9 2.2-1.4 3.4-1.6z"/><path id="XMLID_181_" class="st1" d="M-97.1 451.5c0 1.3.2 2.6.5 3.6-.7.4-1.3.8-1.9 1.4-1.3-1.3-2.1-3.1-2.2-5.1h3.6v.1z"/><path id="XMLID_180_" class="st1" d="M-89.2 446.5c-.5-1.2-1-2.2-1.8-2.7 1.2.3 2.3.8 3.2 1.7-.3.3-.8.7-1.4 1z"/><path id="XMLID_179_" class="st1" d="M-96.5 447.2c-.3 1-.6 2.2-.6 3.6h-3.6c.1-2 .9-3.6 2.2-5 .7.6 1.3 1.1 2 1.4z"/><path id="XMLID_178_" class="st1" d="M-88.3 450.8c0-1.3-.3-2.5-.6-3.6.7-.4 1.2-.7 1.8-1.2 1.2 1.3 2 2.9 2.1 4.8h-3.3z"/><path id="XMLID_177_" class="st1" d="M-96.3 456c.5 1.2 1.1 2.2 1.8 2.8-1.2-.3-2.4-.8-3.4-1.7.5-.4 1-.8 1.6-1.1z"/><path id="XMLID_176_" class="st1" d="M-89 455.9c.6.3 1 .7 1.5 1.1-.9.8-2 1.4-3.2 1.8.6-.6 1.3-1.7 1.7-2.9z"/></g></g><g id="XMLID_324_"><linearGradient id="XMLID_16_" gradientUnits="userSpaceOnUse" x1="-2484.066" y1="542.07" x2="-2451.014" y2="519.776" gradientTransform="matrix(1 0 0 -1 2412.854 958.836)"><stop offset="0" stop-color="#B2CD00"/><stop offset="1" stop-color="#8BAC25"/></linearGradient><path id="XMLID_175_" class="st38" d="M-69 413.6h28.7v28.7H-69z"/><path id="XMLID_174_" class="st1" d="M-48.9 424.8v-4.7h-2.7v2.1l-3.2-3.2-9.4 9.9h2.9v6.1h13.1l.1-6.1h2.9z"/></g><linearGradient id="XMLID_17_" gradientUnits="userSpaceOnUse" x1="-2456.727" y1="600.185" x2="-2448.741" y2="592.2" gradientTransform="matrix(1 0 0 -1 2412.854 958.836)"><stop offset="0" stop-color="#C3D400"/><stop offset="1" stop-color="#7AA72B"/></linearGradient><path id="XMLID_173_" class="st39" d="M-43.9 358.6h8v8h-8z"/><linearGradient id="XMLID_18_" gradientUnits="userSpaceOnUse" x1="-2778.752" y1="599.29" x2="-2768.088" y2="588.626" gradientTransform="matrix(1 0 0 -1 2412.854 958.836)"><stop offset="0" stop-color="#EBA000"/><stop offset="1" stop-color="#E1580A"/></linearGradient><path id="XMLID_172_" class="st40" d="M-365.9 359.6h10.7v10.7h-10.7z"/><linearGradient id="XMLID_19_" gradientUnits="userSpaceOnUse" x1="-2520.052" y1="591.855" x2="-2515.324" y2="587.126" gradientTransform="matrix(1 0 0 -1 2412.854 958.836)"><stop offset="0" stop-color="#B2CD00"/><stop offset="1" stop-color="#8BAC25"/></linearGradient><path id="XMLID_171_" class="st41" d="M-107.2 367h4.8v4.8h-4.8z"/><linearGradient id="XMLID_20_" gradientUnits="userSpaceOnUse" x1="-2705.404" y1="612.659" x2="-2699.541" y2="606.795" gradientTransform="matrix(1 0 0 -1 2412.854 958.836)"><stop offset="0" stop-color="#D00349"/><stop offset="1" stop-color="#A40C5E"/></linearGradient><path id="XMLID_170_" class="st42" d="M-292.5 346.2h5.9v5.9h-5.9z"/><linearGradient id="XMLID_21_" gradientUnits="userSpaceOnUse" x1="-2805.623" y1="564.327" x2="-2797.671" y2="556.375" gradientTransform="matrix(1 0 0 -1 2412.854 958.836)"><stop offset="0" stop-color="#F7D600"/><stop offset="1" stop-color="#EBA000"/></linearGradient><path id="XMLID_169_" class="st43" d="M-392.8 394.5h8v8h-8z"/><linearGradient id="XMLID_22_" gradientUnits="userSpaceOnUse" x1="-2478.147" y1="591.858" x2="-2473.419" y2="587.13" gradientTransform="matrix(1 0 0 -1 2412.854 958.836)"><stop offset="0" stop-color="#92C01D"/><stop offset="1" stop-color="#00903B"/></linearGradient><path id="XMLID_168_" class="st44" d="M-65.3 367h4.8v4.8h-4.8z"/><linearGradient id="XMLID_23_" gradientUnits="userSpaceOnUse" x1="-1882.238" y1="895.709" x2="-1877.511" y2="895.709" gradientTransform="translate(1760.035 -538.798)"><stop offset=".018" stop-color="#93CDD3"/><stop offset="1" stop-color="#4399B3"/></linearGradient><path id="XMLID_167_" class="st45" d="M-122.2 354.5h4.8v4.8h-4.8z"/><linearGradient id="XMLID_24_" gradientUnits="userSpaceOnUse" x1="-2748.679" y1="497.374" x2="-2740.693" y2="489.388" gradientTransform="matrix(1 0 0 -1 2412.854 958.836)"><stop offset="0" stop-color="#D00349"/><stop offset="1" stop-color="#A40C5E"/></linearGradient><path id="XMLID_166_" class="st46" d="M-335.8 461.4h8v8h-8z"/><linearGradient id="XMLID_25_" gradientUnits="userSpaceOnUse" x1="-2684.327" y1="599.533" x2="-2679.6" y2="594.806" gradientTransform="matrix(1 0 0 -1 2412.854 958.836)"><stop offset="0" stop-color="#B50468"/><stop offset="1" stop-color="#511E7F"/></linearGradient><path id="XMLID_165_" class="st47" d="M-271.5 359.3h4.8v4.8h-4.8z"/><linearGradient id="XMLID_26_" gradientUnits="userSpaceOnUse" x1="-2807.444" y1="523.772" x2="-2803.809" y2="520.137" gradientTransform="matrix(1 0 0 -1 2412.854 958.836)"><stop offset="0" stop-color="#F7D600"/><stop offset="1" stop-color="#EBA000"/></linearGradient><path id="XMLID_164_" class="st48" d="M-394.6 435.1h3.6v3.6h-3.6z"/><linearGradient id="XMLID_27_" gradientUnits="userSpaceOnUse" x1="-2725.212" y1="588.033" x2="-2701.598" y2="564.419" gradientTransform="matrix(1 0 0 -1 2412.854 958.836)"><stop offset="0" stop-color="#CC0F19"/><stop offset="1" stop-color="#BC121A"/></linearGradient><path id="XMLID_163_" class="st49" d="M-312.4 370.8h23.6v23.6h-23.6z"/><linearGradient id="XMLID_28_" gradientUnits="userSpaceOnUse" x1="-2797.691" y1="584.833" x2="-2794.056" y2="581.198" gradientTransform="matrix(1 0 0 -1 2412.854 958.836)"><stop offset="0" stop-color="#F7D600"/><stop offset="1" stop-color="#EBA000"/></linearGradient><path id="XMLID_162_" class="st50" d="M-384.9 374h3.6v3.6h-3.6z"/><linearGradient id="XMLID_29_" gradientUnits="userSpaceOnUse" x1="-2457.671" y1="555.292" x2="-2447.53" y2="545.151" gradientTransform="matrix(1 0 0 -1 2412.854 958.836)"><stop offset=".018" stop-color="#93CDD3"/><stop offset="1" stop-color="#4399B3"/></linearGradient><path id="XMLID_161_" class="st51" d="M-44.8 403.5h10.1v10.1h-10.1z"/><g id="XMLID_264_"><path id="XMLID_267_" class="st1" d="M-307.6 378.1v1.2l2.4.5 1.6 6.3h.2l7.4-.2h.1l2.2-5.1h-1.2l-.2.3-8.2.2-.7-2.7h-.1l-3.5-.5zm10.5 6.4v-.3h.5l-.2.3h-.3zm.6-.7h-.7v-.4h.7v.4zm-5.1-.9h.7v.3h-.7v-.3zm-.2.3h-.7v-.2h.7v.2zm2.7 0h-.7v-.3h.7v.3zm.2-.4h.7v.3h-.7v-.3zm-1.1.4h-.7v-.3h.7v.3zm-1.6-.7v-.3h.7v.3h-.7zm.9-.3h.7v.3h-.7v-.3zm1-.1h.7v.3h-.7v-.3zm.8 0h.7v.3h-.7v-.3zm.9 0h.7v.3h-.7v-.3zm.7.7v.3h-.7v-.3h.7zm.2 0h.7v.3h-.7v-.3zm-.2 1h-.7v-.3h.7v.3zm-.9 0h-.7v-.3h.7v.3zm-1 0h-.7v-.3h.7v.3zm-.8.1h-.7v-.3h.7v.3zm-.9 0h-.7v-.4h.7v.4zm-.9 0h-.7v-.3h.7v.3zm-.8 0l-.2-.3h.1l.1.3zm-.2-.7l-.1-.4h.3v.3l-.2.1zm-.3-1h.5v.3h-.4l-.1-.3zm.7 0h.7v.3h-.7v-.3zm0-.4v-.4h.7v.4h-.7zm.9-.3h.7v.4h-.7v-.4zm.8 0h.7v.4h-.7v-.4zm1 0h.7v.4h-.7v-.4zm.8-.1h.7v.4h-.7v-.4zm.9 0h.7v.4h-.7v-.4zm.9 0h.7v.4h-.7v-.4zm.6.6v.3h-.7v-.3h.7zm.3 0h.6l-.2.3h-.5l.1-.3zm.2.8l-.2.3h-.1v-.3h.3zm-1.3 1.7h-.7v-.3h.7v.3zm-.9 0h-.7v-.3h.7v.3zm-1 .1h-.7v-.3h.7v.3zm-.8 0h-.7v-.3h.7v.3zm-.9 0h-.7v-.3h.7v.3zm-.9 0h-.7v-.3h.7v.3zm-1.5-3h.7v.4h-.6l-.1-.4zm8.1-.2l-.2.4h-.7v-.4h.9z"/><path id="XMLID_117_" class="st1" d="M-302.5 386.1c-.7 0-1.1.6-1.2 1.1 0 .7.5 1.1 1.1 1.1.7 0 1.1-.6 1.1-1.1.1-.6-.4-1.1-1-1.1z"/><path id="XMLID_116_" class="st1" d="M-298 387.6c.3.6.9.8 1.5.6s.8-.9.7-1.5c-.3-.6-.9-.8-1.5-.6-.7.2-1 1-.7 1.5z"/></g><path id="XMLID_261_" class="st1" d="M-79.3 397.8h-1.3v-3.1c0-1.7-1.2-3.1-2.7-3.1h-1.8c-1.5 0-2.7 1.4-2.7 3.1v3.1H-89c-.2 0-.4.2-.4.3v7.8c0 .2.2.3.4.3h9.7c.2 0 .4-.2.4-.3v-7.8c-.1-.2-.2-.3-.4-.3zm-7.1-2.7c0-1.3.7-2.3 1.6-2.3h1c.8 0 1.6 1 1.6 2.3v2.7h-4.1l-.1-2.7z"/><g id="iphone_1_"><g id="body_1_"><path id="XMLID_257_" class="st1" d="M-37.7 406.3l-2.1-1c-.3-.2-.7 0-.7 0l-2.2 4.3c-.3.6-.2.9.2 1.1l2.1 1c.3.2.7 0 1-.6l2.2-4.3c0-.1-.2-.4-.5-.5zm-3.7 4.6c-.2-.1-.3-.4-.2-.6.1-.2.4-.3.7-.2.2.1.3.4.2.6-.2.3-.5.4-.7.2zm-.7-1.5l1.9-3.6 2.3 1.1-1.9 3.6-2.3-1.1z"/></g></g></g></svg>