<?xml version="1.0" encoding="utf-8"?>
<!-- Generator: Adobe Illustrator 19.1.0, SVG Export Plug-In . SVG Version: 6.00 Build 0)  -->
<svg version="1.1" id="レイヤー_1" xmlns="http://www.w3.org/2000/svg" xmlns:xlink="http://www.w3.org/1999/xlink" x="0px"
	 y="0px" viewBox="0 0 10.5 11.7" style="enable-background:new 0 0 10.5 11.7;" xml:space="preserve">
<style type="text/css">
	.st0{fill:#ED4E3A;}
	.st1{fill:#B6312F;}
	.st2{opacity:0.4;fill:#FFFFFF;}
	.st3{opacity:0.8;fill:#F6F6F6;}
	.st4{fill:#3B82EA;}
	.st5{fill:#3040B5;}
</style>
<g>
	<path class="st0" d="M6.3,8.7c-0.2,0-0.4-0.1-0.6-0.2C5.5,8.5,5.4,8.4,5.2,8.3l1-2.4l0.9,0.3L6.3,8.7z"/>
	<path class="st1" d="M7,6.4L6.2,6.1C6.1,6.1,6,5.9,6.1,5.8l0.2-0.5l1.3,0.5L7.3,6.3C7.3,6.4,7.1,6.5,7,6.4z"/>
	<circle class="st2" cx="7.7" cy="3.3" r="2"/>
	<path class="st1" d="M8.6,2.8C8.5,3.2,8,3.1,7.9,3.5L7.8,3.9L7.3,3.7l0.1-0.2c0.2-0.6,0.7-0.6,0.8-0.9c0-0.1,0-0.2-0.1-0.3
		c-0.1,0-0.2,0-0.3,0.2l0,0.1L7.3,2.5l0.1-0.2C7.5,2,7.8,1.8,8.2,2C8.6,2.1,8.8,2.4,8.6,2.8z M7.2,4l0.4,0.2L7.5,4.6L7.1,4.4L7.2,4z
		"/>
	<path class="st0" d="M6.8,5.7c-1.3-0.5-2-2-1.5-3.3c0.5-1.3,2-2,3.3-1.5c1.3,0.5,2,2,1.5,3.3C9.7,5.5,8.2,6.2,6.8,5.7z M8.4,1.4
		c-1-0.4-2.1,0.1-2.5,1.1c-0.4,1,0.1,2.1,1.1,2.5c1,0.4,2.1-0.1,2.5-1.1C9.9,2.9,9.4,1.8,8.4,1.4z"/>
	<path class="st3" d="M6.3,2.2c0.2-0.3,0.5-0.5,0.8-0.6l0.1,0c0.2-0.1,0.5-0.1,0.7-0.1l0,0.4c-0.2,0-0.4,0-0.6,0.1L7.3,2
		C7,2.1,6.8,2.2,6.7,2.4L6.3,2.2z"/>
	<path class="st3" d="M9,4.6C8.9,4.6,8.9,4.6,9,4.6L9,4.6C8.6,4.9,8.2,5,7.9,5.1l0-0.3c0.3,0,0.6-0.1,0.8-0.3l0,0c0,0,0,0,0,0L9,4.6
		z"/>
</g>
<g>
	<path class="st4" d="M5.1,11.3c-0.2,0.1-0.4,0.2-0.6,0.3c-0.2,0.1-0.3,0.1-0.5,0.2L3.2,9.2l0.9-0.3L5.1,11.3z"/>
	<path class="st5" d="M4.1,9.1L3.3,9.4C3.2,9.4,3,9.3,3,9.2L2.8,8.7L4,8.2l0.2,0.5C4.3,8.9,4.2,9,4.1,9.1z"/>
	<circle class="st2" cx="2.6" cy="6.2" r="2"/>
	<path class="st5" d="M2.8,7.1l0.4-0.2l0.2,0.4L3.1,7.5L2.8,7.1z M3.1,6.7L2.6,6.9L1.8,5.2L2.2,5L3.1,6.7z"/>
	<path class="st4" d="M3.5,8.6C2.1,9.1,0.6,8.4,0.2,7.1c-0.5-1.3,0.2-2.8,1.5-3.3C3,3.3,4.5,3.9,5,5.3C5.5,6.6,4.8,8.1,3.5,8.6z
		 M1.9,4.4c-1,0.4-1.5,1.5-1.1,2.5c0.4,1,1.5,1.5,2.5,1.1c1-0.4,1.5-1.5,1.1-2.5C4,4.5,2.9,4,1.9,4.4z"/>
	<path class="st3" d="M0.8,6.3c0-0.3,0.1-0.7,0.2-1l0-0.1C1.2,5,1.3,4.8,1.5,4.7l0.3,0.4C1.6,5.2,1.5,5.3,1.4,5.5l0,0.1
		C1.3,5.7,1.2,6,1.2,6.2L0.8,6.3z"/>
	<path class="st3" d="M4.4,6.4C4.4,6.4,4.4,6.4,4.4,6.4l0,0.1C4.3,6.9,4.1,7.2,3.9,7.4L3.6,7.2C3.8,7,4,6.7,4,6.4l0-0.1
		c0,0,0,0,0-0.1L4.4,6.4z"/>
</g>
</svg>
