<?xml version="1.0" encoding="utf-8"?>
<!-- Generator: Adobe Illustrator 19.1.0, SVG Export Plug-In . SVG Version: 6.00 Build 0)  -->
<svg version="1.1" id="レイヤー_1" xmlns="http://www.w3.org/2000/svg" xmlns:xlink="http://www.w3.org/1999/xlink" x="0px"
	 y="0px" viewBox="-263 217 363 128" style="enable-background:new -263 217 363 128;" xml:space="preserve">
<style type="text/css">
	.st0{fill:#FFFFFF;}
	.st1{fill:none;stroke:#FFFFFF;stroke-width:2;stroke-miterlimit:10;}
</style>
<g>
	<polyline class="st0" points="-127,325.9 -151.4,331.4 -143.8,315.9 	"/>
	<path class="st0" d="M-111.6,258.1c-20.9,0-37.8,16.9-37.8,37.8c0,20.9,16.9,37.8,37.8,37.8c20.9,0,37.8-16.9,37.8-37.8
		C-73.7,275-90.7,258.1-111.6,258.1z M-109,300.9v-7.7h21.6v26.3c-8.8,0.5-14.7,0.7-17.8,0.7c-12,0-20.3-2.5-24.9-7.6
		c-4.7-5.1-7-11-7-17.8c0-4.7,1.1-8.9,3.2-12.8c2.2-3.9,5.3-6.9,9.4-9c4.1-2.1,8.9-3.2,14.5-3.2c3.9,0,8,0.6,12.2,1.7
		c4.2,1.1,8,2.7,11.5,4.8l-10.4,14.7c-4.4-2.1-8.4-3.1-12.1-3.1c-2.5,0-4.4,0.6-5.9,1.9c-1.5,1.3-2.2,3-2.2,5
		C-116.8,298.9-114.2,300.9-109,300.9z"/>
	<g>
		<path class="st0" d="M-32.8,270v14c-3.2-1.6-6.2-2.3-9-2.3c-1.6,0-2.8,0.3-3.7,0.8c-0.9,0.5-1.3,1.2-1.3,2.1c0,2,1.9,3.1,5.7,3.1
			c3.2,0,6-0.6,8.2-1.7v13.8c-3.2,0.9-6.6,1.4-10.2,1.4c-6.4,0-11.3-1.5-14.8-4.6c-3.5-3.1-5.2-7-5.2-11.7c0-4.7,1.7-8.7,5-11.9
			c3.3-3.2,7.8-4.8,13.4-4.8C-40.8,268.1-36.8,268.7-32.8,270z"/>
		<path class="st0" d="M-10.7,260.2v12.7c2.5-2.9,5.7-4.4,9.7-4.4c3.6,0,6.5,1.1,8.6,3.2s3.1,5.1,3.1,8.8v20.1H-4.8v-18.4
			c0-2.7-1-4-3.1-4c-0.9,0-1.9,0.4-2.8,1.2v21.2h-16.4v-40.4H-10.7z"/>
		<path class="st0" d="M17,281.9v-9.6c4.6-2.5,9.9-3.8,15.7-3.8c5.6,0,9.7,1.2,12.3,3.6c2.6,2.4,4,6,4,10.9v17.6H32.6v-2.4
			c-2.4,1.8-5.1,2.6-8,2.6c-2.4,0-4.5-0.8-6.1-2.4c-1.6-1.6-2.4-3.6-2.4-6c0-2.7,1-5,3-6.7c2-1.7,4.6-2.6,7.9-2.6
			c1.9,0,3.8,0.2,5.6,0.7c0-1.5-0.6-2.6-1.7-3.5c-1.1-0.8-2.7-1.2-4.8-1.2C23.2,279.3,20.1,280.2,17,281.9z M32.6,293.6v-4.4
			c-1-0.3-1.9-0.5-2.7-0.5c-1,0-1.8,0.3-2.4,0.8c-0.6,0.5-0.9,1.2-0.9,2c0,0.9,0.3,1.6,1,2.2c0.6,0.6,1.5,0.9,2.4,0.9
			C31.1,294.5,31.9,294.2,32.6,293.6z"/>
		<path class="st0" d="M80.7,268.8v9h-6.8v6.8c0,2.3,1,3.5,3.1,3.5c1.5,0,2.8-0.8,3.9-2.3v12.6c-2.6,1.7-5.7,2.5-9.4,2.5
			c-3.9,0-7.3-1.2-9.9-3.5c-2.7-2.3-4-5.6-4-9.7v-10h-6.7l23-18.1v9.1H80.7z"/>
	</g>
	<path class="st0" d="M-113.1,255.1c0,0,25.1,0.7,35.4,17.8C-77.7,272.8-82,249.7-113.1,255.1z"/>
	<path class="st0" d="M-95.5,252.1c0,0,17,3.7,21,19C-74.5,271.1-73.3,251.5-95.5,252.1z"/>
	<polyline class="st0" points="-184.6,315.5 -154.3,322.5 -163.6,303.2 	"/>
	<path class="st0" d="M-198.7,226.3c-26,0-47,21-47,47c0,26,21,47,47,47s47-21,47-47C-151.7,247.3-172.7,226.3-198.7,226.3z
		 M-173,259.1h-23.5v7.5h16.4v15.2h-16.4v7.5h23.5v15.2h-50.4v-60.7h50.4V259.1z"/>
	<path class="st0" d="M-215.7,225.6c0,0-34,10.9-32.3,45.5C-247.9,271.1-257.2,230.2-215.7,225.6z"/>
	<g>
		<circle class="st0" cx="-55.2" cy="261.6" r="4.9"/>
		<circle class="st0" cx="-38" cy="261.6" r="4.9"/>
	</g>
	<g>
		<path class="st0" d="M-59.9,311.6h7.2v2h-4.6v2.7h3.6v2h-3.6v2.9h4.6v2.1h-7.2V311.6z"/>
		<path class="st0" d="M-52.7,314.7h2.6l0.9,2l1.1-2h2.1l-2.3,3.9l2.6,4.9h-2.6l-1.3-2.6l-1.5,2.6H-53l2.6-4.5L-52.7,314.7z"/>
		<path class="st0" d="M-45,314.7h2.2v1.3c0.5-0.9,1.1-1.4,2-1.4c0.8,0,1.5,0.4,2,1.1c0.5,0.7,0.8,1.8,0.8,3.3
			c0,1.5-0.3,2.7-0.8,3.5c-0.5,0.8-1.2,1.2-2.2,1.2c-0.7,0-1.2-0.3-1.7-0.8v3.6H-45V314.7z M-42.6,319.8c0,0.8,0.1,1.4,0.2,1.6
			c0.1,0.3,0.4,0.4,0.8,0.4c0.4,0,0.6-0.2,0.8-0.5c0.2-0.3,0.3-1.1,0.3-2.4c0-1.1-0.1-1.8-0.2-2.2c-0.2-0.4-0.4-0.6-0.8-0.6
			c-0.3,0-0.6,0.1-0.8,0.4c-0.2,0.2-0.3,0.8-0.3,1.7V319.8z"/>
		<path class="st0" d="M-36.6,314.7h2.1v2.1c0.4-1.5,1.1-2.2,2.1-2.2c0.1,0,0.3,0,0.4,0v2.4c-0.2,0-0.3,0-0.4,0
			c-1.2,0-1.8,0.9-1.8,2.7v3.8h-2.4V314.7z"/>
		<path class="st0" d="M-24.4,319.4H-29v0.5c0,0.8,0.1,1.3,0.3,1.6c0.2,0.3,0.5,0.4,0.8,0.4c0.7,0,1.2-0.5,1.3-1.5l2.2,0.1
			c-0.4,2-1.5,3-3.5,3c-1.2,0-2.1-0.4-2.7-1.2c-0.6-0.8-0.9-1.9-0.9-3.2c0-1.5,0.3-2.7,1-3.5c0.7-0.8,1.5-1.2,2.6-1.2
			c1,0,1.8,0.4,2.5,1.1C-24.8,316.2-24.4,317.5-24.4,319.4z M-26.7,318c0-0.1,0-0.2,0-0.2c0-1.1-0.4-1.7-1.1-1.7
			c-0.7,0-1.1,0.6-1.1,1.9H-26.7z"/>
		<path class="st0" d="M-17.2,316.8l-1.7,0.5c-0.2-0.8-0.7-1.2-1.3-1.2c-0.5,0-0.8,0.3-0.8,0.8c0,0.3,0.1,0.5,0.3,0.7
			c0.2,0.2,0.6,0.3,1.2,0.5c0.7,0.2,1.2,0.4,1.5,0.6c0.3,0.2,0.6,0.4,0.8,0.8c0.2,0.4,0.3,0.8,0.3,1.2c0,0.8-0.3,1.5-0.9,2
			c-0.6,0.5-1.4,0.8-2.4,0.8c-2,0-3.1-0.9-3.3-2.6l1.9-0.3c0.2,0.9,0.6,1.3,1.4,1.3c0.6,0,1-0.3,1-0.8c0-0.3-0.1-0.5-0.3-0.7
			c-0.2-0.1-0.6-0.3-1.1-0.5c-1-0.3-1.7-0.7-2.1-1.2c-0.4-0.5-0.6-1-0.6-1.6c0-0.8,0.3-1.5,0.9-2c0.6-0.5,1.3-0.8,2.2-0.8
			C-18.6,314.5-17.7,315.2-17.2,316.8z"/>
		<path class="st0" d="M-10,316.8l-1.7,0.5c-0.2-0.8-0.7-1.2-1.3-1.2c-0.5,0-0.8,0.3-0.8,0.8c0,0.3,0.1,0.5,0.3,0.7
			c0.2,0.2,0.6,0.3,1.2,0.5c0.7,0.2,1.2,0.4,1.5,0.6c0.3,0.2,0.6,0.4,0.8,0.8c0.2,0.4,0.3,0.8,0.3,1.2c0,0.8-0.3,1.5-0.9,2
			c-0.6,0.5-1.4,0.8-2.4,0.8c-2,0-3.1-0.9-3.3-2.6l1.9-0.3c0.2,0.9,0.6,1.3,1.4,1.3c0.6,0,1-0.3,1-0.8c0-0.3-0.1-0.5-0.3-0.7
			c-0.2-0.1-0.6-0.3-1.1-0.5c-1-0.3-1.7-0.7-2.1-1.2c-0.4-0.5-0.6-1-0.6-1.6c0-0.8,0.3-1.5,0.9-2c0.6-0.5,1.3-0.8,2.2-0.8
			C-11.4,314.5-10.4,315.2-10,316.8z"/>
		<path class="st0" d="M-6.1,313.9h-2.5v-2.4h2.5V313.9z M-8.5,314.7h2.4v8.7h-2.4V314.7z"/>
		<path class="st0" d="M-5.4,314.7H-3l1.2,5.2l1.2-5.2h2l-2.4,8.7h-1.9L-5.4,314.7z"/>
		<path class="st0" d="M8.8,319.4H4.2v0.5c0,0.8,0.1,1.3,0.3,1.6c0.2,0.3,0.5,0.4,0.8,0.4c0.7,0,1.2-0.5,1.3-1.5l2.2,0.1
			c-0.4,2-1.5,3-3.5,3c-1.2,0-2.1-0.4-2.7-1.2c-0.6-0.8-0.9-1.9-0.9-3.2c0-1.5,0.3-2.7,1-3.5c0.7-0.8,1.5-1.2,2.6-1.2
			c1,0,1.8,0.4,2.5,1.1C8.4,316.2,8.8,317.5,8.8,319.4z M6.5,318c0-0.1,0-0.2,0-0.2c0-1.1-0.4-1.7-1.1-1.7c-0.7,0-1.1,0.6-1.1,1.9
			H6.5z"/>
		<path class="st0" d="M17.9,317.1H22v6.3h-1.1l-0.3-1.4c-0.6,1-1.6,1.5-2.9,1.5c-1.3,0-2.4-0.5-3.2-1.6c-0.8-1.1-1.2-2.5-1.2-4.3
			c0-1.9,0.4-3.5,1.2-4.6c0.8-1.1,1.9-1.7,3.4-1.7c2.4,0,3.8,1.3,4.1,4l-2.3,0.4c-0.2-1.5-0.7-2.3-1.7-2.3c-0.6,0-1,0.3-1.4,0.9
			c-0.3,0.6-0.5,1.7-0.5,3.2c0,1.4,0.2,2.4,0.5,3c0.3,0.6,0.8,0.9,1.5,0.9c1.1,0,1.6-0.8,1.6-2.3h-1.8V317.1z"/>
		<path class="st0" d="M30.5,319c0,3-1.2,4.6-3.5,4.6c-2.4,0-3.6-1.5-3.6-4.6c0-3,1.2-4.5,3.6-4.5C29.3,314.5,30.5,316,30.5,319z
			 M28,319c0-1.1-0.1-1.9-0.2-2.3c-0.2-0.4-0.4-0.6-0.8-0.6c-0.4,0-0.6,0.2-0.8,0.6c-0.2,0.4-0.2,1.1-0.2,2.3c0,1.1,0.1,1.8,0.2,2.2
			c0.1,0.4,0.4,0.6,0.8,0.6c0.4,0,0.7-0.2,0.8-0.6C27.9,320.8,28,320.1,28,319z"/>
		<path class="st0" d="M38.6,319c0,3-1.2,4.6-3.5,4.6c-2.4,0-3.6-1.5-3.6-4.6c0-3,1.2-4.5,3.6-4.5C37.5,314.5,38.6,316,38.6,319z
			 M36.1,319c0-1.1-0.1-1.9-0.2-2.3c-0.2-0.4-0.4-0.6-0.8-0.6c-0.4,0-0.6,0.2-0.8,0.6c-0.2,0.4-0.2,1.1-0.2,2.3
			c0,1.1,0.1,1.8,0.2,2.2c0.1,0.4,0.4,0.6,0.8,0.6c0.4,0,0.7-0.2,0.8-0.6C36.1,320.8,36.1,320.1,36.1,319z"/>
		<path class="st0" d="M44.4,311.6h2.4v11.8h-2.3v-1.4c-0.4,1-1,1.6-2,1.6c-0.9,0-1.6-0.4-2.1-1.2c-0.5-0.8-0.7-1.9-0.7-3.2
			c0-1.5,0.3-2.7,0.8-3.4c0.5-0.8,1.2-1.1,2.1-1.1c0.8,0,1.4,0.3,1.7,0.9V311.6z M44.4,318.3c0-0.9-0.1-1.4-0.3-1.7
			c-0.2-0.3-0.4-0.4-0.8-0.4c-0.4,0-0.7,0.2-0.8,0.6c-0.1,0.4-0.2,1.2-0.2,2.5c0,0.9,0.1,1.6,0.2,2c0.2,0.4,0.4,0.6,0.8,0.6
			c0.3,0,0.6-0.1,0.8-0.4c0.2-0.3,0.3-0.8,0.3-1.6V318.3z"/>
		<path class="st0" d="M58.4,317.9l-2.3,0.1c0-0.5-0.1-0.9-0.3-1.2c-0.1-0.3-0.4-0.4-0.7-0.4c-0.8,0-1.2,0.9-1.2,2.6
			c0,1,0.1,1.7,0.3,2.1c0.2,0.4,0.5,0.6,0.9,0.6c0.6,0,0.9-0.5,1-1.6l2.3,0.1c-0.2,2.3-1.3,3.4-3.4,3.4c-1.1,0-2-0.4-2.6-1.1
			c-0.6-0.8-0.9-1.9-0.9-3.4c0-1.5,0.3-2.6,0.9-3.4c0.6-0.8,1.5-1.2,2.6-1.2C57.1,314.5,58.2,315.6,58.4,317.9z"/>
		<path class="st0" d="M59.7,311.6h2.4v4c0.4-0.7,1.2-1.1,2.1-1.1c0.6,0,1.1,0.1,1.4,0.4c0.3,0.3,0.6,0.6,0.7,1.1
			c0.1,0.4,0.1,1,0.1,1.8v5.6H64v-5.6c0-0.6-0.1-1-0.2-1.1c-0.1-0.2-0.3-0.3-0.7-0.3c-0.3,0-0.6,0.1-0.8,0.3
			c-0.2,0.2-0.3,0.6-0.3,1.2v5.5h-2.4V311.6z"/>
		<path class="st0" d="M70.5,317.4l-2.3-0.2c0.1-0.9,0.5-1.6,1.1-2c0.6-0.5,1.4-0.7,2.4-0.7c0.8,0,1.5,0.2,2,0.5
			c0.5,0.3,0.8,0.7,0.9,1.1c0.1,0.4,0.2,1.1,0.2,1.9v3.5c0,1.1,0,1.7,0.1,1.9h-2.3c-0.1-0.2-0.1-0.7-0.1-1.3c-0.5,1-1.3,1.5-2.4,1.5
			c-0.7,0-1.2-0.2-1.7-0.6c-0.4-0.4-0.6-1-0.6-1.8c0-1,0.3-1.7,1-2.3c0.6-0.5,1.8-0.9,3.5-1v-0.3c0-0.6-0.1-1-0.2-1.2
			c-0.1-0.2-0.3-0.3-0.7-0.3C70.9,316.1,70.5,316.5,70.5,317.4z M72.4,319.2c-0.7,0.1-1.2,0.2-1.5,0.5c-0.3,0.2-0.5,0.6-0.5,1.2
			c0,0.7,0.3,1.1,0.8,1.1c0.3,0,0.6-0.2,0.8-0.5c0.2-0.3,0.4-0.9,0.4-1.8V319.2z"/>
		<path class="st0" d="M77,312l2.4-0.1v2.8h1.6v1.9h-1.6v3.2c0,0.6,0,1,0,1.2c0,0.2,0.1,0.3,0.3,0.4c0.1,0.1,0.4,0.2,0.7,0.2
			c0.2,0,0.4,0,0.7,0v1.9c-0.5,0.1-1,0.2-1.5,0.2c-0.7,0-1.3-0.1-1.7-0.4c-0.4-0.3-0.6-0.6-0.8-1.1c-0.1-0.4-0.2-1.1-0.2-2v-3.5h-1
			v-1.9h1V312z"/>
	</g>
	<line class="st1" x1="-68" y1="307.5" x2="88" y2="307.5"/>
	<line class="st1" x1="-68" y1="328.5" x2="88" y2="328.5"/>
</g>
</svg>
