<?xml version="1.0" encoding="utf-8"?>
<!-- Generator: Adobe Illustrator 19.1.0, SVG Export Plug-In . SVG Version: 6.00 Build 0)  -->
<svg version="1.1" id="レイヤー_1" xmlns="http://www.w3.org/2000/svg" xmlns:xlink="http://www.w3.org/1999/xlink" x="0px"
	 y="0px" viewBox="0 0 154.1 127.3" style="enable-background:new 0 0 154.1 127.3;" xml:space="preserve">
<style type="text/css">
	.st0{fill:#FFFFFF;}
	.st1{fill:#0D3819;}
	.st2{fill:#A9CC08;}
	.st3{fill:#1F67B1;}
	.st4{fill:#4C9ED8;}
	.st5{fill:#DADBDA;}
	.st6{fill:#9A9A9A;}
	.st7{fill:#F7B300;}
	.st8{fill:url(#XMLID_2_);}
	.st9{fill:url(#XMLID_3_);}
	.st10{fill:url(#XMLID_4_);}
	.st11{fill:url(#XMLID_5_);}
	.st12{fill:url(#XMLID_6_);}
	.st13{fill:url(#XMLID_7_);}
	.st14{fill:url(#XMLID_8_);}
	.st15{fill:url(#XMLID_9_);}
	.st16{fill:url(#XMLID_10_);}
	.st17{fill:url(#XMLID_11_);}
</style>
<g id="XMLID_3944_">
	<rect id="XMLID_3910_" x="36.2" y="47.3" class="st0" width="100.9" height="61.4"/>
	<path id="XMLID_3907_" class="st1" d="M136,45.8H36.8c-1.3,0-2.4,1.1-2.4,2.4v64.2c0,1.3,1.1,2.4,2.4,2.4H136
		c1.3,0,2.4-1.1,2.4-2.4V48.2C138.4,46.9,137.4,45.8,136,45.8z M133.8,106.1H39.1V50.3h94.7V106.1z"/>
	<rect id="XMLID_3906_" x="75.2" y="114.4" class="st1" width="19.8" height="9"/>
	<rect id="XMLID_3905_" x="64.5" y="123.1" class="st1" width="40.9" height="4.2"/>
	<rect id="XMLID_3904_" x="49.8" y="72.1" class="st2" width="8" height="6.4"/>
	<rect id="XMLID_3903_" x="49.8" y="78.3" class="st3" width="8" height="13.4"/>
	<rect id="XMLID_3902_" x="49.8" y="91.8" class="st4" width="8" height="8.5"/>
	<rect id="XMLID_3901_" x="61" y="64.7" class="st2" width="8" height="25.7"/>
	<rect id="XMLID_3900_" x="61" y="89.5" class="st3" width="8" height="7"/>
	<rect id="XMLID_3899_" x="61" y="95.9" class="st4" width="8" height="4.2"/>
	<rect id="XMLID_3898_" x="72.6" y="74.7" class="st2" width="8" height="6.4"/>
	<rect id="XMLID_3897_" x="72.6" y="78.1" class="st3" width="8" height="7"/>
	<rect id="XMLID_3896_" x="72.6" y="82.9" class="st4" width="8" height="17.2"/>
	<rect id="XMLID_3895_" x="46.2" y="100.4" class="st5" width="73.7" height="0.3"/>
	<g id="XMLID_3884_">
		<path id="XMLID_3894_" class="st6" d="M51.9,69.7c0.1,0,0.2,0.1,0.3,0.1c0.3,0,0.3-0.2,0.3-0.3c0-0.2-0.2-0.3-0.4-0.3h-0.1v-0.1
			h0.1c0.1,0,0.3-0.1,0.3-0.3c0-0.1-0.1-0.2-0.3-0.2c-0.1,0-0.2,0.1-0.3,0.1L52,68.6c0.1-0.1,0.2-0.1,0.4-0.1c0.3,0,0.4,0.2,0.4,0.4
			c0,0.2-0.1,0.3-0.3,0.3v0c0.2,0,0.3,0.2,0.3,0.4c0,0.2-0.2,0.4-0.5,0.4c-0.2,0-0.3-0.1-0.4-0.1L51.9,69.7z"/>
		<path id="XMLID_3891_" class="st6" d="M54.1,69.2c0,0.5-0.2,0.8-0.5,0.8c-0.3,0-0.5-0.3-0.5-0.8c0-0.5,0.2-0.8,0.5-0.8
			C53.9,68.5,54.1,68.7,54.1,69.2z M53.3,69.2c0,0.4,0.1,0.6,0.3,0.6c0.2,0,0.3-0.2,0.3-0.6c0-0.4-0.1-0.6-0.3-0.6
			C53.4,68.6,53.3,68.8,53.3,69.2z"/>
		<path id="XMLID_3885_" class="st6" d="M54.9,68.9c0,0.3-0.2,0.5-0.4,0.5c-0.2,0-0.3-0.1-0.3-0.4c0-0.3,0.2-0.5,0.4-0.5
			C54.8,68.5,54.9,68.6,54.9,68.9z M54.4,68.9c0,0.2,0.1,0.3,0.2,0.3c0.1,0,0.2-0.1,0.2-0.3c0-0.2-0.1-0.3-0.2-0.3
			C54.4,68.6,54.4,68.7,54.4,68.9z M54.5,70l0.9-1.5h0.1L54.7,70H54.5z M55.9,69.5c0,0.3-0.2,0.5-0.4,0.5c-0.2,0-0.3-0.1-0.3-0.4
			c0-0.3,0.2-0.5,0.4-0.5C55.7,69.1,55.9,69.2,55.9,69.5z M55.3,69.5c0,0.2,0.1,0.3,0.2,0.3c0.1,0,0.2-0.1,0.2-0.3
			c0-0.2-0.1-0.3-0.2-0.3C55.4,69.2,55.3,69.3,55.3,69.5z"/>
	</g>
	<rect id="XMLID_3883_" x="84.4" y="78.7" class="st2" width="8" height="4.9"/>
	<rect id="XMLID_3882_" x="84.4" y="83.4" class="st3" width="8" height="10.3"/>
	<rect id="XMLID_3881_" x="84.4" y="93.8" class="st4" width="8" height="6.5"/>
	<rect id="XMLID_3880_" x="95.5" y="72.9" class="st2" width="8" height="19.8"/>
	<rect id="XMLID_3879_" x="95.5" y="92.1" class="st3" width="8" height="5.4"/>
	<rect id="XMLID_3878_" x="95.5" y="97" class="st4" width="8" height="3.3"/>
	<rect id="XMLID_3877_" x="119.3" y="80.7" class="st2" width="8" height="4.9"/>
	<rect id="XMLID_3876_" x="119.3" y="83.3" class="st3" width="8" height="5.4"/>
	<rect id="XMLID_3875_" x="119.3" y="87" class="st4" width="8" height="13.3"/>
	<g id="XMLID_3864_">
		<path id="XMLID_3874_" class="st6" d="M63.4,62.5c0.1,0,0.2,0.1,0.3,0.1c0.3,0,0.3-0.2,0.3-0.3c0-0.2-0.2-0.3-0.4-0.3h-0.1v-0.2
			h0.1c0.1,0,0.3-0.1,0.3-0.3c0-0.1-0.1-0.2-0.3-0.2c-0.1,0-0.2,0.1-0.3,0.1l-0.1-0.1c0.1-0.1,0.2-0.1,0.4-0.1
			c0.3,0,0.4,0.2,0.4,0.4c0,0.2-0.1,0.3-0.3,0.3v0c0.2,0,0.3,0.2,0.3,0.4c0,0.2-0.2,0.4-0.5,0.4c-0.2,0-0.3-0.1-0.4-0.1L63.4,62.5z"
			/>
		<path id="XMLID_3871_" class="st6" d="M65.6,62c0,0.5-0.2,0.8-0.5,0.8c-0.3,0-0.5-0.3-0.5-0.8c0-0.5,0.2-0.8,0.5-0.8
			C65.4,61.3,65.6,61.5,65.6,62z M64.7,62c0,0.4,0.1,0.6,0.3,0.6c0.2,0,0.3-0.2,0.3-0.6c0-0.4-0.1-0.6-0.3-0.6
			C64.9,61.4,64.7,61.6,64.7,62z"/>
		<path id="XMLID_3865_" class="st6" d="M66.4,61.7c0,0.3-0.2,0.5-0.4,0.5c-0.2,0-0.3-0.1-0.3-0.4c0-0.3,0.2-0.5,0.4-0.5
			C66.3,61.3,66.4,61.4,66.4,61.7z M65.9,61.7c0,0.2,0.1,0.3,0.2,0.3c0.1,0,0.2-0.1,0.2-0.3c0-0.2-0.1-0.3-0.2-0.3
			C65.9,61.4,65.9,61.5,65.9,61.7z M66,62.8l0.9-1.5H67l-0.9,1.5H66z M67.4,62.3c0,0.3-0.2,0.5-0.4,0.5c-0.2,0-0.3-0.1-0.3-0.4
			c0-0.3,0.2-0.5,0.4-0.5C67.2,61.9,67.4,62,67.4,62.3z M66.8,62.3c0,0.2,0.1,0.3,0.2,0.3c0.1,0,0.2-0.1,0.2-0.3
			c0-0.2-0.1-0.3-0.2-0.3C66.9,62,66.8,62.1,66.8,62.3z"/>
	</g>
	<g id="XMLID_3853_">
		<path id="XMLID_3863_" class="st6" d="M74.6,72.4c0.1,0,0.2,0.1,0.3,0.1c0.3,0,0.3-0.2,0.3-0.3c0-0.2-0.2-0.3-0.4-0.3h-0.1v-0.2
			h0.1c0.1,0,0.3-0.1,0.3-0.3c0-0.1-0.1-0.2-0.3-0.2c-0.1,0-0.2,0.1-0.3,0.1l-0.1-0.1c0.1-0.1,0.2-0.1,0.4-0.1
			c0.3,0,0.4,0.2,0.4,0.4c0,0.2-0.1,0.3-0.3,0.4v0c0.2,0,0.3,0.2,0.3,0.4c0,0.2-0.2,0.4-0.5,0.4c-0.2,0-0.3-0.1-0.4-0.1L74.6,72.4z"
			/>
		<path id="XMLID_3860_" class="st6" d="M76.7,71.9c0,0.5-0.2,0.8-0.5,0.8c-0.3,0-0.5-0.3-0.5-0.8c0-0.5,0.2-0.8,0.5-0.8
			C76.5,71.1,76.7,71.4,76.7,71.9z M75.9,71.9c0,0.4,0.1,0.6,0.3,0.6c0.2,0,0.3-0.2,0.3-0.6c0-0.4-0.1-0.6-0.3-0.6
			C76,71.3,75.9,71.5,75.9,71.9z"/>
		<path id="XMLID_3854_" class="st6" d="M77.5,71.5c0,0.3-0.2,0.5-0.4,0.5c-0.2,0-0.3-0.1-0.3-0.4c0-0.3,0.2-0.5,0.4-0.5
			C77.4,71.1,77.5,71.3,77.5,71.5z M77,71.6c0,0.2,0.1,0.3,0.2,0.3c0.1,0,0.2-0.1,0.2-0.3c0-0.2-0.1-0.3-0.2-0.3
			C77.1,71.2,77,71.4,77,71.6z M77.2,72.6l0.9-1.5h0.1l-0.9,1.5H77.2z M78.5,72.2c0,0.3-0.2,0.5-0.4,0.5c-0.2,0-0.3-0.1-0.3-0.4
			c0-0.3,0.2-0.5,0.4-0.5C78.4,71.7,78.5,71.9,78.5,72.2z M78,72.2c0,0.2,0.1,0.3,0.2,0.3c0.1,0,0.2-0.1,0.2-0.3
			c0-0.2-0.1-0.3-0.2-0.3C78,71.8,78,72,78,72.2z"/>
	</g>
	<g id="XMLID_3842_">
		<path id="XMLID_3852_" class="st6" d="M86.5,76.3c0.1,0,0.2,0.1,0.3,0.1c0.3,0,0.3-0.2,0.3-0.3c0-0.2-0.2-0.3-0.4-0.3h-0.1v-0.2
			h0.1c0.1,0,0.3-0.1,0.3-0.3c0-0.1-0.1-0.2-0.3-0.2c-0.1,0-0.2,0.1-0.3,0.1l-0.1-0.1c0.1-0.1,0.2-0.1,0.4-0.1
			c0.3,0,0.4,0.2,0.4,0.4c0,0.2-0.1,0.3-0.3,0.3v0c0.2,0,0.3,0.2,0.3,0.4c0,0.2-0.2,0.4-0.5,0.4c-0.2,0-0.3-0.1-0.4-0.1L86.5,76.3z"
			/>
		<path id="XMLID_3849_" class="st6" d="M88.6,75.7c0,0.5-0.2,0.8-0.5,0.8c-0.3,0-0.5-0.3-0.5-0.8c0-0.5,0.2-0.8,0.5-0.8
			C88.5,75,88.6,75.3,88.6,75.7z M87.8,75.8c0,0.4,0.1,0.6,0.3,0.6c0.2,0,0.3-0.2,0.3-0.6c0-0.4-0.1-0.6-0.3-0.6
			C88,75.2,87.8,75.4,87.8,75.8z"/>
		<path id="XMLID_3843_" class="st6" d="M89.5,75.4c0,0.3-0.2,0.5-0.4,0.5c-0.2,0-0.3-0.1-0.3-0.4c0-0.3,0.2-0.5,0.4-0.5
			C89.4,75,89.5,75.2,89.5,75.4z M89,75.5c0,0.2,0.1,0.3,0.2,0.3c0.1,0,0.2-0.1,0.2-0.3c0-0.2-0.1-0.3-0.2-0.3
			C89,75.1,89,75.3,89,75.5z M89.1,76.5L90,75h0.1l-0.9,1.5H89.1z M90.5,76.1c0,0.3-0.2,0.5-0.4,0.5c-0.2,0-0.3-0.1-0.3-0.4
			c0-0.3,0.2-0.5,0.4-0.5C90.3,75.6,90.5,75.8,90.5,76.1z M89.9,76.1c0,0.2,0.1,0.3,0.2,0.3c0.1,0,0.2-0.1,0.2-0.3
			c0-0.2-0.1-0.3-0.2-0.3C90,75.7,89.9,75.9,89.9,76.1z"/>
	</g>
	<g id="XMLID_3831_">
		<path id="XMLID_3841_" class="st6" d="M97.3,70.5c0.1,0,0.2,0.1,0.3,0.1c0.3,0,0.3-0.2,0.3-0.3c0-0.2-0.2-0.3-0.4-0.3h-0.1v-0.2
			h0.1c0.1,0,0.3-0.1,0.3-0.3c0-0.1-0.1-0.2-0.3-0.2c-0.1,0-0.2,0.1-0.3,0.1l-0.1-0.1c0.1-0.1,0.2-0.1,0.4-0.1
			c0.3,0,0.4,0.2,0.4,0.4c0,0.2-0.1,0.3-0.3,0.3v0c0.2,0,0.3,0.2,0.3,0.4c0,0.2-0.2,0.4-0.5,0.4c-0.2,0-0.3-0.1-0.4-0.1L97.3,70.5z"
			/>
		<path id="XMLID_3838_" class="st6" d="M99.4,70c0,0.5-0.2,0.8-0.5,0.8c-0.3,0-0.5-0.3-0.5-0.8c0-0.5,0.2-0.8,0.5-0.8
			C99.3,69.3,99.4,69.5,99.4,70z M98.6,70c0,0.4,0.1,0.6,0.3,0.6c0.2,0,0.3-0.2,0.3-0.6c0-0.4-0.1-0.6-0.3-0.6
			C98.8,69.4,98.6,69.6,98.6,70z"/>
		<path id="XMLID_3832_" class="st6" d="M100.3,69.7c0,0.3-0.2,0.5-0.4,0.5c-0.2,0-0.3-0.1-0.3-0.4c0-0.3,0.2-0.5,0.4-0.5
			C100.1,69.3,100.3,69.4,100.3,69.7z M99.7,69.7c0,0.2,0.1,0.3,0.2,0.3c0.1,0,0.2-0.1,0.2-0.3c0-0.2-0.1-0.3-0.2-0.3
			C99.8,69.4,99.7,69.5,99.7,69.7z M99.9,70.8l0.9-1.5h0.1l-0.9,1.5H99.9z M101.2,70.3c0,0.3-0.2,0.5-0.4,0.5
			c-0.2,0-0.3-0.1-0.3-0.4c0-0.3,0.2-0.5,0.4-0.5C101.1,69.9,101.2,70,101.2,70.3z M100.7,70.3c0,0.2,0.1,0.3,0.2,0.3
			c0.1,0,0.2-0.1,0.2-0.3c0-0.2-0.1-0.3-0.2-0.3C100.8,70,100.7,70.1,100.7,70.3z"/>
	</g>
	<g id="XMLID_3820_">
		<path id="XMLID_3830_" class="st6" d="M121.4,78.5c0.1,0,0.2,0.1,0.3,0.1c0.3,0,0.3-0.2,0.3-0.3c0-0.2-0.2-0.3-0.4-0.3h-0.1v-0.2
			h0.1c0.1,0,0.3-0.1,0.3-0.3c0-0.1-0.1-0.2-0.3-0.2c-0.1,0-0.2,0.1-0.3,0.1l-0.1-0.1c0.1-0.1,0.2-0.1,0.4-0.1
			c0.3,0,0.4,0.2,0.4,0.4c0,0.2-0.1,0.3-0.3,0.4v0c0.2,0,0.3,0.2,0.3,0.4c0,0.2-0.2,0.4-0.5,0.4c-0.2,0-0.3-0.1-0.4-0.1L121.4,78.5z
			"/>
		<path id="XMLID_3827_" class="st6" d="M123.5,77.9c0,0.5-0.2,0.8-0.5,0.8c-0.3,0-0.5-0.3-0.5-0.8c0-0.5,0.2-0.8,0.5-0.8
			C123.4,77.2,123.5,77.5,123.5,77.9z M122.7,78c0,0.4,0.1,0.6,0.3,0.6c0.2,0,0.3-0.2,0.3-0.6c0-0.4-0.1-0.6-0.3-0.6
			C122.9,77.3,122.7,77.6,122.7,78z"/>
		<path id="XMLID_3821_" class="st6" d="M124.4,77.6c0,0.3-0.2,0.5-0.4,0.5c-0.2,0-0.3-0.1-0.3-0.4c0-0.3,0.2-0.5,0.4-0.5
			C124.3,77.2,124.4,77.3,124.4,77.6z M123.9,77.6c0,0.2,0.1,0.3,0.2,0.3c0.1,0,0.2-0.1,0.2-0.3c0-0.2-0.1-0.3-0.2-0.3
			C123.9,77.3,123.9,77.5,123.9,77.6z M124,78.7l0.9-1.5h0.1l-0.9,1.5H124z M125.4,78.2c0,0.3-0.2,0.5-0.4,0.5
			c-0.2,0-0.3-0.1-0.3-0.4c0-0.3,0.2-0.5,0.4-0.5C125.2,77.8,125.4,78,125.4,78.2z M124.8,78.3c0,0.2,0.1,0.3,0.2,0.3
			c0.1,0,0.2-0.1,0.2-0.3c0-0.2-0.1-0.3-0.2-0.3C124.9,77.9,124.8,78.1,124.8,78.3z"/>
	</g>
	<rect id="XMLID_3819_" x="107.7" y="80.5" class="st2" width="8" height="4.9"/>
	<rect id="XMLID_3818_" x="107.7" y="83.1" class="st3" width="8" height="5.4"/>
	<rect id="XMLID_3817_" x="107.7" y="86.8" class="st4" width="8" height="13.3"/>
	<g id="XMLID_3806_">
		<path id="XMLID_3816_" class="st6" d="M109.9,78.2c0.1,0,0.2,0.1,0.3,0.1c0.3,0,0.3-0.2,0.3-0.3c0-0.2-0.2-0.3-0.4-0.3H110v-0.2
			h0.1c0.1,0,0.3-0.1,0.3-0.3c0-0.1-0.1-0.2-0.3-0.2c-0.1,0-0.2,0.1-0.3,0.1l-0.1-0.1c0.1-0.1,0.2-0.1,0.4-0.1
			c0.3,0,0.4,0.2,0.4,0.4c0,0.2-0.1,0.3-0.3,0.3v0c0.2,0,0.3,0.2,0.3,0.4c0,0.2-0.2,0.4-0.5,0.4c-0.2,0-0.3-0.1-0.4-0.1L109.9,78.2z
			"/>
		<path id="XMLID_3813_" class="st6" d="M112,77.7c0,0.5-0.2,0.8-0.5,0.8c-0.3,0-0.5-0.3-0.5-0.8c0-0.5,0.2-0.8,0.5-0.8
			C111.8,77,112,77.2,112,77.7z M111.2,77.7c0,0.4,0.1,0.6,0.3,0.6c0.2,0,0.3-0.2,0.3-0.6c0-0.4-0.1-0.6-0.3-0.6
			C111.3,77.1,111.2,77.3,111.2,77.7z"/>
		<path id="XMLID_3807_" class="st6" d="M112.8,77.4c0,0.3-0.2,0.5-0.4,0.5c-0.2,0-0.3-0.1-0.3-0.4c0-0.3,0.2-0.5,0.4-0.5
			C112.7,77,112.8,77.1,112.8,77.4z M112.3,77.4c0,0.2,0.1,0.3,0.2,0.3c0.1,0,0.2-0.1,0.2-0.3c0-0.2-0.1-0.3-0.2-0.3
			C112.4,77.1,112.3,77.2,112.3,77.4z M112.5,78.5l0.9-1.5h0.1l-0.9,1.5H112.5z M113.8,78c0,0.3-0.2,0.5-0.4,0.5
			c-0.2,0-0.3-0.1-0.3-0.4c0-0.3,0.2-0.5,0.4-0.5C113.7,77.6,113.8,77.7,113.8,78z M113.3,78c0,0.2,0.1,0.3,0.2,0.3
			c0.1,0,0.2-0.1,0.2-0.3c0-0.2-0.1-0.3-0.2-0.3C113.3,77.7,113.3,77.9,113.3,78z"/>
	</g>
	<path id="XMLID_3805_" class="st3" d="M151.7,38.2c-0.4-4.1-3.7-7.7-8.4-8.9c-3.5-0.8-7,0-9.5,1.9c-0.7-0.4-1.5-0.8-2.4-1
		c-4.1-1-8.2,1.4-9.1,5.2c-0.3,1.1-0.2,2.2,0,3.2c-0.4,0.3-0.7,0.7-1,1c-2.9,0.3-5.3,2.3-6,5.3c-0.9,3.7,1.4,7.4,5.2,8.3
		c0.5,0.1,1,0.2,1.4,0.2c1.6,1.6,3.7,2.9,6.1,3.5c2.4,0.6,4.9,0.4,7-0.3c-0.4,2.4-1.8,4.6-3.9,6.1c0.4-0.1,0.9-0.2,1.3-0.3
		c3.5-1.2,6.1-3.9,7-7.1c0.6,0.4,1.3,0.7,2.1,0.9c3.5,0.8,6.9-1.2,7.7-4.5c0.1-0.2,0.1-0.4,0.1-0.7c2.3-0.9,4.1-2.9,4.7-5.4
		C154.6,42.8,153.6,40.1,151.7,38.2z"/>
	<path id="XMLID_3804_" class="st7" d="M97,49.4c0,3-2.8,5.5-6.2,5.5h-2.5l-0.5,6.6l-8.7-6.6h-7.2c-3.4,0-6.2-2.5-6.2-5.5V37.3
		c0-3,2.8-5.5,6.2-5.5h18.9c3.4,0,6.2,2.5,6.2,5.5V49.4L97,49.4z"/>
	<path id="XMLID_3803_" class="st4" d="M48.7,12.4c0,2.1,1.9,3.9,4.3,3.9h1.7l0.3,4.6l6-4.6h5c2.4,0,4.3-1.7,4.3-3.9V3.9
		C70.2,1.7,68.3,0,66,0H53c-2.4,0-4.3,1.7-4.3,3.9V12.4L48.7,12.4z"/>
	<g id="XMLID_3792_">
		<path id="XMLID_3796_" class="st0" d="M87.4,45.6c0-0.2-0.2-0.4-0.4-0.4H75.2c-0.2,0-0.4,0.2-0.4,0.4l-1.4,4.2
			c0,0.2,0.2,0.4,0.4,0.4h14.7c0.2,0,0.4-0.2,0.4-0.4L87.4,45.6z M76.1,45.9H86c0.2,0,0.3,0.1,0.3,0.2s-0.1,0.2-0.3,0.2h-9.8
			c-0.2,0-0.3-0.1-0.3-0.2S76,45.9,76.1,45.9z M76,46.5h10.2c0.2,0,0.3,0.1,0.3,0.2c0,0.1-0.1,0.2-0.3,0.2H76
			c-0.2,0-0.3-0.1-0.3-0.2C75.7,46.6,75.8,46.5,76,46.5z M75.8,47.1h10.6c0.2,0,0.3,0.1,0.3,0.2c0,0.1-0.1,0.2-0.3,0.2H75.8
			c-0.2,0-0.3-0.1-0.3-0.2C75.4,47.1,75.6,47.1,75.8,47.1z M79.9,49.3l0.4-1h1.9l0.4,1H79.9z M86.6,48h-11c-0.2,0-0.3-0.1-0.3-0.2
			c0-0.1,0.1-0.2,0.3-0.2h11c0.2,0,0.3,0.1,0.3,0.2C86.9,47.9,86.8,48,86.6,48z"/>
		<path id="XMLID_3793_" class="st0" d="M87,36.9H75.3c-0.2,0-0.4,0.2-0.4,0.4v7.1c0,0.2,0.2,0.4,0.4,0.4H87c0.2,0,0.4-0.2,0.4-0.4
			v-7.1C87.4,37.1,87.2,36.9,87,36.9z M86.7,44h-11v-6.3h11V44L86.7,44z"/>
	</g>
	<linearGradient id="XMLID_2_" gradientUnits="userSpaceOnUse" x1="0" y1="37.6905" x2="59.3574" y2="37.6905">
		<stop  offset="0" style="stop-color:#3094B4"/>
		<stop  offset="1" style="stop-color:#0080AA"/>
	</linearGradient>
	<path id="XMLID_3791_" class="st8" d="M49.9,23.9c-1-0.2-2-0.2-3-0.2c-1.4-5-6.1-9.2-12.1-10.2c-6.7-1.2-13.1,1.8-15.8,6.9
		c-1.1-0.6-2.2-1-3.5-1.2c-5.9-1-11.4,2.5-12.4,8c-0.5,3,0.4,6,2.4,8.2c-2.7,1.3-4.8,3.8-5.3,7C-0.8,47.7,2.7,52.7,8,53.7
		c2.3,0.4,4.5,0,6.4-1.1c2.2,1.8,5,3.1,8.1,3.7c3.5,0.6,7,0.2,10-1.1c-1.5,3.2-4.5,5.7-8.1,6.8c0.6,0.1,1.2,0.1,1.9,0.1
		c5.9,0,11-3.2,13.3-7.9c0.5,0.2,1,0.3,1.6,0.4c4.9,0.9,9.6-2.2,10.4-6.9c0.1-0.8,0.2-1.6,0.1-2.4c3.8-1.2,6.8-4.4,7.5-8.5
		C60.3,30.8,56.1,25,49.9,23.9z"/>
	<path id="XMLID_3790_" class="st0" d="M21.4,34.4c-0.2-0.5-0.3-1-0.3-1.5c-0.3-3.5,2.2-6.7,5.6-7.1c2.8-0.3,5.3,1.4,6.4,3.9
		c0.7-0.6,1.6-1,2.6-1c2.5-0.1,4.5,1.9,4.6,4.4c0,0.4,0,0.8-0.1,1.1c2,0.2,3.6,2,3.7,4.3c0.1,2.4-1.7,4.5-4,4.6
		c-0.3,0-0.5,0-0.8-0.1l-16.3,0.6c-0.3,0.1-0.6,0.1-0.8,0.1c-2.5,0.1-4.6-1.9-4.7-4.5C17.2,36.7,19,34.6,21.4,34.4z"/>
	<g id="XMLID_3773_">
		<path id="XMLID_3789_" class="st0" d="M60,10.5v2.2c0.6-0.2,1.1-0.9,1.5-1.8C61,10.7,60.5,10.5,60,10.5z"/>
		<path id="XMLID_3788_" class="st0" d="M61.9,8.3H60V10c0.6,0,1.1,0.2,1.6,0.4C61.8,9.8,61.9,9.1,61.9,8.3z"/>
		<path id="XMLID_3787_" class="st0" d="M60,6.3v1.6h1.9c0-0.7-0.1-1.4-0.3-2C61.1,6.1,60.6,6.2,60,6.3z"/>
		<path id="XMLID_3786_" class="st0" d="M59.6,12.7v-2.2c-0.6,0-1.1,0.1-1.6,0.3C58.3,11.8,58.9,12.5,59.6,12.7z"/>
		<path id="XMLID_3785_" class="st0" d="M57.5,7.9h2V6.3c-0.6,0-1.2-0.1-1.7-0.3C57.7,6.5,57.6,7.2,57.5,7.9z"/>
		<path id="XMLID_3784_" class="st0" d="M60,3.8v2c0.5,0,1-0.1,1.4-0.3C61.1,4.6,60.6,4,60,3.8z"/>
		<path id="XMLID_3783_" class="st0" d="M59.6,5.8v-2c-0.6,0.1-1.2,0.8-1.5,1.7C58.5,5.6,59,5.7,59.6,5.8z"/>
		<path id="XMLID_3782_" class="st0" d="M57.8,10.3c0.5-0.2,1.1-0.3,1.8-0.4V8.3h-2C57.5,9.1,57.6,9.7,57.8,10.3z"/>
		<path id="XMLID_3781_" class="st0" d="M57.3,10.6C57.1,9.9,57,9.1,57,8.3h-2c0,1.2,0.5,2.2,1.2,3C56.5,11,56.9,10.8,57.3,10.6z"/>
		<path id="XMLID_3780_" class="st0" d="M60.8,3.5c0.5,0.3,0.8,0.9,1.1,1.7c0.3-0.2,0.6-0.4,0.9-0.7C62.2,4,61.5,3.7,60.8,3.5z"/>
		<path id="XMLID_3779_" class="st0" d="M62.4,8.3c0,0.8-0.1,1.6-0.3,2.3c0.4,0.2,0.8,0.5,1.2,0.9c0.8-0.8,1.3-1.9,1.3-3.1L62.4,8.3
			L62.4,8.3z"/>
		<path id="XMLID_3778_" class="st0" d="M57.5,5.2c0.3-0.7,0.7-1.3,1.1-1.6c-0.7,0.2-1.4,0.5-2,1C56.9,4.8,57.2,5.1,57.5,5.2z"/>
		<path id="XMLID_3777_" class="st0" d="M62.1,5.7c0.2,0.7,0.3,1.4,0.3,2.2h2.2c-0.1-1.2-0.6-2.2-1.4-3C62.9,5.2,62.5,5.5,62.1,5.7z
			"/>
		<path id="XMLID_3776_" class="st0" d="M57,7.9c0-0.8,0.1-1.5,0.3-2.2C57,5.5,56.6,5.3,56.3,5c-0.7,0.8-1.2,1.8-1.3,2.9H57L57,7.9z
			"/>
		<path id="XMLID_3775_" class="st0" d="M62,11.1c-0.3,0.8-0.7,1.4-1.1,1.8c0.8-0.2,1.5-0.5,2.1-1C62.6,11.5,62.3,11.3,62,11.1z"/>
		<path id="XMLID_3774_" class="st0" d="M57.5,11.1c-0.3,0.2-0.6,0.4-0.9,0.7c0.6,0.5,1.2,0.9,2,1.1C58.1,12.4,57.7,11.8,57.5,11.1z
			"/>
	</g>
	<g id="XMLID_3769_">
		<path id="XMLID_3772_" class="st2" d="M67.4,27.6c0.4,0,0.7,0.3,0.7,0.7c0,0.4-0.3,0.7-0.7,0.7c-0.4,0-0.7-0.3-0.7-0.7
			C66.7,28,67,27.6,67.4,27.6z"/>
		<path id="XMLID_3771_" class="st2" d="M69.1,29h1.3c0-2.1-1.6-3.7-3.6-3.7v1.4C68.1,26.6,69.1,27.7,69.1,29z"/>
		<path id="XMLID_3770_" class="st2" d="M67,24.3c2.5,0,4.5,2.1,4.5,4.6c0,0,0,0.1,0,0.1h1.4c0-3.5-2.7-6.3-6.1-6.3v1.6
			C66.9,24.3,66.9,24.3,67,24.3z"/>
	</g>
	<linearGradient id="XMLID_3_" gradientUnits="userSpaceOnUse" x1="104.7468" y1="32.8091" x2="113.4509" y2="32.8091">
		<stop  offset="0" style="stop-color:#3094B4"/>
		<stop  offset="1" style="stop-color:#0080AA"/>
	</linearGradient>
	<path id="XMLID_3768_" class="st9" d="M105.6,34.9c0.6-0.6,2.3-0.8,2.5-1.2c0-0.1,0.2-0.3,0.2-0.5c0-0.1,0-0.2,0-0.3
		c-1.1,0-1.8,0.1-1.8,0.1s0.9-0.3,1.3-2.3c0-0.3,0-0.6,0.1-1.1c0.1-0.9,0.8-1.2,1.2-1.3c0.3-0.1,0.6-0.1,0.8,0
		c0.3,0,0.5,0.1,0.8,0.3c0.6,0.3,0.6,0.9,0.6,1.3c0,0.2,0,0.4,0,0.7c0.1,1.8,1.1,2.8,1.1,2.8s-0.7-0.1-1.8-0.2c0,0.2,0,0.3,0,0.4
		c0.1,0.4,1.2,0.8,1.9,1.5c1,0.6,1.1,2.3,1.1,2.3l-8.7-0.3C104.7,37,104.9,35.5,105.6,34.9z"/>
	<linearGradient id="XMLID_4_" gradientUnits="userSpaceOnUse" x1="80.777" y1="16.3515" x2="90.2341" y2="16.3515">
		<stop  offset="0" style="stop-color:#14A2B9"/>
		<stop  offset="0.9939" style="stop-color:#089EB6"/>
	</linearGradient>
	<circle id="XMLID_3767_" class="st10" cx="85.5" cy="16.4" r="4.7"/>
	<linearGradient id="XMLID_5_" gradientUnits="userSpaceOnUse" x1="92.7546" y1="16.3515" x2="102.2106" y2="16.3515">
		<stop  offset="0" style="stop-color:#14A2B9"/>
		<stop  offset="0.9939" style="stop-color:#089EB6"/>
	</linearGradient>
	<circle id="XMLID_3766_" class="st11" cx="97.5" cy="16.4" r="4.7"/>
	<linearGradient id="XMLID_6_" gradientUnits="userSpaceOnUse" x1="104.9177" y1="16.3515" x2="114.3737" y2="16.3515">
		<stop  offset="0" style="stop-color:#14A2B9"/>
		<stop  offset="0.9939" style="stop-color:#089EB6"/>
	</linearGradient>
	<circle id="XMLID_3765_" class="st12" cx="109.6" cy="16.4" r="4.7"/>
	<linearGradient id="XMLID_7_" gradientUnits="userSpaceOnUse" x1="116.737" y1="16.3515" x2="126.194" y2="16.3515">
		<stop  offset="0" style="stop-color:#14A2B9"/>
		<stop  offset="0.9939" style="stop-color:#089EB6"/>
	</linearGradient>
	<circle id="XMLID_3764_" class="st13" cx="121.5" cy="16.4" r="4.7"/>
	<path id="XMLID_3763_" class="st0" d="M106.4,12.9c-0.8,0.9-1.4,2.2-1.4,3.6h4.7L106.4,12.9z"/>
	<path id="XMLID_3762_" class="st0" d="M85.7,11.6V21c2.5-0.1,4.5-2.2,4.5-4.7S88.3,11.7,85.7,11.6z"/>
	<linearGradient id="XMLID_8_" gradientUnits="userSpaceOnUse" x1="82.6169" y1="18.8657" x2="85.7839" y2="18.8657">
		<stop  offset="0" style="stop-color:#14A2B9"/>
		<stop  offset="0.9939" style="stop-color:#089EB6"/>
	</linearGradient>
	<path id="XMLID_3761_" class="st14" d="M82.6,19.8c0.8,0.8,1.9,1.3,3.2,1.4v-4.6L82.6,19.8z"/>
	<linearGradient id="XMLID_9_" gradientUnits="userSpaceOnUse" x1="97.611" y1="16.3154" x2="102.154" y2="16.3154">
		<stop  offset="0" style="stop-color:#14A2B9"/>
		<stop  offset="0.9939" style="stop-color:#089EB6"/>
	</linearGradient>
	<path id="XMLID_3760_" class="st15" d="M97.6,11.6V21c2.5-0.1,4.5-2.2,4.5-4.7S100.1,11.7,97.6,11.6z"/>
	<path id="XMLID_3759_" class="st0" d="M92.9,16.5c0.1,2.5,2.2,4.5,4.8,4.6v-4.6H92.9z"/>
	<linearGradient id="XMLID_10_" gradientUnits="userSpaceOnUse" x1="109.7458" y1="16.3154" x2="114.2858" y2="16.3154">
		<stop  offset="0" style="stop-color:#14A2B9"/>
		<stop  offset="0.9939" style="stop-color:#089EB6"/>
	</linearGradient>
	<path id="XMLID_3758_" class="st16" d="M109.7,11.6V21c2.5-0.1,4.5-2.2,4.5-4.7C114.3,13.8,112.3,11.7,109.7,11.6z"/>
	<linearGradient id="XMLID_11_" gradientUnits="userSpaceOnUse" x1="104.9167" y1="18.769" x2="109.7165" y2="18.769">
		<stop  offset="0" style="stop-color:#14A2B9"/>
		<stop  offset="0.9939" style="stop-color:#089EB6"/>
	</linearGradient>
	<path id="XMLID_3757_" class="st17" d="M104.9,16.5c0.1,2.5,2.2,4.5,4.8,4.6v-4.6H104.9z"/>
	<g id="XMLID_3741_">
		<path id="XMLID_3751_" class="st0" d="M83.6,9.2V9l0.2-0.2c0.5-0.5,0.7-0.7,0.7-1c0-0.2-0.1-0.4-0.4-0.4c-0.2,0-0.3,0.1-0.4,0.2
			l-0.1-0.2c0.1-0.1,0.3-0.2,0.6-0.2c0.4,0,0.6,0.3,0.6,0.6c0,0.4-0.3,0.7-0.7,1.1L84,9v0h0.9v0.2H83.6L83.6,9.2z"/>
		<path id="XMLID_3748_" class="st0" d="M86.5,8.2c0,0.7-0.2,1-0.7,1c-0.4,0-0.7-0.4-0.7-1c0-0.7,0.3-1,0.7-1
			C86.3,7.2,86.5,7.6,86.5,8.2z M85.4,8.2c0,0.5,0.2,0.8,0.4,0.8c0.3,0,0.4-0.3,0.4-0.8c0-0.5-0.1-0.8-0.4-0.8
			C85.6,7.4,85.4,7.7,85.4,8.2z"/>
		<path id="XMLID_3742_" class="st0" d="M87.6,7.8c0,0.4-0.2,0.6-0.5,0.6c-0.2,0-0.5-0.2-0.5-0.6c0-0.4,0.2-0.6,0.5-0.6
			C87.4,7.2,87.6,7.4,87.6,7.8z M86.9,7.8c0,0.3,0.1,0.4,0.3,0.4c0.2,0,0.3-0.2,0.3-0.5c0-0.2-0.1-0.4-0.3-0.4
			C87,7.3,86.9,7.5,86.9,7.8z M87.1,9.2l1.2-2h0.2l-1.2,2H87.1z M88.9,8.6c0,0.4-0.2,0.6-0.5,0.6C88.2,9.2,88,9,88,8.6
			C88,8.2,88.2,8,88.5,8C88.7,8,88.9,8.2,88.9,8.6z M88.2,8.6c0,0.3,0.1,0.4,0.3,0.4c0.2,0,0.3-0.2,0.3-0.5c0-0.2-0.1-0.4-0.3-0.4
			C88.3,8.2,88.2,8.4,88.2,8.6z"/>
	</g>
	<g id="XMLID_3730_">
		<path id="XMLID_3740_" class="st0" d="M94.9,9.3V9.1l0.2-0.2c0.5-0.5,0.7-0.7,0.7-1c0-0.2-0.1-0.4-0.4-0.4c-0.2,0-0.3,0.1-0.4,0.2
			L95,7.4c0.1-0.1,0.3-0.2,0.6-0.2c0.4,0,0.6,0.3,0.6,0.6c0,0.4-0.3,0.7-0.7,1.1L95.3,9v0h0.9v0.2H94.9L94.9,9.3z"/>
		<path id="XMLID_3737_" class="st0" d="M97.8,8.2c0,0.7-0.2,1-0.7,1c-0.4,0-0.6-0.4-0.7-1c0-0.7,0.3-1,0.7-1
			C97.6,7.2,97.8,7.6,97.8,8.2z M96.7,8.3c0,0.5,0.2,0.8,0.4,0.8c0.3,0,0.4-0.3,0.4-0.8c0-0.5-0.1-0.8-0.4-0.8
			C96.9,7.4,96.7,7.7,96.7,8.3z"/>
		<path id="XMLID_3731_" class="st0" d="M99,7.8c0,0.4-0.2,0.6-0.5,0.6c-0.2,0-0.5-0.2-0.5-0.6c0-0.4,0.2-0.6,0.5-0.6
			C98.8,7.2,99,7.5,99,7.8z M98.2,7.9c0,0.3,0.1,0.4,0.3,0.4c0.2,0,0.3-0.2,0.3-0.5c0-0.2-0.1-0.4-0.3-0.4
			C98.3,7.4,98.2,7.6,98.2,7.9z M98.5,9.3l1.2-2h0.2l-1.2,2H98.5z M100.2,8.7c0,0.4-0.2,0.6-0.5,0.6c-0.2,0-0.5-0.2-0.5-0.6
			c0-0.4,0.2-0.6,0.5-0.6C100.1,8.1,100.2,8.3,100.2,8.7z M99.5,8.7c0,0.3,0.1,0.4,0.3,0.4c0.2,0,0.3-0.2,0.3-0.5
			c0-0.2-0.1-0.4-0.3-0.4C99.6,8.2,99.5,8.4,99.5,8.7z"/>
	</g>
	<g id="XMLID_3719_">
		<path id="XMLID_3729_" class="st0" d="M107.2,9.2V9l0.2-0.2c0.5-0.5,0.7-0.7,0.7-1c0-0.2-0.1-0.4-0.4-0.4c-0.2,0-0.3,0.1-0.4,0.2
			l-0.1-0.2c0.1-0.1,0.3-0.2,0.6-0.2c0.4,0,0.6,0.3,0.6,0.6c0,0.4-0.3,0.7-0.7,1.1L107.6,9v0h0.9v0.2H107.2z"/>
		<path id="XMLID_3726_" class="st0" d="M110.1,8.2c0,0.7-0.2,1-0.7,1c-0.4,0-0.6-0.4-0.7-1c0-0.7,0.3-1,0.7-1
			C109.9,7.2,110.1,7.5,110.1,8.2z M109,8.2c0,0.5,0.2,0.8,0.4,0.8c0.3,0,0.4-0.3,0.4-0.8c0-0.5-0.1-0.8-0.4-0.8
			C109.2,7.4,109,7.7,109,8.2z"/>
		<path id="XMLID_3720_" class="st0" d="M111.2,7.8c0,0.4-0.2,0.6-0.5,0.6c-0.2,0-0.5-0.2-0.5-0.6c0-0.4,0.2-0.6,0.5-0.6
			C111.1,7.2,111.2,7.4,111.2,7.8z M110.5,7.8c0,0.3,0.1,0.4,0.3,0.4c0.2,0,0.3-0.2,0.3-0.5c0-0.2-0.1-0.4-0.3-0.4
			C110.6,7.3,110.5,7.5,110.5,7.8z M110.7,9.2l1.2-2h0.2l-1.2,2H110.7z M112.5,8.6c0,0.4-0.2,0.6-0.5,0.6c-0.2,0-0.5-0.2-0.5-0.6
			c0-0.4,0.2-0.6,0.5-0.6C112.4,8,112.5,8.2,112.5,8.6z M111.8,8.6c0,0.3,0.1,0.4,0.3,0.4c0.2,0,0.3-0.2,0.3-0.5
			c0-0.2-0.1-0.4-0.3-0.4C111.9,8.1,111.8,8.3,111.8,8.6z"/>
	</g>
	<g id="XMLID_3708_">
		<path id="XMLID_3718_" class="st0" d="M119.8,9.4V9.2L120,9c0.5-0.5,0.7-0.7,0.7-1c0-0.2-0.1-0.4-0.4-0.4c-0.2,0-0.3,0.1-0.4,0.2
			l-0.1-0.2c0.1-0.1,0.3-0.2,0.6-0.2c0.4,0,0.6,0.3,0.6,0.6c0,0.4-0.3,0.7-0.7,1.1l-0.2,0.1v0h0.9v0.2H119.8L119.8,9.4z"/>
		<path id="XMLID_3715_" class="st0" d="M122.7,8.4c0,0.7-0.3,1-0.7,1c-0.4,0-0.6-0.4-0.7-1c0-0.7,0.3-1,0.7-1
			C122.4,7.4,122.7,7.8,122.7,8.4z M121.6,8.4c0,0.5,0.2,0.8,0.4,0.8c0.3,0,0.4-0.3,0.4-0.8c0-0.5-0.1-0.8-0.4-0.8
			C121.8,7.6,121.6,7.9,121.6,8.4z"/>
		<path id="XMLID_3709_" class="st0" d="M123.8,8c0,0.4-0.2,0.6-0.5,0.6c-0.2,0-0.5-0.2-0.5-0.6c0-0.4,0.2-0.6,0.5-0.6
			C123.6,7.4,123.8,7.6,123.8,8z M123.1,8c0,0.3,0.1,0.4,0.3,0.4c0.2,0,0.3-0.2,0.3-0.5c0-0.2-0.1-0.4-0.3-0.4
			C123.2,7.6,123.1,7.7,123.1,8z M123.3,9.4l1.2-2h0.2l-1.2,2H123.3z M125.1,8.8c0,0.4-0.2,0.6-0.5,0.6c-0.2,0-0.5-0.2-0.5-0.6
			c0-0.4,0.2-0.6,0.5-0.6C124.9,8.2,125.1,8.4,125.1,8.8z M124.4,8.8c0,0.3,0.1,0.4,0.3,0.4c0.2,0,0.3-0.2,0.3-0.5
			c0-0.2-0.1-0.4-0.3-0.4C124.5,8.4,124.4,8.6,124.4,8.8z"/>
	</g>
	<path id="XMLID_3693_" class="st0" d="M136.9,35.4l-0.4-0.9c-0.2-0.5-0.8-0.7-1.3-0.5c-0.5,0.2-0.7,0.8-0.5,1.2l0.2,0.4l-4.3,1.8
		c-1.2,0.5-1.6,1.9-1,3.3l3.9,8.9c0.6,1.3,2,2,3.2,1.6l4.8-2c1.2-0.5,1.6-1.9,1.1-3.3l-3.9-8.9C138.2,36.2,137.5,35.6,136.9,35.4z
		 M130.6,40.5c-0.4-0.8-0.1-1.7,0.6-2l4.6-1.9c0.7-0.3,1.6,0.1,1.9,1l1.1,2.6c0.4,0.8,0.1,1.7-0.6,2l-4.6,1.9
		c-0.7,0.3-1.6-0.1-1.9-1L130.6,40.5z M133.4,47.3c0-0.1,0-0.2,0.1-0.3l1.1-0.5c0.1,0,0.2,0,0.3,0.1l0.3,0.6c0,0.1,0,0.2-0.1,0.3
		L134,48c-0.1,0-0.2,0-0.3-0.1L133.4,47.3z M135.9,48.9c0,0.1,0,0.2-0.1,0.3l-1.1,0.5c-0.1,0-0.2,0-0.3-0.1l-0.3-0.6
		c0-0.1,0-0.2,0.1-0.3l1.1-0.5c0.1,0,0.2,0,0.3,0.1L135.9,48.9z M134.5,45.7c0,0.1,0,0.2-0.1,0.3l-1.1,0.5c-0.1,0-0.2,0-0.3-0.1
		l-0.3-0.6c0-0.1,0-0.2,0.1-0.3l1.1-0.5c0.1,0,0.2,0,0.3,0.1L134.5,45.7z M135.4,46.4c0-0.1,0-0.2,0.1-0.3l1.1-0.5
		c0.1,0,0.2,0,0.3,0.1l0.3,0.6c0,0.1,0,0.2-0.1,0.3l-1.1,0.5c-0.1,0-0.2,0-0.3-0.1L135.4,46.4z M137.8,48c0,0.1,0,0.2-0.1,0.3
		l-1.1,0.5c-0.1,0-0.2,0-0.3-0.1l-0.3-0.6c0-0.1,0-0.2,0.1-0.3l1.1-0.5c0.1,0,0.2,0,0.3,0.1L137.8,48z M136.4,44.9
		c0,0.1,0,0.2-0.1,0.3l-1.1,0.5c-0.1,0-0.2,0-0.3-0.1l-0.3-0.6c0-0.1,0-0.2,0.1-0.3l1.1-0.5c0.1,0,0.2,0,0.3,0.1L136.4,44.9z
		 M137.2,45.7c0-0.1,0-0.2,0.1-0.3l1.1-0.5c0.1,0,0.2,0,0.3,0.1l0.3,0.6c0,0.1,0,0.2-0.1,0.3l-1.1,0.5c-0.1,0-0.2,0-0.3-0.1
		L137.2,45.7z M139.7,47.3c0,0.1,0,0.2-0.1,0.3l-1.1,0.5c-0.1,0-0.2,0-0.3-0.1l-0.3-0.6c0-0.1,0-0.2,0.1-0.3l1.1-0.5
		c0.1,0,0.2,0,0.3,0.1L139.7,47.3z M138.3,44.1c0,0.1,0,0.2-0.1,0.3l-1.1,0.5c-0.1,0-0.2,0-0.3-0.1l-0.3-0.6c0-0.1,0-0.2,0.1-0.3
		l1.1-0.5c0.1,0,0.2,0,0.3,0.1L138.3,44.1z M139.1,44.9c0-0.1,0-0.2,0.1-0.3l1.1-0.5c0.1,0,0.2,0,0.3,0.1l0.3,0.6
		c0,0.1,0,0.2-0.1,0.3l-1.1,0.5c-0.1,0-0.2,0-0.3-0.1L139.1,44.9z M141.6,46.5c0,0.1,0,0.2-0.1,0.3l-1.1,0.5c-0.1,0-0.2,0-0.3-0.1
		l-0.3-0.6c0-0.1,0-0.2,0.1-0.3l1.1-0.5c0.1,0,0.2,0,0.3,0.1L141.6,46.5z M140.2,43.3c0,0.1,0,0.2-0.1,0.3L139,44
		c-0.1,0-0.2,0-0.3-0.1l-0.3-0.6c0-0.1,0-0.2,0.1-0.3l1.1-0.5c0.1,0,0.2,0,0.3,0.1L140.2,43.3z"/>
</g>
</svg>
