<svg id="レイヤー_1" xmlns="http://www.w3.org/2000/svg" viewBox="0 0 151.6 167.3"><style>.st0{opacity:0.45;} .st1{fill:#FFFFFF;} .st2{fill:#F4A100;} .st3{fill:#C60946;} .st4{fill:#00528E;} .st5{fill:#F8D800;} .st6{fill:#4C9ED8;} .st7{fill:#34B9CE;} .st8{fill:url(#XMLID_2_);} .st9{fill:url(#XMLID_3_);} .st10{fill:#BA2583;} .st11{fill:url(#XMLID_4_);} .st12{fill:#A9CC08;} .st13{fill:#1F67B1;} .st14{fill:url(#XMLID_5_);} .st15{fill:#005978;} .st16{fill:#BA007E;} .st17{opacity:0.9;fill:#A5D4D1;} .st18{fill:url(#XMLID_6_);} .st19{fill:url(#XMLID_7_);} .st20{fill:url(#XMLID_8_);} .st21{fill:url(#XMLID_9_);} .st22{fill:url(#XMLID_10_);} .st23{fill:url(#XMLID_11_);} .st24{fill:url(#XMLID_12_);} .st25{fill:#C81626;} .st26{fill:#41A836;} .st27{fill:url(#XMLID_13_);} .st28{fill:url(#XMLID_14_);} .st29{fill:url(#XMLID_15_);} .st30{opacity:0.5;fill:#FFFFFF;} .st31{fill:#B5CF00;} .st32{fill:url(#XMLID_16_);} .st33{fill:#F7D000;} .st34{fill:url(#XMLID_17_);} .st35{fill:none;stroke:#0075AF;stroke-miterlimit:10;} .st36{fill:none;stroke:#0075AF;stroke-miterlimit:10;stroke-dasharray:4.0305,4.0305;} .st37{fill:none;stroke:#FADF00;stroke-miterlimit:10;stroke-dasharray:4,4;} .st38{fill:none;stroke:#004078;stroke-miterlimit:10;stroke-dasharray:4,4;} .st39{fill:none;stroke:#16A5C0;stroke-miterlimit:10;stroke-dasharray:4,4;} .st40{fill:none;stroke:#84BB24;stroke-miterlimit:10;stroke-dasharray:4,4;} .st41{fill:none;stroke:#DE164F;stroke-miterlimit:10;stroke-dasharray:4,4;} .st42{fill:none;stroke:#7F1667;stroke-miterlimit:10;stroke-dasharray:4,4;} .st43{fill:none;stroke:#CC3B8D;stroke-miterlimit:10;stroke-dasharray:4,4;} .st44{fill:#FAD211;} .st45{fill:#318ECE;} .st46{fill:#D53088;} .st47{fill:#4DA235;} .st48{fill:#B65EA0;} .st49{fill:#F9DCB7;} .st50{opacity:0.82;fill:#003A61;enable-background:new ;} .st51{fill:#ECA500;}</style><g id="XMLID_13316_"><g id="XMLID_26947_" class="st0"><path id="XMLID_27184_" class="st1" d="M124.9 108.8l2.7 1.4 3.9-7.6-2.7-1.4.7-1.5-33.5-17-5.4 10.7 33.6 17 .7-1.6zm.7-6.4l-.6 1.2-2-1 .6-1.2 2 1zm-2.7-1.4l-.6 1.2-2-1 .6-1.2 2 1zm3.8-.7l-.6 1.2-2-1 .6-1.2 2 1zm-2.8-1.4l-.6 1.2-2-1 .6-1.2 2 1zm-13.7-5.5l.6-1.2 2 1-.6 1.2-2-1zm2.8 1.4l.6-1.2 2 1-.6 1.2-2-1zm2.7 1.4l.6-1.2 2 1-.6 1.2-2-1zm2.8 1.4l.6-1.2 2 1-.6 1.2-2-1zm-9.4-2l.6-1.2 2 1-.6 1.2-2-1zm2.8 1.4l.6-1.2 2 1-.6 1.2-2-1zm2.8 1.4l.6-1.2 2 1-.6 1.2-2-1zm2.7 1.4l.6-1.2 2 1-.6 1.2-2-1z"/><path id="XMLID_27170_" class="st1" d="M108.2 104.3l-16.9-14-5.2 6.2 16.8 13.9 5.3-6.1zm-4.6 2.4l-1 1.2-1.1-.9 1-1.2 1.1.9zm-1.5-1.3l-1 1.2-1.1-.9 1-1.2 1.1.9zm3.3-.9l-1 1.2-1.1-.9 1-1.2 1.1.9zm-1.5-1.2l-1 1.2-1.1-.9 1-1.2 1.1.9zm-8.3-4.8l1-1.2 1.1.9-1 1.2-1.1-.9zm1.5 1.2l1-1.2 1.1.9-1 1.2-1.1-.9zm1.6 1.3l1-1.2 1.1.9-1 1.2-1.1-.9zm1.5 1.3l1-1.2 1.1.9-1 1.2-1.1-.9zm-6.4-1.7l1-1.2 1.1.9-1 1.2-1.1-.9zm1.5 1.3l1-1.2 1.1.9-1 1.2-1.1-.9zm1.6 1.3l1-1.2 1.1.9-1 1.2-1.1-.9zm1.5 1.2l1-1.2 1.1.9-1 1.2-1.1-.9z"/><path id="XMLID_27162_" class="st1" d="M91.5 32.8L80.1 55.3l7.8 3.9 4.6-9.3 4.2-8.4-5.2-8.7zm-1.1 4.6l1.3.6-.6 1.2-1.3-.6.6-1.2zm-.8 1.7l1.3.6-.6 1.3-1.3-.7.6-1.2zm-2.7 8.7l-1.3-.6.6-1.2 1.3.6-.6 1.2zm.8-1.7l-1.3-.6.6-1.2 1.3.6-.6 1.2zm.9-1.7l-1.3-.6.6-1.2 1.3.6-.6 1.2zm.8-1.7l-1.3-.6.6-1.2 1.3.6-.6 1.2z"/><path id="XMLID_27152_" class="st1" d="M131.6 88.9l3.6.4 1.1-9.7-3.4-2.3-43.7-5.2-1.6 13.5 44 3.3zm-3.7-9.1l-.7 5.6-1.2-.1.7-5.6 1.2.1zm-5.3-.6l-.7 5.6-1.2-.1.7-5.6 1.2.1zm-14.4 4l.7-5.6 1.2.1-.7 5.6-1.2-.1zm2.6.3l.7-5.6 1.2.1-.7 5.6-1.2-.1zm2.7.3l.7-5.6 1.2.1-.7 5.6-1.2-.1zm2.6.3l.7-5.6 1.2.1-.7 5.6-1.2-.1zm7.2.8l.7-5.6 1.2.1-.7 5.6-1.2-.1zm5.3.7l.7-5.6 1.2.1-.7 5.6-1.2-.1z"/><path id="XMLID_27114_" class="st1" d="M124.1 36.8l-6-6.1-3.5 1.1-28.4 27.8 8.3 8.5L123 40.3l1.1-3.5zm-18.6 15.1l1.2-1.2 1.1 1.2-1.2 1.2-1.1-1.2zm.7 1.5l-1.2 1.2-1.1-1.2 1.2-1.2 1.1 1.2zm7.6-9.6l1.2-1.2 1.1 1.2-1.2 1.2-1.1-1.2zm.7 1.6l-1.2 1.2-1.1-1.2 1.2-1.2 1.1 1.2zm3.7-6l1.1 1.2-1.2 1.2-1.1-1.2 1.2-1.2zm-1.6 1.6l1.1 1.2-1.2 1.2-1.1-1.2 1.2-1.2zm-4.9 4.8l1.1 1.2-1.2 1.2-1.1-1.2 1.2-1.2zm-7.1 5.2l-1.1-1.1 1.2-1.2 1.1 1.1-1.2 1.2zm-.4.4l-1.2 1.2-1.1-1.1 1.2-1.2 1.1 1.1zm8.7-8.5l-1.1-1.1 1.2-1.2 1.1 1.1-1.2 1.2zm-.4.4l-1.2 1.2-1.1-1.1 1.2-1.2 1.1 1.1zm3.7-5.9l1.1 1.2-1.2 1.2-1.1-1.1 1.2-1.3zm-1.6 1.5l1.2 1.2-1.2 1.2-1.1-1.1 1.1-1.3zm-5 4.9l1.1 1.2-1.2 1.2-1.1-1.1 1.2-1.3zm-8.1 3.9l1.2-1.2 1.1 1.2-1.2 1.2-1.1-1.2zm.7 1.6l-1.2 1.2-1.1-1.2 1.2-1.2 1.1 1.2zm7.5-9.6l1.2-1.2 1.1 1.2-1.2 1.2-1.1-1.2zm.7 1.6l-1.2 1.2-1.1-1.2 1.2-1.2 1.1 1.2zm3.8-6l1.1 1.2-1.2 1.2-1.1-1.2 1.2-1.2zm-1.6 1.6l1.1 1.2-1.2 1.2-1.1-1.2 1.2-1.2zm-4.9 4.8l1.1 1.2-1.2 1.2-1.1-1.2 1.2-1.2zm-1.7 1.6l1.1 1.2-1.2 1.2-1.1-1.2 1.2-1.2zM94.5 56.9l-1.1-1.2 1.2-1.2 1.1 1.2-1.2 1.2zm1.6-1.6L95 54.1l1.2-1.2 1.1 1.2-1.2 1.2zm1.7-1.6l-1.1-1.2 1.2-1.2 1.1 1.2-1.2 1.2zm1.6-1.6L98.2 51l1.2-1.2 1.1 1.2-1.1 1.1zm8.6-6.8l1.1 1.2-1.2 1.2-1.1-1.1 1.2-1.3zM96.5 58.9l-1.1-1.2 1.2-1.2 1.1 1.1-1.2 1.3zm1.6-1.5L97 56.2l1.2-1.2 1.1 1.1-1.2 1.3zm1.7-1.6l-1.1-1.2 1.2-1.2 1.1 1.1-1.2 1.3zm1.6-1.6l-1.1-1.2 1.2-1.2 1.1 1.1-1.2 1.3zm8.7-6.8l1.1 1.2-1.2 1.2-1.1-1.2 1.2-1.2zM98.5 61l-1.1-1.2 1.2-1.2 1.1 1.2-1.2 1.2zm1.6-1.6L99 58.2l1.2-1.2 1.1 1.2-1.2 1.2zm1.7-1.6l-1.1-1.2 1.2-1.2 1.1 1.2-1.2 1.2zm1.6-1.6l-1.1-1.2 1.2-1.2 1.1 1.2-1.2 1.2z"/><path id="XMLID_27105_" class="st1" d="M125.1 61.7l-5.6 1.3-.6-2.7-27.4 6.5.6 2.7H92l1.5 6.1 33.1-7.9-1.5-6zM100.5 67l-.2-.8 4.8-1.2.2.8-4.8 1.2zm6-1.4l-.2-.8 4.8-1.2.2.8-4.8 1.2zm6.1-1.4l-.2-.8 4.8-1.2.2.8-4.8 1.2zm-11.7 5l-.2-.8 4.8-1.2.2.8-4.8 1.2zm6.1-1.4l-.2-.8 4.8-1.2.2.8-4.8 1.2zm6-1.4l-.2-.8 4.8-1.2.2.8-4.8 1.2z"/><path id="XMLID_27091_" class="st1" d="M32.8 114.4l.9 1.3 28-20.1-6.4-8.9-28 20.1.9 1.2-2.3 1.6 4.6 6.4 2.3-1.6zm-1.6-5.6l1.7-1.2.7 1-1.7 1.2-.7-1zm2.3-1.7l1.7-1.2.7 1-1.7 1.2-.7-1zm-1.9-1.3l.7 1-1.7 1.2-.7-1 1.7-1.2zm2.3-1.7l.7 1-1.7 1.2-.7-1 1.7-1.2zm8.3-4.4l-.7-1 1.7-1.2.7 1-1.7 1.2zm-2.3 1.6l-.7-1 1.7-1.2.7 1-1.7 1.2zm-2.3 1.7l-.7-1 1.7-1.2.7 1-1.7 1.2zm-2.3 1.7l-.7-1 1.7-1.2.7 1-1.7 1.2zm8.2-3.2l-.7-1 1.7-1.2.7 1-1.7 1.2zm-2.3 1.6l-.7-1 1.7-1.2.7 1-1.7 1.2zm-2.3 1.7l-.7-1 1.7-1.2.7 1-1.7 1.2zm-2.3 1.6l-.7-1 1.7-1.2.7 1-1.7 1.2z"/><path id="XMLID_27083_" class="st1" d="M26.1 78.3l12 .7 13.3.8.6-10L19.7 68l6.4 10.3zm1.2-8.6l-.1 1.6-1.8-.1.1-1.6 1.8.1zm2.4.2l-.1 1.6-1.8-.1.1-1.6 1.8.1zm7.9 2.1l.1-1.6 1.8.1-.1 1.6-1.8-.1zm-2.4-.1l.1-1.6 1.8.1-.2 1.6-1.7-.1zm-.7-.1l-1.8-.1.1-1.6 1.8.1-.1 1.6zm-2.4-.1l-1.8-.1.1-1.6 1.8.1-.1 1.6z"/><path id="XMLID_27082_" class="st1" d="M68.8 99.6l4 1.6-3.7 8.6-7.2 6 3.3-7.7z"/><path id="XMLID_27076_" class="st1" d="M74.9 123.1l.8-24.3-7-.2v.1l-3.1-.1-.6 20.1 3.1.1v-.1l6.8 4.4zm-1.7-12.9l-2.7-.1v-1.4l2.7.1v1.4zm0 2.3l-2.7-.1V111l2.7.1v1.4zm-.1 2.3l-2.7-.1v-1.4l2.7.1v1.4zm0 2.3l-2.7-.1v-1.4l2.7.1v1.4z"/><path id="XMLID_27068_" class="st1" d="M25.8 57.6l27.7 14.2 2.6-5.1H56l1.2-2.3-22.9-11.8-1.2 2.3-4.7-2.4-2.6 5.1zm19.3 2.9l.4-.7 4 2.1-.4.7-4-2.1zM40 57.9l.4-.7 4 2.1-.3.7-4.1-2.1zm-1-.5l-4-2.1.4-.7 4 2.1-.4.7zm5.2 4.9l.3-.7 4 2.1-.4.7-3.9-2.1zm-5.1-2.5l.3-.7 4 2.1-.3.7-4-2.1zm-1-.5l-4-2.1.4-.7 4 2.1-.4.7z"/><path id="XMLID_27058_" class="st1" d="M52.5 88.8l-2.6-10.6-27.2 6.7-1.9 2 1.9 7.6 2.2-.6 27.6-5.1zM27 86.4l1.1 4.4-.7.2-1.1-4.4.7-.2zm3.3-.8l1.1 4.4-.7.2-1.1-4.4.7-.2zm8.1 2.6l-1.1-4.4.7-.2 1.1 4.4-.7.2zm-1.6.4l-1.1-4.4.7-.2 1.1 4.4-.7.2zm-.9.2l-.8.2-1.1-4.4.7-.2 1.2 4.4zm-1.6.4l-.7.2-1.2-4.4.7-.2 1.2 4.4zm-4.6 1.1l-.7.2-1.1-4.4.7-.2 1.1 4.4zm-3.2.9l-.7.2-1.1-4.4.7-.2 1.1 4.4z"/><path id="XMLID_27054_" class="st1" d="M61.2 44.5l1.3 4.8 2.2 8.4 7.6-2-2.2-8.4-8.9-2.8zm3.6 8.2l4.7-1.2.3 1.1-4.7 1.3-.3-1.2zm-.4-1.7l4.7-1.3.3 1.1-4.7 1.3-.3-1.1z"/><path id="XMLID_27016_" class="st1" d="M35 34.3L57.4 63l8.6-6.7-22.4-28.8-3-1.4-6.2 4.8.6 3.4zm13.3 13.5l-.9-1.2 1.2-.9.9 1.2-1.2.9zm1.5-.5l.9 1.2-1.2.9-.9-1.2 1.2-.9zm-8-7.8l-.9-1.2 1.2-.9.9 1.2-1.2.9zm1.5-.5l.9 1.2-1.2.9-.9-1.2 1.2-.9zm-2.9-3.7l-1.2.9-.9-1.2 1.2-.9.9 1.2zm1.2 1.6l-1.2.9-.9-1.2 1.2-.9.9 1.2zm3.9 5l-1.2.9-.9-1.2 1.2-.9.9 1.2zm4.8 4.3l-.9-1.2 1.1-.9.9 1.2-1.1.9zm1.5-.5l1 1.2-1.1.9-.9-1.2 1-.9zm-8-7.8l-.9-1.2 1.1-.9.9 1.2-1.1.9zm.4.4l1.1-.9.9 1.2-1.1.9-.9-1.2zm-2.7-5.9l.9 1.2-1.1.9-.9-1.2 1.1-.9zm1.3 1.7l.9 1.2-1.1.9-1-1.2 1.2-.9zm3.9 4.9l.9 1.2-1.1.9-1-1.1 1.2-1zm5.7 5.6l-.9-1.2 1.2-.9.9 1.2-1.2.9zm1.5-.5l.9 1.2-1.2.9-.9-1.2 1.2-.9zm-8-7.8l-.9-1.2 1.2-.9.9 1.2-1.2.9zm1.5-.5l.9 1.2-1.2.9-.9-1.2 1.2-.9zM44.5 32l-1.2.9-.9-1.2 1.2-.9.9 1.2zm1.3 1.7l-1.2.9-.9-1.2 1.2-.9.9 1.2zm3.8 4.9l-1.2.9-.9-1.2 1.2-.9.9 1.2zm1.3 1.6l-1.2.9-.9-1.1 1.2-.9.9 1.1zm7 11.4l1.2-.9.9 1.2-1.2.9-.9-1.2zM56.6 50l1.2-.9.9 1.2-1.2.9-.9-1.2zm-1.3-1.7l1.2-.9.9 1.2-1.2.9-.9-1.2zM54 46.7l1.2-.9.9 1.2-1.1.9-1-1.2zm-6.1-6l.9 1.2-1.1.9-.9-1.2 1.1-.9zm8.8 13.7l-.9-1.2 1.1-.9.9 1.2-1.1.9zm-1.2-1.6l-.9-1.2 1.1-.9.9 1.2-1.1.9zm-2.3-2.9l1.2-.9.9 1.2-1.1.9-1-1.2zm-1.3-1.6l1.2-.9.9 1.2-1.1.9-1-1.2zm-5.1-4.8l-1.2.9-.9-1.2 1.2-.9.9 1.2zm6.9 11.3l1.2-.9.9 1.2-1.1.9-1-1.2zm-1.2-1.6l1.2-.9.9 1.2-1.2.9-.9-1.2zm-1.3-1.7l1.2-.9.9 1.2-1.2.9-.9-1.2zm-1.3-1.6l1.2-.9.9 1.2-1.2.9-.9-1.2z"/><path id="XMLID_27004_" class="st1" d="M58.7 123.9L69 99.7l-10.2-4.3-10.3 24.3 2.8 1.2-1.8 4.2 7.3 3.1 1.8-4.2.1-.1zm-4.1-2.6l1.5.6-.7 1.6-1.5-.6.7-1.6zm1-2.2l1.5.6-.7 1.6-1.5-.6.7-1.6zm2.2-5.2l.7-1.6 1.5.6v.1l-.7 1.6-1.5-.7zm.9-2.2l.7-1.6 1.5.6v.1l-.7 1.6-1.5-.7zm5.3-8.3l-1.5-.6.7-1.6 1.5.6-.7 1.6zm-1 2.2l-1.5-.6.7-1.6 1.5.6-.7 1.6zm-.9 2.3l-1.5-.6.7-1.6 1.5.6-.7 1.6zm-.9 2.2l-1.5-.6.7-1.6 1.5.6-.7 1.6zm-2.9 6.8l-1.5-.6.7-1.6 1.5.6-.7 1.6zm-.9 2.2l-1.5-.6.7-1.6 1.5.6-.7 1.6z"/><path id="XMLID_27003_" class="st1" d="M51.583 99.236l-7.463-10.4 4.388-3.148 7.462 10.4z"/><path id="XMLID_27002_" class="st1" d="M59.465 100.208l-10.61-14.786 3.736-2.682 10.612 14.786z"/><path id="XMLID_26988_" class="st1" d="M43.4 89.2l9.2 12.9 3.5.6 3.5-2.5-10.6-15-5.6 4zm4 .7l-1.1.8-.7-1 1.1-.8.7 1zm1 1.4l-1.1.7-.7-1 1.1-.8.7 1.1zm.9-2.8l-1.1.8-.7-1 1.1-.8.7 1zm1 1.4l-1.1.8-.7-1 1.1-.8.7 1zm2.1 5.2l1.1-.8.7 1-1.1.8-.7-1zm-1-1.3l1.1-.8.7 1-1.1.8-.7-1zm-1-1.4l1.1-.8.7 1-1.1.8-.7-1zm-.9-1.3l1.1-.8.7 1-1.1.7-.7-.9zm1 5.4l1.1-.8.7 1-1.1.8-.7-1zm-1-1.4l1.1-.8.7 1-1.1.8-.7-1zm-1-1.3l1.1-.8.7 1-1.1.8-.7-1zm-.9-1.4l1.1-.8.7 1-1.1.8-.7-1z"/><path id="XMLID_26987_" class="st1" d="M52.535 60.838l11.423-8.93L68.33 57.5 56.91 66.43z"/><path id="XMLID_26949_" class="st1" d="M93.4 123.5l4.6-2.3V119L87.4 97.4l-6.5 3.2 10.6 21.6 1.9 1.3zM88.2 110l.4.9-.9.4-.4-.9.9-.4zm-1 .1l-.4-.9.9-.4.4.9-.9.4zm4.1 6.1l.4.9-.9.4-.4-.9.9-.4zm-1 .1l-.4-.9.9-.4.4.9-.9.4zm2.7 3.3l-.9.4-.4-.9.9-.4.4.9zm-.6-1.2l-.9.4-.4-.9.9-.4.4.9zm-1.8-3.7l-.9.4-.4-.9.9-.4.4.9zm-1.7-5.1l.9-.4.4.9-.9.4-.4-.9zm-.2-.3l-.4-.9.9-.4.4.9-.9.4zm3.3 6.6l.9-.4.4.9-.9.4-.4-.9zm-.2-.3l-.4-.9.9-.4.4.9-.9.4zm2.8 3.2l-.9.4-.4-.9.9-.4.4.9zm-.6-1.2l-.9.4-.4-.9.9-.4.4.9zm-1.9-3.7l-.9.4-.4-.9.9-.4.4.9zm-.7-5.4l.4.9-.9.4-.4-.9.9-.4zm-1.1.1l-.4-.9.9-.4.4.9-.9.4zm4.1 6.1l.4.9-.8.4-.4-.9.8-.4zm-1 .1l-.4-.9.9-.4.4.9-.9.4zm2.7 3.3l-.9.4-.4-.9.9-.4.4.9zm-.6-1.3l-.9.4-.4-.9.9-.4.4.9zm-1.8-3.7l-.9.4-.4-.9.9-.4.4.9zm-.6-1.2l-.9.4-.4-.9.9-.4.4.9zm-5.7-9.2l.9-.4.4.9-.9.4-.4-.9zm.6 1.2l.9-.4.4.9-.9.4-.4-.9zm.6 1.3l.9-.4.4.9-.9.4-.4-.9zm.6 1.2l.9-.4.4.9-.9.4-.4-.9zm2.3 6.3l-.9.4-.4-.9.9-.4.4.9zm-5.6-9.2l.9-.4.4.9-.9.4-.4-.9zm.6 1.2l.9-.4.4.9-.9.4-.4-.9zm.6 1.3l.9-.4.4.9-.9.4-.4-.9zm.6 1.2l.9-.4.4.9-.9.4-.4-.9zm2.3 6.2l-.9.4-.4-.9.9-.4.4.9zm-5.7-9.2l.9-.4.4.9-.9.4-.4-.9zm.6 1.3l.9-.4.4.9-.9.4-.4-.9zm.6 1.2l.9-.4.4.9-.9.4-.4-.9zm.6 1.2l.9-.4.4.9-.9.4-.4-.9z"/><circle id="XMLID_26948_" class="st1" cx="74.1" cy="78.3" r="25"/></g><path id="XMLID_26933_" class="st2" d="M100.1 16.4l1.1-3.3-9.2-3-1.1 3.3-1.8-.6-12.8 40.4 12.8 4.1L102 17l-1.9-.6zm-7.2.3l1.5.5-.8 2.4-1.4-.5.7-2.4zm-1 3.3l1.4.5-.8 2.4-1.5-.5.9-2.4zm-1.6-4.1l1.5.5-.8 2.4-1.4-.5.7-2.4zm-1 3.3l1.5.5-.8 2.4-1.4-.5.7-2.4zm-3.6 16.3l-1.4-.5.8-2.4 1.4.5-.8 2.4zm1.1-3.3l-1.5-.5.8-2.4 1.5.5-.8 2.4zm1-3.4l-1.4-.5.8-2.4 1.5.5-.9 2.4zm1.1-3.3l-1.5-.5.8-2.4 1.5.5-.8 2.4zm-.6 10.8l-1.5-.5.8-2.4 1.4.5-.7 2.4zm1-3.3l-1.4-.5.8-2.4 1.4.5-.8 2.4zm1.1-3.4l-1.4-.4.8-2.4 1.4.5-.8 2.3zm1.1-3.3l-1.5-.4.8-2.4 1.5.5-.8 2.3z"/><path id="XMLID_26919_" class="st3" d="M98.1 35.8L85.7 57l7.9 4.6L106 40.4l-7.9-4.6zm3.5 4.6l1.5.9-.8 1.4-1.5-.9.8-1.4zm-1.1 1.9l1.5.9-.8 1.4-1.5-.9.8-1.4zm-1.6-3.5l1.5.9-.8 1.4-1.5-.9.8-1.4zm-1.1 1.9l1.5.9-.8 1.4-1.5-.9.8-1.4zm-3.9 10.1l-1.5-.9.8-1.4 1.5.9-.8 1.4zm1.2-1.9l-1.6-.9.8-1.4 1.5.9-.7 1.4zm1.1-2l-1.5-.9.8-1.4 1.5.9-.8 1.4zm1.1-1.9l-1.5-.9.8-1.4 1.5.9-.8 1.4zm-.6 7.4l-1.5-.9.8-1.4 1.5.9-.8 1.4zm1.1-1.9l-1.5-.9.8-1.4 1.5.9-.8 1.4zm1.2-2l-1.5-.9.8-1.4 1.5.9-.8 1.4zm1.1-1.9l-1.5-.9.8-1.4 1.5.9-.8 1.4z"/><path id="XMLID_26911_" class="st4" d="M21.7 67.2l27 8.6 2.9-9.4L40.5 63l-10.1-3.2-8.7 7.4zm5.3.3l.5-1.5 1.5.5-.5 1.5-1.5-.5zm2 .6l.5-1.5 1.5.5-.5 1.5-1.5-.5zm10.2 1.5l-.5 1.5-1.5-.5.5-1.5 1.5.5zm-2-.6l-.5 1.5-1.5-.5.5-1.5 1.5.5zm-2.1-.7l-.5 1.5-1.5-.5.5-1.5 1.5.5zm-2-.6l-.5 1.5-1.5-.5.5-1.5 1.5.5z"/><path id="XMLID_26901_" class="st5" d="M76.8 12.5l-.2-4-11 .5-1.9 4.1 2.1 49.5 15.3-.7-4.3-49.4zm-9.4 5.8l6.4-.3.1 1.4-6.4.3-.1-1.4zm.2 5.9L74 24l.1 1.4-6.4.3-.1-1.5zm7 15.3l-6.4.3-.1-1.4 6.4-.3.1 1.4zm-.1-2.9l-6.4.3-.1-1.4 6.4-.3.1 1.4zm-.1-3l-6.4.2v-1.3l6.4-.3v1.4zm-.1-2.9l-6.4.3-.1-1.4 6.4-.3.1 1.4zm-.4-8.3l-6.4.3-.1-1.4 6.4-.3.1 1.4zm-.2-5.9l-6.4.3-.1-1.4 6.4-.3.1 1.4z"/><path id="XMLID_26863_" class="st6" d="M20.2 30.2L14.5 38l1.8 3.7 36.1 26.6 8-10.8-36.1-26.7-4.1-.6zm20.1 18l-1.5-1.1 1.1-1.5 1.5 1.1-1.1 1.5zm1.7-1.1l1.5 1.1-1.1 1.5-1.5-1.1 1.1-1.5zm-12.1-6.6l-1.5-1.1 1.1-1.5L31 39l-1.1 1.5zm1.6-1.1l1.5 1.1-1 1.5-1.5-1.1 1-1.5zm-7.2-3.1l1.1-1.5 1.5 1.1-1.1 1.5-1.5-1.1zm2 1.5l1.1-1.5 1.5 1.1-1.1 1.5-1.5-1.1zm6.2 4.6l1.1-1.5 1.5 1.1-1.1 1.5-1.5-1.1zm7 6.9l-1.1 1.4-1.5-1.1 1.1-1.4 1.5 1.1zm.6.4l1.5 1.1-1.1 1.4-1.5-1 1.1-1.5zm-11-8.1L28 43l-1.5-1 1.1-1.4 1.5 1zm.5.4l1.5 1.1-1.1 1.5-1.5-1.1 1.1-1.5zm-7.3-3.1l1.1-1.5 1.5 1.1-1.1 1.5-1.5-1.1zm2.1 1.5l1.1-1.5L27 40l-1.1 1.4-1.5-1zm6.2 4.6l1.1-1.5 1.5 1.1-1.1 1.4-1.5-1zm5.9 8.4L35 52.3l1.1-1.5 1.5 1.1-1.1 1.5zm1.6-1.1l1.5 1.1-1.1 1.5-1.5-1.1 1.1-1.5zm-12-6.6l-1.5-1.1 1.1-1.5 1.5 1.1-1.1 1.5zm1.6-1.1l1.5 1.1-1.1 1.5-1.5-1.1 1.1-1.5zm-7.3-3.1l1.1-1.5 1.5 1.1-1.1 1.5-1.5-1.1zm2.1 1.5l1.1-1.5 1.5 1.1-1.1 1.5-1.5-1.1zm6.2 4.6l1.1-1.5 1.5 1.1-1.1 1.5-1.5-1.1zm2 1.5l1.1-1.5 1.5 1.1-1.1 1.5-1.5-1.1zm17.2 10.4L46.8 61l-1.5-1.1 1.1-1.5 1.5 1.1zm-2-1.5l-1.1 1.5-1.5-1.1 1.1-1.5 1.5 1.1zm-2.1-1.5L42.7 58l-1.5-1.1 1.1-1.5 1.5 1.1zm-2-1.5l-1.1 1.5-1.5-1.1 1.1-1.5 1.5 1.1zm-9.2-8.5l1.1-1.5 1.5 1.1-1.1 1.4-1.5-1zm17.2 10.4l-1.1 1.5-1.5-1.1 1.1-1.4 1.5 1zm-2-1.5l-1.1 1.5-1.5-1.1 1.1-1.4 1.5 1zm-2.1-1.6l-1.1 1.5-1.5-1.1 1.1-1.4 1.5 1zm-2-1.5l-1.1 1.5-1.5-1.1 1.1-1.4 1.5 1zm-9.1-8.4l1.1-1.5 1.5 1.1-1.1 1.5-1.5-1.1zm17.2 10.4l-1.1 1.5-1.5-1.1 1.1-1.5 1.5 1.1zm-2.1-1.5l-1.1 1.5-1.5-1.1 1.1-1.5 1.5 1.1zm-2.1-1.5l-1.1 1.5-1.5-1.1 1.1-1.5 1.5 1.1zm-2-1.5l-1.1 1.5-1.5-1.2 1.1-1.5 1.5 1.2z"/><path id="XMLID_26855_" class="st7" d="M47.8 24.6l2.5 6-2.9 1.2 12.2 29.3 2.9-1.2v.1l6.6-2.7-14.8-35.4-6.5 2.7zM58.1 51l-.9.4-2.1-5.1.9-.4 2.1 5.1zm-2.6-6.4l-.9.4-2.1-5.1.9-.4 2.1 5.1zm-2.7-6.5l-.9.4-2.1-5.1.9-.4 2.1 5.1zm7.7 12l-.9.4-2.1-5.1.9-.4 2.1 5.1zm-2.7-6.4l-.8.3-2.1-5.1.9-.4 2 5.2zm-2.7-6.5l-.9.4-2.1-5.1.9-.5 2.1 5.2z"/><linearGradient id="XMLID_2_" gradientUnits="userSpaceOnUse" x1="16.965" y1="31.576" x2="44.914" y2="31.576" gradientTransform="rotate(-19.033 485.47 -187.283)"><stop offset="0" stop-color="#E47100"/><stop offset="1" stop-color="#E47900"/></linearGradient><path id="XMLID_26840_" class="st8" d="M123 117.8l1.3-1.3-27.4-27.4-8.7 8.7 27.3 27.5 1.2-1.2 2.2 2.2 6.3-6.2-2.2-2.3zm-6 2.7l-1.6-1.6 1-1 1.6 1.6-1 1zm-2.3-2.2l-1.6-1.6 1-1 1.6 1.6-1 1zm-1.1 2.3l1-1 1.6 1.6-1 1-1.6-1.6zm-2.3-2.2l1-1 1.6 1.6-1 1-1.6-1.6zm-6.4-8.5l-1 1-1.6-1.6 1-1 1.6 1.6zm2.2 2.3l-1 1-1.6-1.6 1-1 1.6 1.6zm2.3 2.3l-1 1-1.6-1.6 1-1 1.6 1.6zm2.3 2.2l-1 1-1.7-1.7 1-1 1.7 1.7zm-5-8.5l-1 1-1.6-1.6 1-1 1.6 1.6zm2.2 2.2l-1 1-1.6-1.6 1-1 1.6 1.6zm2.3 2.3l-1 1-1.6-1.6 1-1 1.6 1.6zm2.2 2.3l-1 1-1.6-1.6 1-1 1.6 1.6z"/><linearGradient id="XMLID_3_" gradientUnits="userSpaceOnUse" x1="-10.747" y1="29.313" x2="8.572" y2="29.313" gradientTransform="rotate(-19.033 485.47 -187.283)"><stop offset="0" stop-color="#F8D500"/><stop offset="1" stop-color="#F6CB00"/></linearGradient><path id="XMLID_26832_" class="st9" d="M84.1 131.7l-1.4-13.5-1.5-14.9-11.3 1.1 3.8 36.3 10.4-9zm-9.8.2l1.8-.2.2 2-1.8.2-.2-2zm-.3-2.7l1.8-.2.2 2-1.8.2-.2-2zm1-9.2l-1.8.2-.2-2 1.8-.2.2 2zm.3 2.7l-1.8.2-.2-2 1.8-.2.2 2zm.1.8l.2 2-1.8.2-.2-2 1.8-.2zm.2 2.7l.2 2-1.8.2-.2-2 1.8-.2z"/><path id="XMLID_26831_" class="st10" d="M100 80.4l1.1-4.7 10.2 2.5 8 7-9.2-2.3z"/><linearGradient id="XMLID_4_" gradientUnits="userSpaceOnUse" x1="36.402" y1="67.039" x2="64.628" y2="67.039" gradientTransform="rotate(-19.033 485.47 -187.283)"><stop offset="0" stop-color="#8B1574"/><stop offset="1" stop-color="#781978"/></linearGradient><path id="XMLID_26825_" class="st11" d="M125.5 59.7l-26.6 6.6 1.9 7.6h.1l.8 3.4 22-5.4-.8-3.4-.1.1 2.7-8.9zM112 65.5l.7 2.9-1.6.4-.7-2.9 1.6-.4zm2.5-.7l.7 2.9-1.6.4-.7-2.9 1.6-.4zm2.5-.6l.7 2.9-1.6.4-.7-2.9 1.6-.4zm2.5-.7l.7 2.9-1.6.4-.7-2.9 1.6-.4z"/><path id="XMLID_26817_" class="st12" d="M61.1 135.8l10.8-33.3-6.2-2v.1l-2.7-.9-9 27.5 2.7.9-1.8 5.7 6.2 2zm-.3-22l-.8-.3 1.6-4.9.8.3-1.6 4.9zm-1.9 6.1l-.8-.3 1.6-4.9.8.3-1.6 4.9zm-.4 1.2l-1.6 4.9-.8-.3 1.6-4.9.8.3zm4.5-6.7l-.8-.3 1.6-4.9.8.3-1.6 4.9zm-1.9 6.1l-.8-.3 1.6-4.9.8.3-1.6 4.9zm-.4 1.3l-1.6 4.9-.8-.3 1.6-4.9.8.3z"/><path id="XMLID_26807_" class="st2" d="M90.9 100.4l-11.3 4.8L92 134.3l2.6 1.7 8.1-3.5-1-2.4-10.8-29.7zm1.9 28.8l4.7-2 .3.8-4.7 2-.3-.8zm-1.5-3.4l4.7-2 .3.8-4.7 2-.3-.8zm1.5-9.6l-4.7 2-.3-.8 4.7-2 .3.8zm.8 1.7l-4.7 2-.3-.8 4.7-2 .3.8zm.4 1l.3.8-4.7 2-.3-.8 4.7-2zm.7 1.7l.3.8-4.7 2-.3-.8 4.7-2zm2.1 4.9l.3.8-4.7 2-.3-.8 4.7-2zm1.5 3.5l.3.8-4.7 2-.3-.8 4.7-2z"/><path id="XMLID_26803_" class="st13" d="M40.1 98.8l5.1-2.3 8.9-4-3.6-8.1-8.9 4-1.5 10.4zm8.5-5.6l-2.2-5 1.1-.5 2.2 5-1.1.5zm-1.8.8l-2.2-5 1.1-.5 2.2 5-1.1.5z"/><linearGradient id="XMLID_5_" gradientUnits="userSpaceOnUse" x1="-53.163" y1="50.066" x2="-9.024" y2="50.066" gradientTransform="rotate(-19.033 485.47 -187.283)"><stop offset="0" stop-color="#14A2B9"/><stop offset=".994" stop-color="#109FB6"/></linearGradient><path id="XMLID_26724_" class="st14" d="M33.5 129.8l27.9-30.1-9-8.4-27.9 30.1-1 3.6 6.5 6 3.5-1.2zm12.6-17.3l-1.2 1.2-1.2-1.1 1.2-1.2 1.2 1.1zm-.8-1.6l1.2-1.2 1.2 1.1-1.2 1.2-1.2-1.1zm-7.2 10.4l-1.2 1.2-1.2-1.1 1.2-1.2 1.2 1.1zm-.8-1.6l1.2-1.2 1.2 1.1-1.2 1.2-1.2-1.1zm-3.7 3.9l1.2 1.1-1.2 1.2-1.2-1.1 1.2-1.2zm1.6-1.7l1.2 1.1-1.2 1.2-1.2-1.1 1.2-1.2zm4.8-5.2l1.2 1.1L40 119l-1.2-1.1 1.2-1.2zm4-6.2l-1.2 1.2-1.2-1.1 1.2-1.2 1.2 1.1zm-.8-1.5l1.1-1.3 1.2 1.1-1.2 1.2-1.1-1zm-7.3 10.3l-1.2 1.2-1.2-1.1 1.2-1.2 1.2 1.1zm.4-.5l-1.2-1.1 1.2-1.2 1.2 1.1-1.2 1.2zm-6 4l1.2-1.2 1.2 1.1-1.2 1.2-1.2-1.1zm1.6-1.7l1.2-1.2 1.2 1.1-1.2 1.2-1.2-1.1zm4.8-5.2l1.2-1.2 1.2 1.1-1.2 1.2-1.2-1.1zm5.1-7.4l-1.2 1.2-1.2-1.1 1.2-1.2 1.2 1.1zm-.8-1.6l1.2-1.2 1.2 1.1-1.2 1.2-1.2-1.1zm-7.3 10.3l-1.2 1.2-1.2-1.1 1.2-1.2 1.2 1.1zm-.8-1.5l1.2-1.2 1.2 1.1-1.2 1.2-1.2-1.1zm-3.6 3.9l1.2 1.1-1.2 1.2-1.2-1.1 1.2-1.2zm1.6-1.7l1.2 1.1-1.2 1.2-1.2-1.1 1.2-1.2zm4.8-5.2l1.2 1.1-1.2 1.2-1.2-1.1 1.2-1.2zm1.6-1.8l1.2 1.1-1.2 1.2-1.2-1.1 1.2-1.2zm11.3-9.7l-1.2-1.1 1.2-1.2 1.2 1.1-1.2 1.2zm-1.6 1.7l-1.2-1.1 1.2-1.2 1.2 1.1-1.2 1.2zm-1.6 1.7l-1.2-1.1 1.2-1.2 1.2 1.1-1.2 1.2zm-1.5 1.7l-1.2-1.1 1.2-1.2 1.2 1.1-1.2 1.2zm-5.6 7.9l1.2-1.2 1.2 1.1-1.2 1.2-1.2-1.1zM52 101.9l-1.2 1.2-1.2-1.1 1.2-1.2 1.2 1.1zm-1.6 1.7l-1.2 1.2-1.2-1.1 1.2-1.2 1.2 1.1zm-2.8 3l-1.2-1.1 1.2-1.2 1.2 1.1-1.2 1.2zm-1.6 1.7l-1.2-1.1L46 106l1.2 1.1-1.2 1.2zm-4.4 6.7l1.2 1.1-1.2 1.2-1.2-1.1 1.2-1.2zm11.4-9.8l-1.2-1.1 1.2-1.2 1.2 1.1-1.2 1.2zm-1.6 1.7l-1.2-1.1 1.2-1.2 1.2 1.1-1.2 1.2zm-1.6 1.7l-1.2-1.1 1.2-1.2 1.2 1.1-1.2 1.2zm-1.6 1.7l-1.2-1.1 1.2-1.2 1.2 1.1-1.2 1.2z"/><path id="XMLID_26712_" class="st10" d="M128.9 87.2l-28.8-7.1-3 12.2 28.8 7.1.8-3.4 5 1.2 2.1-8.7-5-1.2.1-.1zm-2.2 5l.4-1.8 1.9.5-.4 1.8-1.9-.5zm-2.6-.6l.4-1.8 1.9.5-.4 1.8-1.9-.5zm-6.2-1.5l-1.9-.5.4-1.8h.1l1.9.5-.5 1.8zm-2.6-.7l-1.9-.5.4-1.8h.1l1.9.5-.5 1.8zM105.1 85l-.4 1.8-1.9-.5.4-1.8 1.9.5zm2.7.7l-.4 1.8-1.9-.5.4-1.8 1.9.5zm2.7.6l-.4 1.8-1.9-.5.4-1.8 1.9.5zm2.6.7l-.4 1.8-1.9-.5.4-1.8 1.9.5zm8 1.9l-.4 1.8-1.9-.5.4-1.8 1.9.5zm2.6.7l-.4 1.8-1.9-.5.4-1.8 1.9.5z"/><path id="XMLID_26711_" class="st1" d="M102.71 99.635l-10.206 10.158-4.233-4.253L98.48 95.382z"/><path id="XMLID_26710_" class="st3" d="M102.41 90.618l-14.53 14.46-3.597-3.614 14.53-14.46z"/><path id="XMLID_26695_" class="st3" d="M93 110.4l12.7-12.6v-3.9l-3.4-3.4L87.6 105l5.4 5.4zm.1-4.5l1.1 1.1-1 1-1.1-1.1 1-1zm1.3-1.3l1.1 1.1-1 1-1.1-1.1 1-1zm-3.2-.6l1.1 1.1-1 1-1.1-1.1 1-1zm1.4-1.3l1.1 1.1-1 1-1.1-1.1 1-1zm5.4-3.3l-1.1-1.1 1-1 1.1 1.1-1 1zm-1.3 1.3l-1.1-1.1 1-1 1.1 1.1-1 1zm-1.4 1.4l-1.1-1.1 1-1 1.1 1.1-1 1zm-1.3 1.3l-1.1-1.1 1-1 1.1 1.1-1 1zm5.9-2.1l-1.1-1.1 1-1 1.1 1.1-1 1zm-1.4 1.3l-1.1-1.1 1-1 1.1 1.1-1 1zm-1.3 1.4l-1.1-1.1 1-1 1.1 1.1-1 1zm-1.3 1.3l-1.1-1.1 1-1 1.1 1.1-1 1z"/><path id="XMLID_26694_" class="st13" d="M48.6 79.2l2.9 7.5-25.1 5 .3-9.3z"/><path id="XMLID_26693_" class="st15" d="M59.87 105.436l-12.035-11.14 5.434-5.872 12.035 11.14z"/><path id="XMLID_26655_" class="st16" d="M122.2 48.7l-3.4-4.7-2.5.4-22 15.7 4.7 6.6L121 51l1.2-2.3zm-14.1 8.2l.9-.7.6.9-.9.7-.6-.9zm.3 1.1l-.9.7-.6-.9.9-.7.6.9zm6.1-5.6l.9-.7.6.9-.9.7-.6-.9zm.3 1.1l-.9.7-.6-.9.9-.7.6.9zm3.1-3.6l.6.9-.9.7-.6-.9.9-.7zm-1.2.9l.6.9-.9.7-.6-.9.9-.7zm-3.9 2.7l.6.9-.9.7-.6-.9.9-.7zm-5.2 2.7l-.6-.9.9-.7.6.9-.9.7zm-.4.3l-.9.7-.6-.9.9-.7.6.9zm6.8-4.8l-.6-.9.9-.7.6.9-.9.7zm-.4.2l-.9.7-.6-.9.9-.7.6.9zm3.2-3.6l.6.9-.9.7-.6-.9.9-.7zm-1.3.9l.7.9-.9.7-.6-.9.8-.7zm-3.8 2.7l.6.9-.9.7-.6-.9.9-.7zm-5.9 1.8l.9-.7.6.9-.9.7-.6-.9zm.3 1.2l-.9.7-.6-.9.9-.7.6.9zm6.1-5.7l.9-.7.6.9-.9.7-.6-.9zm.3 1.1l-.9.7-.6-.9.9-.7.6.9zm3.1-3.6l.6.9-.9.7-.6-.9.9-.7zm-1.2.9l.6.9-.9.7-.6-.9.9-.7zm-3.8 2.7l.6.9-.9.7-.6-.9.9-.7zm-1.3.9l.6.9-.9.7-.6-.9.9-.7zm-9.2 7.9l-.6-.9.9-.7.6.9-.9.7zm1.3-.9l-.6-.9.9-.7.6.9-.9.7zm1.3-.9l-.6-.9.9-.7.6.9-.9.7zm1.2-.9l-.6-.9.9-.7.6.9-.9.7zm6.5-3.6l.6.9-.9.7-.6-.9.9-.7zm-9.1 7.9l-.6-.9.9-.7.6.9-.9.7zm1.2-.9l-.6-.9.9-.7.6.9-.9.7zm1.3-.9l-.6-.9.9-.7.6.9-.9.7zm1.3-.9l-.6-.9.9-.7.6.9-.9.7zm6.5-3.6l.6.9-.9.7-.6-.9.9-.7zm-9.2 7.9l-.6-.9.9-.7.6.9-.9.7zm1.2-.9l-.6-.9.9-.7.6.9-.9.7zm1.3-.9l-.6-.9.9-.7.6.9-.9.7zm1.3-.9l-.6-.9.9-.7.6.9-.9.7z"/><path id="XMLID_26654_" class="st1" d="M99.407 135.144l.855.693-1.007 1.243-.855-.693z"/><g id="XMLID_26649_"><path id="XMLID_26650_" class="st1" d="M109.3 126.6s-.1-.1-.1-.2v-.3h.2l.2.5h-.3m-.9.3h.2v-.3c0-.2-.1-.3-.1-.3h-.2l.1.6c-.1 0 0 0 0 0m.8.8c.4-.1.7-.6.5-1l-.1-.4h-.1l.1.4c.1.3-.1.7-.5.8-.3.1-.7 0-.8-.4l-.1-.4h-.1l.1.4c.1.5.6.7 1 .6"/></g><path id="XMLID_26641_" class="st4" d="M39.8 80.3l28 4.1 1.3-9.7-11.5-1.6-15.4-2-2.4 9.2zm5.3-.5l.2-1.6 1.5.2-.1 1.6-1.6-.2zm2.1.2l.2-1.6 1.5.2-.2 1.6-1.5-.2zm10.3-.2l-.2 1.6-1.5-.2.2-1.6 1.5.2zm-2.1-.2l-.2 1.6-1.5-.2.2-1.6 1.5.2zm-2.2-.4l-.2 1.6-1.5-.2.2-1.6 1.5.2zm-2.1-.2l-.2 1.6-1.5-.2.2-1.6 1.5.2z"/><circle id="XMLID_26640_" class="st17" cx="73.2" cy="77" r="28.2"/><linearGradient id="XMLID_6_" gradientUnits="userSpaceOnUse" x1="140.107" y1="58.858" x2="146.995" y2="58.858"><stop offset="0" stop-color="#8B1574"/><stop offset="1" stop-color="#781978"/></linearGradient><path id="XMLID_26639_" class="st18" d="M142.4 56c-.7.1-1.1.7-1 1.4l.1.5-1.4.3 1.7 1.5.2 1.4c.1.7.7 1.1 1.4 1l2.6-.4c.7-.1 1.1-.7 1-1.4l-.6-3.7c-.1-.7-.7-1.1-1.4-1l-2.6.4z"/><g id="XMLID_26634_"><linearGradient id="XMLID_7_" gradientUnits="userSpaceOnUse" x1="13.517" y1="131.016" x2="20.723" y2="131.016"><stop offset="0" stop-color="#14A2B9"/><stop offset=".994" stop-color="#109FB6"/></linearGradient><path id="XMLID_26636_" class="st19" d="M20.1 133.1l.5-1.1-.7-.4c.1-.3.1-.6.1-1l.8-.3-.4-1.2-.8.3c-.2-.3-.4-.5-.6-.7l.4-.7-1.1-.5-.4.7c-.3-.1-.6-.1-1-.1l-.3-.8-1.2.4.3.8c-.3.2-.5.4-.7.6l-.7-.4-.5 1.1.7.4c-.1.3-.1.6-.1 1l-.8.3.4 1.2.8-.3c.2.3.4.5.6.7l-.4.9 1.1.5.4-.7c.3.1.6.1 1 .1l.3.8 1.2-.4-.3-.8c.3-.2.5-.4.7-.6l.7.2zm-3.9-.2c-1-.5-1.5-1.7-1-2.8.5-1 1.7-1.5 2.8-1 1 .5 1.5 1.7 1 2.8-.5 1.1-1.7 1.5-2.8 1z"/><linearGradient id="XMLID_8_" gradientUnits="userSpaceOnUse" x1="16.623" y1="131.017" x2="17.618" y2="131.017"><stop offset="0" stop-color="#14A2B9"/><stop offset=".994" stop-color="#109FB6"/></linearGradient><circle id="XMLID_26635_" class="st20" cx="17.1" cy="131" r=".5"/></g><g id="XMLID_26629_"><path id="XMLID_26631_" class="st10" d="M145.2 116.7l.6-.7-.5-.4c.1-.2.2-.4.2-.7h.6v-.9h-.6l-.3-.6.4-.5-.7-.6-.4.5c-.2-.1-.4-.2-.7-.2v-.6h-.9v.6l-.6.3-.5-.4-.6.7.5.4c-.1.2-.2.4-.2.7h-.6v.9h.6l.3.6-.4.5.7.6.4-.5c.2.1.4.2.7.2v.6h.9v-.6l.6-.3.5.4zm-2.7-1c-.6-.6-.7-1.5-.1-2.2.6-.6 1.5-.7 2.2-.1.6.6.7 1.5.1 2.2-.6.6-1.6.7-2.2.1z"/><circle id="XMLID_26630_" class="st10" cx="143.5" cy="114.6" r="1.2"/></g><path id="XMLID_26623_" class="st5" d="M83 .1c2.9-.4 5 1.6 5 4.1 0 2.5-2.1 4.6-4.7 4.3-2.3-.2-4.1-2.2-3.9-4.7.2-1.9 1.7-3.5 3.6-3.7zm-1.5 3.4c-.4 0-.4.5-.7.6 0 .1.2.3 0 .4 0-.3-.3-.2-.6-.2v.5c.2.2.1-.2.4-.1-.2.2.3.4.1.6-.1-.1-.3-.3-.4-.2.2.7.5 1.3 1 1.7-.2-.7-.8-1.1-.1-1.6.4.1.9.1 1 .5.3 0 .5.1.6.2-.2.6-.5 1-.9 1.3 2 1.6 5.3-.1 5.3-2.4-.4 0-.4.5-.6.6-.1-.4-.4-.9-.8-.7.1 0 .1.1.1.2-.2.2-.5.2-.7.4.1 0 .3-.1.4.1-.8.6-.3 1.8-1.4 2-.5-.6.1-2.1-1.2-1.8-.6-.3-.2-1.1.2-1.5-.3 0-.1-.2-.1-.4h.3c0-.4-.1-.3-.2-.6 0 .1 0 .2-.2.2.1-.2.1-.4.3-.5.1.2.1.3.2.5.3-.2.4-.2.8-.2 0-.1 0-.2.2-.2-.2-.2 0-.5-.1-.6-.3.2-.1.5-.4.6-.1-.1-.2-.3-.2-.4.2-.5 1.1-.8 1.4-.2-.1 0-.2 0-.3-.1.3.4 1-.5 1.5-.1.3-.7-1.7-1.6-2.8-1.3.1.2.3-.1.4.1-.1.1-.2.2-.3.2.2.9-.8.9-1.1 1.5-.3-.2-.4-.4-.2-.7-.1-.1-.2-.3-.4-.5-.2 0-.3.2-.5.3 0 .2.3.3.4.5-.2 0-.3 0-.4.3-.5-.1-.3-.4-.5-.5-.2.3-.4.6-.5.9.2 0 .2.3.4.3.1-.4-.1-.6.1-.7.3 0 .2.4.5.2.1.2.1.4.2.5-.1.1-.3 0-.3.1.1 0 .1.1.1.2zm3 .1c0 .1-.1.1-.1.2.2 0 .5.1.5-.1-.2 0-.1-.2-.2-.2 0 .2-.1.1-.2.1zm-.7.2c-.1-.1-.2-.2-.4-.1-.1.1-.2.3-.4.4.2 0 .4-.1.6-.1 0 .2.2.2.3.3.2-.2.5 0 .7 0 0-.1.1-.1.1-.2-.1 0-.5.1-.5-.2-.1 0-.1.1-.2.1-.1-.2-.2-.3-.4-.4 0 .1.3.2.2.2zm1.3 1.3c-.2-.1-.2-.6-.4-.5.1.1.1.6.4.5z"/><g id="XMLID_26619_"><path id="XMLID_26622_" class="st4" d="M6.6 60c.1-.4.4-.7.8-.7.4.1.7.4.6.9-.1.4-.4.7-.8.7-.4-.1-.7-.5-.6-.9z"/><path id="XMLID_26621_" class="st4" d="M8.2 58.5l.2-1.3c-2-.3-3.8 1.1-4.1 3.1l1.3.2c.2-1.3 1.3-2.2 2.6-2z"/><path id="XMLID_26620_" class="st4" d="M3.3 60c.4-2.5 2.7-4.3 5.1-3.9h.1l.2-1.4c-3.4-.5-6.5 1.9-7 5.3l1.5.2c.1-.1.1-.2.1-.2z"/></g><path id="XMLID_26618_" class="st12" d="M41.3 130.6c0 .1-.1.3-.2.4-.3.4-.9.8-.9.8s-.2 0-.4.1-.3.4-.3.4v.2c-.1.1-.3.3-.5.6-.1.1-.1.2-.2.3-.4.7 0 1.2.2 1.4.4.4.6.4 1 .7.4.3.5.6.5.6s.5-.4.8-.9l.6-1s.1.1.3-.2c.2-.3.1-.6.1-.6s.3-1.1.6-1.3c.3-.2 1.3 0 2.1-.1 1 .1 2.1-1.1 2.1-1.1l-5.8-4.3s-.7 1.2-.7 2c-.2.6.8 1.6.7 2z"/><g id="XMLID_26607_"><path id="XMLID_26611_" class="st3" d="M113.4 17.3c.1-.1 0-.2-.1-.3l-4.8-3c-.1-.1-.2 0-.3.1l-1.7 1.4c-.1.1 0 .2.1.3l6 3.8c.1.1.2 0 .3-.1l.5-2.2zm-4.7-2.7l4 2.5c.1 0 .1.1.1.1h-.2l-4-2.5c-.1 0-.1-.1-.1-.1.1-.1.1-.1.2 0zm-.2.1l4.2 2.6c.1 0 .1.1.1.1h-.2l-4.2-2.6c-.1 0-.1-.1-.1-.1h.2zm-.3.2l4.3 2.7c.1 0 .1.1.1.1h-.2l-4.3-2.7c-.1 0-.1-.1-.1-.1h.2zm1.2 2l.4-.3.8.5-.1.5-1.1-.7zm3 1.2l-4.5-2.8c-.1 0-.1-.1-.1-.1h.2l4.5 2.8c.1 0 .1.1.1.2 0-.1-.1-.1-.2-.1z"/><path id="XMLID_26608_" class="st3" d="M115.4 13.6l-4.8-3c-.1-.1-.2 0-.3.1l-1.8 2.9c-.1.1 0 .2.1.3l4.8 3c.1.1.2 0 .3-.1l1.8-2.9c.1-.1 0-.2-.1-.3zm-1.9 2.8l-4.5-2.8 1.6-2.6 4.5 2.8-1.6 2.6z"/></g><g id="XMLID_26604_"><path id="XMLID_26606_" class="st2" d="M70.7 5l-4.4.3-.2-2.7 2.3 1.2 2.1-1.5z"/><path id="XMLID_26605_" class="st2" d="M70.5 1.9l-4.4.3 2.3 1.2z"/></g><path id="XMLID_26589_" class="st7" d="M56.5 8.4l-.2-.4c-.1-.2-.4-.3-.6-.2-.2.1-.4.4-.3.6l.1.2-2.1.9c-.6.2-.8 1-.5 1.6l1.9 4.4c.3.7 1 1 1.6.8l2.3-1c.6-.2.8-1 .5-1.6l-1.9-4.4c-.2-.5-.5-.8-.8-.9zM53.4 11c-.2-.4 0-.9.3-1l2.2-1c.4-.1.8.1 1 .5l.6 1.3c.2.4 0 .9-.3 1l-2.3.9c-.4.1-.8-.1-1-.5l-.5-1.2zm1.4 3.3v-.1l.6-.2s.1 0 .1.1l.1.3v.1l-.6.2s-.1 0-.1-.1l-.1-.3zm1.2.8v.1l-.6.2s-.1 0-.1-.1l-.1-.3v-.1l.6-.2s.1 0 .1.1l.1.3zm-.7-1.6v.1l-.6.2s-.1 0-.1-.1l-.1-.3v-.1l.6-.2s.1 0 .1.1l.1.3zm.4.4v-.1l.6-.2s.1 0 .1.1l.1.3v.1l-.5.1s-.1 0-.1-.1l-.2-.2zm1.2.8v.1l-.6.2s-.1 0-.1-.1l-.1-.3v-.1l.6-.2s.1 0 .1.1l.1.3zm-.6-1.6v.1l-.6.2s-.1 0-.1-.1l-.1-.3v-.1l.6-.2s.1 0 .1.1l.1.3zm.3.4v-.1l.6-.2s.1 0 .1.1l.1.3v.1l-.6.2s-.1 0-.1-.1l-.1-.3zm1.3.8v.1l-.6.2s-.1 0-.1-.1l-.2-.2v-.1l.6-.2s.1 0 .1.1l.2.2zm-.7-1.6v.1l-.6.2s-.1 0-.1-.1l-.1-.3v-.1l.6-.2s.1 0 .1.1l.1.3zm.4.4V13l.6-.2s.1 0 .1.1l.1.3v.1l-.6.2s-.1 0-.1-.1l-.1-.3zm1.2.8v.1l-.6.2s-.1 0-.1-.1l-.1-.3v-.1l.6-.2s.1 0 .1.1l.1.3zm-.7-1.6v.1l-.6.2s-.1 0-.1-.1l-.1-.3v-.1l.6-.2s.1 0 .1.1l.1.3z"/><g id="search_34_"><g id="XMLID_26585_"><path id="XMLID_26586_" class="st2" d="M127.1 22.5l.8-1.6c.4.1.8.1 1.2-.1 1.1-.4 1.7-1.6 1.3-2.6-.4-1-1.5-1.5-2.6-1.1-1.1.4-1.7 1.6-1.3 2.6.1.4.4.7.7.9l-.8 1.6v.1l.6.3.1-.1zm.9-4.8c.7-.3 1.6.1 1.8.8.2.7-.2 1.5-.9 1.8-.8.3-1.6-.1-1.8-.8-.3-.8.1-1.6.9-1.8z"/></g></g><g id="XMLID_26580_"><path id="XMLID_26584_" class="st12" d="M64.6 142.6c0 .1.1.1 0 .2 0 .3-.2.6-.2.6s-.1 0-.2.1-.1.3-.1.3v.1c0 .1-.1.4-.2.7 0 .5.4.7.6.8.2.1.5.1.8 0 .3-.1.4-.4.5-.6v-.7s.1 0 .1-.2-.1-.3-.1-.3-.2-.6-.1-.8c.1-.2.7-.3 1.1-.6.5-.2.7-1.1.7-1.1l-4.3-.5s0 .8.2 1.2c.3.4 1.1.6 1.2.8z"/><g id="XMLID_26581_"><path id="XMLID_26583_" class="st12" d="M67.5 141.3l-2.2-.3s0 1.1.3 1.6c0 .1.1.1.2.2.2-.1.6-.3.9-.5.6-.2.8-.9.8-1z"/><path id="XMLID_26582_" class="st12" d="M67 142.6l-.6.3c-.1 0-.1.1-.2.1.5.3 1 .5 1 .7 0 .1.1.2.1.3-.1.4-.3.8-.3.8l-.2.2c-.1.1-.1.4-.1.4s.1 0 0 .1c0 .2-.2.5-.2.9 0 .6.5 1 .8 1.1.2.1.7.2 1.1 0 .5-.2.6-.6.7-.8.1-.3 0-.9 0-.9s.1 0 .1-.2-.2-.4-.2-.4-.2-.8-.1-1.1c.1-.3.9-.5 1.5-.8.7-.3 1-1.5 1-1.5l-3.5-.4s-.3.9-.9 1.2z"/></g></g><path id="XMLID_26576_" class="st6" d="M13.3 67.5c-.6.3-.8.9-.6 1.6.1.4.5.6.5.9.1.2 0 .5 0 .7.1.5.5.9.9 1 .4.2 1.3.3 2 .1.9-.3.9-1.2 1-2.5 0-.6.1-1.2.1-1.6-.3-1.7-3.7-1.9-3.9-.2zm.8 3.4c-.2 0-.2-.1-.3-.4 0-.3.1-.4.2-.4.6-.1.7.9.1.8zm1.9-2.8c.7 1-.8 1.9-1.5 1.2-.1-.1-.3-.4-.3-.7-.1-.8 1.2-1.3 1.8-.5z"/><path id="XMLID_26573_" class="st2" d="M134.4 114.9c.7.5 1.6.3 2.1-.4s.3-1.6-.3-2.1c-1-.7-3.8-.9-3.8-.9s1.1 2.8 2 3.4zm.2-1.7c.3-.4.8-.4 1.1-.2.4.3.4.8.2 1.1-.3.4-.8.4-1.1.2-.4-.2-.5-.7-.2-1.1z"/><linearGradient id="XMLID_9_" gradientUnits="userSpaceOnUse" x1="106.287" y1="140.99" x2="110.511" y2="140.99"><stop offset="0" stop-color="#F8D500"/><stop offset="1" stop-color="#F6CB00"/></linearGradient><path id="XMLID_26569_" class="st21" d="M110.1 142.7c-.4.3-1.7.8-2.1.8-.6-.1-.9-1.2-1.2-1.9-.3-.8-.9-1.7-.4-2.2.3-.3 1.9-.9 2.2-.9.6 0 .9 1.1 1.2 1.9.1.4.3.7.3.9.4.6.6 1.1 0 1.4zm-.5-1.9c-.2-.5-.4-1.2-.6-1.2-.2-.1-.8.2-1 .3-.3.1-.9.3-1 .5-.1.3.2.9.4 1.3.2.5.3 1.2.6 1.3.3.1 1.5-.4 1.9-.6.3-.4 0-.9-.3-1.6zm-2-1.7c-.3.1 0 .7.3.4.3-.1 0-.5-.3-.4z"/><linearGradient id="XMLID_10_" gradientUnits="userSpaceOnUse" x1="83.256" y1="140.719" x2="86.461" y2="140.719"><stop offset="0" stop-color="#F8D500"/><stop offset="1" stop-color="#F6CB00"/></linearGradient><path id="XMLID_26566_" class="st22" d="M83.5 141.1h.4v.9c0 .5.4.9.8.9h.5c.4 0 .8-.5.8-1v-.9h.4c.1 0 .1 0 .1-.1l-.1-2.4c0-.1-.1-.1-.1-.1l-2.9.1c-.1 0-.1 0-.1.1l.1 2.4c-.1.1 0 .1.1.1zm2.1.8c0 .4-.2.7-.4.7h-.3c-.3 0-.5-.3-.5-.7v-.8h1.2v.8z"/><g id="XMLID_26561_"><path id="XMLID_26565_" class="st3" d="M96.2 151.5c-.3.2-1.1.2-1.3-.3-.3-.6-.2-1.7-.3-2.5-.1-.8-.3-2-.1-2.4.4-.6 1.5-.5 1.7 0 .2.5.2 1.4.3 2.3.2 1.6.5 2.5-.3 2.9z"/><path id="XMLID_26564_" class="st3" d="M92.3 149.7c-.1-1.4-.9-3.6.7-3.4.2 0 .5.2.7.5.2.5.5 2.2.3 2.8-.2.8-1.3.9-1.7.1z"/><path id="XMLID_26563_" class="st3" d="M98.5 147.3c-.4.2-1.3.3-1.6-.1-.7-1 .6-1.9 1.6-1.6.8.2.8 1.4 0 1.7z"/><path id="XMLID_26562_" class="st3" d="M98.6 145.1c-1.7.2-3.4.5-5.3.7-.4.1-1.5.3-1.6 0-.1-.5 1-.5 1.6-.5 1.3-.2 2.5-.3 3.8-.5.6-.1 1.4-.4 1.7.1v.2c0-.1-.1-.1-.2 0z"/></g><g id="XMLID_26514_"><path id="XMLID_26517_" class="st3" d="M146.9 90.8l-.7-.2-.7 1.3-4-.2v.1l-1.3 4.4 2.6 2.3.2-.7-.2-.1 1.4-4.9 1.7.1 1-2.1zm-5.7 5l.2.1-.1.3-.2-.1.1-.3zm.2.5l.1-.4.2.1-.1.4-.2-.1zm1.5-2.9l-.1.4-.2-.1.1-.4.2.1zm-.1-.1l.1-.4.2.1-.1.4-.2-.1zm-.5 1.6l.1-.4.2.1-.1.4-.2-.1zm.2.1l-.1.4-.2-.1.1-.4.2.1zm0-.7l.1-.4.2.1-.1.4-.2-.1zm.6-.8l.2.1-.1.4-.2-.1.1-.4zm.1.6l-.1.4-.2-.1.1-.4.2.1zm-.2.6l-.1.4-.2-.1.1-.4.2.1zm-.1.5l-.1.4-.2-.1.1-.4.2.1zm-.2.5l-.1.4-.2-.1.1-.4.2.1zm-.5.3l-.2-.1.1-.4.2.1-.1.4zm0 .1l-.1.4-.2-.1.1-.4.2.1zm-.6-.3l.1-.4.2.1-.1.4-.2-.1zm.1-.5l.1-.4.2.1-.1.4-.2-.1zm.2-.6l.1-.4.2.1-.1.4-.2-.1zm.1-.5l.1-.4.2.1-.1.4-.2-.1zm.2-.5l.1-.4.2.1-.1.4-.2-.1zm.2-.6l.1-.4.2.1-.1.4-.2-.1zm.1-.5h.2v.1l-.2-.1zm.4 0h.2v.2l-.2-.1v-.1zm.7.1l-.1.3-.2-.1.1-.2h.2zm-.1.4l-.1.4-.2-.1.1-.4.2.1zm.2 0l.2.1-.1.4-.2-.1.1-.4zm0 .6l-.1.4-.2-.1.1-.4.2.1zm-.1.6l-.1.4-.2-.1.1-.4.2.1zm-.2.5l-.1.4-.2-.1.1-.4.2.1zm-.1.5l-.1.4-.2-.1.1-.4.2.1zm-.2.6l-.1.4-.2-.1.1-.4.2.1zm-.1.5l-.1.4-.2-.1.1-.4.2.1zm-.6.2l-.2-.1.1-.4.2.1-.1.4zm0 .2l-.1.4-.2-.1.1-.3h.2zm-.4 0l-.2-.2v-.1l.2.1v.2zm-.8-1.1l.1-.4.2.1-.1.4-.2-.1zm.2-.6l.1-.4.2.1-.1.4-.2-.1zm.1-.5l.1-.4.2.1-.1.4-.2-.1zm.2-.5l.1-.4.2.1-.1.4-.2-.1zm.1-.6l.1-.4.2.1-.1.4-.2-.1zm.2-.5l.1-.4.2.1-.1.4-.2-.1zm2-.3l-.1.4-.2-.1.1-.3h.2zm-1.3 4.8l-.2-.2.1-.5.2.1-.1.6z"/><path id="XMLID_26516_" class="st3" d="M141.2 92.3c.1-.4-.1-.8-.5-.9-.4-.1-.8.1-.9.5-.1.4.1.8.5.9.4.1.8-.1.9-.5z"/><path id="XMLID_26515_" class="st3" d="M139.5 94.7c-.4 0-.6.4-.6.8s.4.7.8.6c.4 0 .7-.4.6-.8-.1-.4-.5-.7-.8-.6z"/></g><g id="XMLID_26510_"><path id="XMLID_26513_" class="st5" d="M56.1 2.4c.2.4.5.9.5 1.2 0 .3-.4.7-.7.5-.2-.1-.4-.8-.6-1.2-.2-.4-.5-1-.5-1.3 0-.3.3-.5.5-.5.3 0 .5.5.8 1.3z"/><path id="XMLID_26512_" class="st5" d="M57.1 1.6c.2.3.6 1.2.6 1.5 0 .1-.1.3-.1.4-.6.5-.9-.8-1.2-1.5-.1-.5.4-.7.7-.4z"/><path id="XMLID_26511_" class="st5" d="M58.9 2.9c-.4.4-1.1.3-1.1-.3 0-.3.4-.4.6-.5.4-.1.7.5.5.8z"/></g><g id="dde_13_"><linearGradient id="XMLID_11_" gradientUnits="userSpaceOnUse" x1="143.82" y1="80.428" x2="150.17" y2="80.428"><stop offset="0" stop-color="#8B1574"/><stop offset="1" stop-color="#781978"/></linearGradient><path id="XMLID_26507_" class="st23" d="M146.6 77.3c-.1-.1-.2-.1-.2-.1H144c-.1 0-.1.1-.1.1v2.4c0 .1 0 .2.1.2l3.6 3.6c.1.1.1.1.2 0l2.5-2.5c.1-.1.1-.1 0-.2l-3.7-3.5zm-1.1 1.6c-.2.2-.5.2-.8 0-.2-.2-.2-.5 0-.8.2-.2.5-.2.8 0 .2.3.2.6 0 .8z"/></g><path id="XMLID_26501_" class="st16" d="M149.9 63.2c.9-.1 1.6.5 1.6 1.3s-.7 1.5-1.5 1.4c-.8-.1-1.3-.7-1.3-1.5.1-.6.6-1.1 1.2-1.2zm-.4 1.1c-.1 0-.1.2-.2.2 0 0 .1.1 0 .1 0-.1-.1-.1-.2-.1v.2c.1.1 0 0 .1 0-.1.1.1.1 0 .2l-.1-.1.3.6c-.1-.2-.3-.4 0-.5.1 0 .3 0 .3.2.1 0 .2 0 .2.1-.1.2-.2.3-.3.4.7.5 1.7 0 1.7-.8-.1 0-.1.1-.2.2 0-.1-.1-.3-.3-.2v.1c-.1.1-.2.1-.2.1h.1c-.2.2-.1.6-.5.6-.2-.2 0-.7-.4-.6-.2-.1-.1-.4.1-.5-.1 0 0-.1 0-.1h.1c0-.1 0-.1-.1-.2 0 0 0 .1-.1.1 0-.1 0-.1.1-.2 0 .1 0 .1.1.2.1-.1.1-.1.3-.1 0 0 0-.1.1-.1-.1-.1 0-.1 0-.2-.1.1 0 .2-.1.2l-.1-.1c.1-.2.3-.3.5-.1h-.1c.1.1.3-.2.5 0 .1-.2-.5-.5-.9-.4 0 .1.1 0 .1 0l-.1.1c.1.3-.3.3-.4.5-.1-.1-.1-.1-.1-.2 0 0-.1-.1-.1-.2-.1 0-.1.1-.2.1 0 .1.1.1.1.2-.1 0-.1 0-.1.1-.1 0 0-.1-.1-.2-.1.1-.1.2-.2.3.1 0 .1.1.1.1v-.2c.1 0 .1.1.2.1.1-.1.1 0 .1.1 0 0-.1-.1 0 0 0 0-.1 0 0 0zm.9 0c0 .1 0 .1 0 0 0 .1.1.1.2.1-.1 0 0-.1-.2-.1.1.1.1 0 0 0zm-.2.1s-.1-.1-.1 0l-.1.1s.1 0 .2-.1c0 .1 0 .1.1.2.1-.1.2 0 .2 0v-.1s-.1 0-.2-.1h-.1c.1 0 0 0 0 0-.1 0 0 0 0 0zm.4.4c-.1 0-.1-.2-.1-.2 0 .1 0 .3.1.2z"/><linearGradient id="XMLID_12_" gradientUnits="userSpaceOnUse" x1="15.541" y1="109.754" x2="20.676" y2="109.754"><stop offset="0" stop-color="#14A2B9"/><stop offset=".994" stop-color="#109FB6"/></linearGradient><path id="XMLID_26500_" class="st24" d="M16.8 107.1s-.3.3-.3.6.3.6.2.8c0 0 0 .1-.1.1-.1.1-.3.2-.3.2h-.1c-.1 0-.1.1-.1.1-.1 0-.2.1-.3.2-.2.2-.1.4 0 .5l.3.3c.2.1.3 0 .4-.1l.3-.3h.1c.1-.1 0-.2 0-.2s.1-.3.2-.4c.1 0 .4.1.6.1.1.2.2.4.1.5 0 0 0 .1-.1.1l-.4.2h-.1c-.1 0-.2.1-.2.1v.1c-.1.1-.2.1-.4.3-.2.2-.1.5-.1.6.1.1.2.3.4.3.2.1.4 0 .5-.1.1-.1.3-.4.3-.4l.1-.1c.1-.1.1-.2.1-.2s.2-.4.3-.5c.1 0 .2 0 .4.1 0 .2.2.5.2.6 0 0 0 .1-.1.1-.1.1-.3.2-.3.2h-.1c-.1 0-.1.1-.1.1-.1 0-.2.1-.3.2-.2.2-.1.4 0 .5l.3.3c.2.1.3 0 .4-.1l.3-.3h.1c.1-.1 0-.2 0-.2s.1-.3.2-.4c.1-.1.4.1.7.1.3.1.7-.2.7-.2l-1-1.1c.2-.1.3-.2.3-.2L18 108s-.1.1-.2.3l-1-1.2z"/><path id="XMLID_26482_" class="st25" d="M85.4 14.9l-3.6-.6c-.1 0-.3.1-.3.2l-.5 2.8c0 .1.1.3.2.3l3.6.6c.1 0 .3-.1.3-.2l.4-2.7c.1-.2 0-.3-.1-.4zm-2.1 2.7c0 .1-.1.1-.2.1h-.2c-.1 0-.1-.1-.1-.2v-.2c0-.1.1-.1.2-.1h.2c.1 0 .1.1.1.2v.2zm1.6-.5c0 .1-.1.1-.2.1l-3.1-.5c-.1 0-.1-.1-.1-.2l.3-1.7c0-.1.1-.1.2-.1l3.1.5c.1 0 .1.1.1.2l-.3 1.7z"/><g id="XMLID_26469_"><path id="XMLID_26474_" class="st26" d="M51.2 144.7c1.5-.2 2.9 1 3.1 2.6.2 1.6-.9 3.1-2.4 3.3-1.5.2-2.9-1-3.1-2.6-.2-1.6.9-3.1 2.4-3.3zm.6 5.2c1.2-.2 2-1.3 1.9-2.6-.1-1.3-1.2-2.2-2.4-2-1.2.2-2 1.3-1.9 2.6.1 1.3 1.2 2.2 2.4 2z"/><path id="XMLID_26473_" class="st26" d="M49.9 148.1c.1.2.2.3.3.3l1.4-.6 1.1.6c.1 0 .2-.1.3-.3.1-.2.1-.3 0-.4l-1.1-.6c-.1-.1-.1-.1-.2-.1l-1.7.7c-.2 0-.2.2-.1.4z"/></g><path id="XMLID_26459_" class="st7" d="M25.7 21.2l-.3.3-.7-.6c-.4-.4-1-.3-1.3 0l-.4.4c-.3.4-.3.9.1 1.3l.7.6-.3.3v.2l1.8 1.6h.2l2.1-2.3v-.2l-1.8-1.6c0-.1-.1-.1-.1 0zm-2.2 1.1c-.3-.3-.4-.7-.2-.9l.2-.2c.2-.2.6-.2.9.1l.6.6-.9 1-.6-.6z"/><path id="XMLID_26447_" class="st4" d="M10.9 103.5c1.7-.5 4.6-3.5 4.6-3.5s-4-1-5.8-.5c-1.2.3-1.8 1.5-1.5 2.6.3 1.1 1.5 1.7 2.7 1.4zm-.2-1c-.6.2-1.3-.1-1.5-.7-.2-.6.2-1.2.8-1.4.6-.2 1.3.1 1.5.7.2.6-.1 1.2-.8 1.4z"/><g id="XMLID_26428_"><path id="XMLID_26442_" class="st13" d="M7.6 76.9v-1.7l-1.2.8z"/><path id="XMLID_26441_" class="st13" d="M5.8 76.9v-1.7l-1.1.8z"/><path id="XMLID_26437_" class="st13" d="M11.6 76.8v-1.7l-1.2.8z"/><path id="XMLID_26429_" class="st13" d="M9.7 76.8v-1.7l-1.2.8z"/></g><g id="XMLID_26421_"><path id="XMLID_26424_" class="st16" d="M133.8 71.5c-.1-.5-.1-.9-.1-1.4.2-1.2 1.2-2.2 2.7-2 1.5.2 2.7 1.5 2.4 3.2-.2 1.3-1.2 2.1-2.5 1.9-1.1-.2-1.7-.9-1.6-1.7.1-.3.3-.6.7-.6-.3-.3-.5-.6-.4-1 .1-.5.5-.8 1.1-.7.9.1 1.6.9 1.5 2 0 .3-.2.7-.3.9l-1.3-.4c-.4-.1-.6-.1-.7.1-.1.3.3.8 1.2.9 1 .1 1.8-.4 2-1.5.2-1.1-.6-2.3-2-2.5-1.2-.2-2.1.5-2.2 1.6-.1.4 0 .8.1 1.1l-.6.1zm3.2-.2c0-.1 0-.1.1-.2.1-.5-.4-.9-.9-1-.3 0-.5.1-.5.3 0 .3.3.6.7.7l.6.2z"/></g><g id="XMLID_26408_"><path id="XMLID_26420_" class="st6" d="M11.7 32.2L10 31l-.5.6-.3-1.5-1-.7.4-.6.5.3-.2-1.2 3.7-.6-.4.7 1.2.8z"/><g id="XMLID_26409_"><path id="XMLID_26418_" class="st6" d="M10.812 29.48l-.35.486-.325-.234.35-.487z"/><path id="XMLID_26415_" class="st6" d="M11.316 28.78l-.35.488-.325-.233.35-.487z"/><path id="XMLID_26414_" class="st6" d="M11.27 29.723l-.35.487-.324-.233.35-.487z"/><path id="XMLID_26412_" class="st6" d="M11.776 29.026l-.35.487-.325-.233.35-.488z"/></g></g><g id="XMLID_26404_"><linearGradient id="XMLID_13_" gradientUnits="userSpaceOnUse" x1="5.261" y1="42.562" x2="8.447" y2="42.562"><stop offset="0" stop-color="#14A2B9"/><stop offset=".994" stop-color="#109FB6"/></linearGradient><path id="XMLID_26406_" class="st27" d="M5.3 41.9c0-.1 0-.1 0 0 1 0 2.2.1 3.2.3l-.9 1.2c-.3 0-.6-.1-.8-.1-.3 0-.6 0-.8-.1-.1-.1-.3-.4-.3-.6-.3-.3-.3-.5-.4-.7z"/><linearGradient id="XMLID_14_" gradientUnits="userSpaceOnUse" x1="5.759" y1="43.792" x2="7.575" y2="43.792"><stop offset="0" stop-color="#14A2B9"/><stop offset=".994" stop-color="#109FB6"/></linearGradient><path id="XMLID_26405_" class="st28" d="M5.8 43.3c.6.1 1.2.1 1.7.2 0 .3-.1.6-.1.9-.6-.1-1.2-.1-1.7-.2.1-.4.1-.6.1-.9z"/></g><path id="XMLID_26397_" class="st4" d="M40.8 10.9h-.1l-.1-.2-1.1.4.1.2-2.3.7-.1-.2-1.1.4.1.2-.4.1c-.4.1-.5.5-.4.9l.9 2.7c.1.4.5.5.9.4l.5-.2.3-1.6 2.3-.7 1.2 1.1.6-.2c.4-.1.5-.5.4-.9l-.9-2.7c0-.3-.4-.5-.8-.4zm-3.9 3.3c-.1 0-.3 0-.3-.2 0-.1 0-.3.2-.3.1 0 .3 0 .3.2s-.1.3-.2.3zm-.2-.6c-.1 0-.3 0-.3-.2 0-.1 0-.3.2-.3.1 0 .3 0 .3.2 0 .1-.1.2-.2.3zm.8.4c-.1 0-.3 0-.3-.2 0-.1 0-.3.2-.3.1 0 .3 0 .3.2 0 .1-.1.3-.2.3zm-.2-.6c-.1 0-.3 0-.3-.2 0-.1 0-.3.2-.3.1 0 .3 0 .3.2 0 .1-.1.2-.2.3zm3.9-.9l-.4.1.1.4-.4.1-.1-.4-.4.1-.1-.4.4-.1-.1-.4.4-.1.1.4.4-.1.1.4z"/><path id="XMLID_26392_" class="st13" d="M.7 73.7l-.4-.2-.3.5.4.2c0 .1-.1.3 0 .5l-.4.1.2.6.4-.1c.1.1.2.3.3.4l-.2.3.5.3.2-.3h.3l-.3.1.1.3c-.1 0-.2.1-.3.2l-.2-.2-.2.4.2.1c0 .1-.1.2-.1.3l-.3.1.1.4H1c.1.1.1.2.2.3l-.2.3.4.2.2-.3c.1 0 .2.1.3.1l.1.2.4-.1-.1-.3c.1-.1.2-.1.3-.2l.3.2.2-.4-.3-.2c0-.1.1-.2 0-.3l.3-.1-.1-.4-.3.1c-.1-.1-.1-.2-.2-.3l.2-.3-.2-.1-.1-.3c.1-.1.3-.2.4-.3l.4.2.3-.5-.4-.2c0-.1.1-.3 0-.5l.4-.1-.2-.6-.3.1c-.1-.1-.2-.3-.3-.4l.2-.4-.5-.3-.2.4c-.1 0-.3-.1-.5 0l-.1-.4-.6.2.1.4c-.2.1-.3.2-.4.3zm1.9 3.9c-.2.3-.7.5-1 .3-.3-.2-.5-.7-.3-1 .2-.3.7-.5 1-.3.4.2.5.7.3 1zm-.7-1.4V76v.2zm-.4-2.6c.5-.2 1.1.1 1.3.7.2.5-.1 1.1-.7 1.3-.5.2-1.1-.1-1.3-.7-.2-.5.1-1.1.7-1.3z"/><path id="XMLID_26389_" class="st2" d="M126.2 131.9l-5 2.5 2.7 4.6.7-.4.1.2c.3.7 1 1 1.7.6h.1c.6-.3.9-1.1.6-1.8l-.1-.2.8-.4-1.6-5.1zm-1.1 6.7l-.1-.1 1.7-.8.1.1c.2.5 0 1-.4 1.2h-.1c-.5.3-1 .1-1.2-.4z"/><g id="XMLID_26276_"><path id="XMLID_26278_" class="st3" d="M122.6 29.1l3.1 3.8 2.4-1.9-2.8-1-.4-2.9z"/><path id="XMLID_26277_" class="st3" d="M125.2 26.9l3.2 3.8-2.7-1z"/></g><linearGradient id="XMLID_15_" gradientUnits="userSpaceOnUse" x1="127.309" y1="49.385" x2="135.725" y2="49.385"><stop offset="0" stop-color="#8B1574"/><stop offset="1" stop-color="#781978"/></linearGradient><path id="XMLID_26275_" class="st29" d="M134.8 51.1h.4c.1 0 .1 0 .1-.1l.2-.1c.2-.1.2-.2.2-.3l-1.9-3.6c-.1-.1-.2-.1-.4 0h-.1l-3.4 1c0-.4-.1-.8-.4-1-.5-.5-1.4-.6-1.8-.1-.5.5-.4 1.3.1 1.8.4.4 1.1.5 1.6.3h.2l3.4-1 1.4 2.6-2.8.8c0-.4-.1-.8-.4-1-.5-.5-1.4-.6-1.8-.1-.5.5-.4 1.3.1 1.8.4.4 1.1.5 1.6.3h.2l3.5-1.3z"/><path id="XMLID_26261_" class="st30" d="M73.1 50.1H73 72.7c-14.7.2-26.6 12.2-26.6 27s11.9 26.8 26.6 27h.4c14.9 0 27-12.1 27-27s-12.1-27-27-27zm-23.3 27c0-2.1.3-4.2.8-6.1h7.9c-.3 2-.4 4-.4 6.1 0 2.2.2 4.4.5 6.5h-7.9c-.6-2.1-.9-4.3-.9-6.5zm11.8 0c0-2.1.1-4.2.4-6.1h9.7v12.6H62c-.2-2.1-.4-4.3-.4-6.5zm21.8-9.4h-8.5V54.1c4 1.3 7.1 6.5 8.5 13.6zM71.7 53.9v13.9h-9.2c1.5-7.6 4.8-13.1 9.2-13.9zm0 32.8v13.5c-4.3-.9-7.6-6.2-9.1-13.5h9.1zm3.2 13.3V86.7h8.4c-1.4 6.9-4.4 12.1-8.4 13.3zm0-16.5V70.9h9c.2 1.9.4 4 .4 6.1 0 2.2-.1 4.4-.4 6.5h-9zm12.4-12.6h8.3c.5 1.9.8 4 .8 6.1 0 2.2-.3 4.4-.9 6.5h-8.2c.3-2.1.5-4.2.5-6.5-.1-2-.2-4.1-.5-6.1zm7.1-3.2h-7.7c-1-5-2.9-9.3-5.2-12.4 5.8 2.3 10.5 6.8 12.9 12.4zM64.2 55.5c-2.3 3.1-4.1 7.3-5.1 12.2h-7.4c2.5-5.5 6.9-9.9 12.5-12.2zM51.9 86.7h7.3c1 4.7 2.8 8.8 5 11.9-5.4-2.3-9.8-6.5-12.3-11.9zm29.7 12.1c2.3-3 4.1-7.2 5.1-12h7.6c-2.5 5.4-7.1 9.7-12.7 12z"/><g id="XMLID_26257_"><path id="XMLID_26260_" class="st31" d="M37.2 141.8c-.3.2-.6.1-.8-.1-.2-.2-.1-.6.2-.7.3-.2.6-.1.8.1.2.2.1.5-.2.7z"/><path id="XMLID_26259_" class="st31" d="M35.6 141.6l-.8.5c.8 1.2 2.4 1.6 3.7.8l-.5-.8c-.8.5-1.9.3-2.4-.5z"/><path id="XMLID_26258_" class="st31" d="M38.8 143.6c-1.6 1-3.6.6-4.6-1v-.1l-.9.6c1.3 2.1 4.1 2.7 6.2 1.3l-.6-.9-.1.1z"/></g><path id="XMLID_26254_" class="st6" d="M10.8 34.6c-2.7 0-4.9-2.2-4.9-4.9s2.2-4.9 4.9-4.9 4.9 2.2 4.9 4.9c.1 2.6-2.2 4.9-4.9 4.9zm0-9.3c-2.4 0-4.3 1.9-4.3 4.3s1.9 4.3 4.3 4.3 4.3-1.9 4.3-4.3-1.9-4.3-4.3-4.3z"/><linearGradient id="XMLID_16_" gradientUnits="userSpaceOnUse" x1="103.274" y1="140.99" x2="113.167" y2="140.99"><stop offset="0" stop-color="#F8D500"/><stop offset="1" stop-color="#F6CB00"/></linearGradient><path id="XMLID_26251_" class="st32" d="M108.2 145.9c-2.7 0-4.9-2.2-4.9-4.9s2.2-4.9 4.9-4.9 4.9 2.2 4.9 4.9c.1 2.7-2.2 4.9-4.9 4.9zm0-9.2c-2.4 0-4.3 1.9-4.3 4.3s1.9 4.3 4.3 4.3 4.3-1.9 4.3-4.3-1.9-4.3-4.3-4.3z"/><path id="XMLID_26250_" class="st7" d="M21.1 10.9l3.8 4.3c.3.3.7.4 1 .2l1.7-1.5 1.6 1.8-.5-2.8 3-2.7c.3-.2.2-.7-.1-1l-3.8-4.3c-.3-.3-.7-.4-1-.2L21 9.9c-.2.2-.1.7.1 1z"/><path id="XMLID_26246_" class="st1" d="M27.5 8.6c.1.2.3.5.4.9.4.8 1 1.7.6 2.2-.2.3-1.8 1.1-2.2 1.1-.7 0-1-1-1.4-1.8-.4-.7-1.1-1.7-.7-2.2.3-.4 1.5-1 2-1.1.8-.2.9.3 1.3.9zm-1.1-.4c-.4.1-1.7.7-1.7 1-.1.3.3.9.6 1.3.2.4.4 1.1.8 1.2.2.1.8-.3 1-.4.2-.1.8-.3.9-.6.1-.2-.3-.8-.5-1.3-.4-.6-.6-1.3-1.1-1.2zm.8 3.3c-.5.1-.2.6.1.5.3-.1.2-.6-.1-.5z"/><path id="XMLID_26245_" class="st10" d="M140.8 126.8c-.6-.5-1.4-.3-2 .3l-.4.5-1.3-.9-.1 2.6-1.1 1.3c-.5.6-.5 1.5.1 2l2.3 1.9c.6.5 1.4.3 2-.3l2.8-3.4c.5-.6.5-1.5-.1-2l-2.2-2z"/><path id="XMLID_26241_" class="st1" d="M139.4 128.9c-.2.1-.4.4-.6.7-.6.6-.9.9-.7 1.5.2.4.6.7.8.8.2.1.6.1.8 0l.3-.3c.1-.1.3 0 .6-.1.4-.2.5-.6.4-.9.6-.8-.9-2.2-1.6-1.7zm.1 2.4c0 .1 0 .2-.1.3-.1.1-.2.1-.3 0-.3-.3.2-.6.4-.3zm.5-.6c-.1.1-.3.1-.4.1-.6-.1-.8-1-.1-1.1.7-.1.9.6.5 1z"/><path id="XMLID_26240_" class="st16" d="M141.2 37.2l-1.9-2.6c-.3-.4-.8-.4-1.2-.2l-3.3 2.4c-.3.2-.4.7-.1 1.1l.9 1.3c-.6.4-.8 1.1-.4 1.7l.1.1c-.1-.5.1-1 .6-1.3 0 0 .1 0 .1-.1l.6.8c.3.4.7.5 1 .2l3.3-2.4c.4-.2.5-.7.3-1z"/><path id="XMLID_26239_" class="st1" d="M137.7 37.3h.1l.2-.2V37c0-.1.1-.1.1-.1s.1-.1.3-.2c.2-.1.4 0 .5.1.1.1.2.2.2.4s-.1.3-.1.4c-.1.1-.3.2-.3.2l-.1.1h-.2s-.3.1-.4.1c-.1.1 0 .4 0 .6 0 .3-.3.6-.3.6l-1.4-1.9s.3-.2.6-.2c.3-.1.6.3.8.2z"/><path id="XMLID_26238_" class="st13" d="M12.3 84.2h-.6c-1.3.1-2.2 1.2-2.1 2.3.1 1 .8 1.7 1.8 1.9-.2.3-.2.6-.2.9.1.8.9 1.4 1.8 1.3.1 0 .3-.1.4-.1.2.7.9 1.1 1.7 1 .9-.1 1.5-.9 1.3-1.6 0-.1 0-.2-.1-.3l-.8-5.5v-.3c-.1-.9-1-1.4-1.9-1.3-.7.1-1.3.9-1.3 1.7z"/><g id="XMLID_25798_"><path id="XMLID_25861_" class="st1" d="M14.1 86.9l-.4-.3-.2.2c-.1 0-.2-.1-.3-.1l-.1-.3-.4.1.1.3c-.1 0-.2.1-.3.2l-.2-.2-.3.5.2.2c0 .1-.1.2-.1.3l-.3.1.1.4.3-.1c0 .1.1.2.2.3l-.2.2.4.3.2-.2c.1 0 .2.1.3.1l.1.3.4-.1-.1-.3c.1 0 .2-.1.3-.2l.2.2.3-.4-.2-.2c0-.1.1-.2.1-.3l.3-.1-.1-.4-.3.1c0-.1-.1-.2-.2-.3l.2-.3zm-.3 1.3c-.2.3-.7.4-1 .2-.3-.2-.4-.7-.2-1 .2-.3.7-.4 1-.2.4.2.5.7.2 1z"/></g><g id="XMLID_25794_"><path id="XMLID_25795_" class="st1" d="M14.6 85.1l-.3-.1v.2c-.1 0-.2 0-.2.1l-.1-.2-.3.2.1.2c-.1.1-.1.1-.1.2h-.2l-.1.3h.2c0 .1 0 .2.1.2l-.2.1.2.3.2-.1c.1.1.1.1.2.1v.2l.3.1v-.2c.1 0 .2 0 .2-.1l.1.2.3-.2-.1-.2c.1-.1.1-.1.1-.2h.2l.1-.3h-.2c0-.1 0-.2-.1-.2l.2-.1-.2-.3-.2.1c-.1-.1-.1-.1-.2-.1v-.2zm.2 1c0 .3-.3.5-.6.4-.3 0-.5-.3-.4-.6 0-.3.3-.5.6-.4.3 0 .5.3.4.6z"/></g><path id="XMLID_25793_" class="st7" d="M32 94.9c2-.1 3.5-1.8 3.4-3.8 0-.3-.1-.6-.2-.8 0-.1-.1-.3-.1-.3l.4-1.4-1.5-.1s-.1-.1-.2-.1c-.7-.5-1.5-.7-2.4-.7-2 .1-3.5 1.8-3.4 3.8.3 2 2 3.5 4 3.4z"/><path id="XMLID_25792_" class="st1" d="M32.7 92.4c-.1.2-.3.4-.5.4-.3 0-.7-.3-.7-.7V92c-.4.1-.9-.4-.9-1.1-.1-.6.2-1.2.7-1.2.3 0 .6.2.8.5 0 .1.6-.2.6-.2l-.4.8v.5c.3 0 .5.3.6.6v.1l.4.4c-.1 0-.6-.1-.6 0z"/><path id="XMLID_25790_" class="st33" d="M97.5 24.3c0-.2.1-.3.2-.4.5-.9 1.6-1.3 2.5-.8.4.2.7.5.9.8.8-.8 2.1-1 3.1-.4 1.3.7 1.7 2.4 1 3.7-.1.2-.2.4-.4.5.9.5 1.3 1.6.8 2.6s-1.6 1.3-2.6.9c-.1-.1-.2-.1-.3-.2l-3-1.5c-.2.5-.1 1.2.4 1.6-.1 0-.1-.1-.2-.1-.8-.4-1.2-1.2-1-1.9l-2.5-1.3c-.1 0-.2-.1-.3-.1-.9-.4-1.2-1.5-.8-2.4.5-.8 1.4-1.2 2.2-1z"/><path id="XMLID_25788_" class="st1" d="M98.2 26.4s.2-.3.4-.4c.2-.1.6.1.7 0 0 0 .1 0 .1-.1.1-.1.1-.3.1-.3v-.1-.1c0-.1 0-.2.1-.3.1-.2.4-.2.5-.2.1 0 .2.1.4.2.1.1.1.3 0 .4 0 .1-.2.3-.2.3v.1c0 .1-.1.1-.1.1l-.3.3c0 .1.2.3.3.5h.5l.1-.1c.1-.2.1-.4.1-.4v-.1c0-.1.1-.2.1-.2 0-.1.1-.2.2-.4.1-.3.4-.3.5-.2.1 0 .3.1.4.3.1.2.1.4 0 .5 0 .1-.2.4-.2.4v.1c-.1.1-.2.1-.2.1s-.3.3-.3.4c0 .1.1.2.2.4.2 0 .5.1.6 0 0 0 .1 0 .1-.1.1-.1.1-.3.1-.3v-.1-.1c0-.1 0-.2.1-.3.1-.2.4-.2.5-.2.1 0 .2.1.4.2.1.1.1.3 0 .4 0 .1-.2.3-.2.3v.1c0 .1-.1.1-.1.1l-.3.3c0 .1.2.3.3.6.2.2 0 .7 0 .7l-1.2-.6c0 .2-.1.3-.1.3l-2.3-1.1s.1-.1.2-.3l-1.5-1.1z"/><linearGradient id="XMLID_17_" gradientUnits="userSpaceOnUse" x1="-2161.763" y1="-706.776" x2="-2153.871" y2="-702.676" gradientTransform="rotate(-24.412 857.172 -5555.837)"><stop offset="0" stop-color="#8B1574"/><stop offset="1" stop-color="#781978"/></linearGradient><path id="XMLID_25787_" class="st34" d="M120.7 106.1c.9 1.9.1 4.1-1.8 5-1.9.8-4.2 0-5.1-1.9-.1-.2-.2-.5-.3-.7 0-.1-.1-.4-.1-.4l-1.3-1.1 1.6-1.1s.1-.2.2-.3c.4-.6.9-1.2 1.7-1.5 1.9-.7 4.2.1 5.1 2z"/><g id="XMLID_23603_"><path id="XMLID_25721_" class="st1" d="M119.3 106.8l-.2-.2-.5.4-1.5-.6-1.1 1.6.7 1.2.2-.2v-.1l1.2-1.7.7.3.5-.7zm-2.9 1.2v.1-.1zm0 .2l.1-.1.1.1h-.2zm1-.9l-.1.1-.1-.1h.2zm0-.1l.1-.1.1.1h-.2zm-.4.6l.1-.1.1.1h-.2zm0 0l-.1.1h-.1l.2-.1zm.1-.2l.1-.1.1.1h-.2zm.4-.2v.2l-.1-.1.1-.1zm-.1.2l-.1.1-.1-.1h.2zm-.1.2l-.1.1-.1-.1h.2zm-.2.2l-.1.1-.1-.1h.2zm-.1.1l-.1.1h-.1l.2-.1zm-.2.1v-.2l.1.1-.1.1zm-.1 0l-.1.1-.1-.1h.2zm-.1-.2l.1-.1.1.1h-.2zm.1-.2l.1-.1.1.1h-.2zm.1-.2l.1-.1.1.1h-.2zm.2-.1l.1-.1.1.1h-.2zm.1-.2l.1-.1.1.1h-.2zm.1-.2l.1-.1.1.1h-.2zm.1-.2zm.2.1zm.3.1h-.1.1zm-.1.1l-.1.1-.1-.1h.2zm0 .1v.2l-.1-.1.1-.1zm0 .2l-.1.1-.1-.1h.2zm-.2.2l-.1.1-.1-.1h.2zm-.1.2l-.1.1-.1-.1h.2zm-.1.2l-.1.1-.1-.1h.2zm-.1.2l-.1.1-.1-.1h.2zm-.2.1l-.1.1-.1-.1h.2zm-.2.1v-.2l.1.1-.1.1zm-.1 0l-.1.1v-.1h.1zm-.1 0v-.1.1zm-.2-.6l.1-.1h.1l-.2.1zm.2-.2l.1-.1h.1l-.2.1zm.1-.2l.1-.1h.1l-.2.1zm.1-.1l.1-.1h.1l-.2.1zm.1-.2l.1-.1h.1l-.2.1zm.2-.2l.1-.1h.1l-.2.1zm.8.2l-.1.1-.1-.1h.2zm-1.1 1.6l.1-.2.1.1-.2.1z"/><path id="XMLID_24816_" class="st1" d="M116.9 106.6c.1-.1.1-.3-.1-.4-.1-.1-.3-.1-.4.1-.1.1-.1.3.1.4.1.1.3 0 .4-.1z"/><path id="XMLID_23604_" class="st1" d="M115.9 107.3c-.2 0-.3.1-.3.2 0 .2.1.3.2.4.2 0 .3-.1.3-.2 0-.2-.1-.4-.2-.4z"/></g><path id="XMLID_23602_" class="st5" d="M54.7 27.5c-.1-.1-.2-.3-.2-.4-.4-1 0-2.2 1-2.6.8-.3 1.7-.1 2.3.6.2-.2.4-.4.7-.5.7-.3 1.5.1 1.8.9 0 .1.1.2.1.4.6-.1 1.3.3 1.5.9.3.7-.1 1.5-.8 1.7-.1 0-.2 0-.2.1l-4.8 1.7c-.1 0-.2.1-.2.1-.7.3-1.6-.1-1.8-.9-.5-.9-.1-1.7.6-2z"/><path id="XMLID_23599_" class="st1" d="M57.8 26.4l-.2.1-.2-.5c-.1-.3-.4-.5-.7-.4l-.3.1c-.3.1-.4.4-.3.7l.2.5-.3.2s-.1 0 0 .1l.5 1.4h.1l1.8-.6s.1 0 0-.1l-.6-1.5c.1.1.1 0 0 0zm-1.4 0c-.1-.2 0-.5.1-.5l.2-.1c.2-.1.4.1.4.3l.2.5-.8.3-.1-.5z"/><path id="XMLID_23598_" class="st3" d="M114.4 57.2c.6 2.4-.9 4.8-3.3 5.4-1.1.3-2.2.2-3.1-.3-.1 0-.2-.1-.2-.1l-2-.2.1-1.9s-.1-.1-.1-.2c-.1-.2-.1-.3-.1-.5-.6-2.4.9-4.8 3.3-5.4 2.4-.5 4.9.9 5.4 3.2z"/><g id="XMLID_23594_"><path id="XMLID_23597_" class="st1" d="M109.1 57.9c.1.2.1.4-.1.5-.2.1-.4.1-.5-.1-.1-.2-.1-.4.1-.5.1-.1.3 0 .5.1z"/><path id="XMLID_23596_" class="st1" d="M109 59l.4.5c.8-.6 1-1.7.4-2.6l-.5.4c.3.6.2 1.4-.3 1.7z"/><path id="XMLID_23595_" class="st1" d="M110.3 56.8c.7 1 .5 2.5-.5 3.2l.4.6c1.4-1 1.7-2.9.7-4.3l-.6.5c-.1-.1 0 0 0 0z"/></g><path id="XMLID_23593_" class="st4" d="M23.2 45.6c-.1.1-.2.2-.2.4-.9-.1-1.8.2-2.4 1-.6.8-.4 1.9.3 2.6-.2.1-.3.2-.4.4-.5.7-.2 1.7.6 2.2.5.3 1 .3 1.5.2.1.5.4.9.9 1.2.8.5 1.8.3 2.3-.3.2-.3.3-.6.2-.9.4-.2.8-.5 1.1-.8.3-.4.4-.9.4-1.4.4.4.7 1 .7 1.6 0-.1.1-.2.1-.2.3-.8.1-1.7-.5-2.3l.2-.2c.4-.6.2-1.5-.6-1.9-.1-.1-.3-.1-.4-.2 0-.6-.3-1.2-1-1.6-1.1-.8-2.3-.6-2.8.2z"/><path id="XMLID_23592_" class="st1" d="M23.2 50.3c-.1 0-.2 0-.3-.1-.6-.2-1-.7-.9-1.2.1-.4.5-.6 1-.6-.1-.1-.1-.3 0-.4.1-.3.6-.5 1-.3.1 0 .1.1.2.1.2-.3.5-.4.9-.2s.6.5.5.9c0 0 0 .1-.1.1l-.8 2.3v.1c-.1.3-.6.5-1 .3s-.6-.6-.5-1z"/><g id="XMLID_23586_"><g id="XMLID_28089_"><path id="XMLID_28092_" class="st35" d="M10.8 34.6l.3 1.9"/><path id="XMLID_28091_" class="st36" d="M11.6 40.5l3.1 22"/><path id="XMLID_28090_" class="st35" d="M15 64.5l.3 2"/></g></g><path id="XMLID_23585_" class="st37" d="M86.5 7.5l11.2 16.4"/><path id="XMLID_23584_" class="st38" d="M26.1 45.7l11.6-29.4"/><path id="XMLID_23583_" class="st38" d="M21.1 52.2L8.4 57.1"/><path id="XMLID_23582_" class="st39" d="M30.2 94.5l-12.1 33"/><path id="XMLID_23581_" class="st40" d="M38.9 143.6l24.5-1.8"/><path id="XMLID_23580_" class="st37" d="M60.2 25.7L81.3 6.8"/><path id="XMLID_23579_" class="st41" d="M109.1 54.1l1.4-36.5"/><path id="XMLID_23578_" class="st42" d="M119 106.7l27.2-26"/><path id="XMLID_23577_" class="st37" d="M86.5 140.9l17.4.1"/><path id="XMLID_23576_" class="st43" d="M137.4 128.6l-13.8-32.7"/><path id="XMLID_23575_" class="st44" d="M81 118.9c0 .2 0 .3.1.5.3 1.1 1.4 1.9 2.4 1.6.8-.2 1.3-1 1.3-1.9.3.1.6.1.9 0 .7-.2 1.1-1.1.8-1.9 0-.1-.1-.2-.2-.3.5-.3.8-1 .6-1.7-.3-.8-1-1.2-1.7-1-.1 0-.1.1-.2.1l-4.6 1.6c-.1 0-.2 0-.2.1-.7.2-1.1 1.1-.8 1.9.2.7.9 1.2 1.6 1z"/><g id="XMLID_23571_"><path id="XMLID_23572_" class="st1" d="M83 116.9l-.2.4.2.1v.3l-.2.1.2.4.2-.1c.1.1.1.2.2.2l-.1.3.4.2.1-.3h.3l.1.3.4-.1-.1-.3c.1-.1.2-.1.2-.2l.2.1.2-.4-.2-.1v-.3l.2-.1-.2-.4-.2.1c-.1-.1-.1-.2-.2-.2l.1-.3-.4-.2-.1.3h-.3l-.1-.3-.4.1.1.3c-.1.1-.2.1-.2.2l-.2-.1zm1.3 0c.3.2.5.6.4.9-.1.4-.5.5-.9.3-.3-.2-.5-.6-.4-.9.1-.3.5-.4.9-.3z"/></g><g id="XMLID_23567_"><path id="XMLID_23568_" class="st1" d="M81.4 116.7v.3h.2c0 .1 0 .1.1.2l-.1.1.2.2.1-.1c.1 0 .1.1.2.1v.2h.3v-.2c.1 0 .1 0 .2-.1l.1.1.2-.2-.1-.1c0-.1.1-.1.1-.2h.2v-.3h-.2c0-.1 0-.1-.1-.2l.1-.1-.2-.2-.1.1c-.1 0-.1-.1-.2-.1v-.2h-.3v.2c-.1 0-.1 0-.2.1l-.1-.1-.2.2.1.1c0 .1-.1.1-.1.2h-.2zm.8-.4c.3 0 .5.2.5.5s-.2.5-.5.5-.5-.2-.5-.5c.1-.3.3-.5.5-.5z"/></g><path id="XMLID_23566_" class="st37" d="M105.2 137.9l-19.5-18.8"/><path id="XMLID_23565_" class="st42" d="M122.2 66.6l21.6-6.8"/><circle id="XMLID_23564_" class="st2" cx="79.3" cy="37.1" r="3.3"/><g id="XMLID_23560_"><path id="XMLID_23563_" class="st1" d="M79.7 37c0 .4-.1.8 0 1 .1.2.4.4.6.1.1-.1.1-.7.1-1 0-.3.1-.8 0-1.1-.1-.2-.3-.3-.5-.2-.2.1-.1.6-.2 1.2z"/><path id="XMLID_23562_" class="st1" d="M78.8 36.7c-.1.2-.1 1-.1 1.2 0 .1.1.2.2.2.6.2.4-.8.5-1.4-.1-.3-.5-.3-.6 0z"/><path id="XMLID_23561_" class="st1" d="M77.8 38.1c.4.2.9-.1.7-.5-.1-.2-.4-.2-.6-.2-.3.1-.3.6-.1.7z"/></g><g id="XMLID_23530_"><path id="XMLID_23559_" class="st33" d="M44.183 42.542l7.687-5.234 11.82 17.358L56 59.9z"/><g id="XMLID_23546_"><path id="XMLID_23558_" class="st1" d="M46.525 43.453l.992-.675.62.91-.993.674z"/><path id="XMLID_23557_" class="st1" d="M47.198 42.946l.992-.675.62.91-.993.676z"/><path id="XMLID_23556_" class="st1" d="M47.672 45.033l.992-.675.62.91-.992.674z"/><path id="XMLID_23555_" class="st1" d="M48.402 44.61l.992-.677.62.91-.993.675z"/><path id="XMLID_23554_" class="st1" d="M48.9 46.817l.993-.675.62.91-.993.674z"/><path id="XMLID_23553_" class="st1" d="M49.492 46.366l.99-.675.62.91-.99.676z"/><path id="XMLID_23552_" class="st1" d="M50.022 48.536l.992-.676.62.91-.993.675z"/><path id="XMLID_23551_" class="st1" d="M50.695 48.03l.992-.677.62.91-.993.675z"/><path id="XMLID_23550_" class="st1" d="M51.103 50.15l.992-.674.62.91-.993.675z"/><path id="XMLID_23549_" class="st1" d="M51.776 49.644l.992-.675.62.908-.993.676z"/><path id="XMLID_23548_" class="st1" d="M52.307 51.814l.99-.676.62.91-.99.675z"/><path id="XMLID_23547_" class="st1" d="M52.897 51.363l.992-.675.618.91-.992.674z"/></g><path id="XMLID_23545_" class="st33" d="M44.836 40.75l5.125-3.488.62.91-5.124 3.488z"/><path id="XMLID_23544_" class="st33" d="M45.616 38.504l2.067-1.407.788 1.158-2.066 1.407z"/><g id="XMLID_23531_"><path id="XMLID_23543_" class="st1" d="M50.017 41.103l.99-.675.62.91-.99.674z"/><path id="XMLID_23542_" class="st1" d="M50.607 40.652l.992-.675.618.91-.992.675z"/><path id="XMLID_23541_" class="st1" d="M51.08 42.74l.993-.676.62.91-.993.674z"/><path id="XMLID_23540_" class="st1" d="M51.81 42.315l.992-.676.62.91-.992.674z"/><path id="XMLID_23539_" class="st1" d="M52.31 44.523l.992-.675.62.91-.993.674z"/><path id="XMLID_23538_" class="st1" d="M52.983 44.016l.992-.675.62.91-.993.675z"/><path id="XMLID_23537_" class="st1" d="M53.43 46.242l.993-.676.62.91-.993.675z"/><path id="XMLID_23536_" class="st1" d="M54.104 45.735l.992-.676.62.91-.993.674z"/><path id="XMLID_23535_" class="st1" d="M54.512 47.857l.992-.675.62.91-.993.675z"/><path id="XMLID_23534_" class="st1" d="M55.185 47.35l.992-.675.62.91-.993.675z"/><path id="XMLID_23533_" class="st1" d="M55.715 49.52l.992-.676.62.91-.993.675z"/><path id="XMLID_23532_" class="st1" d="M56.388 49.013l.992-.676.62.91-.993.675z"/></g></g><g id="XMLID_23513_"><path id="XMLID_23529_" class="st45" d="M19.78 80.212l.266-9.196 26.29.762-.267 9.196z"/><g id="XMLID_23516_"><path id="XMLID_23528_" class="st1" d="M22.427 78.7l.107-3.7 1.3.038-.108 3.7z"/><path id="XMLID_23527_" class="st1" d="M22.466 76.3l.107-3.698 1.3.037-.108 3.698z"/><path id="XMLID_23526_" class="st1" d="M24.78 78.79l.106-3.698 1.3.038-.107 3.698z"/><path id="XMLID_23525_" class="st1" d="M24.92 76.295l.108-3.7 1.3.04-.107 3.697z"/><path id="XMLID_23524_" class="st1" d="M27.33 78.89l.107-3.7 1.3.038-.108 3.7z"/><path id="XMLID_23523_" class="st1" d="M27.372 76.39l.107-3.7 1.3.04-.11 3.698z"/><path id="XMLID_23522_" class="st1" d="M29.782 78.983l.107-3.698 1.3.037-.108 3.7z"/><path id="XMLID_23521_" class="st1" d="M29.824 76.484l.107-3.698 1.3.037-.106 3.7z"/><path id="XMLID_23520_" class="st1" d="M32.185 79.024l.107-3.7 1.3.04-.107 3.697z"/><path id="XMLID_23519_" class="st1" d="M32.227 76.525l.107-3.7 1.3.04-.107 3.697z"/><path id="XMLID_23518_" class="st1" d="M34.537 79.115l.108-3.698 1.3.037-.108 3.7z"/><path id="XMLID_23517_" class="st1" d="M34.68 76.62l.107-3.7 1.3.038-.108 3.7z"/></g><path id="XMLID_23515_" class="st45" d="M18.458 78.67l.177-6.097 1.4.04-.177 6.098z"/><path id="XMLID_23514_" class="st45" d="M16.782 76.744l.072-2.5 1.7.05-.073 2.5z"/></g><g id="XMLID_23498_"><path id="XMLID_23512_" class="st46" d="M114.722 90.755l-4.967 10.483-16.447-7.794 4.967-10.483z"/><g id="XMLID_23499_"><path id="XMLID_23511_" class="st1" d="M113.207 91.25l-1.67 3.524-1.084-.514 1.67-3.524z"/><path id="XMLID_23510_" class="st1" d="M110.96 95.9l-1.67 3.524-1.085-.514 1.67-3.524z"/><path id="XMLID_23509_" class="st1" d="M111.17 90.28l-1.67 3.525-1.085-.514 1.67-3.523z"/><path id="XMLID_23508_" class="st1" d="M109.01 94.973l-1.67 3.525-1.083-.514 1.67-3.524z"/><path id="XMLID_23507_" class="st1" d="M109.066 89.373l-1.67 3.525-1.084-.514 1.67-3.524z"/><path id="XMLID_23506_" class="st1" d="M106.908 94.066l-1.67 3.525-1.084-.513 1.67-3.524z"/><path id="XMLID_23505_" class="st1" d="M107.118 88.447l-1.67 3.525-1.084-.514 1.67-3.524z"/><path id="XMLID_23504_" class="st1" d="M104.87 93.097l-1.67 3.525-1.085-.514 1.67-3.524z"/><path id="XMLID_23503_" class="st1" d="M105.16 87.47l-1.67 3.523-1.085-.514 1.67-3.525z"/><path id="XMLID_23502_" class="st1" d="M102.912 92.12l-1.67 3.523-1.085-.514 1.67-3.525z"/><path id="XMLID_23501_" class="st1" d="M103.12 86.5l-1.668 3.524-1.085-.514 1.67-3.524z"/><path id="XMLID_23500_" class="st1" d="M100.964 91.193l-1.67 3.524-1.085-.514 1.67-3.524z"/></g></g><path id="XMLID_23497_" class="st47" d="M58.4 98.7l9.4 3.4-3.9 10.7-6.4 2.7-3-6.2z"/><g id="XMLID_23484_"><path id="XMLID_23496_" class="st1" d="M62.61 111.95l-4.034-1.494.278-.75 4.033 1.493z"/><path id="XMLID_23495_" class="st1" d="M59.927 110.96l-4.032-1.492.277-.75 4.033 1.492z"/><path id="XMLID_23494_" class="st1" d="M63.15 110.547l-4.033-1.493.278-.75 4.032 1.492z"/><path id="XMLID_23493_" class="st1" d="M60.468 109.558l-4.033-1.493.278-.75 4.033 1.493z"/><path id="XMLID_23492_" class="st1" d="M63.753 109.038l-4.033-1.493.278-.75 4.033 1.493z"/><path id="XMLID_23491_" class="st1" d="M61.07 108.05l-4.03-1.494.276-.75 4.033 1.493z"/><path id="XMLID_23490_" class="st1" d="M64.294 107.635l-4.033-1.493.28-.75 4.032 1.493z"/><path id="XMLID_23489_" class="st1" d="M61.518 106.612l-4.032-1.493.277-.75 4.033 1.492z"/><path id="XMLID_23488_" class="st1" d="M64.708 106.253l-4.032-1.493.278-.75 4.032 1.493z"/><path id="XMLID_23487_" class="st1" d="M62.026 105.264l-4.032-1.493.278-.75 4.032 1.494z"/><path id="XMLID_23486_" class="st1" d="M65.25 104.85l-4.033-1.493.277-.75 4.033 1.493z"/><path id="XMLID_23485_" class="st1" d="M62.567 103.862l-4.032-1.493.278-.75 4.032 1.492z"/></g><g id="XMLID_23467_"><path id="XMLID_23483_" class="st48" d="M98.894 47.788l5.456 6.387-10.036 8.573-5.456-6.386z"/><g id="XMLID_23470_"><path id="XMLID_23482_" class="st1" d="M98.83 49.71l2.21 2.584-.457.39-2.208-2.586z"/><path id="XMLID_23481_" class="st1" d="M100.33 51.44l2.208 2.585-.456.39-2.208-2.585z"/><path id="XMLID_23480_" class="st1" d="M97.914 50.52l2.208 2.586-.456.39-2.208-2.585z"/><path id="XMLID_23479_" class="st1" d="M99.413 52.253l2.208 2.585-.455.39-2.208-2.586z"/><path id="XMLID_23478_" class="st1" d="M96.943 51.298l2.208 2.585-.455.39-2.208-2.585z"/><path id="XMLID_23477_" class="st1" d="M98.442 53.03l2.21 2.585-.457.39-2.21-2.586z"/><path id="XMLID_23476_" class="st1" d="M96.026 52.11l2.208 2.585-.456.39L95.57 52.5z"/><path id="XMLID_23475_" class="st1" d="M97.525 53.842l2.21 2.585-.458.39-2.208-2.586z"/><path id="XMLID_23474_" class="st1" d="M95.103 52.9l2.208 2.586-.455.39-2.208-2.585z"/><path id="XMLID_23473_" class="st1" d="M96.602 54.633l2.208 2.585-.456.39-2.208-2.586z"/><path id="XMLID_23472_" class="st1" d="M94.262 53.648l2.208 2.585-.456.39-2.208-2.585z"/><path id="XMLID_23471_" class="st1" d="M95.685 55.445l2.208 2.585-.456.39-2.208-2.585z"/></g><path id="XMLID_23469_" class="st48" d="M100.39 48.386l3.636 4.258-.532.454-3.637-4.257z"/><path id="XMLID_23468_" class="st48" d="M102.084 49.174l1.493 1.75-.684.584-1.494-1.75z"/></g><path id="XMLID_23466_" class="st49" d="M85 80.1c1.1.6 1.4 1.9.6 2.8L71.9 100c-.8.9-2.3 1.2-3.4.5-1.1-.6-1.4-1.9-.6-2.8l13.7-17.1c.7-.9 2.2-1.1 3.4-.5z"/><path id="XMLID_23465_" class="st49" d="M60.8 111.5h13.7v-10.7l6.6-15.2H60.8z"/><path id="XMLID_23464_" class="st49" d="M86.3 86.6c1.1.6 1.4 1.9.6 2.8l-13.7 17.1c-.7.9-2.3 1.2-3.4.5-1.1-.6-1.4-1.9-.6-2.8l13.7-17.1c.7-.9 2.2-1.2 3.4-.5z"/><path id="XMLID_23463_" class="st49" d="M84.7 71.9c1.1.6 1.4 1.9.6 2.8L72.1 91.2c-.8.9-2.3 1.2-3.4.5-1.1-.6-1.4-1.9-.6-2.8l13.2-16.5c.7-.9 2.3-1.1 3.4-.5z"/><path id="XMLID_23462_" class="st1" d="M66.4 58.2h12.2c2.4 0 4.3 1.8 4.3 3.9v29.7c0 2.2-1.9 3.9-4.3 3.9H66.4c-2.4 0-4.3-1.8-4.3-3.9V62.2c0-2.2 2-4 4.3-4z"/><path id="XMLID_23461_" class="st4" d="M64 61.4h17s.1 0 .1.1v30.8s0 .1-.1.1H64s-.1 0-.1-.1l.1-30.9z"/><path id="XMLID_23460_" class="st49" d="M87.6 85c1.1.6 1.4 1.9.6 2.8L85.6 91c-.8.9-2.3 1.2-3.4.5-1.1-.6-1.4-1.9-.6-2.8l2.6-3.2c.7-.9 2.2-1.1 3.4-.5z"/><path id="XMLID_23459_" class="st49" d="M86.4 78.3c1.1.6 1.4 1.9.6 2.8l-2.2 2.7c-.8.9-2.3 1.2-3.4.5-1.1-.6-1.4-1.9-.6-2.8l2.2-2.7c.8-.9 2.3-1.1 3.4-.5z"/><path id="XMLID_23458_" class="st1" d="M59 107.4h17.2v8.7H59z"/><path id="XMLID_23457_" class="st50" d="M72.8 113c.6 0 1.1-.5 1.1-1.1 0-.6-.5-1.1-1.1-1.1-.6 0-1.1.5-1.1 1.1.1.6.5 1.1 1.1 1.1z"/><path id="XMLID_23456_" class="st33" d="M57.9 116.1h19.5l1.1 51.2H59z"/><path id="XMLID_23455_" class="st49" d="M58.7 87.6l1 1.4 1.7-1.4 3.4-2.7c2.8-2.3 2.6-4.8 1.3-6.7l-6.6 4.9c-1.3 1.1-1.7 3.1-.8 4.5z"/><path id="XMLID_13320_" class="st51" d="M73 116.1h5l1.1 51.2h-5z"/><path id="XMLID_13319_" class="st1" d="M74 73.7c0-.1-.2-.3-.2-.6 0-.7.3-1.5.3-1.5s.2-.1.3-.4c.1-.2.1-.6.1-.6s-.1-.1-.1-.2c0-.2.1-.6.1-1v-.5c-.1-1.1-1-1.2-1.4-1.3-.7-.1-1 0-1.6 0-.6 0-1.1-.2-1.1-.2s-.2.8-.1 1.6.2 1.5.2 1.5-.2 0-.2.5c0 .4.4.6.4.6s.6 1.3.4 1.8c-.1.5-1.4 1-2.2 1.7-1.1.7-1.3 2.8-1.3 2.8h10s-.2-1.8-.9-2.6c-.6-.8-2.5-1-2.7-1.6z"/><path id="XMLID_13318_" class="st33" d="M66.8 85.4h5.3V89h-5.3z"/><path id="XMLID_13317_" class="st1" d="M73.4 85.4h5.3V89h-5.3z"/></g></svg>