<?xml version="1.0" encoding="utf-8"?>
<!-- Generator: Adobe Illustrator 19.1.0, SVG Export Plug-In . SVG Version: 6.00 Build 0)  -->
<svg version="1.1" id="レイヤー_1" xmlns="http://www.w3.org/2000/svg" xmlns:xlink="http://www.w3.org/1999/xlink" x="0px"
	 y="0px" viewBox="-501 315.8 196.6 171.2" style="enable-background:new -501 315.8 196.6 171.2;" xml:space="preserve">
<style type="text/css">
	.st0{fill:#989899;}
	.st1{fill:#237EC2;}
	.st2{fill:#DFC9B2;}
	.st3{fill:url(#XMLID_2_);}
	.st4{fill:#BDA489;}
	.st5{fill:#FFFFFF;}
	.st6{fill:#1D1A17;}
	.st7{fill:#835A3F;}
	.st8{fill:#AE3D52;}
	.st9{opacity:0.21;fill:#90583F;enable-background:new    ;}
	.st10{fill:#90583F;}
	.st11{fill:#A9684B;}
	.st12{fill:#C12E77;}
	.st13{fill:#23B3A7;}
	.st14{fill:#98C61B;}
	.st15{fill:#CC0D34;}
	.st16{fill:#EB6A21;}
	.st17{fill:#F9C219;}
	.st18{fill:#CA015E;}
	.st19{fill:#483690;}
	.st20{fill:#E95727;}
	.st21{fill:#1866A8;}
	.st22{fill:#7EBD26;}
</style>
<g id="XMLID_12746_">
	<path id="XMLID_12745_" class="st0" d="M-383.3,486.8c0,0-5.1-0.2-15.9-0.2c-10.8,0-15.4,0.3-15.4,0.3c-1.3,0-2.3,0.1-2.3-0.9
		c0,0-2.3-10.9-2.3-19.3c0-8.3,2.3-11.8,2.3-11.8c0-1,1-1.9,2.3-1.9h31.4c1.3,0,2.3,0.8,2.3,1.9c0,0,2.8,3.1,2.8,12.6
		s-2.8,18.4-2.8,18.4C-381,487.1-382,486.8-383.3,486.8z"/>
	<path id="XMLID_12744_" class="st0" d="M-413.3,472c0,0-1.7,0.6-5.3,0.4s-5-1-5-1c-0.4,0-1.8-0.5-1.8-1c0,0,0.3-5.4,0.6-9.9
		c0.3-4.4,2.2-6.4,2.2-6.4c0-0.5,0.4-1,0.8-1l9.6,0.3c0.4,0,0.7,0.5,0.7,1c0,0,0.8,1.7,0.5,6.8c-0.3,5-1.5,9.7-1.5,9.7
		C-412.5,471.6-412.9,472-413.3,472z"/>
	<path id="XMLID_12743_" class="st0" d="M-387.3,472.1c0,0,1.7,0.6,5.3,0.4s5-1,5-1c0.4,0,1.7-0.5,1.7-1c0,0-1-5.4-1.2-9.9
		c-0.3-4.4-1.4-6.4-1.4-6.4c0-0.5-0.4-1-0.8-1l-9.6,0.3c-0.4,0-0.7,0.5-0.7,1c0,0-0.8,1.7-0.5,6.8c0.3,5,1.5,9.7,1.5,9.7
		C-388.1,471.7-387.7,472.1-387.3,472.1z"/>
	<polygon id="XMLID_12742_" class="st1" points="-395.8,478.2 -400,481.1 -404.2,478.2 -401.3,458.6 -401.7,456.9 -398.3,456.9 
		-398.9,458.8 	"/>
	<ellipse id="XMLID_12741_" class="st2" cx="-424.5" cy="429.9" rx="4.7" ry="5.5"/>
	<ellipse id="XMLID_12740_" class="st2" cx="-375" cy="429.9" rx="4.7" ry="5.5"/>
	
		<radialGradient id="XMLID_2_" cx="-407.6113" cy="399.4278" r="27.1268" gradientTransform="matrix(0.9679 0 0 -0.9466 -5.123 805.3243)" gradientUnits="userSpaceOnUse">
		<stop  offset="0" style="stop-color:#FDF5ED"/>
		<stop  offset="1" style="stop-color:#F2DEBC"/>
	</radialGradient>
	<path id="XMLID_12739_" class="st3" d="M-382.7,451.2c0,0-3.8,2-17.6,2s-17.3-2-17.3-2c-1.6,0-2.9-1.3-2.9-2.8c0,0-5.1-16.5-5.1-29
		s2.9-17.7,2.9-17.7c0-1.6,1.3,1.6,2.9,1.6h39.7c1.6,0,2.9-3.1,2.9-1.6c0,0,3.5,4.7,3.5,19s-6.1,27.7-6.1,27.7
		C-379.8,449.9-381.1,451.2-382.7,451.2z"/>
	<g id="XMLID_12839_">
		<path id="XMLID_12738_" class="st4" d="M-406.5,425.5c0,2.7-2.5,3.3-5.5,3.3c-3.1,0-5.5-0.7-5.5-3.3c0-2.7,2.1-5.6,5.1-5.6
			C-409.4,419.8-406.5,422.8-406.5,425.5z"/>
		<path id="XMLID_12735_" class="st5" d="M-406.5,425.7c0,2.7-2.5,3.3-5.5,3.3c-3.1,0-5.5-0.7-5.5-3.3c0-2.7,2.1-5.6,5.1-5.6
			S-406.5,423.1-406.5,425.7z"/>
		<g id="XMLID_12841_">
			<ellipse id="XMLID_12734_" class="st6" cx="-410.9" cy="425.8" rx="2.4" ry="2.3"/>
			<ellipse id="XMLID_12731_" class="st5" cx="-409.9" cy="424.9" rx="1" ry="0.9"/>
		</g>
		<path id="XMLID_12730_" class="st7" d="M-407.4,418c0,0-2.8-0.3-5.9-0.2c-3.3,0.1-5.1,0.5-5.1,0.5c-0.5,0-0.9-0.1-0.9-0.5l0,0
			c0-0.4,0.4-0.6,0.9-0.6c0,0,1.6-0.4,5.1-0.6c3.4-0.2,5.9,0,5.9,0c0.5,0,0.9,0.3,0.9,0.7l0,0C-406.5,417.7-406.9,418-407.4,418z"/>
	</g>
	<g id="XMLID_12832_">
		<path id="XMLID_12727_" class="st4" d="M-392.4,425.8c0,2.8,2.5,3.5,5.5,3.5s5.5-0.7,5.5-3.5s-2.1-5.8-5.1-5.8
			S-392.4,423.1-392.4,425.8z"/>
		<path id="XMLID_12726_" class="st5" d="M-392.4,426.1c0,2.8,2.5,3.5,5.5,3.5s5.5-0.7,5.5-3.5c0-2.8-2.1-5.8-5.1-5.8
			S-392.4,423.4-392.4,426.1z"/>
		<g id="XMLID_12834_">
			<ellipse id="XMLID_12723_" class="st6" cx="-388.2" cy="426" rx="2.4" ry="2.4"/>
			<ellipse id="XMLID_12722_" class="st5" cx="-387.3" cy="425.2" rx="1.1" ry="1"/>
		</g>
		<path id="XMLID_12719_" class="st7" d="M-390.6,418.1c0,0,2.6-0.3,5.5-0.2c3.1,0.1,4.7,0.5,4.7,0.5c0.5,0,0.9-0.1,0.9-0.5l0,0
			c0-0.4-0.4-0.6-0.9-0.6c0,0-1.5-0.4-4.7-0.6c-3.1-0.2-5.5,0-5.5,0c-0.5,0-0.9,0.3-0.9,0.7l0,0
			C-391.5,417.8-391.1,418.1-390.6,418.1z"/>
	</g>
	<g id="XMLID_12828_">
		<path id="XMLID_12718_" class="st8" d="M-415.7,443.6c0-1.4,5.6-1.2,12.6-1c7,0.2,12.5,0.4,12.5,1.8s-5.7,3.3-12.6,3.1
			C-410.3,447.3-415.8,445-415.7,443.6z"/>
		<path id="XMLID_12715_" class="st5" d="M-396.5,447c-1.5-0.6-4.2-1.1-7.2-1.2c-2.9-0.1-5.5,0.2-7.1,0.7c2,0.5,4.5,1,7.3,1
			C-400.9,447.6-398.5,447.4-396.5,447z"/>
		<path id="XMLID_12714_" class="st5" d="M-402.1,444.2c2.2,0.1,4.2,0,5.8-0.2c1.5-0.2,1.2-1-0.1-1.1c-2-0.1-4.3-0.2-6.8-0.3
			c-1.9-0.1-3.7-0.1-5.3-0.1c-1.1,0-1.4,0.6-0.3,0.9C-407,443.8-404.9,444.1-402.1,444.2z"/>
	</g>
	<path id="XMLID_12711_" class="st4" d="M-400.2,430.3c-0.1,0-0.2,0-0.3,0c2.3,0.1,4.1,1.7,4.1,3.5c0,1.9-1.8,2.7-4.1,2.8
		c0.1,0,0.2,0,0.3,0c2.4,0,4.4-0.8,4.4-2.8C-395.8,431.9-397.7,430.3-400.2,430.3z"/>
	<path id="XMLID_12710_" class="st9" d="M-359.3,399.4l-13.3-3.8l3.7-0.8c0,0-10.1-13.3-32.8-9.2s-28,11.2-28,11.2l1.4,7.4h-1.2
		l1.6,20l3.1,7.1l0.2-21.5l0,0l0,0c0-1.5,1-2.8,2.3-3c4.8,0.5,12.6,1.2,23.2,1.5c10.3,0.3,18-0.1,22.9-0.5v0.1
		c1.3,0.4,2.2,1.8,2,3.3l0,0l0,0l-2.3,21.3l3.9-6.6l4-19.6h-0.1L-359.3,399.4z"/>
	<path id="XMLID_12707_" class="st10" d="M-359.3,397.1l-13.3-4.1l3.7-0.9c0,0-10.2-14.4-32.8-10c-22.7,4.4-28,12-28,12l1.5,8.3
		h-1.2l1.6,21.5l3.1,7.6l0.2-23.1l0,0l0,0c0-1.6,1-3,2.3-3.3c4.8,0.6,12.6,1.3,23.2,1.7c10.3,0.3,18,0,22.9-0.5v0.1
		c1.3,0.4,2.2,1.9,2,3.6l0,0l0,0l-2.3,22.9l3.9-7.1l3.9-21.1h-0.1L-359.3,397.1z"/>
	<path id="XMLID_12706_" class="st11" d="M-401.6,386.9c12.1-0.8,22.7,1.4,27.2,5c-2.3-4.7-12.9-7.8-25.5-7
		c-8.8,0.5-16.5,2.9-20.8,5.9C-415.6,388.8-409,387.3-401.6,386.9z"/>
	<path id="XMLID_12703_" class="st12" d="M-452.1,387.1c0-4.4-3.7-7.9-8.3-7.9c-0.7,0-1.5,0.1-2.1,0.3c-1.7-3.3-5.5-5.7-10-5.7
		c-5,0-9.2,2.9-10.5,6.9c-0.8-0.3-1.7-0.4-2.7-0.4c-4.3,0-7.8,3.2-7.8,7.2c0,1.2,0.3,2.3,0.8,3.2c-2.6,1-4.4,3.5-4.4,6.4
		c0,3.8,3.2,6.9,7.1,6.9c1.2,0,2.4-0.3,3.4-0.9c1.3,4,5.2,6.8,9.9,6.8c0.4,0,0.9,0,1.3-0.1c-2.9-0.9-5.1-3-6-5.7
		c1.7,0.8,3.6,1.2,5.6,1.2c4,0,7.5-1.7,9.6-4.4c1,0.6,2.2,1,3.5,1c3.6,0,6.6-2.8,6.6-6.2c0-0.6-0.1-1.2-0.3-1.7
		C-453.9,392.7-452.1,390.1-452.1,387.1z"/>
	<path id="XMLID_12702_" class="st13" d="M-306.6,397.6c-0.3-3.7-3.4-7-7.7-8c-3.3-0.8-6.5,0-8.7,1.7c-0.7-0.4-1.4-0.7-2.2-0.9
		c-3.8-0.9-7.5,1.2-8.4,4.7c-0.2,1-0.2,2,0,2.9c-0.3,0.3-0.7,0.6-1,0.9c-2.6,0.3-4.9,2.1-5.6,4.8c-0.8,3.3,1.3,6.7,4.7,7.5
		c0.4,0.1,0.9,0.2,1.3,0.2c1.4,1.5,3.4,2.6,5.6,3.1c2.2,0.5,4.5,0.4,6.4-0.3c-0.4,2.2-1.6,4.1-3.6,5.5c0.4-0.1,0.8-0.2,1.2-0.3
		c3.3-1.1,5.6-3.5,6.4-6.4c0.6,0.4,1.2,0.7,2,0.8c3.2,0.7,6.3-1.1,7.1-4.1c0-0.2,0.1-0.4,0.1-0.6c2.1-0.8,3.7-2.6,4.3-4.9
		C-304,401.8-304.8,399.3-306.6,397.6z"/>
	<path id="XMLID_12699_" class="st14" d="M-353.1,379.6c0,3.6,3.3,6.6,7.3,6.6h2.9l0.6,7.9l10.2-7.9h8.5c4,0,7.3-2.9,7.3-6.6v-14.4
		c0-3.6-3.3-6.6-7.3-6.6h-22.2c-4,0-7.3,2.9-7.3,6.6V379.6L-353.1,379.6z"/>
	<path id="XMLID_12698_" class="st15" d="M-439.1,362.2c0,4.1-3.6,7.4-8,7.4h-3.2l-0.7,8.8l-11.2-8.8h-9.3c-4.4,0-8-3.3-8-7.4v-16.3
		c0-4.1,3.6-7.4,8-7.4h24.4c4.4,0,8,3.3,8,7.4V362.2L-439.1,362.2z"/>
	<path id="XMLID_12695_" class="st16" d="M-385.8,327.1c-1-0.2-2-0.2-3-0.2c-1.5-5.3-6.2-9.8-12.4-10.9c-7-1.2-13.6,2-16.3,7.5
		c-1.1-0.6-2.3-1.1-3.6-1.3c-6-1.1-11.7,2.7-12.7,8.5c-0.6,3.2,0.5,6.4,2.5,8.8c-2.8,1.4-4.9,4.1-5.5,7.5c-1,5.6,2.7,10.9,8.1,11.9
		c2.4,0.4,4.7,0,6.6-1.1c2.3,1.9,5.1,3.3,8.3,3.9c3.6,0.7,7.2,0.2,10.2-1.2c-1.5,3.4-4.6,6.1-8.3,7.3c0.6,0.1,1.3,0.1,1.9,0.1
		c6.1,0,11.3-3.4,13.7-8.4c0.5,0.2,1.1,0.3,1.6,0.5c5,0.9,9.8-2.4,10.7-7.4c0.2-0.9,0.2-1.8,0.1-2.6c3.9-1.3,7-4.7,7.7-9
		C-375.1,334.4-379.4,328.3-385.8,327.1z"/>
	<path id="XMLID_12694_" class="st17" d="M-369,330.2h19.4c2.7,0,4.9,2.4,4.9,5.3v25.4c0,2.4-2.2,4.4-4.9,4.4h-9.7
		c0.2,4.5-2.8,8.3-6.9,8.7c-0.3,0-0.7,0-1,0c2.7-1.3,4.5-4.4,4.1-7.8c0-0.3-0.1-0.6-0.1-0.9h-5.8c-2.7,0-4.9-2-4.9-4.4v-25.4
		C-373.9,332.5-371.7,330.2-369,330.2z"/>
	<path id="XMLID_12691_" class="st18" d="M-484.8,366c0.1-0.3,0.2-0.7,0.2-1c0.2-2.4-1.7-4.5-4.2-4.7c-2-0.1-3.8,1.1-4.5,2.8
		c-0.5-0.4-1.2-0.6-1.9-0.6c-1.8,0-3.2,1.4-3.2,3.1c0,0.3,0,0.5,0.1,0.8c-1.5,0.2-2.6,1.5-2.6,3c0,1.7,1.4,3,3,3
		c0.2,0,0.4,0,0.6-0.1h11.8c0.2,0,0.4,0.1,0.6,0.1c1.8,0,3.3-1.4,3.3-3.2C-481.6,367.5-483,366.1-484.8,366z"/>
	<path id="XMLID_12690_" class="st19" d="M-460.4,405.3c-6.5,0-11.7,5.1-11.7,11.5c0,0-0.8,3.6,1.9,10c2.7,6.4,7.8,8.6,7.8,8.6
		s-0.9-3.2-1.5-7.6c1.1,0.3,2.3,0.5,3.6,0.5c6.5,0,11.7-5.1,11.7-11.5S-453.9,405.3-460.4,405.3z"/>
	<path id="XMLID_12687_" class="st20" d="M-431.1,360.3h-4.6c-0.7,0-1.2,0.4-1.2,1v4.5c0,0.4,0.5,0.8,1.2,0.8h2.3
		c-0.1,0.8,0.7,1.5,1.7,1.6c0.1,0,0.2,0,0.2,0c-0.7-0.2-1.1-0.8-1-1.4c0-0.1,0-0.1,0-0.2h1.4c0.7,0,1.2-0.4,1.2-0.8v-4.6
		C-430,360.7-430.5,360.3-431.1,360.3z"/>
	<path id="XMLID_12686_" class="st21" d="M-353.3,425.5c0,2.2,2,3.9,4.4,3.9h1.8l0.3,4.7l6.2-4.7h5.1c2.4,0,4.4-1.8,4.4-3.9v-8.7
		c0-2.2-2-3.9-4.4-3.9h-13.4c-2.4,0-4.4,1.8-4.4,3.9V425.5L-353.3,425.5z"/>
	<path id="XMLID_12683_" class="st22" d="M-334.4,339.2c3.6,0,6.4,2.7,6.4,6.1c0,0,0.4,1.9-1,5.3c-1.5,3.4-4.3,4.5-4.3,4.5
		s0.5-1.7,0.8-4c-0.6,0.2-1.3,0.3-1.9,0.3c-3.6,0-6.4-2.7-6.4-6.1C-340.9,342-338,339.2-334.4,339.2z"/>
	<path id="XMLID_12636_" class="st17" d="M-377.8,364.1c0.1-0.2,0.1-0.4,0.1-0.6c0.1-1.3-0.9-2.4-2.3-2.5c-1.1-0.1-2.1,0.6-2.4,1.5
		c-0.3-0.2-0.6-0.3-1-0.3c-1,0-1.7,0.8-1.7,1.7c0,0.1,0,0.3,0.1,0.4c-0.8,0.1-1.4,0.8-1.4,1.6c0,0.9,0.7,1.6,1.6,1.6
		c0.1,0,0.2,0,0.3,0h6.4c0.1,0,0.2,0,0.3,0c1,0,1.8-0.8,1.8-1.7C-376,364.8-376.8,364.1-377.8,364.1z"/>
</g>
</svg>
