<?xml version="1.0" encoding="utf-8"?>
<!-- Generator: Adobe Illustrator 19.1.0, SVG Export Plug-In . SVG Version: 6.00 Build 0)  -->
<svg version="1.1" id="レイヤー_1" xmlns="http://www.w3.org/2000/svg" xmlns:xlink="http://www.w3.org/1999/xlink" x="0px"
	 y="0px" viewBox="0 0 107 33" style="enable-background:new 0 0 107 33;" xml:space="preserve">
<style type="text/css">
	.st0{fill:#DADADA;}
	.st1{fill:#ED4E3A;}
	.st2{fill:#0593A1;}
	.st3{fill:#FFED00;}
	.st4{fill:#706F6F;}
	.st5{fill:#EDEDED;}
	.st6{fill:#C6C6C6;}
	.st7{fill:#B2B2B2;}
	.st8{fill:#878787;}
	.st9{fill:#B6312F;}
	.st10{opacity:0.4;fill:#FFFFFF;}
	.st11{opacity:0.8;fill:#F6F6F6;}
	.st12{fill:#FFFFFF;}
</style>
<g>
	<g>
		<g>
			<path class="st0" d="M23.6,16.7l1.3-0.8l-0.5-1.7l-1.5,0L21.9,13l0.4-1.4l-1.5-0.9l-1.2,0.9l-1.5-0.3l-0.6-1.3l-1.8,0.2l-0.3,1.4
				L14,12.3l-1.4-0.6l-1.2,1.3l0.7,1.3l-0.6,1.3L10,15.9l-0.1,1.7l1.4,0.5l0.4,1.4l-0.9,1.2l1.1,1.4l1.5-0.5l1.3,0.8l0.1,1.5
				l1.8,0.4l0.8-1.3l1.5-0.2l1.1,1l1.6-0.8l-0.2-1.5l1-1.1l1.5,0.1l0.7-1.6l-1.2-1L23.6,16.7z M21.2,18.7l-1.9,2L16.5,21l-2.3-1.4
				L13.3,17l1.1-2.5l2.5-1.2l2.7,0.6l1.7,2.1L21.2,18.7z"/>
			<path class="st0" d="M18.9,20l-2.3,0.3l-1.9-1.2L14.1,17l0.9-2l2.1-1l2.2,0.5l1.4,1.7l-0.1,2.2L18.9,20z M16.8,19.4l1.7-0.2
				l1.2-1.2l0.1-1.6l-1-1.3l-1.7-0.4l-1.5,0.7L14.9,17l0.5,1.5L16.8,19.4z"/>
		</g>
		<g>
			<path class="st1" d="M23.6,16.7l1.3-0.8l-0.5-1.7l-1.5,0L21.9,13l0.4-1.4l-1.5-0.9l-1.2,0.9l-1.5-0.3l-0.6-1.3l-1.8,0.2l-0.3,1.4
				L14,12.3l-1.4-0.6l-1.2,1.3l0.7,1.3l-0.6,1.3L10,15.9l-0.1,1.7l1.4,0.5l0.4,1.4l-0.9,1.2l1.1,1.4l1.5-0.5l1.3,0.8l0.1,1.5
				l1.8,0.4l0.8-1.3l1.5-0.2l1.1,1l1.6-0.8l-0.2-1.5l1-1.1l1.5,0.1l0.7-1.6l-1.2-1L23.6,16.7z M21.2,18.7l-1.9,2L16.5,21l-2.3-1.4
				L13.3,17l1.1-2.5l2.5-1.2l2.7,0.6l1.7,2.1L21.2,18.7z"/>
			<path class="st1" d="M18.9,20l-2.3,0.3l-1.9-1.2L14.1,17l0.9-2l2.1-1l2.2,0.5l1.4,1.7l-0.1,2.2L18.9,20z M16.8,19.4l1.7-0.2
				l1.2-1.2l0.1-1.6l-1-1.3l-1.7-0.4l-1.5,0.7L14.9,17l0.5,1.5L16.8,19.4z"/>
		</g>
	</g>
	<g>
		<path class="st2" d="M28.1,7.2l-2,0.5L25,9.4l0.5,1.9l1.8,1l2-0.5l1.1-1.7l-0.5-1.9L28.1,7.2z M28.8,11.2l-1.4,0.3l-1.2-0.7
			l-0.3-1.3l0.7-1.2L27.9,8l1.2,0.7l0.3,1.3L28.8,11.2z"/>
		<path class="st2" d="M32.6,9.2L32.2,8L33,6.9l-1-1.2l-1.3,0.4l-1.1-0.6l-0.2-1.3l-1.6-0.2l-0.6,1.2l-1.3,0.3l-1.2-0.8l-1.3,0.9
			l0.4,1.3L23.1,8l-1.4,0.3l-0.2,1.5l1.3,0.6l0.3,1.2l-0.8,1.1l1,1.2l1.3-0.4l1.1,0.6l0.2,1.3l1.6,0.2l0.6-1.2l1.3-0.3l1.2,0.8
			l1.3-0.9l-0.4-1.3l0.7-1.1l1.4-0.3l0.2-1.5L32.6,9.2z M29.7,12.3l-2.5,0.6L25,11.7l-0.6-2.4l1.3-2.1l2.5-0.6l2.2,1.2l0.6,2.4
			L29.7,12.3z"/>
	</g>
	<g>
		<path class="st3" d="M33.4,17.6l-0.4-0.8l0.4-1.1l-1-0.7l-1,0.6l-0.9-0.2l-0.7-0.9l-1.3,0.3l-0.1,1.1l-0.7,0.6l-1.2-0.1l-0.5,1.1
			l0.8,0.8l0,0.9l-0.8,0.8l0.6,1.1l1.2-0.1l0.8,0.5l0.2,1.1l1.3,0.2l0.6-1l0.9-0.2l1,0.6l1-0.8L33,20.5l0.4-0.8l1.1-0.4l0-1.2
			L33.4,17.6z M31.8,20.7l-2.3,0.6L27.6,20l0-2.2l1.8-1.5l2.3,0.4l1.1,2L31.8,20.7z"/>
		<path class="st3" d="M29.5,16.8L28,17.9l0,1.8l1.5,1.1l1.8-0.5l0.8-1.6l-0.9-1.6L29.5,16.8z M30.8,19.6l-1.1,0.3l-0.9-0.6l0-1.1
			l0.9-0.7l1.1,0.2l0.5,0.9L30.8,19.6z"/>
	</g>
</g>
<g>
	<rect x="41.3" y="2" class="st4" width="21.6" height="30.1"/>
	<rect x="43" y="2.9" class="st5" width="21.6" height="30.1"/>
	<polygon class="st6" points="43,33 41.3,32.1 41.3,2 43,2.9 	"/>
	<path class="st7" d="M59.3,13.3l-0.7,1.7L57,14.6c-0.1,0.1-0.1,0.2-0.2,0.2c0,0-0.1,0.1-0.1,0.1c-0.1,0.1-0.2,0.1-0.2,0.2l0.4,1.6
		l-1.7,0.7l-0.8-1.4c-0.1,0-0.2,0-0.3,0c-0.1,0-0.1,0-0.2,0c-0.1,0-0.2,0-0.3,0l-0.8,1.4l-1.7-0.7l0.4-1.6c-0.1-0.1-0.2-0.1-0.2-0.2
		c0,0-0.1-0.1-0.1-0.1c-0.1-0.1-0.2-0.2-0.2-0.2l-1.6,0.4l-0.7-1.7l1.4-0.8c0-0.1,0-0.2,0-0.3c0-0.1,0-0.1,0-0.2c0-0.1,0-0.2,0-0.3
		l-1.4-0.8l0.7-1.7l1.6,0.4c0.1-0.1,0.1-0.2,0.2-0.2l0,0c0,0,0.1-0.1,0.1-0.1C51.1,9,51.2,9,51.3,8.9l-0.4-1.6l1.7-0.7L53.4,8
		c0.1,0,0.2,0,0.3,0c0.1,0,0.1,0,0.2,0l0,0c0.1,0,0.2,0,0.3,0l0.8-1.4l1.7,0.7l-0.4,1.6C56.5,9,56.5,9,56.6,9.1
		c0.1,0.1,0.1,0.1,0.1,0.1c0.1,0.1,0.2,0.2,0.2,0.2l1.6-0.4l0.7,1.7l-1.4,0.8c0,0.1,0,0.2,0,0.3c0,0.1,0,0.1,0,0.2
		c0,0.1,0,0.2,0,0.3L59.3,13.3z"/>
	<path class="st8" d="M61.9,21.2H46.5c-0.4,0-0.7-0.3-0.7-0.7s0.3-0.7,0.7-0.7h15.5c0.4,0,0.7,0.3,0.7,0.7S62.3,21.2,61.9,21.2z"/>
	<path class="st8" d="M61.9,24.2h-4.6c-0.4,0-0.7-0.3-0.7-0.7c0-0.4,0.3-0.7,0.7-0.7h4.6c0.4,0,0.7,0.3,0.7,0.7
		C62.6,23.9,62.3,24.2,61.9,24.2z"/>
	<path class="st8" d="M54,24.2h-7.5c-0.4,0-0.7-0.3-0.7-0.7c0-0.4,0.3-0.7,0.7-0.7H54c0.4,0,0.7,0.3,0.7,0.7
		C54.7,23.9,54.4,24.2,54,24.2z"/>
	<path class="st8" d="M61.9,27.2h-7.7c-0.4,0-0.7-0.3-0.7-0.7c0-0.4,0.3-0.7,0.7-0.7h7.7c0.4,0,0.7,0.3,0.7,0.7
		C62.6,26.9,62.3,27.2,61.9,27.2z"/>
	<path class="st8" d="M51.3,27.2h-4.9c-0.4,0-0.7-0.3-0.7-0.7c0-0.4,0.3-0.7,0.7-0.7h4.9c0.4,0,0.7,0.3,0.7,0.7
		C52.1,26.9,51.7,27.2,51.3,27.2z"/>
	<path class="st8" d="M61.9,30.2H46.5c-0.4,0-0.7-0.3-0.7-0.7c0-0.4,0.3-0.7,0.7-0.7h15.5c0.4,0,0.7,0.3,0.7,0.7
		C62.6,29.9,62.3,30.2,61.9,30.2z"/>
</g>
<g>
	<path class="st1" d="M76,26.4c-0.5-0.3-1.1-0.7-1.6-1.2c-0.4-0.3-0.8-0.7-1.2-1.1l5.1-5.7l2.3,1.9L76,26.4z"/>
	<path class="st9" d="M80.2,20.6l-2-1.7c-0.3-0.2-0.3-0.7-0.1-1l1.1-1.3l3,2.6l-1.1,1.3C80.9,20.9,80.5,20.9,80.2,20.6z"/>
	<circle class="st10" cx="85.3" cy="12.5" r="5.9"/>
	<path class="st9" d="M88.3,12.1c-0.9,1.1-2,0.4-2.9,1.3l-0.7,0.8l-1.1-0.9l0.5-0.6c1.2-1.4,2.5-0.9,3-1.6c0.2-0.3,0.2-0.6-0.1-0.9
		c-0.3-0.2-0.7-0.2-1,0.3l-0.2,0.2l-1.1-0.9l0.3-0.4c0.7-0.8,1.8-0.8,2.7-0.1C88.8,10.2,89,11.3,88.3,12.1z M83.2,14l1.1,0.9
		L83.3,16l-1.1-0.9L83.2,14z"/>
	<path class="st1" d="M80.4,18.4c-3.2-2.7-3.6-7.5-0.9-10.7C82.2,4.5,87,4,90.2,6.7c3.2,2.7,3.6,7.5,0.9,10.7
		C88.4,20.6,83.6,21,80.4,18.4z M89,8.2c-2.4-2-6-1.7-8,0.7c-2,2.4-1.7,6,0.7,8c2.4,2,6,1.7,8-0.7C91.7,13.8,91.4,10.2,89,8.2z"/>
	<path class="st11" d="M82.4,8.1c0.8-0.5,1.8-0.8,2.8-0.9l0.2,0c0.7,0,1.5,0.2,2.1,0.5L87,8.9c-0.5-0.2-1-0.4-1.6-0.4l-0.2,0
		c-0.7,0-1.5,0.2-2.1,0.6L82.4,8.1z"/>
	<path class="st11" d="M87.4,17.4c-0.1,0-0.1,0.1-0.2,0.1L87,17.6c-1,0.3-2.1,0.4-3.1,0.1l0.3-1c0.8,0.2,1.7,0.2,2.5-0.1l0.2-0.1
		c0,0,0.1,0,0.1-0.1L87.4,17.4z"/>
	<path class="st12" d="M95.4,10.8c0.5,0.5,0.6,1.3,0.2,1.8l-0.8,0.9l0.7,0.6l0.8-0.9c0.8-0.9,0.7-2.3-0.3-3.1l-0.7-0.6l-0.6,0.7
		L95.4,10.8z"/>
	<path class="st12" d="M87.2,22.6c-0.5,0.5-1.3,0.6-1.8,0.2l-0.7-0.6L84,22.8l0.7,0.6c0.9,0.8,2.3,0.7,3.1-0.3l0.3-0.4l-0.7-0.6
		L87.2,22.6z"/>
	<path class="st12" d="M83.4,2.5c0.5-0.5,1.3-0.6,1.8-0.2L86,3l0.6-0.7l-0.7-0.6c-0.9-0.8-2.3-0.7-3.1,0.3l-0.8,0.9l0.7,0.6
		L83.4,2.5z"/>
	<path class="st12" d="M75.3,14.2c-0.5-0.5-0.6-1.3-0.2-1.8l0.3-0.4l-0.7-0.6l-0.3,0.4c-0.8,0.9-0.7,2.3,0.3,3.1l0.7,0.6l0.6-0.7
		L75.3,14.2z"/>
</g>
</svg>
